<?xml version="1.0"?>
<svg xmlns="http://www.w3.org/2000/svg" height="512px" viewBox="-43 0 511 511.99961" width="512px" class=""><g><path d="m116.640625 166.730469-34.335937-111.046875 14.867187-4.167969c3.167969-.886719 5.695313-2.820313 7.121094-5.445313 1.355469-2.492187 1.621093-5.402343.75-8.191406-1.824219-5.847656-8.070313-9.121094-13.917969-7.300781-2.832031.886719-5.152344 2.820313-6.53125 5.449219s-1.652344 5.636718-.769531 8.472656l-28.707031 8.957031c-3.273438-10.503906-2.265626-21.652343 2.84375-31.394531 5.109374-9.742188 13.707031-16.914062 24.207031-20.191406 21.683593-6.761719 44.820312 5.375 51.582031 27.054687 3.3125 10.613281 2.238281 21.796875-3.027344 31.496094-2.839844 5.226563-6.722656 9.6875-11.398437 13.183594l26.046875 84.242187zm0 0" fill="#fee378" data-original="#FEE378" class="" data-old_color="#fee378" style="fill:#78B5FE"/><path d="m31.738281 135.964844 17.140625-24.710938 72.21875 50.097656-17.140625 24.710938zm0 0" fill="#f2f2fc" data-original="#F2F2FC" class=""/><path d="m29.273438 142.429688c-15.863282 0-28.773438-13.101563-28.773438-29.210938 0-16.101562 12.910156-29.207031 28.773438-29.207031 15.867187 0 28.777343 13.105469 28.777343 29.207031 0 16.109375-12.910156 29.210938-28.777343 29.210938zm0 0" fill="#89d2f6" data-original="#89D2F6" class="active-path" data-old_color="#89d2f6" style="fill:#C889F6"/><path d="m395.609375 28.601562c-26.691406-12.898437-58.90625-1.671874-71.796875 25.027344l-82.613281 164.5625 26.8125 13.621094 42.140625-82.957031c4.988281 6.660156 11.582031 12.265625 19.578125 16.128906 7.515625 3.628906 15.464843 5.347656 23.300781 5.347656 19.996094 0 39.234375-11.195312 48.496094-30.375l19.109375-39.558593c12.894531-26.695313 1.667969-58.902344-25.027344-71.796876zm-2.050781 58.71875-19.109375 39.554688c-2.753907 5.699219-7.558594 9.984375-13.535157 12.066406-5.976562 2.082032-12.402343 1.714844-18.105468-1.039062-5.695313-2.75-9.980469-7.558594-12.066406-13.535156-2.082032-5.972657-1.710938-12.40625 1.039062-18.101563l19.109375-39.558594c2.753906-5.699219 7.558594-9.984375 13.535156-12.066406 2.554688-.890625 5.191407-1.332031 7.820313-1.332031 3.519531 0 7.023437.792968 10.285156 2.371094 11.761719 5.683593 16.707031 19.875 11.027344 31.640624zm0 0" fill="#b3a3d9" data-original="#B3A3D9" class="" data-old_color="#b3a3d9" style="fill:#957BD4"/><path d="m68.695312 222.34375c3.738282-23 15.574219-44.0625 33.335938-59.3125 17.964844-15.417969 40.910156-23.914062 64.613281-23.914062 47.828125 0 89.917969 35.761718 97.898438 83.1875zm0 0" fill="#fd5d99" data-original="#FD5D99" class=""/><path d="m198.71875 222.316406 65.824219-.015625c-6.125-36.390625-32.347657-65.894531-65.824219-77.660156zm0 0" fill="#e2407a" data-original="#E2407A" class=""/><path d="m304.847656 222.902344-23.101562-175.875c-4.101563-29.363282-31.328125-49.914063-60.683594-45.8125-14.222656 1.984375-26.824219 9.390625-35.476562 20.851562-8.652344 11.460938-12.324219 25.605469-10.335938 39.828125l6.074219 43.507813c3.746093 26.855468 26.832031 46.339844 53.210937 46.335937 2.464844 0 4.960938-.167969 7.46875-.519531 8.074219-1.128906 15.621094-4.007812 22.226563-8.378906l10.792969 83.898437zm-51.367187-110.65625c-3.816407 5.050781-9.367188 8.3125-15.632813 9.191406-6.265625.867188-12.503906-.746094-17.554687-4.558594s-8.3125-9.367187-9.1875-15.632812l-6.074219-43.507813c-.875-6.269531.742188-12.5 4.554688-17.550781 3.816406-5.050781 9.367187-8.316406 15.636718-9.191406 12.941406-1.800782 24.933594 7.253906 26.738282 20.191406l6.0625 43.425781.019531.148438c.855469 6.242187-.765625 12.449219-4.5625 17.484375zm0 0" fill="#e2d9fb" data-original="#E2D9FB" class=""/><path d="m281.746094 47.027344c-4.101563-29.363282-31.328125-49.914063-60.683594-45.8125-8.125 1.132812-15.710938 4.039062-22.34375 8.457031v128.316406c9.632812 8.617188 22.285156 13.75 35.816406 13.75 2.464844 0 4.960938-.167969 7.46875-.519531 8.074219-1.128906 15.621094-4.003906 22.226563-8.375l10.792969 83.898438 29.824218-3.839844zm-28.265625 65.21875c-3.816407 5.050781-9.367188 8.3125-15.632813 9.191406-6.265625.867188-12.503906-.746094-17.554687-4.558594s-8.3125-9.367187-9.1875-15.632812l-6.074219-43.507813c-.875-6.269531.742188-12.5 4.554688-17.550781 3.816406-5.050781 9.367187-8.316406 15.636718-9.191406 12.941406-1.800782 24.933594 7.253906 26.738282 20.191406l6.0625 43.425781.019531.148438c.855469 6.242187-.765625 12.449219-4.5625 17.484375zm0 0" fill="#c2b5e1" data-original="#C2B5E1" class=""/><path d="m152.847656 222.328125 8.121094-3.609375-32.15625-72.09375c-9.335938 3.847656-18.085938 9.128906-25.921875 15.707031l26.757813 60zm0 0" fill="#e2407a" data-original="#E2407A" class=""/><path d="m225.617188 222.3125 8.109374-3.625-33.03125-73.347656c-10.710937-4.019532-22.203124-6.21875-34.050781-6.21875-.574219 0-1.144531.027344-1.714843.035156l37.449218 83.160156zm0 0" fill="#e2407a" data-original="#E2407A" class=""/><path d="m200.695312 145.339844c-.652343-.246094-1.320312-.460938-1.976562-.691406v69.535156l3.660156 8.132812 23.238282-.003906 8.109374-3.625zm0 0" fill="#b51359" data-original="#B51359" class=""/><path d="m316.644531 512h-235.921875l-22.269531-302.214844h280.457031zm0 0" fill="#007a9f" data-original="#007A9F" class="" data-old_color="#007a9f" style="fill:#AD8BDA"/><path d="m75.769531 444.777344 4.953125 67.222656h235.921875l4.953125-67.222656zm0 0" fill="#00607f" data-original="#00607F" class="" data-old_color="#00607f" style="fill:#9463D2"/><path d="m198.71875 209.785156v302.214844h117.925781l22.265625-302.214844zm0 0" fill="#00607f" data-original="#00607F" class="" data-old_color="#00607f" style="fill:#9463D2"/><path d="m198.71875 444.777344v67.222656h117.925781l4.953125-67.222656zm0 0" fill="#00465f" data-original="#00465F" class="" style="fill:#8851CE" data-old_color="#00465f"/></g> </svg>
