<?xml version="1.0" encoding="utf-8"?>
<!-- Generator: Adobe Illustrator 23.0.3, SVG Export Plug-In . SVG Version: 6.00 Build 0)  -->
<svg version="1.1" id="Layer_1" xmlns="http://www.w3.org/2000/svg" xmlns:xlink="http://www.w3.org/1999/xlink" x="0px" y="0px"
	 viewBox="0 0 899.01 900" style="enable-background:new 0 0 899.01 900;" xml:space="preserve">
<style type="text/css">
	.st0{fill:#562782;}
	.st1{fill:#1E8FE2;}
</style>
<path class="st0" d="M0,75c5.52-19.52,15.56-27.17,35.64-27.17c109.82,0.02,219.64,0.07,329.46,0.07
	c85.82,0,171.65-0.05,257.47-0.05c1.43,0,2.96-0.43,4.4,0.52c0.18,1.98-1.52,2.84-2.54,3.97c-25.99,28.61-52.06,57.15-78,85.82
	c-2.58,2.85-5.26,3.95-9.05,3.94c-86.66-0.11-173.32-0.12-259.97-0.14c-53.99-0.01-107.99,0-161.98,0
	c-14.52,0-19.77,5.22-19.78,19.93c-0.03,58-0.02,115.99-0.02,173.99c0,92.33,0,184.66,0,276.98c0.01,57.16,0.03,114.33,0.05,171.49
	c0,14.77,5.08,19.92,19.68,19.92c118.66,0.01,237.32,0,355.97,0.01c87.83,0.01,175.65,0.04,263.48,0.06c1,0,2-0.06,3,0.01
	c14.2,1,20.45-6.86,20.39-20.5c-0.46-104.66-0.43-209.31-0.65-313.97c-0.06-26.66-0.43-53.33-0.72-79.99
	c-0.02-2.07,0.24-3.87,1.49-5.62c30.21-42.3,60.38-84.63,90.56-126.95c0.37-0.52,0.61-1.21,1.97-0.95c0,2.64,0,5.4,0,8.15
	c-0.02,130.66-0.05,261.31-0.06,391.97c0,68.83,0.03,137.65,0.06,206.48c0.01,21.23-6.54,30.3-26.87,37.02c-267.33,0-534.67,0-802,0
	c-9.6-5.5-17.13-12.98-22-23C0,609.67,0,342.33,0,75z"/>
<path class="st1" d="M899,0c0.13,2.08-1.5,3.27-2.53,4.69c-38.1,53.02-76.23,106.02-114.36,159.01
	c-33.08,45.96-66.16,91.92-99.26,137.86c-33.67,46.75-67.34,93.49-101.02,140.22c-32.62,45.26-65.26,90.5-97.88,135.77
	c-38.36,53.24-76.71,106.48-115.05,159.73c-11.38,15.81-22.79,31.61-34.01,47.54c-2.31,3.28-3.35,3.71-5.66-0.06
	c-22.04-36.11-44.14-72.19-66.44-108.14c-14.03-22.62-28.27-45.12-42.06-67.86c-35.22-58.09-71.32-115.63-106.57-173.7
	c-0.74-1.23-2.49-2.47-1.76-3.87c0.89-1.7,3.03-0.83,4.6-0.83c22.99-0.05,45.99,0.03,68.98-0.1c3.34-0.02,5.63,1.46,8.05,3.3
	c44.62,34.05,89.29,68.02,133.84,102.17c3.32,2.55,4.96,2.18,7.63-0.77c40.13-44.33,80.38-88.54,120.58-132.79
	c36.29-39.94,72.55-79.89,108.84-119.82c37.63-41.41,75.3-82.79,112.93-124.2c42.67-46.96,85.33-93.92,127.97-140.91
	C810.97,11.57,815.95,5.75,821,0C847,0,873,0,899,0z"/>
</svg>
