<?xml version="1.0" encoding="utf-8"?>
<!-- Generator: Adobe Illustrator 23.0.3, SVG Export Plug-In . SVG Version: 6.00 Build 0)  -->
<svg version="1.1" id="Layer_1" xmlns="http://www.w3.org/2000/svg" xmlns:xlink="http://www.w3.org/1999/xlink" x="0px" y="0px"
	 viewBox="0 0 293.76 362.77" style="enable-background:new 0 0 293.76 362.77;" xml:space="preserve">
<path d="M25.96,109.92c0-18.59-0.14-36.73,0.05-54.87c0.12-11.11,0.6-22.22,1.18-33.32C27.84,9.41,37.28,0.24,49.73,0.19
	c39.82-0.16,79.63-0.09,119.45-0.12c8.66-0.01,17.33-0.03,25.99-0.06c15.44-0.06,25.23,9.17,25.43,24.59
	c0.28,21.82,0.22,43.65,0.28,65.47c0.03,12.46-0.17,24.93,0.03,37.39c0.13,8.09,1.23,16.17,1.14,24.25
	c-0.1,9.24-1.03,18.47-1.65,28.53c3.99-3.14,6.82-5.96,10.17-7.86c5.24-2.97,7.3-2.25,9.78,3.25c1.84,4.07,3.35,8.37,4.38,12.71
	c2.39,10.16,3.99,20.52,6.65,30.6c5.64,21.37,11.51,42.69,17.8,63.88c2.31,7.77,5.74,15.27,9.29,22.58
	c5.79,11.93,10.18,24.21,11.89,37.42c0.85,6.56,2.2,13.04,3.4,19.97c-88.96,0-177.49,0-266.75,0c2.17-8.65-4.25-12.05-9.51-15.77
	c-10.53-7.44-14.17-18.76-17.07-30.18c-2.32-9.13,5-18.93,14.3-20.91c3.87-0.83,7.81-1.33,12.19-2.06c0-5.33,0.14-10.46-0.1-15.58
	c-0.06-1.29-1.25-2.58-2.08-3.76c-6.1-8.68-12.81-17-18.22-26.1c-6.38-10.73,0.97-25.14,13.74-28.38c1.93-0.49,3.92-0.7,6.8-1.2
	c0-8.9,0.01-17.98,0-27.06c-0.01-9.33,2.12-19.38-0.67-27.79c-2.76-8.31-10.55-14.94-16.05-22.36c-5.5-7.42-9.38-15.39-7.68-25.02
	c1.62-9.18,6.38-12.08,15.32-9.36C20.51,108,22.97,108.91,25.96,109.92z M213.71,353.46c0-105.64,0-210.82,0-316.29
	c-59.99,0-119.78,0-180.11,0c0,14.5,0,28.47,0,42.43c0.02,45.13,0.12,90.27-0.05,135.4c-0.02,5.66,1.09,10.02,5.26,14.22
	c7.42,7.48,6.27,16.55-1.75,23.42c-1.72,1.47-3.15,4.26-3.23,6.49c-0.34,10.31-0.03,20.65-0.22,30.97
	c-0.06,3.41,0.67,5.04,4.43,5.54c5.61,0.75,7.58,3.72,7.09,9.44c-0.51,6.03-3.83,10.47-8.25,14.32c-1.29,1.13-3.04,2.72-3.08,4.13
	c-0.27,9.93-0.14,19.88-0.14,29.92C94,353.46,153.68,353.46,213.71,353.46z"/>
</svg>
