<svg id="Layer_1" data-name="Layer 1" xmlns="http://www.w3.org/2000/svg" viewBox="0 0 46 362.28"><title>phone-frame-2</title><path d="M33.66,353.45c0-10-.13-20,.14-29.92,0-1.41,1.79-3,3.08-4.13,4.42-3.85,7.74-8.29,8.25-14.32.49-5.72-1.48-8.69-7.09-9.44-3.76-.5-4.49-2.13-4.43-5.54.19-10.32-.12-20.66.22-31a10,10,0,0,1,3.23-6.49c8-6.87,9.17-15.94,1.75-23.42-4.17-4.2-5.28-8.56-5.26-14.22.17-45.13.07-90.27.05-135.4V37.17H46V.51A22.14,22.14,0,0,0,27.19,21.73c-.58,11.1-1.06,22.21-1.18,33.32C25.82,73.19,26,91.33,26,109.92c-3-1-5.45-1.92-8-2.66-8.94-2.72-13.7.18-15.32,9.36-1.7,9.63,2.18,17.6,7.68,25S23.63,155.69,26.39,164s.66,18.46.67,27.79c0,9.08,0,18.16,0,27.06-2.88.5-4.87.71-6.8,1.2C7.49,223.29.14,237.7,6.52,248.43c5.41,9.1,12.12,17.42,18.22,26.1.83,1.18,2,2.47,2.08,3.76.24,5.12.1,10.25.1,15.58-4.38.73-8.32,1.23-12.19,2.06-9.3,2-16.62,11.78-14.3,20.91C3.33,328.26,7,339.58,17.5,347c5.26,3.72,11.68,7.12,9.51,15.77H46v-9.34Z" transform="translate(0 -0.51)"/></svg>