<svg height="512" viewBox="0 0 57 60" width="512" xmlns="http://www.w3.org/2000/svg"><g id="052---Curl-Right-Arrow" fill="none"><g id="Icons" transform="translate(1 1)"><path id="Shape" d="m51 15s-14-5-19-15l-.57 8.03h-2.65c-6.6.3-25.76 2.74-27.78 20.97-1.26 11.35 3.44 18.32 7.08 21.92l-.08.08c2.2565144 2.7576989 4.9568368 5.1200585 7.99 6.99-.15-.37-7.9-19.09 1.01-28.99 1.9981007-2.1742338 4.5760099-3.732082 7.43-4.49l-3.42 5.48 4 4c.41-.47 14.23-15.97 29.99-14.99z" fill="#9d27b0"/><path id="Shape" d="m55 19c-1.3068716-.080342-2.6181927-.0502351-3.92.09l-3.08-3.08s-10.27-3.67-16.36-11.01l.36-5c5 10 19 15 19 15z" fill="#6a1b9a"/><path id="Shape" d="m27.49 19.6197551-3.05 4.8902449h-.01c-2.8539901.757918-5.4318993 2.3157662-7.43 4.49-8.91 9.9-1.16 28.62-1.01 28.99-3.0331632-1.8699415-5.7334856-4.2323011-7.99-6.99l.08-.08c1.16764844 1.1922301 2.4853612 2.2275758 3.92 3.08 0 0-8-19 1-29 3.78-4.2 9.33-5.4 14.49-5.3802449z" fill="#673ab7"/><path id="Shape" d="m55 19c-15.76-.98-29.58 14.52-29.99 14.99l-4-4c2.0481268-2.2327873 4.2828861-4.2868924 6.68-6.14h.01c5.58-4.39 14.09-9.4 23.25-8.85h.05z" fill="#4527a0"/><path id="Shape" d="m52.99 17.04c-15.52-.97-29.16 14.05-29.96 14.97l-2.02-2.02c2.0481268-2.2327873 4.2828861-4.2868924 6.68-6.14h.01c5.58-4.39 14.09-9.4 23.25-8.85z" fill="#673ab7"/></g><path id="Shape" d="m52.383 16.088c-.017-.007-.029-.023-.046-.029-.137-.049-13.685-4.99-18.437-14.506-.1974756-.41147549-.6484969-.6370337-1.0961777-.54820441-.4476807.08882928-.7784127.4695038-.8038223.92520441l-.5 7.1h-1.766c-6.2.282-26.6 2.691-28.728 21.859-1.966 17.699 10.342 25.931 11.443 26.628 1.2520243 1.133841 2.5963408 2.1613952 4.019 3.072.371797.2216426.8439859.1789203 1.1699636-.105855.3259778-.2847753.4317338-.7469475.2620364-1.145145-.077-.182-7.631-18.252.844-27.669 1.2000001-1.307483 2.6414453-2.370655 4.245-3.131l-1.827 2.922c-.2491038.3948689-.1918237.9095602.138 1.24l4 4c.1959368.1959652.4644066.3018375.741361.2923593.2769545-.0094783.537558-.1334572.719639-.3423593.139-.159 13.767-15.632 29.171-14.65.4159878.0283983.8059374-.2042922.9784751-.583875.1725376-.3795827.0914471-.8263824-.2034751-1.121125-3.954-3.956-4.05-4.095-4.324-4.207zm-49.389 15.022c.631-5.7 4.51-19.067 26.786-20.08h2.65c.5257052.0013266.9626765-.4046197 1-.929l.346-4.887c3.78 5.324 9.751 8.935 13.747 10.916-8.454.971-15.812 5.821-20.48 9.7l2.3-3.676c.1922934-.3076622.2028629-.6953423.0276184-1.0130248-.1752444-.3176825-.508809-.5155266-.8716184-.5169752-18.799-.059-23.115 15.249-17.499 33.263-3.556-3.202-9.375-10.45-8.006-22.777zm11.927 25.88c-.322-.261-.671-.557-1.038-.876-.806-2.107-7.133-19.563.86-28.445 2.725-3.027 6.727-4.706 11.914-5l-1.875 3c-12.996 3.982-14.099 18.148-9.861 31.321zm11.063-22.44-2.562-2.561c1.485-1.624 13.883-14.643 28.151-14l1.989 1.99c-13.223.54-24.645 11.514-27.578 14.571z" fill="#000" transform="translate(0 -1)"/></g></svg>