<?xml version="1.0" encoding="utf-8"?>
<!-- Generator: Adobe Illustrator 23.0.3, SVG Export Plug-In . SVG Version: 6.00 Build 0)  -->
<svg version="1.1" id="Layer_1" xmlns="http://www.w3.org/2000/svg" xmlns:xlink="http://www.w3.org/1999/xlink" x="0px" y="0px"
	 viewBox="0 0 512 512" style="enable-background:new 0 0 512 512;" xml:space="preserve">
<style type="text/css">
	.st0{fill:#F96BA2;}
	.st1{fill:#F7398F;}
	.st2{fill:#F2087D;}
</style>
<path class="st0" d="M470.76,350.18h-209.2c-15.49,10.88-32.77,19.39-51.31,25h260.51c8.95,0,16.24,7.29,16.24,16.24
	s-7.29,16.24-16.24,16.24H216.69c-22.74,0-41.25,18.5-41.25,41.24s18.5,41.24,41.25,41.24h177.14c6.9,0,12.5-5.59,12.5-12.5
	c0-6.9-5.6-12.5-12.5-12.5H216.69c-8.96,0-16.24-7.29-16.24-16.24s7.29-16.24,16.24-16.24h254.07c22.74,0,41.24-18.5,41.24-41.24
	S493.5,350.18,470.76,350.18z"/>
<path class="st1" d="M393.83,465.15h-2.6c0.06,0.5,0.1,0.99,0.1,1.5c0,6.91-5.6,12.5-12.5,12.5H201.69
	c-5.75,0-11.23-1.18-16.21-3.32c7.57,8.76,18.75,14.32,31.21,14.32h177.14c6.9,0,12.5-5.59,12.5-12.5
	C406.33,470.75,400.73,465.15,393.83,465.15z"/>
<path class="st1" d="M486.96,353.5c6.25,7.23,10.04,16.64,10.04,26.92c0,22.74-18.5,41.24-41.24,41.24H201.69
	c-8.96,0-16.24,7.29-16.24,16.24c0,8.83,7.09,16.03,15.88,16.23c-0.56-1.64-0.88-3.39-0.88-5.23c0-8.96,7.29-16.24,16.24-16.24
	h254.07c22.74,0,41.24-18.5,41.24-41.24C512,374.43,501.67,359.81,486.96,353.5z"/>
<path class="st1" d="M360.89,202.45c0,99.66-80.79,180.44-180.44,180.44S0,302.1,0,202.45S80.79,22,180.45,22
	S360.89,102.79,360.89,202.45z"/>
<path class="st0" d="M116.77,138.77C71.5,184.05,43.34,242.32,37.48,302.85c-0.22,2.28-1.45,4.21-3.19,5.43
	c-3.83-5.28-7.39-10.77-10.64-16.46c6.27-46.78,25.05-91.92,54.19-130.95c-21.21-9.29-43.27-15.68-65.69-19.05
	c-0.55-0.08-1.07-0.22-1.57-0.41c1.73-4.8,3.65-9.5,5.76-14.11c24.31,3.83,48.19,11.02,71.09,21.42
	c5.89-7.09,12.13-13.96,18.73-20.56c3.04-3.04,6.13-6,9.27-8.88C90.09,108.52,63.76,101.9,37,99.6c-1.44-0.13-2.74-0.65-3.82-1.45
	c3.19-4.49,6.58-8.83,10.16-13c28.95,3.05,57.38,10.87,84.63,23.27c11.59-9.52,23.8-18.1,36.49-25.66
	c-27.06-12.64-55.4-20.46-84.42-23.27c-2.28-0.22-4.21-1.44-5.43-3.18c5.28-3.83,10.76-7.38,16.45-10.63
	c30.84,4.11,60.86,13.58,89.4,28.23c28.22-14.48,58.45-24.08,89.4-28.23c5.68,3.25,11.17,6.8,16.44,10.63
	c-1.21,1.74-3.15,2.96-5.43,3.18C220.32,65.34,162.04,93.5,116.77,138.77z M283.09,160.93c21.12-9.26,43.21-15.74,65.64-19.1
	c0.55-0.08,1.07-0.23,1.57-0.41c-1.73-4.8-3.65-9.5-5.76-14.11c-25.87,4.08-51.28,12.06-75.36,23.5c-0.71,0.21-1.39,0.54-2.03,0.97
	c-17.04,8.25-33.39,18.25-48.75,29.8c-0.37,0.23-0.73,0.48-1.07,0.77c-0.04,0.04-0.08,0.09-0.13,0.13
	c-10.62,8.08-20.75,16.91-30.29,26.45c-4.11,4.11-8.09,8.32-11.93,12.64c-0.1,0.11-0.19,0.21-0.28,0.32
	c-36.72,41.39-61.13,92.08-69.41,144.65c4.6,2.11,9.3,4.03,14.11,5.76c0.19-0.5,0.33-1.02,0.41-1.56
	c7.16-47.75,28.44-93.99,60.64-132.52c32.48,38.74,53.39,84.38,60.6,132.52c0.08,0.54,0.23,1.07,0.41,1.56
	c4.8-1.73,9.5-3.65,14.11-5.76c-8.01-50.88-30.45-99-65.1-139.7c2.3-2.47,4.65-4.91,7.04-7.31c7.54-7.54,15.47-14.61,23.73-21.19
	c35.52,42.64,57.48,94.76,62.02,147.56c0.13,1.43,0.65,2.74,1.45,3.82c4.5-3.19,8.83-6.58,13.01-10.16
	c-5.7-53.87-28.43-106.75-64.5-150.26c11.5-8.21,23.54-15.51,36-21.82c30.78,40.28,49.48,86.95,54.17,135.38
	c0.22,2.28,1.45,4.21,3.19,5.43c3.83-5.28,7.39-10.77,10.64-16.46C330.99,245.06,312.42,200.17,283.09,160.93z M76.16,349.72
	c0.8-1.08,1.32-2.38,1.45-3.82c5.29-61.53,33.54-120.75,79.54-166.75c46.01-46.01,105.23-74.26,166.74-79.55
	c1.44-0.13,2.74-0.65,3.82-1.45c-3.19-4.49-6.58-8.82-10.15-13c-63.21,6.66-123.77,36.15-171.02,83.4
	c-47.24,47.24-76.72,107.8-83.39,171.02C67.34,343.14,71.67,346.53,76.16,349.72z"/>
<path class="st2" d="M240.43,32.23c48.5,32.35,80.45,87.55,80.45,150.22c0,99.66-80.79,180.44-180.44,180.44
	c-21.04,0-41.22-3.61-59.99-10.23c28.62,19.09,63,30.23,99.99,30.23c99.66,0,180.44-80.79,180.44-180.44
	C360.89,123.82,310.6,56.95,240.43,32.23z"/>
<path class="st1" d="M255.59,366.54c-0.25,0.13-3.45,1.57-6.63,2.88c-4.75,1.95-6.96,2.68-7.48,2.88c-0.19-0.5-0.34-1.02-0.42-1.56
	c-1.71-11.41-4.2-22.68-7.42-33.75c4.48-2.71,8.83-5.61,13.05-8.69C250.57,340.81,253.55,353.58,255.59,366.54z M283.28,345.9
	c0.13,1.43,0.65,2.74,1.45,3.82c1.61-1.07,7.46-5.41,13.02-10.16c-1.85-17.45-5.5-34.8-10.79-51.77c-3.57,4.96-7.39,9.73-11.45,14.3
	C279.39,316.52,282.01,331.18,283.28,345.9z M121.32,361.88c-5.01-0.53-9.95-1.27-14.83-2.2c-0.42,2.28-0.82,4.56-1.18,6.85
	c4.4,2.02,9,3.92,14.11,5.75C120,370.73,119.71,370.49,121.32,361.88z M317.09,219.45c-1.71,8.2-3.98,16.2-6.77,23.96
	c6.71,19.29,11.13,39.21,13.09,59.45c0.22,2.28,1.44,4.21,3.18,5.43c3.83-5.28,7.39-10.77,10.64-16.46
	C333.92,266.98,327.12,242.66,317.09,219.45z M314.27,133.92c1.34,4.79,2.49,9.66,3.43,14.6c10.23-2.88,20.59-5.13,31.03-6.7
	c0.55-0.08,1.07-0.22,1.57-0.41c-1.73-4.84-3.69-9.59-5.75-14.1C334.36,128.91,324.25,131.13,314.27,133.92z M286.29,56.3
	c-5.09-3.69-10.7-7.33-16.46-10.63c-3.32,0.45-6.64,0.96-9.95,1.54c4.7,4.14,9.18,8.52,13.42,13.13c2.52-0.32,5.04-0.62,7.57-0.86
	C283.14,59.27,285.07,58.04,286.29,56.3z M294.57,88.6c2.74,4.49,5.29,9.11,7.64,13.84c7.18-1.26,14.42-2.21,21.69-2.84
	c1.43-0.13,2.73-0.65,3.81-1.45c-3.16-4.45-6.42-8.64-10.15-13C309.84,85.96,302.18,87.12,294.57,88.6z"/>
</svg>
