<?xml version="1.0" encoding="utf-8"?>
<!-- Generator: Adobe Illustrator 23.0.3, SVG Export Plug-In . SVG Version: 6.00 Build 0)  -->
<svg version="1.1" id="Layer_1" xmlns="http://www.w3.org/2000/svg" xmlns:xlink="http://www.w3.org/1999/xlink" x="0px" y="0px"
	 viewBox="0 0 7.3 10" style="enable-background:new 0 0 7.3 10;" xml:space="preserve">
<path d="M7.1,8.7H7c0,0.5-0.6,0.7-1.7,0.7L5,9.3c-1.3-0.1-2.7,0-4,0.2L0.9,9.4l2.6-4.2C4.1,5,4.3,4.8,4.4,4.6c0-0.1-0.1-0.2-0.4-0.2
	V4.3c1.7-2,2.7-3.2,3-3.8V0.4C7,0.1,5.7,0,3,0H2C0.7,0,0.1,0.1,0.1,0.3v0.8l0.2,0.2h0.2l0.2-0.2V0.6h3.2l2.3,0.1v0.1L6.1,0.9
	c-1.5,1.6-2.5,2.8-3,3.6c-0.6,0-0.9,0.1-0.9,0.3v0.3h0.4L2.5,5.5L0,9.8L0.2,10h0.3l6.1-0.2l0.5,0.1l0.2-0.5C7.4,9,7.3,8.7,7.1,8.7z"
	/>
</svg>
