<?xml version="1.0" encoding="utf-8"?>
<!-- Generator: Adobe Illustrator 23.0.3, SVG Export Plug-In . SVG Version: 6.00 Build 0)  -->
<svg version="1.1" id="Layer_1" xmlns="http://www.w3.org/2000/svg" xmlns:xlink="http://www.w3.org/1999/xlink" x="0px" y="0px"
	 viewBox="0 0 8.5 10.2" style="enable-background:new 0 0 8.5 10.2;" xml:space="preserve">
<path d="M1.6,10.2c0-0.3-0.2-0.4-0.6-0.4C0.9,9.7,0.8,7.6,0.8,3.5L0.9,1h0.2C1.5,1.9,1.8,2.3,2,2.3c0.7,1.2,1.2,2,1.6,2.5v0.1
	C3.4,4.9,3.3,5,3.3,5.1v0.2h0.8c0.4,0.9,1.4,2.4,3,4.4L6.9,10v0.1L7,10.2l0.5-0.1h1V9.9C8.2,9.7,8,8.7,7.9,7V4L7.7,2.9V1.7l0.1-1.2
	h0.1L8,0.6h0.3l0.2-0.2V0.1L8.2,0c-1,0-1.6,0.1-1.6,0.3c0,0.1,0.2,0.2,0.5,0.2h0.1L7.1,1.6C7.3,3.9,7.4,6,7.4,7.9v1.5H7.3
	c-1.8-2.6-2.7-4-2.8-4.1V5.2h0.2V5C4.2,4.9,4,4.7,4,4.6C3.3,3.8,2.9,3.3,2.9,3.1C2.5,2.7,2,2,1.4,0.8H1.3l0.1-0.3L1.3,0.2L1,0.3
	L0.7,0.1C0.2,0.1,0,0.2,0,0.4v0.1c0,0.1,0.1,0.2,0.4,0.3l-0.1,2v1.1l0.1,5.7C0.1,9.7,0,9.8,0,10c0,0.1,0.2,0.1,0.6,0.1L1.6,10.2
	L1.6,10.2z"/>
</svg>
