<?xml version="1.0" encoding="utf-8"?>
<!-- Generator: Adobe Illustrator 23.0.3, SVG Export Plug-In . SVG Version: 6.00 Build 0)  -->
<svg version="1.1" id="Layer_1" xmlns="http://www.w3.org/2000/svg" xmlns:xlink="http://www.w3.org/1999/xlink" x="0px" y="0px"
	 viewBox="0 0 10.2 10.1" style="enable-background:new 0 0 10.2 10.1;" xml:space="preserve">
<path d="M2.1,9.5c0-0.1-0.2-0.2-0.5-0.2V8.4c0-2,0.2-4.5,0.5-7.5l1.3,1.3L3.2,2.5v0.1l0.1,0.1l0.3-0.1c0.2,0,0.4,0.2,0.6,0.5
	c0,0.2,0.1,0.4,0.4,0.5L4.4,3.9C4.5,4.1,4.7,4.2,5,4.2h0.7l0.1-0.1c0-0.1-0.1-0.2-0.3-0.2L6.1,3c0.7-0.2,1.1-0.3,1.1-0.4
	S7.1,2.4,6.8,2.4c0.8-1,1.3-1.5,1.5-1.5l0.9,8.7H8.5v0.2l0.3,0.3h0.4c0.5,0,0.9-0.1,1-0.4c0-0.1-0.1-0.2-0.4-0.2
	C9.4,4.9,9,1.9,8.7,0.6c0.4,0,0.5-0.1,0.5-0.2L8.9,0.1H8.7c-0.5,0-0.9,0.1-1.2,0.2l0.2,0.3L7.4,0.9C6.8,1.8,6.2,2.3,5.7,2.3v0.1
	l0.2,0.3l-1,1c0-0.2-0.3-0.5-0.9-1.1l0.2-0.3V2.2C3.7,2,3.5,1.9,3.5,1.7L2.2,0.5c0.3,0,0.4-0.1,0.4-0.2V0.1L2.5,0
	C1.3,0.1,0.7,0.2,0.7,0.4c0,0.1,0.2,0.2,0.5,0.2L0.8,9.5H0.3L0,9.8v0.1L0.1,10C1.5,9.9,2.1,9.8,2.1,9.5z"/>
</svg>
