<?xml version="1.0" encoding="utf-8"?>
<!-- Generator: Adobe Illustrator 23.0.3, SVG Export Plug-In . SVG Version: 6.00 Build 0)  -->
<svg version="1.1" id="Layer_1" xmlns="http://www.w3.org/2000/svg" xmlns:xlink="http://www.w3.org/1999/xlink" x="0px" y="0px"
	 viewBox="0 0 8.1 10" style="enable-background:new 0 0 8.1 10;" xml:space="preserve">
<path d="M7.2,0.2L7.2,0.2H6.1v0.1l0.1,0.5L3.9,3.1H3.8L3.1,2.6C2.3,1.5,1.6,1,1.2,0.9V0.8c0.4-0.1,0.5-0.2,0.5-0.3L1.5,0.3H0.3
	L0,0.6C1.3,1.4,1.9,2,1.9,2.2C3,3.3,3.6,4,3.6,4.4v1.7c-0.3,0-0.4,0.1-0.4,0.2l0.5,0.5v2.6H3.1v0.3c0,0.1,0.2,0.2,0.5,0.3
	c1,0,1.5-0.2,1.5-0.3V9.6c0-0.1-0.2-0.2-0.6-0.2V6.5C5,6.4,5.3,6.3,5.3,6.1V6L5.2,5.9L4.5,6.1c-0.1,0-0.2-0.5-0.2-1.6
	c0-0.4,0.2-0.8,0.5-1.3c1.8-1.9,2.9-2.9,3.3-2.9L7.9,0L7.2,0.2z"/>
</svg>
