<?xml version="1.0" encoding="utf-8"?>
<!-- Generator: Adobe Illustrator 23.0.3, SVG Export Plug-In . SVG Version: 6.00 Build 0)  -->
<svg version="1.1" id="Layer_1" xmlns="http://www.w3.org/2000/svg" xmlns:xlink="http://www.w3.org/1999/xlink" x="0px" y="0px"
	 viewBox="0 0 7.3 10" style="enable-background:new 0 0 7.3 10;" xml:space="preserve">
<path d="M6.9,2C6.7,0.6,5.7,0,4.1,0S1.6,0.9,1.6,2.7c0,0.3,0.2,0.7,0.7,1.2C3.4,4.2,4,4.6,4.2,5.1h0.1l0.2-0.2
	c0.8,0,1.4,0.9,1.8,2.6L6.4,8C6.1,8.9,5.1,9.4,3.2,9.4H3C1.9,9.2,1.3,8.9,1.3,8.6V8.5c0.4-0.1,0.6-0.3,0.6-0.4
	c0-0.2-0.2-0.3-0.6-0.3H0.7C0.3,7.8,0.1,7.9,0,8.2c0,0.1,0.2,0.2,0.6,0.2c0,0.4,0.1,0.5,0.2,0.5c0,0.4,0.7,0.8,2.1,1.1h1.2l0.6-0.1
	c1.4,0,2.2-0.8,2.3-2.5L6.8,6.7C6.3,5.1,5.6,4.3,4.7,4.3C4.6,3.9,4.5,3.7,4.4,3.7L4.1,4C2.8,3.5,2.2,3.1,2.2,2.7
	c0-1.1,0.4-1.8,1.2-2h0.5c1.6,0,2.3,0.5,2.3,1.4L5.9,2.5l0.2,0.2H7l0.3-0.3V2.3C7.3,2,7.2,2,6.9,2z"/>
</svg>
