<?xml version="1.0" encoding="utf-8"?>
<!-- Generator: Adobe Illustrator 23.0.3, SVG Export Plug-In . SVG Version: 6.00 Build 0)  -->
<svg version="1.1" id="Layer_1" xmlns="http://www.w3.org/2000/svg" xmlns:xlink="http://www.w3.org/1999/xlink" x="0px" y="0px"
	 viewBox="0 0 7.3 10" style="enable-background:new 0 0 7.3 10;" xml:space="preserve">
<path d="M7.3,9.8L7.1,8.6H6.9L6.7,8.8v0.6H2.4L1.1,9.3V7.1c0.4,0,0.6-0.1,0.6-0.2V6.8c0-0.1-0.1-0.2-0.3-0.2C1.1,6.6,1,6.1,1,5.1V5
	l2.9-0.1h1c0,0.2,0.1,0.3,0.2,0.3l0.3-0.3V4.6C5.4,4.2,5.3,4,5.1,4L4.9,4.2c0,0.1-1.2,0.2-3.6,0.2H1.2l0.1-1.3L1.2,2.7l0.1-0.3
	L1.8,2c0-0.2-0.2-0.3-0.5-0.3L1.4,1V0.7H2h4.6l0.1-0.1L6.4,1v0.3l0.2,0.2h0.3L7,1V0.8C7,0.3,6.9,0,6.7,0l0,0H2.9H1L0.6,0.2l0.1,0.5
	v0.7C0.2,1.5,0,1.7,0,1.8C0,2,0.2,2.1,0.6,2.1v0.1L0.5,2.3v4C0.1,6.3,0,6.5,0,6.6v0.1c0,0.1,0.2,0.2,0.5,0.2v0.9L0.4,9.6l0.1,0.1
	l2.7,0.1C5.5,10.1,6.9,10,7.3,9.8z"/>
</svg>
