<?xml version="1.0" encoding="utf-8"?>
<!-- Generator: Adobe Illustrator 23.0.3, SVG Export Plug-In . SVG Version: 6.00 Build 0)  -->
<svg version="1.1" id="Layer_1" xmlns="http://www.w3.org/2000/svg" xmlns:xlink="http://www.w3.org/1999/xlink" x="0px" y="0px"
	 viewBox="0 0 8.6 9.9" style="enable-background:new 0 0 8.6 9.9;" xml:space="preserve">
<path d="M8.6,8.2L8.4,8H7.6L7.4,8.2v0.1c0,0.2,0.2,0.3,0.5,0.3C7.7,9,7.4,9.2,6.9,9.2H6.5L5.7,8.3C5.3,7.4,5,6.9,4.8,6.8
	c0-0.6-0.5-1.2-1.4-1.9l0.9-0.2c1.5-0.7,2.3-1.4,2.3-2c0.4,0,0.5-0.1,0.5-0.2V2.3L6.9,2.1C6.3,0.7,5.1,0,3.2,0H3.1
	C1.4,0,0.5,0.2,0.3,0.6c0,0.1,0.2,0.2,0.6,0.2v0.1L0.8,1v1.7L0.7,2.8C0.5,2.8,0.4,2.9,0.4,3v0.2c0,0.1,0.1,0.2,0.3,0.2v1.4L0.5,9.1
	C0.1,9.1,0,9.2,0,9.3v0.1c0,0.1,0.3,0.3,0.8,0.3c0.4-0.1,0.8-0.3,1.1-0.5c0-0.2-0.3-0.3-0.8-0.3l0.1-0.1c0-2.3,0.2-3.4,0.4-3.4h1.1
	c0.4,0,0.8,0.3,1.3,0.9c1.1,2.4,2,3.6,2.7,3.6H7C8.1,9.7,8.6,9.2,8.6,8.2z M1.5,4.8V3.5l0.3-0.4V3c0-0.1-0.1-0.2-0.3-0.2V1.4
	c0-0.6,0.5-0.9,1.6-0.9h0.3c1.9,0.3,2.8,0.9,2.8,1.6c-0.4,0-0.5,0.1-0.5,0.4c0,0.1,0.1,0.2,0.4,0.2C5.3,4.1,3.7,4.8,1.5,4.8z"/>
</svg>
