<?xml version="1.0" encoding="utf-8"?>
<!-- Generator: Adobe Illustrator 23.0.3, SVG Export Plug-In . SVG Version: 6.00 Build 0)  -->
<svg version="1.1" id="Layer_1" xmlns="http://www.w3.org/2000/svg" xmlns:xlink="http://www.w3.org/1999/xlink" x="0px" y="0px"
	 viewBox="0 0 8.7 9.8" style="enable-background:new 0 0 8.7 9.8;" xml:space="preserve">
<path d="M8,9.3l-0.8-3C7.5,6.2,7.6,6.1,7.6,6c0-0.2-0.2-0.3-0.5-0.3c-0.2,0-0.4-0.4-0.7-1.3l0.1-0.1V4.2L6.3,4
	C5.9,2.6,5.4,1.5,4.9,0.6l0.4-0.3L5,0H4.3C4,0,3.8,0.1,3.7,0.3c0,0.1,0.1,0.2,0.4,0.2C3.5,2,2.9,3.3,2.3,4.2C2,5.2,1.8,5.7,1.7,5.7
	c0,0.5-0.3,0.8-0.9,1C0.8,6.9,0.9,7,1.2,7L0.4,9.3C0.1,9.3,0,9.4,0,9.5v0.2l0.1,0.1c1,0,1.6-0.2,1.6-0.4V9.2L1.6,9.1L1.2,9.2H1.1
	L1.8,7c0.5-0.2,0.7-0.3,0.7-0.4S2.4,6.4,2.1,6.4l0.7-1.7l0.8,0.1l0.5-0.1l0.3,0.2C4.6,4.7,5,4.5,5.5,4.5c0.3,0,0.6,0.4,0.9,1.2
	L6.1,6v0.2h0.2c0.4,0,0.8,1,1.1,2.9v0.3C7.1,9.4,7,9.5,7,9.6v0.2h0.5c0.8,0,1.2-0.1,1.2-0.4L8.5,9.2L8,9.3L8,9.3z M4.7,4.1L4.6,4.2
	L4.3,3.9C4.1,4.2,3.8,4.3,3.4,4.3H3l1.4-3.2c0.8,1.2,1.2,2.2,1.2,3H4.7z"/>
</svg>
