<?xml version="1.0" encoding="utf-8"?>
<!-- Generator: Adobe Illustrator 23.0.3, SVG Export Plug-In . SVG Version: 6.00 Build 0)  -->
<svg version="1.1" id="Layer_1" xmlns="http://www.w3.org/2000/svg" xmlns:xlink="http://www.w3.org/1999/xlink" x="0px" y="0px"
	 viewBox="0 0 8 10" style="enable-background:new 0 0 8 10;" xml:space="preserve">
<path d="M5.9,8.4c-1-1.1-2.3-2.3-4-3.6V4.7l1.4-1.2l3.4-3.2L6.5,0.1H5.6L5.4,0.3l0.2,0.3C4.8,1.5,3.4,2.8,1.3,4.5c0-0.6,0-1.6-0.2-3
	l0.1-0.4V0.7c0.4,0,0.6,0,0.6-0.2V0.4c0-0.1-0.3-0.2-0.9-0.4C0.3,0,0,0.1,0,0.3v0.1c0,0.1,0.1,0.2,0.4,0.2c0.4,2.6,0.5,5,0.3,7.4
	L0.6,9.2l0.1,0.1c-0.4,0-0.6,0-0.6,0.2L0.5,10l0.1-0.1c0.8,0,1.3-0.1,1.3-0.3L1.7,9.3L1.4,9.4c-0.1,0-0.2-0.2-0.2-0.7l0.1-1.1
	l0.1-2.3h0.1l0.1-0.1c2.4,2,4,3.4,4.9,4.3L6,9.6l0.2,0.3C7.4,9.9,8,9.8,8,9.7V9.6L7.9,9.5C7.1,9.4,6.5,9.1,5.9,8.4z"/>
</svg>
