<?xml version="1.0" encoding="utf-8"?>
<!-- Generator: Adobe Illustrator 23.0.3, SVG Export Plug-In . SVG Version: 6.00 Build 0)  -->
<svg version="1.1" id="Layer_1" xmlns="http://www.w3.org/2000/svg" xmlns:xlink="http://www.w3.org/1999/xlink" x="0px" y="0px"
	 viewBox="0 0 10.3 9.9" style="enable-background:new 0 0 10.3 9.9;" xml:space="preserve">
<path d="M9.6,0c-1.2,0-2,0.1-2.2,0.3l0.3,0.3h0.6c0,0.6-0.4,1.7-1.1,3.3C6.8,3.9,6.5,4,6.5,4.1c0,0.2,0.1,0.3,0.4,0.3l-1.2,4H5.6
	C5,7.8,4.4,6.7,3.9,5.2l0.6-0.4V4.7L4.3,4.5H4.2L3.6,4.6C3.3,4.3,3.2,3.9,3.2,3.5C3,3.4,2.5,2.4,1.7,0.6c0.3,0,0.5-0.1,0.7-0.4
	L2.2,0H0.8C0.4,0,0.1,0.1,0,0.4v0.2l0.1,0.1l0.8-0.1l1.7,3.5v0.1L2.5,4.3h0.1l0.1,0.1L2.6,5c0,0.1,0.2,0.2,0.6,0.2
	c1.3,3.1,2.2,4.7,2.6,4.7h0.1C6.6,8,7.2,6.2,7.6,4.5c0.4,0,0.7-0.1,0.7-0.3V4.1L8.1,3.8c0.4-1.4,0.7-2.4,1-3
	c0.8-0.1,1.2-0.2,1.2-0.4C10.2,0.2,10,0.1,9.6,0z"/>
</svg>
