<?xml version="1.0" encoding="utf-8"?>
<!-- Generator: Adobe Illustrator 23.0.3, SVG Export Plug-In . SVG Version: 6.00 Build 0)  -->
<svg version="1.1" id="Layer_1" xmlns="http://www.w3.org/2000/svg" xmlns:xlink="http://www.w3.org/1999/xlink" x="0px" y="0px"
	 viewBox="0 0 8.1 10.8" style="enable-background:new 0 0 8.1 10.8;" xml:space="preserve">
<path d="M8,10.2L8,10.2L7.9,10l-1.2,0.3H6.5L5.8,8.7c0.9-0.9,1.4-1.9,1.7-2.9V5c0.4,0,0.6-0.1,0.6-0.2V4.6c0-0.1-0.1-0.2-0.3-0.2
	C7.7,4.4,7.6,4,7.4,3.1C6.7,1,5.7,0,4.3,0C2.5,0,1.2,0.9,0.6,2.8c0,1.3-0.2,2.1-0.6,2.4v0.2C0.4,5.4,0.6,6,0.6,7
	c0.8,2,1.7,2.9,3,2.9c0.6,0,1.2-0.2,1.8-0.7h0.1c0,0.6,0.3,1.1,0.9,1.6h0.5C7.3,10.8,7.7,10.6,8,10.2z M5.5,8.3
	C5.2,8,4.8,7.8,4.1,7.8H4L3.9,7.9V8L4,8.1c0.7,0.2,1.1,0.4,1.1,0.6L3.9,9.4H3.4C3.1,9.1,2.7,9,2.2,8.9C1.3,8.4,0.9,7.3,0.9,5.7V5.5
	c0.4,0,0.6-0.1,0.6-0.2V5.1c0-0.1-0.1-0.2-0.4-0.3H1L0.9,4.9L0.8,3.7c0.4-1.2,0.6-1.8,0.8-1.8c0-0.6,0.7-1,2.2-1.5
	c1.7,0,2.7,1.2,3.1,3.6v0.3c-0.3,0-0.5,0.1-0.5,0.3v0.1c0,0.1,0.2,0.2,0.5,0.2C7,6.3,6.5,7.4,5.5,8.3z"/>
</svg>
