<?xml version="1.0" encoding="utf-8"?>
<!-- Generator: Adobe Illustrator 23.0.3, SVG Export Plug-In . SVG Version: 6.00 Build 0)  -->
<svg version="1.1" id="Layer_1" xmlns="http://www.w3.org/2000/svg" xmlns:xlink="http://www.w3.org/1999/xlink" x="0px" y="0px"
	 viewBox="0 0 8 9.8" style="enable-background:new 0 0 8 9.8;" xml:space="preserve">
<path d="M7.7,0.1L5.5,0.2L4.7,0l-1,0.1L1.9,0v0.9l0.2,0.2c0.1,0,0.2-0.2,0.3-0.6c0.4,0.1,1,0.2,1.9,0.2c0.1,0,0.2,0.4,0.2,1.2v2.8
	c-0.2,0-0.3,0.1-0.3,0.2V5l0.1,0.1c0.2,0,0.3,0.1,0.3,0.2v1.1L4.5,7.5C4.2,8.7,3.8,9.3,3.1,9.3H2.5C2,9.3,1.6,9,1.2,8.3
	c0.3,0,0.5-0.1,0.5-0.3S1.3,7.7,0.6,7.7C0.2,7.8,0,7.9,0,8l0.8,0.6c0.3,0.8,1,1.2,2,1.2h0.4c0.3,0,0.6-0.2,1-0.5
	C4.7,8.7,5,7.7,5.1,6.4L5,5.2V5.1L5.1,5h0.1l0.1,0.1h0.1l0.2-0.2c0-0.2-0.2-0.3-0.5-0.3C5,4.6,4.9,3.2,4.8,0.5l1.5,0.1l0.4-0.1
	l0.5,0.1l0.5,0.8C7.9,1.4,8,1.1,8,0.6C8.1,0.4,8,0.2,7.7,0.1z"/>
</svg>
