<?xml version="1.0" encoding="utf-8"?>
<!-- Generator: Adobe Illustrator 23.0.3, SVG Export Plug-In . SVG Version: 6.00 Build 0)  -->
<svg version="1.1" id="Layer_1" xmlns="http://www.w3.org/2000/svg" xmlns:xlink="http://www.w3.org/1999/xlink" x="0px" y="0px"
	 viewBox="0 0 13.8 9.8" style="enable-background:new 0 0 13.8 9.8;" xml:space="preserve">
<path d="M12,0.3L12,0.3c0,0.3,0.1,0.3,0.3,0.3h0.1c-0.8,2.6-1.5,3.9-1.9,3.9l0.2,0.2C10.4,6.1,10,7.4,9.6,8.5L7.3,5.1
	c0.2,0,0.3-0.1,0.3-0.2c0-0.2-0.5-0.3-1.4-0.3L5.9,4.7V5l0.3,0.1C4.9,6.9,4,8,3.4,8.5L2.6,5.1V5l0.1-0.1c0.3,0,0.5-0.1,0.5-0.2
	c0-0.2-0.2-0.3-0.7-0.3C1.9,2.7,1.6,1.5,1.6,0.6c0.4,0,0.6-0.1,0.6-0.3V0.1L2.1,0L1.5,0.1L1,0C0.3,0,0,0.1,0,0.3v0.3l0.1,0.1
	l0.7-0.2l1,4L1.5,4.8v0.1c0,0.2,0.1,0.2,0.3,0.2c0.8,3.1,1.3,4.6,1.5,4.6h0.1l3.2-4l1.7,2.2c0.6,1.3,0.9,1.9,1.1,1.9
	c0.2-0.2,0.6-1,1.1-2.4c0-0.5,0.2-1.3,0.7-2.5V4.8l0.3,0.1c0.3-0.1,0.5-0.3,0.7-0.6c0-0.2-0.2-0.2-0.7-0.2l1.4-3.4
	c0.6,0,0.9-0.1,0.9-0.3V0.2l-0.1-0.1C12.6,0,12,0.1,12,0.3z"/>
</svg>
