<?xml version="1.0" encoding="utf-8"?>
<!-- Generator: Adobe Illustrator 23.0.3, SVG Export Plug-In . SVG Version: 6.00 Build 0)  -->
<svg version="1.1" id="Layer_1" xmlns="http://www.w3.org/2000/svg" xmlns:xlink="http://www.w3.org/1999/xlink" x="0px" y="0px"
	 viewBox="0 0 7.3 10.1" style="enable-background:new 0 0 7.3 10.1;" xml:space="preserve">
<path d="M2.1,10.1l0.2-0.2V9.7c0-0.2-0.2-0.3-0.6-0.3H1.3v-2c0-0.1,0.2-0.2,0.5-0.3c0-0.2-0.1-0.3-0.4-0.3V5.2L4,5.4l0.7-0.1
	l0.5,0.4l0.2-0.2V5c0-0.4-0.1-0.6-0.4-0.7H4.9c0,0.4-0.3,0.5-0.6,0.5H4.2L1.4,4.7V3.6l0.5-0.4V2.9L1.5,2.8v-2l0.9,0.1l4.3-0.2
	c0,0.4,0.1,0.6,0.2,0.6h0.3l0.1-0.1L7,0L5.8,0.2L4.9,0.1L3.5,0.2H1.9C1.5,0.2,1.2,0.3,1,0.5l0.1,0.3L0.9,2v0.8
	c-0.4,0-0.6,0.1-0.6,0.3c0,0.1,0.2,0.2,0.6,0.2L0.8,4.1l0.1,1.7L0.8,6.7H0.3L0.1,7c0,0.2,0.2,0.3,0.7,0.3v2.1C0.2,9.5,0,9.6,0,9.8
	V10l0.8-0.2L2.1,10.1z"/>
</svg>
