<?xml version="1.0" encoding="utf-8"?>
<!-- Generator: Adobe Illustrator 23.0.3, SVG Export Plug-In . SVG Version: 6.00 Build 0)  -->
<svg version="1.1" id="Layer_1" xmlns="http://www.w3.org/2000/svg" xmlns:xlink="http://www.w3.org/1999/xlink" x="0px" y="0px"
	 viewBox="0 0 10.1 9.9" style="enable-background:new 0 0 10.1 9.9;" xml:space="preserve">
<path d="M0.6,5.8c0,0.6,0.2,1.4,0.7,2.6C1.6,9.1,2.2,9.5,3,9.8h1.3c0.8,0,1.8-0.6,3-1.8h0.2c0,0.9,0.4,1.6,1.3,1.9
	c0.9-0.1,1.3-0.4,1.3-0.8L9.9,8.7L9.3,9.3H8.8C8.3,8.8,8,8.3,8,7.7l0.2-2.3c0-0.2-0.4-0.3-1.1-0.3h-1L5.6,5.2c0-0.3-0.1-0.4-0.3-0.4
	S5,5,5,5.4v0.4l0.3,0.3h0.2L5.6,6c0-0.2,0.1-0.3,0.2-0.3h0.8l0.9,0.1c0,1.8-1.1,3-3.2,3.6c-2,0-3.1-1.1-3.1-3.3V6l0.5-0.5
	c0-0.1-0.2-0.2-0.5-0.2V4.5C1.8,1.9,3,0.6,4.7,0.6h0.1l0.1,0.3l0.2-0.2c0.6,0,1.1,0.3,1.4,0.8c-0.2,0-0.3,0.1-0.4,0.4
	c0.1,0.2,0.3,0.3,0.6,0.3H7c0.3,0,0.5-0.1,0.6-0.3V1.8c0-0.1-0.1-0.2-0.3-0.2C6.6,0.6,5.8,0.1,5.1,0L4.3,0.1H4.2L4.1,0L2.5,0.8
	c-1.2,1.5-1.8,3-1.8,4.5C0.5,5.3,0.2,5.4,0,5.6l0.2,0.2H0.6z"/>
</svg>
