<?xml version="1.0" encoding="utf-8"?>
<!-- Generator: Adobe Illustrator 23.0.3, SVG Export Plug-In . SVG Version: 6.00 Build 0)  -->
<svg version="1.1" id="Layer_1" xmlns="http://www.w3.org/2000/svg" xmlns:xlink="http://www.w3.org/1999/xlink" x="0px" y="0px"
	 viewBox="0 0 2.7 9.6" style="enable-background:new 0 0 2.7 9.6;" xml:space="preserve">
<path d="M-160.3-16.8c0-0.5,0.2-0.8,0.5-0.8c0.4,0,0.7,0.1,1,0.3c0.6,0.4,0.9,1,0.9,1.8c0,0.6-0.3,1.3-0.8,2
	c0.4,0.5,0.6,0.8,0.6,0.9c0.1,0.1,0.1,0.2,0.2,0.3s0.1,0.2,0.1,0.2s0,0.1,0,0.2c0,0.1,0,0.2,0,0.3c0,0.2,0,0.4,0.1,0.7
	c0,0.3,0.1,0.4,0.1,0.5c0,0,0,0.1,0,0.3s-0.1,0.3-0.1,0.4c0,0.1,0,0.1-0.1,0.2c0,0.1-0.1,0.2-0.1,0.2c0,0.1,0,0.1-0.1,0.2
	c0,0.1-0.1,0.1-0.1,0.2c0,0-0.1,0.1-0.1,0.2c-0.1,0.1-0.1,0.1-0.2,0.2c-0.1,0-0.1,0.1-0.2,0.1c-0.3,0.2-0.5,0.3-0.7,0.3
	c-0.2,0.1-0.3,0.1-0.3,0.1h-0.1c-0.2,0-0.4,0-0.4,0c-0.1-0.1-0.2-0.2-0.2-0.3l0.1-3.1l-0.1-5.1C-160.3-16.5-160.3-16.8-160.3-16.8z
	 M-159.5-16.9c-0.1,0-0.2,0.1-0.2,0.4c0,0.3,0,0.8,0,1.4c0,0.6,0,1.1,0,1.4c0.3-0.1,0.6-0.4,0.8-1.1c0.1-0.4,0.2-0.6,0.2-0.6v-0.4
	c0-0.2-0.1-0.5-0.3-0.7C-159-16.7-159.2-16.9-159.5-16.9z M-159.2-13L-159.2-13h-0.4c0,1,0.1,2.4,0.1,4.2c0.4-0.1,0.7-0.3,1-0.6
	c0.2-0.3,0.3-0.7,0.3-1.1C-158.2-11.9-158.6-12.7-159.2-13z"/>
</svg>
