<?xml version="1.0" encoding="utf-8"?>
<!-- Generator: Adobe Illustrator 23.0.3, SVG Export Plug-In . SVG Version: 6.00 Build 0)  -->
<svg version="1.1" id="Layer_1" xmlns="http://www.w3.org/2000/svg" xmlns:xlink="http://www.w3.org/1999/xlink" x="0px" y="0px"
	 viewBox="0 0 3.6 11.4" style="enable-background:new 0 0 3.6 11.4;" xml:space="preserve">
<path d="M3.1,10.7c0.3,0,0.5,0.1,0.5,0.3c0,0.3-0.2,0.4-0.6,0.4c-0.1,0-0.3-0.1-0.5-0.2l0,0c-0.2-0.1-0.4-0.3-0.5-0.6
	c-0.1-0.2-0.1-0.4-0.1-0.7c0-0.2-0.1-0.4-0.1-0.4H1.3C0.5,9,0.1,8.1,0,6.9c0-0.2,0-0.5,0-0.8l0.1-2V3.2C0.1,1.1,0.5,0,1.4,0
	C1.7,0,2,0.1,2.3,0.4c0.3,0.2,0.5,0.5,0.5,0.9c0.1,0.6,0.2,1.3,0.3,2c0,0.7,0.1,1.3,0.1,1.8V6c0,1,0,1.7-0.1,1.9
	c-0.2,0.5-0.4,1-0.6,1.4c0,0,0,0.1,0,0.2c0,0.1,0,0.3,0.1,0.4c0,0.1,0.1,0.3,0.1,0.4c0.1,0.3,0.2,0.4,0.3,0.4L3.1,10.7L3.1,10.7z
	 M2,9.1c0.3-0.3,0.5-0.8,0.5-1.3V5c0-0.4,0-0.8-0.1-1.4c-0.1-0.5-0.1-0.8-0.1-1c0-0.1,0-0.2,0-0.3s0-0.2,0-0.2c0-0.1,0-0.1,0-0.2
	c0-0.1,0-0.2,0-0.2c0-0.1,0-0.1-0.1-0.2c0-0.1-0.1-0.1-0.1-0.2c0,0-0.1-0.1-0.1-0.2C2,1,1.9,1,1.8,1C1.7,0.9,1.5,0.9,1.3,0.9
	C1.2,0.9,1,1.1,0.9,1.5c-0.1,0.4-0.2,1-0.2,1.6C0.6,4.2,0.6,5,0.6,5.5s0,0.8,0,1s0,0.5,0.1,0.9c0,0.4,0.1,0.7,0.2,0.9
	C1,8.6,1.1,8.8,1.2,9s0.3,0.3,0.5,0.3l0,0C1.8,9.1,1.9,9.1,2,9.1L2,9.1z"/>
</svg>
