<?xml version="1.0" encoding="utf-8"?>
<!-- Generator: Adobe Illustrator 23.0.3, SVG Export Plug-In . SVG Version: 6.00 Build 0)  -->
<svg version="1.1" id="Layer_1" xmlns="http://www.w3.org/2000/svg" xmlns:xlink="http://www.w3.org/1999/xlink" x="0px" y="0px"
	 viewBox="0 0 2.7 9.8" style="enable-background:new 0 0 2.7 9.8;" xml:space="preserve">
<path d="M0,9.3C0,9.1,0.1,9,0.3,9c0.1,0,0.2,0,0.4,0.1S1,9.2,1.1,9.2S1.3,9.1,1.5,9c0.1-0.1,0.2-0.3,0.3-0.5C2,8.1,2,7.7,2,7.3
	C2,7,1.9,6.6,1.8,6.2C1.7,5.8,1.5,5.4,1.4,5.1C1.2,4.8,1,4.4,0.9,4.1C0.5,3.3,0.3,2.5,0.3,1.8s0.2-1.2,0.6-1.5C1.1,0.1,1.4,0,1.7,0
	C1.9,0,2,0,2.1,0.1s0.2,0.2,0.3,0.3v0.3c-0.3,0-0.6,0-0.7-0.1c-0.2,0-0.3,0.1-0.4,0.2C1.1,1,1,1.3,1,1.6s0,0.6,0.1,1
	c0.1,0.3,0.2,0.7,0.3,1s0.3,0.6,0.4,0.8C1.9,4.7,2,4.9,2.1,5c0.1,0.2,0.1,0.2,0.1,0.3v0.1c0,0.1,0.1,0.3,0.1,0.5
	c0.1,0.2,0.1,0.4,0.2,0.5c0.1,0.4,0.2,0.7,0.2,1s0,0.6-0.1,0.8C2.5,8.5,2.4,8.7,2.3,9C2.2,9.2,2,9.4,1.8,9.6
	C1.6,9.8,1.4,9.8,1.2,9.8c-0.2,0-0.4,0-0.5,0S0.4,9.7,0.3,9.7C0,9.5,0,9.4,0,9.3z"/>
</svg>
