<?xml version="1.0" encoding="utf-8"?>
<!-- Generator: Adobe Illustrator 23.0.3, SVG Export Plug-In . SVG Version: 6.00 Build 0)  -->
<svg version="1.1" id="Layer_1" xmlns="http://www.w3.org/2000/svg" xmlns:xlink="http://www.w3.org/1999/xlink" x="0px" y="0px"
	 viewBox="0 0 2.7 9.5" style="enable-background:new 0 0 2.7 9.5;" xml:space="preserve">
<path d="M1.9,2.2v1.6c0,0.8,0.1,1.4,0.2,1.9l0,0C2,6,2,6.3,2,6.7l0.1,2.2c0,0.4-0.1,0.6-0.4,0.6c-0.1,0-0.2-0.1-0.3-0.2
	C1.3,9.2,1.3,9,1.3,8.9l0.1-2c0-0.4,0-1.1-0.1-1.9C1.2,4.1,1.2,3.5,1.2,3.1V2c0-0.6,0-1-0.1-1.2L0.4,0.9c-0.1,0-0.2,0-0.3-0.1
	S0,0.7,0,0.6c0-0.1,0.1-0.2,0.3-0.3S0.7,0.2,1,0.1C1.5,0,1.9,0,2.3,0c0.1,0,0.2,0,0.3,0.1s0.1,0.2,0.1,0.3s0,0.2-0.1,0.2
	C2.5,0.7,2.4,0.7,2.3,0.7H1.9c-0.1,0-0.1,0-0.1,0C1.9,1.1,1.9,1.7,1.9,2.2z"/>
</svg>
