<?xml version="1.0" encoding="utf-8"?>
<!-- Generator: Adobe Illustrator 23.0.3, SVG Export Plug-In . SVG Version: 6.00 Build 0)  -->
<svg version="1.1" id="Layer_1" xmlns="http://www.w3.org/2000/svg" xmlns:xlink="http://www.w3.org/1999/xlink" x="0px" y="0px"
	 viewBox="0 0 3.4 9.4" style="enable-background:new 0 0 3.4 9.4;" xml:space="preserve">
<path d="M2.6,0.1c0.2,1.2,0.3,2.7,0.5,4.6C3.3,6.6,3.4,8,3.4,9c0,0.3-0.1,0.4-0.4,0.4S2.6,9.3,2.6,9.1V7.5C2.5,7.4,2.3,7.3,2,7.3
	C1.7,7.2,1.4,7.2,1.2,7.2C1.1,7.4,1,7.7,1,8.2C0.9,8.7,0.9,9.1,0.7,9.3C0.3,9.3,0.1,9.2,0,9c0.2-0.3,0.6-2,1.1-5.2
	c0.2-1.3,0.4-2,0.4-2.2C1.7,0.5,2,0,2.2,0C2.4,0.1,2.5,0.1,2.6,0.1L2.6,0.1z M2.6,6.8c0-0.2-0.1-0.6-0.1-1.3c-0.2-1.9-0.3-3-0.3-3.2
	s0-0.3,0-0.4C2.2,2,2,2.5,1.8,3.7C1.6,4.8,1.5,5.4,1.5,5.5S1.4,5.7,1.4,5.9C1.3,6.3,1.2,6.5,1.2,6.7c0.3,0.1,0.6,0.1,0.9,0.1
	C2.3,6.8,2.5,6.8,2.6,6.8z"/>
</svg>
