<?xml version="1.0" encoding="utf-8"?>
<!-- Generator: Adobe Illustrator 23.0.3, SVG Export Plug-In . SVG Version: 6.00 Build 0)  -->
<svg version="1.1" id="Layer_1" xmlns="http://www.w3.org/2000/svg" xmlns:xlink="http://www.w3.org/1999/xlink" x="0px" y="0px"
	 viewBox="0 0 3.4 9.7" style="enable-background:new 0 0 3.4 9.7;" xml:space="preserve">
<path d="M3.4,5.9v0.8v0.2V7v0.7c0,0.7-0.1,1.3-0.3,1.6S2.6,9.7,2.2,9.7c-0.5,0-0.9-0.2-1.1-0.5S0.7,8.5,0.6,8
	C0.5,7.4,0.4,6.9,0.3,6.7c0,0-0.1-1-0.1-2.8C0.1,2.1,0.1,1,0.1,0.8C0,0.7,0,0.6,0,0.5s0-0.2,0.1-0.3s0.2-0.1,0.3-0.1
	c0.3,0,0.5,0.3,0.5,0.9L1,5.3C1,5.4,1.1,5.6,1.1,6c0,0.3,0.1,0.6,0.1,0.8s0,0.4,0.1,0.7S1.4,8,1.5,8.3C1.6,8.6,1.7,8.8,1.9,9
	s0.4,0.3,0.6,0.3C2.8,9.3,3,9,3,8.4c0-0.1,0-0.2,0-0.3V2.5c0-0.2,0-0.6-0.1-1.1s-0.1-0.8-0.1-1s0-0.3,0.1-0.3C3,0,3.1,0,3.2,0
	l0.1,0.3v0.2L3.2,1.3c0,0.5,0,1.2,0.1,2.1C3.4,4.3,3.4,5,3.4,5.5l0,0L3.4,5.9L3.4,5.9z"/>
</svg>
