<?xml version="1.0" encoding="utf-8"?>
<!-- Generator: Adobe Illustrator 23.0.3, SVG Export Plug-In . SVG Version: 6.00 Build 0)  -->
<svg version="1.1" id="Layer_1" xmlns="http://www.w3.org/2000/svg" xmlns:xlink="http://www.w3.org/1999/xlink" x="0px" y="0px"
	 viewBox="0 0 3.1 9.9" style="enable-background:new 0 0 3.1 9.9;" xml:space="preserve">
<path d="M3.1,5.6L3,7.2v0.1C2.9,7.5,2.9,7.8,2.9,8.1s0,0.5-0.1,0.8S2.6,9.4,2.4,9.6S2,9.9,1.8,9.9c-0.2,0-0.4-0.1-0.6-0.2
	C1,9.5,0.9,9.3,0.7,9.1C0.6,8.9,0.5,8.6,0.4,8.2c-0.1-0.3-0.2-0.7-0.2-1s-0.1-0.7-0.1-1c0-0.5-0.1-1-0.1-1.3S0,4.3,0,4
	c0-0.4,0-0.8,0.1-1.1c0-0.3,0-0.6,0-0.7c0-0.2,0-0.3,0-0.4c0-0.1,0-0.3,0-0.4c0-0.2,0-0.3,0.1-0.4c0-0.1,0.1-0.3,0.1-0.4
	c0.1-0.1,0.1-0.2,0.2-0.3C0.7,0.1,0.9,0,1.1,0c0.2,0,0.4,0,0.6,0.1c0.1,0,0.3,0.1,0.4,0.2c0.1,0.1,0.2,0.2,0.3,0.3s0.1,0.2,0.2,0.3
	C2.7,1,2.7,1.1,2.7,1.3c0.1,0.2,0.1,0.5,0.2,0.8C3,3.2,3.1,4.4,3.1,5.6z M2,1C1.9,0.8,1.8,0.6,1.7,0.5S1.5,0.3,1.4,0.3
	s-0.2,0-0.3,0.1S1,0.5,0.9,0.7c0,0.1-0.1,0.2-0.1,0.4c0,0.1-0.1,0.3-0.1,0.5s0,0.4-0.1,0.5c0,0.2,0,0.3,0,0.5s0,0.4,0,0.5
	s0,0.3,0,0.5s0,0.3,0,0.4v0.3c0,0.7,0.1,1.4,0.2,2.3c0.3,1.7,0.6,2.6,1.1,2.6c0.2,0,0.3-0.2,0.4-0.5C2.4,8.4,2.5,8,2.5,7.5
	c0.1-0.8,0.1-1.4,0.1-1.7c0-0.4,0-0.6,0-0.8s0-0.4,0-0.7s0-0.6-0.1-0.8c0-0.3-0.1-0.5-0.1-0.9c0-0.3-0.1-0.6-0.1-0.8
	C2.2,1.4,2.1,1.2,2,1z"/>
</svg>
