<?xml version="1.0" encoding="utf-8"?>
<!-- Generator: Adobe Illustrator 23.0.3, SVG Export Plug-In . SVG Version: 6.00 Build 0)  -->
<svg version="1.1" id="Layer_1" xmlns="http://www.w3.org/2000/svg" xmlns:xlink="http://www.w3.org/1999/xlink" x="0px" y="0px"
	 viewBox="0 0 3.2 10" style="enable-background:new 0 0 3.2 10;" xml:space="preserve">
<path d="M0.2,5.8V3.4c0-0.9,0-1.5,0-1.7S0.1,1.3,0.1,1.1C0.1,0.9,0,0.8,0,0.7c0-0.1,0-0.2,0.1-0.3s0.2-0.1,0.3-0.1
	c0.3,0,0.5,0.3,0.5,1c0,0,0,0.9-0.1,2.6c0-0.1,0.1-0.3,0.2-0.6s0.3-0.7,0.4-1s0.3-0.7,0.4-1.1C2.1,0.4,2.4,0,2.6,0
	c0.1,0,0.2,0,0.2,0.1c0.1,0.1,0.1,0.1,0.1,0.2c0,0.1-0.2,0.6-0.7,1.6S1.5,3.5,1.4,3.7v0.2c0.1,0.3,0.5,1.3,1,3s0.8,2.6,0.8,2.7
	c0,0.1,0,0.2-0.1,0.3S2.9,10,2.8,10H2.5C2.3,8.8,2.1,7.8,1.9,6.9C1.7,6,1.4,5.2,1.1,4.4C0.9,4.8,0.7,5.1,0.7,5.2c0,0.2,0,0.4,0,0.6
	l0.1,2.3c0,1.1-0.1,1.7-0.4,1.7C0.2,9.8,0,9.6,0,9.2c0-0.4,0-1,0.1-1.8C0.1,6.7,0.2,6.1,0.2,5.8z"/>
</svg>
