<?xml version="1.0" encoding="utf-8"?>
<!-- Generator: Adobe Illustrator 23.0.3, SVG Export Plug-In . SVG Version: 6.00 Build 0)  -->
<svg version="1.1" id="Layer_1" xmlns="http://www.w3.org/2000/svg" xmlns:xlink="http://www.w3.org/1999/xlink" x="0px" y="0px"
	 viewBox="0 0 3.3 9.7" style="enable-background:new 0 0 3.3 9.7;" xml:space="preserve">
<path d="M3,0h0.3C3.2,0.5,3.1,1.7,2.9,3.5s-0.4,3-0.4,3.6S2.4,8,2.4,8.2c0,0.2,0,0.4,0,0.5c0,0.2,0,0.3,0,0.5C2.3,9.5,2.2,9.7,2,9.7
	c-0.1,0-0.2,0-0.3-0.1C1.5,8.8,1.2,7.2,0.8,4.8C0.4,2.4,0.2,0.9,0,0.2C0,0,0.2,0,0.4,0c0.1,0,0.2,0,0.2,0.1l0.1,0.1v0.1v0.1v0.1
	c0,0.1,0,0.2,0.1,0.4c0,0.2,0.1,0.8,0.3,1.8c0.3,2.1,0.6,3.6,0.8,4.7C2,6.9,2.1,6.2,2.2,5.1c0.3-2.1,0.5-3.8,0.5-5
	C2.7,0.1,2.9,0,3,0z"/>
</svg>
