<?xml version="1.0" encoding="utf-8"?>
<!-- Generator: Adobe Illustrator 23.0.3, SVG Export Plug-In . SVG Version: 6.00 Build 0)  -->
<svg version="1.1" id="Layer_1" xmlns="http://www.w3.org/2000/svg" xmlns:xlink="http://www.w3.org/1999/xlink" x="0px" y="0px"
	 viewBox="0 0 2.2 10.6" style="enable-background:new 0 0 2.2 10.6;" xml:space="preserve">
<path d="M1.7,0.8v1.9c0,0.5,0,1.4,0.1,2.4c0.1,1.1,0.1,2,0.1,2.6c0,0.7-0.1,1.2-0.3,1.7s-0.5,0.9-0.9,1.2c-0.1,0-0.2,0-0.3-0.1
	c-0.1-0.1-0.1-0.2-0.1-0.3S0.4,10,0.5,9.9s0.2-0.2,0.3-0.2c0.3-0.4,0.5-1,0.5-1.8c0-0.4,0-1-0.1-1.8c0-0.8-0.1-1.3-0.1-1.6
	s0-0.6,0-1s0-0.8,0-1c0-0.7-0.1-1.3-0.2-1.9c0,0-0.1,0-0.2,0c-0.2,0-0.3,0.1-0.4,0.1s-0.2,0-0.2-0.1C0,0.5,0,0.5,0,0.4
	C0,0.1,0.5,0,1.5,0C2,0,2.2,0.1,2.2,0.3C2.3,0.6,2.1,0.7,1.7,0.8L1.7,0.8z"/>
</svg>
