<?xml version="1.0" encoding="utf-8"?>
<!-- Generator: Adobe Illustrator 23.0.3, SVG Export Plug-In . SVG Version: 6.00 Build 0)  -->
<svg version="1.1" id="Layer_1" xmlns="http://www.w3.org/2000/svg" xmlns:xlink="http://www.w3.org/1999/xlink" x="0px" y="0px"
	 viewBox="0 0 3.3 10.1" style="enable-background:new 0 0 3.3 10.1;" xml:space="preserve">
<path d="M3.3,1.2v4.6v3.8c0,0.2-0.1,0.3-0.2,0.4c-0.1,0-0.2,0.1-0.3,0.1s-0.2,0-0.2,0L2.5,10c0,0,0-0.1-0.1-0.2c0-0.1,0-0.1,0-0.2
	c0-0.3-0.2-0.9-0.5-1.9c-0.5-1.8-0.8-3.2-1-4.1V3.5V3.4c0-0.1,0-0.2-0.1-0.2c0-0.2,0-0.4-0.1-0.7S0.6,2.1,0.6,2v7.9H0.2V9.7
	c0-0.1,0-0.2,0-0.4s0-0.4,0-0.7s0-0.9-0.1-1.9S0,5.1,0,4.9V3.3L0.1,1c0-0.3,0-0.5,0.1-0.5c0.1-0.1,0.2-0.1,0.3-0.1s0.2,0,0.3,0
	C0.9,0.5,1,0.6,1,0.7S1,1,1,1.1c0,0.1,0.1,0.3,0.1,0.5C1.2,1.8,1.2,1.9,1.2,2c0,0.1,0,0.2,0.1,0.3c0,0.1,0,0.2,0,0.3
	c0,0.3,0.1,0.6,0.1,0.8s0.1,0.6,0.2,1c0.1,0.4,0.2,0.8,0.3,1.2C2.2,6.5,2.3,7.3,2.4,8c0.1,0.1,0.1,0.3,0.1,0.4V4V0.3
	C2.5,0.1,2.7,0,2.9,0s0.3,0.2,0.3,0.5v0.1C3.4,0.9,3.3,1,3.3,1.2z"/>
</svg>
