<?xml version="1.0" encoding="utf-8"?>
<!-- Generator: Adobe Illustrator 23.0.3, SVG Export Plug-In . SVG Version: 6.00 Build 0)  -->
<svg version="1.1" id="Layer_1" xmlns="http://www.w3.org/2000/svg" xmlns:xlink="http://www.w3.org/1999/xlink" x="0px" y="0px"
	 viewBox="0 0 2.6 9.8" style="enable-background:new 0 0 2.6 9.8;" xml:space="preserve">
<path d="M1.9,4.7L1.8,0.6c0-0.1,0-0.1,0.1-0.2C2,0.3,2,0.3,2.1,0.3s0.2,0.1,0.2,0.2c0.1,0.1,0.1,0.4,0.1,0.7c0,0.9,0,2.3,0.1,4.1
	s0.1,3.2,0.1,4.1c0,0.1,0,0.2-0.1,0.3S2.3,9.8,2.2,9.8C2,9.8,1.9,9.7,1.9,9.4c0-1.6,0-3-0.1-4.4C1.6,5,1.4,4.9,1.2,4.9
	S0.8,4.9,0.7,5c0,0.5,0,1.2,0.1,2.1C0.9,8,0.9,8.8,0.9,9.2c0,0.1,0,0.2-0.1,0.2c0,0.1-0.1,0.1-0.2,0.1S0.4,9.4,0.3,9.3
	C0.2,9.2,0.2,8.9,0.2,8.4s0-1,0-1.6s0-0.9,0-1C0,3.6,0,1.8,0,0.3V0.2C0,0.1,0.1,0,0.2,0c0.3,0,0.4,0.1,0.4,0.3c0,0.3,0,0.6,0,0.9
	l0.1,2.6v0.5c0,0.1,0,0.2,0,0.3L1.9,4.7z"/>
</svg>
