<?xml version="1.0" encoding="utf-8"?>
<!-- Generator: Adobe Illustrator 23.0.3, SVG Export Plug-In . SVG Version: 6.00 Build 0)  -->
<svg version="1.1" id="Layer_1" xmlns="http://www.w3.org/2000/svg" xmlns:xlink="http://www.w3.org/1999/xlink" x="0px" y="0px"
	 viewBox="0 0 2.3 9.4" style="enable-background:new 0 0 2.3 9.4;" xml:space="preserve">
<path d="M1.5,8.8h0.3c0.3,0,0.5,0.1,0.5,0.2c0,0.1,0,0.2,0,0.3C2.2,9.4,2.1,9.4,2,9.4H0.4C0.2,9.4,0,9.3,0,9.1s0.1-0.3,0.4-0.3h0.4
	c0,0,0.1-0.2,0.1-0.6c0-0.4,0-1.3-0.1-2.5C0.7,4.4,0.7,3.5,0.7,2.8V1.5c0-0.3,0-0.5,0-0.7c-0.1,0-0.2,0.1-0.3,0.1
	c-0.2,0-0.3-0.1-0.3-0.3c0-0.1,0.1-0.2,0.2-0.3s0.3-0.1,0.5-0.2C1.1,0,1.4,0,1.6,0C1.8,0,1.9,0,2,0.1s0.1,0.1,0.1,0.2s0,0.2-0.1,0.2
	C1.9,0.6,1.9,0.6,1.8,0.6H1.6c-0.1,0-0.1,0-0.2,0.1c0,0-0.1,0.1-0.1,0.2c0,0.8,0.1,2,0.2,3.7c0.1,1.6,0.2,2.8,0.2,3.7v0.5H1.5z"/>
</svg>
