<?xml version="1.0" encoding="utf-8"?>
<!-- Generator: Adobe Illustrator 23.0.3, SVG Export Plug-In . SVG Version: 6.00 Build 0)  -->
<svg version="1.1" id="Layer_1" xmlns="http://www.w3.org/2000/svg" xmlns:xlink="http://www.w3.org/1999/xlink" x="0px" y="0px"
	 viewBox="0 0 1541.85 1501.9" style="enable-background:new 0 0 1541.85 1501.9;" xml:space="preserve">
<style type="text/css">
	.st0{fill:#F4F4F4;}
	.st1{fill:#8E8E8E;}
	.st2{opacity:0.06;}
	.st3{opacity:0.04;}
	.st4{opacity:0.02;}
	.st5{opacity:0.01;}
	.st6{fill:#FFFFFF;}
	.st7{opacity:0.03;}
	.st8{fill:#2E76CC;}
	.st9{fill:#FF0E00;}
	.st10{opacity:0.16;}
	.st11{opacity:0.1;}
	.st12{opacity:0.05;}
	.st13{fill:#678993;}
	.st14{fill:#4A5254;}
	.st15{fill:#858B8C;}
	.st16{fill:#3784C4;}
	.st17{fill:#B7553E;}
	.st18{fill:#D8D312;}
</style>
<g>
	<path class="st0" d="M830.9,743.1c-191.5,0-354.9-117.4-418.6-282.3C438.2,661.2,609.5,816,816.9,816c85.4,0,164.6-26.2,230.1-71.1
		c3.3-2.3,6.6-4.6,9.8-6.9c8.4-6.1,16.6-12.6,24.6-19.4c50.2-42.8,89.9-97.6,114.7-159.9C1115.1,670.3,981.7,743.1,830.9,743.1z"/>
	<path class="st1" d="M830.9,743.1c150.8,0,284.2-72.8,365.2-184.4c17.4-43.8,27.5-91.4,28.6-141.1c0.1-3.2,0.1-6.4,0.1-9.6
		c0-4.2-0.1-8.3-0.2-12.5c-4.6-154.4-95-287.2-225.2-352.5C944.6,15.5,882.5,0,816.9,0c-46.8,0-91.7,7.9-133.5,22.4
		c-9.3,3.2-18.5,6.8-27.4,10.6c-11.3,4.9-22.4,10.2-33.2,16.1c-124,67.1-209.2,196.6-213.7,346.4c-0.1,4.2-0.2,8.3-0.2,12.5
		c0,17.9,1.2,35.5,3.4,52.8C476,625.8,639.4,743.1,830.9,743.1z"/>
	<g>
		<g class="st2">
			<path d="M444.9,384c0-140,70.5-263.5,177.9-336.9C495.4,116.1,408.9,251,408.9,406c0,225.3,182.7,408,408,408
				c85.4,0,164.6-26.2,230.1-71.1C989.3,774.3,923.2,792,852.9,792C627.6,792,444.9,609.4,444.9,384z"/>
		</g>
		<g class="st3">
			<path d="M895.9,769c-225.3,0-408-182.6-408-408c0-135.7,66.2-255.8,168.1-330c-11.3,4.9-22.4,10.2-33.2,16.1
				c-107.4,73.5-177.9,197-177.9,336.9c0,225.3,182.7,408,408,408c70.3,0,136.4-17.8,194.1-49.1c3.3-2.3,6.6-4.6,9.8-6.9
				C1007.5,757.3,953.1,769,895.9,769z"/>
		</g>
		<g class="st4">
			<path d="M947.9,739c-225.3,0-408-182.7-408-408c0-124.4,55.7-235.8,143.5-310.6c-9.3,3.2-18.5,6.8-27.4,10.6
				c-101.9,74.2-168.1,194.4-168.1,330c0,225.3,182.7,408,408,408c57.2,0,111.6-11.8,160.9-33c8.4-6.1,16.6-12.6,24.6-19.4
				C1039.6,731.2,994.7,739,947.9,739z"/>
		</g>
		<g class="st5">
			<path class="st6" d="M1103.6,219c-107,0-193.7-81-193.7-181c0-9.4,0.8-18.6,2.2-27.5c-15.3-3.7-31-6.6-47-8.5
				c-20.3,28.6-32.2,63-32.2,100c0,100,86.7,181,193.7,181c60.5,0,114.6-26,150.1-66.6c-1.6-3-3.2-6-4.9-8.9
				C1150.6,214.9,1127.6,219,1103.6,219z"/>
		</g>
		<g class="st7">
			<path class="st6" d="M1103.6,219c24,0,47-4.1,68.2-11.6c-39.9-71-100.4-128.8-173.3-165.4c-27.2-13.6-56.1-24.3-86.4-31.6
				c-1.5,9-2.2,18.2-2.2,27.5C909.9,138,996.6,219,1103.6,219z"/>
		</g>
		<g class="st7">
			<circle cx="549.9" cy="140" r="6"/>
			<ellipse cx="574.4" cy="128.5" rx="12.5" ry="5.5"/>
			<circle cx="575.4" cy="153.5" r="7.5"/>
		</g>
		<g class="st7">
			<circle cx="793.9" cy="767" r="6"/>
			<ellipse cx="818.4" cy="755.5" rx="12.5" ry="5.5"/>
			<circle cx="819.4" cy="780.5" r="7.5"/>
		</g>
		<g class="st7">
			<circle cx="1062.9" cy="209" r="6"/>
			<ellipse cx="1087.4" cy="197.5" rx="12.5" ry="5.5"/>
			<circle cx="1088.4" cy="222.5" r="7.5"/>
		</g>
		<g class="st7">
			<circle cx="929.9" cy="107" r="6"/>
			<ellipse cx="954.4" cy="95.5" rx="12.5" ry="5.5"/>
			<circle cx="955.4" cy="120.5" r="7.5"/>
		</g>
		<g class="st7">
			<circle cx="522.9" cy="471" r="6"/>
			<ellipse cx="547.4" cy="459.5" rx="12.5" ry="5.5"/>
			<circle cx="548.4" cy="484.5" r="7.5"/>
		</g>
		<g class="st7">
			<circle cx="471.9" cy="352" r="6"/>
			<ellipse cx="496.4" cy="340.5" rx="12.5" ry="5.5"/>
			<circle cx="497.4" cy="365.5" r="7.5"/>
		</g>
		<g class="st7">
			<circle cx="1139.9" cy="356" r="6"/>
			<ellipse cx="1164.4" cy="344.5" rx="12.5" ry="5.5"/>
			<circle cx="1165.4" cy="369.5" r="7.5"/>
		</g>
		<g class="st7">
			<circle cx="932.9" cy="748" r="6"/>
			<ellipse cx="957.4" cy="736.5" rx="12.5" ry="5.5"/>
			<circle cx="958.4" cy="761.5" r="7.5"/>
		</g>
		<g class="st7">
			<circle cx="676.9" cy="716" r="6"/>
			<ellipse cx="701.4" cy="704.5" rx="12.5" ry="5.5"/>
			<circle cx="702.4" cy="729.5" r="7.5"/>
		</g>
		<g class="st7">
			<circle cx="492.9" cy="586" r="6"/>
			<ellipse cx="517.4" cy="574.5" rx="12.5" ry="5.5"/>
			<circle cx="518.4" cy="599.5" r="7.5"/>
		</g>
		<g class="st7">
			<circle cx="1015.9" cy="515" r="6"/>
			<ellipse cx="1040.4" cy="503.5" rx="12.5" ry="5.5"/>
			<circle cx="1041.4" cy="528.5" r="7.5"/>
		</g>
		<g class="st7">
			<circle cx="742.8" cy="55.3" r="2.9"/>
			<ellipse cx="754.8" cy="49.7" rx="6.1" ry="2.7"/>
			<circle cx="755.3" cy="61.9" r="3.7"/>
		</g>
		<g class="st7">
			<circle cx="1150.8" cy="315.3" r="2.9"/>
			<ellipse cx="1162.8" cy="309.7" rx="6.1" ry="2.7"/>
			<circle cx="1163.3" cy="321.9" r="3.7"/>
		</g>
		<g class="st7">
			<circle cx="668.8" cy="177.3" r="2.9"/>
			<ellipse cx="680.8" cy="171.7" rx="6.1" ry="2.7"/>
			<circle cx="681.3" cy="183.9" r="3.7"/>
		</g>
		<g class="st7">
			<circle cx="479.8" cy="405.3" r="2.9"/>
			<ellipse cx="491.8" cy="399.7" rx="6.1" ry="2.7"/>
			<circle cx="492.3" cy="411.9" r="3.7"/>
		</g>
		<g class="st7">
			<circle cx="763.8" cy="714.3" r="2.9"/>
			<ellipse cx="775.8" cy="708.7" rx="6.1" ry="2.7"/>
			<circle cx="776.3" cy="720.9" r="3.7"/>
		</g>
		<g class="st7">
			<circle cx="901.8" cy="70.3" r="2.9"/>
			<ellipse cx="913.8" cy="64.7" rx="6.1" ry="2.7"/>
			<circle cx="914.3" cy="76.9" r="3.7"/>
		</g>
	</g>
	<g>
		<path class="st8" d="M1225.2,356c-2.2,45.9-12,89.7-28.1,130.4C1116.4,598,983.6,670.8,833.4,670.8
			c-190.7,0-353.4-117.4-416.9-282.3c-1.4-10.6-2.3-21.4-2.9-32.3c-0.1,2.6-0.2,5.2-0.3,7.7c-0.1,4.1-0.2,8.3-0.2,12.5
			c0,17.9,1.2,35.5,3.4,52.8c63.5,165,226.2,282.3,416.9,282.3c150.2,0,283.1-72.8,363.7-184.4c17.4-43.8,27.4-91.4,28.5-141.1
			c0.1-3.2,0.1-6.4,0.1-9.6c0-4.2-0.1-8.3-0.2-12.5C1225.4,361.2,1225.3,358.6,1225.2,356z"/>
		<ellipse class="st8" cx="804.2" cy="49.7" rx="51.5" ry="37.6"/>
		<path class="st8" d="M811.2,114.4v175.5c52-0.3,100.1-10.6,139.2-27.9l-99.5-157.8C839.5,109.6,825.9,113.2,811.2,114.4z"/>
		<path class="st8" d="M715,62.3L596.6,78.8c-17,19.9-26.6,42.5-26.6,66.4c0,38.7,25.2,73.9,66.2,99.9l96.2-152.7
			C722.5,83.9,716.2,73.6,715,62.3z"/>
		<path class="st8" d="M749.9,103.8l-95.6,151.7c37.2,19.1,84.2,31.5,135.8,33.9v-175C775.3,113.2,761.5,109.4,749.9,103.8z"/>
		<path class="st8" d="M868.7,93l100.6,159.7c48.6-26.5,79.1-64.8,79.1-107.5c0-21.2-7.6-41.4-21.1-59.6L886.1,66
			C884,76.1,877.8,85.3,868.7,93z"/>
		<path class="st8" d="M800.8,1.2c40.5,0,74.5,18.4,83.7,43.3L1004,61.2C960.6,24.5,889.5,0.5,809.2,0.5
			c-74.8,0-141.6,20.8-185.5,53.3l95.2-13.3C730,17.7,762.5,1.2,800.8,1.2z"/>
		<path class="st8" d="M678.8,318.2l-33.7,179.2c51.4,25.9,112.6,41,178.3,41c57.8,0,112-11.6,159.2-32l-36-186.4
			c-40.2,13.7-84.7,21.3-131.4,21.3C766.6,341.2,720.4,333,678.8,318.2z"/>
		<path class="st8" d="M497.7,340.4v141.4c17.7,21.3,37.6,41,59.3,58.5V399C535.3,381.4,515.4,361.8,497.7,340.4z"/>
		<path class="st8" d="M690.3,538.3v82.9c23,4.6,47,8.1,71.6,10.3v-82.8C737.3,546.4,713.3,542.9,690.3,538.3z"/>
		<path class="st8" d="M954.6,545c-20.9,3.6-42.5,6.3-64.6,8c-10.4,0.2-20.9,0.4-31.5,0.4c-20.2,0-40.2-0.5-59.9-1.3v83.2
			c19.7,0.9,39.7,1.3,59.9,1.3c8.2,0,16.3-0.1,24.5-0.2v0.2c1.3-0.1,2.6-0.2,3.9-0.3c2.7-0.1,5.4-0.1,8.1-0.2v-0.5
			c20.4-1.7,40.3-4.3,59.6-7.6V545z"/>
		<path class="st8" d="M1088.2,421.1v141.4c21.5-17.7,41.3-38.2,59-61V360.1C1129.5,382.9,1109.7,403.4,1088.2,421.1z"/>
		<path class="st8" d="M1171.9,332.7v141.4c3.3-4.2,6.5-8.4,9.6-12.7c16.7-42,26.4-87.6,27.5-135.4c0.1-3.1,0.1-6.1,0.1-9.2
			c0-4-0.1-8-0.2-12c-0.2-6.3-0.5-12.5-1-18.7c-2.5-8.3-5.3-16.4-8.3-24.5c-4.5,20.1-10.6,39.5-18,58.3
			C1178.4,324.3,1175.2,328.5,1171.9,332.7z"/>
		<path class="st8" d="M426.3,315.5c0,17.2,1.1,34.1,3.2,50.6c11.3,29.3,25.9,57.1,43.4,82.8V307.5c-12.3-18.2-23.2-37.3-32.5-57.3
			c-4.9,11.9-9.3,24-13,36.4c-0.4,5.6-0.7,11.3-0.9,17C426.4,307.6,426.3,311.5,426.3,315.5z"/>
		<circle cx="805" cy="440.4" r="88.7"/>
		<circle cx="1016.7" cy="562.5" r="34.6"/>
		<circle class="st9" cx="876.6" cy="595.3" r="28.7"/>
	</g>
	<g class="st10">
		<path d="M442.2,391.6c0-140,70.5-263.5,177.9-336.9c-127.4,69-213.9,203.8-213.9,358.9c0,225.3,182.7,408,408,408
			c85.4,0,164.6-26.2,230.1-71.1c-57.7,31.3-123.8,49.1-194.1,49.1C624.9,799.6,442.2,616.9,442.2,391.6z"/>
	</g>
	<g class="st11">
		<path d="M893.2,776.6c-225.3,0-408-182.7-408-408c0-135.7,66.2-255.8,168.1-330c-11.3,4.9-22.4,10.2-33.2,16.1
			c-107.4,73.4-177.9,196.9-177.9,336.9c0,225.3,182.7,408,408,408c70.3,0,136.4-17.8,194.1-49.1c3.3-2.3,6.6-4.6,9.8-6.9
			C1004.8,764.8,950.4,776.6,893.2,776.6z"/>
	</g>
	<g class="st12">
		<path d="M945.2,746.6c-225.3,0-408-182.7-408-408c0-124.4,55.7-235.8,143.5-310.6c-9.3,3.2-18.5,6.8-27.4,10.6
			c-101.9,74.2-168.1,194.3-168.1,330c0,225.3,182.7,408,408,408c57.2,0,111.6-11.8,160.9-33c8.4-6.1,16.6-12.6,24.6-19.4
			C1036.9,738.7,992,746.6,945.2,746.6z"/>
	</g>
	<g class="st12">
		<path class="st6" d="M1100.9,226.6c-107,0-193.7-81.1-193.7-181c0-9.4,0.8-18.6,2.2-27.5c-15.3-3.7-31-6.6-47-8.5
			c-20.3,28.6-32.2,63-32.2,100c0,100,86.7,181,193.7,181c60.5,0,114.6-26,150.1-66.6c-1.6-3-3.2-6-4.9-8.9
			C1147.9,222.5,1124.9,226.6,1100.9,226.6z"/>
	</g>
	<g class="st11">
		<path class="st6" d="M1100.9,226.6c24,0,47-4.1,68.2-11.6c-39.9-71-100.4-128.8-173.3-165.4C968.6,36,939.7,25.3,909.4,18
			c-1.5,9-2.2,18.2-2.2,27.5C907.2,145.5,993.9,226.6,1100.9,226.6z"/>
	</g>
</g>
<g>
	<path class="st13" d="M590.6,599c-54.9-27.6-117-43.1-182.6-43.1c-46.8,0-91.7,7.9-133.5,22.4c-9.3,3.2-18.5,6.8-27.4,10.6
		c-11.3,4.9-22.4,10.2-33.2,16.1C86.5,674,0,808.8,0,963.9c0,225.3,182.7,408,408,408c85.4,0,164.6-26.2,230.1-71.1
		c3.3-2.3,6.6-4.6,9.8-6.9c8.4-6.1,16.6-12.6,24.6-19.4c85.5-72.9,140.6-180.5,143.4-301c0.1-3.2,0.1-6.4,0.1-9.6
		C816,804.2,724.3,666,590.6,599z"/>
</g>
<g class="st7">
	<circle cx="141" cy="697.9" r="6"/>
	<ellipse cx="165.5" cy="686.4" rx="12.5" ry="5.5"/>
	<circle cx="166.5" cy="711.4" r="7.5"/>
</g>
<g class="st7">
	<circle cx="385" cy="1324.9" r="6"/>
	<ellipse cx="409.5" cy="1313.4" rx="12.5" ry="5.5"/>
	<circle cx="410.5" cy="1338.4" r="7.5"/>
</g>
<g class="st7">
	<circle cx="654" cy="766.9" r="6"/>
	<ellipse cx="678.5" cy="755.4" rx="12.5" ry="5.5"/>
	<circle cx="679.5" cy="780.4" r="7.5"/>
</g>
<g class="st7">
	<circle cx="521" cy="664.9" r="6"/>
	<ellipse cx="545.5" cy="653.4" rx="12.5" ry="5.5"/>
	<circle cx="546.5" cy="678.4" r="7.5"/>
</g>
<g class="st7">
	<circle cx="114" cy="1028.9" r="6"/>
	<ellipse cx="138.5" cy="1017.4" rx="12.5" ry="5.5"/>
	<circle cx="139.5" cy="1042.4" r="7.5"/>
</g>
<g class="st7">
	<circle cx="63" cy="909.9" r="6"/>
	<ellipse cx="87.5" cy="898.4" rx="12.5" ry="5.5"/>
	<circle cx="88.5" cy="923.4" r="7.5"/>
</g>
<g class="st7">
	<circle cx="731" cy="913.9" r="6"/>
	<ellipse cx="755.5" cy="902.4" rx="12.5" ry="5.5"/>
	<circle cx="756.5" cy="927.4" r="7.5"/>
</g>
<g class="st7">
	<circle cx="524" cy="1305.9" r="6"/>
	<ellipse cx="548.5" cy="1294.4" rx="12.5" ry="5.5"/>
	<circle cx="549.5" cy="1319.4" r="7.5"/>
</g>
<g class="st7">
	<circle cx="268" cy="1273.9" r="6"/>
	<ellipse cx="292.5" cy="1262.4" rx="12.5" ry="5.5"/>
	<circle cx="293.5" cy="1287.4" r="7.5"/>
</g>
<g class="st7">
	<circle cx="84" cy="1143.9" r="6"/>
	<ellipse cx="108.5" cy="1132.4" rx="12.5" ry="5.5"/>
	<circle cx="109.5" cy="1157.4" r="7.5"/>
</g>
<g class="st7">
	<circle cx="607" cy="1072.9" r="6"/>
	<ellipse cx="631.5" cy="1061.4" rx="12.5" ry="5.5"/>
	<circle cx="632.5" cy="1086.4" r="7.5"/>
</g>
<g class="st7">
	<circle cx="333.9" cy="613.2" r="2.9"/>
	<ellipse cx="345.9" cy="607.6" rx="6.1" ry="2.7"/>
	<circle cx="346.4" cy="619.8" r="3.7"/>
</g>
<g class="st7">
	<circle cx="741.9" cy="873.2" r="2.9"/>
	<ellipse cx="753.9" cy="867.6" rx="6.1" ry="2.7"/>
	<circle cx="754.4" cy="879.8" r="3.7"/>
</g>
<g class="st7">
	<circle cx="259.9" cy="735.2" r="2.9"/>
	<ellipse cx="271.9" cy="729.6" rx="6.1" ry="2.7"/>
	<circle cx="272.4" cy="741.8" r="3.7"/>
</g>
<g class="st7">
	<circle cx="70.9" cy="963.2" r="2.9"/>
	<ellipse cx="82.9" cy="957.6" rx="6.1" ry="2.7"/>
	<circle cx="83.4" cy="969.8" r="3.7"/>
</g>
<g class="st7">
	<circle cx="354.9" cy="1272.2" r="2.9"/>
	<ellipse cx="366.9" cy="1266.6" rx="6.1" ry="2.7"/>
	<circle cx="367.4" cy="1278.8" r="3.7"/>
</g>
<g class="st7">
	<circle cx="492.9" cy="628.2" r="2.9"/>
	<ellipse cx="504.9" cy="622.6" rx="6.1" ry="2.7"/>
	<circle cx="505.4" cy="634.8" r="3.7"/>
</g>
<g>
	<g>
		<g>
			<circle class="st6" cx="220" cy="904.8" r="118"/>
			<circle cx="220" cy="904.8" r="49.5"/>
		</g>
		<g>
			<circle class="st6" cx="586" cy="904.8" r="118"/>
			<circle cx="586" cy="904.8" r="49.5"/>
		</g>
		<path d="M467.5,988.2c0,6.9-64.7,25.2-64.7,25.2s-66.3-18.3-66.3-25.2c0-6.9,29.3-12.4,65.5-12.4S467.5,981.4,467.5,988.2z"/>
	</g>
	<path class="st14" d="M232.9,608.6c-23.3,10.7-43.6,37.6-43.6,37.6l-23.3,38l-12.6,30.6l50.8-62.5l28.4-30.6l-2.5,44.4l-7.4,52.6
		l-6.9,26.7l25.4-61.5l5-56.6l-8.5-26.4L232.9,608.6z"/>
	<path class="st14" d="M552.6,601.6c23.3,10.7,43.6,37.6,43.6,37.6l23.3,38l12.6,30.6l-50.8-62.5l-28.4-30.6l2.5,44.4l7.4,52.6
		l6.9,26.7l-25.4-61.5l-5-56.6l8.5-26.4L552.6,601.6z"/>
	<path class="st6" d="M115.5,1247.8c74.9,77.8,178.5,126,293,126c119.7,0,227.5-52.6,303-136.7c-27.6-109.6-150-192.3-296.8-192.3
		C263.1,1044.8,137.6,1132.9,115.5,1247.8z"/>
	<g>
		<g>
			<path d="M672.3,1035.3c3.4-3.2,7-5.8,10.7-8.2s7.5-4.6,11.4-6.6s7.9-3.7,12-5.1c4.1-1.4,8.3-2.7,12.4-4.2l12.3-4.4l12.4-4.3
				c8.3-2.8,16.5-5.6,24.9-8.2l0.4,1c-7.7,4.2-15.4,8.2-23.1,12.3l-11.6,6l-11.7,5.8c-3.9,1.9-7.7,4-11.6,6.1c-3.9,2-7.8,3.8-12,5.2
				c-4.1,1.4-8.3,2.6-12.6,3.6s-8.7,1.8-13.3,2.1L672.3,1035.3z"/>
		</g>
		<g>
			<path d="M652.3,1061.8c4.7-1.8,9.5-3,14.3-4.1c4.8-1,9.6-1.8,14.4-2.4c4.8-0.6,9.6-0.8,14.5-0.7c4.8,0.1,9.7,0.3,14.5,0.3h14.5
				l14.5,0.2c9.7,0.2,19.4,0.3,29,0.7l0.1,1.1c-9.6,1.4-19.2,2.5-28.8,3.7l-14.4,1.7l-14.4,1.5c-4.8,0.5-9.6,1.2-14.4,1.8
				c-4.8,0.6-9.6,0.9-14.5,0.8c-4.8-0.1-9.7-0.3-14.5-0.9c-4.9-0.5-9.7-1.3-14.6-2.6L652.3,1061.8z"/>
		</g>
		<g>
			<path d="M653,1084c4.6-0.5,9.1-0.4,13.5-0.1s8.8,0.9,13,1.6c4.3,0.7,8.5,1.8,12.6,3.2s8.2,2.9,12.4,4.2l12.5,3.9l12.4,4.1
				c8.3,2.8,16.5,5.5,24.8,8.5l-0.3,1.1c-8.6-1.3-17.2-2.8-25.8-4.2l-12.9-2.3l-12.8-2.5c-4.3-0.8-8.6-1.5-12.9-2.2
				c-4.3-0.7-8.5-1.7-12.7-3.1c-4.1-1.4-8.2-2.9-12.3-4.7c-4-1.8-8-3.8-11.8-6.4L653,1084z"/>
		</g>
	</g>
	<g>
		<g>
			<path d="M155.1,1034.3c-4.6-0.3-9-1.1-13.3-2.1s-8.5-2.2-12.6-3.6c-4.1-1.4-8.1-3.1-12-5.2c-3.9-2.1-7.7-4.2-11.6-6.1l-11.7-5.8
				l-11.6-6c-7.7-4-15.5-8.1-23.1-12.3l0.4-1c8.3,2.6,16.6,5.4,24.9,8.2l12.4,4.3l12.3,4.4c4.1,1.5,8.3,2.8,12.4,4.2
				c4.1,1.4,8.2,3.1,12,5.1c3.9,2,7.7,4.2,11.4,6.6c3.7,2.4,7.3,5,10.7,8.2L155.1,1034.3z"/>
		</g>
		<g>
			<path d="M175.5,1060.8c-4.9,1.3-9.8,2-14.6,2.6c-4.9,0.5-9.7,0.8-14.5,0.9c-4.8,0.1-9.7-0.2-14.5-0.8s-9.6-1.3-14.4-1.8
				l-14.4-1.5l-14.4-1.7c-9.6-1.2-19.2-2.3-28.8-3.7l0.1-1.1c9.7-0.4,19.4-0.5,29-0.7l14.5-0.2H118c4.8,0,9.7-0.2,14.5-0.3
				s9.7,0.1,14.5,0.7c4.8,0.6,9.6,1.3,14.4,2.4c4.8,1,9.6,2.3,14.3,4.1L175.5,1060.8z"/>
		</g>
		<g>
			<path d="M175.1,1083.1c-3.8,2.6-7.8,4.6-11.8,6.4s-8.1,3.4-12.3,4.7c-4.1,1.4-8.4,2.4-12.7,3.1s-8.6,1.3-12.9,2.2l-12.8,2.5
				l-12.9,2.3c-8.6,1.5-17.2,2.9-25.8,4.2l-0.3-1.1c8.2-3,16.5-5.7,24.8-8.5l12.4-4.1l12.5-3.9c4.2-1.3,8.3-2.8,12.4-4.2
				s8.3-2.5,12.6-3.2c4.3-0.7,8.6-1.3,13-1.6c4.4-0.3,8.9-0.4,13.5,0.1L175.1,1083.1z"/>
		</g>
	</g>
	<g>
		<path class="st15" d="M315.8,1140.7c-1-2.3-2.1-4.5-3.3-6.5c-2.4-4.1-5.4-7.8-8.6-11.1c-3.2-3.3-6.8-6.3-10.9-8.9
			c-4-2.5-8.3-4.7-13.7-5.8c0.1-0.2,0.1-0.4,0.2-0.6c-6.1,1-11.2,3.2-16,5.7c-4.8,2.6-9.2,5.6-13.3,9s-7.8,7.2-11.2,11.5
			c-1.7,2.1-3.3,4.4-4.7,6.8c-1.4,2.4-2.8,5-3.8,7.9c3.1-0.5,5.8-1.3,8.5-2.3c2.6-1,5.1-2.1,7.5-3.4c4.8-2.6,9.2-5.6,13.3-9
			c4.1-3.4,7.9-7.2,11.2-11.5c3.1-4.1,6-8.4,8.1-13.8c1,5.3,3.1,9.6,5.4,13.6c2.5,4.1,5.4,7.8,8.6,11.1c3.3,3.3,6.9,6.3,10.9,8.9
			c2,1.3,4.2,2.4,6.5,3.5c2.3,1,4.7,1.9,7.5,2.4C317.5,1145.5,316.7,1143.1,315.8,1140.7z"/>
	</g>
	<g>
		<path class="st15" d="M444.8,1128.7c-1-2.3-2.1-4.5-3.3-6.5c-2.4-4.1-5.4-7.8-8.6-11.1c-3.2-3.3-6.8-6.3-10.9-8.9
			c-4-2.5-8.3-4.7-13.7-5.8c0.1-0.2,0.1-0.4,0.2-0.6c-6.1,1-11.2,3.2-16,5.7c-4.8,2.6-9.2,5.6-13.3,9c-4.1,3.4-7.8,7.2-11.2,11.5
			c-1.7,2.1-3.3,4.4-4.7,6.8c-1.4,2.4-2.8,5-3.8,7.9c3.1-0.5,5.8-1.3,8.5-2.3c2.6-1,5.1-2.1,7.5-3.4c4.8-2.6,9.2-5.6,13.3-9
			c4.1-3.4,7.9-7.2,11.2-11.5c3.1-4.1,6-8.4,8.1-13.8c1,5.3,3.1,9.6,5.4,13.6c2.5,4.1,5.4,7.8,8.6,11.1c3.3,3.3,6.9,6.3,10.9,8.9
			c2,1.3,4.2,2.4,6.5,3.5c2.3,1,4.7,1.9,7.5,2.4C446.5,1133.5,445.7,1131.1,444.8,1128.7z"/>
	</g>
	<g>
		<path class="st15" d="M565.8,1140.7c-1-2.3-2.1-4.5-3.3-6.5c-2.4-4.1-5.4-7.8-8.6-11.1c-3.2-3.3-6.8-6.3-10.9-8.9
			c-4-2.5-8.3-4.7-13.7-5.8c0.1-0.2,0.1-0.4,0.2-0.6c-6.1,1-11.2,3.2-16,5.7c-4.8,2.6-9.2,5.6-13.3,9c-4.1,3.4-7.8,7.2-11.2,11.5
			c-1.7,2.1-3.3,4.4-4.7,6.8c-1.4,2.4-2.8,5-3.8,7.9c3.1-0.5,5.8-1.3,8.5-2.3c2.6-1,5.1-2.1,7.5-3.4c4.8-2.6,9.2-5.6,13.3-9
			s7.9-7.2,11.2-11.5c3.1-4.1,6-8.4,8.1-13.8c1,5.3,3.1,9.6,5.4,13.6c2.5,4.1,5.4,7.8,8.6,11.1c3.3,3.3,6.9,6.3,10.9,8.9
			c2,1.3,4.2,2.4,6.5,3.5c2.3,1,4.7,1.9,7.5,2.4C567.5,1145.5,566.7,1143.1,565.8,1140.7z"/>
	</g>
	<g>
		<path class="st15" d="M384.8,1202.7c-1-2.3-2.1-4.5-3.3-6.5c-2.4-4.1-5.4-7.8-8.6-11.1c-3.2-3.3-6.8-6.3-10.9-8.9
			c-4-2.5-8.3-4.7-13.7-5.8c0.1-0.2,0.1-0.4,0.2-0.6c-6.1,1-11.2,3.2-16,5.7c-4.8,2.6-9.2,5.6-13.3,9c-4.1,3.4-7.8,7.2-11.2,11.5
			c-1.7,2.1-3.3,4.4-4.7,6.8c-1.4,2.4-2.8,5-3.8,7.9c3.1-0.5,5.8-1.3,8.5-2.3c2.6-1,5.1-2.1,7.5-3.4c4.8-2.6,9.2-5.6,13.3-9
			c4.1-3.4,7.9-7.2,11.2-11.5c3.1-4.1,6-8.4,8.1-13.8c1,5.3,3.1,9.6,5.4,13.6c2.5,4.1,5.4,7.8,8.6,11.1c3.3,3.3,6.9,6.3,10.9,8.9
			c2,1.3,4.2,2.4,6.5,3.5c2.3,1,4.7,1.9,7.5,2.4C386.5,1207.5,385.7,1205.1,384.8,1202.7z"/>
	</g>
	<g>
		<path class="st15" d="M508.8,1202.7c-1-2.3-2.1-4.5-3.3-6.5c-2.4-4.1-5.4-7.8-8.6-11.1c-3.2-3.3-6.8-6.3-10.9-8.9
			c-4-2.5-8.3-4.7-13.7-5.8c0.1-0.2,0.1-0.4,0.2-0.6c-6.1,1-11.2,3.2-16,5.7c-4.8,2.6-9.2,5.6-13.3,9c-4.1,3.4-7.8,7.2-11.2,11.5
			c-1.7,2.1-3.3,4.4-4.7,6.8c-1.4,2.4-2.8,5-3.8,7.9c3.1-0.5,5.8-1.3,8.5-2.3c2.6-1,5.1-2.1,7.5-3.4c4.8-2.6,9.2-5.6,13.3-9
			c4.1-3.4,7.9-7.2,11.2-11.5c3.1-4.1,6-8.4,8.1-13.8c1,5.3,3.1,9.6,5.4,13.6c2.5,4.1,5.4,7.8,8.6,11.1c3.3,3.3,6.9,6.3,10.9,8.9
			c2,1.3,4.2,2.4,6.5,3.5c2.3,1,4.7,1.9,7.5,2.4C510.5,1207.5,509.7,1205.1,508.8,1202.7z"/>
	</g>
</g>
<g>
	<g class="st10">
		<path d="M36,941.9c0-140,70.5-263.5,177.9-336.9C86.5,674,0,808.8,0,963.9c0,225.3,182.7,408,408,408
			c85.4,0,164.6-26.2,230.1-71.1c-57.7,31.3-123.8,49.1-194.1,49.1C218.7,1349.9,36,1167.2,36,941.9z"/>
	</g>
	<g class="st11">
		<path d="M487,1326.9c-225.3,0-408-182.7-408-408c0-135.7,66.2-255.8,168.1-330c-11.3,4.9-22.4,10.2-33.2,16.1
			C106.5,678.4,36,801.9,36,941.9c0,225.3,182.7,408,408,408c70.3,0,136.4-17.8,194.1-49.1c3.3-2.3,6.6-4.6,9.8-6.9
			C598.6,1315.1,544.2,1326.9,487,1326.9z"/>
	</g>
	<g class="st12">
		<path d="M539,1296.9c-225.3,0-408-182.7-408-408c0-124.4,55.7-235.8,143.5-310.6c-9.3,3.2-18.5,6.8-27.4,10.6
			C145.2,663.1,79,783.2,79,918.9c0,225.3,182.7,408,408,408c57.2,0,111.6-11.8,160.9-33c8.4-6.1,16.6-12.6,24.6-19.4
			C630.7,1289,585.8,1296.9,539,1296.9z"/>
	</g>
	<g class="st12">
		<path class="st6" d="M694.7,776.9c-107,0-193.7-81.1-193.7-181c0-9.4,0.8-18.6,2.2-27.5c-15.3-3.7-31-6.6-47-8.5
			c-20.3,28.6-32.2,63-32.2,100c0,100,86.7,181,193.7,181c60.5,0,114.6-26,150.1-66.6c-1.6-3-3.2-6-4.9-8.9
			C741.7,772.8,718.7,776.9,694.7,776.9z"/>
	</g>
	<g class="st11">
		<path class="st6" d="M694.7,776.9c24,0,47-4.1,68.2-11.6c-39.9-71-100.4-128.8-173.3-165.4c-27.2-13.6-56.1-24.3-86.4-31.6
			c-1.5,9-2.2,18.2-2.2,27.5C501,695.8,587.7,776.9,694.7,776.9z"/>
	</g>
</g>
<g>
	<path class="st16" d="M1147.95,1429c-191.5,0-354.9-117.4-418.6-282.3c25.9,200.4,197.2,355.2,404.6,355.2
		c85.4,0,164.6-26.2,230.1-71.1c3.3-2.3,6.6-4.6,9.8-6.9c8.4-6.1,16.6-12.6,24.6-19.4c50.2-42.8,89.9-97.6,114.7-159.9
		C1432.15,1356.2,1298.75,1429,1147.95,1429z"/>
	<path class="st17" d="M1147.95,1429c150.8,0,284.2-72.8,365.2-184.4c17.4-43.8,27.5-91.4,28.6-141.1c0.1-3.2,0.1-6.4,0.1-9.6
		c0-4.2-0.1-8.3-0.2-12.5c-4.6-154.4-95-287.2-225.2-352.5c-54.8-27.5-116.9-43-182.5-43c-46.8,0-91.7,7.9-133.5,22.4
		c-9.3,3.2-18.5,6.8-27.4,10.6c-11.3,4.9-22.4,10.2-33.2,16.1c-124,67.1-209.2,196.6-213.7,346.4c-0.1,4.2-0.2,8.3-0.2,12.5
		c0,17.9,1.2,35.5,3.4,52.8C793.05,1311.7,956.45,1429,1147.95,1429z"/>
	<g>
		<g class="st2">
			<path d="M761.95,1069.9c0-140,70.5-263.5,177.9-336.9c-127.4,69-213.9,203.9-213.9,358.9c0,225.3,182.7,408,408,408
				c85.4,0,164.6-26.2,230.1-71.1c-57.7,31.4-123.8,49.1-194.1,49.1C944.65,1477.9,761.95,1295.3,761.95,1069.9z"/>
		</g>
		<g class="st3">
			<path d="M1212.95,1454.9c-225.3,0-408-182.6-408-408c0-135.7,66.2-255.8,168.1-330c-11.3,4.9-22.4,10.2-33.2,16.1
				c-107.4,73.5-177.9,197-177.9,336.9c0,225.3,182.7,408,408,408c70.3,0,136.4-17.8,194.1-49.1c3.3-2.3,6.6-4.6,9.8-6.9
				C1324.55,1443.2,1270.15,1454.9,1212.95,1454.9z"/>
		</g>
		<g class="st4">
			<path d="M1264.95,1424.9c-225.3,0-408-182.7-408-408c0-124.4,55.7-235.8,143.5-310.6c-9.3,3.2-18.5,6.8-27.4,10.6
				c-101.9,74.2-168.1,194.4-168.1,330c0,225.3,182.7,408,408,408c57.2,0,111.6-11.8,160.9-33c8.4-6.1,16.6-12.6,24.6-19.4
				C1356.65,1417.1,1311.75,1424.9,1264.95,1424.9z"/>
		</g>
		<g class="st5">
			<path class="st6" d="M1420.65,904.9c-107,0-193.7-81-193.7-181c0-9.4,0.8-18.6,2.2-27.5c-15.3-3.7-31-6.6-47-8.5
				c-20.3,28.6-32.2,63-32.2,100c0,100,86.7,181,193.7,181c60.5,0,114.6-26,150.1-66.6c-1.6-3-3.2-6-4.9-8.9
				C1467.65,900.8,1444.65,904.9,1420.65,904.9z"/>
		</g>
		<g class="st7">
			<path class="st6" d="M1420.65,904.9c24,0,47-4.1,68.2-11.6c-39.9-71-100.4-128.8-173.3-165.4c-27.2-13.6-56.1-24.3-86.4-31.6
				c-1.5,9-2.2,18.2-2.2,27.5C1226.95,823.9,1313.65,904.9,1420.65,904.9z"/>
		</g>
		<g class="st7">
			<circle cx="866.95" cy="825.9" r="6"/>
			<ellipse cx="891.45" cy="814.4" rx="12.5" ry="5.5"/>
			<circle cx="892.45" cy="839.4" r="7.5"/>
		</g>
		<g class="st7">
			<circle cx="1110.95" cy="1452.9" r="6"/>
			<ellipse cx="1135.45" cy="1441.4" rx="12.5" ry="5.5"/>
			<circle cx="1136.45" cy="1466.4" r="7.5"/>
		</g>
		<g class="st7">
			<circle cx="1379.95" cy="894.9" r="6"/>
			<ellipse cx="1404.45" cy="883.4" rx="12.5" ry="5.5"/>
			<circle cx="1405.45" cy="908.4" r="7.5"/>
		</g>
		<g class="st7">
			<circle cx="1246.95" cy="792.9" r="6"/>
			<ellipse cx="1271.45" cy="781.4" rx="12.5" ry="5.5"/>
			<circle cx="1272.45" cy="806.4" r="7.5"/>
		</g>
		<g class="st7">
			<circle cx="839.95" cy="1156.9" r="6"/>
			<ellipse cx="864.45" cy="1145.4" rx="12.5" ry="5.5"/>
			<circle cx="865.45" cy="1170.4" r="7.5"/>
		</g>
		<g class="st7">
			<circle cx="788.95" cy="1037.9" r="6"/>
			<ellipse cx="813.45" cy="1026.4" rx="12.5" ry="5.5"/>
			<circle cx="814.45" cy="1051.4" r="7.5"/>
		</g>
		<g class="st7">
			<circle cx="1456.95" cy="1041.9" r="6"/>
			<ellipse cx="1481.45" cy="1030.4" rx="12.5" ry="5.5"/>
			<circle cx="1482.45" cy="1055.4" r="7.5"/>
		</g>
		<g class="st7">
			<circle cx="1249.95" cy="1433.9" r="6"/>
			<ellipse cx="1274.45" cy="1422.4" rx="12.5" ry="5.5"/>
			<circle cx="1275.45" cy="1447.4" r="7.5"/>
		</g>
		<g class="st7">
			<circle cx="993.95" cy="1401.9" r="6"/>
			<ellipse cx="1018.45" cy="1390.4" rx="12.5" ry="5.5"/>
			<circle cx="1019.45" cy="1415.4" r="7.5"/>
		</g>
		<g class="st7">
			<circle cx="809.95" cy="1271.9" r="6"/>
			<ellipse cx="834.45" cy="1260.4" rx="12.5" ry="5.5"/>
			<circle cx="835.45" cy="1285.4" r="7.5"/>
		</g>
		<g class="st7">
			<circle cx="1332.95" cy="1200.9" r="6"/>
			<ellipse cx="1357.45" cy="1189.4" rx="12.5" ry="5.5"/>
			<circle cx="1358.45" cy="1214.4" r="7.5"/>
		</g>
		<g class="st7">
			<circle cx="1059.85" cy="741.2" r="2.9"/>
			<ellipse cx="1071.85" cy="735.6" rx="6.1" ry="2.7"/>
			<circle cx="1072.35" cy="747.8" r="3.7"/>
		</g>
		<g class="st7">
			<circle cx="1467.85" cy="1001.2" r="2.9"/>
			<ellipse cx="1479.85" cy="995.6" rx="6.1" ry="2.7"/>
			<circle cx="1480.35" cy="1007.8" r="3.7"/>
		</g>
		<g class="st7">
			<circle cx="985.85" cy="863.2" r="2.9"/>
			<ellipse cx="997.85" cy="857.6" rx="6.1" ry="2.7"/>
			<circle cx="998.35" cy="869.8" r="3.7"/>
		</g>
		<g class="st7">
			<circle cx="796.85" cy="1091.2" r="2.9"/>
			<ellipse cx="808.85" cy="1085.6" rx="6.1" ry="2.7"/>
			<circle cx="809.35" cy="1097.8" r="3.7"/>
		</g>
		<g class="st7">
			<circle cx="1080.85" cy="1400.2" r="2.9"/>
			<ellipse cx="1092.85" cy="1394.6" rx="6.1" ry="2.7"/>
			<circle cx="1093.35" cy="1406.8" r="3.7"/>
		</g>
		<g class="st7">
			<circle cx="1218.85" cy="756.2" r="2.9"/>
			<ellipse cx="1230.85" cy="750.6" rx="6.1" ry="2.7"/>
			<circle cx="1231.35" cy="762.8" r="3.7"/>
		</g>
	</g>
	<path class="st18" d="M1150.09,945.91l34.03,68.96c2.63,5.33,7.71,9.02,13.59,9.88l76.1,11.06c14.81,2.15,20.72,20.35,10.01,30.79
		l-55.06,53.67c-4.26,4.15-6.2,10.12-5.19,15.98l13,75.79c2.53,14.75-12.95,26-26.2,19.03l-68.06-35.78
		c-5.26-2.77-11.54-2.77-16.8,0l-68.06,35.78c-13.24,6.96-28.73-4.28-26.2-19.03l13-75.79c1-5.86-0.94-11.83-5.19-15.98
		l-55.06-53.67c-10.72-10.44-4.8-28.64,10.01-30.79l76.1-11.06c5.88-0.85,10.96-4.55,13.59-9.88l34.03-68.96
		C1124.33,932.49,1143.47,932.49,1150.09,945.91z"/>
</g>
<g>
	<g class="st10">
		<path d="M765,1071.3c0-140,70.5-263.5,177.9-336.9C815.5,803.4,729,938.2,729,1093.3c0,225.3,182.7,408,408,408
			c85.4,0,164.6-26.2,230.1-71.1c-57.7,31.3-123.8,49.1-194.1,49.1C947.7,1479.3,765,1296.6,765,1071.3z"/>
	</g>
	<g class="st11">
		<path d="M1216,1456.3c-225.3,0-408-182.7-408-408c0-135.7,66.2-255.8,168.1-330c-11.3,4.9-22.4,10.2-33.2,16.1
			C835.5,807.8,765,931.3,765,1071.3c0,225.3,182.7,408,408,408c70.3,0,136.4-17.8,194.1-49.1c3.3-2.3,6.6-4.6,9.8-6.9
			C1327.6,1444.5,1273.2,1456.3,1216,1456.3z"/>
	</g>
	<g class="st12">
		<path d="M1268,1426.3c-225.3,0-408-182.7-408-408c0-124.4,55.7-235.8,143.5-310.6c-9.3,3.2-18.5,6.8-27.4,10.6
			C874.2,792.5,808,912.6,808,1048.3c0,225.3,182.7,408,408,408c57.2,0,111.6-11.8,160.9-33c8.4-6.1,16.6-12.6,24.6-19.4
			C1359.7,1418.4,1314.8,1426.3,1268,1426.3z"/>
	</g>
	<g class="st12">
		<path class="st6" d="M1423.7,906.3c-107,0-193.7-81.1-193.7-181c0-9.4,0.8-18.6,2.2-27.5c-15.3-3.7-31-6.6-47-8.5
			c-20.3,28.6-32.2,63-32.2,100c0,100,86.7,181,193.7,181c60.5,0,114.6-26,150.1-66.6c-1.6-3-3.2-6-4.9-8.9
			C1470.7,902.2,1447.7,906.3,1423.7,906.3z"/>
	</g>
	<g class="st11">
		<path class="st6" d="M1423.7,906.3c24,0,47-4.1,68.2-11.6c-39.9-71-100.4-128.8-173.3-165.4c-27.2-13.6-56.1-24.3-86.4-31.6
			c-1.5,9-2.2,18.2-2.2,27.5C1230,825.2,1316.7,906.3,1423.7,906.3z"/>
	</g>
</g>
</svg>
