<?xml version="1.0" encoding="utf-8"?>
<!-- Generator: Adobe Illustrator 23.0.3, SVG Export Plug-In . SVG Version: 6.00 Build 0)  -->
<svg version="1.1" id="Layer_1" xmlns="http://www.w3.org/2000/svg" xmlns:xlink="http://www.w3.org/1999/xlink" x="0px" y="0px"
	 viewBox="0 0 751.24 359" style="enable-background:new 0 0 751.24 359;" xml:space="preserve">
<style type="text/css">
	.st0{fill:#12191F;}
	.st1{fill:#4BB6E2;}
	.st2{fill:#B1DFF2;}
	.st3{fill:none;}
	.st4{fill:#F3E81E;}
	.st5{fill:#FBAA2A;}
</style>
<path class="st0" d="M750.73,214.19c-0.74,0.09-1.66,0.01-2.75-0.24c0.08,3.34,0.15,6.68,0.23,10.03c1.01-0.05,2.09,0.16,3.04-0.16
	C750.48,220.64,750.41,217.47,750.73,214.19z"/>
<path class="st0" d="M0,146c2.58-1.34,7.25-0.37,6.26-5.66c4.26-0.64,5.65-4.2,7.98-7.08c0.99-1.23,4.8,0.1,7.22-0.31
	c3.8-0.65,3.19,2.27,3.92,4.2c0.41,1.09,0.88,2.11,2.42,1.88c1.54-0.23,2.91,0.82,3.19,1.93c0.69,2.73,2.42,3.63,4.78,4.87
	c3.65,1.9,1.66,5.99,1.87,9.13c0.18,2.72-1.91,3.12-4.12,3.02c-0.87-0.04-1.66,0.1-1.71,1.24c-0.15,3.05-1.21,5.14-4.81,4.74
	c-0.78-0.09-0.85,0.7-1.16,1.28c-0.81,1.5-0.17,4.13-2.38,4.43c-2.94,0.4-5.98,0.13-8.97,0.15c-0.17,0-0.33-0.02-0.5-0.02
	c0.93-6.23-7.93-4.46-8.15-10.15C5.71,156.1,1.43,159.14,0,157C0,153.33,0,149.67,0,146z M11.9,145.81
	c-4.09-0.47-4.56,1.44-5.16,5.3c-1.04,6.73,7.83,6.01,7.42,11.58c2.99-0.01,6,0.17,8.97-0.09c2.09-0.18,1.43-2.27,1.79-3.61
	c0.36-1.33,1.59-1.86,2.63-1.99c5.51-0.68,2.32-4.89,3.03-7.43c0.78-2.81-0.8-3.84-3.56-3.66c-1.31,0.08-2.02-0.9-2.19-2.24
	c-0.92-7.3-6.43-2.78-9.69-3.42c-3.77-0.74-1.39,3.07-2.23,4.65C12.57,145.2,12.23,145.5,11.9,145.81z"/>
<path class="st0" d="M433,29.98c-1.58-1.36-0.71-5.55-4.73-4.09c-1.36-3.44-4.44-6.31-3.5-10.52c-0.76-3.85,2.5-5.67,4.65-7.31
	c1.89-1.44,2.42-4.73,5.86-4.53c1.07,0.06,0.24-2.34,0.72-3.53c3.67,0,7.33,0,11,0c-1.45,4.77,3.93,4.46,5.41,7.18
	c1.69,3.1,5.64,4.4,5.48,9.27c-0.15,4.48-2.22,6.82-5.18,9.24c-2.69,2.2-5.5,4.34-6.95,7.69c-4.03,0.07-8.64,2-10.94-3.49
	C434.74,29.7,433.63,29.94,433,29.98z M436.76,6.88c-2.63,0.64-5.36,1.16-4.9,4.89c-1.44,0.18-3.21,0-2.91,2.3
	c0.33,2.52-1.37,6.32,0.99,7.31c3.03,1.27,4.22,3.69,6.12,5.69c1.92,2.02,8.04,2.76,9.27,0.52c1.26-2.3,3.58-3.24,5.15-5.05
	c1.42-1.63,2.08-2.84,2.28-4.88c0.62-6.23-4.06-9.29-7.96-12.17C443.21,4.32,438.85,3.05,436.76,6.88z"/>
<path class="st0" d="M263,332.02c3.88,1.1,6.51,4.67,7.87,7.39c1.33,2.64,4.71,1.89,5.19,5.35c0.8,5.87-3.62,7.98-6.46,11.34
	c-0.84,0.99-3.18,0.64-2.6,2.9c-3.33,0-6.67,0-10,0c-1.76-2.53-4.24-4.49-6.32-6.66c-3.41-3.56-2.39-6.85-0.15-10.62
	c1.86-3.12,5.86-3.42,6.64-7.21C257.75,331.71,260.93,332.65,263,332.02z M256.99,342.99c-1.71,0.37-4.52-0.63-3.94,2.73
	c0.34,1.97-1.94,5.38,2.61,5.44c1.32,0.02,2.27,0.92,2.22,2.21c-0.11,3.3,2.21,2.6,4.06,2.59c1.88-0.01,4.22,0.62,4.07-2.65
	c-0.05-1.12,0.83-2.11,1.77-2.07c3.35,0.16,3.14-1.95,3.1-4.22c-0.04-2.1,0.05-4.01-2.94-3.99c-1.3,0.01-1.9-1.08-2.04-2.39
	c-0.41-3.91-3.42-2.05-5.39-2.31c-2.98-0.39-2.36,1.96-2.54,3.65C257.64,342.31,257.31,342.65,256.99,342.99z"/>
<path class="st0" d="M131,111.04c9.24,0.1,18.47,0.19,27.71,0.29c2.24,0.02,4.89-0.58,4.35,3.25c-0.25,1.79,1.12,1.67,2.28,1.63
	c1.37-0.05,2.69-0.09,2.85,1.78c0,13.01,0,26.01,0,39.02c-0.05,6.15-0.48,12.32-0.01,18.43c0.36,4.71-1.41,5.46-5.56,5.31
	c-6.94-0.25-13.94-0.15-20.85,0.11c-11.46,0.43-22.87-0.38-34.29-0.21c-2.35,0.03-3.26-1.76-4.79-3.01
	c-3.97-3.25-3.5-6.83-4.09-10.81c-0.27-1.84-3.22-0.71-4.95-0.87c-2.33-0.21-5.33,0.76-4.7-3.47c0.2-1.36-0.81-1.73-1.89-1.53
	c-3.55,0.66-3.03-1.92-3.22-3.95c0-13.01,0-26.01,0-39.02c0.05-10.32,0.22-20.65,0.09-30.97c-0.04-3.08,0.54-4.78,3.99-4.11
	c0.16,0.03,0.33,0.01,0.5,0c10.33-0.07,10.48-0.07,10.41-10.2c-0.02-3.14,0.84-3.85,3.88-3.81c13.82,0.17,27.65,0.07,41.47,0.07
	c2.07,0,4.6-0.6,4.01,3.01c-0.13,0.81,0.02,1.99,1.06,1.85c4.64-0.62,4.1,2.59,3.84,5.26c-0.32,3.17,0.91,3.97,3.93,3.88
	c2.65-0.08,6.85-1.74,6.18,3.88c-0.03,0.27,0.67,0.93,0.95,0.89c5.22-0.76,3.96,3.03,3.87,5.69c-0.16,5.25,2.28,12.28-1.04,15.24
	c-2.92,2.61-9.82,0.93-14.95,0.86c-2.55-0.03-6.23,1.65-6.15-3.72c0.03-2.16-2.75-0.71-4.21-1.08c-0.34-3.17,0.43-7.41-1.31-9.23
	c-1.86-1.95-6.12-0.69-9.34-0.45c-4.66,0-9.33,0.01-13.99,0.01c-2.35,0.46-6.24-2.58-6.19,3.17c0.15,17.47,0.11,34.95-0.01,52.43
	c-0.02,2.72,0.89,3.37,3.44,3.28c4.99-0.17,9.98-0.01,14.98-0.03c12.44-0.04,12.34-0.04,12.01-12.71c-0.07-2.73-0.93-3.35-3.45-3.25
	c-4.65,0.19-9.32,0.1-13.98,0.07c-3.06-0.02-7.14,1.33-6.25-4.4c0.1-0.63-0.27-1.5-1.05-1.42c-5.2,0.49-3.69-3.32-3.76-5.95
	c-0.11-3.66,0.19-7.33-0.03-10.98c-0.19-3,0.67-4.14,3.85-4.02C121.36,111.47,126.18,111.15,131,111.04z M158.01,143.72
	c0.01,0,0.01,0,0.02,0c0-7.99-0.14-15.97,0.07-23.95c0.08-3.18-0.87-4.37-4.12-4.33c-9.65,0.12-19.3-0.06-28.95-0.02
	c-9.26,0.04-7.99-1.3-8.31,8.19c-0.11,3.4,0.77,4.69,4.38,4.55c6.81-0.27,13.64,0.03,20.46-0.13c2.79-0.07,3.8,0.76,3.74,3.64
	c-0.16,7.82-0.19,15.64,0.01,23.45c0.08,3.12-1.01,3.95-4,3.9c-9.81-0.16-19.63-0.07-29.45-0.06c-9.39,0-9.28,0-8.99,9.27
	c0.08,2.56,0.81,3.51,3.41,3.49c16.14-0.1,32.27-0.13,48.41-0.07c2.59,0.01,3.43-0.86,3.39-3.46
	C157.92,160.03,158.01,151.87,158.01,143.72z M101.8,121.99c0.01,0,0.02,0,0.03,0c0-8.66-0.01-17.32,0-25.99
	c0.02-9.15,0.02-8.88-9.13-9.17c-4.29-0.14-4.77,1.58-4.75,5.14c0.13,18.82,0.05,37.65,0.05,56.47c0,9.78,0.01,9.67,9.84,9.51
	c2.99-0.05,4.05-0.88,4-3.98C101.69,143.32,101.8,132.65,101.8,121.99z M123.51,85.84c0,0.01,0,0.01,0,0.02c3.99,0,7.97,0,11.96,0
	c8.74-0.01,8.53-0.01,8.72-8.62c0.08-3.65-1.15-4.4-4.51-4.32c-9.3,0.22-18.6,0.07-27.9,0.07c-9.57,0.01-9.48,0.01-8.91,9.78
	c0.14,2.37,0.87,3.16,3.21,3.11C111.88,85.76,117.69,85.84,123.51,85.84z M158.01,93.4c0.01-6.43-0.01-6.05-7.81-6.58
	c-5.26-0.36-5.26,2.4-4.94,5.97c0.28,3.08-1.71,7.27,4.55,6.9C159.98,99.08,157.66,99.95,158.01,93.4z"/>
<path class="st0" d="M241.25,315.01c-0.75,3.28-3.64,0.99-5.25,2.02c-4.34,0-8.67,0-13.01,0c-4.33-0.41-8.66-0.41-12.99,0
	c-4.67,0-9.34,0-14.01,0c-4,0-8,0-11.99,0c-2.46-0.78-6.95,1.47-6.15-4.19c0.1-0.68-0.76-1.08-1.44-0.97
	c-4.26,0.72-3.41-2.31-3.42-4.65c-0.08-14.74-0.14-29.49-0.2-44.23c0-4.66,0.01-9.32,0.01-13.98c0-4.34,0-8.68,0-13.02
	c0.06-8.99,0.27-17.98,0.08-26.97c-0.07-3.31,0.89-4.4,4.14-4.06c2.3,0.24,4.65-0.06,6.98-0.12c4,0,8.01,0,12.01,0
	c4.66,0,9.32,0,13.99,0c4,0,8.01,0,12.01,0c4.66,0.08,9.31,0.16,13.97,0.24c-0.43,3.73,0.83,5.77,4.95,4.94
	c0.11,2.66,0.21,5.32,0.32,7.98c-0.19,0.68,0.09,0.92,0.75,0.79c2.33,0,4.67,0.01,7,0.01c2.48-0.13,1.93,1.81,2.19,3.2
	c-0.06,0.92-0.47,2.62,0.32,2.58c7-0.31,3.88,4.89,4.48,8c0.21,1.1,0.13,2.27,0.19,3.4c0,4.34,0,8.68,0,13.02
	c-0.7,3.36,1.5,8.03-1.01,9.85c-2.3,1.66-6.67,0.37-10.11,0.6c-1.37,0.09-3.92-1.09-3.73,1.6c0.14,1.98,2.41,0.82,3.71,1.08
	c2.01,0.41,4.24-0.74,6.1,0.85c-0.07,2.02-1.03,4.63,2.74,4.13c1.87-0.25,2.19,0.89,2.17,2.42c-0.02,1.82,0.09,3.64,0.15,5.47
	c0,4.66,0,9.32,0,13.98c0,4.01,0,8.01,0,12.02c-1.45,3.88-4.93,0.92-7.17,2.13c-7.94-0.44-7.95-0.44-7.92,7.4
	C241.1,312.03,241.2,313.52,241.25,315.01z M177,257.89c0.01,0,0.02,0,0.03,0c0,15.16,0.09,30.32-0.07,45.47
	c-0.04,3.42,0.87,4.57,4.44,4.52c14.16-0.2,28.32-0.08,42.47-0.08c8.21,0,7.99,0,8.27-8.15c0.13-3.75-0.87-4.8-4.66-4.72
	c-11.15,0.25-22.32-0.02-33.48,0.12c-3.1,0.04-4.42-0.68-4.3-4.09c0.25-7.15,0.25-14.33,0-21.48c-0.13-3.65,1.33-4.44,4.63-4.39
	c9.66,0.16,19.32,0.03,28.98,0.03c8.82,0,8.59,0,8.82-8.98c0.1-3.99-1.34-4.62-4.88-4.56c-10.99,0.2-21.99-0.06-32.98,0.07
	c-3.34,0.04-4.71-0.82-4.57-4.44c0.27-6.99,0.29-14-0.01-20.98c-0.16-3.67,1.19-4.4,4.54-4.34c9.82,0.19,19.65,0.05,29.48,0.05
	c8.42,0,8.17,0,8.43-8.39c0.13-3.99-1.34-4.6-4.85-4.56c-15.32,0.17-30.65,0.18-45.97,0c-3.5-0.04-4.49,0.9-4.44,4.43
	C177.11,228.24,177,243.07,177,257.89z M214.31,231.94c-1.33,0-2.66,0-3.99,0c-12.35,0-12.28-0.01-11.58,12.52
	c0.13,2.34,0.76,3.22,3.16,3.16c5.15-0.13,10.3-0.03,15.45-0.03c12.27,0,12.27,0,11.74-12.41c-0.01-0.17-0.02-0.34,0-0.5
	c0.33-2.23-0.71-2.86-2.83-2.78C222.28,232.04,218.29,231.94,214.31,231.94z M213.97,289.99c1.16,0,2.33,0,3.49,0
	c12.52,0,12.44,0,11.71-12.86c-0.14-2.43-0.91-3.1-3.22-3.04c-5.15,0.14-10.3,0.05-15.45,0.05c-11.91,0-11.82,0-11.76,11.95
	c0.01,2.89,0.5,4.23,3.77,3.97C206.31,289.76,210.15,289.99,213.97,289.99z M246.99,280.45c0-1.5,0-3,0-4.5
	c0.02-10.11,0.02-9.96-10.12-9.77c-3.29,0.06-3.84,1.39-3.77,4.2c0.14,6.49,0.21,13-0.03,19.48c-0.12,3.31,0.95,4.18,4.22,4.16
	c9.73-0.06,9.73,0.09,9.71-9.59C246.98,283.11,246.98,281.78,246.99,280.45z M246.99,237.01c0-1.33,0-2.66,0-4
	c-0.01-10.61-0.01-10.5-10.61-10.12c-2.75,0.1-3.33,1.05-3.27,3.54c0.14,6.16,0.35,12.34-0.07,18.48c-0.31,4.62,1.16,5.96,5.75,5.76
	c8.16-0.37,8.17-0.09,8.18-8.16C246.98,240.67,246.98,238.84,246.99,237.01z"/>
<path class="st0" d="M348.16,262.01c-0.05,15.72-0.11,31.44-0.15,47.17c-0.02,7.31,0,7.31-7,7.86c-4.34,0-8.67,0-13.01,0.01
	c-1.16-0.21-2.03-0.72-2.16-2.03c0.05-1.37,0.92-3.36-1.66-3.08c-3.44,0.37-3.18-1.77-3.17-4.03c0.04-9.45-0.29-18.91,0.14-28.34
	c0.23-5.16-1.67-6.34-6.15-5.22c-4.66,0-9.31,0-13.97,0c-2.13-0.07-4.28,0.02-6.37-0.26c-3.37-0.46-4.29,0.98-4.02,4.13
	c0.3,3.58,0.22,7.2,0.31,10.8c-0.49,4-0.49,8,0,12.01c-0.09,3.78-0.38,7.56-0.19,11.33c0.17,3.35-0.81,4.78-4.4,4.54
	c-3.76-0.25-7.55,0.08-11.33,0.16c-2.11-0.71-5.92,1.02-5.25-3.7c0.05-0.38-0.42-1.2-0.62-1.19c-7.1,0.28-4.09-5.12-4.12-8.05
	c-0.21-26.79-0.03-53.59-0.22-80.38c-0.03-3.94,1.04-4.96,4.9-4.83c8.87,0.29,9.13,0.07,8.91-8.53c-0.11-4.28,0.91-6.16,5.42-5.38
	c1.6,0.27,3.31-0.06,4.97-0.12c4,0,8.01,0,12.01,0c4.66,0,9.32,0,13.99,0c4,0,8.01,0,12.01,0c0.72,0.24,2.08,0.09,1.91,1.07
	c-0.8,4.47,2.07,4.26,4.97,4.13c0.39,9.11,0.39,9.11,7.12,8.76c3.18,0.12,1.5,2.76,2.16,4.18c-0.08,0.8-0.27,2.01,0.84,1.82
	c4.63-0.79,3.97,2.3,3.98,5.05C348.03,240.58,348.1,251.29,348.16,262.01z M268.94,264.99c0.01,0,0.01,0,0.02,0
	c0,12.99,0.06,25.99-0.05,38.98c-0.02,2.69,0.64,4.13,3.58,3.78c0.98-0.12,2.02-0.12,2.99,0.04c4.69,0.79,6.41-0.86,6.25-5.85
	c-0.36-10.82-0.03-21.66-0.14-32.48c-0.03-3.09,0.8-4.47,4.21-4.42c11.83,0.18,23.66,0.18,35.48,0.02c3.16-0.04,3.93,1.06,3.89,4.02
	c-0.15,9.83-0.05,19.66-0.05,29.49c0,9.34,0,9.15,9.12,9.32c3.71,0.07,4.79-0.96,4.77-4.73c-0.16-23.49-0.07-46.98-0.06-70.47
	c0-10.22,0-10.12-10.47-9.75c-2.56,0.09-3.48,0.72-3.42,3.39c0.16,6.99-0.09,14,0.09,20.99c0.08,3.09-0.63,4.45-4.07,4.4
	c-11.83-0.18-23.66-0.17-35.48,0c-3.49,0.05-4.21-1.47-4.12-4.49c0.16-5.33,0.08-10.66,0.09-15.99c0.02-8.46,0.01-8.24-8.44-8.33
	c-3.69-0.04-4.3,1.31-4.26,4.6C269.04,240,268.94,252.5,268.94,264.99z M304.01,221.92c4.15,0,8.31,0,12.46,0
	c8.67-0.01,8.47-0.01,8.63-8.62c0.07-3.68-1.25-4.36-4.57-4.3c-9.63,0.2-19.27,0.06-28.91,0.06c-9.33,0-9.2-0.01-8.88,9.36
	c0.1,2.9,1.11,3.64,3.82,3.56C292.38,221.81,298.2,221.93,304.01,221.92z M306.02,231.93c-1.33,0-2.66,0-3.99,0
	c-11.64,0-11.53,0-11.42,11.73c0.03,3.03,0.8,4.06,3.92,3.97c7.48-0.21,14.97-0.23,22.45,0.02c3.34,0.11,4.13-0.98,4.13-4.2
	c0-11.52,0.13-11.52-11.59-11.52C308.35,231.94,307.18,231.93,306.02,231.93z"/>
<path class="st0" d="M409.83,78.99c0.52-9.97,0.52-9.98,10.65-10.03c2.33-0.01,4.66,0.05,6.98-0.02c2.13-0.06,4.11-0.12,3.56,3.01
	c-0.18,1.01,0.03,2.22,1.43,1.97c4.81-0.83,3.06,2.95,3.67,5.07c0,4,0,8.01,0,12.01c0,4.66,0,9.32,0,13.99
	c0.52,4.03-1.51,4.86-5.13,4.6c-2.84-0.21-5.81-0.66-8.63,0.43c-0.69,2.64-0.35,5.31-0.2,7.97c0.54,4.14-0.94,6.08-5.38,5.24
	c-1.59-0.3-3.31-0.19-4.94-0.01c-1.39,0.15-3.91-1-3.64,1.75c0.21,2.11,2.45,0.7,3.69,1.14c1.65,0.6,4.93-1.39,4.86,1.4
	c-0.12,4.63,2.69,3.41,5.07,3.54c0.06,1.99,0.3,4,0.12,5.97c-0.22,2.48,0.74,3.24,3.09,2.98c3.36-0.37,6.78-0.68,6.23,4.5
	c-0.01,0.05,1.11,0.21,1.7,0.32c0.98,0.11,1.95,0.22,2.93,0.33c0.07,4.28,0.14,8.55,0.21,12.83c0,4,0,8.01,0,12.01
	c-0.79,3.35,1.5,7.84-1.06,9.91c-2.62,2.12-7.03,0.53-10.65,0.73c-0.83,0.04-1.7,0.17-2.48-0.02c-2.75-0.67-7.57,2.23-7.14-4.13
	c0.06-0.94-1.29-0.83-2.05-0.75c-2.76,0.3-2.81-1.41-2.78-3.42c0.06-5.63-0.22-11.28,0.11-16.9c0.21-3.56-1.41-3.81-4.08-3.25
	c-5.44,1.18-5.25-6.32-9.87-6.45c-0.02,0,0-0.63-0.04-0.96c-0.88-6.7-0.88-6.7-7.8-6.7c-1.5,0-3.02,0.17-4.49-0.03
	c-3.5-0.5-4.5,0.84-4.43,4.36c0.25,11.32,0.03,22.65,0.21,33.97c0.05,3.15-0.73,4.48-4.13,4.3c-5.81-0.31-11.65-0.2-17.48-0.27
	c-0.12-1.14-0.24-2.28-0.36-3.42c0.27-0.62,0.13-0.95-0.61-0.85c-0.97-0.6-1.98-0.48-3-0.15c-2.22-1.6-0.57-4.07-1.35-5.99
	c0-4.32-0.01-8.65-0.01-12.97c0-4.34,0.01-8.69,0.01-13.03c0-4.32,0-8.64,0-12.96c0-4.35-0.01-8.69-0.01-13.04
	c0-4.32,0.01-8.64,0.01-12.96c0-4.68,0-9.35,0-14.03c0-3.99,0-7.98,0-11.97c0.12-3.33,0.23-6.66,0.35-9.99
	c7.08-0.02,14.17-0.04,21.25-0.05c0.26,1.53,0.51,3.05,0.77,4.58c1.39,0.14,2.78,0.28,4.17,0.42c0.11,8.13,0.28,16.27,0.31,24.4
	c0.05,13.57,0.01,13.48,13.66,13.02c2.54-0.09,3.03-0.91,2.99-3.16c-0.07-3.29-1.07-7.6,0.59-9.62c2.02-2.45,6.52-0.64,9.94-0.87
	c0.17-0.01,0.33-0.01,0.5,0.01c2.17,0.31,2.92-0.64,2.86-2.8C409.89,89.63,409.89,84.31,409.83,78.99z M356.92,121.49
	c-0.01,0-0.01,0-0.02,0c0,13.65-0.01,27.29,0,40.94c0.01,8.34,0.02,8.15,8.59,8.28c3.83,0.06,5.21-0.91,5.1-4.99
	c-0.29-11.14,0-22.3-0.16-33.44c-0.05-3.26,0.96-4.4,4.26-4.26c5.48,0.23,10.98,0.05,16.47,0.05c8.08,0,7.92,0,7.99-8.21
	c0.03-3.4-0.87-4.68-4.45-4.53c-6.48,0.27-12.98-0.12-19.46,0.14c-3.69,0.15-4.92-1-4.82-4.76c0.25-9.48,0.11-18.97,0.12-28.45
	c0-9.47-0.01-9.26-9.47-9.36c-3.77-0.04-4.25,1.45-4.21,4.66C357,92.2,356.92,106.85,356.92,121.49z M426.93,86.81
	c-0.01,0-0.02,0-0.02,0c0-1.5,0-3,0-4.5c0.01-10.04,0.02-9.99-9.85-9.37c-1.97,0.12-3.05,0.43-3.01,2.75
	c0.1,7.33,0.01,14.66,0.02,22c0,1.12-0.26,2.71,1.31,2.77c3.48,0.14,7.24,0.71,10.38-0.36c2.57-0.88,0.84-4.45,1.11-6.8
	C427.13,91.17,426.93,88.98,426.93,86.81z M414.09,156.82c0,1.66,0,3.32,0,4.99c0.01,9.49,0,9.35,9.41,8.74
	c2.95-0.19,3.53-1.35,3.46-3.96c-0.15-5.65-0.35-11.32,0.06-16.94c0.34-4.54-1.05-5.97-5.64-5.75c-7.28,0.35-7.3,0.05-7.3,7.44
	C414.08,153.17,414.08,154.99,414.09,156.82z M413.01,136.54c0.02-7.33,0.02-7.33-4.8-7.35c-7.99-0.03-8.03-0.03-7.99,5.76
	c0.07,9.24-1.06,7.88,6.13,8C412.99,143.07,412.99,142.99,413.01,136.54z M407.96,101.76c-8.94,0.07-7.67-0.56-7.76,6.86
	c-0.06,5.65,0.03,5.16,7.71,5.8c6.3,0.52,4.82-3.32,5.14-6.76C413.46,103.15,412.6,100.31,407.96,101.76z"/>
<path class="st0" d="M269,176.16c-3.18-0.05-4.25-1.32-4.23-4.8c0.18-32.5,0.21-65-0.01-97.49c-0.03-4.38,1.3-5.02,5.25-5
	c23.99,0.15,47.99,0.01,71.99-0.04c2.47,0.96-0.53,5.14,2.2,4.93c4.84-0.37,3.53,2.87,3.96,5.24c0,4,0,7.99,0,11.99
	c0.35,6.17-4.58,3.05-7.16,4.07c-4.66,0.01-9.33,0.01-13.99,0.02c-4,0-8.01,0-12.01,0c-4.66,0-9.33,0-13.99,0
	c-12.58-0.15-10.32-2.43-10.07,9.91c-0.62,6.34-0.62,6.35,5.37,6.34c3.79-0.01,7.59-0.21,11.37-0.02c2.79,0.14,7.07-1.91,6.75,3.97
	c-0.06,1.15,1.55,0.96,2.47,0.91c1.38-0.09,2.19,0.42,2.43,1.79c0,4.34-0.01,8.69-0.01,13.03c-0.07,0.66-0.29,1.35-0.17,1.97
	c0.74,4.07-0.72,5.48-4.97,5.19c-5.96-0.41-11.99,0.17-17.96-0.22c-4.89-0.32-6.79,1.16-5.28,6.04c-0.88,10.18-0.88,10.18,9.11,9.89
	c0.32-0.01,0.65-0.1,0.97-0.15c4.66,0,9.32,0,13.97,0c4.01,0,8.02-0.01,12.03-0.01c4.66,0,9.31,0.01,13.97,0.01
	c2.47-0.08,1.91,1.87,2.19,3.26c0.02,1.04-0.76,2.93,0.94,2.72c4.82-0.58,3.86,2.59,3.88,5.28c0.01,1.66,0.11,3.32,0.17,4.98
	c-0.06,0.99-0.15,1.98-0.16,2.98c-0.06,7.31-0.06,7.31-6.99,7.92c-12.78-0.1-25.56-0.25-38.34-0.3c-9.64-0.04-19.28-0.11-28.91,0.13
	c-3.01,0.08-4.32-0.76-4.14-3.75C269.87,176.36,269.77,176,269,176.16z M268.94,122.11c0,15.16,0.03,30.32-0.03,45.48
	c-0.01,2.42,0.08,4.07,3.31,4.06c21.16-0.08,42.32-0.02,63.48,0.04c2.25,0.01,3.46-0.67,3.24-3.15c-0.13-1.49-0.19-3.02,0.04-4.49
	c0.64-4.2-1.07-5.26-5.19-5.19c-15.82,0.25-31.66-0.01-47.48,0.2c-3.78,0.05-4.9-1.06-4.74-4.78c0.28-6.82,0.26-13.67,0.01-20.49
	c-0.14-3.6,0.72-5.13,4.66-4.85c4.97,0.35,9.99,0.08,14.99,0.09c9.14,0.01,9.01,0.01,8.98-9.33c-0.01-3.14-0.77-4.45-4.17-4.3
	c-6.32,0.28-12.67-0.07-18.99,0.22c-3.92,0.18-5.75-0.68-5.49-5.13c0.38-6.64,0.33-13.33,0.03-19.98c-0.16-3.72,0.92-4.83,4.7-4.78
	c14.66,0.22,29.32,0.09,43.98,0.11c8.97,0.01,8.8,0.03,8.78-9.09c-0.01-3.24-1.15-3.81-4.05-3.79c-20.66,0.11-41.32,0.13-61.98,0
	c-3.25-0.02-4.19,0.9-4.15,4.17C269.03,92.12,268.93,107.11,268.94,122.11z"/>
<path class="st0" d="M231.29,117.01c0.02,4.66,0.05,9.31,0.07,13.97c-0.43,6.9-0.43,6.9-7.4,7.1c-0.32,0.01-0.65,0.1-0.97,0.15
	c-4.33,0-8.65-0.01-12.98-0.01c-8.82-0.41-7.35-0.62-7.02,5.77c-0.4,3-0.48,6,0.04,9c-0.13,0.81,0.32,0.91,0.95,0.76
	c2-0.01,4-0.01,6-0.02c4.01,0,8.02-0.01,12.02-0.01c4.66,0,9.32,0.01,13.98,0.01c4.34,0,8.68,0,13.02,0
	c2.93,0.36,7.18-1.04,6.08,4.64c-0.13,0.68,0.36,1.45,1.08,1.35c5.26-0.72,3.62,3.13,3.85,5.73c0.01,0.17,0.01,0.33,0,0.5
	c-0.34,4.59,1.99,10.8-0.95,13.33c-2.79,2.4-8.81,1.28-13.42,1.3c-20.4,0.1-40.8,0.01-61.2,0.11c-2.24,0.01-3.55-0.3-3.48-2.81
	c0.02-0.62-0.13-1.77-0.28-1.78c-6.62-0.58-3.45-5.68-3.64-8.68c-0.49-7.79-0.24-15.62-0.29-23.43c0-4.34,0-8.68,0-13.03
	c-0.01-4.99-0.02-9.98-0.02-14.97c0.01-3.68,0.02-7.35,0.02-11.03c0-4.66,0-9.32,0-13.97c0-4.01,0-8.02,0-12.02
	c0.06-0.81,0.17-1.62,0.18-2.42c0.09-7.38,0.09-7.38,7.07-7.74c12.67,0,25.34,0,38.02,0c9.63,0.05,19.26,0.13,28.88,0.15
	c2.37,0,4.86-0.37,4.14,3.37c-0.13,0.69,0.18,1.62,0.82,1.55c6.52-0.72,3.49,4.22,4.15,6.94c0.15,0.63,0.04,1.32,0.02,1.99
	c-0.1,3.8,1.11,8.47-0.67,11.16c-1.79,2.7-6.82,0.27-10.35,1.13c-4.34,0-8.67,0-13.01,0c-4.66,0-9.33,0-13.99,0.01
	c-4,0-8.01,0-12.01-0.01c-7.28-0.5-7.29-0.5-7.27,6.5c0.01,2.32,0.17,4.65,0.02,6.96c-0.15,2.25,0.79,2.82,2.89,2.75
	c5.79-0.18,11.58-0.19,17.37-0.26c0.92,0.59,3.08-0.15,2.89,1.09C225.14,116.84,229.2,115.75,231.29,117.01z M180.98,121.93
	c0,14.66,0.15,29.33-0.09,43.99c-0.07,4.33,0.75,5.98,5.6,5.9c18.99-0.32,37.99-0.13,56.98-0.14c7.55,0,7.35-0.02,7.61-7.77
	c0.12-3.76-0.72-5.13-4.83-5.06c-16.16,0.25-32.32,0.07-48.49,0.12c-2.41,0.01-4.15-0.06-4.07-3.32c0.19-7.83,0.13-15.66,0.04-23.49
	c-0.03-2.37,0.78-3.22,3.18-3.16c5.33,0.14,10.66,0.04,15.99,0.04c9.57,0,9.4,0,9.34-9.52c-0.02-3.45-1.31-4.23-4.4-4.16
	c-6.66,0.15-13.33-0.13-19.99,0.11c-3.36,0.12-4.25-1.06-4.16-4.26c0.2-6.99,0.24-14-0.02-20.99c-0.13-3.49,0.91-4.51,4.44-4.47
	c14.83,0.2,29.66,0.09,44.49,0.08c8.43-0.01,8.27-0.03,8.47-8.42c0.08-3.42-0.75-4.55-4.35-4.52c-20.49,0.17-40.99,0.17-61.48-0.01
	c-3.63-0.03-4.38,1.17-4.34,4.54C181.07,92.27,180.97,107.1,180.98,121.93z"/>
<path class="st0" d="M130.53,267.87c0.46-2.93,3.95-6.92-2.58-7.42c2.89-0.14,6.68,1.38,6.52-3.99c-0.05-1.52,1.52-2.07,2.97-2.02
	c1.78,0.06,2.71-0.53,2.91-2.49c0.19-1.8,1.52-3.06,3.34-3.19c2.41-0.16,2.47-1.64,2.46-3.44c-0.05-5.49-0.09-10.99,0-16.48
	c0.04-2.4-0.01-4.3-3.29-3.95c-1.51,0.16-2.68-0.92-2.56-2.44c0.23-2.89-1.02-3.8-3.72-3.6c-1.07,0.08-2.16-0.79-2.09-1.76
	c0.28-3.66-1.59-4.49-4.75-4.19c-1.25,0.12-1.77-1.17-1.82-2.03c-0.26-4.06-2.98-3.94-5.92-3.84c-3.66,0.12-7.33-0.05-10.98,0.07
	c-2.81,0.09-6.67-1.37-6.46,3.96c0.02,0.55-1.43,1.66-2.2,1.66c-2.76,0-2.75,2.07-3.92,3.72c-2.12,3-6.47,4.19-7.55,8.38
	c-0.04,0.16-0.94,0.15-1.43,0.12c-2.21-0.12-3.66,0.68-3.35,3.11c0.27,2.18,1.42,3.73,3.86,3.73c2.99,0,5.98-0.1,8.98-0.16
	c3.91,0.37,7.81,0.47,11.71-0.07c1.8,1.04,2.33,2.64,2.19,4.62c-0.05,0.79,0.08,2.26,0.69,2.1c5.56-1.44,6,2.2,6.4,6.09
	c0.1,0.95,1.14,1.16,1.97,1.14c4.32-0.11,4.47,3.03,4.69,6.04c0.22,2.93-0.7,5.95,0.75,8.77c-1.38,0.77-2.91,0.51-4.38,0.7
	c-3.64,0.49-4.72-1.21-4.41-4.55c0.18-1.98-0.11-4,0.06-5.98c0.23-2.7-0.6-4.15-3.54-3.75c-2.66,0.37-3.67-0.89-3.33-3.44
	c0.34-2.54-0.65-3.55-3.32-3.49c-7.15,0.14-14.3,0.14-21.45,0c-2.47-0.05-3.31,0.85-2.99,3.16c0.36,2.6-0.34,4.25-3.41,3.75
	c-2.84-0.46-3.75,0.77-3.62,3.59c0.21,4.48-0.06,8.98,0.09,13.46c0.08,2.44-0.42,3.87-3.21,3.43c-3.2-0.5-4.2,1.12-3.77,4.01
	c0.39,2.63-1.07,2.95-3.22,2.92c-4.65-0.07-9.31,0.21-13.96,0.05c-2.67-0.09-3.36,0.9-3.41,3.44c-0.11,5.78,0.66,11.59-0.44,17.35
	c-6.74,0.05-6.68,0.05-6.65-6.9c0.04-7.8-0.06-15.6-0.03-23.4c0.01-2.39-0.37-4.08-3.35-3.04c-2.45-0.37-4.9-0.51-7.35,0.1
	c-1.84-2.17,0.25-7.9-5.73-6.34c-0.83-3.67-2.31-6.66-6.81-6.46c-0.25-4.02-1.13-8.08,0.55-12.01c0.45-0.12,0.89-0.24,1.34-0.35
	c1.14,0.11,2.41,0.87,3.25-0.61c0.6-0.6,0.51-1.29,0.29-2.01c0.12-0.99,0.24-1.97,0.36-2.96c2.96-0.18,6.71,0.72,5.76-4.53
	c-0.24-1.31,0.86-1.56,1.93-1.55c2.8,0.02,5.6,0.03,8.4,0.06c0.32,0,0.91,0.1,0.92,0.19c0.35,5.33,7.82,5.41,7.99,10.84
	c1.23,1.7,3.23,0.3,4.67,1.14c0.28,1.32,0.56,2.64,0.84,3.96c-0.08,1.82-0.19,3.64-0.24,5.46c-0.03,1.23-0.24,2.77-1.55,2.74
	c-3.29-0.08-4.54,1.55-5.01,4.51c-0.21,1.3-1.42,1.68-2.72,1.6c-1.24-0.08-2.5,0.11-2.4,1.73c0.1,1.63,1.33,2.07,2.81,2.18
	c1.63,0.13,4.26-0.81,3.89,2.22c-0.6,4.92,2.31,4.81,5.72,4.65c3.49-0.16,6.99-0.23,10.47-0.01c2.74,0.17,3.84-0.58,3.66-3.51
	c-0.24-3.98,0.1-7.99-0.1-11.97c-0.17-3.39,0.5-5.61,4.55-5.1c0.94,0.12,2.59,0.09,2.26-1.12c-0.99-3.66,1.98-5.69,3.01-8.5
	c0.05-2.27,0.34-4.57,0.09-6.82c-0.44-3.98,1.01-5.86,5.1-5.43c0.69,0.21,0.92-0.08,0.78-0.74c-0.16-3.04,0.86-5.06,4.3-5.02
	c0.84,0.01,1.91-0.06,1.77-1.15c-0.49-3.84,1.66-4.84,4.88-4.94c1.15-0.04,1.24-1.02,1.12-1.82c-0.43-2.92,1.45-3.71,3.71-4.01
	c1.22-0.16,2.45-0.11,2.26-1.8c-0.49-4.35,2.3-4.32,5.36-4.26c4.81,0.11,9.63,0.15,14.45,0.02c3.6-0.09,6.36,0.3,5.53,5.05
	c-0.2,1.16,1.05,0.86,1.83,0.78c4,2.15,5.67,6.82,9.84,9.07c0.92,0.49,1.46,3.11,3.9,3.36c1.35,0.14,2.8,0.98,2.46,3.02
	c-0.21,1.3-0.27,2.78,1.8,2.68c3.72,0.64,4.45,2.89,4.19,6.43c-0.37,5.12-0.06,10.29-0.07,15.43c0,0.99-0.13,1.98-0.2,2.96
	c-5.68-1.37-5.86,5-9.24,7.12c-2.91,1.83-7.2,4.69-8.14,8.59C134.7,268.04,133.41,268.55,130.53,267.87z M31.4,236.8
	c-0.34,0.06-0.55,0.25-0.62,0.59c-3.57,0.19-5.78,1.31-4.99,5.64c0.48,2.63-0.78,5.82,3.65,6.14c0.78,0.06,2.05,1.65,2.06,2.54
	c0.05,5.21,3.96,3.19,6.47,3.57c2.5,0.37,4.65-0.01,4.69-3.39c0.02-1.4,1-2.73,2.34-2.93c5.51-0.84,2.53-5.11,3.35-7.83
	c0.98-3.25-1.56-3.02-3.41-3.75c-0.95-0.38-2.02-1.49-2.27-2.47c-1.39-5.54-5.66-2.32-8.54-2.75C30.44,231.6,32.47,235.3,31.4,236.8
	z"/>
<path class="st0" d="M62.85,169.22c0.64,0.64,1.37,0.56,2.13,0.28c1.03,0.79,2.05,1.57,3.08,2.36c0.17,1.64-0.65,3.8,2.36,3.79
	c2.09-0.01,3.5,1.39,3.55,3.32c0.07,2.98,1.79,2.52,3.62,2.22c0.34,1.42,2.67,1.02,2.59,2.82c0,3.99,0,7.99,0,11.98
	c-0.07,2.94-0.12,5.87-4.47,5.14c-0.89-0.15-1.44,0.36-1.68,1.35c-1.1,4.51-7.29,5.35-7.65,10.47c-0.01,0.11-0.92,0.16-1.41,0.24
	c-0.67,0.02-1.33,0.05-2,0.07c-0.62-0.12-0.91,0.04-0.63,0.72c0.39,4.09-1.51,5.59-5.48,5.08c-1.59-0.2-3.25,0.07-4.88,0.12
	c-2.14-0.05-4.27-0.15-6.41-0.15c-2.26-0.01-3.67-1.15-3.13-3.32c1.03-4.18-1.8-2.42-3.48-2.5c-1.91-4.45-8.42-4.91-8.99-10.76
	c-0.26-2.72-4.15-0.18-5.29-2.46c-0.04-5.65-0.08-11.29-0.12-16.94c0.12-0.48,0.24-0.96,0.37-1.45c1.8-0.84,5.31,1.06,5.47-1.6
	c0.32-5.27,3.18-4.78,6.64-4.06c-0.25,2.11-0.49,4.22-0.74,6.33c-3.57-0.19-5.05,1.3-4.63,5.02c0.33,2.95,0.09,5.97,0.06,8.96
	c-0.02,2.06,0.1,3.23,2.86,4.04c3.6,1.05,4.11,6.76,8.72,7.32c0.08,0.01,0.17,0.63,0.12,0.94c-0.46,3.53,1.75,3.61,4.31,3.5
	c2.65-0.11,5.32-0.08,7.97-0.02c2.95,0.07,5.91,0.3,5.53-4.13c-0.1-1.21,0.78-1.88,1.91-1.74c2.94,0.36,4.34-0.66,4.04-3.79
	c-0.1-1.06,0.85-2.16,1.79-2.07c4.94,0.48,4.02-2.97,4.04-5.79c0.02-2.99-0.04-5.98-0.03-8.97c0-1.6-0.2-2.56-2.25-3.06
	c-4.34-1.07-6.2-5.67-8.99-8.5c-1.89-1.92-2.89-3.28-5.55-3.21c-2.66,0.06-5.35,0.29-7.97-0.04c-3.71-0.46-5.25,0.97-4.99,4.59
	c-2.1,0.24-4.21,0.48-6.32,0.71c-0.73-2.02-0.45-4,0.21-5.97c0.37,0.05,0.66-0.08,0.86-0.39c2.55,0.44,4.62-0.02,4.94-3.05
	c0.28-2.7,1.97-2.94,4.14-2.83c1.63,0.08,3.27-0.12,4.91-0.19c2.83,1.17,5.39-1.04,8.16-0.65c0.29,0.26,0.59,0.53,0.88,0.79
	c0,0,0.18,0.18,0.18,0.18c0.26,0.29,0.53,0.59,0.79,0.88c0.19,1.41,0.37,2.83,0.56,4.24c0,0-0.03,0.37-0.03,0.37L62.85,169.22z"/>
<path class="st0" d="M143.02,297.95c1.67,2.36,0.57,7.2,5.88,6.37c0.83-0.13,1.32,1.35,1.18,2.42c-0.3,2.36,0.66,3.26,3.07,3.13
	c3.84-0.2,2.51,3.04,3.1,5c-0.19,2.66-0.37,5.31-0.56,7.97c-3.19-0.41-6.56-1.05-5.47,4.17c-4.89,0.62-6.48,4.12-7.26,8.33
	c-3.75,0.32-7.27-1.14-10.95-1.37c-0.87-2.28-0.17-4.86-4.51-5.55c-2.43-0.39-3.98-5.79-7.73-7.79c-1.21-0.64-1.36-7,0.12-8.26
	c3.13-2.65,5.03-6.75,8.79-8.33c1.82-0.76,3.01-0.85,2.34-3.05c0.17-0.68,0.34-1.37,0.51-2.05
	C135.21,296.92,139.2,298.36,143.02,297.95z M131.86,309.99c-0.29,0.24-0.58,0.49-0.87,0.73c-3.21-0.18-4.96,0.88-4.49,4.54
	c0.38,2.99-0.81,6.58,3.89,7.27c0.65,0.1,1.62,1.02,1.68,1.63c0.38,3.91,3,4.15,6.06,4.21c3.11,0.06,5.06-0.85,5.44-4.28
	c0.08-0.77,1.24-1.93,2.01-2.03c5.53-0.7,2.88-4.93,3.47-7.73c0.64-3.02-1.16-3.42-3.62-3.69c-1.62-0.18-1.96-2.06-2.29-3.5
	c-0.22-0.96-0.19-1.78-1.48-2.19C136.86,303.43,132.98,305.35,131.86,309.99z"/>
<path class="st0" d="M413,41.02c2.39,0.37,3.13,1.84,3.04,4.14c-0.1,2.6,0.08,5.22,0.14,7.83c-0.08,0.82,0.04,2.27-0.25,2.35
	c-4.18,1.23-5.33,5.77-8.55,7.77c-4.41,2.75-6.32,9.78-13.39,8.06c-7.11,1.71-9.42-5.03-13.93-7.91c-3.15-2.01-3.86-6.55-8.04-7.65
	c-1.04-0.27-0.75-12.7,0.34-13.49c4.34-3.17,7.91-7.01,11.22-11.24c1.91-2.44,4.67-3.98,8.29-3.35c1.57,0.28,3.59,1.04,5.11-0.6
	c3.89-1.82,3.93,2.48,5.63,3.85C406.39,33.81,409.57,37.57,413,41.02z M411.07,49.64c-0.24-3.53,0.28-5.92-2.76-8.36
	c-2.67-2.14-5.45-4.63-7.82-7.3c-2.3-2.59-10.66-3.48-13.07-1.09c-2.69,2.67-5.32,5.41-7.8,8.27c-4.86,5.6-4.14,13.21,1.57,17.69
	c0.6,0.47,1.48,0.31,2.05,1.16c4.68,6.97,10.59,7.55,17.83,3.6c2.84-1.54,3.67-4.18,5.94-5.9
	C409.42,55.88,412.97,53.26,411.07,49.64z"/>
<path class="st0" d="M298.59,348.87c0.06-3.11-4.1,0.14-4.18-2.77c-4.54,0.53-3.65-5.69-7.7-6.1c-2.18-0.22-0.16-3.09-1.68-4.11
	c-0.54-2.3-0.52-4.61-0.05-6.92c1.72-3.35,4.84-5.19,7.62-7.5c2.31-1.92,5.98-4.5,6.25-6.28c0.62-4.1,2.76-3.31,5.12-3.38
	c2.32-0.07,4.64-0.15,6.96-0.23c1.61,0.52,2.32,1.63,2.26,3.32c-0.04,1.18,0.52,1.82,1.8,1.51c0.59,0.07,1.18,0.14,1.76,0.21
	c1.91,4.62,5.66,7.34,9.89,9.55c0.19,0.94,0.38,1.88,0.56,2.82c-0.06,2.49-0.15,4.98-0.16,7.47c-0.01,1.98,0.47,4.18-2.79,3.83
	c-1.13-0.12-1.1,0.91-1.24,1.72c-0.51,2.94-2.46,3.55-5.06,3.05c0.24-1.59-0.28-4.19,1.52-4.34c4.53-0.37,3.5-3.42,3.52-6.02
	c0.04-4.31,0.63-8.09-4.49-11.27c-4.5-2.79-7.28-7.81-13.9-6.91c-3.32,0.45-5.74,0.63-5.85,4.57l-0.03,0.03
	c-3.97-1.15-3.58,4.28-6.56,4.39c-2.48,0.1-2.5,1.59-2.47,3.36c0.03,2.33-0.01,4.66,0,6.99c0.01,2.1,0.61,3.22,2.58,4.88
	C294.66,342.71,298.72,344.54,298.59,348.87z"/>
<path class="st0" d="M62.99,301.93c10.26-0.05,20.52-0.18,30.77-0.1c2.83,0.02,4.54-0.48,4.01-3.76c-0.44-2.7,0.89-3.41,3.39-3.27
	c3.63,0.2,7.27,0.12,10.9,0.16c-0.02,2.01-0.03,4.03-0.05,6.04c-2.08,2.01-4.75,0.35-7.02,1.14c-3.21-0.3-6.73-1.48-6.21,4.22
	c0.25,2.74-2.46,2.52-4.46,2.53c-9.77,0.06-19.55,0.13-29.32,0.2C61.31,307.56,63.87,304.26,62.99,301.93z"/>
<path class="st0" d="M173.17,52.99c-0.19,3.23-2.51,1.93-4.2,1.97l0.08,0.08c-0.01-1.66-0.03-3.31-0.05-4.97
	c-0.03-2.24,0.64-4.82-3.06-4.89c-1.3-0.03-1.41-1.6-2.09-2.45c-2.25-2.81-5.49-1.01-8.26-1.18c-2.19-0.13-1.33,2.15-1.57,3.48
	l-0.01,0.01c-3.97-0.2-5.65,1.52-4.93,5.58c0.25,1.42-0.04,2.94-0.09,4.42c-1.3-0.03-2.6-0.06-3.9-0.1
	c-0.07-1.32-0.13-2.63-0.2-3.95c0.2-1.59,0.41-3.19,0.61-4.78c3.57-2.1,7.27-3.93,8.85-8.31c0.81-2.26,8.47-2.38,9.24-0.12
	c1.38,4.08,5.23,5.17,8.05,7.45C174.51,47.56,172.05,50.55,173.17,52.99z"/>
<path class="st0" d="M111.96,295.05c-0.88-6.07,0.14-12.16-0.22-18.23c-0.13-2.2,0.87-2.92,2.95-2.77c1.8,0.13,3.62,0.05,5.43,0.07
	c-0.53,4.95-2.15,9.81-1.12,14.88c0.14,2.11,0.14,4.19-1,6.09C115.98,295.08,113.97,295.06,111.96,295.05z"/>
<path class="st0" d="M366.76,24.1c0.08,0.63,0.16,1.27,0.23,1.9c-0.47,5.94-6.77,12.15-13,12.8c-2.82-2.51-4.11-6.43-8.4-7.74
	c-1.55-0.47-0.68-3.94-0.57-6.01c0.13-2.38,2.41-0.8,3.54-1.49c0.13,1.47,0.27,2.93,0.4,4.4c0.36,4,2.61,6.28,6.53,6.47
	c7.28,0.35,10.33-5.2,6.9-12.27c0.49,0.05,0.98,0.11,1.47,0.16C363.83,24.53,365.79,23.51,366.76,24.1z"/>
<path class="st0" d="M63.04,302.06c-3.35,0.03-6.7,0.06-10.05,0.08c-1.3-0.44-2.94,0.3-3.94-1.15c-0.04-2.01-0.08-4.03-0.12-6.04
	c2.48-0.04,4.97-0.12,7.45-0.12C63.57,294.84,63.57,294.86,63.04,302.06z"/>
<path class="st0" d="M154.04,63.89c-0.03-1.31-0.06-2.62-0.09-3.94c3.37,0.03,6.73,0.06,10.1,0.09l-0.09-0.09
	c1.09,5.25-2.43,5.28-5.97,5.28C156.67,64.79,155.35,64.34,154.04,63.89z"/>
<path class="st0" d="M124.59,273.91c0.1-1.66-0.31-3.61,0.44-4.9c0.75-1.3,2.2-3.91,4.44-1.12
	C128.33,270.3,130.56,275.42,124.59,273.91z"/>
<path class="st0" d="M351.12,19.84c0.68-1.32,0.65-3.28,2.89-3.19c1.92,1.09,5.29-1.61,6.13,2.34c-0.05,0.33-0.1,0.67-0.16,1
	C357.03,19.94,354.08,19.89,351.12,19.84z"/>
<path class="st0" d="M537.01,68.82c18.79,0.06,37.59,0.1,56.38,0.17c2.32,0.01,4.91-0.89,4.76,3.41c-0.12,3.25,3.21,0.73,4.69,1.67
	c0.1,1.65,0.2,3.29,0.3,4.94c-0.98,3.55,0.85,4.36,3.87,3.91c3.2-0.48,5.44,0.2,5.15,4.09c-0.11,0.69,0.19,0.89,0.82,0.68
	c1,0.02,2.01,0.04,3.01,0.06c1.42,1.17,0.76,2.77,0.77,4.18c0.07,6.63,0.12,13.26,0.03,19.88c-0.05,3.61,1.44,8.09-0.7,10.58
	c-2.05,2.39-6.56,0.5-9.97,0.85c-1.17,0.12-3.1-0.66-3.07,1.39c0.04,2.42,2.19,1.27,3.42,1.4c2.58,0.28,6.1-1.06,5.47,3.81
	c-0.1,0.79,0.51,1.26,1.24,1.15c4.51-0.64,3.58,2.57,3.64,5.08c0.07,2.64,0.15,5.29,0.22,7.93c0,4.66,0,9.33,0.01,13.99
	c0,4,0,8,0,12.01c-0.08,2.14-0.39,4.31-0.18,6.42c0.32,3.22-0.75,4.47-4.09,4.28c-4.62-0.26-9.26-0.08-13.88-0.15
	c-1.06-0.02-2.91,0.41-2.79-1.13c0.41-5.35-3.48-3.32-5.96-3.74c-0.11-1.9-0.22-3.79-0.33-5.69c0-4.33,0-8.65,0-12.98
	c0-4.34,0-8.68,0-13.02c0-1.67,0-3.33,0-5c0.15-0.67-0.1-0.94-0.78-0.77c-4,0-8,0.01-12,0.01c-4.49-0.07-9,0.09-13.47-0.27
	c-3.54-0.28-4.49,0.9-4.41,4.4c0.24,11.15-0.08,22.32,0.24,33.47c0.12,4.09-1.26,5.16-5.04,4.82c-3.47-0.31-7.02-0.42-10.48-0.05
	c-3.59,0.38-5.39-0.92-5.89-4.35c-0.32-0.09-0.63-0.17-0.95-0.26c-2.36-0.02-3.4-0.92-3.4-3.56c0.09-33.42,0.1-66.83-0.01-100.25
	C533.59,69.42,534.66,68.72,537.01,68.82z M537.73,122.05c0.01,0,0.01,0,0.02,0c0,14.99,0.09,29.97-0.07,44.96
	c-0.04,3.38,0.82,5.02,4.4,4.58c1.15-0.14,2.35-0.14,3.49,0.03c3.79,0.59,4.84-0.99,4.76-4.7c-0.22-11.32,0.09-22.65-0.18-33.96
	c-0.1-4.06,1.27-5.04,5.11-4.97c11.65,0.22,23.31,0.02,34.96,0.13c2.67,0.02,4.14-0.56,3.74-3.56c-0.17-1.31-0.19-2.68,0-3.99
	c0.61-4.23-1.2-5.36-5.3-5.26c-11.32,0.28-22.64,0.03-33.96,0.23c-3.44,0.06-4.68-0.93-4.54-4.5c0.27-6.82,0.29-13.66,0.02-20.47
	c-0.15-3.67,0.86-4.93,4.69-4.83c10.32,0.26,20.64,0.09,30.97,0.08c8.16-0.01,7.94-0.02,8.17-8.19c0.1-3.72-0.91-4.78-4.67-4.72
	c-15.65,0.22-31.3,0.22-46.95,0.03c-3.65-0.04-4.81,0.85-4.75,4.67C537.87,92.41,537.73,107.23,537.73,122.05z M594.96,150.38
	c0,4.32,0,8.65,0,12.97c0.01,8.5,0.01,8.31,8.46,8.37c3.61,0.03,4.47-1.26,4.4-4.63c-0.19-9.64-0.05-19.28-0.06-28.93
	c-0.01-9.39-0.02-9.24-9.32-9.11c-3.05,0.04-3.58,1.26-3.52,3.87C595.05,138.74,594.96,144.56,594.96,150.38z M574.31,111.33
	c0-0.01,0-0.03,0-0.04c4.64,0,10.08,1.52,13.73-0.38c4.74-2.47,0.83-8.59,1.9-12.98c0.04-0.16-0.01-0.33,0.01-0.5
	c0.23-1.9-0.55-2.62-2.51-2.6c-8.46,0.07-16.91,0.08-25.37,0c-2.15-0.02-2.71,0.8-2.87,2.9c-1.03,13.61-1.08,13.6,12.62,13.61
	C572.66,111.33,573.49,111.33,574.31,111.33z M607.78,100.43c0-1.5-0.01-2.99,0-4.49c0.04-9.64,0.05-9.55-9.73-9.06
	c-2.35,0.12-3.18,0.77-3.13,3.14c0.13,5.31,0.03,10.63,0.03,15.95c0,8.43,0.01,8.28,8.37,8.34c3.38,0.03,4.85-0.82,4.5-4.43
	C607.54,106.77,607.77,103.59,607.78,100.43z"/>
<path class="st0" d="M459,317.03c-6.75,1.58-10.11-3.73-14.43-7.09c0.07-11.66,0.15-23.31,0.21-34.97
	c0.11-23.32,0.2-46.64,0.3-69.95c0.32,0.03,0.63-0.03,0.92-0.18c4.34,0,8.68,0,13.02,0c2.35,0.9,6.77-1.17,6.95,1.32
	c0.32,4.45,3.26,3.51,5.49,4.38c-0.34,12-0.56,24,0.09,35.99c10.01,2.16,20.08,1.01,30.13,0.45c0.63-3.65,0.33-7.32,0.15-10.98
	c0-4.34,0-8.68,0-13.02c0.06-0.83,0.11-1.65,0.17-2.48c0.35-5.08-2.24-12.06,0.98-14.72c3.09-2.55,9.81-0.63,14.93-0.8
	c2.96-0.09,5.75-0.35,5.14,4.11c-0.14,1.04,1.14,0.84,1.94,0.72c2.78-0.17,4.07,0.63,3.94,3.9c-0.3,7.47-0.1,14.97-0.08,22.45
	c0.07,26.27,0.15,52.55,0.22,78.82c-0.52,2.37-2.66,1.48-4.08,2.03c-4.67,0-9.34,0-14.01,0c-1.36-0.76-3.85,0.83-4.21-2.02
	c-0.06-1.16,0.95-3.23-1.18-3c-4.61,0.49-3.6-2.58-3.61-5.05c-0.02-9.81-0.02-19.61,0.01-29.42c0.01-2.1,0.23-4.25-3.02-3.21
	c-4.66,0-9.32,0.01-13.98,0.01c-3.32-0.08-6.65,0.02-9.94-0.28c-3.2-0.29-3.91,1.05-3.85,4c0.16,8.8,0.08,17.61,0.05,26.42
	c-0.01,3.81,1.26,8.6-0.56,11.18c-2.21,3.14-7.4,0.45-11.22,1.26C459.32,316.96,459.16,316.99,459,317.03z M448.84,258.08
	c-0.01,0-0.01,0-0.02,0c0,13.83-0.01,27.66,0,41.48c0.01,8.33,0.03,8.03,8.09,8.37c4.56,0.2,5.62-1.4,5.52-5.62
	c-0.25-10.82,0.05-21.66-0.16-32.48c-0.07-3.74,1.11-4.83,4.84-4.76c11.49,0.23,22.99,0.2,34.48,0.02c3.42-0.05,4.58,0.91,4.5,4.46
	c-0.23,10.32-0.08,20.66-0.07,30.99c0,7.21,0.02,6.93,7.07,7.35c4.63,0.28,5.85-1.21,5.82-5.78c-0.2-28.32-0.1-56.64-0.09-84.96
	c0-8.2,0.02-8-8.16-8.13c-3.64-0.06-4.83,0.82-4.73,4.66c0.28,11.15-0.05,22.32,0.17,33.48c0.07,3.54-1.05,4.53-4.47,4.49
	c-11.83-0.15-23.66-0.13-35.48,0.07c-3.32,0.06-3.86-1.43-3.83-4.2c0.09-9.83,0.04-19.66,0.05-29.49c0-9.01,0-8.83-8.81-9.05
	c-3.63-0.09-4.86,0.74-4.79,4.62C448.98,228.42,448.84,243.25,448.84,258.08z"/>
<path class="st0" d="M590,317.03c-4.33-0.4-8.66-0.4-12.99,0.01c-4.34,0-8.67,0-13.01-0.01c-4.33-0.4-8.66-0.41-12.99,0
	c-0.66-0.07-1.31-0.2-1.97-0.21c-8.31-0.16-11.43-3.35-11.43-11.74c0-31.38-0.01-62.77,0.01-94.15c0-1.98,0.26-3.95,0.39-5.92
	c4.33-0.05,8.65-0.11,12.98-0.16c4.34,0,8.68,0,13.02,0c4.66,0,9.32,0,13.99,0c12.62,0.16,25.24,0.31,37.86,0.47
	c-0.99,4.19,1.21,5.21,4.81,4.85c0.11,3.95,0.23,7.9,0.34,11.84c-0.79,8.98-0.79,8.96-10.02,8.99c-6.99,0.02-13.99,0.1-20.98,0.15
	c-4,0-8.01,0-12.01,0c-4.66,0.03-9.32,0.07-13.98,0.1c-1.79,4.07-0.32,8.37-0.87,12.52c-0.43,3.22,1.03,3.89,3.96,3.86
	c6.64-0.07,13.28,0.2,19.91,0.32c0.15,2.08-0.9,4.91,3.06,4.49c1.89-0.2,1.95,1.24,1.95,2.66c0.01,2.63,0.1,5.26,0.15,7.9
	c-0.06,3.66-0.12,7.32-0.18,10.99c-0.66,0.12-1.32,0.23-1.97,0.35c-4.01,0-8.02,0-12.03-0.01c-4.65,0.05-9.3,0.1-13.96,0.15
	c-1.75,4.08-0.6,8.29-0.61,12.45c0,0.68-0.01,1.37-0.01,2.05c-0.66,2.22,0.93,1.99,2.21,1.99c4.12-0.02,8.24-0.09,12.36-0.14
	c4,0,8,0,12.01-0.01c6.58,0.06,13.17,0.04,19.75,0.23c2.68,0.08,6.79-1.68,6.2,3.88c-0.03,0.29,0.64,0.96,0.89,0.92
	c4.59-0.83,3.84,2.59,4.17,5.16c-0.44,4.67-0.44,9.33,0,14c-0.82,2.77-3.34,1.34-5,2.03c-4,0-8,0-11.99,0
	C599.33,317.03,594.67,317.03,590,317.03z M541.67,258.01c0,15,0.08,29.99-0.06,44.98c-0.03,3.48,0.67,4.95,4.65,4.91
	c20.16-0.21,40.32-0.31,60.48,0.03c6.9,0.11,4.4-4.47,4.93-7.74c0.66-4.11-0.96-5.32-5.14-5.26c-15.99,0.25-31.99,0.05-47.98,0.16
	c-3.02,0.02-4.55-0.52-4.42-4.05c0.25-7.32,0.19-14.66,0.02-21.99c-0.07-3.08,1.1-4.09,4.08-3.99c5.16,0.17,10.33,0.06,15.49,0.06
	c9.49,0.01,9.31,0,9.38-9.42c0.03-3.44-1.19-4.16-4.3-4.07c-6.66,0.18-13.33-0.1-19.99,0.06c-3.32,0.08-4.82-0.78-4.69-4.46
	c0.26-6.99,0.26-14,0-20.99c-0.14-3.62,1.23-4.42,4.59-4.38c14.99,0.16,29.99,0.15,44.98,0.05c9.2-0.06,7.72,1.62,8.11-8.28
	c0.16-3.93-1.27-4.66-4.85-4.64c-20.33,0.15-40.65,0.15-60.98-0.02c-3.6-0.03-4.42,1.16-4.38,4.55
	C541.76,228.35,541.66,243.18,541.67,258.01z"/>
<path class="st0" d="M682.71,78.98c0.55-10.06,0.55-10.06,10.65-10.02c2.5,0.01,5-0.03,7.49,0.04c1.06,0.03,2.89-0.4,2.74,1.23
	c-0.47,4.83,2.72,3.76,5.4,3.67c1.4,1.5,0.13,3.48,0.92,5.09c-0.5,4-0.5,8,0,12.01c-0.43,4.66-0.42,9.33,0.01,13.99
	c-0.5,4.34-0.5,8.67,0.01,13c-0.78,1.69,0.38,3.71-0.94,5.3c-4.34,0.03-8.68,0.06-13.02,0.1c-0.64-0.3-0.86-0.06-0.76,0.59
	c-0.58,2.32-0.37,4.66-0.13,7c-0.05,2.27-0.11,4.54-0.16,6.81c-4.31,0.15-8.62,0.29-12.93,0.44c-0.67-0.17-0.95,0.06-0.79,0.76
	c-0.07,12.42-0.28,24.85-0.12,37.27c0.04,3.53-0.99,4.62-4.44,4.37c-3.79-0.27-7.63,0.16-11.43-0.05c-2.63-0.15-6.93,1.89-6.31-3.85
	c0.03-0.26-0.65-0.9-0.93-0.86c-5.23,0.72-3.58-3.34-4.11-5.87c0-4,0-8.01,0-12.01c0-4.66,0-9.32,0.01-13.99
	c1-4.46-0.17-6.94-5.31-5.96c-2.87,0.55-3.83-0.82-3.47-3.57c0.18-1.4-0.02-2.77-2.09-2.18c-1.03-0.4-2.46,0.14-3.05-1.3
	c0.5-7.26,0.5-7.26-6.63-7.78c-0.8-0.06-7.77-6.92-7.85-7.73c-0.02-0.17-0.01-0.33-0.01-0.5c0.02-14.3,0.08-28.6,0.01-42.9
	c-0.01-2.35,0.62-3.22,3.09-3.15c4.48,0.14,8.97-0.07,13.46-0.13c2.39,0.44,6.13-0.96,5.24,3.92c-0.14,0.76,0.58,1.27,1.26,1.16
	c4.48-0.75,3.62,2.43,3.63,4.91c0.03,9.6,0.12,19.19-0.03,28.79c-0.04,2.72,0.59,3.91,3.53,3.74c4.44-0.27,8.91-0.21,13.36-0.29
	c2.61,0.09,5.22,0.24,7.83,0.25c6.29,0.05,6.29,0.02,5.89-6.31c0-4.66,0-9.32,0-13.98C682.72,87,682.72,82.99,682.71,78.98z
	 M658.06,150c0,3.33,0,6.66,0,9.99c0,1,0,2,0,3c-0.01,8.85,0,8.64,8.67,8.74c3.79,0.05,4.33-1.49,4.28-4.71
	c-0.15-10.32-0.05-20.65-0.06-30.97c0-7.98-0.01-7.98,7.76-7.99c7.25-0.01,7.25-0.01,7.2-7.05c0-0.33-0.05-0.67,0-1
	c0.61-3.82-1.13-4.78-4.77-4.7c-10.32,0.22-20.66,0.32-30.97-0.04c-4.83-0.17-6.35,1.26-6.05,6.11c0.48,7.71-0.76,6.56,6.67,6.69
	c1.17,0.02,2.35,0.14,3.49-0.02c3.19-0.44,3.93,1.03,3.83,3.98C657.92,138.01,658.06,144.01,658.06,150z M699.7,93.47
	c0-3.98,0.01-7.96,0-11.94c-0.02-8.7-0.02-8.56-8.62-8.61c-3.17-0.02-4.29,0.8-4.21,4.12c0.22,9.45,0.1,18.91,0.09,28.37
	c0,9.37-0.02,9.27,9.31,8.92c2.55-0.1,3.53-0.81,3.46-3.43C699.6,105.09,699.7,99.28,699.7,93.47z M629.65,93.05
	c-0.01,0-0.01,0-0.02,0c0,4-0.01,8,0,12c0.03,9.58,0.03,9.46,9.62,9.29c3.02-0.05,4-0.89,3.94-3.99c-0.2-9.33-0.08-18.66-0.08-27.99
	c0-9.74,0-9.64-9.81-9.43c-2.72,0.06-3.83,0.71-3.72,3.63C629.8,82.05,629.65,87.55,629.65,93.05z"/>
<path class="st0" d="M411.23,249.01c0,4.66,0.01,9.32,0.01,13.98c0,4.01-0.01,8.01-0.01,12.02c0,4.66,0,9.32,0,13.98
	c0,4.01,0,8.01,0,12.02c0,4.66,0,9.32,0,13.98c-0.71,3.33-3.6,1.06-5.23,2.04c-4,0-8,0-11.99,0c-1.44-0.51-3.58,0.37-4.07-2.03
	c0.02-1.17,1-3.15-1.06-3c-4.43,0.32-3.58-2.6-3.65-5.12c-0.05-1.96-0.16-3.91-0.25-5.87c0.41-12.67,0.43-25.34-0.01-38.01
	c0.43-4.66,0.42-9.33,0.01-13.99c0.09-4.96,0.04-9.93,0.33-14.89c0.16-2.76-0.95-3.33-3.42-3.22c-4.63,0.21-9.27,0.18-13.9,0.25
	c-2.39-0.87-7.03,1.8-6.33-4.02c0.04-0.3-0.6-0.99-0.88-0.97c-6.02,0.51-3.45-4.07-3.99-6.75c-0.16-0.8-0.05-1.66-0.02-2.49
	c0.13-3.8-1.06-8.55,0.78-11.11c1.79-2.5,6.86-0.26,10.43-0.96c21.34,0,42.68,0,64.01,0c1.03,0.47,3.15-0.42,2.86,1.68
	c-0.62,4.53,2.59,3.35,4.92,3.57c0.11,3.97,0.22,7.94,0.33,11.91c-0.06,0.32-0.16,0.64-0.17,0.97c-0.27,7.72-0.26,7.72-7.94,8.17
	c-6.09-0.07-12.17-0.06-18.25-0.25c-2.19-0.07-2.84,0.68-2.76,2.82C411.18,238.81,411.16,243.91,411.23,249.01z M402.03,264.94
	c0-12.66,0.19-25.32-0.11-37.97c-0.1-4.28,1.27-5.38,5.32-5.11c5.14,0.35,10.32,0.08,15.48,0.09c8.21,0.01,7.95,0,8.27-8.07
	c0.16-4.08-1.21-4.94-5.03-4.9c-18.82,0.19-37.64,0.09-56.46,0.09c-8.98,0-8.81-0.01-8.72,9.12c0.03,3.27,1.28,3.88,4.12,3.82
	c6.33-0.15,12.68,0.29,18.98-0.17c4.53-0.33,5.49,1.17,5.45,5.48c-0.2,25.15-0.04,50.3-0.15,75.45c-0.02,3.7,0.76,5.79,4.94,5.06
	c0.97-0.17,2.02-0.14,2.99,0.02c3.98,0.66,5.06-1.03,4.99-4.92C401.88,290.25,402.03,277.59,402.03,264.94z"/>
<path class="st0" d="M638.18,299.62c-0.2-2.01,1.29-4.83-2.79-4.81c-1.79,0.01-2.1-1.78-2.09-3.4c0.02-4.16,0-8.33-0.06-12.49
	c-0.03-2.06,1.12-2.8,2.71-4.05c2.57-2.02,6.2-3.3,7.18-6.97c0.31-1.17,0.84-1.86,1.97-1.72c2.42,0.3,3.31-0.68,3.04-3.05
	c-0.13-1.19,0.66-1.75,1.83-1.87c0.79-0.08,2.11-0.07,2.28-0.48c3.84-9.22,11.69-2.48,17.32-4.39c0.36-0.12,1.3,0.33,1.29,0.47
	c-0.38,4.61,6.12,3.76,6.43,8.3c0.12,1.66,3.77,1.78,5.41,4.29c1.19,1.82,3.05,5.18,6.42,5.84c1.76,0.34,1.82,2.09,1.8,3.66
	c-0.05,3.83,0.03,7.66-0.07,11.49c-0.05,2.07,1.06,4.71-2.98,4.81c-1.39,0.03-1.45,2.89-2,4.51c-0.97,0.13-1.93,0.26-2.9,0.4
	c-0.7-0.14-0.98,0.14-0.84,0.84c-0.13,0.97-0.26,1.94-0.39,2.91c-3.25,0.05-5.04,4.55-5.61,4.49c-4.5-0.48-3.93,3.27-5.27,5.35
	c-0.63,0.11-1.25,0.21-1.88,0.32c-4.33,0-8.66,0-12.99,0c-0.94-0.15-1.88-0.3-2.83-0.45c-1.96-4.56-5.14-7.89-9.78-9.78
	c0.04-1.19-0.68-2.01-1.39-2.83c0.11-0.79-0.3-0.98-0.99-0.86C640.08,299.96,639.13,299.79,638.18,299.62z M662.13,262.6
	c-6.56-3.51-9.69,2.94-13.49,6.07c-2.11,1.74-4.75,5.97-6.31,6.64c-4.67,2-2.7,5.19-2.91,7.84c-0.27,3.28-0.96,7.43,0.66,9.68
	c1.29,1.8,3.21,3.29,4.04,5.67c0.13,0.38,1.51,0.39,2.32,0.46c0.93,0.08,1.69,0.39,1.62,1.43c-0.35,4.69,6.27,3.1,6.47,7.25
	c4.98,0.02,10.36,1.15,14.78-0.42c2.01-0.71,6.86-2.33,7.03-6.83c0.02-0.49,1.15-1.26,1.84-1.36c3.69-0.55,3.22-6.24,7.51-6.02
	c0.05,0,0.22-0.92,0.22-1.4c0.01-4.33,0.01-8.65-0.02-12.98c-0.01-0.96,0.07-2.42-1.19-2.36c-4.8,0.23-5.5-4.77-8.11-6.98
	C672.21,265.61,669.14,260.99,662.13,262.6z"/>
<path class="st1" d="M298.78,321.09c0.11-3.93,2.54-4.11,5.85-4.57c6.62-0.9,9.4,4.12,13.9,6.91c5.12,3.18,4.53,6.96,4.49,11.27
	c-0.03,2.59,1.01,5.65-3.52,6.02c-1.8,0.15-1.29,2.75-1.52,4.34c0,0,0.11-0.08,0.11-0.08c-2.84-0.06-4.81,0.88-4.76,4.14
	c0,0.34-0.09,0.65-0.29,0.92c-4.54,0.09-9.07,0.18-13.6,0.28c-0.28-0.48-0.55-0.96-0.83-1.44c0.13-4.33-3.94-6.16-6.29-8.14
	c-1.97-1.66-2.57-2.78-2.58-4.88c-0.01-2.33,0.03-4.66,0-6.99c-0.02-1.77-0.01-3.26,2.47-3.36c2.98-0.12,2.59-5.55,6.56-4.39
	c0.45,2.76,0.89,5.49-3.13,5.91c-0.9,0.1-1.63,0.75-1.4,1.68c0.18,0.73,0.73,1.76,1.31,1.92c2.57,0.69,5.73,1.38,7.64-0.35
	c1.98-1.79,1.17-5.1,0.66-7.61C303.24,319.85,300.6,321.27,298.78,321.09z"/>
<path class="st0" d="M727.87,261.68c-3.68,0.95-6.02,4.19-8.03,6.64c-1.78,2.17-3.04,2.85-5.4,2.82c-2.16-0.03-4.31,0-6.47,0.03
	c-1.61,0.03-3.18-0.2-3.29-2.15c-0.11-2.08-0.98-2.59-3.01-2.93c-2.78-0.46-3.4-3.78-5.7-5.44c-3.5-2.52-6.57-6.42-5.34-11.66
	c0.12-2.04,0.23-4.08,0.35-6.11c0.91-0.2,1.82-0.4,2.74-0.6c3.24-3.5,5.35-8.21,10.42-9.76c1.4-7.55,7.43-3.68,11.5-4.6
	c0.75-0.17,2.32,0.11,2.33,0.25c0.21,4.19,5.06,4.34,6.55,7.73c1.09,2.48,4.01,5.34,5.99,6.22c3.2,1.43,2.53,3.19,2.65,5.26
	c0.07,1.15,0.04,2.32-0.03,3.48c-0.17,2.75,1.18,6.09-3.31,7.07C728.93,258.11,728.5,260.37,727.87,261.68z M719.26,238.43
	c-0.23-0.23-0.45-0.46-0.68-0.69c-0.7-1.28,0.38-3.87-2.24-3.72c-3.51,0.2-7.71-1.75-10.38,1c-2.84,2.92-4.99,6.45-9,8.05
	c-0.87,0.35-0.98,1.22-1.16,2.05c-1.16,5.47,1.42,13.8,6.15,15.72c2.9,1.18,2.99,3.49,4.57,5.02c1.79,1.74,10-0.28,11.88-2.2
	c2.32-2.36,4.45-5.62,7.03-6.87c5.63-2.72,1.7-6.94,2.68-10.25c0.9-3.05-2.18-2.55-3.82-3.22l-0.12-0.23
	C725.4,238.53,721.93,238.9,719.26,238.43z"/>
<path class="st0" d="M739.28,169.99c1.31,6.77-3.5,10.12-7.3,14.48c-2.31,2.65-6.88,3.2-7.27,7.76c-0.1,1.19-11.32,1.86-12.27,0.38
	c-2.94-4.57-7.3-8.1-11.11-11.38c-4.5-3.88-4.55-7.65-4.58-12.29c-0.01-2.08,0.29-3.27,2.76-4.38c2.67-1.2,4.51-4.27,6.71-6.53
	c0,0-0.07-0.42-0.07-0.42c0.24-0.55,0.47-1.09,0.71-1.64c3.08,0.47,3.96-1.07,3.52-3.83c3.29-2.44,7.14-0.52,10.63-1.37
	c2.18,0.2,4.37,0.16,4.29,3.44c-0.07,3.18,3.96,1.02,5.39,3.96c1.08,2.22,3.38,5.51,6.58,6.7
	C739.95,165.86,738.67,168.26,739.28,169.99z M706.16,165.9c-2.04-0.2-3.6,0.04-3.42,2.76c0.28,4.1-0.37,7.65,3.54,11.51
	c3.84,3.8,6.86,6.73,12.47,7.26c3.87,0.36,5.1-2.56,7.61-3.78c3.51-1.7,4.8-5.15,6.87-7.75c2.04-2.57,2.34-7.97-0.69-9.4
	c-3.4-1.6-3.04-6.73-7.42-6.46c-1.37-6.44-6.47-3.46-10.17-4.04c-3.09-0.49-3.62,1.39-3.65,3.8
	C707.96,160.47,708.03,164,706.16,165.9z"/>
<path class="st0" d="M721.15,304.52c-1.32-3.71-6.79-4.17-6.93-8.83c-0.01-0.2-0.47-0.6-0.66-0.56c-5.75,1.02-3.3-3.83-4.41-6.12
	c0.02-1.2,0.04-2.4,0.06-3.6c2.23-0.78,6.16,0.57,5.23-4.17c4.28-0.64,4.74-7.57,10.27-6.22c0.94,0.23,2.48-0.13,2.65,0.87
	c0.7,4.11,6.31,3.66,7.07,8.09c0.25,1.46,4.68,1.55,3.84,5.04c-0.28,4.45-3.23,8.58-7.89,11.08c-0.4,0.21-1,0.49-1.07,0.83
	C728.25,305.93,724.69,305.17,721.15,304.52z M729.13,285.78c-0.29-0.28-0.57-0.56-0.86-0.85c-0.51-1.35,0.69-3.81-2.03-3.73
	c-2.13,0.07-4.71-1.17-6.24,1.62c-0.84,1.55-1.48,3.36-3.87,3.28c-1.68-0.06-1.31,1.46-1.65,2.53c-1.32,4.18,2.49,4.57,4.32,6.68
	c4.08,4.7,6.41,5.08,9.67,0.13c0.47-0.72,1.01-1.34,1.93-1.38c4.89-0.2,2.25-3.92,2.59-5.99
	C733.51,284.94,730.47,286.52,729.13,285.78z"/>
<path class="st0" d="M472.13,327.04c3.33-1.42,4.57-5.77,8.35-6.33c6.5-0.96,9.28,4.11,12.53,8.3c4.23,0.33,3.49,3.72,3.45,6.23
	c-0.01,1.15-0.3,2.49-0.46,3.74c-1.11,0.72-2.83-0.71-3.66,1.04c-0.03,0.66-0.05,1.31-0.08,1.97c-3.43,1.87-5.4,5.66-9.22,7.03
	c-2.93,0.14-5.94,0.8-6.12-3.87c-0.07-1.9-2.49-0.62-3.69-1.24c-0.08-0.97-0.17-1.94-0.25-2.91c0.17-0.83-0.3-0.92-0.95-0.82
	c-1.29-0.16-2.59-0.33-3.88-0.49c0.04-0.82,0.31-1.71,0.08-2.44C466.82,332.77,469.9,330.08,472.13,327.04z M477.15,330.2
	c-1.54,0.25-3.3-0.18-3.75,2.26c-0.69,3.74,4.5,10.71,8.34,10.63c1.45-0.03,3.83,1.1,4.19-1.21c0.36-2.33,1.74-3.08,3.48-3.55
	c1.52-0.41,1.51-1.4,1.63-2.6c0.45-4.61-5.39-9.83-10.34-9.37c-1.95,0.18-2.65,1.01-2.54,2.81
	C477.83,329.52,477.49,329.86,477.15,330.2z"/>
<path class="st0" d="M655.99,208.88c3.93,0.19,10.07,4.53,10.88,8.31c0.44,2.05,1.47,1.95,2.73,1.76c2.66-0.4,2.42,1.46,2.58,3.06
	c-0.65,2.99,1.56,7.72-4.66,7.6c-0.28-0.01-3.79,4.18-3.94,5.1c-0.82,5.28-4.75,3.6-7.58,4.35c-1.59-0.73-3.64-0.85-4.12-3.07
	c-2.84-2.4-3.05-7.93-8.55-7.14c-0.14-1.95-0.27-3.9-0.41-5.86c0.05-1.26,0.1-2.52,0.16-3.78c5.81-0.34,7.05-5.75,10.12-9.13
	C654.42,210.33,655.12,209.4,655.99,208.88z M662.24,217.95c-0.13-0.82,0.04-1.97-0.44-2.39c-2.06-1.85-7.7-0.38-8.69,2.23
	c-0.46,1.22-1.08,2.18-2.36,2.16c-2.88-0.04-2.59,1.96-2.55,3.76c0.04,1.88-0.61,4.25,2.62,4.23c1.11,0,2.18,0.79,2.16,1.71
	c-0.09,3.66,2.35,3.26,4.69,3.27c2.34,0.01,4.72,0.32,4.6-3.28c-0.03-0.98,1.08-1.6,2.17-1.71c4.28-0.41,2.18-3.67,2.45-5.73
	c0.41-3.14-2.34-1.85-3.79-2.38C663,219.11,663.21,218.26,662.24,217.95z"/>
<path class="st1" d="M747.98,213.95c0.08,3.34,0.15,6.68,0.23,10.03c-0.11,0.32-0.22,0.64-0.34,0.96c-3.81-1.19-5.42,0.21-4.89,4.14
	c0,0,0.06-0.12,0.06-0.12c-3.37,0.01-6.74,0.01-10.11,0.02c0,0,0.09,0.09,0.09,0.09c0.38-3.93-1.97-4.48-5.07-4.1
	c0,0,0.08,0.09,0.08,0.09c0-3.71-0.01-7.43-0.01-11.14l-0.09,0.1c3.92,0.53,5.58-1.21,5.1-5.09l-0.09,0.09c3.38,0,6.77,0,10.15,0
	l-0.11-0.1c0.05,1.68,0.09,3.35,0.14,5.03c-1.15,0.03-2.3,0.11-3.44,0.08c-1.87-0.06-2.69,0.79-2.62,2.66
	c0.06,1.66,0.62,2.91,2.4,3.19c1.65,0.26,3.02-0.28,3.38-2.03c0.26-1.27,0.18-2.61,0.24-3.92c1.67,0.03,3.34,0.07,5.01,0.1
	C748.08,214.02,747.98,213.95,747.98,213.95z"/>
<path class="st0" d="M299.43,350.32c4.53-0.09,9.07-0.18,13.6-0.28c0.79,3.2-0.38,4.38-3.71,4.08c-2.75-0.25-5.54,0.06-8.32,0.12
	C298.43,353.75,299.61,351.76,299.43,350.32z"/>
<path class="st0" d="M728.01,213.92c0,3.71,0.01,7.43,0.01,11.14c-3.05-1.06-5.27-2.3-5.04-6.44
	C723.2,214.84,724.52,213.56,728.01,213.92z"/>
<path class="st0" d="M732.92,228.98c3.37-0.01,6.74-0.01,10.11-0.02c0.49,3.51-0.65,5.46-4.58,4.97c-1.13-0.14-2.31,0.1-3.46,0.16
	C731.74,233.43,733.78,230.62,732.92,228.98z"/>
<path class="st0" d="M734.99,203.91c3.33,0.69,8.46-1.46,8.08,5.11c-3.38,0-6.77,0-10.15,0
	C733.21,207.15,732.77,204.99,734.99,203.91z"/>
<path class="st0" d="M733.02,208.93c0.48,3.88-1.18,5.62-5.1,5.09C727.73,210.44,729.18,208.49,733.02,208.93z"/>
<path class="st0" d="M746.94,228.85c-1.32,0.08-2.65,0.15-3.97,0.23c-0.53-3.93,1.09-5.33,4.89-4.14
	C748.32,226.42,747.88,227.69,746.94,228.85z"/>
<path class="st0" d="M313.32,349.12c-0.05-3.26,1.92-4.2,4.76-4.14C319.2,349.46,316.24,349.26,313.32,349.12z"/>
<path class="st0" d="M727.94,224.98c3.1-0.38,5.45,0.17,5.07,4.1C730.08,229.25,727.9,228.48,727.94,224.98z"/>
<path class="st0" d="M445.51,78.97c0.01-1.01,0.02-2.03,0.04-3.04c0.15-2.31,0.31-4.62,0.46-6.93c9-0.06,17.99-0.12,26.99-0.18
	c15.44,0.06,30.88,0.12,46.32,0.18c2.4,0.01,5.36-0.75,4.61,3.49c-0.17,0.97,0.45,1.63,1.45,1.45c4.75-0.85,3.07,2.94,3.7,5.06
	c0,4,0,7.99,0,11.99c0.25,2.97-1.1,4.34-4.08,4.09c-4.66,0-9.33,0-13.99,0c-4,0-8.01,0-12.01,0c-4.66,0-9.33,0-13.99,0
	c-4.01,0-8.01,0.01-12.02,0.01c-0.45,0.07-0.9,0.15-1.34,0.22c-0.89,5.07-0.55,10.15-0.08,15.24c4.43,1.51,8.95,0.7,13.44,0.49
	c3.54,1.65,10.08-3.12,10.73,4.97c0.01,0.07,2.14-0.02,3.27-0.04c0.9,0.37,0.93,1.26,1.19,2.01c0,4.34,0,8.68,0,13.02
	c-0.82,2.34,0.95,5.09-1.17,7.22c-8.16-0.06-16.32-0.07-24.47-0.23c-2.25-0.04-3.13,0.49-3.29,3c-0.83,13.17-0.92,13.17,12.27,12.9
	c0.5-0.01,0.99-0.1,1.49-0.16c4.66,0,9.32,0,13.98,0c4.01,0,8.02,0,12.03,0c4.3,0.15,8.61,0.29,12.91,0.44
	c0.06,0.94,0.12,1.88,0.18,2.83c-0.05,1.07-0.64,2.88,0.98,2.71c4.8-0.49,3.71,2.75,3.79,5.36c0.05,1.64,0.14,3.28,0.21,4.91
	c-0.07,1.49-0.39,3.02-0.16,4.46c0.8,4.99-0.95,6.33-6.13,6.23c-16.59-0.3-33.19,0.09-49.79,0.22c-4.42-0.11-8.88,0.13-13.24-0.44
	c-3.42-0.44-9.04,3.35-9.57-4.14c-0.02-0.24-1.46-0.54-2.23-0.52c-1.4,0.04-2.12-0.6-2.43-1.87c-0.01-14.32-0.02-28.64-0.03-42.96
	c0.01-2.01,0.02-4.02,0.04-6.03c0-1.62,0-3.24,0-4.85c-0.01-0.71-0.01-1.42-0.02-2.14c0.01-7.29,0.01-14.58,0.02-21.87
	c-0.01-1.69-0.03-3.37-0.04-5.06C445.51,87,445.51,82.99,445.51,78.97z M449.81,122.37c0.01,0,0.01,0,0.02,0
	c0,14.82,0.15,29.65-0.1,44.47c-0.07,4.05,1.24,5,5.08,4.96c19.15-0.19,38.31-0.08,57.46-0.12c9.44-0.02,7.05,0.28,7.68-7.32
	c0.37-4.5-1.1-5.58-5.48-5.51c-15.82,0.27-31.65-0.03-47.47,0.19c-3.84,0.05-4.87-1.18-4.74-4.82c0.24-7.15,0.17-14.32,0.05-21.48
	c-0.05-2.76,0.81-3.85,3.71-3.75c5.32,0.2,10.66,0.05,15.99,0.05c9.18,0.01,9,0.01,9.08-9.2c0.03-3.59-1.19-4.53-4.58-4.42
	c-6.82,0.21-13.66-0.06-20.48,0.08c-2.83,0.06-3.78-0.95-3.72-3.76c0.14-7.16,0.2-14.33-0.05-21.48c-0.12-3.53,1.05-4.51,4.52-4.47
	c14.99,0.17,29.98,0.13,44.97,0.05c9.6-0.05,7.69,1.21,8.15-8.3c0.17-3.37-0.63-4.65-4.3-4.62c-20.49,0.17-40.97,0.16-61.46,0
	c-3.55-0.03-4.46,1.05-4.42,4.48C449.91,92.38,449.81,107.38,449.81,122.37z"/>
<path class="st0" d="M681.68,50.16c0.15,0.62,0.31,1.23,0.46,1.85c-0.67,3.26,1.5,7.89-4.56,8.71c-0.53,0.07-1.51,3.85-4.6,3.51
	c-1.13-0.13-0.16,0.91-0.08,1.35c0.58,3.27-1.67,3.41-3.89,3.61c-2.67-0.94-8.32,2.03-6.42-4.9c-3.8,1.07-3.94-3.26-6-4.13
	c-3.67-1.54-3.58-4.23-3.73-7.17c1.35-3.34,5.23-4.26,7.07-7.4c0.57-0.98,2.24-1.35,2.34-3.45c0.1-2.02,2.29-1.94,3.98-1.91
	c2.43,0.04,5.7-0.46,6.4,2.16c0.55,2.04,0.52,3.18,2.9,2.93c1.02-0.11,1.52,0.75,1.4,1.62C676.3,51.36,679.5,49.97,681.68,50.16z
	 M663.23,49.05c-0.4,0.36-0.8,0.71-1.2,1.07c-1.04,0.27-2.32-0.12-2.83,1.44c-1.09,3.32,2.19,10.46,5.38,11.46
	c4.82,1.51,11.91-4.98,11.49-9.97c-0.25-2.99-3.15-2.26-4.17-4.2C670,45.21,665.9,45.48,663.23,49.05z"/>
<path class="st0" d="M722.1,118.01c1.8-1.39,6.13,0.13,5.14-4.47c3.98-1.1,4.65-7.83,10.32-6.07c0.3,0.09,0.66-0.02,0.98,0.04
	c1.42,0.28,7.31,7.86,7.41,9.51l0.09-0.07c-2.73,0.92-3.8-0.84-4.96-2.83c-2.01-3.44-5.36-1.23-8.05-1.49
	c-2.64-0.26-1.77,2.09-1.67,3.64c-0.17,0.38-0.34,0.77-0.5,1.15c-1.12,0.09-3.01-0.32-3.06,0.87c-0.14,3.07-2.7,6.79,1.68,9.03
	c1.62,0.83,1.97,2.1,1.47,3.73l0.07-0.07c-1.27-0.02-2.53-0.03-3.8-0.05c0.97-4.62-2.63-3.57-5-4.03
	C722.18,123.93,722.14,120.97,722.1,118.01z"/>
<path class="st0" d="M735.01,136.23c-3.9,0.19-4.05-2.46-4-5.26c0,0-0.07,0.07-0.07,0.07c3.37,0,6.74,0,10.11,0l-0.06-0.07
	C742.58,136.81,738.44,136.12,735.01,136.23z"/>
<path class="st0" d="M745.96,117.01c3.49-0.05,5.56,0.99,5.14,5.16c-0.34,3.39-1.39,5.34-5.11,4.81l0.07,0.06
	c0-3.37-0.01-6.74-0.01-10.11L745.96,117.01z"/>
<path class="st0" d="M742.97,208.92c1.33,0.07,2.66,0.13,3.99,0.2c1.36,1.41,1.06,3.2,1.13,4.91c-1.67-0.03-3.34-0.07-5.01-0.1
	l0.03,0.03C743.06,212.27,743.02,210.6,742.97,208.92z"/>
<path class="st0" d="M745.98,126.98c1.07,4.75-1.95,4.4-5,4c0,0,0.06,0.07,0.06,0.07c-0.35-3.85,2.34-3.91,5-4L745.98,126.98z"/>
<path class="st1" d="M12.9,144.9c0.84-1.58-1.54-5.39,2.23-4.65c3.26,0.64,8.77-3.88,9.69,3.42c0.17,1.34,0.89,2.32,2.19,2.24
	c2.76-0.18,4.34,0.85,3.56,3.66c-0.7,2.54,2.48,6.75-3.03,7.43c-1.04,0.13-2.27,0.66-2.63,1.99c-0.36,1.34,0.3,3.43-1.79,3.61
	c-2.97,0.26-5.98,0.08-8.97,0.09c0.41-5.58-8.47-4.86-7.42-11.58c0.6-3.86,1.07-5.77,5.16-5.3c0.02,0.67,0.12,1.34,0.06,1.99
	c-0.23,2.72,0.34,4.55,3.72,4.22c2.12-0.21,4.2-0.23,4.18-3.04c-0.03-3.22-1.99-4.28-4.97-3.98
	C14.24,145.07,13.56,144.94,12.9,144.9z"/>
<path class="st2" d="M12.9,144.9c0.66,0.04,1.34,0.16,1.99,0.1c2.98-0.3,4.94,0.76,4.97,3.98c0.03,2.81-2.06,2.83-4.18,3.04
	c-3.39,0.33-3.96-1.5-3.72-4.22c0.06-0.66-0.04-1.33-0.06-1.99C12.23,145.5,12.57,145.2,12.9,144.9z"/>
<path class="st1" d="M436.76,6.88c2.1-3.82,6.46-2.56,8.05-1.38c3.9,2.88,8.58,5.93,7.96,12.17c-0.2,2.04-0.87,3.24-2.28,4.88
	c-1.57,1.81-3.89,2.75-5.15,5.05c-1.23,2.23-7.35,1.5-9.27-0.52c-1.9-2-3.09-4.41-6.12-5.69c-2.36-0.99-0.66-4.79-0.99-7.31
	c-0.3-2.31,1.47-2.13,2.91-2.3c-0.1,4.02,2.85,3.07,5.17,3.19c2.07,0.11,3.05-0.79,2.91-2.9C439.79,9.76,440.81,6.77,436.76,6.88z"
	/>
<path class="st2" d="M436.76,6.88c4.05-0.11,3.03,2.89,3.18,5.18c0.14,2.11-0.84,3.01-2.91,2.9c-2.32-0.12-5.27,0.83-5.17-3.19
	C431.4,8.04,434.13,7.51,436.76,6.88z"/>
<path class="st1" d="M257.97,341.97c0.18-1.69-0.44-4.04,2.54-3.65c1.97,0.26,4.98-1.61,5.39,2.31c0.14,1.31,0.74,2.4,2.04,2.39
	c2.99-0.02,2.9,1.89,2.94,3.99c0.04,2.26,0.26,4.37-3.1,4.22c-0.94-0.04-1.83,0.95-1.77,2.07c0.15,3.27-2.19,2.65-4.07,2.65
	c-1.85,0.01-4.17,0.71-4.06-2.59c0.04-1.29-0.91-2.19-2.22-2.21c-4.56-0.05-2.27-3.46-2.61-5.44c-0.58-3.36,2.23-2.37,3.94-2.73
	c-0.15,2.37,0.03,4.41,3.32,4.07c1.48-0.15,2.72-0.39,2.58-2.22c-0.22-2.84-2.4-2.73-4.42-2.82
	C258.3,342,258.14,341.99,257.97,341.97z"/>
<path class="st2" d="M257.97,341.97c0.17,0.01,0.33,0.03,0.5,0.04c2.02,0.09,4.2-0.03,4.42,2.82c0.14,1.83-1.1,2.07-2.58,2.22
	c-3.29,0.34-3.46-1.69-3.32-4.07C257.31,342.65,257.64,342.31,257.97,341.97z"/>
<path class="st1" d="M158.01,143.72c0,8.15-0.09,16.31,0.05,24.45c0.05,2.6-0.79,3.47-3.39,3.46c-16.14-0.06-32.27-0.03-48.41,0.07
	c-2.6,0.02-3.33-0.93-3.41-3.49c-0.29-9.27-0.39-9.27,8.99-9.27c9.82,0,19.63-0.1,29.45,0.06c2.99,0.05,4.08-0.77,4-3.9
	c-0.2-7.81-0.17-15.64-0.01-23.45c0.06-2.88-0.95-3.71-3.74-3.64c-6.82,0.17-13.65-0.14-20.46,0.13c-3.61,0.15-4.49-1.15-4.38-4.55
	c0.32-9.49-0.96-8.14,8.31-8.19c9.65-0.05,19.3,0.14,28.95,0.02c3.25-0.04,4.21,1.15,4.12,4.33c-0.2,7.98-0.07,15.97-0.07,23.95
	C158.02,143.72,158.01,143.72,158.01,143.72z"/>
<path class="st1" d="M101.8,121.99c0,10.66-0.1,21.32,0.06,31.98c0.05,3.1-1.01,3.93-4,3.98c-9.83,0.16-9.84,0.27-9.84-9.51
	c0-18.82,0.08-37.65-0.05-56.47c-0.02-3.56,0.46-5.28,4.75-5.14c9.14,0.29,9.14,0.02,9.13,9.17c-0.02,8.66,0,17.32,0,25.99
	C101.82,121.99,101.81,121.99,101.8,121.99z"/>
<path class="st1" d="M123.51,85.84c-5.81,0-11.63-0.08-17.44,0.04c-2.34,0.05-3.07-0.74-3.21-3.11c-0.57-9.77-0.66-9.77,8.91-9.78
	c9.3-0.01,18.61,0.14,27.9-0.07c3.37-0.08,4.59,0.67,4.51,4.32c-0.18,8.61,0.02,8.61-8.72,8.62c-3.99,0-7.97,0-11.96,0
	C123.51,85.85,123.51,85.84,123.51,85.84z"/>
<path class="st1" d="M158.01,93.4c-0.35,6.56,1.97,5.69-8.19,6.29c-6.26,0.37-4.28-3.82-4.55-6.9c-0.32-3.58-0.32-6.33,4.94-5.97
	C158,87.35,158.03,86.96,158.01,93.4z"/>
<path class="st1" d="M177,257.89c0-14.82,0.12-29.65-0.08-44.47c-0.05-3.53,0.94-4.47,4.44-4.43c15.32,0.19,30.65,0.17,45.97,0
	c3.5-0.04,4.97,0.57,4.85,4.56c-0.26,8.39-0.01,8.39-8.43,8.39c-9.83,0-19.66,0.14-29.48-0.05c-3.35-0.07-4.7,0.67-4.54,4.34
	c0.3,6.98,0.28,13.99,0.01,20.98c-0.14,3.62,1.23,4.48,4.57,4.44c10.99-0.14,21.99,0.12,32.98-0.07c3.54-0.06,4.99,0.57,4.88,4.56
	c-0.23,8.98,0,8.98-8.82,8.98c-9.66,0-19.32,0.13-28.98-0.03c-3.31-0.05-4.76,0.74-4.63,4.39c0.25,7.15,0.25,14.33,0,21.48
	c-0.12,3.42,1.2,4.13,4.3,4.09c11.16-0.14,22.32,0.13,33.48-0.12c3.78-0.09,4.79,0.97,4.66,4.72c-0.28,8.15-0.07,8.15-8.27,8.15
	c-14.16,0-28.32-0.12-42.47,0.08c-3.56,0.05-4.47-1.1-4.44-4.52c0.16-15.16,0.07-30.31,0.07-45.47
	C177.02,257.89,177.01,257.89,177,257.89z"/>
<path class="st2" d="M214.31,231.94c3.99,0,7.98,0.1,11.96-0.04c2.12-0.07,3.16,0.55,2.83,2.78c-0.02,0.16-0.01,0.33,0,0.5
	c0.53,12.41,0.53,12.41-11.74,12.41c-5.15,0-10.3-0.11-15.45,0.03c-2.4,0.06-3.03-0.82-3.16-3.16
	c-0.71-12.53-0.77-12.52,11.58-12.52C211.65,231.94,212.98,231.94,214.31,231.94z"/>
<path class="st2" d="M213.97,289.99c-3.82,0-7.66-0.23-11.46,0.07c-3.26,0.26-3.75-1.08-3.77-3.97
	c-0.06-11.95-0.16-11.95,11.76-11.95c5.15,0,10.3,0.09,15.45-0.05c2.31-0.06,3.08,0.6,3.22,3.04c0.73,12.87,0.81,12.86-11.71,12.86
	C216.3,289.99,215.13,289.99,213.97,289.99z"/>
<path class="st1" d="M246.99,280.45c0,1.33,0,2.67,0,4c0.02,9.68,0.02,9.53-9.71,9.59c-3.26,0.02-4.34-0.86-4.22-4.16
	c0.24-6.49,0.18-12.99,0.03-19.48c-0.06-2.81,0.48-4.14,3.77-4.2c10.15-0.19,10.14-0.34,10.12,9.77
	C246.98,277.45,246.99,278.95,246.99,280.45z"/>
<path class="st1" d="M246.98,237.01c0,1.83,0,3.66,0,5.5c-0.01,8.07-0.02,7.79-8.18,8.16c-4.6,0.21-6.07-1.14-5.75-5.76
	c0.41-6.13,0.21-12.32,0.07-18.48c-0.06-2.48,0.52-3.44,3.27-3.54c10.6-0.38,10.6-0.49,10.61,10.12
	C246.99,234.35,246.99,235.68,246.98,237.01z"/>
<path class="st1" d="M268.94,264.99c0-12.5,0.11-24.99-0.07-37.48c-0.05-3.29,0.56-4.65,4.26-4.6c8.45,0.09,8.46-0.12,8.44,8.33
	c-0.01,5.33,0.07,10.67-0.09,15.99c-0.09,3.02,0.63,4.54,4.12,4.49c11.83-0.18,23.66-0.18,35.48,0c3.44,0.05,4.15-1.31,4.07-4.4
	c-0.18-6.99,0.07-14-0.09-20.99c-0.06-2.67,0.86-3.3,3.42-3.39c10.47-0.37,10.47-0.47,10.47,9.75c0,23.49-0.1,46.98,0.06,70.47
	c0.03,3.77-1.05,4.79-4.77,4.73c-9.13-0.17-9.13,0.02-9.12-9.32c0-9.83-0.09-19.66,0.05-29.49c0.04-2.95-0.73-4.06-3.89-4.02
	c-11.83,0.17-23.66,0.16-35.48-0.02c-3.41-0.05-4.24,1.33-4.21,4.42c0.11,10.83-0.22,21.67,0.14,32.48
	c0.17,4.98-1.56,6.63-6.25,5.85c-0.97-0.16-2.01-0.16-2.99-0.04c-2.95,0.35-3.6-1.09-3.58-3.78c0.11-12.99,0.05-25.99,0.05-38.98
	C268.95,264.99,268.94,264.99,268.94,264.99z"/>
<path class="st1" d="M304.01,221.92c-5.81,0-11.63-0.12-17.44,0.06c-2.72,0.08-3.73-0.66-3.82-3.56c-0.32-9.37-0.44-9.36,8.88-9.36
	c9.64,0,19.27,0.14,28.91-0.06c3.32-0.07,4.64,0.61,4.57,4.3c-0.16,8.61,0.04,8.61-8.63,8.62
	C312.32,221.92,308.17,221.92,304.01,221.92z"/>
<path class="st2" d="M306.02,231.93c1.16,0,2.33,0,3.49,0c11.72,0,11.59,0,11.59,11.52c0,3.22-0.79,4.31-4.13,4.2
	c-7.48-0.25-14.97-0.23-22.45-0.02c-3.13,0.09-3.89-0.94-3.92-3.97c-0.11-11.73-0.22-11.73,11.42-11.73
	C303.36,231.93,304.69,231.93,306.02,231.93z"/>
<path class="st1" d="M356.92,121.49c0-14.64,0.08-29.29-0.06-43.93c-0.03-3.21,0.44-4.69,4.21-4.66c9.47,0.09,9.48-0.11,9.47,9.36
	c0,9.49,0.13,18.97-0.12,28.45c-0.1,3.76,1.13,4.91,4.82,4.76c6.48-0.26,12.98,0.13,19.46-0.14c3.58-0.15,4.48,1.12,4.45,4.53
	c-0.07,8.21,0.09,8.21-7.99,8.21c-5.49,0-10.99,0.19-16.47-0.05c-3.3-0.14-4.31,1-4.26,4.26c0.16,11.15-0.12,22.3,0.16,33.44
	c0.1,4.08-1.27,5.05-5.1,4.99c-8.57-0.13-8.59,0.05-8.59-8.28c-0.01-13.65,0-27.29,0-40.94
	C356.91,121.49,356.92,121.49,356.92,121.49z"/>
<path class="st1" d="M426.93,86.81c0,2.17,0.2,4.36-0.05,6.49c-0.28,2.35,1.45,5.92-1.11,6.8c-3.14,1.08-6.9,0.5-10.38,0.36
	c-1.58-0.06-1.31-1.66-1.31-2.77c-0.01-7.33,0.08-14.67-0.02-22c-0.03-2.32,1.04-2.62,3.01-2.75c9.87-0.62,9.86-0.67,9.85,9.37
	c0,1.5,0,3,0,4.5C426.91,86.81,426.92,86.81,426.93,86.81z"/>
<path class="st1" d="M414.09,156.82c0-1.83,0-3.66,0-5.48c0-7.39,0.01-7.09,7.3-7.44c4.59-0.22,5.98,1.21,5.64,5.75
	c-0.42,5.62-0.21,11.3-0.06,16.94c0.07,2.61-0.51,3.77-3.46,3.96c-9.41,0.61-9.4,0.75-9.41-8.74
	C414.09,160.15,414.09,158.48,414.09,156.82z"/>
<path class="st1" d="M413.01,136.54c-0.02,6.45-0.02,6.52-6.66,6.41c-7.19-0.12-6.07,1.24-6.13-8c-0.04-5.79,0-5.79,7.99-5.76
	C413.03,129.21,413.03,129.21,413.01,136.54z"/>
<path class="st1" d="M407.96,101.76c4.64-1.45,5.5,1.39,5.09,5.9c-0.31,3.44,1.16,7.29-5.14,6.76c-7.68-0.64-7.78-0.15-7.71-5.8
	C400.28,101.2,399.02,101.83,407.96,101.76z"/>
<path class="st1" d="M268.94,122.11c0-14.99,0.09-29.99-0.08-44.98c-0.04-3.27,0.91-4.2,4.15-4.17c20.66,0.13,41.32,0.11,61.98,0
	c2.9-0.02,4.04,0.55,4.05,3.79c0.02,9.12,0.19,9.1-8.78,9.09c-14.66-0.02-29.32,0.11-43.98-0.11c-3.78-0.06-4.86,1.06-4.7,4.78
	c0.29,6.65,0.35,13.34-0.03,19.98c-0.26,4.45,1.57,5.31,5.49,5.13c6.32-0.29,12.67,0.06,18.99-0.22c3.41-0.15,4.16,1.15,4.17,4.3
	c0.03,9.34,0.15,9.34-8.98,9.33c-5-0.01-10.02,0.26-14.99-0.09c-3.94-0.28-4.79,1.25-4.66,4.85c0.26,6.82,0.27,13.67-0.01,20.49
	c-0.15,3.73,0.97,4.83,4.74,4.78c15.82-0.21,31.66,0.05,47.48-0.2c4.11-0.07,5.83,0.99,5.19,5.19c-0.22,1.47-0.17,3-0.04,4.49
	c0.22,2.48-0.99,3.16-3.24,3.15c-21.16-0.06-42.32-0.13-63.48-0.04c-3.23,0.01-3.32-1.63-3.31-4.06
	C268.97,152.43,268.94,137.27,268.94,122.11z"/>
<path class="st1" d="M180.98,121.93c-0.01-14.83,0.09-29.66-0.08-44.49c-0.04-3.37,0.71-4.57,4.34-4.54
	c20.49,0.18,40.99,0.18,61.48,0.01c3.6-0.03,4.44,1.09,4.35,4.52c-0.21,8.39-0.04,8.41-8.47,8.42c-14.83,0.01-29.66,0.11-44.49-0.08
	c-3.53-0.05-4.57,0.98-4.44,4.47c0.26,6.99,0.22,14,0.02,20.99c-0.09,3.19,0.81,4.38,4.16,4.26c6.66-0.24,13.33,0.04,19.99-0.11
	c3.09-0.07,4.38,0.71,4.4,4.16c0.06,9.52,0.23,9.52-9.34,9.52c-5.33,0-10.67,0.1-15.99-0.04c-2.4-0.06-3.21,0.79-3.18,3.16
	c0.09,7.83,0.14,15.66-0.04,23.49c-0.08,3.26,1.66,3.33,4.07,3.32c16.16-0.05,32.33,0.13,48.49-0.12c4.11-0.06,4.95,1.3,4.83,5.06
	c-0.26,7.75-0.06,7.76-7.61,7.77c-18.99,0.01-37.99-0.18-56.98,0.14c-4.85,0.08-5.68-1.57-5.6-5.9
	C181.13,151.26,180.98,136.6,180.98,121.93z"/>
<path class="st1" d="M98.95,231.62c-2.99,0.06-5.98,0.16-8.98,0.16c-2.43,0-3.58-1.54-3.86-3.73c-0.3-2.44,1.14-3.23,3.35-3.11
	c0.49,0.03,1.39,0.03,1.43-0.12c1.08-4.19,5.43-5.38,7.55-8.38c1.17-1.65,1.16-3.72,3.92-3.72c0.77,0,2.22-1.1,2.2-1.66
	c-0.21-5.33,3.65-3.87,6.46-3.96c3.66-0.12,7.33,0.05,10.98-0.07c2.94-0.09,5.65-0.22,5.92,3.84c0.06,0.86,0.57,2.15,1.82,2.03
	c3.16-0.3,5.03,0.53,4.75,4.19c-0.07,0.98,1.02,1.85,2.09,1.76c2.69-0.21,3.95,0.71,3.72,3.6c-0.12,1.52,1.05,2.6,2.56,2.44
	c3.28-0.35,3.33,1.55,3.29,3.95c-0.1,5.49-0.05,10.99,0,16.48c0.01,1.8-0.05,3.27-2.46,3.44c-1.82,0.12-3.15,1.39-3.34,3.19
	c-0.21,1.96-1.13,2.55-2.91,2.49c-1.45-0.05-3.01,0.5-2.97,2.02c0.16,5.37-3.63,3.86-6.52,3.99c-0.2-0.03-0.4-0.08-0.59-0.14
	c-1.46-2.82-0.54-5.84-0.75-8.77c-0.22-3.01-0.37-6.14-4.69-6.04c-0.82,0.02-1.87-0.19-1.97-1.14c-0.41-3.89-0.85-7.53-6.4-6.09
	c-0.61,0.16-0.75-1.31-0.69-2.1c0.14-1.98-0.4-3.59-2.19-4.62c0.82-1.71-0.87-4.53,1.56-5.28c2.64-0.81,4.72-1.57,4.68-4.74
	c-0.03-2.49,0.19-5.02-0.21-7.45c-0.34-2.06-5.91-2.95-6.05-1.29c-0.33,4.04-2.62,5.32-5.89,6.28c-0.49,0.14-0.65,1.74-0.78,2.7
	c-0.15,1.06-0.38,2.07-1.61,2.14C96.17,224.26,97.73,228,98.95,231.62z"/>
<path class="st0" d="M111.71,263.48c0.7,3.32-0.98,3.73-3.59,3.8c-2.7,0.08-3.41-0.89-3.31-3.44c0.08-2.28,0.22-3.83,3.17-3.65
	C110.39,260.35,112.57,260.27,111.71,263.48z"/>
<path class="st1" d="M31.4,236.8c1.08-1.5-0.95-5.19,2.73-4.65c2.88,0.43,7.15-2.78,8.54,2.75c0.24,0.97,1.31,2.09,2.27,2.47
	c1.85,0.73,4.39,0.5,3.41,3.75c-0.82,2.72,2.16,7-3.35,7.83c-1.34,0.2-2.33,1.53-2.34,2.93c-0.04,3.38-2.19,3.76-4.69,3.39
	c-2.51-0.38-6.42,1.64-6.47-3.57c-0.01-0.89-1.28-2.48-2.06-2.54c-4.44-0.32-3.18-3.51-3.65-6.14c-0.78-4.33,1.43-5.45,4.99-5.64
	c0.05,0.99,0.2,1.98,0.15,2.96c-0.13,2.36,0.5,3.89,3.28,3.55c2.67-0.33,3-2.19,2.87-4.32C36.8,235.37,33.37,237.55,31.4,236.8z"/>
<path class="st2" d="M98.95,231.62c-1.22-3.62-2.78-7.36,3.43-7.71c1.23-0.07,1.46-1.08,1.61-2.14c0.14-0.95,0.29-2.55,0.78-2.7
	c3.26-0.96,5.56-2.24,5.89-6.28c0.14-1.66,5.71-0.76,6.05,1.29c0.4,2.43,0.18,4.96,0.21,7.45c0.04,3.17-2.05,3.93-4.68,4.74
	c-2.43,0.75-0.74,3.57-1.56,5.28C106.76,232.09,102.86,231.99,98.95,231.62z"/>
<path class="st2" d="M31.4,236.8c1.97,0.76,5.4-1.43,5.67,2.77c0.14,2.13-0.2,3.99-2.87,4.32c-2.78,0.34-3.41-1.19-3.28-3.55
	c0.05-0.98-0.09-1.97-0.15-2.96C30.85,237.05,31.06,236.85,31.4,236.8z"/>
<path class="st1" d="M43.28,175.32c-0.25-3.62,1.28-5.06,5-4.59c2.62,0.33,5.31,0.1,7.97,0.04c2.66-0.06,3.65,1.3,5.55,3.21
	c2.79,2.82,4.64,7.43,8.99,8.5c2.05,0.5,2.26,1.47,2.25,3.06c0,2.99,0.05,5.98,0.03,8.97c-0.02,2.82,0.9,6.27-4.04,5.79
	c-0.95-0.09-1.9,1.01-1.79,2.07c0.31,3.13-1.09,4.16-4.04,3.79c-1.13-0.14-2.01,0.53-1.91,1.74c0.38,4.42-2.58,4.19-5.53,4.13
	c-2.66-0.06-5.32-0.1-7.97,0.02c-2.55,0.11-4.77,0.03-4.31-3.5c0.04-0.32-0.04-0.93-0.12-0.94c-4.61-0.56-5.12-6.27-8.72-7.32
	c-2.76-0.8-2.88-1.97-2.86-4.04c0.03-2.99,0.27-6.01-0.06-8.96c-0.42-3.72,1.06-5.22,4.63-5.02c0.22,0.25,0.45,0.5,0.67,0.74
	c-1.12,6.71,3.83,4.69,7.21,5.08c3.94,0.45,5.89-1.09,5.84-5.14c-0.06-5.46-1.28-6.91-6.06-6.94
	C43.77,175.74,43.54,175.52,43.28,175.32z"/>
<path class="st1" d="M36.32,182.26c0.25-2.11,0.49-4.22,0.74-6.33c0,0-0.11,0.11-0.11,0.11c2.11-0.24,4.21-0.48,6.32-0.71
	c0.26,0.2,0.5,0.42,0.71,0.67c-0.28,6.57-0.45,6.74-6.99,7.01C36.77,182.75,36.55,182.5,36.32,182.26z"/>
<path class="st1" d="M131.86,309.99c1.11-4.64,4.99-6.55,9.8-5.03c1.29,0.41,1.27,1.23,1.48,2.19c0.33,1.45,0.67,3.33,2.29,3.5
	c2.46,0.27,4.26,0.67,3.62,3.69c-0.59,2.8,2.06,7.03-3.47,7.73c-0.77,0.1-1.93,1.26-2.01,2.03c-0.38,3.42-2.32,4.34-5.44,4.28
	c-3.06-0.06-5.69-0.3-6.06-4.21c-0.06-0.61-1.03-1.53-1.68-1.63c-4.7-0.69-3.5-4.28-3.89-7.27c-0.47-3.67,1.28-4.72,4.49-4.54
	c0.03,0.99,0.08,1.98,0.1,2.96c0.03,1.65,0.56,2.95,2.41,3.14c1.29,0.13,2.77,0.49,3.79-0.47c1.36-1.28,1.07-3.22,0.57-4.65
	C136.78,308.59,133.91,310.48,131.86,309.99z"/>
<path class="st2" d="M131.86,309.99c2.05,0.49,4.92-1.39,6,1.71c0.5,1.44,0.8,3.37-0.57,4.65c-1.02,0.96-2.5,0.6-3.79,0.47
	c-1.85-0.19-2.38-1.49-2.41-3.14c-0.02-0.99-0.07-1.97-0.1-2.96C131.28,310.47,131.57,310.23,131.86,309.99z"/>
<path class="st1" d="M411.07,49.64c1.9,3.62-1.65,6.24-4.06,8.06c-2.27,1.72-3.1,4.35-5.94,5.9c-7.24,3.94-13.15,3.36-17.83-3.6
	c-0.57-0.85-1.45-0.69-2.05-1.16c-5.71-4.48-6.43-12.08-1.57-17.69c2.48-2.86,5.12-5.6,7.8-8.27c2.41-2.39,10.77-1.49,13.07,1.09
	c2.37,2.67,5.16,5.16,7.82,7.3C411.35,43.72,410.83,46.11,411.07,49.64z M386.45,45.01c3.56,1.1,5.41-1.64,6.98-3.69
	c1.35-1.76,1.48-5-0.07-6.55c-2.06-2.06-3.3,0.97-4.69,2.09c-1.41,1.14-2.64,2.54-3.85,3.9c-0.9,1.01-3.22,1.24-2.36,3.26
	C383.22,45.79,385.12,44.8,386.45,45.01z"/>
<path class="st1" d="M359.98,19.99c0.8,0.72,1.6,1.44,2.41,2.16c3.43,7.07,0.38,12.63-6.9,12.27c-3.91-0.19-6.17-2.47-6.53-6.47
	c-0.13-1.47-0.27-2.93-0.4-4.4c0.86-1.24,1.71-2.48,2.57-3.72C354.08,19.89,357.03,19.94,359.98,19.99z M356.84,25.47
	c-0.18-1.51-1.08-2.33-2.56-2.41c-1.65-0.09-2.28,0.89-2.3,2.43c-0.02,1.58,0.66,2.47,2.31,2.37
	C355.78,27.77,356.72,27.05,356.84,25.47z"/>
<path class="st2" d="M298.78,321.09c1.82,0.18,4.46-1.24,5.04,1.59c0.51,2.51,1.32,5.81-0.66,7.61c-1.91,1.72-5.06,1.03-7.64,0.35
	c-0.58-0.16-1.13-1.19-1.31-1.92c-0.23-0.93,0.5-1.59,1.4-1.68c4.02-0.43,3.58-3.15,3.13-5.91
	C298.75,321.12,298.78,321.09,298.78,321.09z"/>
<path class="st0" d="M168.97,54.97c0.19,3.53-0.83,5.84-5,4.99c0,0,0.09,0.09,0.09,0.09c-0.62-3.95,1.69-4.98,5-5L168.97,54.97z"/>
<path class="st1" d="M169.05,55.05c-3.31,0.02-5.62,1.05-5,5c-3.37-0.03-6.73-0.06-10.1-0.09c0,0,0.06,0.12,0.06,0.12
	c0.78-4.17-1.89-4.91-5.1-5.11c0,0,0.1,0.08,0.1,0.08c0.05-1.48,0.34-3,0.09-4.42c-0.72-4.06,0.96-5.78,4.94-5.58
	c0.33,2.34-1.11,5.67,3.1,5.88c1.73,0.09,2.83-0.96,2.75-2.7c-0.18-4.18-3.49-2.87-5.85-3.19c0.23-1.33-0.62-3.62,1.57-3.48
	c2.77,0.17,6-1.63,8.26,1.18c0.68,0.84,0.79,2.42,2.09,2.45c3.7,0.07,3.03,2.65,3.06,4.89C169.02,51.73,169.04,53.39,169.05,55.05z"
	/>
<path class="st0" d="M148.92,54.97c3.21,0.2,5.88,0.93,5.1,5.11C149.81,60.87,148.73,58.56,148.92,54.97z"/>
<path class="st1" d="M537.73,122.05c0-14.82,0.14-29.64-0.1-44.46c-0.06-3.82,1.1-4.71,4.75-4.67c15.65,0.18,31.3,0.19,46.95-0.03
	c3.76-0.05,4.77,1,4.67,4.72c-0.22,8.17-0.01,8.19-8.17,8.19c-10.32,0.01-20.65,0.17-30.97-0.08c-3.83-0.1-4.84,1.16-4.69,4.83
	c0.27,6.82,0.25,13.66-0.02,20.47c-0.14,3.57,1.09,4.56,4.54,4.5c11.32-0.2,22.65,0.06,33.96-0.23c4.1-0.1,5.91,1.03,5.3,5.26
	c-0.19,1.3-0.17,2.68,0,3.99c0.4,3.01-1.07,3.59-3.74,3.56c-11.65-0.11-23.31,0.1-34.96-0.13c-3.84-0.07-5.21,0.91-5.11,4.97
	c0.27,11.32-0.05,22.65,0.18,33.96c0.07,3.72-0.98,5.29-4.76,4.7c-1.14-0.18-2.34-0.17-3.49-0.03c-3.57,0.43-4.43-1.2-4.4-4.58
	c0.16-14.98,0.07-29.97,0.07-44.96C537.74,122.05,537.74,122.05,537.73,122.05z"/>
<path class="st1" d="M594.96,150.38c0-5.82,0.09-11.64-0.04-17.46c-0.06-2.61,0.47-3.82,3.52-3.87c9.3-0.13,9.31-0.28,9.32,9.11
	c0.01,9.64-0.13,19.29,0.06,28.93c0.07,3.37-0.79,4.66-4.4,4.63c-8.45-0.06-8.45,0.12-8.46-8.37
	C594.95,159.02,594.96,154.7,594.96,150.38z"/>
<path class="st2" d="M574.31,111.33c-0.83,0-1.66,0-2.49,0c-13.7,0-13.65,0-12.62-13.61c0.16-2.1,0.72-2.92,2.87-2.9
	c8.46,0.08,16.91,0.08,25.37,0c1.96-0.02,2.74,0.7,2.51,2.6c-0.02,0.16,0.03,0.34-0.01,0.5c-1.08,4.39,2.83,10.51-1.9,12.98
	c-3.65,1.9-9.09,0.38-13.73,0.38C574.31,111.3,574.31,111.32,574.31,111.33z"/>
<path class="st1" d="M607.77,100.43c0,3.16-0.24,6.34,0.06,9.46c0.34,3.61-1.13,4.46-4.5,4.43c-8.36-0.07-8.37,0.09-8.37-8.34
	c0-5.32,0.1-10.64-0.03-15.95c-0.06-2.38,0.77-3.03,3.13-3.14c9.78-0.49,9.77-0.58,9.73,9.06
	C607.77,97.44,607.78,98.94,607.77,100.43z"/>
<path class="st1" d="M448.84,258.08c0-14.83,0.14-29.66-0.1-44.48c-0.06-3.88,1.16-4.71,4.79-4.62c8.81,0.22,8.81,0.04,8.81,9.05
	c-0.01,9.83,0.05,19.66-0.05,29.49c-0.03,2.77,0.51,4.25,3.83,4.2c11.83-0.2,23.66-0.22,35.48-0.07c3.42,0.04,4.54-0.95,4.47-4.49
	c-0.22-11.16,0.11-22.33-0.17-33.48c-0.1-3.84,1.09-4.72,4.73-4.66c8.18,0.13,8.16-0.07,8.16,8.13
	c-0.01,28.32-0.11,56.64,0.09,84.96c0.03,4.57-1.19,6.06-5.82,5.78c-7.04-0.42-7.06-0.14-7.07-7.35
	c-0.01-10.33-0.15-20.66,0.07-30.99c0.08-3.55-1.08-4.51-4.5-4.46c-11.49,0.18-22.99,0.21-34.48-0.02
	c-3.73-0.08-4.91,1.02-4.84,4.76c0.21,10.82-0.09,21.66,0.16,32.48c0.1,4.22-0.96,5.82-5.52,5.62c-8.06-0.35-8.09-0.04-8.09-8.37
	c-0.01-13.83,0-27.66,0-41.48C448.83,258.08,448.83,258.08,448.84,258.08z"/>
<path class="st1" d="M471.45,210.55c1.12,4.08,0.02,8.28,0.61,12.39c0,4.38,0.01,8.75,0.01,13.13c-0.1,3.58-0.57,7.18,0.29,10.74
	l-0.45,0.03c0,0-0.35-0.27-0.36-0.28C470.89,234.54,471.11,222.55,471.45,210.55z"/>
<path class="st1" d="M541.67,258.01c0-14.83,0.09-29.66-0.07-44.48c-0.04-3.38,0.78-4.58,4.38-4.55
	c20.33,0.17,40.65,0.17,60.98,0.02c3.58-0.03,5,0.71,4.85,4.64c-0.39,9.9,1.09,8.22-8.11,8.28c-14.99,0.1-29.99,0.11-44.98-0.05
	c-3.36-0.04-4.73,0.76-4.59,4.38c0.26,6.99,0.26,14,0,20.99c-0.13,3.68,1.37,4.54,4.69,4.46c6.66-0.16,13.33,0.12,19.99-0.06
	c3.11-0.09,4.33,0.63,4.3,4.07c-0.07,9.42,0.11,9.42-9.38,9.42c-5.16,0-10.33,0.11-15.49-0.06c-2.98-0.1-4.15,0.91-4.08,3.99
	c0.16,7.33,0.23,14.67-0.02,21.99c-0.12,3.53,1.4,4.07,4.42,4.05c15.99-0.11,31.99,0.09,47.98-0.16c4.18-0.07,5.8,1.15,5.14,5.26
	c-0.53,3.27,1.97,7.86-4.93,7.74c-20.15-0.33-40.32-0.24-60.48-0.03c-3.98,0.04-4.68-1.43-4.65-4.91
	C541.75,288,541.67,273,541.67,258.01z"/>
<path class="st1" d="M658.06,150c0-5.99-0.14-11.99,0.06-17.98c0.1-2.95-0.64-4.42-3.83-3.98c-1.14,0.16-2.33,0.04-3.49,0.02
	c-7.43-0.13-6.19,1.02-6.67-6.69c-0.3-4.85,1.22-6.28,6.05-6.11c10.31,0.36,20.65,0.26,30.97,0.04c3.64-0.08,5.38,0.89,4.77,4.7
	c-0.05,0.32-0.01,0.67,0,1c0.05,7.04,0.05,7.04-7.2,7.05c-7.77,0.01-7.76,0.01-7.76,7.99c0.01,10.32-0.1,20.65,0.06,30.97
	c0.05,3.22-0.49,4.76-4.28,4.71c-8.67-0.1-8.68,0.11-8.67-8.74c0-1,0-2,0-3C658.06,156.66,658.06,153.33,658.06,150z"/>
<path class="st1" d="M699.7,93.47c0,5.81-0.1,11.62,0.04,17.42c0.07,2.62-0.92,3.34-3.46,3.43c-9.33,0.35-9.32,0.45-9.31-8.92
	c0-9.46,0.13-18.92-0.09-28.37c-0.08-3.32,1.03-4.14,4.21-4.12c8.6,0.05,8.6-0.09,8.62,8.61C699.71,85.51,699.7,89.49,699.7,93.47z"
	/>
<path class="st1" d="M629.65,93.05c0-5.5,0.15-11-0.06-16.49c-0.11-2.92,1-3.57,3.72-3.63c9.81-0.21,9.8-0.31,9.81,9.43
	c0,9.33-0.12,18.67,0.08,27.99c0.07,3.11-0.92,3.94-3.94,3.99c-9.59,0.16-9.59,0.29-9.62-9.29c-0.01-4,0-8,0-12
	C629.64,93.05,629.65,93.05,629.65,93.05z"/>
<path class="st1" d="M402.03,264.94c0,12.66-0.15,25.32,0.08,37.97c0.07,3.9-1,5.58-4.99,4.92c-0.97-0.16-2.02-0.19-2.99-0.02
	c-4.19,0.73-4.96-1.35-4.94-5.06c0.12-25.15-0.05-50.3,0.15-75.45c0.03-4.3-0.92-5.8-5.45-5.48c-6.3,0.45-12.65,0.02-18.98,0.17
	c-2.84,0.07-4.09-0.55-4.12-3.82c-0.08-9.12-0.26-9.12,8.72-9.12c18.82,0,37.64,0.1,56.46-0.09c3.82-0.04,5.19,0.81,5.03,4.9
	c-0.32,8.07-0.06,8.08-8.27,8.07c-5.16-0.01-10.34,0.26-15.48-0.09c-4.05-0.28-5.42,0.82-5.32,5.11
	C402.22,239.61,402.03,252.28,402.03,264.94z"/>
<path class="st1" d="M662.13,262.6c7.01-1.61,10.07,3.01,14.44,6.7c2.62,2.21,3.32,7.21,8.11,6.98c1.26-0.06,1.18,1.39,1.19,2.36
	c0.03,4.33,0.03,8.65,0.02,12.98c0,0.49-0.17,1.41-0.22,1.4c-4.29-0.23-3.82,5.47-7.51,6.02c-0.69,0.1-1.82,0.87-1.84,1.36
	c-0.17,4.5-5.02,6.11-7.03,6.83c-4.42,1.57-9.79,0.45-14.78,0.42c-0.21-4.15-6.83-2.56-6.47-7.25c0.08-1.03-0.68-1.34-1.62-1.43
	c-0.81-0.07-2.19-0.08-2.32-0.46c-0.82-2.38-2.75-3.87-4.04-5.67c-1.62-2.25-0.93-6.4-0.66-9.68c0.22-2.65-1.76-5.84,2.91-7.84
	c1.56-0.67,4.2-4.9,6.31-6.64C652.44,265.53,655.58,259.08,662.13,262.6z M662,270.34c-0.06,6.76,4.79,11.09,11.58,10.65
	c1.26-0.08,2.86,0.33,3.24-1.47c0.35-1.67,0.37-3.56-1.59-4.21c-3.32-1.09-3.9-4.85-6.84-6.61c-1.35-0.8-1.64-4.23-4.61-3.49
	C660.62,266,662.6,268.84,662,270.34z"/>
<path class="st1" d="M724.29,243.33c1.64,0.68,4.71,0.18,3.82,3.22c-0.98,3.31,2.95,7.53-2.68,10.25c-2.58,1.25-4.71,4.51-7.03,6.87
	c-1.88,1.91-10.09,3.93-11.88,2.2c-1.58-1.54-1.67-3.84-4.57-5.02c-4.73-1.92-7.32-10.25-6.15-15.72c0.18-0.83,0.29-1.71,1.16-2.05
	c4.01-1.6,6.15-5.14,9-8.05c2.67-2.74,6.87-0.79,10.38-1c2.62-0.15,1.53,2.43,2.24,3.72c-1.91,0.84-6.13-1.25-5.14,3.07
	c0.55,2.39-1.77,7.13,3.76,7.1C720.54,247.9,724.67,249.09,724.29,243.33z"/>
<path class="st2" d="M724.29,243.33c0.38,5.76-3.75,4.57-7.08,4.59c-5.53,0.03-3.22-4.71-3.76-7.1c-0.99-4.33,3.24-2.24,5.14-3.07
	c0.23,0.23,0.45,0.46,0.68,0.69c-0.23,3.51,2.05,4.39,4.9,4.66L724.29,243.33z"/>
<path class="st1" d="M724.17,243.1c-2.85-0.27-5.13-1.15-4.9-4.66C721.93,238.9,725.4,238.53,724.17,243.1z"/>
<path class="st1" d="M711.3,159.8c0.02-2.41,0.55-4.29,3.65-3.8c3.7,0.58,8.8-2.41,10.17,4.04c4.38-0.27,4.01,4.86,7.42,6.46
	c3.04,1.43,2.73,6.84,0.69,9.4c-2.07,2.6-3.36,6.05-6.87,7.75c-2.51,1.22-3.74,4.14-7.61,3.78c-5.61-0.52-8.63-3.46-12.47-7.26
	c-3.9-3.86-3.26-7.41-3.54-11.51c-0.18-2.72,1.38-2.96,3.42-2.76c-0.25,4.04,2.01,5.17,5.6,5.01c4-0.17,4.81-2.91,5.07-6.06
	C717.16,160.88,714.87,159.6,711.3,159.8z"/>
<path class="st2" d="M711.3,159.8c3.57-0.2,5.86,1.07,5.53,5.06c-0.26,3.15-1.07,5.89-5.07,6.06c-3.59,0.15-5.85-0.97-5.6-5.01
	C708.03,164,707.96,160.47,711.3,159.8z"/>
<path class="st1" d="M729.13,285.78c1.34,0.74,4.38-0.83,3.88,2.29c-0.34,2.07,2.3,5.79-2.59,5.99c-0.92,0.04-1.45,0.66-1.93,1.38
	c-3.26,4.96-5.59,4.57-9.67-0.13c-1.84-2.11-5.65-2.5-4.32-6.68c0.34-1.06-0.03-2.59,1.65-2.53c2.39,0.08,3.02-1.73,3.87-3.28
	c1.52-2.79,4.1-1.55,6.24-1.62c2.71-0.08,1.51,2.38,2.03,3.73c-0.98,0.04-1.96,0.11-2.94,0.11c-1.71,0.01-2.18,0.99-2.25,2.52
	c-0.09,1.89,1.13,2.61,2.57,3.1c1.45,0.49,2.68-0.04,3.14-1.5C729.11,288.11,729.03,286.92,729.13,285.78z"/>
<path class="st2" d="M729.13,285.78c-0.1,1.14-0.02,2.33-0.35,3.39c-0.46,1.46-1.68,1.99-3.14,1.5c-1.44-0.49-2.66-1.21-2.57-3.1
	c0.07-1.54,0.55-2.51,2.25-2.52c0.98-0.01,1.96-0.07,2.94-0.11C728.56,285.22,728.84,285.5,729.13,285.78z"/>
<path class="st1" d="M478.17,329.18c-0.11-1.8,0.58-2.63,2.54-2.81c4.95-0.46,10.79,4.75,10.34,9.37c-0.12,1.2-0.11,2.18-1.63,2.6
	c-1.74,0.47-3.12,1.23-3.48,3.55c-0.36,2.31-2.74,1.18-4.19,1.21c-3.85,0.07-9.03-6.9-8.34-10.63c0.45-2.45,2.21-2.01,3.75-2.26
	c0.32,1.71-1.25,4.21,1.83,4.77c2.03,0.37,3.76-0.33,3.9-2.61C483.11,328.87,480.56,329.04,478.17,329.18z"/>
<path class="st2" d="M478.17,329.18c2.39-0.14,4.94-0.31,4.72,3.18c-0.15,2.28-1.88,2.98-3.9,2.61c-3.08-0.56-1.51-3.06-1.83-4.77
	C477.49,329.86,477.83,329.52,478.17,329.18z"/>
<path class="st1" d="M663.09,219.82c1.45,0.53,4.21-0.76,3.79,2.38c-0.27,2.06,1.83,5.33-2.45,5.73c-1.09,0.1-2.2,0.73-2.17,1.71
	c0.12,3.6-2.25,3.28-4.6,3.28c-2.34-0.01-4.79,0.39-4.69-3.27c0.02-0.92-1.04-1.72-2.16-1.71c-3.23,0.01-2.58-2.35-2.62-4.23
	c-0.04-1.8-0.33-3.8,2.55-3.76c1.29,0.02,1.9-0.94,2.36-2.16c0.99-2.61,6.63-4.07,8.69-2.23c0.48,0.43,0.31,1.58,0.44,2.39
	c-1.71,0.23-3.83-0.48-4.8,1.62c-0.62,1.35-0.84,2.96,0.39,4.12c0.8,0.76,1.89,1.44,3.14,1.08
	C663.6,223.99,662.78,221.65,663.09,219.82z"/>
<path class="st2" d="M663.09,219.82c-0.3,1.83,0.52,4.16-2.13,4.94c-1.24,0.36-2.33-0.32-3.14-1.08c-1.23-1.16-1.01-2.77-0.39-4.12
	c0.97-2.1,3.09-1.39,4.8-1.62C663.21,218.26,663,219.11,663.09,219.82z"/>
<path class="st2" d="M743.07,213.92c-0.07,1.31,0.02,2.65-0.24,3.92c-0.36,1.76-1.73,2.29-3.38,2.03c-1.78-0.28-2.34-1.52-2.4-3.19
	c-0.07-1.87,0.75-2.72,2.62-2.66c1.15,0.03,2.29-0.05,3.44-0.08C743.11,213.95,743.07,213.92,743.07,213.92z"/>
<path class="st1" d="M449.81,122.37c0-14.99,0.1-29.98-0.07-44.97c-0.04-3.43,0.87-4.51,4.42-4.48c20.49,0.17,40.97,0.17,61.46,0
	c3.67-0.03,4.47,1.25,4.3,4.62c-0.47,9.51,1.45,8.24-8.15,8.3c-14.99,0.08-29.98,0.12-44.97-0.05c-3.46-0.04-4.64,0.94-4.52,4.47
	c0.25,7.15,0.19,14.32,0.05,21.48c-0.06,2.81,0.88,3.82,3.72,3.76c6.83-0.14,13.66,0.13,20.48-0.08c3.39-0.1,4.61,0.83,4.58,4.42
	c-0.08,9.22,0.1,9.22-9.08,9.2c-5.33-0.01-10.67,0.15-15.99-0.05c-2.9-0.11-3.76,0.98-3.71,3.75c0.12,7.16,0.19,14.33-0.05,21.48
	c-0.12,3.64,0.91,4.87,4.74,4.82c15.82-0.22,31.65,0.07,47.47-0.19c4.38-0.07,5.85,1.01,5.48,5.51c-0.63,7.61,1.76,7.3-7.68,7.32
	c-19.15,0.04-38.31-0.07-57.46,0.12c-3.84,0.04-5.15-0.91-5.08-4.96c0.24-14.82,0.1-29.65,0.1-44.47
	C449.82,122.37,449.82,122.37,449.81,122.37z"/>
<path class="st1" d="M472.06,105.06c-0.17,1.83-0.33,3.67-0.5,5.5c-0.47-5.09-0.81-10.17,0.08-15.24c0.16,0.18,0.29,0.38,0.39,0.6
	C472.05,98.97,472.06,102.02,472.06,105.06z"/>
<path class="st1" d="M663.23,49.05c2.67-3.57,6.77-3.83,8.68-0.2c1.02,1.94,3.92,1.21,4.17,4.2c0.42,4.98-6.67,11.48-11.49,9.97
	c-3.19-1-6.47-8.14-5.38-11.46c0.51-1.56,1.79-1.16,2.83-1.44c0.03,2.32-0.3,4.96,3.24,4.82c2.45-0.1,2.9-1.9,2.65-3.87
	C667.52,47.85,664.89,49.53,663.23,49.05z"/>
<path class="st2" d="M663.23,49.05c1.66,0.48,4.29-1.19,4.7,2.02c0.25,1.97-0.2,3.77-2.65,3.87c-3.54,0.14-3.22-2.5-3.24-4.82
	C662.43,49.76,662.83,49.4,663.23,49.05z"/>
<path class="st1" d="M746.05,127.04c-2.66,0.09-5.35,0.15-5,4c-3.37,0-6.74,0-10.11,0c0.5-1.63,0.15-2.9-1.47-3.73
	c-4.37-2.25-1.82-5.96-1.68-9.03c0.05-1.19,1.95-0.78,3.06-0.87c0.16,2.47-0.04,5.11,3.85,4.66c2.04-0.24,2.43-1.35,2.27-2.99
	c-0.33-3.38-2.77-3.07-5.12-2.87c-0.16,0.01-0.33,0.04-0.49,0.06c-0.1-1.55-0.97-3.9,1.67-3.64c2.69,0.26,6.04-1.95,8.05,1.49
	c1.16,1.99,2.23,3.75,4.96,2.83C746.05,120.31,746.05,123.68,746.05,127.04z"/>
<path class="st2" d="M731.37,116.26c0.16-0.02,0.33-0.04,0.49-0.06c2.36-0.2,4.8-0.51,5.12,2.87c0.16,1.65-0.23,2.75-2.27,2.99
	c-3.89,0.46-3.69-2.19-3.85-4.66C731.03,117.02,731.2,116.64,731.37,116.26z"/>
<path class="st2" d="M37,183c6.54-0.27,6.71-0.44,6.99-7.01c4.78,0.03,6,1.48,6.06,6.94c0.04,4.05-1.91,5.6-5.84,5.14
	C40.83,187.68,35.88,189.7,37,183z"/>
<path class="st2" d="M386.45,45.01c-1.34-0.21-3.23,0.78-3.99-0.99c-0.86-2.01,1.45-2.25,2.36-3.26c1.22-1.36,2.44-2.76,3.85-3.9
	c1.38-1.12,2.62-4.15,4.69-2.09c1.56,1.55,1.42,4.79,0.07,6.55C391.87,43.38,390.01,46.11,386.45,45.01z"/>
<path class="st2" d="M356.84,25.47c-0.12,1.57-1.06,2.3-2.54,2.39c-1.65,0.1-2.33-0.79-2.31-2.37c0.01-1.55,0.65-2.52,2.3-2.43
	C355.76,23.14,356.66,23.96,356.84,25.47z"/>
<path class="st2" d="M154.04,45.04c2.36,0.32,5.67-0.99,5.85,3.19c0.07,1.74-1.03,2.79-2.75,2.7c-4.21-0.22-2.78-3.54-3.1-5.88
	C154.03,45.05,154.04,45.04,154.04,45.04z"/>
<path class="st2" d="M662,270.34c0.6-1.5-1.38-4.34,1.78-5.13c2.96-0.74,3.26,2.69,4.61,3.49c2.94,1.76,3.52,5.52,6.84,6.61
	c1.96,0.64,1.95,2.53,1.59,4.21c-0.38,1.8-1.98,1.39-3.24,1.47C666.78,281.43,661.93,277.11,662,270.34z"/>
<path class="st3" d="M107.97,260.2c-2.94-0.18-3.08,1.37-3.17,3.65c-0.09,2.54,0.61,3.51,3.31,3.44c2.62-0.07,4.3-0.48,3.59-3.8
	C112.57,260.27,110.39,260.35,107.97,260.2z"/>
<path class="st4" d="M112.07,294.96c-0.04,0-0.08,0-0.12,0c0,0.03,0.01,0.06,0.01,0.09L112.07,294.96z"/>
<path class="st4" d="M63.04,302.06c0-0.05,0.01-0.09,0.01-0.13c-0.02,0-0.04,0-0.06,0L63.04,302.06z"/>
<path class="st4" d="M49.07,294.98c0-0.01,0-0.02,0-0.02c-0.05,0-0.09,0-0.14,0L49.07,294.98z"/>
<path class="st5" d="M127.95,260.45c-0.2-0.03-0.4-0.08-0.59-0.14c-1.38,0.77-2.91,0.51-4.37,0.71c-2.34,0.31-3.62-0.28-4.15-1.63
	l0.25,14.74c0.34,0,0.68,0,1.03,0c1.49-0.07,2.99-0.14,4.48-0.21c0.1-1.66-0.31-3.61,0.44-4.9c0.75-1.3,2.2-3.91,4.44-1.12
	c0.35-0.01,0.71-0.02,1.06-0.02C130.99,264.94,134.48,260.95,127.95,260.45z"/>
<path class="st4" d="M118.58,256.46c0.18-1.98-0.11-4,0.06-5.98c0.23-2.7-0.6-4.15-3.54-3.75c-2.66,0.37-3.67-0.89-3.33-3.44
	c0.34-2.54-0.65-3.55-3.32-3.49c-7.15,0.14-14.3,0.14-21.45,0c-2.47-0.05-3.31,0.85-2.99,3.16c0.36,2.6-0.34,4.25-3.41,3.75
	c-2.84-0.46-3.75,0.77-3.62,3.59c0.21,4.48-0.06,8.98,0.09,13.46c0.08,2.44-0.42,3.87-3.21,3.43c-3.2-0.5-4.2,1.12-3.77,4.01
	c0.39,2.63-1.07,2.95-3.22,2.92c-4.65-0.07-9.31,0.21-13.96,0.05c-2.67-0.09-3.36,0.9-3.41,3.44c-0.11,5.77,0.65,11.58-0.43,17.33
	c2.44-0.04,4.87-0.12,7.31-0.12c7.14,0.01,7.19,0.03,6.66,7.09c10.24-0.05,20.48-0.18,30.72-0.1c2.83,0.02,4.54-0.48,4.01-3.76
	c-0.44-2.7,0.89-3.41,3.39-3.27c3.59,0.2,7.19,0.12,10.78,0.16c-0.85-6.04,0.15-12.1-0.21-18.14c-0.13-2.2,0.87-2.92,2.95-2.77
	c1.46,0.1,2.93,0.08,4.4,0.07l-0.25-14.74C118.54,258.64,118.47,257.66,118.58,256.46z M108.12,267.28
	c-2.71,0.08-3.41-0.89-3.31-3.44c0.08-2.28,0.22-3.83,3.17-3.65c2.42,0.15,4.6,0.08,3.74,3.29
	C112.41,266.8,110.73,267.21,108.12,267.28z"/>
</svg>
