<?xml version="1.0" encoding="utf-8"?>
<!-- Generator: Adobe Illustrator 23.0.3, SVG Export Plug-In . SVG Version: 6.00 Build 0)  -->
<svg version="1.1" id="Layer_1" xmlns="http://www.w3.org/2000/svg" xmlns:xlink="http://www.w3.org/1999/xlink" x="0px" y="0px"
	 viewBox="0 0 738.3 125.4" style="enable-background:new 0 0 738.3 125.4;" xml:space="preserve">
<style type="text/css">
	.st0{fill:#070D0F;}
	.st1{fill:#060C0E;}
	.st2{fill:#060B0D;}
	.st3{fill:#070E11;}
	.st4{fill:#060A0C;}
	.st5{fill:#06090A;}
	.st6{fill:#050708;}
	.st7{fill:#FE5500;}
	.st8{fill:#2CBDFB;}
	.st9{fill:#B4E7FA;}
	.st10{fill:#2BBDFB;}
	.st11{fill:#B5E8FB;}
	.st12{fill:#FEFE00;}
	.st13{fill:#FEBA00;}
</style>
<path class="st0" d="M738.3,39.8c-2.1,0.8-3.7,2.2-4.9,4.1c-0.9,1.4-2.3,0.5-3.5,0.7c-1,0.2-1.3-0.3-1.2-1.2c0-0.3,0-0.7-0.4-0.7
	c-2.1-0.1-2.1-2.5-3.8-3.3c-1.7-0.8-0.9-3.8,1-4.4c0.3-0.1,0.6-0.2,0.9-0.3c-0.9-2.4,2.7-1.7,2.7-3.8c0-0.7,4.3-0.1,4.6,1
	c0.2,0.6,0.4,0.7,0.9,0.8c0.5,0.1,1.4,0.5,1.3,0.7c-0.1,2.2,1.4,1.6,2.5,1.6C738.3,36.6,738.3,38.2,738.3,39.8z M733,35
	c0.2-1.4-0.2-1.8-1.8-1.9c-2.6-0.2-2.5,2.9-4.5,3.2c0.5,1.3-1.3,3.5,1.6,3.8c0.2,0,0.4,0.5,0.5,0.7c0.1,1.7,1.4,1.5,2.6,1.5
	c1.2,0.1,1.7-0.3,1.7-1.6c0-0.6,0.6-0.8,1.3-0.9c2.1-0.2,0.7-1.9,1-2.8c0.3-1-0.1-1.7-1.3-1.5C733.9,35,733.4,35.1,733,35z"/>
<path class="st1" d="M237.6,0c0,2.5,2.3,3,3.7,4.3c1.5,1.4,1.4,4-0.1,5.4c-1,0.9-2,2-3,2.9c-1.5,1.5-3.8,1.5-5.3,0.3
	c-1.4-1.1-1.6-2.8-3.3-3.6c-1.6-0.7-1.2-3.5,0.2-4.7c1.6-1.3,3.1-2.7,4-4.6C235.1,0,236.3,0,237.6,0z M232.8,5.3
	c-1.3-0.2-1.6,0.5-1.3,1.5c0.2,0.8-0.9,2.3,1,2.3c0.7,0,1.3,0.3,1.3,1.1c0,0.8,0.1,1.4,1.1,1.3c0.9-0.1,2.1,0.4,2.6-1
	c0.2-0.6,0.4-1.4,1.2-1.3c1.5,0.1,1.5-0.7,1.4-1.8c-0.1-1,0.4-2.4-1.5-2.2c-0.3,0-0.8-0.5-0.8-0.7c0.1-2-1.3-1.4-2.4-1.6
	c-1.7-0.3-1.5,1.2-2.1,1.9C233.1,4.9,232.9,5.1,232.8,5.3z"/>
<path d="M92.2,89.3c-4.6,0-9.1,0-13.7,0c-1,0-2,0.1-1.7-1.4c0.1-0.5,0-1.1-0.7-1c-2,0.4-1.9-0.9-1.7-2.1c0.2-1.7-0.2-2.5-2.1-2.2
	c-1.2,0.1-3.1,0.7-2.7-1.8c0-0.1-0.3-0.5-0.4-0.5c-2.9,0.4-1.9-1.8-2-3.1c-0.1-10.9,0-21.8-0.1-32.6c0-1.6,0.1-2.4,2.1-2.3
	c5.1,0.2,5.1,0,5.1-5.1c0-1.4,0.2-2.1,1.9-2c6.8,0.1,13.6,0.1,20.4,0c0.9,0,2-0.2,1.8,1.3c-0.1,0.9,0.3,1.2,1.1,1
	c1.8-0.4,2,0.8,1.8,2.1c-0.4,2.3,0.5,3.2,2.8,2.8c1-0.2,1.8,0,1.6,1.3c-0.1,0.4-0.1,1.1,0.6,1c2.3-0.3,1.8,1.3,1.8,2.5
	c0,2.1,0,4.2,0,6.2c0,1-0.3,1.4-1.3,1.4c-2.6-0.1-5.3-0.1-7.9,0c-1,0-1.5-0.2-1.3-1.3c0.1-0.6,0.1-1.2-0.8-1.1
	c-1.8,0.3-1.7-0.9-1.6-2c0.2-1.8-0.3-2.5-2.3-2.4c-3.7,0.2-7.4,0.1-11,0c-1.2,0-1.7,0.2-1.6,1.5c0.1,8.6,0.1,17.1,0,25.7
	c0,1.2,0.2,1.7,1.5,1.6c3.9-0.1,7.8-0.1,11.8,0c1.2,0,1.7-0.2,1.6-1.5c-0.2-2.1,0.6-4.9-0.4-6.3c-1-1.3-3.9-0.3-5.9-0.4
	c-1-0.1-1.9,0-2.9,0c-1.2,0-2.8,0.5-2.3-1.7c0.1-0.3-0.2-0.7-0.5-0.6c-2.5,0.4-1.8-1.4-1.9-2.7c0-2.4-0.8-5.6,0.4-6.9
	c1.4-1.5,4.7-0.4,7.1-0.5c5-0.1,10.1,0,15.1,0c1,0,2.2-0.2,1.9,1.5c-0.1,0.5,0.1,1,0.7,0.9c2.1-0.4,1.7,1,1.7,2.2
	c0,8.9,0,17.8,0,26.6c0,1.6-0.4,2-2,2C101.5,89.2,96.8,89.3,92.2,89.3z M103.2,71.7c0-3.9-0.1-7.8,0-11.7c0-1.4-0.3-1.9-1.8-1.9
	c-4.6,0.1-9.3,0-13.9,0c-4.6,0-4.5,0-4.5,4.5c0,1.6,0.5,1.8,1.9,1.8c3.4-0.1,6.9,0,10.3-0.1c1.3,0,1.8,0.3,1.8,1.7
	c-0.1,3.7-0.1,7.4,0,11c0,1.3-0.3,1.8-1.7,1.7c-4.8-0.1-9.6,0-14.4,0c-4.9,0-4.8,0-4.6,4.8c0.1,1.2,0.5,1.4,1.5,1.4
	c7.9,0,15.8-0.1,23.7,0c1.5,0,1.7-0.6,1.7-1.8C103.2,79.3,103.2,75.5,103.2,71.7z M75.9,61.2c0-4.2,0-8.3,0-12.5
	c0-4.7,0-4.6-4.8-4.7c-1.5,0-2,0.4-2,2c0.1,9.1,0,18.2,0,27.3c0,5,0,4.9,5,4.9c1.3,0,1.8-0.3,1.7-1.7C75.8,71.4,75.9,66.3,75.9,61.2
	z M86.2,43.7c1.8,0,3.7,0,5.5,0c5,0,4.9,0,4.9-5c0-1.4-0.4-1.7-1.7-1.7c-4.5,0.1-8.9,0-13.4,0c-5.4,0-5.3,0-5.1,5.3
	c0,1.1,0.4,1.5,1.5,1.5C80.6,43.6,83.4,43.7,86.2,43.7z M103.2,47c0.2-1.6,0.3-3.3-2.7-2.9c-1.9,0.3-4-0.5-3.6,2.8
	c0.3,1.9-0.5,3.9,2.8,3.6C103.2,50.1,103.2,50.4,103.2,47z"/>
<path d="M485.3,61.9c0.8,1.3,1.7,0.9,2.5,0.9c1.1,0,2.1-0.1,1.8,1.6c-0.1,0.4,0,0.9,0.5,0.8c2.6-0.4,1.8,1.5,1.8,2.7
	c0,4.2,0,8.5,0,12.7c0,1.4-0.2,1.9-1.8,1.9c-4.9,0-5,0.1-4.9,4.8c0,1.4-0.2,1.9-1.8,1.9c-9.3-0.1-18.5-0.1-27.8,0
	c-1.1,0-1.9-0.1-1.6-1.5c0.1-0.5-0.1-1-0.7-0.9c-2.1,0.4-1.7-1.1-1.7-2.2c0-15.8,0-31.7,0-47.5c0-1.7,0.3-2.3,2.2-2.2
	c9,0.1,17.9,0,26.9,0.1c1.1,0,2.6-0.4,2.2,1.6c-0.1,0.3,0.1,0.8,0.4,0.7c2.9-0.4,2,1.8,1.9,3.1c-0.1,1.6,0.5,1.9,1.9,1.8
	c1.3-0.1,2.9-0.5,2.5,1.8c-0.1,0.4,0.3,0.6,0.6,0.5c2.1-0.4,1.8,1.1,1.8,2.3c0,4.5,0,9,0,13.4c0,1.3-0.4,1.7-1.6,1.6
	C488.7,61.8,487,61.9,485.3,61.9z M453.6,61c0,7,0.1,14.1-0.1,21.1c0,2.2,0.3,3,2.8,2.9c6.8-0.2,13.6-0.1,20.4-0.1
	c4.3,0,4.2,0,4.3-4.2c0-1.7-0.5-2.1-2.1-2.1c-5.6,0.1-11.2,0-16.8,0.1c-1.3,0-1.8-0.2-1.8-1.7c0.1-3.7,0.1-7.4,0-11
	c0-1.3,0.3-1.8,1.7-1.8c4.7,0.1,9.4,0,14.2,0c4.9,0,4.8,0,4.8-4.8c0-1.7-0.6-1.9-2.1-1.9c-5.6,0.1-11.2,0-16.8,0.1
	c-1.5,0-1.9-0.3-1.9-1.8c0.1-3.4,0.1-6.9,0-10.3c-0.1-1.5,0.4-1.9,1.9-1.8c4.7,0.1,9.4,0,14.2,0c4.7,0,4.6,0,4.7-4.8
	c0-1.5-0.4-2-2-2c-7.8,0.1-15.7,0.1-23.5,0c-1.6,0-2,0.5-2,2C453.7,46.3,453.6,53.6,453.6,61z M471.9,76.8c0.5,0,1,0,1.4,0
	c6.9,0,6.9,0,6.2-7c-0.1-1-0.4-1.2-1.3-1.2c-4.2,0-8.3,0-12.5,0c-0.7,0-1.2,0.1-1.2,1c0.1,2.3-0.6,5,0.4,6.8
	c0.7,1.3,3.7,0.2,5.7,0.4C471.1,76.8,471.5,76.8,471.9,76.8z M472,55.7c0.6,0,1.1,0,1.7,0c6.3,0,6.3,0,5.9-6.3
	c-0.1-1-0.3-1.4-1.4-1.4c-2.6,0.1-5.1,0-7.7,0c-6.3,0-6.3,0-5.9,6.3c0.1,1,0.3,1.4,1.4,1.4C468,55.6,470,55.7,472,55.7z M487.7,71.5
	c0-0.7,0-1.4,0-2.2c0-5.1,0-5.1-5.1-4.6c-1,0.1-1.2,0.4-1.2,1.3c0,3.7,0,7.3,0,11c0,0.5-0.1,1.2,0.8,1.2c1.7,0,3.7,0.4,5.1-0.3
	c0.9-0.4,0.2-2.5,0.3-3.8C487.8,73.2,487.7,72.4,487.7,71.5z M487.7,50.9c0-0.7,0-1.4,0-2.1c0-5.1,0-5.1-5-4.6
	c-0.9,0.1-1.2,0.4-1.2,1.3c0,3.5,0,7,0,10.5c0,0.7,0.1,1.1,1,1.2c4.6,0.7,5.3,0.2,5.3-4.4C487.7,52.1,487.7,51.5,487.7,50.9z"/>
<path d="M319.2,61.9c0.8,1.3,1.7,0.9,2.5,0.9c1.2,0,2.1,0,1.8,1.6c-0.1,0.4,0,0.9,0.6,0.8c2.3-0.4,1.8,1.3,1.8,2.5
	c0,6.6,0,13.1,0,19.7c0,1.4-0.2,2-1.8,1.9c-2-0.2-4,0-6,0c-1.2,0-2.7,0.4-2.4-1.7c0.1-0.7-0.5-0.7-1-0.6c-2,0.4-1.9-0.9-1.9-2.2
	c0.1-4.7,0-9.4,0-14.2c0-1.4-0.2-2-1.8-1.9c-3.8,0.1-7.7,0.1-11.5,0c-1.4,0-1.7,0.5-1.7,1.8c0.1,5.6-0.1,11.2,0.1,16.8
	c0.1,1.9-0.5,2.3-2.3,2.2c-2.1-0.2-4.3-0.1-6.5,0c-0.9,0-1.6-0.1-1.4-1.2c0.1-0.5,0.1-1.3-0.7-1.1c-2.1,0.4-1.7-1.1-1.7-2.2
	c0-15.8,0-31.7,0-47.5c0-1.8,0.4-2.2,2.2-2.2c9,0.1,17.9,0,26.9,0.1c1.1,0,2.6-0.4,2.2,1.6c-0.1,0.3,0.1,0.8,0.4,0.7
	c2.7-0.4,2,1.6,1.9,2.9c-0.2,1.8,0.6,2.2,2.2,2c1.1-0.1,2.6-0.5,2.2,1.6c-0.1,0.3,0.1,0.8,0.4,0.7c3.1-0.4,1.9,2,2,3.3
	c0.1,4.1,0,8.2,0.1,12.2c0,1.5-0.4,1.9-1.9,1.8C322.5,61.8,320.9,61.9,319.2,61.9z M287.5,60.9c0,6.6,0,13.3,0,19.9
	c0,4.2,0,4.1,4.3,4.2c1.6,0,2-0.4,2-2c-0.1-5.6,0-11.2-0.1-16.8c0-1.6,0.4-2,2-2c4.8,0.1,9.6,0,14.4,0c4.9,0,4.8,0,4.8-4.9
	c0-1.7-0.6-1.9-2.1-1.9c-5.8,0.1-11.5,0-17.3,0.1c-1.4,0-1.9-0.3-1.9-1.8c0.1-3.4,0.1-6.9,0-10.3c-0.1-1.5,0.4-1.9,1.9-1.9
	c4.9,0.1,9.7,0,14.6,0c4.7,0,4.7,0,4.7-4.7c0-1.5-0.2-2.1-1.9-2c-7.8,0.1-15.7,0.1-23.5,0c-1.8,0-2,0.6-2,2.2
	C287.6,46.4,287.5,53.6,287.5,60.9z M321.6,75c0-2,0-4,0-6c0-4.3,0-4.3-4.4-4.3c-1.4,0-1.9,0.3-1.9,1.8c0.1,4.6,0,9.2,0,13.9
	c0,4.7,0,4.6,4.6,4.5c1.2,0,1.7-0.3,1.6-1.6C321.6,80.6,321.6,77.8,321.6,75z M305.4,55.7c0.6,0,1.1,0,1.7,0c6.1,0,6.1,0,5.9-6.1
	c0-1.2-0.3-1.7-1.6-1.6c-2.5,0.1-5,0-7.4,0c-6.3,0-6.3,0-5.9,6.3c0.1,1,0.3,1.4,1.3,1.4C301.4,55.6,303.4,55.7,305.4,55.7z
	 M321.6,50.8c0-0.7,0-1.4,0-2.1c0-4.8,0-4.8-4.9-4.5c-1,0.1-1.4,0.3-1.4,1.4c0.1,2.8,0,5.6,0,8.4c0,3.3,0,3.1,3.2,3.3
	c2.5,0.2,3.4-0.6,3-3.1C321.5,53,321.6,51.9,321.6,50.8z"/>
<path d="M496.3,64.6c0-6.8,0-13.6,0-20.4c0-1.5,0.4-2,1.9-2c4.8,0.1,4.9,0,4.8-4.7c-0.1-2,0.4-2.5,2.4-2.5
	c6.6,0.1,13.3,0.1,19.9,0.1c1.1,0,2.6-0.4,2.2,1.6c-0.1,0.3,0.1,0.8,0.4,0.7c2.6-0.4,2,1.6,1.9,2.9c-0.2,1.8,0.6,2.2,2.1,2
	c1.1-0.1,2.6-0.5,2.2,1.6c-0.1,0.3,0.1,0.8,0.4,0.7c3.1-0.4,2,2,2,3.3c0.1,13.1,0,26.2,0.1,39.3c0,1.7-0.4,2.2-2.1,2.1
	c-1.8-0.2-3.7,0-5.5,0c-1.2,0-2.9,0.6-2.5-1.8c0.1-0.4-0.2-0.7-0.6-0.6c-2.3,0.4-1.8-1.2-1.8-2.5c0-4.6-0.1-9.3,0-13.9
	c0-1.4-0.2-2-1.8-1.9c-3.8,0.1-7.5,0.1-11.3,0c-1.7-0.1-1.9,0.6-1.9,2c0.1,5.5,0,11,0.1,16.5c0,1.6-0.2,2.3-2,2.2
	c-2.4-0.2-4.8-0.1-7.2,0c-0.9,0-1.6-0.1-1.4-1.3c0.1-0.5,0.1-1.3-0.7-1.1c-2.1,0.4-1.6-1.1-1.6-2.2C496.3,78,496.3,71.3,496.3,64.6z
	 M498.3,64.6c0,5.4,0,10.7,0,16.1c0,4.4,0,4.3,4.4,4.4c1.7,0,1.9-0.6,1.9-2.1c-0.1-5.6,0-11.2-0.1-16.8c0-1.5,0.3-1.9,1.8-1.9
	c6,0.1,12,0.1,18,0c1.5,0,1.9,0.4,1.8,1.9c-0.1,5,0,9.9,0,14.9c0,3.9,0,3.8,4,4c1.8,0.1,2.3-0.4,2.2-2.2c-0.1-11.4,0-22.9,0-34.3
	c0-4.4,0-4.3-4.4-4.4c-1.7,0-2,0.6-1.9,2.1c0.1,3.3,0,6.6,0,9.8c0,1,0,1.6-1.3,1.6c-6.3-0.1-12.6-0.1-19,0c-1.1,0-1.4-0.4-1.3-1.4
	c0.1-2.6,0-5.3,0-7.9c0-4.2,0-4.1-4.3-4.2c-1.5,0-2,0.4-2,2C498.3,52.2,498.3,58.4,498.3,64.6z M515.3,43.7c1.8,0,3.7,0,5.5,0
	c5,0,4.9,0,4.9-5c0-1.3-0.3-1.8-1.7-1.7c-4.7,0.1-9.4,0-14.1,0c-5,0-4.9,0-4.9,5c0,1.3,0.3,1.8,1.7,1.7
	C509.5,43.6,512.4,43.7,515.3,43.7z M516.5,55.7c0.6,0,1.1,0,1.7,0c6.3,0,6.3,0,6-6.3c0-0.9-0.1-1.4-1.3-1.4c-4.2,0.1-8.3,0-12.5,0
	c-0.7,0-1.1,0.1-1.2,1c-0.9,6.1-0.4,6.7,5.6,6.7C515.4,55.7,516,55.7,516.5,55.7z"/>
<path d="M224.2,61.9c1,1.3,1.8,0.9,2.4,0.9c1.2,0.1,2.8-0.4,2.3,1.8c-0.1,0.3,0.2,0.7,0.5,0.6c2.5-0.4,2,1.5,1.8,2.7
	c-0.2,1.9,0.5,2.4,2.3,2.1c1.2-0.2,2.5-0.3,2.1,1.7c-0.1,0.5,0.3,0.8,0.7,0.7c2.1-0.4,1.6,1.1,1.7,2.2c0,4.3-0.1,8.6,0,13
	c0,1.4-0.4,1.8-1.7,1.7c-2.1-0.1-4.2,0-6.2,0c-1.2,0-2.6,0.3-2.2-1.7c0.1-0.5-0.2-0.8-0.7-0.7c-2,0.4-1.7-1-1.7-2.2
	c0-2.6-0.1-5.1,0-7.7c0.1-1.3-0.3-1.8-1.7-1.7c-1.3,0.1-3.1,0.6-2.7-1.9c0-0.1-0.3-0.5-0.4-0.5c-2.7,0.4-1.9-1.6-1.9-2.9
	c0-1.1-0.2-1.6-1.4-1.5c-2.2,0.2-5.1-0.9-6.4,0.5c-1.1,1.1-0.3,3.9-0.3,6c0,4.1-0.1,8.2,0,12.2c0,1.5-0.2,2.1-1.9,2
	c-2-0.2-4,0-6-0.1c-1.3,0-3.1,0.7-2.7-1.9c0-0.1-0.3-0.5-0.4-0.5c-3.1,0.3-1.9-2-1.9-3.3c-0.1-15.4,0-30.9-0.1-46.3
	c0-1.9,0.5-2.4,2.4-2.3c1.9,0.2,3.8,0,5.8,0c1.3,0,2.9-0.5,2.5,1.8c-0.1,0.4,0.2,0.6,0.6,0.6c2.4-0.4,1.8,1.3,1.8,2.5
	c0,4.9,0.1,9.8,0,14.6c0,1.3,0.3,1.8,1.6,1.6c0.2,0,0.5,0,0.7,0c1.9-0.1,4.3,0.8,5.5-0.4c1.1-1,0.3-3.5,0.3-5.3
	c0-1.3,0.3-1.6,1.6-1.6c1.7,0,3.9,0.8,4.8-0.3c1-1.1,0.3-3.3,0.3-5.1c0.1-2.4,0.1-4.8,0-7.2c0-1.1,0.3-1.4,1.4-1.3
	c2.5,0.1,5,0,7.4,0c0.6,0,1.4-0.2,1.3,0.8c-0.2,1.2,0.3,1.8,1.6,1.6c1.1-0.1,0.8,0.7,0.8,1.3c0,4.9,0,9.8,0,14.6
	c0,1.3-0.6,1.3-1.6,1.4c-1.7,0.1-4-0.8-5,0.4c-0.8,1.1-0.3,3.2-0.2,4.9c0.1,1.5-0.3,2-1.8,1.9C228,61.8,226.3,61.9,224.2,61.9z
	 M199.7,60.8c0,6.5,0,12.9,0,19.4c0,4.9,0,4.8,4.9,4.8c1.7,0,1.9-0.7,1.9-2.1c-0.1-5.6,0-11.2-0.1-16.8c0-1.5,0.4-1.9,1.9-1.9
	c2.6,0.1,5.1,0,7.7,0c4.5,0,4.4,0,4.5-4.5c0-1.6-0.6-1.8-1.9-1.8c-3.4,0.1-6.9,0-10.3,0.1c-1.3,0-1.8-0.3-1.7-1.7
	c0.1-5,0-9.9,0-14.9c0-4.6,0-4.5-4.6-4.6c-1.9-0.1-2.2,0.6-2.2,2.3C199.8,46.4,199.7,53.6,199.7,60.8z M227.5,43.4
	c0,0.8,0,1.6,0,2.4c0,5.1,0,5.1,5,4.6c0.9-0.1,1.2-0.4,1.2-1.3c0-3.7,0-7.3,0-11c0-0.7-0.1-1.1-1-1.2c-4.6-0.7-5.3-0.2-5.3,4.4
	C227.5,42,227.5,42.7,227.5,43.4z M233.8,78.3c0-0.8,0-1.6,0-2.4c0-4.6,0-4.6-4.7-4.4c-1.3,0-1.6,0.5-1.5,1.7c0.1,3,0.2,6.1,0,9.1
	c-0.2,2.4,0.6,2.9,2.9,2.8c3.4-0.2,3.4-0.1,3.4-3.6C233.8,80.4,233.8,79.4,233.8,78.3z M220.8,54.2c0,1.8-0.7,3.8,2.6,3.5
	c3.6-0.4,3.6-0.1,3.6-2.9c0-3.9,0-3.9-2.8-3.9C220.8,50.9,220.8,50.9,220.8,54.2z M223.6,64.8c-1.4-0.1-3.4-0.5-2.8,2.7
	c0.3,1.8-0.7,4.2,2.7,3.6c1.8-0.3,4,0.7,3.6-2.7C226.8,64.8,227.1,64.8,223.6,64.8z"/>
<path d="M628.8,60.9c0-8,0-16,0-24c0-1.4,0.2-1.9,1.8-1.9c11.7,0.1,23.3,0.1,35,0c1.1,0,1.9,0.1,1.6,1.5c-0.1,0.5,0.1,1,0.7,0.9
	c2.1-0.4,1.6,1.1,1.7,2.2c0,2.2-0.1,4.5,0,6.7c0.1,1.4-0.4,1.7-1.7,1.7c-8.1-0.1-16.1,0-24.2-0.1c-1.6,0-2.1,0.4-2,2
	c0.2,2-0.7,4.6,0.3,5.8c1.2,1.3,3.9,0.3,5.9,0.4c1.2,0.1,2.4,0,3.6,0c1,0,2-0.1,1.7,1.4c-0.1,0.5,0,1.1,0.7,0.9c2-0.4,1.8,1,1.7,2.2
	c-0.1,2.6,1.1,6.1-0.5,7.6c-1.4,1.3-4.9,0.3-7.4,0.4c-2,0.1-4.6-0.9-5.7,0.4c-1,1.1-0.2,3.6-0.4,5.5c-0.2,1.7,0.3,2.3,2.2,2.3
	c7.1-0.1,14.2,0,21.3-0.1c1.2,0,2.3-0.2,2,1.6c-0.1,0.3,0.1,0.8,0.4,0.7c3.1-0.4,1.8,2,2,3.3c0.2,1.7-0.1,3.5,0.1,5.3
	c0.1,1.3-0.4,1.6-1.6,1.6c-11.8,0-23.5,0-35.3,0c-1,0-1.8,0-1.6-1.3c0.1-0.4,0.1-1.1-0.6-1c-2.3,0.3-1.8-1.3-1.8-2.5
	C628.8,76.5,628.8,68.7,628.8,60.9z M630.7,60.8c0,7.4,0.1,14.7,0,22.1c0,1.7,0.4,2.1,2.1,2.1c9.5-0.1,19,0,28.6,0c4,0,3.9,0,4-4
	c0-1.7-0.3-2.3-2.2-2.3c-7.9,0.1-15.8,0-23.8,0.1c-1.6,0-2-0.4-2-2c0.1-3.5,0.1-7,0-10.6c0-1.3,0.1-2,1.8-1.9c2.6,0.2,5.1,0,7.7,0
	c4.7,0,4.6,0,4.5-4.7c0-1.3-0.4-1.6-1.6-1.6c-3.4,0.1-6.9-0.1-10.3,0.1c-1.8,0.1-2.1-0.5-2.1-2.2c0.1-3.4,0.1-6.7,0-10.1
	c-0.1-1.7,0.3-2.3,2.2-2.3c7,0.1,14.1,0.1,21.1,0.1c4.6,0,4.5,0,4.6-4.6c0.1-1.9-0.6-2.2-2.3-2.2c-10.1,0.1-20.2,0.1-30.2,0
	c-1.6,0-2.2,0.3-2.1,2.1C630.8,46.3,630.7,53.5,630.7,60.8z"/>
<path d="M155.1,60.8c0-8,0-16,0-24c0-1.5,0.3-1.9,1.8-1.9c11.4,0.1,22.9,0,34.3,0c1.1,0,2.1-0.1,1.9,1.5c-0.1,0.4,0,0.9,0.5,0.9
	c2.5-0.4,1.8,1.5,1.8,2.7c0.1,2-0.1,4,0.1,6c0.1,1.7-0.5,1.9-2,1.9c-7.9-0.1-15.8,0-23.7-0.1c-1.9,0-2.3,0.5-2.2,2.3
	c0.2,1.9-0.6,4.5,0.4,5.5c1.1,1.3,3.7,0.3,5.7,0.4c1.1,0.1,2.2,0,3.4,0c1.2,0,2.5-0.3,2.1,1.7c-0.1,0.5,0.3,0.8,0.7,0.7
	c2.1-0.4,1.7,1,1.7,2.2c0,2.5,0.9,6-0.4,7.4c-1.5,1.6-5,0.3-7.6,0.5c-2,0.1-4.6-0.9-5.7,0.4c-1,1.1-0.1,3.7-0.3,5.6
	c-0.2,1.8,0.4,2.2,2.2,2.2c7-0.1,14.1-0.1,21.1,0c1.1,0,2.6-0.4,2.2,1.6c-0.1,0.5,0.2,0.8,0.7,0.7c2.2-0.4,1.7,1.2,1.7,2.4
	c-0.1,2.5,1.1,5.9-0.5,7.3c-1.3,1.3-4.7,0.4-7.2,0.4c-9.4,0-18.9,0-28.3,0c-1.1,0-2.3,0.2-2-1.6c0.1-0.4-0.1-0.9-0.6-0.8
	c-2.1,0.4-1.8-1.1-1.8-2.3C155.1,76.7,155.1,68.8,155.1,60.8z M157,60.9c0,7.3,0.1,14.6-0.1,21.8c0,2,0.6,2.3,2.4,2.3
	c9.2-0.1,18.4,0,27.6,0c4.2,0,4.1,0,4.2-4.1c0.1-1.8-0.4-2.3-2.2-2.2c-7.8,0.1-15.7,0-23.5,0.1c-1.9,0-2.2-0.6-2.2-2.3
	c0.1-3.4,0.1-6.9,0-10.3c0-1.4,0.3-2,1.8-1.9c2.6,0.1,5.1,0,7.7,0c4.6,0,4.5,0,4.5-4.5c0-1.6-0.5-1.8-1.9-1.8
	c-3.4,0.1-6.7,0-10.1,0.1c-1.5,0-2.1-0.3-2-1.9c0.1-3.5,0.1-7,0-10.6c-0.1-1.6,0.4-2,2-2c7,0.1,14.1,0,21.1,0c4.9,0,4.8,0,4.8-4.9
	c0-1.4-0.3-1.9-1.8-1.9c-10.2,0.1-20.3,0.1-30.5,0c-1.5,0-1.9,0.4-1.8,1.9C157,46.1,157,53.5,157,60.9z"/>
<path d="M112.3,60.9c0-8,0-16,0-24c0-1.4,0.3-1.9,1.8-1.9c11.4,0.1,22.9,0,34.3,0c1.1,0,2.2-0.2,1.9,1.5c-0.1,0.4,0,0.9,0.5,0.9
	c2.5-0.4,1.8,1.4,1.9,2.7c0,2.1-0.1,4.2,0,6.2c0.1,1.4-0.4,1.7-1.7,1.7c-8.1-0.1-16.1,0-24.2-0.1c-1.6,0-2.1,0.4-1.9,2
	c0.2,2-0.7,4.6,0.3,5.8c1.2,1.3,3.9,0.3,5.9,0.4c1.2,0.1,2.4,0,3.6,0c1.1,0,1.9,0,1.7,1.5c-0.1,0.5,0,1.1,0.7,0.9
	c2-0.4,1.7,1,1.7,2.2c-0.1,2.6,1.1,6.1-0.5,7.6c-1.4,1.3-4.9,0.3-7.4,0.4c-2,0.1-4.6-0.9-5.7,0.4c-1,1.1-0.2,3.7-0.3,5.5
	c-0.2,1.8,0.3,2.3,2.2,2.2c7-0.1,14.1-0.1,21.1,0c1.1,0,2.6-0.4,2.2,1.6c-0.1,0.3,0.1,0.8,0.4,0.7c2.9-0.4,1.9,1.8,2,3.1
	c0.1,1.8-0.1,3.5,0.1,5.3c0.1,1.6-0.5,1.8-1.9,1.8c-11.4-0.1-22.7,0-34.1,0c-1.1,0-2.4,0.3-2-1.6c0.1-0.4-0.1-0.9-0.6-0.8
	c-2.4,0.4-1.8-1.3-1.8-2.5C112.3,76.5,112.3,68.7,112.3,60.9z M114.3,61c0,7.3,0.1,14.6,0,21.8c0,1.9,0.5,2.2,2.3,2.2
	c9.3-0.1,18.6,0,27.8,0c4.1,0,4,0,4.1-4.2c0-1.7-0.4-2.1-2.1-2.1c-7.9,0.1-15.8,0-23.8,0.1c-1.7,0-2.1-0.5-2.1-2.1
	c0.1-3.4,0.1-6.7,0-10.1c-0.1-1.7,0.3-2.4,2.2-2.3c2.5,0.2,5,0,7.4,0c4.4,0,4.3,0,4.4-4.3c0-1.6-0.5-2-2-1.9
	c-3.4,0.1-6.7,0-10.1,0.1c-1.4,0-2-0.2-1.9-1.8c0.1-3.6,0.1-7.2,0-10.8c0-1.5,0.4-1.9,1.9-1.9c7.1,0.1,14.2,0,21.4,0
	c4.7,0,4.7,0,4.7-4.7c0-1.5-0.3-2-1.9-2c-10.1,0.1-20.2,0.1-30.2,0c-1.6,0-2,0.4-2,2C114.3,46.3,114.3,53.6,114.3,61z"/>
<path d="M242.9,60.8c0-7.8,0-15.7,0-23.5c0-1.6,0.1-2.3,2.1-2.3c11.3,0.1,22.5,0.1,33.8,0.1c1.1,0,2.4-0.3,2,1.6
	c-0.1,0.4,0.1,0.9,0.6,0.8c2.3-0.4,1.8,1.3,1.8,2.5c0,2.1-0.1,4.2,0,6.2c0.1,1.5-0.3,1.9-1.8,1.9c-8-0.1-16,0-24-0.1
	c-1.6,0-2.3,0.3-2.1,2.1c0.2,2-0.6,4.6,0.4,5.8c1.1,1.2,3.7,0.3,5.7,0.4c1.2,0.1,2.4,0.1,3.6,0c1.1,0,2.1-0.1,1.8,1.5
	c-0.1,0.4,0,0.9,0.5,0.8c2.5-0.4,1.8,1.5,1.8,2.7c0.1,1.8-0.1,3.5,0.1,5.3c0.2,1.9-0.6,2.2-2.3,2.1c-3.3-0.1-6.6,0-9.8-0.1
	c-1.4,0-2.1,0.1-1.9,1.8c0.2,2-0.6,4.8,0.4,6c1.1,1.3,3.9,0.4,5.9,0.4c5.8,0.1,11.5,0,17.3,0c1,0,2.2-0.2,1.9,1.5
	c-0.1,0.5,0.1,1,0.7,0.9c2.1-0.4,1.7,1.1,1.7,2.2c0,2.5,0.9,6-0.4,7.4c-1.5,1.6-5,0.5-7.6,0.5c-9.3,0.1-18.5,0-27.8,0
	c-1.1,0-2.6,0.4-2.2-1.7c0.1-0.5-0.2-0.8-0.7-0.7c-2.2,0.4-1.7-1.2-1.7-2.4C242.9,76.6,242.9,68.7,242.9,60.8z M244.8,60.8
	c0,7.4,0.1,14.7,0,22.1c0,1.7,0.5,2.1,2.1,2.1c9.4-0.1,18.7,0,28.1,0c4,0,3.9,0,4-4c0.1-1.8-0.4-2.3-2.2-2.3
	c-7.9,0.1-15.8,0-23.8,0.1c-1.6,0-2-0.4-2-2c0.1-3.6,0.1-7.2,0-10.8c0-1.4,0.5-1.7,1.8-1.7c2.6,0.1,5.1,0,7.7,0c4.7,0,4.6,0,4.5-4.7
	c0-1.3-0.4-1.6-1.6-1.6c-3.4,0.1-6.9,0-10.3,0.1c-1.5,0-2.1-0.2-2-1.9c0.1-3.5,0.1-7,0-10.6c0-1.5,0.4-2,2-2c7.1,0.1,14.2,0,21.4,0
	c4.6,0,4.5,0,4.6-4.6c0-1.6-0.3-2.2-2-2.2c-10,0.1-20,0.1-30,0c-1.7,0-2.2,0.4-2.1,2.1C244.9,46.3,244.8,53.6,244.8,60.8z"/>
<path d="M584.2,61c0-8,0-16,0-24c0-1.5,0.4-2.1,2-2c2,0.1,4,0,6,0c1.1,0,2.6-0.4,2.2,1.7c-0.1,0.5,0.2,0.8,0.7,0.7
	c2.2-0.4,1.7,1.2,1.7,2.4c0,4.8,0.1,9.6,0,14.4c0,1.5,0.2,2.1,1.9,2c3.8-0.1,7.7-0.2,11.5,0c1.8,0.1,2-0.6,2-2.2
	c-0.1-5.5,0.1-11-0.1-16.5c-0.1-2.2,0.7-2.7,2.6-2.5c1.6,0.2,3.2,0,4.8,0c1.2,0,3.1-0.7,2.7,1.8c-0.1,0.4,0.3,0.6,0.6,0.5
	c2.1-0.4,1.8,1.1,1.8,2.3c0,15.8,0,31.7,0,47.5c0,1.7-0.4,2.2-2.1,2.1c-1.9-0.2-3.8,0-5.8,0c-1.2,0-2.7,0.3-2.3-1.8
	c0.1-0.3-0.2-0.7-0.5-0.6c-2.3,0.4-1.8-1.2-1.8-2.5c0-4.6-0.1-9.3,0-13.9c0-1.4-0.2-1.9-1.8-1.9c-3.9,0.1-7.8,0.1-11.7,0
	c-1.7-0.1-1.9,0.6-1.9,2c0.1,5.5,0,11,0.1,16.5c0,1.6-0.2,2.3-2,2.1c-2.2-0.2-4.5-0.1-6.7,0c-0.9,0-1.6-0.1-1.4-1.3
	c0.1-0.5,0.1-1.3-0.7-1.1c-2.1,0.4-1.6-1.1-1.6-2.2C584.2,76.8,584.2,68.9,584.2,61z M620.2,61c0-6.6,0-13.3,0-19.9
	c0-4.2,0-4.1-4.3-4.2c-1.6,0-2,0.4-2,2c0.1,5.7-0.1,11.4,0.1,17c0,1.9-0.5,2.2-2.3,2.2c-5.8-0.1-11.5-0.1-17.3,0
	c-1.6,0-2.2-0.3-2.1-2.1c0.1-5,0-10.1,0-15.1c0-4,0-3.9-4-4c-2-0.1-2.3,0.6-2.3,2.4c0.1,13.8,0,27.7,0,41.5c0,4.2,0,4.1,4.3,4.2
	c1.6,0,2-0.4,2-2c-0.1-5.5,0.1-11-0.1-16.6c0-1.9,0.5-2.2,2.3-2.2c5.8,0.1,11.5,0.1,17.3,0c1.6,0,2.2,0.3,2.1,2.1
	c-0.1,4.8,0,9.6,0,14.4c0,4.3,0,4.2,4.2,4.3c1.7,0,2.1-0.5,2.1-2.2C620.1,75.6,620.2,68.3,620.2,61z"/>
<path d="M371.1,49.7c0,3.4-0.1,6.9,0,10.3c0,1.4-0.1,2-1.8,1.9c-1.7-0.1-4-0.6-5.1,0.3c-1.2,0.9-0.4,3.3-0.3,5
	c0,1.2-0.4,1.4-1.5,1.4c-1.7,0-4-0.6-4.8,0.3c-1.2,1.1-0.4,3.5-0.4,5.3c-0.1,4.4-0.1,8.8,0,13.2c0,1.6-0.5,2-2,1.9
	c-2.4-0.1-4.8,0-7.2,0c-0.5,0-1.4,0.3-1.3-0.5c0.1-1.6-0.5-2-2-2c-0.8,0-0.4-1-0.4-1.6c0-4.9-0.1-9.8,0-14.6c0-1.5-0.3-2.1-1.9-2
	c-1.3,0.1-2.9,0.4-2.4-1.9c0-0.1-0.3-0.5-0.4-0.5c-2.7,0.4-2-1.6-1.9-2.9c0.2-2-1.2-1.5-2.2-1.5c-1.5,0-3.2,0.4-2.7-2.1
	c0.1-0.4-0.1-0.8-0.6-0.7c-2.2,0.4-1.7-1.2-1.7-2.4c0-6.6,0.1-13.1-0.1-19.7c0-1.7,0.5-2.2,2.1-2c2,0.1,4,0,6,0
	c1.3,0,2.9-0.5,2.5,1.8c-0.1,0.4,0.2,0.6,0.6,0.6c2.4-0.4,1.8,1.3,1.8,2.5c0,4.9,0.1,9.8,0,14.6c0,1.2,0.3,1.6,1.6,1.6
	c3.8-0.1,7.7-0.1,11.5,0c1.5,0,1.9-0.3,1.9-1.8c-0.1-5.8,0-11.7-0.1-17.5c0-1.4,0.3-2,1.8-1.9c2,0.2,4,0,6,0c1.2,0,2.7-0.4,2.3,1.8
	c-0.1,0.7,0.5,0.7,1,0.6c2-0.4,1.9,0.9,1.9,2.2C371,43,371.1,46.4,371.1,49.7z M346.1,74.6c0,2.1,0,4.2,0,6.2c0,4.2,0,4.1,4.3,4.2
	c1.5,0,2-0.4,2-2c-0.1-5.4,0.1-10.7-0.1-16.1c-0.1-2.2,0.6-2.8,2.7-2.7c4.8,0.2,4.8,0.1,4.6-4.8c-0.1-1-0.2-1.4-1.3-1.4
	c-5.8,0-11.7,0-17.5,0c-1,0-1.3,0.3-1.4,1.3c-0.3,4.9-0.3,4.9,4.5,4.9c0.2,0,0.5,0,0.7,0c1.3-0.2,1.6,0.5,1.6,1.6
	C346.1,68.8,346.1,71.7,346.1,74.6z M338.9,47.3c0-1.8,0-3.7,0-5.5c0-5,0-4.9-5-4.8c-1.4,0-1.7,0.4-1.7,1.8c0.1,4.6,0,9.2,0,13.9
	c0,5.4,0,5.3,5.3,5.1c1.2-0.1,1.5-0.4,1.5-1.5C338.9,53.2,338.9,50.2,338.9,47.3z M360,47c0,2.1,0,4.1,0,6.2c0,4.5,0,4.4,4.6,4.4
	c1.4,0,1.7-0.4,1.7-1.7c-0.1-4.8,0-9.6,0-14.4c0-4.9,0-4.8-4.8-4.6c-1.1,0-1.5,0.4-1.5,1.5C360.1,41.3,360,44.2,360,47z"/>
<path d="M567.9,68.7c0,6.2-0.1,12.5,0,18.7c0,1.6-0.4,2.1-2,2c-2.2-0.1-4.5,0-6.7,0c-0.4,0-1.1,0-1.1,0c-0.1-2.2-3.3-2-3.2-4.5
	c0.1-11.5,0-23,0.1-34.5c0-1.9-0.6-2.4-2.4-2.3c-2.1,0.2-4.2,0-6.2,0c-1.3,0-2.9,0.5-2.5-1.8c0.1-0.5-0.4-0.7-0.8-0.6
	c-2.4,0.5-2.1-1.1-2-2.5c0-2.2,0.1-4.5,0-6.7c0-1,0.3-1.4,1.3-1.3c11.9,0,23.8,0,35.7,0c1,0,1.6,0.2,1.4,1.3c-0.2,1,0.4,1.3,1.3,1.1
	c1-0.1,1.2,0.4,1.2,1.3c0,2.6-0.1,5.3,0,7.9c0,1.2-0.4,1.4-1.5,1.4c-3.5-0.1-7,0.1-10.5-0.1c-1.6-0.1-1.9,0.5-1.9,2
	C567.9,56.2,567.9,62.4,567.9,68.7z M556.8,64.2c0,5.5,0,11,0,16.5c0,4.2,0,4,4.2,4.3c2.3,0.1,2.5-0.7,2.5-2.7
	c-0.1-12.2,0-24.5-0.1-36.7c0-1.5,0.3-2.1,1.9-2c2.5,0.1,5,0,7.4,0c4.6,0,4.5,0,4.6-4.6c0.1-1.9-0.6-2.2-2.3-2.2
	c-9.1,0.1-18.2,0-27.3,0c-5.2,0-5.1,0-5,5.1c0,1.2,0.3,1.7,1.6,1.6c3.5-0.1,7,0.1,10.6-0.1c1.5-0.1,1.9,0.4,1.8,1.9
	C556.8,51.8,556.8,58,556.8,64.2z"/>
<path class="st2" d="M400.3,32.9c0.7-0.1,1.2-0.3,1.6-0.2c1.6,0.4,1.3,2.5,2.2,3.1c0.9,0.7,2.8,0,2.5,2.2c-0.1,0.8,0.3,1,1,0.9
	c1.7-0.2,2,0.8,1.9,2.2c-0.1,1.4-0.1,2.9,0,4.3c0.1,1.6-0.1,3.1-2.3,3.1c-0.1,2.3-2.7,2.4-3.5,4.1c-0.1,0.1,0,0.4-0.1,0.4
	c-1.7,1-3.6,1.9-4,4.2c-2.6-0.1-5.2-0.2-7.9-0.3c-0.2,0-0.5-0.7-0.5-1c0.2-1.4-0.4-1.9-1.7-1.7c-0.1,0-0.4,0-0.4-0.1
	c-0.6-2.3-3.5-2.6-4.1-4.8c-0.1-0.4,0-0.9-0.5-0.9c-2.6,0-2.4-1.8-2.4-3.5c0-1.4,0-2.7,0-4.1c-0.1-1.3,0.2-2.2,1.8-2.1
	c0.2,0,0.5,0,0.5,0c0.3-2.1,3.1-2.5,3.4-4c0.5-2.3,3.4-0.7,3.5-2.9c0.1-2.8,2.1-2.2,3.8-2.2c0.7,0,1.4,0.1,2.2,0
	C399.6,29.4,400.9,30.1,400.3,32.9z M391.2,36.5c-1.7-0.1-3.4-0.3-2.8,2.3c-0.2,0.2-0.4,0.4-0.5,0.5c-0.6,0-1.7-0.2-1.8,0.1
	c-1.1,2.1-0.3,4.3-0.4,6.5c0,0.6-0.5,1.5,0.8,1.6c2.4,0.2,1.9,4.2,4.9,3.8c0.1,0,0.4,0.5,0.4,0.8c-0.2,2,1.2,1.6,2.3,1.6
	c1,0,2.1,0,3.1,0c1.4,0,3.3,0.6,2.9-2c2-0.7,3.1-2.6,4.6-3.6c1.2-0.7,1.7-1.1,1.6-2.4c0-1.8,0-3.5,0-5.3c0-0.7,0-1-0.9-1.3
	c-2.2-0.7-3-3.4-5.2-4.2c0,0,0-0.1,0-0.2c0.1-1.8-1-1.9-2.3-1.8c-1,0-2.1,0.1-3.1,0c-2.3-0.3-3.1,0.7-2.8,2.8
	C391.5,36.1,391.3,36.3,391.2,36.5z"/>
<path class="st3" d="M59.1,76.4c0,0.7,0.1,1.4-0.4,1.5c-1.9,0.4-1.9,3-3.8,3.3c-0.7,0.1-0.7,0.5-0.7,1c0,0.8-0.4,1.4-1.2,1.4
	c-1-0.1-1.2,0.3-1.2,1.2c0.1,1.6-2.1,1.1-2.4,2.7c-0.3,1.4-2.2,1-3.5,0.5c-0.8-0.3-1.6,0-2.5,0.2c-1.4,0.4-2.8,0.4-3.7-1.5
	c-0.5-1.1-1.9-2.2-2.9-3c-2.4-1.8-4.2-4.3-6.3-6.3c-0.6-0.6-0.5-1.4-0.3-2c0.5-1.6,0.3-3.3,0.5-4.9c0.1-1.9,2.2-2.3,3.1-3.6
	c1-1.4,2.2-2.7,3.7-3.6c2-1.3,2.9-4.8,6.3-3.3c0.4,0.2,1,0.2,1.4,0c3.8-1.6,4.7,1.8,6.7,3.6c1.2,1,1.6,3.1,3.8,3.2
	c1.3,0.1,0.5,2.2,2.2,2.4c2.1,0.2,0.7,1.7,0.7,2.7C58.6,73.5,58.4,75.1,59.1,76.4z M44.8,85.4c1.5-0.4,3.8,1.1,4.9-1.9
	c0.2-0.6,1.4-2.4,2.3-2.6c1.9-0.4,2.6-2.2,3.4-3.3c1.5-1.8,0.6-4.7,0.7-7.1c0.1-1.5-1.4-0.6-1.9-1.2c-0.2-0.3-0.5-0.7-0.5-1
	c0-0.8-0.2-1.2-1.1-1.1c-0.7,0.1-1-0.5-1.4-1c-1.3-1.7-2.5-3.6-5.2-3.3c-1.2,0.1-2.4,0-3.6,0c-0.7,0-1.4-0.2-2,0.5
	c-2.3,2.3-4.1,5.1-7.2,6.4c-0.1,0.1-0.2,0.4-0.2,0.6c0,2.2,0,4.5,0,6.7c0,0.6,0.3,1,0.8,1.1c2,0.4,2.5,2.6,3.9,3.7
	c0.8,0.7,2.6,0.8,2.5,2.3c-0.1,1.4,0.8,1.3,1.7,1.2C42.9,85.4,43.7,85.4,44.8,85.4z"/>
<path class="st3" d="M684.4,63.3c0.3-0.9-0.7-2.7,1.5-2.4c0.1-1.9,2.5-2,2.9-3.6c0.2-1,0.9-1.2,1.8-1.1c1.8,0,3.5,0,5.3,0
	c1.3,0,2.7-0.3,2.6,1.8c0,0.7,0.6,0.6,1,0.6c0.9,0,1.3,0.4,1.4,1.3c0,0.3,0.1,0.6,0.1,0.9c2.1-0.7,2.7,1.6,3.5,2.5
	c1.4,1.5,4.2,2.5,3.6,5.5c-0.3,1.2-0.1,2.6,0,3.8c0,1.1,0.2,2.3-1.6,2.3c-0.4,0-0.8,0.5-0.8,1c0,0.3,0,0.6,0,1
	c-2.4-0.6-1.9,2.8-3.9,2.7c-0.8,0-0.9,0.5-0.8,1.1c0,0.7-0.3,1.3-1.1,1.3c-1,0-1.4,0.3-1.4,1.4c0,1.1-0.9,1.1-1.8,1.1
	c-1.7,0-3.4,0-5,0c-1.3,0-2.5,0.4-3-1.8c-0.2-0.8-1.8-2.2-2.9-2.9c-0.7-0.5-1.3-0.5-1.2-1.5c0.1-0.6-0.1-1.1-0.9-1
	c-1,0.1-1.7-0.1-1.5-1.3c0-0.1-0.1-0.4-0.2-0.4c-3.6-0.5-1.9-3.3-2.2-5.2c-0.2-0.9,0-1.9,0-2.9c0-1.2,0-2.3,1.7-2.2
	c0.3,0,0.7-0.1,0.7-0.4C681.8,62.7,683.5,63.6,684.4,63.3c-0.2,0.8,0.7,2.2-0.6,2.3c-1.4,0.2-1.2,0.9-1.2,1.8c0,1.5,0,3,0,4.5
	c0,1.2,0.3,2,1.4,3.1c1.9,1.9,4.2,3.6,5.4,6.1c0.4,0.7,8.3,0.7,8.5-0.1c0.4-2,2.5-2.2,3.5-3.7c0.5-0.7,1.1-2.2,2.1-2.4
	c2.2-0.5,1.7-2,1.7-3.4c0-1.5,0-3,0-4.5c0-0.5,0.1-1.2-0.8-1.2c-2,0.1-1.6-3.3-4-2.8c0-0.2,0-0.4-0.1-0.5c-1.6-1.3-2.3-3.8-5.2-3.6
	c-4.4,0.3-6.3,0.3-7.8,2.7C686.4,63.1,685.8,63.5,684.4,63.3z"/>
<path d="M391.2,76.7c2.1-0.1,4.2-0.2,3.9,3c-0.1,0.8,0.9,0.9,1.7,0.9c2.1,0,4.2-0.1,6.2,0c1.2,0.1,1.7-0.3,1.6-1.6
	c-0.1-2.2,0-4.5,0-6.7c0-1.4,0.3-2.6,2.1-2.3c0.8,0.1,1.2-0.1,1.4-1.1c0.1-0.9,0.1-2,0.8-2.8c1.1,0,2.3,0,3.4,0.1c0,0.3-0.1,0.6,0,1
	c0.2,1.8,0.2,3.4-2.4,2.9c-1.2-0.2-0.9,0.8-0.9,1.4c0,2.4-0.1,4.8,0,7.2c0.1,1.6-0.4,2.1-2,2c-0.7-0.1-2.1-0.6-1.9,0.9
	c0.4,2.7-1.2,2.5-2.9,2.4c-1.3-0.1-2.5,0-3.8,0.1c-0.5,0-1,0-1.4-0.1c-2-0.4-2.6,0.4-2.5,2.4c0.2,2.7,0,5.4,0,8.2l0,0
	c-3.4,0-3.4,0-3.4-3.3c0-4.2,0-8.3,0-12.5C391.2,78.1,391.2,77.4,391.2,76.7z"/>
<path class="st4" d="M13.9,50.4c0-0.7-0.1-1.5,0.7-1.8c1-0.5,2.5-0.5,2.3-2.3c0-0.1,0.1-0.1,0.1-0.2c1-1.1,6,0,7,1
	c1.1,1.2,2,2.6,3.3,3.5c1.3,0.9,1.9,2.3,3.4,3c0.7,0.3,0.5,1.2,0.4,1.7c-0.2,1-0.6,1.8,0,2.9c0.3,0.5,0.1,1.6-0.6,1.6
	c-1.4,0-1.5,1.1-2.2,1.8c-1.8,1.6-3.5,3.3-5.1,5.2c-1.2,1.3-5.5,0.2-6.7-1c-1.2-1.1-2.2-2.5-3.5-3.3c-2.3-1.5-4.2-6.1-3.3-8.7
	c0-0.1,0-0.2,0.1-0.2C11.7,53.2,11.9,50.5,13.9,50.4c0,0.9,0,1.9,0,2.9c0,0,0,0,0,0c-1,0-2.4-0.2-1.8,1.5c0.4,1.2,0.3,2.3,0.4,3.5
	c0,0.5-0.2,1,0.6,1.3c1.6,0.7,2.5,2.3,3.6,3.4c1.1,1.1,1.9,1.2,3.2,1.4c2.1,0.3,3-1,4.5-2.2c2.7-2.2,4-4.4,3.4-7.8
	c-0.1-0.4,0.1-1.1-0.6-1.1c-1.9-0.1-1.4-3-3.5-2.9c-0.1-2.9-2.3-1.7-3.8-1.9c-1-0.1-2.8-0.4-2.9,0.2C16.8,51.2,15.2,50.2,13.9,50.4z
	"/>
<path class="st0" d="M592.9,22.6c-1.3-3.2,1.9-4.1,3.1-6.1c0.9-1.5,3.3-1.7,3.7-3.8c0.1-0.6,0.8-0.7,1.4-0.7c1.4,0,2.7,0,4.1,0
	c0.5,0,1.2-0.1,1.2,0.5c0.2,1.3,0.9,2.1,2.2,2.3c-0.4,2,2.8,1.6,2.5,3.7c0,0.1,0.1,0.2,0.1,0.2c3.5,0.4,1.9,3.1,2.2,4.9
	c0.2,1.3-0.5,1.9-1.4,2.9c-1,1-2.7,1.6-2.9,3.4c-0.1,0.7-0.9,0.5-1.3,0.9c-0.3,0.2-0.9-0.1-1,0.4c-0.2,0.8,0.1,2-1.1,2.1
	c-1.7,0.1-4.1,0.7-5.1-0.2c-1.2-1-2.7-2-3.5-3.4c-0.1-0.3-0.1-0.9-0.1-0.9c-1.6-0.1-2.2-2.3-2.4-2.3
	C591.7,25.9,593.2,23.8,592.9,22.6z M600,16.3c-1.8,0-3.2,0.5-3.1,2.7c-3.2,0.9-1.2,3.6-1.7,5.4c-0.2,0.6,0.2,1.1,0.8,1.2
	c1.7,0.2,2.8,2.1,3.3,2.9c1,2,2.3,1.6,3.8,1.8c1.7,0.1,2.6-0.7,4-1.8c2.6-2.3,4-4.5,3.5-8c-0.1-0.6-0.3-0.9-0.8-1.4
	c-1.1-1.1-3-1.6-3.3-2.8c-0.4-1.5-1.1-1.4-2.1-1.4c-1,0-2.1,0.1-3.1,0C600,14.7,600,15.5,600,16.3L600,16.3z"/>
<path class="st4" d="M370,24.2c0.5-1.3-1-4,2.3-3.1c0.5,0.1,0.7-0.3,0.7-0.7c0-0.5,0-1,0-1.4c0-2.4,3.5,0.1,3.3-2.2
	c-0.2-2.8,1.8-1.8,3-2.1c0.7-0.2,1.4,0.1,2.1,0.2c0.2,0,0.5,0,0.7,0c-0.5,2.7,3.2,2.6,3.4,4.8c0.1,0.9,0.1,1.4,1.4,1.1
	c0.6-0.2,1.7,0.3,1.6,1.5c-0.1,1.2,0,2.4,0,3.6c0,0.2,0,0.5,0,0.5c-2.4,0.3-2.4,3.6-4.7,3.9c-0.6,0.1-1.1,0.1-1,0.9
	c0.2,1.9-0.9,2.1-2.3,2c-0.8-0.1-1.6-0.1-2.4,0c-1,0.1-1.7-0.1-1.5-1.4c0.2-1.3-0.4-1.7-1.6-1.5c-0.3,0-0.6,0-0.9,0
	c-1.7-0.2,0.3-3.2-2.4-2.9C368.7,27.5,370.9,25.1,370,24.2z M376.3,20.6c-0.2,0.2-0.4,0.4-0.5,0.5c-0.8,0.4-2.6-0.7-2.2,1
	c0.4,1.6-2.2,4.4,1.7,4.8c1,0.1,1.5,1.1,1.4,1.7c-0.1,1.2,0.4,1.3,1.4,1.2c1-0.1,1.9,0,2.9,0c0.7,0,1.3,0,1.2-1
	c-0.2-1.5,0.6-2,2-1.9c0.4,0,0.9,0,0.9-0.6c0-1.5,0.1-3,0-4.5c-0.1-1.2-1.3-0.4-1.9-0.7c-0.3-0.1-0.7-0.4-0.7-0.6
	c0.1-3.1-2.1-2-3.7-2.2C376.6,17.9,376.1,18.8,376.3,20.6z"/>
<path class="st2" d="M138.3,101.8c0-1.2,0-2.4,1.7-2.4c0.2,0,0.5-0.1,0.6-0.3c0.2-0.8-0.1-2,1.1-2.1c1.7-0.1,3.6-0.3,5.2,0.1
	c1.3,0.3,1.8,2,2.9,2.9c0.8,0.7,1.6,1.5,2.5,2.3c1.6,1.5,2.5,3.3,2.5,5.8c0,2.6-2.4,3.2-3.1,5.1c-0.3,0.9-3.1,2.8-3.9,4
	c-0.3,0.5-0.6,0.4-1,0.4c-0.8,0-1.6-0.1-2.4,0c-3.2,0.6-4.4-2-6.3-3.6c-1.1-1-2-2.4-3.2-3.1c-1.3-0.7-1.2-1.7-1-2.6
	c0.3-1.6-1.2-3.6,1.2-4.8C136.3,103.1,136.5,101.1,138.3,101.8c0,0.8,0,1.6,0,2.4l0,0c-0.7,0.1-1.6-0.2-1.4,1
	c0.3,1.7-0.8,3.6,0.7,5.3c1.2,1.4,3.3,2,3.6,4.2c0.1,0.7,0.6,0.6,1.1,0.6c1.3,0,2.6,0,3.8,0c0.5,0,1.3,0.3,1.3-0.6
	c0.1-2,3.1-1.7,2.9-3.8c0-0.1,0.7-0.3,1.1-0.3c0.4-0.1,0.8,0,0.9-0.6c0-1.7,0.6-3.7-0.2-4.9c-0.6-1.1-2-2.7-2.9-2.9
	c-1.5-0.4-1.4-2-2.4-2.1c-1.6-0.2-3.3-0.1-5,0c-0.9,0-0.4,0.9-0.6,1.3c-0.2,0.2-0.4,0.4-0.5,0.5C139.8,101.8,139,101.8,138.3,101.8z
	"/>
<path class="st0" d="M430.3,17.8c1.9-0.5,3,0.3,3.5,2c0.2,0.8,0.9,1,1.5,1.3c0.9,0.4,1.7,0.7,1.5,1.9c-0.1,0.7,0.2,1,0.9,1
	c3,0.1,1.7,2.4,1.9,3.9c0.2,1.4,0,2.6-1.9,2.4c-0.7-0.1-1,0.2-0.9,1c0,0.2,0,0.3,0,0.5c-0.1,2.2-3.4,0.4-3.6,3.4
	c-0.1,2-4.3,1.3-4.6,0.8c-1.2-1.7-3.4-2.4-4.2-4.3c-0.3-0.8-0.2-1.6-1.3-1.3c-1.3,0.2-1.5-0.8-1.6-1.6c-0.2-1.1-0.1-2.2,0-3.3
	c0-0.3,0.1-0.8,0.3-0.8c1.8-0.2,2.4-1.5,3.2-3c0.6-1,2.4-1.2,2.6-3.1C427.6,17.2,429.3,18,430.3,17.8z M427.7,23.9
	c-0.2,0.2-0.4,0.4-0.5,0.5c-1.8-0.3-2.7,0.3-2.3,2.2c0.1,0.5,0,1.1,0,1.7c0,2.2,4.2,1.1,3.1,4.1c0.3,0.1,0.6,0.2,0.9,0.2
	c1,0,2.2,0.3,3.1-0.1c1.7-0.8,2.3-3.1,4.4-3.8c0.4-0.1,0-2.2,0.1-3.4c0-0.8-0.4-0.9-1-0.9c-1.6,0.1-2.3-0.7-2.3-2.3
	c0-0.4,0.1-1-0.4-1c-1.5-0.1-3.1-0.3-4.5,0.1C427.2,21.6,427.9,23,427.7,23.9z"/>
<path class="st5" d="M412.4,66.3c-1.1,0-2.3,0-3.4-0.1c0.1-1.8,0.8-3.5,0.5-5.4c0-0.1,0-0.2,0-0.2c2.5,0.1,2.5-2.9,4.4-3.5
	c0.3-0.1,0.6,0,1,0c-0.3-2.5,2.9-2.8,3.2-4.7c0.4-2.2,2.5-0.9,3.2-1.8c0.7-0.9-0.2-2.8,2.1-2.7c2.8,0.1,5.6,0,8.4,0
	c0.5,0,1.4,0,1.3,0.3c-0.7,3.2,4.6,2,3.9,5.2c-0.1,0.4,0.7,0.2,1,0.4c2,0.8,2,3.9,4.6,4.1c0.1,0,0.1,1.3,0.1,2
	c-0.2,0.2-0.4,0.4-0.6,0.6c-3.3,1.1-2.5-4-5.4-3.5c-0.3,0.1-0.1-0.8-0.3-1.3c-0.6-1.9-3.5-2-3.7-4.3c0,0-0.7,0-1.1,0
	c-2.6,0-5.3,0.1-7.9,0c-1.9-0.1-2.2,0.6-2.2,2.3c0,1.7-3.2-0.6-2.8,2c0,0.1,0,0.2,0,0.2c-1,1.8-3.3,2.5-3.8,4.7c0,0-0.2,0-0.2,0
	c-2.2-0.3-1.7,1.1-1.7,2.4C411.9,63.9,412.5,65.1,412.4,66.3L412.4,66.3z"/>
<path class="st5" d="M391.2,76.7c0,0.7,0,1.4,0,2c-1.1-0.9-2.4-0.4-3.7-0.5c-0.7-0.1-1.6,0.2-1.9-0.6c-0.6-1.4-1.2-2.6-3.1-2.6
	c-0.5,0-0.5-0.9-0.4-1.5c0.1-0.8-0.2-1.2-1.1-1.1c-1.7,0.3-2-0.6-1.8-2c0.1-1,0-2.1,0-3.1c0-0.4,0-1.1,0.3-1c2.2,0.4,2.7-0.9,3-2.6
	c0.1-0.6,0.8-0.9,1.6-0.8c0.6,0.1,1-0.1,0.9-0.8c-0.2-1.7,0.6-2.4,2.2-2.1c1.5,0.3,4.2-1.4,4.1,2.2c0,0.2,0.2,0.6,0.2,0.6
	c2.1-0.1,3.1,1,3.2,3.1c0,0.4,0.4-0.2,0.7-0.1c1,0.1,1.8,0.8,1.9,1.7c0.2,1.2,0.1,2.4,0.1,3.6c0,1.8-1.3,1.4-2.4,1.5
	c-0.4,0-0.5,0.3-0.5,0.6c0,2.5-1.8,2.2-3.4,2.2c-0.8-2.2-0.3-2.9,1.9-3.4c0.4-0.1,0.9,0.1,0.9-0.5c0.1-1.4,0.1-2.9,0-4.3
	c-0.1-1-1.2-0.3-1.8-0.7c-0.5-0.4-1.3-0.6-1.2-1.3c0.2-2.6-1.7-1.8-3.1-2c-1.9-0.2-2.9,0.2-2.5,2.3c-0.6,0.1-0.4,0.6-0.5,1
	c-0.8,0.4-2.5-0.8-2.2,1c0.2,1.4-1.8,4,1.6,4.3c0.8,0.1,1.3,0.5,1.1,1.2c-0.4,2.2,1,2.2,2.5,2.1c1.1-0.1,2.2,0,3.3,0
	C391.3,75.8,391.3,76.3,391.2,76.7z"/>
<path class="st4" d="M370.5,85.4c0.3-0.9-0.6-2.6,1.5-2.4c0.1,0,0.3-0.1,0.4-0.2c0.2-0.8-0.1-2,1.1-2.1c1.7-0.1,3.5,0,5.3,0
	c0.3,0,0.6,0.3,0.7,0.5c1.1,2.5,4.3,3.2,5.1,6c4,1.2,1.1,4.3,1.6,6.5c0.1,0.6-1.6,2.3-2.6,2.8c-1.5,0.8-2.9,2.2-3.3,3
	c-1.1,2.9-3.2,1.6-5,1.8c-1.4,0.2-3.1,0.5-2.9-1.9c-1.9,0.2-1.5-2.5-3.3-2.4c-0.7,0-1-0.7-1-1.4c0-0.4,0.1-0.9-0.5-0.9
	c-0.8-0.1-1.8,0-1.9-1c-0.1-1.8-0.7-4.6,0.2-5.3C367.4,87.3,368,84.6,370.5,85.4c0,0.6,0.1,1.3,0.1,1.9c-0.2,0.2-0.4,0.4-0.5,0.5
	c-0.5,0.1-1.3-0.3-1.3,0.6c-0.1,1.7-0.7,3.8,0.1,4.9c1.3,1.9,3.7,3.1,4.6,5.5c0,0.1,0.3,0.1,0.5,0c2-0.6,4.9,1.6,5.8-2
	c0.1-0.4,0.5-0.3,0.8-0.4c1.5-0.5,1.4-2.9,3.5-2.8c0-0.3,0-0.6,0.1-1c0-1.2,0-2.4,0-3.6c0-0.4,0.2-1.2-0.4-1.2
	c-2.2,0-2.4-2.3-3.8-3.2c-1.6-1.1-2.9-1.7-4.6-1.3c-0.8,0.2-2.5-0.6-2.2,1.5c-0.2,0.2-0.4,0.4-0.5,0.5
	C371.8,85.4,371.2,85.4,370.5,85.4z"/>
<path class="st1" d="M724.3,46.6c3.5,1.4,5.4,5.3,4.3,8.9c-0.2,0.7-0.6,0.6-1,0.7c-0.4,0-0.7,0-0.9,0.5c-0.8,1.6-2.8,3.6-4.3,4.3
	c-0.1,0.1-0.4,0.1-0.4,0.2c-1,4.4-4.5,1.1-6.6,2.1c-0.1,0-0.2,0-0.2,0c0.2-2.1-2.5-1.9-2.8-3.5c-0.2-0.8-0.7-0.9-1.1-1
	c-0.9-0.3-1.6-0.5-1.4-1.7c0-0.2-0.3-0.7-0.5-0.7c-3-0.1-1.7-2.4-1.8-3.8c-0.2-1.6-0.4-3.5,2.1-3.7c-0.3-2.2,3.2-1.3,2.9-3.7
	c-0.1-0.7,1.3-0.5,2.1-0.6l0,0.1c0.3,1.1-1.5,4.6-2.9,4.7c-1.7,0.1-1.4,1.1-1.4,2.1c0,1.2,0,2.4,0,3.6c0,0.4-0.2,1.2,0.5,1.1
	c2.3-0.2,2.4,2.2,3.7,3.2c2.5,1.9,5.1,2.3,7-0.1c0.3-0.3,0.5-0.6,1-0.6c0.9,0.1,1.4-0.2,1.3-1.2c-0.1-0.6,0.3-1.2,0.9-1.2
	c1.9,0,1.4-1.3,1.4-2.4c0-0.9-0.1-1.8,0-2.6c0.3-1.6-0.6-1.9-1.9-1.8C724.4,48.4,724.4,47.5,724.3,46.6L724.3,46.6z"/>
<path d="M419.5,97.9c0,3.9,0,3.9-3.8,3.9c-3.8,0-7.7-0.1-11.5,0c-2,0.1-3-0.6-2.9-2.5c0.1-1.3-0.4-1.5-1.5-1.4c-0.6,0.1-1.3,0-1.9,0
	c-3.3,0-3.3,0-3.3-3.4l0,0c2.4,0,4.8,0,7.2,0c0,0,0,0,0,0c0.1,3.3,0.1,3.3,3.4,3.3C410,97.9,414.8,97.9,419.5,97.9L419.5,97.9z"/>
<path class="st4" d="M48,50.8c-1.9,0.2-2.7-0.7-3.8-1.5c-1.4-0.9-1.4-3-3.5-3.4c-1.1-0.2-0.9-2-0.9-3.2c0-1,0.4-1.5,1.4-1.5
	c0.5,0,0.9,0.1,1-0.6c0.5-2.6,2.9-3.4,4.9-4.4c1-0.5,2-0.1,2.4,1.1c0.4,1.6,2,2.8,2.8,3.3c1.8,1.1,1.9,2.2,1.9,3.8
	c0,1-0.2,1.8-1.4,1.7c-0.9-0.1-1.1,0.4-1,1.1c0.1,0.6-0.3,1.2-0.9,1.2c-1.1,0-1.2,0.1-1.1,1.4C50,51.3,48.4,50.7,48,50.8z
	 M44.1,41.8c-0.7,0-1.6-0.1-1.3,1c0.2,0.9-0.8,2.3,0.8,2.8c0.7,0.3,1.4,0.7,1.5,1.3c0.1,1.2,0.9,0.9,1.6,1.1
	c2.3,0.8,2.3-1.6,3.4-2.3c1.8-1.1,1.8-2.9,0-4.2c-0.4-0.3-0.9-0.8-1-1.2c-0.8-2.1-2.4-0.7-3.6-0.9c-1.3-0.2-0.5,1.2-0.8,1.8
	C44.5,41.4,44.3,41.6,44.1,41.8z"/>
<path class="st1" d="M14.8,69.1c1.1-0.1,2.4-0.3,2.1,1.7c-0.1,0.7,0.4,0.7,0.9,0.7c1,0,1.5,0.4,1.4,1.4c-0.1,0.7,0.2,1,0.9,1
	c0.6,0,1.7-0.3,1.4,0.9c-0.2,1.3,0.7,2.7-0.8,3.9c-1.4,1-3.3,1.7-3.5,3.9c0,0.5-0.6,0.9-1.3,0.8c-1.4-0.1-2.8,0.3-4-0.9
	c-1.4-1.4-2.1-3.5-4.3-4.2c-1-0.3-0.6-3.6,0.1-4.6c0.5-0.6,2,0,1.7-1.4C11.8,72.1,11.9,68.5,14.8,69.1z M11.5,74.4
	c-1.3-0.2-1.6,0.5-1.3,1.5c0.2,0.8-0.9,2.3,1,2.3c0.6,0,1.3,0.3,1.3,0.9c0,1.2,0.4,1.6,1.7,1.6c1.2-0.1,2.4,0.2,2.6-1.5
	c0-0.4,0.2-1,0.9-0.9c1.2,0.2,1-0.7,1.2-1.5c0.7-2.2-1.9-2.3-2.2-3.5c-0.5-2-1.9-1.1-3-1.3c-1.4-0.2-1.3,1-1.6,1.8
	C11.8,74,11.7,74.2,11.5,74.4z"/>
<path class="st0" d="M0,44.2c0-1.3,0-2.5,0-3.7c-0.1-1.1,0.1-1.9,1.5-1.6c0.7,0.1,1-0.2,0.9-1c-0.1-0.6,0.2-1.3,0.8-1.3
	c1.3,0,1.7-0.5,1.8-1.8c0-0.7,3.9-1.3,4.4-0.6c0.7,1.1,2.1,2,2.5,2.9c0.5,1.3,0.7,1.9,2.2,1.8c0.6,0,0.9,0.5,0.9,1.2
	c0,1.3-0.1,2.6-1.1,3.6c-1.4,1.4-3.2,2.2-4.2,4.1c-0.7,1.3-2.3,1-3.3,0.6c-1.5-0.6-3.4-2.3-3.7-3.3C2.1,42.9,1.2,43.9,0,44.2z
	 M4.8,39.3c-0.8,0.4-2.3-0.8-2.3,1c0,1.2-0.7,3,1.7,3c0.4,0,1.3,0.3,1.2,1.2c0,0.5,0,0.9,0.6,1c2,0.6,5.5-1.8,5.6-3.8
	c0-1,0.6-2.4-1.3-2.7c-0.4,0-0.5-0.5-0.6-0.9c-0.3-2.5-2.2-0.9-3.3-1.2c-1.5-0.3-0.8,1.1-1,1.8C5.1,39,4.9,39.2,4.8,39.3z"/>
<path class="st1" d="M731.1,72.5c0,1.4,0.1,2.1-1.5,2.7c-1.1,0.5-2.2,2.5-3.3,3.8c-0.8,0.9-1.8,1.4-2.9,1.1c-0.9-0.3-2.2-0.4-1.9-2
	c0.1-0.4-0.1-0.6-0.6-0.8c-2.2-0.8-3.4-2.5-4.1-4.6c-0.4-1.1-0.2-2.1,1.3-2.7c1.3-0.6,2.6-1.8,3.2-3.1c0.5-0.9,0.6-1.7,1.8-1.6
	c1.3,0.1,2.5-0.1,3.6,1.2c1.1,1.3,1.5,3.2,3.6,3.7C731.5,70.5,731,71.8,731.1,72.5z M726.3,70c-0.2-0.6,0.4-1.5-0.4-1.7
	c-1.1-0.3-2.2-0.2-3.3-0.1c-1,0.1-0.4,1-0.7,1.5c-0.2,0.3-0.6,0.8-0.8,0.8c-2.1-0.2-1.5,1.3-1.5,2.4c-0.1,1.2,0.2,2.1,1.6,2
	c0.7,0,0.8,0.4,0.8,0.9c-0.1,1,0.6,1.1,1.2,1c1.2-0.2,3.2,1,3.3-1.7c0-0.2,0.7-0.6,1.2-0.7c2-0.5,0.9-2.1,1-3.1
	c0.1-1.4-1.2-0.6-1.8-0.8C726.6,70.4,726.5,70.2,726.3,70z"/>
<path class="st1" d="M543.7,96.5c2.7-0.2,3.2,2.4,4.9,3.4c0.2,0.1,0,0.9,0.7,0.9c2.4,0.2,2.2,2.6,1.6,3.3c-1.1,1.4-2.1,3.1-3.8,3.9
	c-0.5,0.2-0.8,0.2-0.9,0.8c-0.4,2.2-2.1,2-3.3,1.2c-1.4-0.9-3-1.9-3.8-3.5c-0.1-0.3,0-0.9-0.6-0.8c-1.9,0.1-1.9-1.3-1.9-2.5
	c0-1.2,0.1-2.4,1.9-2.3c0.7,0,0.3-0.9,0.6-1C540.7,98.7,541.3,96.1,543.7,96.5z M541,101.2c-1.1-0.1-1.7,0.4-1.4,1.5
	c0.2,0.8-0.9,2.3,0.9,2.4c1,0.1,1.2,0.8,1.3,1.4c0.2,1,0.6,1.1,1.4,1.1c1.7,0.1,4.2-2.3,4.5-4c0.3-1.6-1.5-2.2-1.6-3
	c-0.4-2-1.5-1.6-2.8-1.8c-1.7-0.2-1.2,1.3-1.8,1.9C541.3,100.9,541.1,101.1,541,101.2z"/>
<path class="st1" d="M119.5,125.3c-1.1,0.2-1.9-0.1-2.4-1.7c-0.4-1.2-2-2-2.9-2.4c-2.5-1.3-1.1-3-1.1-4.5c0-0.7,1.4-1.6,1.7-1.8
	c2-0.9,2.3-4,5.2-3.6c1.2,0.2,1.7,0.8,2.4,1.5c1.3,1.1,1.4,3.2,3.5,3.5c1.1,0.2,1,3.9,0,4.6c-1.6,1-2.6,2-3.6,3.6
	C121.8,125.6,120.7,125.2,119.5,125.3z M117.1,116.2c-0.2,0-0.5-0.1-0.7-0.1c-1.4,0.6-0.5,1.9-0.7,2.8c-0.1,0.6-0.3,1.6,0.9,1.5
	c1-0.1,1.3,0.8,1.4,1.3c0.1,1.2,0.8,1.1,1.6,1.1c0.9,0,4.2-2.5,4.2-3.3c0-1.4,1.1-3.2-1.6-3.5c-0.5,0-0.6-0.8-0.9-1.3
	c-0.5-1.1-1.7-0.4-2.5-0.5c-1.1-0.1-0.7,0.8-0.8,1.3C117.8,115.8,117.5,116,117.1,116.2z"/>
<path class="st4" d="M698.4,40.1c0.3,1.3-0.4,1.9-1.6,2.8c-1.1,0.8-2.5,1.7-3.2,3c-0.7,1.5-1.9,1.8-3.3,1.6
	c-1.1-0.1-1.8-0.8-1.6-2.1c0.1-0.6-0.3-0.9-0.9-0.8c-1,0.2-1.1-0.7-1.4-1.2c-0.2-0.3-0.1-0.8-0.3-1c-2.4-2-1.9-2.3-0.1-5.2
	c0.9-1.5,2.8-1.8,3.1-3.9c0.2-1.3,4.2-0.8,4.9,0.9c0.3,0.6,0.9,0.8,0.9,1C695.6,37.1,699,37.2,698.4,40.1z M693.6,37.4
	c-0.2-0.6,0.3-1.3-0.3-1.7c-1-0.7-3.5,0.2-4,1.4c-0.2,0.3-0.5,0.8-0.8,0.8c-2.2-0.1-1.4,1.5-1.6,2.6c-0.3,1.7,1.8,1.4,2.1,2.4
	c0.4,1.4,1.2,1.5,2.4,1.4c1.1-0.1,2.5,0.4,2.3-1.6c0-0.1,0.5-0.3,0.8-0.3c2.8,0.1,1.2-2,1.5-3.1c0.4-1.6-1-1.2-1.8-1.3
	C694,37.7,693.8,37.6,693.6,37.4z"/>
<path class="st2" d="M631.2,20.4c1.1,2.6-1.7,3-2.6,4.2c-0.8,1-1.7,2.7-3.5,3c-0.5,0.1-1.2,0.5-1.5,0c-1-1.7-3.6-1.7-3.9-4
	c-0.1-0.7-0.7-0.4-1-0.6c-0.9-0.4-1.5-1.1-1.4-2.3c0.1-1.1,0.6-1.7,1.3-2.6c1-1.4,2.9-1.9,3.6-3.7c0.4-1.1,1.8-0.6,2.6-1
	c0.7-0.4,1.6,0.2,2.1,0.8c0.8,1.1,3,3.4,4,4C631.7,18.8,630.9,19.7,631.2,20.4z M622.6,18.2c-0.4,0.1-0.9,0-1,0.5
	c-0.3,0-0.7-0.1-0.9,0.1c-1,0.9-0.5,3.3,0.8,3.8c0.5,0.2,1.1,0.4,1,0.8c-0.1,1.7,1,1.6,2.1,1.6c1.2,0,2,0,1.9-1.6
	c0-0.2,0.5-0.8,0.8-0.8c1.5,0.1,1.6-0.7,1.6-1.9c0-1.1,0.1-2.2-1.6-2.1c-0.4,0-0.8-0.5-0.8-1c-0.1-2.4-1.9-1-2.8-1.2
	C622.1,16.1,622.8,17.5,622.6,18.2z"/>
<path class="st1" d="M332.4,112.3c-1-0.1-2.5,0.5-2.2-1.5c-1.8-0.2-2-2.5-3.6-2.9c-1.4-0.3-1.2-1.3-1.1-2.2c0-0.9-0.5-2.2,1-2.6
	c0.3-0.1,0.6,0,1,0c-0.1-2,2.2-2.2,2.7-3.4c0.5-1.2,1.1-1.3,2.1-1.4c1.2-0.1,1.9,0.5,2.8,1.3c1.3,1.1,1.5,3.3,3.6,3.7
	c1.1,0.2,0.7,1.5,0.7,2.3c0,0.9,0.3,1.9-0.8,2.3c-1.8,0.6-2.5,2.2-3.5,3.5C334.3,112.6,333.3,112.2,332.4,112.3z M330.3,103.1
	c-0.2,0.2-0.4,0.4-0.5,0.5c-1-0.1-1.6,0.2-1.4,1.3c0.2,0.9-0.8,2.2,0.8,2.5c0.5,0.1,1.1,0,1.1,0.9c0.2,1.8,1.6,1.5,2.8,1.6
	c1.5,0.1,1.5-0.7,1.5-1.7c0-0.5,0.3-0.7,0.8-0.7c0.9,0,1.8,0,1.6-1.3c-0.2-1.1,0.7-2.7-1.5-2.6c-0.4,0-0.8-0.5-0.8-1
	c-0.3-2.6-2.2-1-3.3-1.2C329.8,101,330.4,102.4,330.3,103.1z"/>
<path class="st6" d="M221.8,20.1c3,1.8,4.9,4.2,4.3,8c-0.1,0.3,0,0.9-0.1,0.9c-1.7,0.4-2.2,2-3.3,3.1c-1.1,1.1-2.5,1.9-3.2,3.2
	c-0.7,1.2-1.5,1.5-2.7,1.7c-3.6,0.5-5.7-1.2-6.9-4.4c-0.2-0.5-0.6-0.5-0.9-0.5c-1.4,0-1.5-0.8-1.5-1.9c0.2-0.4,0.3-0.7,0.5-1.1
	c2.4,0,2.9,2.6,4.5,3.7c0.6,0.4,1.1,1.2,2.1,1.1c1.8-0.1,4,0.7,4.8-2c0-0.2,0.4-0.2,0.6-0.4c1.6-1.6,4-2.7,3.4-5.6
	c-0.1-0.6,0-1.3,0-1.9c0-0.6,0-1.2-0.8-1.1c-1.3,0.1-1.3-1-1.6-1.9C221,20.7,221.3,20.3,221.8,20.1z"/>
<path class="st5" d="M459.4,105c0.8,0.2,2.2-0.2,2.2,0.3c0,2.1,3.6,2.1,2.6,4.8c-0.3,0.9,0,1.9-1.5,1.7c-0.7-0.1-1,0.2-1,0.9
	c0.1,1-0.4,1.5-1.4,1.5c-0.5,0-0.9,0-1,0.7c-0.1,0.6,0.5,1.8-0.9,1.7c-1.3-0.1-2.6,0.4-3.7-1c-1.2-1.5-1.7-3.5-3.9-4
	c-0.8-0.2-1-3.8-0.2-4.1c2.1-0.9,2.9-2.9,4.4-4.3c1-1,2.6-0.5,3.9-0.3C459.9,103,459.2,104.3,459.4,105c-0.9,0-1.7,0.2-2.6,0.1
	c-1.6-0.2-2,0.5-1.8,1.9c-0.2,0.2-0.4,0.4-0.5,0.5c-0.7,0.2-2.1-0.5-1.8,1c0.2,1-1.2,2.8,1.2,2.8c0.5,0,1.1,0.4,1,0.8
	c-0.1,2,1.3,1.5,2.4,1.6c1.1,0,2.3,0.2,2.1-1.6c0-0.2,0.3-0.5,0.6-0.7c1.9-1.4,1.8-2.7-0.3-4.1C458.9,106.9,458.8,105.9,459.4,105z"
	/>
<path class="st0" d="M442,60.5c0.2-0.2,0.4-0.4,0.6-0.6c2.9,0.1,3.1,0.2,3.3,4c0.1,2,0.1,4,0,6c-0.1,1.3-0.6,2.2-2.2,2.7
	c-1.5,0.5-1.8,3.1-4,3.3c0.6,2.5-1.6,2.1-2.8,2.8c-0.3-0.6,0.3-1.5-0.6-2c-0.1-1.1,0.3-1.5,1.5-1.9c1.8-0.6,2.1-3.3,4.3-3.6
	c0,0,0-0.4,0-0.7C442.1,67.2,442.1,63.8,442,60.5z"/>
<path class="st0" d="M207.9,29.2c-0.2,0.4-0.3,0.7-0.5,1.1c-1.9-0.8-1.9-2-2.2-4.1c-0.5-3.7,2.6-3.9,3.7-5.8c0.8-1.3,2.3-2,3-3.4
	c0.3-0.8,0.8-1.2,1.7-1.1c1.4,0.1,2.9,0.1,4.3,0c0.7,0,1.4,0.2,1.4,0.9c0,1,0.2,1.5,1.4,1.6c0.8,0,0.9,1.1,1.1,1.8
	c-0.5,0.2-0.8,0.5-1,1c-0.8-0.1-1.8,0-1.8-1c-0.1-1.5-1.2-1.6-2.2-1.4c-1.6,0.3-3.7-1.2-4.6,1.4l0,0c-1.5,0-2.2,0.8-1.9,2.3
	c-0.2,0.2-0.4,0.4-0.5,0.5c-1.2-0.1-1.9,0.3-1.9,1.7C207.9,26.2,207.9,27.7,207.9,29.2z"/>
<path class="st2" d="M437.8,106.5c-2.8-0.1-5.4-3.3-4.8-5.9c0-0.1,0-0.2,0-0.2c2.2,0.3,1.9-2.7,3.7-2.9c0.6-0.1,1.1-0.4,1.1-1.1
	c-0.1-2.2,1.1-1.6,2.4-1.3c2.1,0.4,4.3,2.7,4.4,4.7l0,0.1c-1-0.2-2.2,0.7-2.6-1.3c-0.2-1.2-2-0.4-3.1-0.5c-1.1-0.2-1,0.7-1,1.4
	c-0.2,0.2-0.4,0.4-0.5,0.5c-0.7,0-1.5-0.1-1.4,1c0.2,1.1-0.6,2.9,0.5,3.1C438.5,104.3,437.6,105.6,437.8,106.5L437.8,106.5z"/>
<path d="M430.1,84.1c0,2.7-0.1,5.4,0.1,8.1c0.2,2.1-0.5,2.7-2.5,2.4c-0.5-0.1-1,0-1.4,0l0,0c0-1.1-0.1-2.3-0.1-3.4
	c0-1.1,0.1-2.2,0.1-3.3C426.3,84,426.3,84,430.1,84.1L430.1,84.1z"/>
<path class="st7" d="M436.3,76.7c0.8,0.5,0.3,1.4,0.6,2c0,1.5-0.2,2.7-2.2,2.4c-0.6-0.1-1.2,0.4-1.2,0.9c0.4,3.4-1.7,2.3-3.5,2
	c0,0,0,0,0,0c0-2.4,0.1-4.8,0.1-7.2c1.1,0,2.2,0,3.3-0.1C434.4,76.7,435.4,76.7,436.3,76.7z"/>
<path class="st6" d="M444.6,99.7c1.3-0.9,2.2,0.2,2.2,1.1c0.1,1.1,0.9,2.7-0.7,3.5c-1.5,0.8-2.7,1.9-3.5,3.4
	c-0.8,1.5-2.2,1.3-3.6,1.2c-1.6-0.1-1.1-1.4-1.2-2.4c0,0,0,0,0,0c0.5,0,1-0.2,1.4,0c2.9,1.1,2.9-3.1,5.3-2.9c0-0.3,0-0.6,0-1
	C444.5,101.7,444.5,100.8,444.6,99.7L444.6,99.7z"/>
<path d="M426.3,94.5c0,0.5-0.1,1.1,0,1.6c0.3,1.5-0.4,1.9-1.8,1.8c-1.6-0.1-3.3,0-4.9,0c0,0,0,0,0,0c0-1.1,0-2.2,0-3.4c0,0,0,0,0,0
	C421.8,94.6,424,94.6,426.3,94.5L426.3,94.5z"/>
<path class="st6" d="M714.7,44.6c-0.1-1.6,0.4-2.6,2.3-2.3c0.9,0.1,1.9,0,2.9,0c0.3,0,0.9-0.1,0.9,0c0.6,1.9,3.4,2,3.6,4.3
	c0,0,0,0,0,0c-1,0-1.9,0-2.9,0c0.1-1.3-0.1-2.1-1.8-1.9C718.1,44.8,716.4,44.6,714.7,44.6L714.7,44.6z"/>
<path class="st8" d="M734,35.5c1.3-0.2,1.6,0.5,1.3,1.5c-0.3,0.9,1.1,2.6-1,2.8c-0.6,0.1-1.3,0.3-1.3,0.9c0,1.2-0.5,1.6-1.7,1.6
	c-1.2-0.1-2.4,0.2-2.6-1.5c0-0.3-0.3-0.7-0.5-0.7c-2.9-0.3-1.1-2.5-1.6-3.8c2-0.3,1.9-3.4,4.5-3.2c1.5,0.1,2,0.6,1.8,1.9
	c-0.9,0.2-2-0.2-2.4,1.1c-0.1,0.6-0.1,1.1,0.4,1.5c0.6,0.5,1.4,0.4,2.1,0.2C734.2,37.4,733.8,36.3,734,35.5z"/>
<path class="st9" d="M734,35.5c-0.2,0.8,0.2,1.9-0.9,2.3c-0.7,0.2-1.4,0.3-2.1-0.2c-0.5-0.4-0.6-1-0.4-1.5c0.3-1.3,1.5-0.9,2.4-1.1
	C733.4,35.1,733.9,35,734,35.5z"/>
<path class="st8" d="M233.3,4.7c0.6-0.7,0.4-2.2,2.1-1.9c1.1,0.2,2.5-0.3,2.4,1.6c0,0.2,0.5,0.8,0.8,0.7c1.9-0.2,1.4,1.2,1.5,2.2
	c0.1,1,0,1.9-1.4,1.8c-0.7-0.1-1,0.8-1.2,1.3c-0.5,1.4-1.6,0.9-2.6,1c-1.1,0.1-1.1-0.5-1.1-1.3c0-0.8-0.6-1.1-1.3-1.1
	c-1.9-0.1-0.8-1.5-1-2.3c-0.3-1,0.1-1.7,1.3-1.5c0.1,0.4,0.3,0.7,0.4,1.1c0.3,1,1.2,0.9,1.9,0.8c0.8-0.1,0.6-0.8,0.6-1.3
	c0-1.1-0.7-1-1.5-1C233.9,4.8,233.6,4.8,233.3,4.7z"/>
<path class="st9" d="M233.3,4.7c0.3,0,0.6,0.1,0.9,0.1c0.7,0,1.5-0.1,1.5,1c0,0.5,0.2,1.2-0.6,1.3c-0.8,0.1-1.6,0.3-1.9-0.8
	c-0.1-0.4-0.3-0.7-0.4-1.1C232.9,5.1,233.1,4.9,233.3,4.7z"/>
<path class="st10" d="M103.2,71.7c0,3.8,0,7.7,0,11.5c0,1.3-0.2,1.8-1.7,1.8c-7.9-0.1-15.8-0.1-23.7,0c-1.1,0-1.5-0.2-1.5-1.4
	c-0.2-4.8-0.3-4.8,4.6-4.8c4.8,0,9.6,0,14.4,0c1.4,0,1.7-0.4,1.7-1.7c-0.1-3.7-0.1-7.4,0-11c0-1.4-0.5-1.7-1.8-1.7
	c-3.4,0.1-6.9,0-10.3,0.1c-1.4,0-1.9-0.3-1.9-1.8c0-4.5-0.1-4.5,4.5-4.5c4.6,0,9.3,0.1,13.9,0c1.5,0,1.9,0.4,1.8,1.9
	C103.2,63.8,103.2,67.8,103.2,71.7z"/>
<path class="st10" d="M75.9,61.2c0,5.1,0,10.2,0,15.3c0,1.4-0.4,1.7-1.7,1.7c-5,0.1-5,0.1-5-4.9c0-9.1,0-18.2,0-27.3
	c0-1.6,0.4-2,2-2c4.8,0,4.8,0,4.8,4.7C75.9,52.9,75.9,57.1,75.9,61.2z"/>
<path class="st10" d="M86.2,43.7c-2.8,0-5.6,0-8.4,0c-1.1,0-1.4-0.3-1.5-1.5C76.1,37,76,37,81.4,37c4.5,0,8.9,0,13.4,0
	c1.3,0,1.7,0.4,1.7,1.7c0.1,5,0.1,5-4.9,5C89.8,43.7,88,43.7,86.2,43.7z"/>
<path class="st10" d="M103.2,47c0,3.4,0,3.1-3.5,3.5c-3.4,0.3-2.5-1.7-2.8-3.6c-0.5-3.3,1.7-2.5,3.6-2.8
	C103.5,43.7,103.4,45.4,103.2,47z"/>
<path class="st10" d="M453.6,61c0-7.4,0-14.7,0-22.1c0-1.5,0.3-2,2-2c7.8,0.1,15.7,0.1,23.5,0c1.6,0,2,0.4,2,2c0,4.8,0,4.8-4.7,4.8
	c-4.7,0-9.4,0.1-14.2,0c-1.4,0-1.9,0.3-1.9,1.8c0.1,3.4,0.1,6.9,0,10.3c-0.1,1.5,0.4,1.9,1.9,1.8c5.6-0.1,11.2,0,16.8-0.1
	c1.5,0,2.1,0.2,2.1,1.9c-0.1,4.8,0,4.8-4.8,4.8c-4.7,0-9.4,0.1-14.2,0c-1.4,0-1.7,0.4-1.7,1.8c0.1,3.7,0.1,7.4,0,11
	c0,1.5,0.5,1.7,1.8,1.7c5.6-0.1,11.2,0,16.8-0.1c1.7,0,2.2,0.4,2.1,2.1c-0.1,4.2,0,4.2-4.3,4.2c-6.8,0-13.6-0.1-20.4,0.1
	c-2.4,0.1-2.8-0.7-2.8-2.9C453.7,75.1,453.6,68,453.6,61z"/>
<path class="st11" d="M471.9,76.8c-0.4,0-0.8,0-1.2,0c-2-0.1-4.9,0.9-5.7-0.4c-1-1.8-0.3-4.5-0.4-6.8c0-0.9,0.4-1,1.2-1
	c4.2,0,8.3,0,12.5,0c0.9,0,1.2,0.2,1.3,1.2c0.7,7,0.7,7-6.2,7C472.9,76.8,472.4,76.8,471.9,76.8z"/>
<path class="st11" d="M472,55.7c-2,0-4-0.1-6,0c-1.1,0-1.3-0.3-1.4-1.4c-0.4-6.4-0.4-6.3,5.9-6.3c2.6,0,5.1,0,7.7,0
	c1.1,0,1.3,0.3,1.4,1.4c0.4,6.4,0.4,6.3-5.9,6.3C473.1,55.7,472.5,55.7,472,55.7z"/>
<path class="st10" d="M487.7,71.5c0,0.9,0,1.8,0,2.6c-0.1,1.3,0.6,3.4-0.3,3.8c-1.5,0.7-3.4,0.3-5.1,0.3c-0.8,0-0.8-0.6-0.8-1.2
	c0-3.7,0-7.3,0-11c0-0.9,0.2-1.2,1.2-1.3c5.1-0.5,5.1-0.5,5.1,4.6C487.7,70,487.7,70.8,487.7,71.5z"/>
<path class="st10" d="M487.7,50.9c0,0.6,0,1.3,0,1.9c0,4.6-0.6,5.1-5.3,4.4c-0.9-0.1-1-0.5-1-1.2c0-3.5,0-7,0-10.5
	c0-0.9,0.3-1.2,1.2-1.3c5-0.5,5-0.5,5,4.6C487.7,49.4,487.7,50.2,487.7,50.9z"/>
<path class="st10" d="M287.5,60.9c0-7.3,0-14.5,0-21.8c0-1.6,0.2-2.2,2-2.2c7.8,0.1,15.7,0.1,23.5,0c1.7,0,1.9,0.6,1.9,2
	c0,4.7,0,4.7-4.7,4.7c-4.9,0-9.8,0.1-14.6,0c-1.5,0-1.9,0.4-1.9,1.9c0.1,3.4,0.1,6.9,0,10.3c-0.1,1.5,0.5,1.8,1.9,1.8
	c5.8-0.1,11.5,0,17.3-0.1c1.4,0,2.1,0.2,2.1,1.9c-0.1,4.8,0,4.9-4.8,4.9c-4.8,0-9.6,0.1-14.4,0c-1.5,0-2,0.4-2,2
	c0.1,5.6,0,11.2,0.1,16.8c0,1.6-0.4,2-2,2c-4.3-0.1-4.3,0-4.3-4.2C287.5,74.2,287.5,67.5,287.5,60.9z"/>
<path class="st10" d="M321.6,75c0,2.8-0.1,5.6,0,8.4c0,1.3-0.4,1.6-1.6,1.6c-4.6,0.1-4.6,0.1-4.6-4.5c0-4.6,0.1-9.3,0-13.9
	c0-1.5,0.4-1.8,1.9-1.8c4.4,0,4.4,0,4.4,4.3C321.6,71,321.6,73,321.6,75z"/>
<path class="st11" d="M305.4,55.7c-2,0-4-0.1-6,0c-1.1,0-1.3-0.4-1.3-1.4c-0.3-6.3-0.4-6.3,5.9-6.3c2.5,0,5,0.1,7.4,0
	c1.3-0.1,1.6,0.4,1.6,1.6c0.1,6.1,0.2,6.1-5.9,6.1C306.5,55.7,306,55.7,305.4,55.7z"/>
<path class="st10" d="M321.6,50.8c0,1.1-0.1,2.3,0,3.3c0.4,2.5-0.5,3.3-3,3.1c-3.2-0.2-3.2-0.1-3.2-3.3c0-2.8,0-5.6,0-8.4
	c0-1,0.3-1.3,1.4-1.4c4.9-0.3,4.9-0.3,4.9,4.5C321.6,49.3,321.6,50,321.6,50.8z"/>
<path class="st10" d="M498.3,64.6c0-6.2,0.1-12.3,0-18.5c0-1.6,0.4-2,2-2c4.3,0.1,4.3,0,4.3,4.2c0,2.6,0,5.3,0,7.9
	c0,1,0.3,1.4,1.3,1.4c6.3,0,12.6-0.1,19,0c1.3,0,1.3-0.7,1.3-1.6c0-3.3,0.1-6.6,0-9.8c0-1.5,0.2-2.1,1.9-2.1c4.4,0.1,4.4,0,4.4,4.4
	c0,11.4,0,22.9,0,34.3c0,1.8-0.5,2.3-2.2,2.2c-4-0.1-4,0-4-4c0-5-0.1-9.9,0-14.9c0-1.4-0.3-1.9-1.8-1.9c-6,0.1-12,0.1-18,0
	c-1.5,0-1.9,0.4-1.8,1.9c0.1,5.6,0,11.2,0.1,16.8c0,1.5-0.2,2.1-1.9,2.1c-4.4-0.1-4.4,0-4.4-4.4C498.3,75.3,498.3,69.9,498.3,64.6z"
	/>
<path class="st10" d="M515.3,43.7c-2.9,0-5.7-0.1-8.6,0c-1.4,0-1.7-0.4-1.7-1.7c-0.1-5-0.1-5,4.9-5c4.7,0,9.4,0.1,14.1,0
	c1.4,0,1.7,0.4,1.7,1.7c0.1,5,0.1,5-4.9,5C518.9,43.7,517.1,43.7,515.3,43.7z"/>
<path class="st11" d="M516.5,55.7c-0.6,0-1.1,0-1.7,0c-6,0-6.5-0.5-5.6-6.7c0.1-0.9,0.5-1,1.2-1c4.2,0,8.3,0,12.5,0
	c1.2,0,1.2,0.5,1.3,1.4c0.3,6.3,0.3,6.3-6,6.3C517.7,55.7,517.1,55.7,516.5,55.7z"/>
<path class="st10" d="M199.7,60.8c0-7.2,0.1-14.4,0-21.6c0-1.7,0.3-2.3,2.2-2.3c4.6,0.1,4.6,0,4.6,4.6c0,5,0,9.9,0,14.9
	c0,1.4,0.4,1.8,1.7,1.7c3.4-0.1,6.9,0,10.3-0.1c1.4,0,2,0.2,1.9,1.8c0,4.5,0.1,4.5-4.5,4.5c-2.6,0-5.1,0.1-7.7,0
	c-1.5-0.1-1.9,0.4-1.9,1.9c0.1,5.6,0,11.2,0.1,16.8c0,1.4-0.1,2.1-1.9,2.1c-4.9-0.1-4.9,0-4.9-4.8C199.7,73.7,199.7,67.2,199.7,60.8
	z"/>
<path class="st10" d="M227.5,43.4c0-0.7,0-1.4,0-2.2c0-4.6,0.6-5.1,5.3-4.4c0.9,0.1,1,0.5,1,1.2c0,3.7,0,7.3,0,11
	c0,0.9-0.3,1.2-1.2,1.3c-5,0.5-5,0.5-5-4.6C227.5,45,227.5,44.2,227.5,43.4z"/>
<path class="st10" d="M233.8,78.3c0,1,0,2.1,0,3.1c0,3.5,0,3.4-3.4,3.6c-2.3,0.1-3.1-0.4-2.9-2.8c0.2-3,0.1-6,0-9.1
	c0-1.2,0.2-1.6,1.5-1.7c4.7-0.1,4.7-0.2,4.7,4.4C233.8,76.7,233.8,77.5,233.8,78.3z"/>
<path class="st10" d="M220.8,54.2c0-3.3,0-3.3,3.4-3.3c2.8,0,2.8,0,2.8,3.9c0,2.9,0,2.6-3.6,2.9C220.1,58,220.8,56,220.8,54.2z"/>
<path class="st10" d="M223.6,64.8c3.4,0,3.2,0,3.5,3.6c0.4,3.5-1.9,2.4-3.6,2.7c-3.5,0.6-2.4-1.8-2.7-3.6
	C220.2,64.3,222.2,64.7,223.6,64.8z"/>
<path class="st10" d="M630.7,60.8c0-7.3,0.1-14.6,0-21.8c0-1.7,0.5-2.1,2.1-2.1c10.1,0.1,20.2,0.1,30.2,0c1.7,0,2.3,0.3,2.3,2.2
	c-0.1,4.6,0,4.6-4.6,4.6c-7,0-14.1,0.1-21.1-0.1c-1.9,0-2.3,0.5-2.2,2.3c0.1,3.4,0.1,6.7,0,10.1c-0.1,1.6,0.3,2.2,2.1,2.2
	c3.4-0.1,6.9,0,10.3-0.1c1.3,0,1.6,0.3,1.6,1.6c0.1,4.7,0.1,4.7-4.5,4.7c-2.6,0-5.1,0.1-7.7,0c-1.6-0.1-1.8,0.6-1.8,1.9
	c0.1,3.5,0.1,7,0,10.6c-0.1,1.6,0.4,2,2,2c7.9-0.1,15.8,0,23.8-0.1c1.9,0,2.2,0.6,2.2,2.3c-0.1,4,0,4-4,4c-9.5,0-19,0-28.6,0
	c-1.7,0-2.1-0.4-2.1-2.1C630.8,75.5,630.7,68.2,630.7,60.8z"/>
<path class="st10" d="M157,60.9c0-7.4,0-14.7,0-22.1c0-1.5,0.3-1.9,1.8-1.9c10.2,0.1,20.3,0.1,30.5,0c1.5,0,1.8,0.5,1.8,1.9
	c0,4.9,0.1,4.9-4.8,4.9c-7,0-14.1,0-21.1,0c-1.6,0-2,0.4-2,2c0.1,3.5,0.1,7,0,10.6c-0.1,1.6,0.5,2,2,1.9c3.4-0.1,6.7,0,10.1-0.1
	c1.4,0,1.9,0.2,1.9,1.8c0,4.5,0.1,4.5-4.5,4.5c-2.6,0-5.1,0.1-7.7,0c-1.6-0.1-1.9,0.5-1.8,1.9c0.1,3.4,0.1,6.9,0,10.3
	c-0.1,1.7,0.3,2.3,2.2,2.3c7.8-0.1,15.7,0,23.5-0.1c1.8,0,2.3,0.4,2.2,2.2c-0.1,4.1,0,4.1-4.2,4.1c-9.2,0-18.4,0-27.6,0
	c-1.8,0-2.4-0.3-2.4-2.3C157.1,75.4,157,68.1,157,60.9z"/>
<path class="st10" d="M114.3,61c0-7.4,0-14.7,0-22.1c0-1.6,0.4-2,2-2c10.1,0.1,20.2,0.1,30.2,0c1.6,0,1.9,0.5,1.9,2
	c0,4.7,0,4.7-4.7,4.7c-7.1,0-14.2,0-21.4,0c-1.5,0-1.9,0.4-1.9,1.9c0.1,3.6,0.1,7.2,0,10.8c-0.1,1.6,0.5,1.8,1.9,1.8
	c3.4-0.1,6.7,0,10.1-0.1c1.5,0,2,0.3,2,1.9c-0.1,4.3,0,4.3-4.4,4.3c-2.5,0-5,0.1-7.4,0c-1.9-0.1-2.2,0.6-2.2,2.3
	c0.1,3.4,0.1,6.7,0,10.1c-0.1,1.6,0.3,2.2,2.1,2.1c7.9-0.1,15.8,0,23.8-0.1c1.7,0,2.1,0.4,2.1,2.1c-0.1,4.2,0,4.2-4.1,4.2
	c-9.3,0-18.6,0-27.8,0c-1.7,0-2.3-0.3-2.3-2.2C114.3,75.5,114.3,68.2,114.3,61z"/>
<path class="st10" d="M244.8,60.8c0-7.3,0.1-14.6,0-21.8c0-1.7,0.5-2.1,2.1-2.1c10,0.1,20,0.1,30,0c1.8,0,2.1,0.6,2,2.2
	c-0.1,4.6,0,4.6-4.6,4.6c-7.1,0-14.2,0.1-21.4,0c-1.6,0-2,0.5-2,2c0.1,3.5,0.1,7,0,10.6c-0.1,1.7,0.6,2,2,1.9
	c3.4-0.1,6.9,0,10.3-0.1c1.2,0,1.6,0.3,1.6,1.6c0.1,4.7,0.2,4.7-4.5,4.7c-2.6,0-5.1,0.1-7.7,0c-1.3,0-1.8,0.2-1.8,1.7
	c0.1,3.6,0.1,7.2,0,10.8c0,1.6,0.4,2,2,2c7.9-0.1,15.8,0,23.8-0.1c1.8,0,2.3,0.5,2.2,2.3c-0.1,4,0,4-4,4c-9.4,0-18.7,0-28.1,0
	c-1.7,0-2.1-0.4-2.1-2.1C244.9,75.6,244.8,68.2,244.8,60.8z"/>
<path class="st10" d="M620.2,61c0,7.3,0,14.6,0,21.8c0,1.6-0.3,2.2-2.1,2.2c-4.2-0.1-4.2,0-4.2-4.3c0-4.8-0.1-9.6,0-14.4
	c0-1.8-0.5-2.1-2.1-2.1c-5.8,0.1-11.5,0.1-17.3,0c-1.7,0-2.3,0.3-2.3,2.2c0.1,5.5,0,11,0.1,16.6c0,1.6-0.4,2-2,2
	c-4.3-0.1-4.3,0-4.3-4.2c0-13.8,0-27.7,0-41.5c0-1.8,0.3-2.5,2.3-2.4c4,0.2,4,0,4,4c0,5,0.1,10.1,0,15.1c0,1.8,0.5,2.1,2.1,2.1
	c5.8-0.1,11.5-0.1,17.3,0c1.7,0,2.3-0.3,2.3-2.2c-0.1-5.7,0-11.4-0.1-17c0-1.6,0.4-2,2-2c4.3,0.1,4.3,0,4.3,4.2
	C620.2,47.7,620.2,54.4,620.2,61z"/>
<path class="st10" d="M346.1,74.6c0-2.9,0-5.8,0-8.6c0-1.2-0.2-1.9-1.6-1.6c-0.2,0-0.5,0-0.7,0c-4.8,0-4.8,0-4.5-4.9
	c0.1-1.1,0.4-1.3,1.4-1.3c5.8,0,11.7,0,17.5,0c1.1,0,1.3,0.4,1.3,1.4c0.3,4.9,0.3,5-4.6,4.8c-2.2-0.1-2.8,0.5-2.7,2.7
	c0.2,5.3,0,10.7,0.1,16.1c0,1.6-0.4,2-2,2c-4.3-0.1-4.3,0-4.3-4.2C346.1,78.7,346.1,76.7,346.1,74.6z"/>
<path class="st10" d="M338.9,47.3c0,3,0,5.9,0,8.9c0,1.1-0.3,1.5-1.5,1.5c-5.3,0.2-5.3,0.3-5.3-5.1c0-4.6,0-9.3,0-13.9
	c0-1.3,0.3-1.7,1.7-1.8c5-0.1,5-0.1,5,4.8C338.9,43.6,338.9,45.4,338.9,47.3z"/>
<path class="st10" d="M360,47c0-2.9,0-5.7,0-8.6c0-1.1,0.3-1.5,1.5-1.5c4.8-0.2,4.8-0.2,4.8,4.6c0,4.8,0,9.6,0,14.4
	c0,1.3-0.4,1.7-1.7,1.7c-4.6,0-4.6,0.1-4.6-4.4C360,51.2,360,49.1,360,47z"/>
<path class="st10" d="M556.8,64.2c0-6.2,0-12.5,0-18.7c0-1.5-0.3-1.9-1.8-1.9c-3.5,0.1-7,0-10.6,0.1c-1.3,0-1.6-0.4-1.6-1.6
	c-0.1-5.1-0.2-5.1,5-5.1c9.1,0,18.2,0,27.3,0c1.7,0,2.3,0.3,2.3,2.2c-0.1,4.6,0,4.6-4.6,4.6c-2.5,0-5,0.1-7.4,0
	c-1.6-0.1-1.9,0.5-1.9,2c0.1,12.2,0,24.5,0.1,36.7c0,1.9-0.2,2.8-2.5,2.7c-4.2-0.2-4.2-0.1-4.2-4.3
	C556.8,75.3,556.8,69.7,556.8,64.2z"/>
<path class="st8" d="M391.7,35.9c-0.3-2.2,0.5-3.2,2.8-2.8c1,0.1,2.1,0.1,3.1,0c1.3-0.1,2.5,0,2.3,1.8c0,0.1,0,0.2,0,0.2
	c2.3,0.7,3,3.5,5.2,4.2c0.9,0.3,0.9,0.6,0.9,1.3c0,1.8,0,3.5,0,5.3c0,1.3-0.4,1.6-1.6,2.4c-1.5,1-2.6,2.9-4.6,3.6
	c0.4,2.6-1.5,1.9-2.9,2c-1,0-2.1,0-3.1,0c-1.2,0-2.5,0.4-2.3-1.6c0-0.3-0.3-0.8-0.4-0.8c-3,0.5-2.5-3.6-4.9-3.8
	c-1.2-0.1-0.8-1-0.8-1.6c0.2-2.2-0.6-4.4,0.4-6.5c0.1-0.3,1.2-0.1,1.8-0.1c0.2,3,0.2,2.9,4.5,2.9c1.8,0,2.4-0.6,2.4-2.4
	C394.6,36.1,394.7,36.1,391.7,35.9z"/>
<path class="st9" d="M391.7,35.9c3,0.2,2.9,0.2,2.9,4c0,1.8-0.6,2.4-2.4,2.4c-4.3,0-4.3,0.1-4.5-2.9c0.2-0.2,0.4-0.4,0.5-0.5
	c1.8,0.2,3-0.2,2.8-2.3C391.3,36.3,391.5,36.1,391.7,35.9z"/>
<path class="st8" d="M391.2,36.5c0.2,2.1-1,2.6-2.8,2.3C387.8,36.2,389.5,36.3,391.2,36.5z"/>
<path class="st8" d="M44.8,85.4c-1.1,0-2,0-2.8,0c-0.9,0-1.8,0.2-1.7-1.2c0.1-1.6-1.7-1.7-2.5-2.3c-1.4-1.2-1.9-3.3-3.9-3.7
	c-0.5-0.1-0.8-0.5-0.8-1.1c0-2.2,0-4.5,0-6.7c0-0.2,0.1-0.6,0.2-0.6c3.1-1.3,4.9-4.1,7.2-6.4c0.6-0.6,1.3-0.4,2-0.5
	c1.2,0,2.4,0.1,3.6,0c2.7-0.3,3.9,1.6,5.2,3.3c0.4,0.5,0.6,1.1,1.4,1c0.9-0.1,1.1,0.3,1.1,1.1c0,0.3,0.3,0.7,0.5,1
	c0.5,0.6,2-0.4,1.9,1.2c-0.1,2.4,0.8,5.3-0.7,7.1c-0.9,1-1.5,2.8-3.4,3.3c-0.9,0.2-2.1,2.1-2.3,2.6C48.7,86.6,46.4,85,44.8,85.4z
	 M45.1,66.7c-0.1-0.8,0.3-1.9-1-2.3c-1.2-0.4-1.7,0.4-2.4,1.3c-1,1.3-2.2,2.4-3.5,3.5c-0.5,0.5-0.9,0.9-0.8,1.6
	c0.1,0.9,0.9,1,1.6,1.2C41.8,72.5,45.1,69.7,45.1,66.7z"/>
<path class="st8" d="M684.4,63.3c1.4,0.2,2-0.2,2.9-1.6c1.5-2.4,3.4-2.4,7.8-2.7c2.9-0.2,3.6,2.2,5.2,3.6c0.1,0.1,0,0.3,0.1,0.5
	c2.4-0.6,1.9,2.9,4,2.8c0.9,0,0.8,0.6,0.8,1.2c0,1.5,0,3,0,4.5c0,1.4,0.5,3-1.7,3.4c-1,0.2-1.6,1.7-2.1,2.4c-1,1.5-3.1,1.7-3.5,3.7
	c-0.1,0.8-8.1,0.8-8.5,0.1c-1.2-2.5-3.5-4.2-5.4-6.1c-1.1-1-1.4-1.8-1.4-3.1c0-1.5,0-3,0-4.5c0-0.9-0.1-1.6,1.2-1.8
	C685.2,65.5,684.2,64.1,684.4,63.3C684.5,63.3,684.4,63.3,684.4,63.3z M698.7,68.2c0.5-0.4,1.7,0.6,2-0.7c0.2-0.7,0.1-1.4-0.5-2
	c-1.5-1.4-3.2-2.7-4.5-4.4c-0.8-1-1.7-0.7-2.1,0.5C692.8,64.6,695.4,68.1,698.7,68.2z"/>
<path class="st12" d="M430.2,76.8c0,2.4-0.1,4.8-0.1,7.2c-3.8,0-3.8,0-3.8,3.8c0,1.1,0,2.2-0.1,3.3c-1.1,0-2.2,0-3.4,0
	c-3.3,0-3.3,0-3.3,3.4c0,0,0,0,0,0c-5.9,0-11.9,0-17.8,0c0,0,0,0,0,0c0-1.7,0.6-3.8-2.5-3.5c-1,0.1-0.9-0.9-0.9-1.6
	c0-1.8,0-3.6,0-5.4c1.3,0,2.5-0.1,3.8-0.1c1.7,0.1,3.4,0.3,2.9-2.4c-0.2-1.5,1.2-1,1.9-0.9c1.6,0.1,2.1-0.4,2-2
	c-0.1-2.4,0-4.8,0-7.2c0-0.7-0.2-1.7,0.9-1.4c2.6,0.5,2.6-1.1,2.4-2.9c0-0.3,0-0.6,0-1c0,0,0,0,0,0c4.6,0,9.3,0,13.9,0l0,0
	c0.1,3.8,0.1,3.8,3.9,3.9c0,0,0,0,0,0C430.1,72.3,430.1,74.5,430.2,76.8z M426.2,78.8c0.2-1.1,0.3-2.1-1.5-2.1c-1.5,0-2,0.4-1.8,1.9
	c0.1,1.1-0.3,2.2,1.6,2.1C425.9,80.6,426.6,80.4,426.2,78.8z"/>
<path class="st13" d="M398.4,84.1c0,1.8,0,3.6,0,5.4c0,0.7-0.1,1.7,0.9,1.6c3.1-0.4,2.5,1.8,2.5,3.5c-2.4,0-4.8,0-7.2,0
	c0-2.7,0.2-5.4,0-8.2c-0.1-2,0.5-2.8,2.5-2.4C397.5,84.1,398,84.1,398.4,84.1z"/>
<path class="st8" d="M13.9,53.3c0-1,0.1-2,0.1-2.9c0,0,0,0,0,0c1.2-0.2,2.9,0.8,3.1-1.6c0.1-0.6,1.9-0.3,2.9-0.2
	c1.5,0.1,3.7-1,3.8,1.9c2.1-0.1,1.6,2.8,3.5,2.9c0.7,0,0.5,0.7,0.6,1.1c0.5,3.3-0.8,5.6-3.4,7.8c-1.5,1.2-2.4,2.5-4.5,2.2
	c-1.3-0.2-2.1-0.3-3.2-1.4c-1.1-1.1-2.1-2.7-3.6-3.4c-0.8-0.3-0.5-0.9-0.6-1.3c-0.1-1.2,0-2.3-0.4-3.5C11.5,53,13,53.3,13.9,53.3
	c0.5,2.2,1.4,2.9,3.7,2.4c2.5-0.6,2-2.4,1.6-4.1c-0.1-0.6-0.2-1.1-0.9-1.1c-0.5,0-0.9,0.2-1,0.8C16.9,53.1,15.6,53.5,13.9,53.3z"/>
<path class="st8" d="M600,16.3c0-0.9,0-1.6,1.2-1.5c1,0.1,2.1,0,3.1,0c1,0,1.7-0.1,2.1,1.4c0.3,1.3,2.3,1.7,3.3,2.8
	c0.5,0.5,0.7,0.8,0.8,1.4c0.5,3.4-0.9,5.7-3.5,8c-1.3,1.2-2.2,2-4,1.8c-1.5-0.1-2.8,0.2-3.8-1.8c-0.4-0.8-1.5-2.7-3.3-2.9
	c-0.6-0.1-1-0.6-0.8-1.2c0.5-1.8-1.5-4.4,1.7-5.4C596.8,16.8,598.2,16.3,600,16.3c0.2,1.7-0.1,3-2,3.4c-1.1,0.2-1,1.1-0.3,1.5
	c1.1,0.8,2.5,0.5,3.7,0.3c1-0.2,1-1.2,1.1-2.1C602.7,17.5,601.8,16.5,600,16.3z"/>
<path class="st8" d="M376.3,20.6c-0.3-1.8,0.3-2.6,2.3-2.3c1.6,0.2,3.9-0.8,3.7,2.2c0,0.2,0.4,0.4,0.7,0.6c0.6,0.3,1.8-0.5,1.9,0.7
	c0.2,1.5,0.1,3,0,4.5c0,0.5-0.5,0.6-0.9,0.6c-1.4-0.1-2.2,0.4-2,1.9c0.1,1-0.5,1-1.2,1c-1,0-1.9-0.1-2.9,0c-1,0.1-1.5,0-1.4-1.2
	c0-0.5-0.4-1.6-1.4-1.7c-3.8-0.4-1.3-3.2-1.7-4.8c-0.4-1.7,1.4-0.7,2.2-1c0,0.6,0.1,1.1,0.1,1.7c0,1.4,0.8,1.7,2,1.7
	c1.3,0,1.8-0.5,1.9-1.9C379.8,19.8,377.7,20.9,376.3,20.6z"/>
<path class="st9" d="M376.3,20.6c1.3,0.3,3.5-0.7,3.4,2.1c0,1.3-0.5,1.9-1.9,1.9c-1.2,0-2-0.3-2-1.7c0-0.6,0-1.1-0.1-1.7
	C376,20.9,376.2,20.7,376.3,20.6z"/>
<path class="st8" d="M141.1,101.2c0.1-0.5-0.3-1.3,0.6-1.3c1.7-0.1,3.4-0.2,5,0c1,0.1,0.9,1.7,2.4,2.1c0.9,0.2,2.3,1.8,2.9,2.9
	c0.7,1.3,0.2,3.3,0.2,4.9c0,0.5-0.5,0.5-0.9,0.6c-0.4,0.1-1.1,0.2-1.1,0.3c0.2,2.2-2.8,1.9-2.9,3.8c0,0.9-0.8,0.6-1.3,0.6
	c-1.3,0-2.6,0-3.8,0c-0.4,0-1,0.1-1.1-0.6c-0.3-2.2-2.4-2.8-3.6-4.2c-1.5-1.7-0.3-3.5-0.7-5.3c-0.2-1.2,0.8-0.9,1.4-1
	c0,2.5,1.7,2.5,3.4,2.4c1.7,0,1.8-1.2,1.8-2.5C143.6,102.4,143.3,101.1,141.1,101.2z"/>
<path class="st9" d="M141.1,101.2c2.1-0.1,2.5,1.2,2.4,2.9c-0.1,1.2-0.1,2.4-1.8,2.5c-1.8,0-3.5,0.1-3.4-2.4c0,0,0,0,0,0
	c1.1-0.5,2.5-0.7,2.4-2.4C140.8,101.6,141,101.4,141.1,101.2z"/>
<path class="st8" d="M140.6,101.8c0.2,1.8-1.3,1.9-2.4,2.4c0-0.8,0.1-1.6,0.1-2.5c0,0,0,0,0,0C139,101.8,139.8,101.8,140.6,101.8z"
	/>
<path class="st8" d="M427.7,23.9c0.2-0.9-0.5-2.4,0.4-2.6c1.4-0.4,3-0.2,4.5-0.1c0.5,0,0.4,0.6,0.4,1c0,1.6,0.7,2.4,2.3,2.3
	c0.7,0,1.1,0.1,1,0.9c0,1.2,0.3,3.3-0.1,3.4c-2.1,0.7-2.6,3-4.4,3.8c-0.9,0.4-2,0.1-3.1,0.1c-0.3,0-0.6-0.1-0.9-0.2
	c1.1-3-3.1-1.9-3.1-4.1c0-0.6,0.1-1.1,0-1.7c-0.4-2,0.6-2.5,2.3-2.2c0,0.2,0.1,0.3,0.1,0.5c0,1.2-0.1,2.5,1.8,2.4
	c1.1,0,1.6-0.5,1.6-1.6c0.1-1.8-1.2-1.8-2.4-1.8C428,24,427.9,23.9,427.7,23.9z"/>
<path class="st9" d="M427.7,23.9c0.2,0,0.3,0.1,0.5,0.1c1.2,0,2.5-0.1,2.4,1.8c0,1.1-0.5,1.6-1.6,1.6c-1.8,0.1-1.8-1.2-1.8-2.4
	c0-0.2,0-0.3-0.1-0.5C427.3,24.3,427.5,24.1,427.7,23.9z"/>
<path class="st8" d="M436.3,76.7c-1,0-1.9,0-2.9,0c0-1.7-0.1-3.3,0-5c0.1-1.4-0.4-1.8-1.7-1.7c-0.5,0.1-1.1,0-1.7,0l0,0
	c0-3.8,0-3.8-3.9-3.9l0,0c-0.5-1.1,1.2-3.2-1.5-3.5c0-1.2-0.1-2.3,1.6-2.3c0.9,0,1.4-0.6,1.3-1.4c-0.2-1.7,0.7-3.5-0.6-5
	c-0.5-0.6-1.3-0.4-1.9,0.1c-1.3,0.9-2.6,1.8-3.4,3.2c-0.5,0.9-1.2,2.2-1.9,2.3c-2.2,0.3-1.8,1.8-1.8,3.1c-1.7,0-3.5,0-5.2,0.1
	c-0.1-1.2-0.5-2.7,1.7-2.4c0.1,0,0.2,0,0.2,0c0.5-2.2,2.8-2.9,3.8-4.7c0-0.1,0-0.2,0-0.2c-0.4-2.6,2.8-0.3,2.8-2
	c0-1.7,0.3-2.4,2.2-2.3c2.6,0.2,5.3,0,7.9,0c0.4,0,1.1,0,1.1,0c0.2,2.3,3.1,2.4,3.7,4.3c0.1,0.4-0.1,1.3,0.3,1.3
	c2.9-0.5,2.2,4.6,5.4,3.5c0,3.3,0,6.7,0.1,10c0,0.2,0,0.7,0,0.7c-2.2,0.4-2.5,3.1-4.3,3.6C436.7,75.2,436.3,75.6,436.3,76.7z"/>
<path d="M412.9,62.9c1.7,0,3.5,0,5.2-0.1c2.2,0,4.5,0,6.7,0c2.7,0.2,0.9,2.3,1.5,3.5c-4.6,0-9.3,0-13.9,0
	C412.5,65.1,411.9,63.9,412.9,62.9z"/>
<path class="st8" d="M385.4,65.7c-0.4-2.1,0.6-2.6,2.5-2.3c1.4,0.2,3.3-0.7,3.1,2c0,0.7,0.7,0.9,1.2,1.3c0.6,0.4,1.7-0.3,1.8,0.7
	c0.1,1.4,0.1,2.9,0,4.3c0,0.5-0.6,0.4-0.9,0.5c-2.2,0.5-2.6,1.2-1.9,3.4c0,0,0,0,0,0c-1.1,0-2.2,0-3.3,0c-1.5,0.1-2.9,0.1-2.5-2.1
	c0.1-0.7-0.4-1.2-1.1-1.2c-3.4-0.3-1.4-2.8-1.6-4.3c-0.3-1.8,1.5-0.7,2.2-1c0,0.4,0.1,0.8,0.1,1.2c-0.1,1.6,1,1.7,2.2,1.7
	c1.5,0,1.6-0.9,1.6-2.1C388.8,64.9,386.7,66.1,385.4,65.7z"/>
<path class="st9" d="M385.4,65.7c1.2,0.4,3.3-0.8,3.4,1.8c0,1.2-0.1,2.1-1.6,2.1c-1.2,0-2.3-0.1-2.2-1.7c0-0.4,0-0.8-0.1-1.2
	C385,66.3,384.9,65.8,385.4,65.7z"/>
<path class="st8" d="M373,84.9c-0.3-2,1.4-1.3,2.2-1.5c1.7-0.4,3,0.1,4.6,1.3c1.4,1,1.6,3.3,3.8,3.2c0.6,0,0.4,0.8,0.4,1.2
	c0,1.2,0,2.4,0,3.6c0,0.3,0,0.6-0.1,1c-2-0.1-1.9,2.4-3.5,2.8c-0.3,0.1-0.7,0-0.8,0.4c-1,3.6-3.9,1.4-5.8,2c-0.1,0-0.4,0-0.5,0
	c-0.9-2.4-3.3-3.6-4.6-5.5c-0.8-1.1-0.2-3.3-0.1-4.9c0-0.9,0.9-0.4,1.3-0.6c-0.1,2.3,1.4,2.5,3.1,2.4c1.7,0,2.2-1,2.3-2.6
	C375.5,85.8,375,84.7,373,84.9z"/>
<path class="st9" d="M373,84.9c2.1-0.2,2.5,0.9,2.4,2.7c-0.1,1.6-0.6,2.6-2.3,2.6c-1.7,0-3.2-0.1-3.1-2.4c0.2-0.2,0.4-0.4,0.5-0.5
	c1.5,0.2,2.1-0.4,1.9-1.9C372.6,85.3,372.8,85.1,373,84.9z"/>
<path class="st8" d="M372.4,85.4c0.2,1.5-0.4,2.1-1.9,1.9c0-0.6,0-1.3,0-1.9c0,0,0,0,0,0C371.2,85.4,371.8,85.4,372.4,85.4z"/>
<path class="st8" d="M714.7,44.6c1.7,0,3.4,0.2,5,0c1.6-0.2,1.9,0.6,1.8,1.9l-0.1,0.1c-2.6-0.4-2.2,1.5-2.3,3.1
	c-0.2,2,0.9,2.2,2.5,2.2c1.7,0,3.2,0,2.7-2.4l0.1-0.1c1.3-0.1,2.1,0.2,1.9,1.8c-0.1,0.9,0,1.8,0,2.6c0,1.1,0.4,2.4-1.4,2.4
	c-0.6,0-1,0.6-0.9,1.2c0.1,1-0.4,1.3-1.3,1.2c-0.4,0-0.7,0.3-1,0.6c-1.9,2.5-4.5,2-7,0.1c-1.3-1-1.4-3.4-3.7-3.2
	c-0.7,0-0.5-0.7-0.5-1.1c0-1.2,0-2.4,0-3.6c0-1-0.3-1.9,1.4-2.1C713.2,49.2,715.1,45.7,714.7,44.6z"/>
<path class="st8" d="M721.5,46.5c1,0,1.9,0,2.9,0c0,1,0,1.9,0,2.9c0,0-0.1,0.1-0.1,0.1c-2.2,0.3-3.1-0.7-2.9-2.9
	C721.4,46.6,721.5,46.5,721.5,46.5z"/>
<path class="st13" d="M401.7,94.6c5.9,0,11.9,0,17.8,0c0,1.1,0,2.2,0,3.4c-4.8,0-9.6,0-14.4,0C401.8,97.9,401.8,97.9,401.7,94.6z"/>
<path class="st8" d="M44.7,41.2c0.3-0.6-0.5-2,0.8-1.8c1.2,0.2,2.9-1.2,3.6,0.9c0.2,0.5,0.6,0.9,1,1.2c1.8,1.2,1.8,3,0,4.2
	c-1.2,0.7-1.2,3.1-3.4,2.3c-0.7-0.2-1.5,0.1-1.6-1.1c-0.1-0.6-0.8-1.1-1.5-1.3c-1.5-0.5-0.6-1.8-0.8-2.8c-0.2-1.1,0.6-1,1.3-1
	c0.1,1.3,0.5,2.5,2.1,2.3c1-0.1,1-1.2,0.8-1.9C46.7,40.6,45.4,41.6,44.7,41.2z"/>
<path class="st9" d="M44.7,41.2c0.8,0.4,2.1-0.6,2.4,0.9c0.2,0.8,0.2,1.8-0.8,1.9c-1.6,0.2-1.9-1-2.1-2.3
	C44.3,41.6,44.5,41.4,44.7,41.2z"/>
<path class="st8" d="M12,73.8c0.3-0.9,0.3-2,1.6-1.8c1.1,0.1,2.4-0.8,3,1.3c0.3,1.2,2.9,1.3,2.2,3.5c-0.2,0.8,0,1.6-1.2,1.5
	c-0.7-0.1-0.9,0.5-0.9,0.9c-0.2,1.7-1.4,1.5-2.6,1.5c-1.2,0.1-1.7-0.4-1.7-1.6c0-0.6-0.6-0.8-1.3-0.9c-1.9-0.1-0.8-1.5-1-2.3
	c-0.3-1,0.1-1.7,1.3-1.5c0.6,1.1,0.4,3.3,2.6,1.9c0.4-0.3,0.7-0.9,0.4-1.7C13.9,73.4,12.8,74.2,12,73.8z"/>
<path class="st9" d="M12,73.8c0.8,0.3,1.9-0.4,2.5,0.8c0.3,0.7,0,1.4-0.4,1.7c-2.3,1.4-2-0.8-2.6-1.9C11.7,74.2,11.8,74,12,73.8z"/>
<path class="st8" d="M5.3,38.8c0.2-0.7-0.5-2.1,1-1.8c1.1,0.3,3-1.3,3.3,1.2c0.1,0.4,0.2,0.9,0.6,0.9c1.9,0.2,1.3,1.6,1.3,2.7
	c0,2-3.6,4.3-5.6,3.8c-0.7-0.2-0.7-0.6-0.6-1c0.1-0.9-0.7-1.2-1.2-1.2c-2.4,0-1.7-1.8-1.7-3c0-1.8,1.5-0.7,2.3-1
	c0.1,1.2-0.1,2.6,1.8,2.4c1.2-0.2,1.3-1.1,1.1-2C7.4,38.2,6.1,39.2,5.3,38.8z"/>
<path class="st9" d="M5.3,38.8c0.8,0.4,2.1-0.6,2.4,0.9c0.2,0.9,0.1,1.9-1.1,2c-1.9,0.2-1.7-1.2-1.8-2.4C4.9,39.2,5.1,39,5.3,38.8z"
	/>
<path class="st8" d="M726.8,70.5c0.6,0.3,1.9-0.6,1.8,0.8c-0.1,1,1,2.6-1,3.1c-0.4,0.1-1.2,0.4-1.2,0.7c-0.1,2.6-2.1,1.4-3.3,1.7
	c-0.7,0.1-1.3,0-1.2-1c0-0.5-0.1-1-0.8-0.9c-1.5,0.1-1.7-0.8-1.6-2c0.1-1.1-0.6-2.6,1.5-2.4c0.3,0,0.6-0.5,0.8-0.8
	c0.3-0.5-0.3-1.4,0.7-1.5c1.1-0.1,2.3-0.1,3.3,0.1c0.7,0.2,0.2,1.1,0.4,1.7c-0.5,0-1,0-1.4,0.1c-0.9,0.2-1,0.9-0.9,1.7
	c0.1,0.6,0.5,1,1.1,1.1c0.8,0.1,1.5-0.1,1.7-0.9C726.8,71.5,726.8,71,726.8,70.5z"/>
<path class="st9" d="M726.8,70.5c0,0.5,0,1-0.1,1.4c-0.2,0.9-0.9,1-1.7,0.9c-0.6-0.1-1-0.5-1.1-1.1c-0.1-0.8,0.1-1.5,0.9-1.7
	c0.5-0.1,1-0.1,1.4-0.1C726.5,70.2,726.6,70.4,726.8,70.5z"/>
<path class="st8" d="M541.5,100.7c0.6-0.6,0.2-2.1,1.8-1.9c1.3,0.2,2.4-0.2,2.8,1.8c0.2,0.8,1.9,1.3,1.6,3c-0.3,1.6-2.8,4-4.5,4
	c-0.8,0-1.3-0.2-1.4-1.1c-0.1-0.6-0.3-1.3-1.3-1.4c-1.8-0.1-0.7-1.6-0.9-2.4c-0.3-1.1,0.3-1.6,1.4-1.5c0.2,0.6,0.3,1.1,0.6,1.6
	c0.3,0.7,0.8,1,1.5,0.7c0.7-0.3,0.8-0.9,0.8-1.5c0-0.7-0.2-1.2-1-1.2C542.4,100.8,541.9,100.8,541.5,100.7z"/>
<path class="st9" d="M541.5,100.7c0.5,0,0.9,0.1,1.4,0.1c0.9,0,1,0.5,1,1.2c0,0.7-0.1,1.3-0.8,1.5c-0.7,0.3-1.2,0-1.5-0.7
	c-0.2-0.5-0.4-1.1-0.6-1.6C541.1,101.1,541.3,100.9,541.5,100.7z"/>
<path class="st8" d="M118.1,115.6c0.1-0.5-0.3-1.5,0.8-1.3c0.9,0.1,2-0.6,2.5,0.5c0.2,0.5,0.3,1.2,0.9,1.3c2.6,0.2,1.6,2.1,1.6,3.5
	c0,0.8-3.3,3.3-4.2,3.3c-0.8,0-1.5,0.1-1.6-1.1c0-0.5-0.3-1.4-1.4-1.3c-1.2,0.1-1-0.8-0.9-1.5c0.2-1-0.7-2.2,0.7-2.8
	c0.2-0.1,0.5,0,0.7,0.1c0,1-0.2,2.2,1.3,2.3c0.8,0.1,1.4-0.3,1.5-1.1C120.2,115.9,119.2,115.7,118.1,115.6z"/>
<path class="st9" d="M118.1,115.6c1.1,0.1,2.1,0.3,1.9,1.8c-0.1,0.9-0.7,1.2-1.5,1.1c-1.5-0.1-1.3-1.3-1.3-2.3
	C117.5,116,117.8,115.8,118.1,115.6z"/>
<path class="st8" d="M694.2,37.9c0.8,0.1,2.2-0.4,1.8,1.3c-0.3,1.1,1.3,3.2-1.5,3.1c-0.3,0-0.8,0.2-0.8,0.3c0.2,2-1.2,1.5-2.3,1.6
	c-1.2,0.1-2,0-2.4-1.4c-0.3-0.9-2.4-0.6-2.1-2.4c0.2-1.1-0.5-2.7,1.6-2.6c0.2,0,0.6-0.5,0.8-0.8c0.6-1.2,3-2.1,4-1.4
	c0.7,0.4,0.2,1.2,0.3,1.7c-0.5,0-1,0-1.4,0.1c-0.9,0.2-1,0.9-0.9,1.7c0.1,0.6,0.5,1,1.1,1.1c0.8,0.1,1.5-0.1,1.7-0.9
	C694.1,38.9,694.1,38.4,694.2,37.9z"/>
<path class="st9" d="M694.2,37.9c0,0.5,0,1-0.1,1.4c-0.2,0.9-0.9,1-1.7,0.9c-0.6-0.1-1-0.5-1.1-1.1c-0.1-0.8,0.1-1.5,0.9-1.7
	c0.5-0.1,0.9-0.1,1.4-0.1C693.8,37.6,694,37.7,694.2,37.9z"/>
<path class="st8" d="M622.6,18.2c0.2-0.7-0.5-2.1,1-1.8c1,0.2,2.8-1.2,2.8,1.2c0,0.5,0.4,1.1,0.8,1c1.7-0.1,1.6,1,1.6,2.1
	c0,1.2-0.1,2-1.6,1.9c-0.2,0-0.8,0.5-0.8,0.8c0.1,1.5-0.8,1.6-1.9,1.6c-1.2,0-2.2,0.1-2.1-1.6c0-0.4-0.5-0.7-1-0.8
	c-1.3-0.4-1.8-2.9-0.8-3.8c0.2-0.2,0.6-0.1,0.9-0.1c0.3,1.1,0.6,2.1,2.1,1.9c0.7-0.1,0.8-0.6,0.9-1.1
	C624.6,17.9,623.4,18.3,622.6,18.2z"/>
<path class="st9" d="M622.6,18.2c0.8,0.2,2-0.3,1.9,1.3c0,0.6-0.1,1-0.9,1.1c-1.5,0.2-1.8-0.8-2.1-1.9
	C621.7,18.2,622.2,18.3,622.6,18.2z"/>
<path class="st8" d="M330.3,103.1c0.2-0.7-0.5-2.1,1-1.8c1.1,0.2,3-1.3,3.3,1.2c0.1,0.5,0.4,1.1,0.8,1c2.3-0.1,1.4,1.6,1.5,2.6
	c0.2,1.4-0.7,1.4-1.6,1.3c-0.5,0-0.8,0.2-0.8,0.7c0,1.1,0,1.9-1.5,1.7c-1.2-0.1-2.7,0.2-2.8-1.6c-0.1-0.8-0.6-0.7-1.1-0.9
	c-1.6-0.4-0.6-1.7-0.8-2.5c-0.3-1.1,0.4-1.4,1.4-1.3c0.1,0.7,0,1.5,0.9,1.8c0.5,0.2,1.1,0.2,1.6-0.2c0.4-0.3,0.5-0.8,0.5-1.3
	c0-0.8-0.6-0.8-1.2-0.8C331,103.2,330.6,103.2,330.3,103.1z"/>
<path class="st9" d="M330.3,103.1c0.4,0,0.8,0.1,1.2,0.1c0.6,0,1.2,0,1.2,0.8c0,0.5,0,1-0.5,1.3c-0.5,0.4-1.1,0.4-1.6,0.2
	c-0.8-0.3-0.8-1.1-0.9-1.8C329.9,103.5,330.1,103.3,330.3,103.1z"/>
<path class="st8" d="M207.9,29.2c0-1.5,0-3,0-4.5c-0.1-1.4,0.6-1.8,1.9-1.7c0.2,0.8-0.2,2,0.9,2.2c1.2,0.3,2.6,0.6,3.6-0.3
	c0.8-0.7,1-1.7,0.7-2.8c-0.4-1.4-1.3-2.1-2.7-2c0.8-2.6,3-1.1,4.6-1.4c1-0.2,2.1-0.1,2.2,1.4c0.1,1,1.1,1,1.8,1
	c0.3,0.9,0.3,2,1.6,1.9c0.9-0.1,0.8,0.5,0.8,1.1c0,0.6-0.1,1.3,0,1.9c0.6,3-1.8,4.1-3.4,5.6c-0.2,0.2-0.5,0.2-0.6,0.4
	c-0.8,2.7-3,1.9-4.8,2c-1,0-1.4-0.7-2.1-1.1C210.8,31.9,210.3,29.2,207.9,29.2z"/>
<path class="st8" d="M459.4,105c-0.7,0.9-0.5,1.8,0.3,2.4c2.1,1.4,2.2,2.7,0.3,4.1c-0.2,0.2-0.6,0.5-0.6,0.7c0.2,1.8-1,1.6-2.1,1.6
	c-1.1,0-2.5,0.4-2.4-1.6c0-0.4-0.5-0.8-1-0.8c-2.4-0.1-1-1.9-1.2-2.8c-0.3-1.6,1.1-0.8,1.8-1c0,0.5,0,1,0.1,1.4
	c0.2,0.9,0.9,1,1.7,0.9c0.6-0.1,1-0.5,1.1-1.1c0.1-0.8-0.1-1.5-0.9-1.7c-0.5-0.1-0.9-0.1-1.4-0.1c-0.2-1.4,0.2-2.1,1.8-1.9
	C457.7,105.2,458.6,105.1,459.4,105C459.4,105.1,459.4,105,459.4,105z"/>
<path class="st9" d="M455.1,107c0.5,0,1,0,1.4,0.1c0.9,0.2,1,0.9,0.9,1.7c-0.1,0.6-0.5,1-1.1,1.1c-0.8,0.1-1.5-0.1-1.7-0.9
	c-0.1-0.5-0.1-0.9-0.1-1.4C454.7,107.3,454.9,107.2,455.1,107z"/>
<path class="st9" d="M212.2,20.2c1.4-0.1,2.3,0.5,2.7,2c0.3,1.1,0.1,2.1-0.7,2.8c-1,0.9-2.4,0.6-3.6,0.3c-1.1-0.3-0.7-1.4-0.9-2.2
	c0.2-0.2,0.4-0.4,0.5-0.5C211.7,22.4,212.3,21.5,212.2,20.2L212.2,20.2z"/>
<path class="st8" d="M212.2,20.2c0.1,1.4-0.5,2.2-1.9,2.3C210,21,210.7,20.2,212.2,20.2z"/>
<path class="st8" d="M444.5,99.8c0,1,0,1.9,0,2.9c0,0.3,0,0.6,0,1c-2.4-0.2-2.3,4-5.3,2.9c-0.4-0.2-0.9,0-1.4,0
	c-0.2-1,0.7-2.2-1.4-2.6c-1.2-0.2-0.4-2-0.5-3.1c-0.2-1.1,0.7-1,1.4-1c0,0.5,0,1,0.1,1.4c0.2,0.9,0.9,1,1.7,0.9
	c0.6-0.1,1-0.5,1.1-1.1c0.1-0.8-0.1-1.5-0.9-1.7c-0.5-0.1-0.9-0.1-1.4-0.1c0-0.7-0.1-1.5,1-1.4c1.1,0.2,2.9-0.6,3.1,0.5
	C442.3,100.5,443.5,99.6,444.5,99.8z"/>
<path class="st9" d="M437.8,99.3c0.5,0,1,0,1.4,0.1c0.9,0.2,1,0.9,0.9,1.7c-0.1,0.6-0.5,1-1.1,1.1c-0.8,0.1-1.5-0.1-1.7-0.9
	c-0.1-0.5-0.1-0.9-0.1-1.4C437.4,99.7,437.6,99.5,437.8,99.3z"/>
<path class="st13" d="M419.6,94.6c0-3.4,0-3.4,3.3-3.4c1.1,0,2.2,0,3.4,0c0,1.1,0.1,2.3,0.1,3.4C424,94.6,421.8,94.6,419.6,94.6z"/>
<path d="M430.1,70.1c0.6,0,1.1,0.1,1.7,0c1.3-0.2,1.9,0.3,1.7,1.7c-0.1,1.7,0,3.3,0,5c-1.1,0-2.2,0-3.3,0.1
	C430.1,74.5,430.1,72.3,430.1,70.1z"/>
<path class="st9" d="M45.1,66.7c0,3-3.4,5.8-6,5.2c-0.7-0.1-1.4-0.3-1.6-1.2c-0.1-0.7,0.2-1.1,0.8-1.6c1.2-1.1,2.5-2.2,3.5-3.5
	c0.7-0.9,1.2-1.7,2.4-1.3C45.4,64.8,45.1,65.9,45.1,66.7z"/>
<path class="st9" d="M698.7,68.2c-3.4,0-6-3.5-5.1-6.6c0.4-1.2,1.3-1.6,2.1-0.5c1.3,1.7,3,3,4.5,4.4c0.6,0.6,0.7,1.3,0.5,2
	C700.4,68.8,699.2,67.8,698.7,68.2z"/>
<path d="M426.2,66.2c3.8,0,3.8,0,3.9,3.9C426.3,70,426.3,70,426.2,66.2z"/>
<path d="M426.2,78.8c0.4,1.6-0.3,1.8-1.7,1.9c-1.9,0.1-1.5-1-1.6-2.1c-0.2-1.5,0.3-1.8,1.8-1.9C426.5,76.7,426.4,77.7,426.2,78.8z"
	/>
<path class="st9" d="M13.9,53.3c1.7,0.2,3-0.2,3.4-2.1c0.1-0.6,0.5-0.8,1-0.8c0.8,0,0.8,0.5,0.9,1.1c0.4,1.8,0.9,3.5-1.6,4.1
	C15.3,56.2,14.4,55.5,13.9,53.3C13.9,53.2,13.9,53.3,13.9,53.3z"/>
<path class="st9" d="M600,16.3c1.8,0.2,2.7,1.2,2.4,3c-0.1,0.9-0.1,2-1.1,2.1c-1.2,0.2-2.6,0.5-3.7-0.3c-0.7-0.5-0.8-1.3,0.3-1.5
	C599.9,19.3,600.2,18,600,16.3C600,16.3,600,16.3,600,16.3z"/>
<path class="st9" d="M424.8,62.8c-2.2,0-4.5,0-6.7,0c0-1.4-0.4-2.8,1.8-3.1c0.7-0.1,1.4-1.4,1.9-2.3c0.8-1.5,2.1-2.3,3.4-3.2
	c0.7-0.5,1.5-0.7,1.9-0.1c1.3,1.5,0.4,3.3,0.6,5c0.1,0.8-0.4,1.4-1.3,1.4C424.7,60.5,424.8,61.6,424.8,62.8z"/>
<path class="st9" d="M721.4,46.6c-0.3,2.2,0.7,3.1,2.9,2.9c0.5,2.4-1,2.3-2.7,2.4c-1.6,0-2.7-0.2-2.5-2.2
	C719.2,48.1,718.8,46.3,721.4,46.6z"/>
</svg>
