<?xml version="1.0" encoding="utf-8"?>
<!-- Generator: Adobe Illustrator 23.0.3, SVG Export Plug-In . SVG Version: 6.00 Build 0)  -->
<svg version="1.1" id="Layer_1" xmlns="http://www.w3.org/2000/svg" xmlns:xlink="http://www.w3.org/1999/xlink" x="0px" y="0px"
	 viewBox="0 0 815.9 816" style="enable-background:new 0 0 815.9 816;" xml:space="preserve">
<style type="text/css">
	.st0{fill:#FF380B;}
</style>
<path class="st0" d="M290.74,203.88l10.08,20.43c1.72,3.49,5.05,5.91,8.91,6.47l22.55,3.28c9.7,1.41,13.58,13.34,6.56,20.18
	l-16.32,15.91c-2.79,2.72-4.06,6.63-3.4,10.47l3.85,22.46c1.66,9.66-8.49,17.03-17.17,12.47l-20.17-10.6
	c-3.45-1.81-7.56-1.81-11.01,0l-20.17,10.6c-8.68,4.56-18.82-2.81-17.17-12.47l3.85-22.46c0.66-3.84-0.61-7.75-3.4-10.47
	l-16.32-15.91c-7.02-6.84-3.15-18.77,6.56-20.18l22.55-3.28c3.85-0.56,7.18-2.98,8.91-6.47l10.08-20.43
	C273.86,195.09,286.4,195.09,290.74,203.88z"/>
<path class="st0" d="M523.74,202.88l10.08,20.43c1.72,3.49,5.05,5.91,8.91,6.47l22.55,3.28c9.7,1.41,13.58,13.34,6.56,20.18
	l-16.32,15.91c-2.79,2.72-4.06,6.63-3.4,10.47l3.85,22.46c1.66,9.66-8.49,17.03-17.17,12.47l-20.17-10.6
	c-3.45-1.81-7.56-1.81-11.01,0l-20.17,10.6c-8.68,4.56-18.82-2.81-17.17-12.47l3.85-22.46c0.66-3.84-0.61-7.75-3.4-10.47
	l-16.32-15.91c-7.02-6.84-3.15-18.77,6.56-20.18l22.55-3.28c3.85-0.56,7.18-2.98,8.91-6.47l10.08-20.43
	C506.86,194.09,519.4,194.09,523.74,202.88z"/>
<path class="st0" d="M288.74,423.88l10.08,20.43c1.72,3.49,5.05,5.91,8.91,6.47l22.55,3.28c9.7,1.41,13.58,13.34,6.56,20.18
	l-16.32,15.91c-2.79,2.72-4.06,6.63-3.4,10.47l3.85,22.46c1.66,9.66-8.49,17.03-17.17,12.47l-20.17-10.6
	c-3.45-1.81-7.56-1.81-11.01,0l-20.17,10.6c-8.68,4.56-18.82-2.81-17.17-12.47l3.85-22.46c0.66-3.84-0.61-7.75-3.4-10.47
	l-16.32-15.91c-7.02-6.84-3.15-18.77,6.56-20.18l22.55-3.28c3.85-0.56,7.18-2.98,8.91-6.47l10.08-20.43
	C271.86,415.09,284.4,415.09,288.74,423.88z"/>
<path class="st0" d="M525.74,417.88l10.08,20.43c1.72,3.49,5.05,5.91,8.91,6.47l22.55,3.28c9.7,1.41,13.58,13.34,6.56,20.18
	l-16.32,15.91c-2.79,2.72-4.06,6.63-3.4,10.47l3.85,22.46c1.66,9.66-8.49,17.03-17.17,12.47l-20.17-10.6
	c-3.45-1.81-7.56-1.81-11.01,0l-20.17,10.6c-8.68,4.56-18.82-2.81-17.17-12.47l3.85-22.46c0.66-3.84-0.61-7.75-3.4-10.47
	l-16.32-15.91c-7.02-6.84-3.15-18.77,6.56-20.18l22.55-3.28c3.85-0.56,7.18-2.98,8.91-6.47l10.08-20.43
	C508.86,409.09,521.4,409.09,525.74,417.88z"/>
</svg>
