<?xml version="1.0" encoding="utf-8"?>
<!-- Generator: Adobe Illustrator 23.0.3, SVG Export Plug-In . SVG Version: 6.00 Build 0)  -->
<svg version="1.1" id="Layer_1" xmlns="http://www.w3.org/2000/svg" xmlns:xlink="http://www.w3.org/1999/xlink" x="0px" y="0px"
	 viewBox="0 0 815.9 816" style="enable-background:new 0 0 815.9 816;" xml:space="preserve">
<style type="text/css">
	.st0{fill:#C53A00;}
	.st1{fill:#4891FF;}
	.st2{fill:#0083F7;}
	.st3{opacity:0.1;}
</style>
<g>
	<g>
		<path class="st0" d="M201.5,101.46c-2.3,7.13-4.48,13.19-3.36,20.83c1.04,7.15,4.23,13.72,8.6,19.43
			c9.82,12.83,24.11,19.2,39.13,23.99c14.28,4.55,29.77,7.91,40.81,18.79c4.54,4.48,8.47,10.2,9.17,16.7
			c0.79,7.31-3.4,14.09-2.73,21.48c1.82,19.89,21.91,27.23,38.66,30.73c9.42,1.97,13.45-12.48,3.99-14.46
			c-10.65-2.23-30.39-6.37-27.39-21.41c1.43-7.18,3.2-13.35,1.9-20.72c-1.1-6.22-4.08-12.04-7.89-17.03
			c-8.63-11.33-20.85-18.04-34.07-22.7c-13.86-4.88-29.58-7.41-41.61-16.38c-5.28-3.94-10.11-9.42-12.49-15.63
			c-2.8-7.3-0.53-12.62,1.73-19.64C218.94,96.24,204.46,92.3,201.5,101.46L201.5,101.46z"/>
	</g>
</g>
<g>
	<g>
		<path class="st0" d="M246.86,150.94c-0.02,0.01-1.1-0.63-1.88-1.59c-0.8-0.97-1.41-2.16-1.99-3.26
			c-1.94-3.65-3.45-7.55-4.78-11.45c-2.67-7.87-4.45-16.05-5.04-24.34c-0.3-4.15-0.45-8.41-0.13-12.56
			c0.27-3.52,1.22-4.21,4.46-5.79c8.24-4.01,16.59-7.8,24.88-11.7c8.73-4.11,1.12-17.04-7.57-12.95
			c-5.92,2.79-11.85,5.57-17.77,8.36c-4.8,2.26-10.28,4.14-14.06,8.01c-7.44,7.62-5.43,22.4-4.28,32
			c1.39,11.51,4.38,22.52,9.06,33.12c4.08,9.25,11.44,19.95,23.1,16.62C260.11,162.76,256.17,148.28,246.86,150.94L246.86,150.94z"
			/>
	</g>
</g>
<g>
	<g>
		<path class="st0" d="M502.24,254.63c-1.86-12.15-4.32-27.45,4.23-37.81c7.06-8.54,20.03-9.61,28.87-15.71
			c23.74-16.36,18.52-46.84,11.66-70.56c-2.68-9.26-17.15-5.32-14.46,3.99c3.67,12.7,7.93,26.42,4.29,39.63
			c-3.2,11.58-11.61,16.02-22.02,20.29c-11.57,4.76-20.89,10.98-25.78,22.99c-5.38,13.22-3.36,27.48-1.26,41.17
			c0.61,3.99,5.65,6.24,9.23,5.24C501.27,262.65,502.86,258.66,502.24,254.63L502.24,254.63z"/>
	</g>
</g>
<g>
	<g>
		<path class="st0" d="M520.07,194.64c1.71,1.33,2.2,1.47,1.46,0.42c-0.33-0.53-0.62-1.09-0.86-1.67c-0.68-1.38-1.24-2.83-1.85-4.24
			c-1.34-3.11-2.63-6.24-3.84-9.4c-2.3-6.04-4.3-12.21-5.57-18.55c-2.63-13.17,2.05-26.18-0.52-39.23
			c-2.21-11.27-8.86-22.33-15.58-31.49c-7.36-10.02-15.96-18.57-25.87-26.05c-3.26-2.46-8.35-0.49-10.26,2.69
			c-2.29,3.82-0.52,7.83,2.69,10.26c9.72,7.34,18.15,16.53,24.67,26.81c3.35,5.27,6.6,10.91,8.56,16.86
			c2.14,6.47,1.57,12.62,0.81,19.29c-1.57,13.72,0.69,26.96,5.31,39.92c2.3,6.44,4.97,12.77,7.75,19.02
			c2.45,5.5,6.39,10.76,13.09,10.37C529.67,209.08,529.73,194.07,520.07,194.64L520.07,194.64z"/>
	</g>
</g>
<g>
	<g>
		<path class="st0" d="M496.44,103.17c7.46-3.4,14.12-8.58,19.24-14.98c2.53-3.16,3.09-7.52,0-10.61c-2.62-2.62-8.06-3.18-10.61,0
			c-4.45,5.56-9.72,9.68-16.2,12.63c-3.69,1.68-4.59,7.02-2.69,10.26C488.4,104.27,492.74,104.85,496.44,103.17L496.44,103.17z"/>
	</g>
</g>
<g>
	<g>
		<path class="st0" d="M558.41,414.41c10.12-9.63,20.8-20.02,34.04-25.21c15.04-5.9,30.07-1.5,45.29,1.08
			c13.94,2.36,29,3.31,42.45-1.9c12.25-4.75,21.74-13.94,27.39-25.76c6.41-13.41,8.55-28.11,10.32-42.72c0.49-4.03-3.8-7.5-7.5-7.5
			c-4.46,0-7.01,3.46-7.5,7.5c-2.66,22.06-7.46,49.7-32.63,55.89c-13.7,3.37-27.74,0.13-41.28-2.38
			c-14.96-2.78-29.39-3.48-43.64,2.6c-14.48,6.18-26.28,17.07-37.54,27.8C540.8,410.47,551.42,421.07,558.41,414.41L558.41,414.41z"
			/>
	</g>
</g>
<g>
	<g>
		<path class="st0" d="M687.77,383.89c9.37-3.26,17.49,4.93,22.98,11.56c6.41,7.73,12.16,15.77,21.06,20.86
			c8.39,4.8,15.96-8.16,7.57-12.95c-9.93-5.68-15.05-16.48-23.18-24.14c-8.59-8.09-20.61-13.89-32.42-9.79
			C674.72,372.58,678.61,387.07,687.77,383.89L687.77,383.89z"/>
	</g>
</g>
<g>
	<g>
		<path class="st0" d="M634.93,383.34c9.34,14.63,13.59,32.02,11.25,49.31c-1.22,8.98-3.98,17.67-5.25,26.64
			c-1.17,8.25-1.09,16.3,0.6,24.48c3.12,15.06,11.72,29.24,23.7,38.88c12.8,10.29,30.83,16.29,46.05,7.47
			c8.35-4.84,0.81-17.8-7.57-12.95c-12.44,7.21-27.44-3.2-35.56-12.44c-8.73-9.93-13.49-23.34-13.09-36.53
			c0.48-15.98,7.09-30.99,6.7-47.16c-0.39-16.03-5.26-31.77-13.87-45.26C642.7,367.66,629.71,375.17,634.93,383.34L634.93,383.34z"
			/>
	</g>
</g>
<g>
	<g>
		<path class="st0" d="M665.13,514.24c7.86,4.82,16.11-2.33,22.28-6.85c6.55-4.8,12.78-10.02,18.53-15.76
			c11.78-11.77,21.64-25.49,29.08-40.38c4.3-8.61-8.63-16.22-12.95-7.57c-6.06,12.13-13.62,23.36-22.84,33.3
			c-4.54,4.89-9.41,9.48-14.57,13.71c-2.4,1.96-4.87,3.82-7.42,5.6c-1.52,1.07-5.7,4.72-7.38,4.54c1.26,0.34,2.52,0.68,3.79,1.02
			c-0.31-0.19-0.62-0.38-0.94-0.57C664.45,496.22,656.91,509.19,665.13,514.24L665.13,514.24z"/>
	</g>
</g>
<g>
	<g>
		<path class="st0" d="M479.64,538.22c13.59,3.49,26.24,9.45,37.54,17.79c5.45,4.02,10.45,8.7,15,13.71
			c4.8,5.28,9.53,10.49,7.34,18.02c-2.1,7.21-5.37,13.88-6.92,21.28c-1.58,7.55-2.31,15.39-1.74,23.09
			c1.07,14.58,6.14,28.26,15.64,39.45c9.94,11.71,24.08,18.99,39.36,20.2c9.62,0.76,9.58-14.24,0-15
			c-12.08-0.95-23.22-8.12-30.31-17.78c-8.35-11.38-10.93-25.71-9.5-39.56c0.75-7.27,2.89-14.3,5.53-21.08
			c2.79-7.16,5.1-14.55,2.63-22.19c-4.25-13.12-17.53-24.12-28.16-32.14c-12.59-9.5-27.13-16.34-42.39-20.26
			C474.27,521.36,470.28,535.82,479.64,538.22L479.64,538.22z"/>
	</g>
</g>
<g>
	<g>
		<path class="st0" d="M532.67,616.14c-6.34,7.34-9.6,16.03-12.61,25.12c-3.09,9.35-6.71,17.29-13.79,24.34
			c-7.55,7.52-16.19,14.02-24.38,20.81c-4.58,3.79-9.14,7.61-13.74,11.38c-4,3.28-7.91,5.97-13.12,6.69c-4,0.56-6.23,5.69-5.24,9.23
			c1.21,4.32,5.18,5.8,9.23,5.24c11.27-1.57,20.01-10.77,28.39-17.71c9.05-7.5,18.45-14.72,27.06-22.72
			c7.8-7.24,13.53-15.49,17.34-25.43c3.38-8.84,5.12-19,11.47-26.35C549.56,619.47,538.99,608.82,532.67,616.14L532.67,616.14z"/>
	</g>
</g>
<g>
	<g>
		<path class="st0" d="M360.95,538.25c3.44,14.73-10.89,28.37-20.17,37.85c-10.35,10.57-21.64,20.22-33.75,28.71
			c-24.36,17.07-51.58,29.79-80.33,37.41c-16.36,4.33-33.07,6.94-49.97,7.78c-7.96,0.4-10.76,13.24-1.99,14.73
			c2.09,0.36,4.18,0.71,6.27,1.07c9.44,1.6,13.5-12.85,3.99-14.46c-2.09-0.36-4.18-0.71-6.27-1.07c-0.66,4.91-1.33,9.82-1.99,14.73
			c65.87-3.29,129.88-31.94,175.77-79.43c13.27-13.73,27.7-30.84,22.92-51.3C373.22,524.86,358.75,528.84,360.95,538.25
			L360.95,538.25z"/>
	</g>
</g>
<g>
	<g>
		<path class="st0" d="M301.64,616.61c19.1,31.33,53.02,51.53,89.6,53.72c9.64,0.58,9.61-14.43,0-15
			c-31.21-1.87-60.4-19.64-76.65-46.29C309.57,600.8,296.6,608.33,301.64,616.61L301.64,616.61z"/>
	</g>
</g>
<g>
	<g>
		<path class="st0" d="M347.71,660.75c2.24,3.73-3.42,11.13-5.23,14.14c-3.43,5.71-7.31,11.09-11.63,16.16
			c-6.23,7.31,4.33,17.97,10.61,10.61c6.28-7.37,11.94-15.24,16.59-23.74c4.21-7.7,7.54-16.54,2.62-24.74
			C355.7,644.91,342.72,652.45,347.71,660.75L347.71,660.75z"/>
	</g>
</g>
<g>
	<g>
		<path class="st0" d="M235.89,643.69c-22.43-28.69-49.03-53.71-78.8-74.66c-7.91-5.57-15.41,7.43-7.57,12.95
			c28.7,20.19,54.16,44.68,75.76,72.32c2.51,3.22,7.96,2.59,10.61,0C239.08,651.18,238.37,646.86,235.89,643.69L235.89,643.69z"/>
	</g>
</g>
<g>
	<g>
		<path class="st0" d="M260.32,391.9c1.62,6.75-6.17,10.92-11.46,12.53c-8.22,2.51-17.04,3.73-25.52,5.02
			c-15.27,2.33-31.96,3.06-46.29-3.7c-13.48-6.37-19.44-21.18-33.71-26.18c-13.6-4.77-28.44-1.22-42.46-2.89
			c-4.03-0.48-7.5,3.79-7.5,7.5c0,4.45,3.46,7.02,7.5,7.5c8.17,0.98,16.35,0.26,24.55,0.36c6.83,0.08,14.03,0.69,19.45,5.31
			c3.38,2.88,5.83,6.73,8.86,9.94c2.88,3.05,6.22,5.74,9.73,8.04c6.73,4.42,14.61,7.37,22.49,8.97c19.24,3.89,38.74,0.37,57.73-3.29
			c8.55-1.65,17.44-3.94,23.93-10.12c6.29-5.99,9.21-14.49,7.17-22.97C272.53,378.53,258.06,382.5,260.32,391.9L260.32,391.9z"/>
	</g>
</g>
<g>
	<g>
		<path class="st0" d="M161.78,393.94c2.11-43.18-16.3-83.36-34.26-121.52c-4.11-8.73-17.04-1.12-12.95,7.57
			c16.85,35.8,34.19,73.44,32.21,113.95C146.31,403.59,161.31,403.57,161.78,393.94L161.78,393.94z"/>
	</g>
</g>
<g>
	<g>
		<path class="st0" d="M191.43,407.61c-26.25,11.42-51.77,24.4-76.46,38.88c-8.32,4.88-0.78,17.85,7.57,12.95
			c24.69-14.49,50.21-27.46,76.46-38.88c3.74-1.63,4.52-7.04,2.69-10.26C199.5,406.44,195.13,406.01,191.43,407.61L191.43,407.61z"
			/>
	</g>
</g>
<path class="st1" d="M472.58,204.18C453.26,197.58,432.55,194,411,194c-27.72,0-54.05,5.93-77.8,16.57L408,383.5L472.58,204.18z"/>
<path class="st2" d="M333.2,210.57c-3.21,1.44-6.37,2.95-9.48,4.56c-43.62,22.53-77.42,61.41-93.29,108.54L408,383.5L333.2,210.57z"
	/>
<path class="st2" d="M588.43,315.04c-20.35-51.94-62.84-92.76-115.86-110.86L408,383.5L588.43,315.04z"/>
<path class="st1" d="M591.56,445.34c6.44-19.11,9.94-39.56,9.94-60.84c0-24.51-4.63-47.94-13.07-69.46L408,383.5L591.56,445.34z"/>
<path class="st1" d="M343.48,562.67C364.47,570.63,387.22,575,411,575c26.05,0,50.87-5.24,73.48-14.7L408,383.5L343.48,562.67z"/>
<path class="st2" d="M408,383.5l76.48,176.8c20.5-8.58,39.18-20.63,55.3-35.43c23.4-21.48,41.41-48.75,51.78-79.52L408,383.5z"/>
<path class="st2" d="M232.14,450.22c19.02,51.73,59.84,92.92,111.33,112.45L408,383.5L232.14,450.22z"/>
<path class="st1" d="M230.43,323.67c-6.43,19.1-9.93,39.55-9.93,60.83c0,23.1,4.11,45.24,11.64,65.72L408,383.5L230.43,323.67z"/>
<path class="st3" d="M258,355.5c0-55.55,23.78-105.54,61.72-140.37c-61.3,31.66-103.22,95.61-103.22,169.37
	C216.5,489.71,301.79,575,407,575c49.66,0,94.87-19.01,128.78-50.13C509.63,538.37,479.96,546,448.5,546
	C343.29,546,258,460.71,258,355.5z"/>
<circle cx="407" cy="384.5" r="73.5"/>
</svg>
