<?xml version="1.0" encoding="utf-8"?>
<!-- Generator: Adobe Illustrator 23.0.3, SVG Export Plug-In . SVG Version: 6.00 Build 0)  -->
<svg version="1.1" id="Layer_1" xmlns="http://www.w3.org/2000/svg" xmlns:xlink="http://www.w3.org/1999/xlink" x="0px" y="0px"
	 viewBox="0 0 816 816" style="enable-background:new 0 0 816 816;" xml:space="preserve">
<style type="text/css">
	.st0{fill:#FFFFFF;}
</style>
<g>
	<path class="st0" d="M227.76,225.91c0.38,0.39,1.3,0.68,2.74,0.87c1.44,0.19,2.35,0.58,2.74,1.15c1.34,0,2.02,0.1,2.02,0.29
		c0.38,0.77,0.38,1.44,0,2.02c-0.39,0.58-1.06,0.77-2.02,0.58c-0.77,0.97-1.15,2.5-1.15,4.62c0,0.39,0.04,0.87,0.14,1.44
		c0.09,0.58,0.14,1.06,0.14,1.44c-0.19,0.39-0.48,0.87-0.87,1.44c-0.39,0.58-0.58,0.97-0.58,1.15c0,0.97-0.39,2.22-1.15,3.75
		c-0.19,0.97-0.34,2.6-0.43,4.91c-0.1,2.31-0.34,4.04-0.72,5.2c0,0.19-0.14,0.58-0.43,1.15c-0.29,0.58-0.53,1.06-0.72,1.44
		c-0.77,3.28-1.35,5.1-1.73,5.49c0,1.54-0.1,2.7-0.29,3.46c-0.19,0.39-0.39,0.77-0.58,1.16c-0.19,0.39-0.39,0.77-0.58,1.16
		c-0.19,0.19-0.29,1.25-0.29,3.18c-0.19,0.77-0.48,2.12-0.87,4.04c-0.58,1.16-0.87,2.41-0.87,3.75c0,0.19-0.39,0.97-1.15,2.31
		c-0.77,1.35-0.77,2.12,0,2.31c0.19,0.58,1.34,0.87,3.46,0.87c0.38,0,0.77,0.05,1.16,0.14c0.38,0.1,0.77,0.14,1.15,0.14
		c3.65,0.39,6.25,0.39,7.8,0c0.38,0,0.82-0.19,1.3-0.58c0.48-0.38,0.91-0.58,1.3-0.58c1.15,0,1.92,0.68,2.31,2.02
		c-0.39,2.12-1.35,3.46-2.89,4.04c-0.77-0.19-1.59,0.05-2.45,0.72c-0.87,0.68-1.4,1.01-1.59,1.01c-6.35,0-11.07,0.1-14.15,0.29
		c-0.19,0-0.48,0.14-0.87,0.43c-0.39,0.29-0.77,0.53-1.15,0.72c-0.58,0.19-1.49,0.33-2.74,0.43c-1.25,0.09-2.07,0.14-2.45,0.14
		c-0.19,0-0.48,0.04-0.87,0.14c-0.39,0.09-0.68,0.14-0.87,0.14h-2.89c-0.19,0-0.53,0.19-1.01,0.58c-0.48,0.38-0.82,0.58-1.01,0.58
		h-4.62c-0.97,0.96-2.79,2.02-5.49,3.18l-0.58-0.29c-0.39,0-0.68,0.09-0.87,0.29c-0.19,0-0.72,0.29-1.59,0.87
		c-0.87,0.58-1.78,0.77-2.74,0.58c-0.39,0-0.77-0.1-1.15-0.29c-0.58-1.54-0.68-2.7-0.29-3.46c0.38-1.16,1.39-2.27,3.03-3.32
		c1.63-1.06,2.64-1.78,3.03-2.17c0.58-0.19,1.3-0.53,2.17-1.01c0.87-0.48,1.49-0.82,1.88-1.01c0.19,0,0.72-0.09,1.59-0.29
		c0.87-0.19,1.49-0.38,1.88-0.58c0.19,0,0.53-0.1,1.01-0.29c0.48-0.19,0.82-0.38,1.01-0.58h2.02c0.38-0.19,1.06-0.48,2.02-0.87
		c0.96-0.38,1.63-0.58,2.02-0.58c0.38,0,0.87-0.09,1.44-0.29c0.58-0.19,1.06-0.29,1.44-0.29c1.34-0.19,2.5-0.96,3.46-2.31
		c0-3.08,0.58-5.39,1.73-6.93c0-0.77,0.05-1.83,0.14-3.18c0.09-1.34,0.14-2.41,0.14-3.18c0.58-1.16,1.01-3.27,1.3-6.35
		c0.29-3.08,0.72-5.1,1.3-6.06c0-0.96,0.14-2.31,0.43-4.04c0.29-1.73,0.43-2.89,0.43-3.46l1.44-2.02c0-2.69,0.19-4.62,0.58-5.77
		c0-0.19,0.09-0.53,0.29-1.01c0.19-0.48,0.38-0.91,0.58-1.3c0.19-0.58,0.24-1.59,0.14-3.03c-0.1-1.44,0.05-2.64,0.43-3.61
		c0.96-2.5,1.34-4.33,1.15-5.49c-0.58-0.77-2.41-0.87-5.49-0.29c-1.35,0.58-3.27,1.06-5.77,1.44c-0.39,0.19-1.69,0.72-3.9,1.59
		c-2.22,0.87-4,1.49-5.34,1.88c-0.39,0.19-0.92,0.43-1.59,0.72c-0.68,0.29-1.11,0.43-1.3,0.43c-0.97,0.39-1.64,0.39-2.02,0
		c-1.35-0.77-2.02-1.92-2.02-3.46c0.38-1.73,1.15-3.08,2.31-4.04c2.69-1.16,4.23-1.83,4.62-2.02c0.38,0,0.87-0.09,1.44-0.29
		c0.58-0.19,1.06-0.19,1.44,0c0.58-0.19,1.25-0.58,2.02-1.15c0.77-0.58,1.44-0.96,2.02-1.15c1.54,0.19,3.42-0.05,5.63-0.72
		c2.21-0.67,3.42-1.01,3.61-1.01c0.19,0,0.48-0.19,0.87-0.58c0.38-0.38,0.77-0.58,1.15-0.58c0.38,0,0.96,0,1.73,0
		c0.77,0,1.34-0.09,1.73-0.29c0.19,0,0.67-0.14,1.44-0.43c0.77-0.29,1.34-0.43,1.73-0.43l5.2-0.87h1.44
		c0.96-0.58,2.26-0.96,3.9-1.15c1.63-0.19,3.61-0.24,5.92-0.14c2.31,0.1,3.94,0.14,4.91,0.14c0.38,0,0.82-0.04,1.3-0.14
		c0.48-0.09,0.82-0.14,1.01-0.14h15.01c1.92,1.93,2.79,3.37,2.6,4.33c-0.19,0.39-1.73,0.77-4.62,1.15c-0.19,0-0.63,0.14-1.3,0.43
		c-0.68,0.29-1.2,0.43-1.59,0.43l-8.08,0.87c-0.77,0.19-1.73,0.29-2.89,0.29c-1.16,0-2.02,0-2.6,0c-0.19,0-0.68,0.14-1.44,0.43
		c-0.77,0.29-1.35,0.43-1.73,0.43c-0.39,0.19-1.06,0.29-2.02,0.29c-0.97,0-1.73,0-2.31,0c-1.93,0.39-3.28,0.58-4.04,0.58
		c-0.19,0-0.48-0.05-0.87-0.14c-0.39-0.09-0.77-0.14-1.15-0.14c-0.58,0-1.25,0.19-2.02,0.58c-0.58,0.19-1.69,0.39-3.32,0.58
		C229.44,224.95,228.33,225.33,227.76,225.91z"/>
	<path class="st0" d="M349.02,266.91c0.58,0,1.15-0.38,1.73-1.16c0-0.19,0.09-0.38,0.29-0.58l7.22-7.22
		c0.96,0.19,1.73-0.09,2.31-0.87c0.38-0.38,0.67-0.67,0.87-0.87h3.46c2.31,1.73,3.56,3.08,3.75,4.04c0,0.39-0.29,1.11-0.87,2.17
		c-0.58,1.06-0.77,2.07-0.58,3.03c-0.58,0.77-0.82,1.73-0.72,2.89c0.09,1.16,0.62,1.73,1.59,1.73c0.58,0,1.2-0.53,1.88-1.59
		c0.67-1.06,1.11-1.68,1.3-1.88c0.58-0.19,1.25-0.58,2.02-1.16c0.77-0.58,1.44-0.96,2.02-1.15l8.08-8.08h1.44
		c0.19-0.19,0.48-0.48,0.87-0.87c0.38-0.38,0.77-0.67,1.16-0.87h4.62c0.19,0.39,0.87,0.97,2.02,1.73c1.15,0.77,1.92,1.54,2.31,2.31
		c0.19,0.39,0.29,1.11,0.29,2.17c0,1.06,0,1.88,0,2.45c0,0.19,0.19,0.53,0.58,1.01c0.38,0.48,0.67,0.92,0.87,1.3
		c0,1.54,0.05,4.29,0.14,8.23c0.09,3.95,0.04,6.69-0.14,8.23v2.6c0.77,0.19,1.3,0.05,1.59-0.43c0.29-0.48,0.53-0.91,0.72-1.3
		c1.34,0,2.21,0.19,2.6,0.58c0.19,0.19,0.29,1.54,0.29,4.04c-0.19,0.19-0.53,0.43-1.01,0.72c-0.48,0.29-0.82,0.53-1.01,0.72
		c-0.39,4.23-1.83,6.83-4.33,7.8c-0.97,0.19-1.78,0.19-2.45,0c-0.68-0.19-1.35-0.63-2.02-1.3c-0.68-0.68-1.11-1.11-1.3-1.3v-2.02
		c0-0.19-0.24-0.67-0.72-1.44c-0.48-0.77-0.72-1.44-0.72-2.02v-8.66v-8.37c0-4.62-0.1-7.31-0.29-8.08
		c-0.77-0.58-1.49-0.67-2.17-0.29c-0.68,0.39-1.11,0.97-1.3,1.73l-4.33,3.46c-0.77,1.16-2.31,2.74-4.62,4.76
		c-2.31,2.02-3.95,3.71-4.91,5.05c-0.58,0-1.64,0.48-3.18,1.44c-0.58-0.19-1.3-0.04-2.17,0.43c-0.87,0.48-1.4,0.72-1.59,0.72
		c-0.58,0.19-1.54,0.1-2.89-0.29c-0.77,0-1.64-0.48-2.6-1.44c0.19-0.77,0-1.63-0.58-2.6c-0.58-0.96-0.87-1.54-0.87-1.73
		c0-0.38,0.24-0.87,0.72-1.44c0.48-0.58,0.72-0.96,0.72-1.16c0-2.12-0.29-3.56-0.87-4.33c-0.97,0.19-1.83,0.92-2.6,2.17
		c-0.77,1.25-1.35,1.98-1.73,2.17c0,0.58-0.19,1.06-0.58,1.44c-1.54,1.54-2.89,2.6-4.04,3.18c-0.77,1.73-2.02,3.46-3.75,5.2
		c-0.19,0.19-0.29,0.48-0.29,0.87v0.58c-1.35,2.12-4.43,5.39-9.24,9.82c-2.31,0.38-3.95,0-4.91-1.15c-0.97-1.16-1.25-2.79-0.87-4.91
		c0.19-0.19,0.43-0.53,0.72-1.01c0.29-0.48,0.53-0.82,0.72-1.01c0.19-0.38,0.33-1.01,0.43-1.88c0.09-0.87,0.24-1.49,0.43-1.88
		c0-0.38,0.19-0.72,0.58-1.01c0.38-0.29,0.58-0.53,0.58-0.72c0-0.96,0.09-1.54,0.29-1.73c0.19-0.19,0.38-0.48,0.58-0.87
		c0.19-0.38,0.38-0.77,0.58-1.16c0.19,0,0.29-0.19,0.29-0.58c0-0.38,0.09-0.67,0.29-0.87c0.19-0.19,0.67-0.77,1.44-1.73
		c0.77-0.96,1.25-1.73,1.44-2.31c-0.19-1.34,0.48-2.98,2.02-4.91c-0.39-1.34,0.09-2.89,1.44-4.62c-0.19-0.77,0.29-2.21,1.44-4.33
		c0-0.19,0.09-0.48,0.29-0.87l0.29-0.58c0-0.19,0.19-0.48,0.58-0.87c0.38-0.38,0.58-0.67,0.58-0.87c0-0.19,0-0.43,0-0.72
		c0-0.29,0.09-0.53,0.29-0.72l1.15-1.15c0.19-0.19,0.48-0.67,0.87-1.44c0.38-0.38,0.77-0.96,1.16-1.73
		c0.38-0.38,0.67-0.77,0.87-1.15c0.58,0,1.49-0.29,2.74-0.87c1.25-0.58,2.17-0.87,2.74-0.87c1.73,0,2.79,0.68,3.18,2.02
		c0,0.77-0.68,1.64-2.02,2.6l-2.31,1.16v3.18c-0.19,0.19-0.48,0.43-0.87,0.72c-0.39,0.29-0.68,0.53-0.87,0.72v1.73l-1.73,1.73
		c0,0.96-0.48,2.12-1.44,3.46c0,0.39-0.1,1.25-0.29,2.6C348.54,265.95,348.63,266.72,349.02,266.91z"/>
	<path class="st0" d="M451.23,282.5c0,0.19-0.19,0.68-0.58,1.44c-0.58,0.77-1.49,1.73-2.74,2.89c-1.25,1.16-2.17,2.12-2.74,2.89
		c-0.97,0-1.54,0.1-1.73,0.29c-0.19,0.19-0.68,0.97-1.44,2.31c-0.19,0.19-0.87,0.58-2.02,1.16c-0.39,0.38-0.87,0.91-1.44,1.59
		c-0.58,0.67-0.97,1.11-1.16,1.3c-0.19,0.19-0.63,0.43-1.3,0.72c-0.68,0.29-1.11,0.53-1.3,0.72c-2.5,0.38-4.24,1.06-5.2,2.02
		c-2.89,0.19-5.01-0.39-6.35-1.73c-1.35,0.19-2.41,0.09-3.18-0.29c-0.77-0.39-1.59-1.01-2.45-1.88s-1.49-1.4-1.88-1.59
		c0-0.58-0.29-1.25-0.87-2.02c-0.58-0.77-0.87-1.34-0.87-1.73v-3.18c-0.39-2.31-0.48-4.04-0.29-5.2c0.38-3.65,0.48-6.35,0.29-8.08
		c0.19-0.19,0.58-0.87,1.15-2.02c-0.58-3.27,0-6.25,1.73-8.95c1.16,0,1.73-0.48,1.73-1.44c0.19-0.38,0.05-0.96-0.43-1.73
		c-0.48-0.77-0.72-1.25-0.72-1.44c0-0.19,0.38-0.87,1.15-2.02c0.19-0.19,0.29-0.48,0.29-0.87c0.19-0.19,0.29-0.38,0.29-0.58
		c0.19-0.38,0.58-0.77,1.15-1.16c0.58-0.38,0.96-0.77,1.15-1.15h3.46c1.92,2.31,2.69,4.24,2.31,5.77l-1.73,1.73v4.33
		c0,0.19-0.19,0.58-0.58,1.16c-0.39,0.58-0.68,0.97-0.87,1.16c-0.19,0.58-0.24,1.59-0.14,3.03c0.09,1.44,0.05,2.65-0.14,3.61
		c-0.39,0.77-0.77,1.44-1.15,2.02c0.38,0.77,0.29,1.98-0.29,3.61c-0.58,1.64-0.87,2.65-0.87,3.03c0,0.19,0.09,0.48,0.29,0.87
		c0.19,0.39,0.29,0.68,0.29,0.87c0,0.19-0.1,0.48-0.29,0.87c-0.19,0.39-0.29,0.77-0.29,1.16c0,2.7,1.16,4.52,3.46,5.49h2.89
		c2.31-1.15,3.56-1.73,3.75-1.73l3.18-3.18c1.15-0.19,2.5-1.06,4.04-2.6c0.38-0.58,3.27-3.85,8.66-9.82c0-0.58,0.29-1.3,0.87-2.17
		c0.58-0.87,0.87-1.68,0.87-2.45c0.96-1.16,3.08-4.33,6.35-9.53c0-0.96,0.33-2.07,1.01-3.32c0.67-1.25,1.01-2.26,1.01-3.03
		c0.38-1.54,1.68-2.45,3.9-2.74c2.21-0.29,3.61,0.34,4.19,1.88c1.15,1.93,1.15,4.33,0,7.22c-0.19,0.39-0.48,0.92-0.87,1.59
		c-0.39,0.68-0.58,1.2-0.58,1.59l-0.87,4.33c-0.39,4.81,0,9.05,1.16,12.7c0.38,0.77,0.87,1.44,1.44,2.02
		c-0.19,1.16,0.67,3.08,2.6,5.78c0.58,0.19,1.63,0.29,3.18,0.29c0.19,0,0.48-0.24,0.87-0.72c0.38-0.48,0.77-0.82,1.16-1.01
		c0.38-0.19,0.91-0.29,1.59-0.29c0.67,0,1.11,0,1.3,0c0.38,0,0.77-0.24,1.15-0.72c0.38-0.48,0.67-0.72,0.87-0.72
		c0.96-0.19,1.63,0.1,2.02,0.87c0.38,0.77,0.38,1.73,0,2.89c-2.5,2.89-4.91,4.91-7.22,6.06c-4.04,0.77-6.83,0.48-8.37-0.87
		c-2.7-1.73-5.2-3.85-7.51-6.35c-0.19-0.19-0.29-0.48-0.29-0.87c0-0.38,0-0.67,0-0.87c-0.77-1.54-1.15-2.89-1.15-4.04
		c-0.39-2.31-0.77-3.46-1.16-3.46l-2.02,2.02C451.99,281.54,451.42,282.31,451.23,282.5z"/>
	<path class="st0" d="M493.09,300.4c-1.35-1.35-2.12-2.22-2.31-2.6c0-0.97,0.24-1.78,0.72-2.45c0.48-0.68,1.15-1.3,2.02-1.88
		s1.49-1.06,1.88-1.44h1.15c0.38-0.19,0.91-0.48,1.59-0.87c0.67-0.38,1.2-0.67,1.59-0.87l1.44-1.44l1.15-0.58
		c0.19,0,0.43-0.14,0.72-0.43c0.29-0.29,0.53-0.43,0.72-0.43c0.19,0,0.53-0.04,1.01-0.14c0.48-0.09,0.82-0.24,1.01-0.43
		c1.34-0.96,2.12-1.44,2.31-1.44c3.65-0.58,5.58-0.96,5.77-1.16c1.15,0,1.92,0.1,2.31,0.29v1.73c0,0.77,0.96,0.77,2.89,0l2.6-0.87
		c0.38-0.58,1.06-1.2,2.02-1.88c0.96-0.67,1.54-1.11,1.73-1.3c0.77-0.38,1.34-0.67,1.73-0.87c0-0.58-0.39-1.06-1.15-1.44l-1.44-0.87
		c-0.39-0.19-1.06-0.38-2.02-0.58l-1.73-0.29c-0.39-0.38-1.15-0.77-2.31-1.15c-1.16-0.38-1.93-0.87-2.31-1.44
		c-0.39,0-2.12-1.06-5.2-3.18c0-0.77-0.48-1.34-1.44-1.73c-0.58-0.19-0.97-0.38-1.15-0.58c-0.19-0.19-0.53-0.62-1.01-1.3
		c-0.48-0.67-0.82-1.1-1.01-1.3c-1.93-3.08-0.87-6.45,3.18-10.11c0.38-0.58,1.06-1.25,2.02-2.02c0.96-0.77,1.54-1.34,1.73-1.73
		c1.92-0.77,3.65-1.92,5.2-3.46c0.58,0,0.96-0.09,1.15-0.29c2.5-1.92,3.85-2.98,4.04-3.18c0.77,0.19,1.68,0.1,2.74-0.29
		c1.06-0.38,1.68-0.58,1.88-0.58c1.54-1.92,2.79-3.27,3.75-4.04c1.92,0,3.37-0.48,4.33-1.44c2.12,0.58,3.46,1.73,4.04,3.46
		c-0.58,1.93-1.93,3.95-4.04,6.06c-0.39,0-1.15,0.19-2.31,0.58c-0.58,0.58-1.73,1.06-3.46,1.44c-0.39,0.19-0.97,0.68-1.73,1.44
		l-3.46,1.73h-1.73c-1.54,1.54-3.28,2.7-5.2,3.46c-0.39,0.39-0.77,0.87-1.16,1.44c-0.39,0.58-0.68,0.97-0.87,1.16
		c-0.19,0.19-0.53,0.48-1.01,0.87c-0.48,0.39-0.82,0.68-1.01,0.87c-0.77,1.16-0.77,2.31,0,3.46c0.58,0.58,1.54,1.25,2.89,2.02
		c1.34,0.77,2.21,1.35,2.6,1.73c1.34,0.19,3.22,0.77,5.63,1.73c2.4,0.96,4.38,1.54,5.92,1.73c0.19,0.39,0.67,0.87,1.44,1.44
		c0.77,0.58,1.25,1.06,1.44,1.44c0.96,2.12,0.67,4.43-0.87,6.93c-1.93,2.31-3.46,4.04-4.62,5.2c-0.77,0-1.44,0.19-2.02,0.58
		c-0.58,0.39-1.16,0.92-1.73,1.59c-0.58,0.68-1.06,1.11-1.44,1.3h-1.73c-0.77,0.77-2.02,1.68-3.75,2.74
		c-1.73,1.06-2.89,1.78-3.46,2.17c-1.35,0-2.31,0.09-2.89,0.29c-0.58,0.19-1.25,0.67-2.02,1.44c-0.58,0-1.64,0-3.18,0
		c-1.54,0-2.5,0.09-2.89,0.29c-0.39,0.19-0.77,0.48-1.16,0.87c-0.39,0.38-0.68,0.58-0.87,0.58H493.09z M512.72,289.72
		c0.77,0,1.06-0.19,0.87-0.58c-0.19-0.19-0.39-0.19-0.58,0C512.82,289.33,512.72,289.53,512.72,289.72z M514.74,287.98
		c0.19,0.39,0.38,0.39,0.58,0c0.19-0.38,0.09-0.58-0.29-0.58C514.84,287.6,514.74,287.79,514.74,287.98z"/>
	<path class="st0" d="M595.3,240.06c0.38,0,0.77-0.09,1.15-0.29c0.38-0.19,0.67-0.29,0.87-0.29c4.23,0,7.02-0.38,8.37-1.16
		c0.77-0.19,1.97-0.29,3.61-0.29c1.63,0,2.98-0.14,4.04-0.43c1.06-0.29,1.88-0.72,2.45-1.3c0.77,0.19,1.73,0.05,2.89-0.43
		c1.16-0.48,2.02-0.72,2.6-0.72c0.38,0,0.87,0.05,1.44,0.14c0.58,0.1,0.96,0.14,1.16,0.14c0.58,0,1.25-0.14,2.02-0.43
		c0.77-0.29,1.34-0.43,1.73-0.43c1.73,0,3.75,0.77,6.06,2.31c0,1.35-0.68,2.5-2.02,3.46c-0.58,0.39-0.96,0.68-1.15,0.87
		c-3.85-0.38-6.55,0.1-8.08,1.44c-1.93-0.19-3.66,0.48-5.2,2.02c-1.35,0-3.23,0.34-5.63,1.01c-2.41,0.68-4.19,1.01-5.34,1.01
		c-0.39,0-0.87-0.09-1.44-0.29c-0.58-0.19-1.06-0.19-1.44,0c-0.39,0-0.92,0.24-1.59,0.72c-0.68,0.48-1.11,0.72-1.3,0.72
		c-0.97-0.19-1.93,0-2.89,0.58c-0.97,0.58-1.64,0.87-2.02,0.87c-0.19,0-0.63,0.05-1.3,0.14c-0.68,0.1-1.11,0.24-1.3,0.43
		c-0.97,0.97-1.44,2.12-1.44,3.46c-0.19,1.15-0.19,3.37,0,6.64c0.19,3.28,0.09,5.49-0.29,6.64c-0.77,1.16-1.3,3.28-1.59,6.35
		c-0.29,3.08-0.53,4.91-0.72,5.49c0,0.96-0.29,1.73-0.87,2.31c-0.39,2.31-0.77,4.14-1.15,5.49c-0.97,4.43-1.64,7.02-2.02,7.79
		c-0.19,1.34-0.34,3.37-0.43,6.06c-0.1,2.69-0.14,4.43-0.14,5.2c0,0.19-0.1,0.67-0.29,1.44c-0.19,0.77-0.19,1.34,0,1.73
		c0.58,3.85,0.67,6.06,0.29,6.64c-0.19,0.58-0.97,1.73-2.31,3.46c-0.19,0-0.48,0-0.87,0l-0.58,0.29c-3.08-0.19-4.62-2.31-4.62-6.35
		c0-0.77,0.04-2.12,0.14-4.04c0.09-1.93,0.14-3.37,0.14-4.33v-1.73c0-0.39,0.14-0.77,0.43-1.15c0.29-0.39,0.43-0.77,0.43-1.16v-2.31
		c0.19-0.58,0.29-1.25,0.29-2.02c0.19-0.96,0.33-2.26,0.43-3.9c0.09-1.63,0.14-2.64,0.14-3.03c0.19-1.15,0.58-3.27,1.15-6.35
		c0.38-0.58,0.96-1.25,1.73-2.02c0-4.62,0.58-7.98,1.73-10.1c0-0.96,0-2.46,0-4.48c0-2.02,0.09-3.61,0.29-4.76
		c0-0.19,0.24-1.2,0.72-3.03c0.48-1.83,0.53-3.22,0.14-4.19c-2.12,0.19-3.85,0.97-5.2,2.31c-0.77-0.19-1.69,0-2.74,0.58
		c-1.06,0.58-1.88,0.87-2.45,0.87c-2.31,0.39-3.66,0.68-4.04,0.87c-0.19,0-0.53,0.14-1.01,0.43c-0.48,0.29-0.92,0.53-1.3,0.72
		c-1.54,0-2.7,0.29-3.46,0.87c-0.19,0.19-0.68,0.29-1.44,0.29c-0.19,0.19-0.63,0.58-1.3,1.15c-0.68,0.58-1.2,0.97-1.59,1.16
		c-0.97,0-1.64,0.1-2.02,0.29c-0.19,0-0.53,0.19-1.01,0.58c-0.48,0.39-0.92,0.58-1.3,0.58c-1.54,0.19-2.89-0.58-4.04-2.31
		c-0.58-2.69,0.38-4.71,2.89-6.06h2.89c0.38-0.38,1.01-0.77,1.88-1.16c0.87-0.38,1.49-0.67,1.88-0.87c0.19-0.19,0.48-0.38,0.87-0.58
		c0.38-0.19,0.77-0.38,1.15-0.58c0.19-0.19,0.58-0.29,1.15-0.29c2.89-1.92,4.52-2.98,4.91-3.18c0.77,0,1.97-0.38,3.61-1.16
		c1.63-0.77,3.22-0.96,4.76-0.58c0.38-0.19,1.54-0.77,3.46-1.73c1.92-0.96,3.27-1.83,4.04-2.6c0-0.38,0.19-1.06,0.58-2.02
		c0.38-0.96,0.58-1.83,0.58-2.6c0.19-0.58,0.33-1.59,0.43-3.03c0.09-1.44,0.24-2.45,0.43-3.03c0-0.19,0.19-0.58,0.58-1.16
		c0.38-0.58,0.58-1.06,0.58-1.44c0.19-0.77,0.04-1.78-0.43-3.03c-0.48-1.25-0.72-1.97-0.72-2.17c-0.19-0.58-0.24-1.73-0.14-3.46
		c0.09-1.73,0.14-2.89,0.14-3.46c-0.19-0.58-0.77-1.25-1.73-2.02c-0.97-0.77-1.54-1.44-1.73-2.02c0-1.15,1.15-2.4,3.46-3.75
		c2.12-1.34,3.94-1.63,5.49-0.87c1.34,1.73,2.21,3.85,2.6,6.35l0.87,8.08c-0.39,1.54-0.58,2.7-0.58,3.46v9.24
		C594.33,238.52,594.53,239.67,595.3,240.06z"/>
	<path class="st0" d="M192.1,437.39c0.38-0.19,0.67-0.48,0.87-0.87c0.19-0.38,0.38-0.67,0.58-0.87c0.77-0.38,1.73-1.16,2.89-2.31
		c1.15-1.15,2.02-1.92,2.6-2.31c0.58-0.38,1.44-0.96,2.6-1.73c1.15-0.77,2.02-1.34,2.6-1.73c0.77-0.19,2.89-0.29,6.35-0.29
		c0.58,0.39,1.11,0.87,1.59,1.44c0.48,0.58,0.91,1.35,1.3,2.31c0.38,0.97,0.77,1.73,1.16,2.31c0,1.16,0.09,3.61,0.29,7.36
		c0.19,3.75,0.09,6.21-0.29,7.36c-0.19,0.19-0.48,0.53-0.87,1.01c-0.39,0.48-0.58,0.92-0.58,1.3c0,3.85-0.58,6.06-1.73,6.64
		c-0.39,1.16-0.58,3.18-0.58,6.06c0,0.39-0.24,1.16-0.72,2.31c-0.48,1.16-0.63,2.02-0.43,2.6c0,0.39,0.19,0.82,0.58,1.3
		c0.38,0.48,0.58,0.82,0.58,1.01c0.19,0.77,0.05,1.63-0.43,2.6c-0.48,0.96-0.72,1.63-0.72,2.02c-0.58,0.38-1.35,1.34-2.31,2.89
		c-3.85,0-5.87-0.96-6.06-2.89c-0.77-4.04-0.68-7.12,0.29-9.24c0-0.19,0.19-0.48,0.58-0.87c0.38-0.38,0.58-0.67,0.58-0.87
		c0.38-0.38,0.53-1.49,0.43-3.32c-0.1-1.83-0.14-3.03-0.14-3.61c0.19-0.38,0.43-0.87,0.72-1.44c0.29-0.58,0.53-0.96,0.72-1.16
		c0-1.54,0.48-3.56,1.44-6.06c0.19-0.77,0.29-1.92,0.29-3.46c0.19-0.38,0.48-0.87,0.87-1.44c0.38-0.58,0.67-1.06,0.87-1.44
		c0-0.19-0.48-1.54-1.44-4.04c0-1.54-0.29-2.31-0.87-2.31c-0.58,0-1.54,0.96-2.89,2.89c-1.35,0.58-2.12,1.16-2.31,1.73
		c-0.39,0-0.77,0.1-1.15,0.29l-0.29,0.29c-0.58,0.39-1.06,1.06-1.44,2.02c-0.39,0.39-1.4,1.2-3.03,2.45
		c-1.64,1.25-2.74,2.36-3.32,3.32v1.44c-0.39,0.39-0.87,1.25-1.44,2.6c-0.58,1.35-1.16,2.22-1.73,2.6c0.19,0.97-0.1,2.02-0.87,3.18
		c-0.39,0.39-0.68,0.77-0.87,1.16c-0.19,0.19-0.29,0.39-0.29,0.58c-0.19,0.39-0.29,0.68-0.29,0.87c0,0.39-0.19,0.92-0.58,1.59
		c-0.39,0.68-0.68,1.3-0.87,1.88c0,0.39-0.19,0.77-0.58,1.16c-0.39,0.39-0.58,0.68-0.58,0.87c0,0.19,0,0.48,0,0.87
		c0,0.39-0.1,0.58-0.29,0.58c-0.19,0.19-0.39,0.48-0.58,0.87c-3.08,3.85-5.49,4.71-7.22,2.6c-0.77-1.54-1.15-2.69-1.15-3.46
		c0-0.96,0.38-2.21,1.15-3.75c0.77-1.54,1.15-2.89,1.15-4.04c0.19-0.38,0.48-0.72,0.87-1.01c0.38-0.29,0.58-0.53,0.58-0.72
		c-0.19-1.15,0.09-2.31,0.87-3.46c0.77-1.16,1.15-2.21,1.15-3.18l1.15-2.31c0-0.58,0.24-1.25,0.72-2.02
		c0.48-0.77,0.72-1.25,0.72-1.44c0.38-3.08,0.58-5.67,0.58-7.79c0.38-0.77,0.67-1.44,0.87-2.02c0-0.96-0.34-1.97-1.01-3.03
		c-0.68-1.06-1.01-1.88-1.01-2.46c0-0.38,0.14-0.82,0.43-1.3c0.29-0.48,0.43-0.82,0.43-1.01c0.58-1.15,1.25-2.35,2.02-3.61
		c0.77-1.25,1.73-2.07,2.89-2.46c2.31-0.58,3.85,0.58,4.62,3.46c0,0.19-0.05,0.53-0.14,1.01c-0.1,0.48-0.14,0.82-0.14,1.01
		c0,0.19,0.14,0.82,0.43,1.88c0.29,1.06,0.33,1.78,0.14,2.17c0,0.39-0.19,1.06-0.58,2.02C191.04,435.66,191.13,436.81,192.1,437.39z
		"/>
	<path class="st0" d="M269.19,416.03c0.19,0,0.67,0.24,1.44,0.72c0.77,0.48,1.54,0.72,2.31,0.72c1.73,2.31,2.6,3.66,2.6,4.04
		c0.58,0.77,1.68,1.83,3.32,3.18c1.63,1.35,2.74,2.5,3.32,3.46c0.38,1.54,0.87,2.7,1.44,3.46c0,0.58,0.58,2.31,1.73,5.2
		c0,0.39,0,0.92,0,1.59c0,0.68,0.09,1.21,0.29,1.59c0.19,0.39,0.48,0.77,0.87,1.16c0.38,0.39,0.58,0.77,0.58,1.16
		c0,0.58-0.19,1.44-0.58,2.6c-0.39,4.62-0.77,7.41-1.15,8.37c-0.77,0.58-1.88,1.93-3.32,4.04c-1.44,2.12-2.84,3.37-4.19,3.75
		c-2.7,3.85-5.58,6.55-8.66,8.08c-0.39,0.19-0.87,0.29-1.44,0.29l-1.73,1.73c-0.39,0-1.54,0.48-3.46,1.44
		c-1.15,0-2.26,0.33-3.32,1.01c-1.06,0.67-1.88,1.11-2.45,1.3c-0.39,0.38-1.93,0.77-4.62,1.15c-1.93,0.77-4.04,1.34-6.35,1.73
		c-2.89,0.38-5.58,0.29-8.08-0.29c-0.58-0.19-1.44-0.68-2.6-1.44h-1.73c-1.15-0.58-2.7-1.64-4.62-3.18
		c-0.77-0.58-1.54-1.64-2.31-3.18c-0.39-0.38-0.77-0.96-1.15-1.73c-0.19-0.58-0.29-3.08-0.29-7.51c0.77-1.16,1.25-1.92,1.44-2.31
		c0.58-3.46,1.73-6.25,3.46-8.37c-0.19-1.16,0.09-2.31,0.87-3.46c0.77-1.16,1.15-2.12,1.15-2.89c0.38-0.19,1.54-1.25,3.46-3.18
		c0.96-1.34,1.44-2.5,1.44-3.46c0.19-0.38,0.48-0.72,0.87-1.01c0.38-0.29,0.67-0.62,0.87-1.01v-1.44c0.19-0.38,0.48-0.72,0.87-1.01
		c0.38-0.29,0.58-0.53,0.58-0.72v-1.44c0.77-0.77,1.73-1.97,2.89-3.61c1.15-1.63,2.02-2.84,2.6-3.61c0.38,0,1.15-0.67,2.31-2.02
		c1.34-0.58,3.08-1.73,5.2-3.46c0.77-0.19,1.83-0.48,3.18-0.87c1.34-0.38,2.4-0.67,3.18-0.87c1.34-0.19,3.13-0.19,5.34,0
		C266.92,415.93,268.41,416.03,269.19,416.03z M259.37,425.55c-1.35,2.31-3.28,3.56-5.77,3.75c-1.35,0.77-2.55,1.73-3.61,2.89
		c-1.06,1.15-2.21,2.6-3.46,4.33c-1.25,1.73-2.17,2.99-2.74,3.75c-0.77,1.54-1.35,2.6-1.73,3.18c0,0.97-0.39,2.02-1.15,3.18
		c-0.39,0.77-0.68,1.35-0.87,1.73c-0.39,0.58-1.06,1.3-2.02,2.17c-0.97,0.87-1.69,1.78-2.17,2.74c-0.48,0.96-0.72,2.12-0.72,3.46
		c0,0.19-0.19,0.53-0.58,1.01c-0.39,0.48-0.68,0.92-0.87,1.3c-0.19,0.39-0.29,1.11-0.29,2.17c0,1.06-0.1,1.78-0.29,2.17
		c0,0.39-0.1,0.72-0.29,1.01c-0.19,0.29-0.29,0.53-0.29,0.72c0.19,0.96,0.82,1.88,1.88,2.74c1.06,0.87,1.68,1.4,1.88,1.59
		c0.58,0,1.63,0.29,3.18,0.87c1.54,0.58,2.79,0.77,3.75,0.58l1.73-0.87c0.58-0.19,1.59-0.33,3.03-0.43
		c1.44-0.09,2.45-0.24,3.03-0.43c0.77,0,1.83-0.19,3.18-0.58c1.34-0.38,2.4-0.67,3.18-0.87c0.19-0.19,0.48-0.43,0.87-0.72
		c0.38-0.29,0.77-0.53,1.15-0.72c0.19,0,0.48-0.04,0.87-0.14c0.38-0.09,0.67-0.14,0.87-0.14c0.19-0.19,0.48-0.48,0.87-0.87
		c0.38-0.38,0.67-0.58,0.87-0.58h0.58c0.38,0,0.67-0.09,0.87-0.29c3.08-2.31,5.49-3.94,7.22-4.91c0.77-0.96,1.97-2.5,3.61-4.62
		c1.63-2.12,2.84-3.65,3.61-4.62c-0.19-0.77,0-1.63,0.58-2.6c0.58-0.96,0.87-1.63,0.87-2.02c0-0.38-0.14-1.06-0.43-2.02
		c-0.29-0.96-0.43-1.63-0.43-2.02c-0.19-0.77-0.29-1.63-0.29-2.6c-0.19-0.58-0.29-1.25-0.29-2.02c-0.19-0.77-0.77-1.68-1.73-2.74
		c-0.97-1.06-1.54-1.88-1.73-2.46c-0.39-0.96-0.97-2.12-1.73-3.46c-0.77-1.34-1.25-2.31-1.44-2.89c-1.93-1.54-2.99-2.31-3.18-2.31
		c-1.15-0.19-2.5-0.87-4.04-2.02c-1.15-0.19-1.93,0.1-2.31,0.87c0,0.19-0.14,0.82-0.43,1.88c-0.29,1.06-0.63,1.69-1.01,1.88H259.37z
		"/>
	<path class="st0" d="M341.37,417.18c0.38,0,0.77-0.09,1.15-0.29c0.38-0.19,0.67-0.29,0.87-0.29c4.23,0,7.02-0.38,8.37-1.15
		c0.77-0.19,1.97-0.29,3.61-0.29c1.63,0,2.98-0.14,4.04-0.43c1.06-0.29,1.88-0.72,2.45-1.3c0.77,0.19,1.73,0.05,2.89-0.43
		c1.15-0.48,2.02-0.72,2.6-0.72c0.38,0,0.87,0.05,1.44,0.14c0.58,0.1,0.96,0.14,1.15,0.14c0.58,0,1.25-0.14,2.02-0.43
		c0.77-0.29,1.34-0.43,1.73-0.43c1.73,0,3.75,0.77,6.06,2.31c0,1.35-0.68,2.5-2.02,3.46c-0.58,0.39-0.97,0.68-1.15,0.87
		c-3.85-0.38-6.55,0.1-8.08,1.44c-1.93-0.19-3.66,0.48-5.2,2.02c-1.35,0-3.23,0.34-5.63,1.01c-2.41,0.68-4.19,1.01-5.34,1.01
		c-0.39,0-0.87-0.09-1.44-0.29c-0.58-0.19-1.06-0.19-1.44,0c-0.39,0-0.92,0.24-1.59,0.72c-0.68,0.48-1.11,0.72-1.3,0.72
		c-0.97-0.19-1.93,0-2.89,0.58c-0.97,0.58-1.64,0.87-2.02,0.87c-0.19,0-0.63,0.05-1.3,0.14c-0.68,0.1-1.11,0.24-1.3,0.43
		c-0.97,0.97-1.44,2.12-1.44,3.46c-0.19,1.15-0.19,3.37,0,6.64c0.19,3.28,0.09,5.49-0.29,6.64c-0.77,1.16-1.3,3.28-1.59,6.35
		c-0.29,3.08-0.53,4.91-0.72,5.49c0,0.96-0.29,1.73-0.87,2.31c-0.39,2.31-0.77,4.14-1.15,5.49c-0.97,4.43-1.64,7.02-2.02,7.79
		c-0.19,1.34-0.34,3.37-0.43,6.06c-0.1,2.69-0.14,4.43-0.14,5.2c0,0.19-0.1,0.67-0.29,1.44c-0.19,0.77-0.19,1.34,0,1.73
		c0.58,3.85,0.67,6.06,0.29,6.64c-0.19,0.58-0.97,1.73-2.31,3.46c-0.19,0-0.48,0-0.87,0l-0.58,0.29c-3.08-0.19-4.62-2.31-4.62-6.35
		c0-0.77,0.04-2.12,0.14-4.04c0.09-1.93,0.14-3.37,0.14-4.33v-1.73c0-0.39,0.14-0.77,0.43-1.15c0.29-0.39,0.43-0.77,0.43-1.16v-2.31
		c0.19-0.58,0.29-1.25,0.29-2.02c0.19-0.96,0.33-2.26,0.43-3.9c0.09-1.63,0.14-2.64,0.14-3.03c0.19-1.15,0.58-3.27,1.15-6.35
		c0.38-0.58,0.96-1.25,1.73-2.02c0-4.62,0.58-7.98,1.73-10.1c0-0.96,0-2.46,0-4.48c0-2.02,0.09-3.61,0.29-4.76
		c0-0.19,0.24-1.2,0.72-3.03c0.48-1.83,0.53-3.22,0.14-4.19c-2.12,0.19-3.85,0.97-5.2,2.31c-0.77-0.19-1.69,0-2.74,0.58
		c-1.06,0.58-1.88,0.87-2.45,0.87c-2.31,0.39-3.66,0.68-4.04,0.87c-0.19,0-0.53,0.14-1.01,0.43c-0.48,0.29-0.92,0.53-1.3,0.72
		c-1.54,0-2.7,0.29-3.46,0.87c-0.19,0.19-0.68,0.29-1.44,0.29c-0.19,0.19-0.63,0.58-1.3,1.15c-0.68,0.58-1.2,0.97-1.59,1.16
		c-0.97,0-1.64,0.1-2.02,0.29c-0.19,0-0.53,0.19-1.01,0.58c-0.48,0.39-0.92,0.58-1.3,0.58c-1.54,0.19-2.89-0.58-4.04-2.31
		c-0.58-2.69,0.38-4.71,2.89-6.06h2.89c0.38-0.38,1.01-0.77,1.88-1.15c0.87-0.38,1.49-0.67,1.88-0.87c0.19-0.19,0.48-0.38,0.87-0.58
		c0.38-0.19,0.77-0.38,1.15-0.58c0.19-0.19,0.58-0.29,1.15-0.29c2.89-1.92,4.52-2.98,4.91-3.18c0.77,0,1.97-0.38,3.61-1.15
		c1.63-0.77,3.22-0.96,4.76-0.58c0.38-0.19,1.54-0.77,3.46-1.73c1.92-0.96,3.27-1.83,4.04-2.6c0-0.38,0.19-1.06,0.58-2.02
		c0.38-0.96,0.58-1.83,0.58-2.6c0.19-0.58,0.33-1.59,0.43-3.03c0.09-1.44,0.24-2.45,0.43-3.03c0-0.19,0.19-0.58,0.58-1.15
		c0.38-0.58,0.58-1.06,0.58-1.44c0.19-0.77,0.05-1.78-0.43-3.03c-0.48-1.25-0.72-1.97-0.72-2.17c-0.19-0.58-0.24-1.73-0.14-3.46
		c0.09-1.73,0.14-2.89,0.14-3.46c-0.19-0.58-0.77-1.25-1.73-2.02c-0.97-0.77-1.54-1.44-1.73-2.02c0-1.16,1.15-2.41,3.46-3.75
		c2.12-1.34,3.94-1.63,5.49-0.87c1.34,1.73,2.21,3.85,2.6,6.35l0.87,8.08c-0.39,1.54-0.58,2.7-0.58,3.46v9.24
		C340.4,415.64,340.6,416.8,341.37,417.18z"/>
	<path class="st0" d="M483.13,417.18c0.38,0,0.77-0.09,1.15-0.29c0.38-0.19,0.67-0.29,0.87-0.29c4.23,0,7.02-0.38,8.37-1.15
		c0.77-0.19,1.97-0.29,3.61-0.29c1.63,0,2.98-0.14,4.04-0.43c1.06-0.29,1.88-0.72,2.45-1.3c0.77,0.19,1.73,0.05,2.89-0.43
		c1.15-0.48,2.02-0.72,2.6-0.72c0.38,0,0.87,0.05,1.44,0.14c0.58,0.1,0.96,0.14,1.15,0.14c0.58,0,1.25-0.14,2.02-0.43
		c0.77-0.29,1.34-0.43,1.73-0.43c1.73,0,3.75,0.77,6.06,2.31c0,1.35-0.68,2.5-2.02,3.46c-0.58,0.39-0.97,0.68-1.15,0.87
		c-3.85-0.38-6.55,0.1-8.08,1.44c-1.93-0.19-3.66,0.48-5.2,2.02c-1.35,0-3.23,0.34-5.63,1.01c-2.41,0.68-4.19,1.01-5.34,1.01
		c-0.39,0-0.87-0.09-1.44-0.29c-0.58-0.19-1.06-0.19-1.44,0c-0.39,0-0.92,0.24-1.59,0.72c-0.68,0.48-1.11,0.72-1.3,0.72
		c-0.97-0.19-1.93,0-2.89,0.58c-0.97,0.58-1.64,0.87-2.02,0.87c-0.19,0-0.63,0.05-1.3,0.14c-0.68,0.1-1.11,0.24-1.3,0.43
		c-0.97,0.97-1.44,2.12-1.44,3.46c-0.19,1.15-0.19,3.37,0,6.64c0.19,3.28,0.09,5.49-0.29,6.64c-0.77,1.16-1.3,3.28-1.59,6.35
		c-0.29,3.08-0.53,4.91-0.72,5.49c0,0.96-0.29,1.73-0.87,2.31c-0.39,2.31-0.77,4.14-1.15,5.49c-0.97,4.43-1.64,7.02-2.02,7.79
		c-0.19,1.34-0.34,3.37-0.43,6.06c-0.1,2.69-0.14,4.43-0.14,5.2c0,0.19-0.1,0.67-0.29,1.44c-0.19,0.77-0.19,1.34,0,1.73
		c0.58,3.85,0.67,6.06,0.29,6.64c-0.19,0.58-0.97,1.73-2.31,3.46c-0.19,0-0.48,0-0.87,0L468.4,496c-3.08-0.19-4.62-2.31-4.62-6.35
		c0-0.77,0.04-2.12,0.14-4.04c0.09-1.93,0.14-3.37,0.14-4.33v-1.73c0-0.39,0.14-0.77,0.43-1.15c0.29-0.39,0.43-0.77,0.43-1.16v-2.31
		c0.19-0.58,0.29-1.25,0.29-2.02c0.19-0.96,0.33-2.26,0.43-3.9c0.09-1.63,0.14-2.64,0.14-3.03c0.19-1.15,0.58-3.27,1.15-6.35
		c0.38-0.58,0.96-1.25,1.73-2.02c0-4.62,0.58-7.98,1.73-10.1c0-0.96,0-2.46,0-4.48c0-2.02,0.09-3.61,0.29-4.76
		c0-0.19,0.24-1.2,0.72-3.03c0.48-1.83,0.53-3.22,0.14-4.19c-2.12,0.19-3.85,0.97-5.2,2.31c-0.77-0.19-1.69,0-2.74,0.58
		c-1.06,0.58-1.88,0.87-2.45,0.87c-2.31,0.39-3.66,0.68-4.04,0.87c-0.19,0-0.53,0.14-1.01,0.43c-0.48,0.29-0.92,0.53-1.3,0.72
		c-1.54,0-2.7,0.29-3.46,0.87c-0.19,0.19-0.68,0.29-1.44,0.29c-0.19,0.19-0.63,0.58-1.3,1.15c-0.68,0.58-1.2,0.97-1.59,1.16
		c-0.97,0-1.64,0.1-2.02,0.29c-0.19,0-0.53,0.19-1.01,0.58c-0.48,0.39-0.92,0.58-1.3,0.58c-1.54,0.19-2.89-0.58-4.04-2.31
		c-0.58-2.69,0.38-4.71,2.89-6.06h2.89c0.38-0.38,1.01-0.77,1.88-1.15c0.87-0.38,1.49-0.67,1.88-0.87c0.19-0.19,0.48-0.38,0.87-0.58
		c0.38-0.19,0.77-0.38,1.15-0.58c0.19-0.19,0.58-0.29,1.15-0.29c2.89-1.92,4.52-2.98,4.91-3.18c0.77,0,1.97-0.38,3.61-1.15
		c1.63-0.77,3.22-0.96,4.76-0.58c0.38-0.19,1.54-0.77,3.46-1.73c1.92-0.96,3.27-1.83,4.04-2.6c0-0.38,0.19-1.06,0.58-2.02
		c0.38-0.96,0.58-1.83,0.58-2.6c0.19-0.58,0.33-1.59,0.43-3.03c0.09-1.44,0.24-2.45,0.43-3.03c0-0.19,0.19-0.58,0.58-1.15
		c0.38-0.58,0.58-1.06,0.58-1.44c0.19-0.77,0.05-1.78-0.43-3.03c-0.48-1.25-0.72-1.97-0.72-2.17c-0.19-0.58-0.24-1.73-0.14-3.46
		c0.09-1.73,0.14-2.89,0.14-3.46c-0.19-0.58-0.77-1.25-1.73-2.02c-0.97-0.77-1.54-1.44-1.73-2.02c0-1.16,1.15-2.41,3.46-3.75
		c2.12-1.34,3.94-1.63,5.49-0.87c1.34,1.73,2.21,3.85,2.6,6.35l0.87,8.08c-0.39,1.54-0.58,2.7-0.58,3.46v9.24
		C482.16,415.64,482.36,416.8,483.13,417.18z"/>
	<path class="st0" d="M539.43,453.27c0,0.19,0.87,2.89,2.6,8.08c0.19,0.19,0.62,0.48,1.3,0.87c0.67,0.39,1.11,0.77,1.3,1.16
		c0.19,0.39,0.38,0.77,0.58,1.15c0.19,0.39,0.29,0.68,0.29,0.87l0.58,0.29c0.38,0.19,0.77,0.39,1.16,0.58c0.19,0,0.43,0.1,0.72,0.29
		c0.29,0.19,0.53,0.39,0.72,0.58c0,0.19,0.19,0.39,0.58,0.58c0.38,0.19,0.67,0.29,0.87,0.29c2.69,0.97,4.52,1.35,5.49,1.16
		c0.19,0.19,2.12,0.29,5.77,0.29c3.08,0,4.71-0.09,4.91-0.29c1.54-0.19,3.65-0.67,6.35-1.44c1.15,0.19,3.56-0.19,7.22-1.15
		c1.34,0.39,2.12,0.96,2.31,1.73c0,0.77-1.15,1.73-3.46,2.89c-0.19,0-0.48,0.19-0.87,0.58c-0.39,0.38-0.77,0.67-1.15,0.87h-1.44
		c-0.39,0.19-1.15,0.48-2.31,0.87c-1.15,0.38-1.93,0.77-2.31,1.15c-0.39,0.19-0.82,0.43-1.3,0.72c-0.48,0.29-0.82,0.43-1.01,0.43
		c-0.19,0.19-0.72,0.29-1.59,0.29s-1.4,0-1.59,0c-0.19,0-0.58,0.19-1.15,0.58c-0.58,0.38-1.06,0.67-1.44,0.87
		c-1.93,0.38-4.19,0.19-6.79-0.58c-2.6-0.77-4.57-1.15-5.92-1.15c-0.39-0.39-1.06-0.72-2.02-1.01c-0.97-0.29-1.64-0.53-2.02-0.72
		c-0.58-0.19-1.2-0.68-1.88-1.44c-0.68-0.77-1.11-1.25-1.3-1.44h-1.73c-0.19-0.39-0.68-0.96-1.44-1.73
		c-0.77-0.38-1.73-1.15-2.89-2.31c0-0.19-0.19-0.48-0.58-0.87c-0.19-0.38-0.39-0.58-0.58-0.58l-0.29-0.58
		c-0.19-0.38-0.29-0.67-0.29-0.87c0-0.38-0.19-0.72-0.58-1.01c-0.39-0.29-0.58-0.53-0.58-0.72c-0.19-0.38-0.29-1.01-0.29-1.88
		s-0.1-1.39-0.29-1.59c0-0.38-0.19-0.82-0.58-1.3c-0.39-0.48-0.58-0.82-0.58-1.01c0.19-0.96,0.09-2.26-0.29-3.9
		c-0.39-1.63-0.58-2.74-0.58-3.32l0.87-4.33c0.96-1.54,1.54-2.69,1.73-3.46c0-0.19,0.19-0.43,0.58-0.72
		c0.38-0.29,0.58-0.53,0.58-0.72c1.16-3.08,3.27-5.77,6.35-8.08h1.15c1.16-0.96,3.18-2.31,6.06-4.04s4.91-3.18,6.06-4.33
		c3.08-0.58,5.39-0.09,6.93,1.44c2.31,0,4.04,0.58,5.2,1.73c2.31,0,4.14,0.58,5.49,1.73c1.34,1.35,1.83,3.28,1.44,5.77
		c-0.58,1.16-1.11,2.26-1.59,3.32c-0.48,1.06-1.2,2.02-2.17,2.89c-0.97,0.87-2.12,1.49-3.46,1.88c-0.39,0.39-1.01,0.87-1.88,1.44
		c-0.87,0.58-1.49,1.06-1.88,1.44c-0.97,0.19-2.26,0.77-3.9,1.73c-1.64,0.96-2.55,1.54-2.74,1.73c-2.12,0-3.75,0.58-4.91,1.73
		c-2.7,0-5.01,0.58-6.93,1.73C541.35,452.41,539.81,452.69,539.43,453.27z M559.06,431.91c-2.31,0.39-4.24,0.48-5.77,0.29
		c-0.39,0.19-2.02,1.73-4.91,4.62c-0.19,0.58-0.92,1.35-2.17,2.31c-1.25,0.97-1.98,1.83-2.17,2.6c2.12,1.54,4.52,1.25,7.22-0.87
		c1.34,0.19,2.79-0.09,4.33-0.87c1.54-0.77,2.79-1.15,3.75-1.15c0.38-0.19,0.91-0.72,1.59-1.59c0.67-0.87,1.2-1.39,1.59-1.59
		c0.58-0.19,1.2-0.48,1.88-0.87c0.67-0.38,0.91-0.96,0.72-1.73c-0.39-0.38-0.92-0.67-1.59-0.87c-0.68-0.19-1.49-0.29-2.45-0.29
		C560.12,431.91,559.45,431.91,559.06,431.91z"/>
	<path class="st0" d="M608.15,359.44c1.16-0.19,2.21,0.1,3.18,0.87c0.96,0.77,1.73,1.44,2.31,2.02c0,2.12,0,4.33,0,6.64
		s0.48,4.04,1.44,5.2c0.58,5.01,0.48,9.43-0.29,13.28c-0.39,3.46-0.39,5.68,0,6.64c-0.39,2.5-0.63,6.4-0.72,11.69
		c-0.1,5.3-0.24,9.09-0.43,11.41c0,0.19-0.19,0.96-0.58,2.31c-0.39,1.35-0.68,2.5-0.87,3.46c-0.19,0.77-0.29,1.78-0.29,3.03
		c0,1.25-0.05,2.31-0.14,3.18c-0.1,0.87-0.43,1.59-1.01,2.17c0,0.39-0.05,1.25-0.14,2.6c-0.1,1.35-0.24,2.31-0.43,2.89
		c-0.19,0.39-0.43,0.92-0.72,1.59c-0.29,0.68-0.43,1.11-0.43,1.3c-0.19,0.58-0.29,1.49-0.29,2.74c0,1.25,0,2.17,0,2.74
		c-0.19,0.39-0.48,0.92-0.87,1.59c-0.39,0.68-0.58,1.11-0.58,1.3c-0.19,0.96-0.29,2.79-0.29,5.49c-0.19,0.39-0.48,0.92-0.87,1.59
		c-0.39,0.68-0.68,1.21-0.87,1.59c0.19,2.12-0.19,4.33-1.16,6.64c-0.19,0.96-0.63,2.94-1.3,5.92c-0.68,2.98-1.01,5.53-1.01,7.65
		c0,0.38-0.24,0.82-0.72,1.3c-0.48,0.48-0.72,0.91-0.72,1.3c-0.19,0.58-0.24,1.88-0.14,3.9c0.09,2.02,0.14,3.42,0.14,4.19
		c-1.16,1.54-2.02,2.4-2.6,2.6c-3.08,0.96-5.01,0.09-5.78-2.6c0-1.93,0.33-4.58,1.01-7.94c0.67-3.37,0.91-6.11,0.72-8.23
		c0-0.39,0.24-0.82,0.72-1.3c0.48-0.48,0.72-0.82,0.72-1.01c0-2.89,0.09-4.91,0.29-6.06c1.16-3.46,1.73-5.29,1.73-5.49
		c0.58-1.54,1.16-4.86,1.73-9.96c0.58-5.1,1.54-8.61,2.89-10.54c0-3.08,0.58-5.2,1.73-6.35c0.19-0.77,0.29-1.78,0.29-3.03
		c0-1.25,0-2.35,0-3.32l0.87-2.6v-3.46c0.38-1.54,0.58-2.69,0.58-3.46c0-3.85,0.09-6.93,0.29-9.24c0.77-0.96,1.2-2.17,1.3-3.61
		c0.09-1.44,0.09-3.13,0-5.05c-0.1-1.92-0.14-3.37-0.14-4.33c0-0.58,0.04-1.44,0.14-2.6c0.09-1.16,0.14-2.12,0.14-2.89
		c0.38-3.08,0.58-5,0.58-5.77c0-0.38-0.1-0.87-0.29-1.44c-0.19-0.58-0.29-0.96-0.29-1.16c-0.19-0.58-0.29-2.4-0.29-5.49
		c0-0.38-0.05-1.16-0.14-2.31c-0.1-1.16-0.14-1.92-0.14-2.31v-3.46l-0.58-2.31c-0.19-1.54,0-2.31,0.58-2.31
		C606.41,359.82,606.99,359.44,608.15,359.44z"/>
	<path class="st0" d="M640.48,359.44c1.16-0.19,2.21,0.1,3.18,0.87c0.96,0.77,1.73,1.44,2.31,2.02c0,2.12,0,4.33,0,6.64
		s0.48,4.04,1.44,5.2c0.58,5.01,0.48,9.43-0.29,13.28c-0.39,3.46-0.39,5.68,0,6.64c-0.39,2.5-0.63,6.4-0.72,11.69
		c-0.1,5.3-0.24,9.09-0.43,11.41c0,0.19-0.19,0.96-0.58,2.31c-0.39,1.35-0.68,2.5-0.87,3.46c-0.19,0.77-0.29,1.78-0.29,3.03
		c0,1.25-0.05,2.31-0.14,3.18c-0.1,0.87-0.43,1.59-1.01,2.17c0,0.39-0.05,1.25-0.14,2.6c-0.1,1.35-0.24,2.31-0.43,2.89
		c-0.19,0.39-0.43,0.92-0.72,1.59c-0.29,0.68-0.43,1.11-0.43,1.3c-0.19,0.58-0.29,1.49-0.29,2.74c0,1.25,0,2.17,0,2.74
		c-0.19,0.39-0.48,0.92-0.87,1.59c-0.39,0.68-0.58,1.11-0.58,1.3c-0.19,0.96-0.29,2.79-0.29,5.49c-0.19,0.39-0.48,0.92-0.87,1.59
		c-0.39,0.68-0.68,1.21-0.87,1.59c0.19,2.12-0.19,4.33-1.16,6.64c-0.19,0.96-0.63,2.94-1.3,5.92c-0.68,2.98-1.01,5.53-1.01,7.65
		c0,0.38-0.24,0.82-0.72,1.3c-0.48,0.48-0.72,0.91-0.72,1.3c-0.19,0.58-0.24,1.88-0.14,3.9c0.09,2.02,0.14,3.42,0.14,4.19
		c-1.16,1.54-2.02,2.4-2.6,2.6c-3.08,0.96-5.01,0.09-5.78-2.6c0-1.93,0.33-4.58,1.01-7.94c0.67-3.37,0.91-6.11,0.72-8.23
		c0-0.39,0.24-0.82,0.72-1.3c0.48-0.48,0.72-0.82,0.72-1.01c0-2.89,0.09-4.91,0.29-6.06c1.16-3.46,1.73-5.29,1.73-5.49
		c0.58-1.54,1.16-4.86,1.73-9.96c0.58-5.1,1.54-8.61,2.89-10.54c0-3.08,0.58-5.2,1.73-6.35c0.19-0.77,0.29-1.78,0.29-3.03
		c0-1.25,0-2.35,0-3.32l0.87-2.6v-3.46c0.38-1.54,0.58-2.69,0.58-3.46c0-3.85,0.09-6.93,0.29-9.24c0.77-0.96,1.2-2.17,1.3-3.61
		c0.09-1.44,0.09-3.13,0-5.05c-0.1-1.92-0.14-3.37-0.14-4.33c0-0.58,0.04-1.44,0.14-2.6c0.09-1.16,0.14-2.12,0.14-2.89
		c0.38-3.08,0.58-5,0.58-5.77c0-0.38-0.1-0.87-0.29-1.44c-0.19-0.58-0.29-0.96-0.29-1.16c-0.19-0.58-0.29-2.4-0.29-5.49
		c0-0.38-0.05-1.16-0.14-2.31c-0.1-1.16-0.14-1.92-0.14-2.31v-3.46l-0.58-2.31c-0.19-1.54,0-2.31,0.58-2.31
		C638.75,359.82,639.33,359.44,640.48,359.44z"/>
	<path class="st0" d="M339.35,536.56c1.16-0.19,2.21,0.1,3.18,0.87c0.96,0.77,1.73,1.44,2.31,2.02c0,2.12,0,4.33,0,6.64
		s0.48,4.04,1.44,5.2c0.58,5.01,0.48,9.43-0.29,13.28c-0.39,3.46-0.39,5.68,0,6.64c-0.39,2.5-0.63,6.4-0.72,11.69
		c-0.1,5.3-0.24,9.09-0.43,11.41c0,0.19-0.19,0.96-0.58,2.31c-0.39,1.35-0.68,2.5-0.87,3.46c-0.19,0.77-0.29,1.78-0.29,3.03
		c0,1.25-0.05,2.31-0.14,3.18c-0.1,0.87-0.43,1.59-1.01,2.17c0,0.39-0.05,1.25-0.14,2.6c-0.1,1.35-0.24,2.31-0.43,2.89
		c-0.19,0.39-0.43,0.92-0.72,1.59c-0.29,0.68-0.43,1.11-0.43,1.3c-0.19,0.58-0.29,1.49-0.29,2.74c0,1.25,0,2.17,0,2.74
		c-0.19,0.39-0.48,0.92-0.87,1.59c-0.39,0.68-0.58,1.11-0.58,1.3c-0.19,0.96-0.29,2.79-0.29,5.49c-0.19,0.39-0.48,0.92-0.87,1.59
		c-0.39,0.68-0.68,1.21-0.87,1.59c0.19,2.12-0.19,4.33-1.15,6.64c-0.19,0.96-0.63,2.94-1.3,5.92c-0.68,2.98-1.01,5.53-1.01,7.65
		c0,0.38-0.24,0.82-0.72,1.3c-0.48,0.48-0.72,0.91-0.72,1.3c-0.19,0.58-0.24,1.88-0.14,3.9c0.09,2.02,0.14,3.42,0.14,4.19
		c-1.15,1.54-2.02,2.4-2.6,2.6c-3.08,0.96-5.01,0.09-5.77-2.6c0-1.93,0.33-4.58,1.01-7.94c0.67-3.37,0.91-6.11,0.72-8.23
		c0-0.39,0.24-0.82,0.72-1.3c0.48-0.48,0.72-0.82,0.72-1.01c0-2.89,0.09-4.91,0.29-6.06c1.15-3.46,1.73-5.29,1.73-5.49
		c0.58-1.54,1.15-4.86,1.73-9.96c0.58-5.1,1.54-8.61,2.89-10.54c0-3.08,0.58-5.2,1.73-6.35c0.19-0.77,0.29-1.78,0.29-3.03
		c0-1.25,0-2.35,0-3.32l0.87-2.6v-3.46c0.38-1.54,0.58-2.69,0.58-3.46c0-3.85,0.09-6.93,0.29-9.24c0.77-0.96,1.2-2.17,1.3-3.61
		c0.09-1.44,0.09-3.13,0-5.05c-0.1-1.92-0.14-3.37-0.14-4.33c0-0.58,0.04-1.44,0.14-2.6c0.09-1.16,0.14-2.12,0.14-2.89
		c0.38-3.08,0.58-5,0.58-5.77c0-0.38-0.1-0.87-0.29-1.44c-0.19-0.58-0.29-0.96-0.29-1.16c-0.19-0.58-0.29-2.4-0.29-5.49
		c0-0.38-0.05-1.16-0.14-2.31c-0.1-1.16-0.14-1.92-0.14-2.31v-3.46l-0.58-2.31c-0.19-1.54,0-2.31,0.58-2.31
		C337.62,536.95,338.19,536.56,339.35,536.56z"/>
	<path class="st0" d="M371.68,604.41c0.19,1.15,0.19,2.99,0,5.49c-0.19,2.5-0.29,4.24-0.29,5.2c0,0.39,0.14,0.96,0.43,1.73
		c0.29,0.77,0.43,1.25,0.43,1.44c0,0.39-0.19,1.06-0.58,2.02c-0.39,0.96-0.58,1.73-0.58,2.31c0,0.19-0.19,0.53-0.58,1.01
		c-0.39,0.48-0.58,0.92-0.58,1.3c-0.19,0.58-0.29,1.25-0.29,2.02c0,0.77,0,1.35,0,1.73c-0.19,0.19-0.48,0.43-0.87,0.72
		c-0.39,0.29-0.68,0.53-0.87,0.72c0,0.19-0.1,0.48-0.29,0.87v0.58c-0.97,1.93-1.44,3.75-1.44,5.49c-0.19,0.39-0.43,0.92-0.72,1.59
		c-0.29,0.68-0.53,1.2-0.72,1.59c-0.19,0.77-0.29,2.02-0.29,3.75c0,0.19-0.24,0.48-0.72,0.87c-0.48,0.39-0.72,0.77-0.72,1.16v3.18
		c-0.39,0.77-0.97,1.34-1.73,1.73c-0.77,1.16-1.44,1.54-2.02,1.16c-0.39,0-1.44-0.87-3.18-2.6c0-7.89,0.48-12.42,1.44-13.57
		c0-0.58,0.05-1.2,0.14-1.88c0.09-0.67,0.14-1.2,0.14-1.59c0-0.38,0.29-0.77,0.87-1.15c0.58-0.38,0.87-0.67,0.87-0.87
		c-0.19-0.77,0-1.68,0.58-2.74c0.58-1.06,0.87-1.68,0.87-1.88l1.44-3.75c0-0.38,0.48-3.37,1.44-8.95c0-0.19,0.04-0.67,0.14-1.44
		c0.09-0.77,0.14-1.25,0.14-1.44v-4.62c0.19-1.34,1.3-2.12,3.32-2.31C369.52,603.07,370.91,603.45,371.68,604.41z M374.57,573.81
		v5.2c-1.73,1.73-3.18,2.6-4.33,2.6c-1.93-1.54-3.08-2.98-3.46-4.33c0.38-0.58,0.67-1.73,0.87-3.46c0.19-1.73,0.38-2.79,0.58-3.18
		c0.19,0,0.87-0.48,2.02-1.44c1.15-0.96,2.12-1.34,2.89-1.16c0.58,0.19,1.25,0.68,2.02,1.44c0.38,0.19,0.67,0.39,0.87,0.58
		C376.4,571.21,375.92,572.46,374.57,573.81z"/>
	<path class="st0" d="M394.2,630.4c0,0.19,0.87,2.89,2.6,8.08c0.19,0.19,0.62,0.48,1.3,0.87c0.67,0.39,1.11,0.77,1.3,1.16
		c0.19,0.39,0.38,0.77,0.58,1.15c0.19,0.39,0.29,0.68,0.29,0.87l0.58,0.29c0.38,0.19,0.77,0.39,1.16,0.58c0.19,0,0.43,0.1,0.72,0.29
		c0.29,0.19,0.53,0.39,0.72,0.58c0,0.19,0.19,0.39,0.58,0.58c0.38,0.19,0.67,0.29,0.87,0.29c2.69,0.97,4.52,1.35,5.49,1.16
		c0.19,0.19,2.12,0.29,5.77,0.29c3.08,0,4.71-0.09,4.91-0.29c1.54-0.19,3.65-0.67,6.35-1.44c1.15,0.19,3.56-0.19,7.22-1.15
		c1.34,0.39,2.12,0.96,2.31,1.73c0,0.77-1.15,1.73-3.46,2.89c-0.19,0-0.48,0.19-0.87,0.58c-0.39,0.38-0.77,0.67-1.15,0.87H430
		c-0.39,0.19-1.15,0.48-2.31,0.87c-1.15,0.38-1.93,0.77-2.31,1.15c-0.39,0.19-0.82,0.43-1.3,0.72c-0.48,0.29-0.82,0.43-1.01,0.43
		c-0.19,0.19-0.72,0.29-1.59,0.29s-1.4,0-1.59,0c-0.19,0-0.58,0.19-1.15,0.58c-0.58,0.38-1.06,0.67-1.44,0.87
		c-1.93,0.38-4.19,0.19-6.79-0.58c-2.6-0.77-4.57-1.15-5.92-1.15c-0.39-0.39-1.06-0.72-2.02-1.01c-0.97-0.29-1.64-0.53-2.02-0.72
		c-0.58-0.19-1.2-0.68-1.88-1.44c-0.68-0.77-1.11-1.25-1.3-1.44h-1.73c-0.19-0.39-0.68-0.96-1.44-1.73
		c-0.77-0.38-1.73-1.15-2.89-2.31c0-0.19-0.19-0.48-0.58-0.87c-0.19-0.38-0.39-0.58-0.58-0.58l-0.29-0.58
		c-0.19-0.38-0.29-0.67-0.29-0.87c0-0.38-0.19-0.72-0.58-1.01c-0.39-0.29-0.58-0.53-0.58-0.72c-0.19-0.38-0.29-1.01-0.29-1.88
		s-0.1-1.39-0.29-1.59c0-0.38-0.19-0.82-0.58-1.3c-0.39-0.48-0.58-0.82-0.58-1.01c0.19-0.96,0.09-2.26-0.29-3.9
		c-0.39-1.63-0.58-2.74-0.58-3.32l0.87-4.33c0.96-1.54,1.54-2.69,1.73-3.46c0-0.19,0.19-0.43,0.58-0.72
		c0.38-0.29,0.58-0.53,0.58-0.72c1.16-3.08,3.27-5.77,6.35-8.08h1.15c1.16-0.96,3.18-2.31,6.06-4.04s4.91-3.18,6.06-4.33
		c3.08-0.58,5.39-0.09,6.93,1.44c2.31,0,4.04,0.58,5.2,1.73c2.31,0,4.14,0.58,5.49,1.73c1.34,1.35,1.83,3.28,1.44,5.77
		c-0.58,1.16-1.11,2.26-1.59,3.32c-0.48,1.06-1.2,2.02-2.17,2.89c-0.97,0.87-2.12,1.49-3.46,1.88c-0.39,0.39-1.01,0.87-1.88,1.44
		c-0.87,0.58-1.49,1.06-1.88,1.44c-0.97,0.19-2.26,0.77-3.9,1.73c-1.64,0.96-2.55,1.54-2.74,1.73c-2.12,0-3.75,0.58-4.91,1.73
		c-2.7,0-5.01,0.58-6.93,1.73C396.12,629.53,394.59,629.82,394.2,630.4z M413.84,609.03c-2.31,0.39-4.24,0.48-5.77,0.29
		c-0.39,0.19-2.02,1.73-4.91,4.62c-0.19,0.58-0.92,1.35-2.17,2.31c-1.25,0.97-1.98,1.83-2.17,2.6c2.12,1.54,4.52,1.25,7.22-0.87
		c1.34,0.19,2.79-0.09,4.33-0.87c1.54-0.77,2.79-1.15,3.75-1.15c0.38-0.19,0.91-0.72,1.59-1.59c0.67-0.87,1.2-1.39,1.59-1.59
		c0.58-0.19,1.2-0.48,1.88-0.87c0.67-0.38,0.91-0.96,0.72-1.73c-0.39-0.38-0.92-0.67-1.59-0.87c-0.68-0.19-1.49-0.29-2.45-0.29
		C414.89,609.03,414.22,609.03,413.84,609.03z"/>
	<path class="st0" d="M449.64,654.65c-1.35-1.35-2.12-2.22-2.31-2.6c0-0.97,0.24-1.78,0.72-2.45c0.48-0.68,1.15-1.3,2.02-1.88
		s1.49-1.06,1.88-1.44h1.15c0.38-0.19,0.91-0.48,1.59-0.87c0.67-0.38,1.2-0.67,1.59-0.87l1.44-1.44l1.15-0.58
		c0.19,0,0.43-0.14,0.72-0.43c0.29-0.29,0.53-0.43,0.72-0.43c0.19,0,0.53-0.04,1.01-0.14c0.48-0.09,0.82-0.24,1.01-0.43
		c1.34-0.96,2.12-1.44,2.31-1.44c3.65-0.58,5.58-0.96,5.77-1.16c1.15,0,1.92,0.1,2.31,0.29v1.73c0,0.77,0.96,0.77,2.89,0l2.6-0.87
		c0.38-0.58,1.06-1.2,2.02-1.88c0.96-0.67,1.54-1.11,1.73-1.3c0.77-0.38,1.34-0.67,1.73-0.87c0-0.58-0.39-1.06-1.15-1.44l-1.44-0.87
		c-0.39-0.19-1.06-0.38-2.02-0.58l-1.73-0.29c-0.39-0.38-1.15-0.77-2.31-1.15c-1.16-0.38-1.93-0.87-2.31-1.44
		c-0.39,0-2.12-1.06-5.2-3.18c0-0.77-0.48-1.34-1.44-1.73c-0.58-0.19-0.97-0.38-1.15-0.58c-0.19-0.19-0.53-0.62-1.01-1.3
		c-0.48-0.67-0.82-1.1-1.01-1.3c-1.93-3.08-0.87-6.45,3.18-10.11c0.38-0.58,1.06-1.25,2.02-2.02c0.96-0.77,1.54-1.34,1.73-1.73
		c1.92-0.77,3.65-1.92,5.2-3.46c0.58,0,0.96-0.09,1.15-0.29c2.5-1.92,3.85-2.98,4.04-3.18c0.77,0.19,1.68,0.1,2.74-0.29
		c1.06-0.38,1.68-0.58,1.88-0.58c1.54-1.92,2.79-3.27,3.75-4.04c1.92,0,3.37-0.48,4.33-1.44c2.12,0.58,3.46,1.73,4.04,3.46
		c-0.58,1.93-1.93,3.95-4.04,6.06c-0.39,0-1.15,0.19-2.31,0.58c-0.58,0.58-1.73,1.06-3.46,1.44c-0.39,0.19-0.97,0.68-1.73,1.44
		l-3.46,1.73h-1.73c-1.54,1.54-3.28,2.7-5.2,3.46c-0.39,0.39-0.77,0.87-1.16,1.44c-0.39,0.58-0.68,0.97-0.87,1.16
		c-0.19,0.19-0.53,0.48-1.01,0.87c-0.48,0.39-0.82,0.68-1.01,0.87c-0.77,1.16-0.77,2.31,0,3.46c0.58,0.58,1.54,1.25,2.89,2.02
		c1.34,0.77,2.21,1.35,2.6,1.73c1.34,0.19,3.22,0.77,5.63,1.73c2.4,0.96,4.38,1.54,5.92,1.73c0.19,0.39,0.67,0.87,1.44,1.44
		c0.77,0.58,1.25,1.06,1.44,1.44c0.96,2.12,0.67,4.43-0.87,6.93c-1.93,2.31-3.46,4.04-4.62,5.2c-0.77,0-1.44,0.19-2.02,0.58
		c-0.58,0.39-1.16,0.92-1.73,1.59c-0.58,0.68-1.06,1.11-1.44,1.3h-1.73c-0.77,0.77-2.02,1.68-3.75,2.74
		c-1.73,1.06-2.89,1.78-3.46,2.17c-1.35,0-2.31,0.09-2.89,0.29c-0.58,0.19-1.25,0.67-2.02,1.44c-0.58,0-1.64,0-3.18,0
		c-1.54,0-2.5,0.09-2.89,0.29c-0.39,0.19-0.77,0.48-1.16,0.87c-0.39,0.38-0.68,0.58-0.87,0.58H449.64z M469.27,643.97
		c0.77,0,1.06-0.19,0.87-0.58c-0.19-0.19-0.39-0.19-0.58,0C469.37,643.59,469.27,643.78,469.27,643.97z M471.29,642.24
		c0.19,0.39,0.38,0.39,0.58,0c0.19-0.38,0.09-0.58-0.29-0.58C471.39,641.85,471.29,642.05,471.29,642.24z"/>
</g>
</svg>
