<?xml version="1.0" encoding="utf-8"?>
<!-- Generator: Adobe Illustrator 23.0.3, SVG Export Plug-In . SVG Version: 6.00 Build 0)  -->
<svg version="1.1" id="Layer_1" xmlns="http://www.w3.org/2000/svg" xmlns:xlink="http://www.w3.org/1999/xlink" x="0px" y="0px"
	 viewBox="0 0 815.9 816" style="enable-background:new 0 0 815.9 816;" xml:space="preserve">
<style type="text/css">
	.st0{fill:#FFFDE0;}
	.st1{fill:#FFB116;}
</style>
<g>
	<path class="st0" d="M28,306.68c1.05-14.36,3.6-28.69,7.45-42.75c3.86-14.07,9.19-27.81,15.71-41.04
		c3.26-6.62,6.93-13.03,10.76-19.36c3.88-6.3,8.12-12.38,12.53-18.35c4.41-5.97,9.17-11.67,14.09-17.23
		c4.94-5.54,10.04-10.95,15.41-16.07c5.35-5.13,10.87-10.08,16.52-14.86c5.65-4.77,11.48-9.28,17.29-13.69l1.09-0.83
		c0.35-0.27,0.81-0.57,1.22-0.86l2.5-1.73l2.51-1.72l1.26-0.85l1.3-0.76l5.22-3.01c0.87-0.52,1.76-0.95,2.66-1.37l2.69-1.3
		c3.56-1.82,7.24-3.2,10.9-4.69c0.91-0.39,1.84-0.7,2.77-1.01l2.78-0.94l2.79-0.93l1.4-0.47l1.41-0.39
		c3.76-1.01,7.5-2.16,11.32-2.87c1.9-0.39,3.8-0.83,5.7-1.17l5.73-0.91l2.87-0.45l2.88-0.32l5.76-0.62
		c1.92-0.16,3.85-0.25,5.77-0.38c1.93-0.11,3.85-0.27,5.78-0.26c3.86-0.07,7.72-0.12,11.58,0.1c1.93,0.1,3.86,0.12,5.79,0.28
		l5.79,0.51c1.93,0.14,3.86,0.41,5.78,0.68c1.93,0.27,3.85,0.51,5.78,0.82l5.77,1.1c0.96,0.19,1.92,0.35,2.88,0.57l2.87,0.71
		c1.93,0.49,3.79,0.93,5.76,1.5c2.02,0.66,4.08,1.28,6.06,2.01c1.94,0.79,3.92,1.53,5.83,2.38c1.86,0.89,3.77,1.74,5.59,2.69
		c7.29,3.78,13.98,8.22,20.19,13.03c6.18,4.85,11.9,10.07,17.28,15.45c2.67,2.7,5.29,5.44,7.79,8.17l1.85,2.02
		c0.61,0.66,1.27,1.43,1.9,2.14c1.26,1.46,2.55,2.89,3.75,4.4c4.91,5.94,9.44,12.18,13.59,18.65c4.18,6.46,7.87,13.22,11.15,20.24
		c1.63,3.5,3.18,7.14,4.53,10.81c1.35,3.63,2.59,7.3,3.66,11.03c2.13,7.46,3.69,15.08,4.72,22.63c1.07,7.55,1.51,15.04,1.87,22.25
		c0.1,1.78,0.15,3.66,0.21,5.51l0.17,5.56c0.11,3.71-0.04,7.42-0.05,11.12c-0.16,3.7-0.29,7.4-0.53,11.08
		c-0.29,3.67-0.5,7.35-0.94,10.98c-0.75,7.29-1.74,14.46-2.67,21.5c-2,14.11-3.28,27.57-0.67,41.02l1.13,5.01
		c0.45,1.66,1.01,3.29,1.49,4.96c0.96,3.35,2.27,6.58,3.74,9.69c1.48,3.12,3.27,6.1,5.48,8.79c2.19,2.71,4.83,5.1,7.84,7.09
		c-3.37-1.26-6.61-3.09-9.46-5.45c-1.45-1.16-2.79-2.46-4.05-3.83c-1.28-1.36-2.45-2.82-3.56-4.32c-1.12-1.5-2.12-3.07-3.1-4.65
		c-0.98-1.58-1.87-3.2-2.7-4.86c-0.83-1.66-1.72-3.3-2.48-5l-2.11-5.22c-2.61-7.07-4.17-14.58-4.98-22.06
		c-0.82-7.5-0.81-14.91-0.8-22.13c0.17-14.47,0.33-28.37-0.7-42.19c-0.33-3.45-0.59-6.89-0.96-10.32l-0.61-5.14
		c-0.21-1.72-0.39-3.4-0.65-5.18c-0.96-7.04-2.02-13.79-3.39-20.34c-1.38-6.55-3.17-12.88-5.42-19.04
		c-1.13-3.08-2.32-6.14-3.65-9.14c-1.29-2.99-2.72-5.85-4.27-8.76c-6.26-11.56-13.93-22.55-22.73-32.38
		c-1.07-1.25-2.23-2.43-3.36-3.64l-1.71-1.83l-1.82-1.9c-2.4-2.5-4.78-4.86-7.2-7.2c-4.84-4.61-9.83-8.93-15-12.79
		c-5.15-3.89-10.46-7.35-15.9-10.1c-1.36-0.69-2.74-1.28-4.1-1.93c-1.37-0.6-2.75-1.08-4.12-1.64c-1.38-0.49-2.76-0.87-4.13-1.33
		c-1.46-0.42-3.1-0.76-4.63-1.17l-2.33-0.6c-0.78-0.19-1.59-0.32-2.38-0.49l-4.77-0.95c-1.6-0.27-3.23-0.48-4.84-0.72
		c-1.61-0.24-3.23-0.5-4.87-0.62l-4.9-0.47c-1.63-0.16-3.28-0.18-4.92-0.27c-1.64-0.05-3.28-0.22-4.93-0.18l-4.94-0.03
		c-13.2-0.05-26.36,1.77-39,4.83l-1.19,0.27l-1.16,0.34l-2.33,0.68l-2.33,0.68c-0.78,0.22-1.56,0.44-2.3,0.73
		c-3.01,1.1-6.09,2.08-8.95,3.43l-2.19,0.94c-0.73,0.31-1.47,0.62-2.15,1c-1.39,0.73-2.79,1.43-4.2,2.14l-1.06,0.53l-0.99,0.6
		l-1.98,1.21l-1.99,1.2c-0.34,0.21-0.65,0.37-1.02,0.63l-1.09,0.74c-5.83,3.91-11.52,7.9-17.1,11.99
		c-5.59,4.08-11.05,8.32-16.36,12.73c-21.26,17.58-40.26,37.93-55.66,61.16c-3.85,5.8-7.52,11.75-10.89,17.89
		c-1.77,3.03-3.32,6.18-4.96,9.29c-0.81,1.56-1.52,3.17-2.31,4.74c-0.76,1.59-1.58,3.16-2.27,4.78
		C37.15,279.52,32.21,292.91,28,306.68z"/>
</g>
<g>
	<path class="st0" d="M794,306.68c-4.25-13.82-9.25-27.25-15.18-40.14c-0.7-1.63-1.54-3.19-2.3-4.79c-0.8-1.58-1.51-3.19-2.35-4.75
		c-1.65-3.13-3.23-6.27-5.02-9.31c-3.42-6.15-7.13-12.11-11.04-17.91c-15.59-23.25-34.82-43.57-56.28-61.1
		c-5.36-4.4-10.87-8.62-16.51-12.69c-5.64-4.08-11.37-8.06-17.25-11.96l-1.1-0.73l-1.02-0.61l-2.01-1.2
		c-1.36-0.78-2.61-1.67-4.08-2.33c-1.42-0.71-2.83-1.41-4.23-2.13c-0.68-0.38-1.44-0.68-2.17-0.99l-2.21-0.94
		c-2.89-1.35-6-2.32-9.03-3.42c-0.75-0.29-1.54-0.51-2.32-0.73l-2.35-0.67l-2.35-0.68l-1.17-0.34l-1.2-0.27
		c-12.72-3.06-25.97-4.85-39.25-4.84c-3.32,0.07-6.64-0.04-9.94,0.2c-1.65,0.09-3.31,0.13-4.96,0.26l-4.93,0.47l-2.46,0.24
		l-2.44,0.36l-4.88,0.7l-4.8,0.94l-2.4,0.47c-0.79,0.18-1.57,0.39-2.35,0.59l-4.71,1.15l-4.19,1.3l-4.16,1.61l-4.14,1.89
		c-5.5,2.7-10.87,6.13-16.08,9.98c-5.23,3.83-10.28,8.12-15.18,12.71c-2.45,2.31-4.86,4.67-7.28,7.15c-1.18,1.2-2.52,2.57-3.6,3.73
		c-1.13,1.21-2.31,2.38-3.41,3.62c-8.94,9.79-16.72,20.77-23.14,32.32c-1.59,2.9-3.05,5.8-4.37,8.75c-1.32,3.02-2.6,6.06-3.73,9.16
		c-2.32,6.17-4.15,12.51-5.56,19.07c-1.41,6.56-2.49,13.34-3.47,20.38c-0.26,1.78-0.47,3.51-0.67,5.22l-0.62,5.16
		c-0.23,1.72-0.35,3.45-0.51,5.17l-0.47,5.19c-1.07,13.87-0.89,27.83-0.71,42.35c0.02,7.25,0.04,14.69-0.78,22.23
		c-0.8,7.52-2.36,15.07-5.01,22.17l-2.14,5.24c-0.77,1.71-1.67,3.36-2.51,5.02c-0.83,1.67-1.73,3.29-2.73,4.87
		c-0.99,1.58-2,3.16-3.13,4.66c-1.12,1.5-2.31,2.96-3.6,4.32c-1.27,1.37-2.63,2.67-4.09,3.82c-2.88,2.36-6.15,4.18-9.53,5.43
		c3.02-1.99,5.7-4.36,7.92-7.08c2.24-2.69,4.05-5.67,5.56-8.79c1.5-3.12,2.83-6.36,3.81-9.71c0.49-1.67,1.07-3.31,1.52-4.97
		l1.15-5.03c2.67-13.5,1.35-27.02-0.66-41.19c-0.93-7.08-1.94-14.27-2.68-21.6c-0.44-3.64-0.64-7.35-0.94-11.04
		c-0.21-3.7-0.38-7.41-0.51-11.13l-0.06-5.59c-0.02-1.86-0.05-3.73,0.04-5.59l0.18-5.59c0.06-1.87,0.12-3.73,0.22-5.52
		c0.38-7.26,0.84-14.78,1.97-22.38c1.07-7.59,2.69-15.25,4.9-22.72c1.07-3.75,2.41-7.41,3.76-11.05c1.41-3.69,2.99-7.31,4.66-10.81
		c3.36-7.02,7.13-13.77,11.39-20.22c4.23-6.47,8.84-12.68,13.83-18.6c1.23-1.5,2.54-2.92,3.81-4.38l0.96-1.09l0.93-1.01l1.88-2.03
		c2.53-2.72,5.18-5.46,7.9-8.15c5.46-5.37,11.25-10.56,17.51-15.37c6.28-4.78,13.04-9.17,20.41-12.88l5.64-2.64
		c1.95-0.78,3.91-1.57,5.87-2.32c2.03-0.66,4.07-1.32,6.09-1.95l5.75-1.45c30.74-6.97,62.17-6.11,92.33,2.35l1.41,0.39l1.4,0.46
		l2.8,0.93l2.8,0.93c0.93,0.31,1.86,0.61,2.78,1c3.67,1.48,7.37,2.84,10.95,4.65l2.7,1.29c0.9,0.43,1.8,0.84,2.67,1.36l5.25,3
		c1.77,0.94,3.41,2.19,5.11,3.3l2.52,1.72l1.24,0.86l1.1,0.82c5.86,4.39,11.74,8.89,17.44,13.64c5.7,4.76,11.27,9.69,16.68,14.81
		c5.42,5.11,10.58,10.5,15.58,16.03c4.98,5.55,9.8,11.24,14.26,17.21c4.46,5.97,8.77,12.04,12.7,18.35c1,1.57,1.92,3.18,2.89,4.77
		l1.43,2.39l1.36,2.43c0.9,1.62,1.83,3.23,2.7,4.86l2.55,4.94c6.64,13.24,12.05,27.03,16,41.13
		C790.3,277.87,792.91,292.26,794,306.68z"/>
</g>
<g>
	<path class="st0" d="M133.5,649.5c11.11-27.77,25.57-54.38,43.25-78.94c8.85-12.26,18.49-24.02,28.92-35.12l8.03-8.13l2.02-2.02
		l2.1-1.94l4.21-3.88l4.21-3.88l4.38-3.69l4.39-3.69l2.21-1.84c0.73-0.61,1.52-1.16,2.28-1.75c24.05-19,51.32-34.14,80.36-44.59
		c14.51-5.25,29.5-9.23,44.71-12.05c15.22-2.75,30.69-4.27,46.18-4.44c15.49-0.1,31,1.09,46.29,3.58
		c15.27,2.57,30.35,6.36,44.94,11.49c14.58,5.14,28.75,11.44,42.2,18.98c13.47,7.49,26.31,16.06,38.24,25.69
		c1.5,1.19,3.05,2.32,4.5,3.57l4.35,3.76c2.87,2.53,5.84,4.95,8.55,7.64c2.76,2.64,5.56,5.24,8.28,7.92l7.91,8.26
		c10.33,11.2,19.83,23.08,28.52,35.46c17.34,24.81,31.36,51.68,41.97,79.64c-7.38-13.01-15.18-25.71-23.49-37.99
		c-8.33-12.27-17.2-24.11-26.68-35.37c-9.46-11.28-19.52-21.97-30.13-32.02c-10.6-10.06-21.96-19.21-33.72-27.68
		c-23.55-16.92-49.52-30.17-76.86-38.97c-13.67-4.4-27.65-7.76-41.83-9.88c-14.16-2.2-28.5-3.22-42.83-3.07
		c-57.38,0.55-114.3,19.75-161.64,53.29c-0.74,0.52-1.51,1-2.24,1.55L244.9,521l-4.37,3.26l-4.38,3.26l-4.23,3.45l-4.23,3.46
		l-2.12,1.73l-2.05,1.81l-8.21,7.25c-10.7,9.96-20.9,20.54-30.51,31.69c-9.64,11.14-18.68,22.85-27.2,34.99
		C149.1,624.05,141.1,636.62,133.5,649.5z"/>
</g>
<path class="st0" d="M212.9,70.1c10.8-5.9,21.9-11.2,33.2-16.1c8.9-3.8,18.1-7.4,27.4-10.6C315.3,28.9,360.2,21,407,21
	c65.6,0,127.7,15.5,182.5,43c130.2,65.3,220.6,198.1,225.2,352.5c0.02,0.83,0.04,1.64,0.05,2.47c0.01-0.46,0.04-0.91,0.05-1.37
	c0.1-3.2,0.1-6.4,0.1-9.6c0-4.2-0.1-8.3-0.2-12.5c-4.6-154.4-95-287.2-225.2-352.5C534.7,15.5,472.6,0,407,0
	c-46.8,0-91.7,7.9-133.5,22.4c-9.3,3.2-18.5,6.8-27.4,10.6c-11.3,4.9-22.4,10.2-33.2,16.1C88.9,116.2,3.7,245.7-0.8,395.5
	C-0.9,399.7-1,403.8-1,408c0,3.55,0.06,7.09,0.15,10.62c0.02-0.71,0.03-1.41,0.05-2.12C3.7,266.7,88.9,137.2,212.9,70.1z"/>
<path class="st0" d="M404.69,75.38c33.07,0,60.93,25.24,69.34,59.62c-8.42-59.33-36.27-102.89-69.34-102.89S343.76,75.67,335.35,135
	C343.76,100.62,371.62,75.38,404.69,75.38z"/>
<path class="st0" d="M441.66,72.44c33.07,0,60.93,31.14,69.34,73.56c-8.42-73.2-36.27-126.94-69.34-126.94S380.73,72.8,372.31,146
	C380.73,103.58,408.58,72.44,441.66,72.44z"/>
<path class="st0" d="M372.34,72.44c33.07,0,60.93,31.14,69.34,73.56c-8.42-73.2-36.27-126.94-69.34-126.94S311.42,72.8,303,146
	C311.42,103.58,339.27,72.44,372.34,72.44z"/>
<path class="st0" d="M404.69,60.27c33.07,0,60.93,25.24,69.34,59.62C465.62,60.56,437.76,17,404.69,17s-60.93,43.56-69.34,102.89
	C343.76,85.51,371.62,60.27,404.69,60.27z"/>
<path class="st0" d="M261.2,93.78c5.51,3.33,17.25-5.62,28.32-20.77c-18.08,26.77-34.97,44.24-40.48,40.92
	c-5.51-3.33,2.09-26.41,17.37-54.87C258.14,75.9,255.69,90.45,261.2,93.78z"/>
<path class="st0" d="M561.56,96.78c-5.51,3.33-17.25-5.62-28.32-20.77c18.08,26.77,34.97,44.24,40.48,40.92
	c5.51-3.33-2.09-26.41-17.37-54.87C564.62,78.9,567.07,93.45,561.56,96.78z"/>
<g>
	<circle class="st1" cx="409.5" cy="591.5" r="102.5"/>
	<circle cx="409.5" cy="591.5" r="62.6"/>
</g>
<polygon points="274.76,431.09 225.48,393.21 277.97,369.02 "/>
<polygon points="143.69,188.02 192.97,225.91 140.48,250.09 "/>
<g>
	<circle class="st1" cx="202.5" cy="311" r="102.5"/>
	<circle cx="202.5" cy="311" r="62.6"/>
</g>
<polygon points="555.69,432.09 604.97,394.21 552.48,370.02 "/>
<polygon points="686.76,189.02 637.48,226.91 689.97,251.09 "/>
<g>
	<circle class="st1" cx="625.5" cy="311" r="102.5"/>
	<circle cx="625.5" cy="311" r="62.6"/>
</g>
</svg>
