<?xml version="1.0" encoding="utf-8"?>
<!-- Generator: Adobe Illustrator 23.0.3, SVG Export Plug-In . SVG Version: 6.00 Build 0)  -->
<svg version="1.1" id="Layer_1" xmlns="http://www.w3.org/2000/svg" xmlns:xlink="http://www.w3.org/1999/xlink" x="0px" y="0px"
	 viewBox="0 0 816 816" style="enable-background:new 0 0 816 816;" xml:space="preserve">
<style type="text/css">
	.st0{fill:#2E76CC;}
	.st1{fill:#FF0E00;}
</style>
<g>
	<path class="st0" d="M815.5,358.3c-2.2,45.9-12,89.7-28.1,130.4c-80.7,111.6-213.5,184.4-363.7,184.4
		c-190.7,0-353.4-117.4-416.9-282.3c-1.4-10.6-2.3-21.4-2.9-32.3c-0.1,2.6-0.2,5.2-0.3,7.7c-0.1,4.1-0.2,8.3-0.2,12.5
		c0,17.9,1.2,35.5,3.4,52.8c63.5,165,226.2,282.3,416.9,282.3c150.2,0,283.1-72.8,363.7-184.4c17.4-43.8,27.4-91.4,28.5-141.1
		c0.1-3.2,0.1-6.4,0.1-9.6c0-4.2-0.1-8.3-0.2-12.5C815.7,363.5,815.6,360.9,815.5,358.3z"/>
	<ellipse class="st0" cx="394.5" cy="52" rx="51.5" ry="37.6"/>
	<path class="st0" d="M401.5,116.7v175.5c52-0.3,100.1-10.6,139.2-27.9l-99.5-157.8C429.8,111.9,416.2,115.5,401.5,116.7z"/>
	<path class="st0" d="M305.3,64.6L186.9,81.1c-17,19.9-26.6,42.5-26.6,66.4c0,38.7,25.2,73.9,66.2,99.9l96.2-152.7
		C312.8,86.2,306.5,75.9,305.3,64.6z"/>
	<path class="st0" d="M340.2,106.1l-95.6,151.7c37.2,19.1,84.2,31.5,135.8,33.9V116.7C365.6,115.5,351.8,111.7,340.2,106.1z"/>
	<path class="st0" d="M459,95.3L559.6,255c48.6-26.5,79.1-64.8,79.1-107.5c0-21.2-7.6-41.4-21.1-59.6L476.4,68.3
		C474.3,78.4,468.1,87.6,459,95.3z"/>
	<path class="st0" d="M391.1,3.5c40.5,0,74.5,18.4,83.7,43.3l119.5,16.7C550.9,26.8,479.8,2.8,399.5,2.8
		c-74.8,0-141.6,20.8-185.5,53.3l95.2-13.3C320.3,20,352.8,3.5,391.1,3.5z"/>
	<path class="st0" d="M269.1,320.5l-33.7,179.2c51.4,25.9,112.6,41,178.3,41c57.8,0,112-11.6,159.2-32l-36-186.4
		c-40.2,13.7-84.7,21.3-131.4,21.3C356.9,343.5,310.7,335.3,269.1,320.5z"/>
	<path class="st0" d="M88,342.7v141.4c17.7,21.3,37.6,41,59.3,58.5V401.3C125.6,383.7,105.7,364.1,88,342.7z"/>
	<path class="st0" d="M280.6,540.6v82.9c23,4.6,47,8.1,71.6,10.3V551C327.6,548.7,303.6,545.2,280.6,540.6z"/>
	<path class="st0" d="M544.9,547.3c-20.9,3.6-42.5,6.3-64.6,8c-10.4,0.2-20.9,0.4-31.5,0.4c-20.2,0-40.2-0.5-59.9-1.3v83.2
		c19.7,0.9,39.7,1.3,59.9,1.3c8.2,0,16.3-0.1,24.5-0.2v0.2c1.3-0.1,2.6-0.2,3.9-0.3c2.7-0.1,5.4-0.1,8.1-0.2v-0.5
		c20.4-1.7,40.3-4.3,59.6-7.6V547.3z"/>
	<path class="st0" d="M678.5,423.4v141.4c21.5-17.7,41.3-38.2,59-61V362.4C719.8,385.2,700,405.7,678.5,423.4z"/>
	<path class="st0" d="M762.2,335v141.4c3.3-4.2,6.5-8.4,9.6-12.7c16.7-42,26.4-87.6,27.5-135.4c0.1-3.1,0.1-6.1,0.1-9.2
		c0-4-0.1-8-0.2-12c-0.2-6.3-0.5-12.5-1-18.7c-2.5-8.3-5.3-16.4-8.3-24.5c-4.5,20.1-10.6,39.5-18,58.3
		C768.7,326.6,765.5,330.8,762.2,335z"/>
	<path class="st0" d="M16.6,317.8c0,17.2,1.1,34.1,3.2,50.6c11.3,29.3,25.9,57.1,43.4,82.8V309.8c-12.3-18.2-23.2-37.3-32.5-57.3
		c-4.9,11.9-9.3,24-13,36.4c-0.4,5.6-0.7,11.3-0.9,17C16.7,309.9,16.6,313.8,16.6,317.8z"/>
	<circle cx="395.3" cy="442.7" r="88.7"/>
	<circle cx="607" cy="564.8" r="34.6"/>
	<circle class="st1" cx="466.9" cy="597.6" r="28.7"/>
</g>
</svg>
