<?xml version="1.0" encoding="utf-8"?>
<!-- Generator: Adobe Illustrator 23.0.3, SVG Export Plug-In . SVG Version: 6.00 Build 0)  -->
<svg version="1.1" id="Layer_1" xmlns="http://www.w3.org/2000/svg" xmlns:xlink="http://www.w3.org/1999/xlink" x="0px" y="0px"
	 viewBox="0 0 815.9 816" style="enable-background:new 0 0 815.9 816;" xml:space="preserve">
<style type="text/css">
	.st0{fill:#FFFFFF;}
	.st1{fill:#A7ACAF;}
	.st2{fill:#B58016;}
</style>
<g>
	<path class="st0" d="M298.75,477c-0.2,0-0.4,0-0.61,0c-94.53,0-171.17-109.24-171.17-244c0-38.71,6.33-75.31,17.59-107.83
		c-18.11,9.22-34.8,22.67-49.5,39.51c11.1,9.04,16.99,16.67,14.92,20.61c-2.27,4.31-13.61,3.25-29.48-1.9
		c-5.18,7.45-10.02,15.38-14.49,23.73c18.92,6.93,30.83,14.43,29.67,19.76c-1.27,5.87-18,7.56-41.38,5.12
		c-3.96,9.65-7.46,19.72-10.48,30.15c23.19-2.23,39.73-0.42,40.96,5.43c1.46,6.92-18.98,17.3-48.2,25.36
		c-2.45,13.33-4.13,27.12-4.97,41.24c28.74-20.45,54.28-31.69,59.01-25.45c5.17,6.82-16.51,31.96-48.43,56.13
		c-3.62,2.74-7.21,5.35-10.75,7.81c0.77,15.27,2.52,30.14,5.17,44.5c3.27-3.32,6.72-6.67,10.32-10.03
		c29.31-27.28,57.79-44.32,63.63-38.05c5.83,6.27-13.2,33.46-42.51,60.74c-8.1,7.54-16.14,14.29-23.65,19.99
		c3.55,11.98,7.76,23.46,12.55,34.38c1.5-1.55,3.02-3.11,4.58-4.67c28.31-28.31,56.17-46.36,62.23-40.31s-11.99,33.91-40.31,62.23
		c-3.98,3.98-7.96,7.76-11.86,11.29c6.09,10.24,12.77,19.75,19.95,28.43c3.67-6.02,7.8-12.29,12.31-18.65
		c23.16-32.66,47.6-55.12,54.59-50.17s-6.14,35.44-29.3,68.1c-5.71,8.05-11.49,15.47-17.07,22.02c7.03,6.22,14.4,11.72,22.06,16.46
		c4.46-7.73,9.76-16,15.73-24.41c23.16-32.66,47.6-55.12,54.59-50.17s-6.14,35.44-29.3,68.1c-4.91,6.92-9.87,13.37-14.71,19.21
		c10.38,3.71,21.14,6.07,32.18,6.93c4.76-8.48,10.59-17.69,17.25-27.08c23.16-32.66,47.6-55.12,54.59-50.17s-6.14,35.44-29.3,68.1
		c-1.49,2.1-2.98,4.15-4.47,6.16c33.63-8.04,63.94-30.05,87.88-61.72C334.9,512.27,322.57,476.88,298.75,477z"/>
	<path class="st1" d="M264.44,521.36c-6.98-4.95-31.42,17.51-54.59,50.17c-6.66,9.39-12.49,18.6-17.25,27.08
		c3.16,0.25,6.35,0.39,9.56,0.39c9.71,0,19.23-1.16,28.5-3.37c1.49-2.01,2.99-4.06,4.47-6.16
		C258.31,556.81,271.42,526.32,264.44,521.36z"/>
	<path class="st1" d="M204.44,504.36c-6.98-4.95-31.42,17.51-54.59,50.17c-5.97,8.42-11.26,16.68-15.73,24.41
		c8.44,5.22,17.22,9.49,26.3,12.73c4.84-5.84,9.81-12.29,14.71-19.21C198.31,539.81,211.42,509.32,204.44,504.36z"/>
	<path class="st1" d="M158.44,472.36c-6.98-4.95-31.42,17.51-54.59,50.17c-4.51,6.36-8.63,12.63-12.31,18.65
		c6.45,7.79,13.31,14.92,20.52,21.3c5.58-6.55,11.36-13.97,17.07-22.02C152.31,507.81,165.42,477.32,158.44,472.36z"/>
	<path class="st1" d="M123.77,439.23c-6.05-6.05-33.91,11.99-62.23,40.31c-1.56,1.56-3.08,3.12-4.58,4.67
		c4.4,10.03,9.29,19.56,14.64,28.54c3.91-3.54,7.88-7.31,11.86-11.29C111.77,473.15,129.82,445.29,123.77,439.23z"/>
	<path class="st1" d="M110.57,369.1c-5.83-6.27-34.32,10.77-63.63,38.05c-3.61,3.36-7.05,6.71-10.32,10.03
		c2.07,11.22,4.68,22.13,7.79,32.66c7.51-5.7,15.55-12.45,23.65-19.99C97.37,402.56,116.4,375.37,110.57,369.1z"/>
	<path class="st1" d="M90.63,308.73c-4.73-6.24-30.27,5-59.01,25.45C31.21,341.04,31,347.99,31,355c0,5.95,0.16,11.84,0.45,17.68
		c3.54-2.47,7.13-5.07,10.75-7.81C74.12,340.69,95.8,315.55,90.63,308.73z"/>
	<path class="st1" d="M84.79,267.58c-1.23-5.84-17.77-7.66-40.96-5.43c-2.87,9.95-5.3,20.22-7.24,30.78
		C65.81,284.89,86.24,274.5,84.79,267.58z"/>
	<path class="st1" d="M95.69,226.89c1.16-5.34-10.75-12.83-29.67-19.76c-4.25,7.93-8.16,16.24-11.71,24.89
		C77.69,234.45,94.42,232.76,95.69,226.89z"/>
	<path class="st1" d="M109.99,185.29c2.07-3.93-3.82-11.57-14.92-20.61c-5.1,5.84-9.96,12.09-14.56,18.71
		C96.38,188.54,107.72,189.6,109.99,185.29z"/>
</g>
<g>
	<path class="st0" d="M517.25,477c0.2,0,0.4,0,0.61,0c94.53,0,171.17-109.24,171.17-244c0-38.71-6.33-75.31-17.59-107.83
		c18.11,9.22,34.8,22.67,49.5,39.51c-11.1,9.04-16.99,16.67-14.92,20.61c2.27,4.31,13.61,3.25,29.48-1.9
		c5.18,7.45,10.02,15.38,14.49,23.73c-18.92,6.93-30.83,14.43-29.67,19.76c1.27,5.87,18,7.56,41.38,5.12
		c3.96,9.65,7.46,19.72,10.48,30.15c-23.19-2.23-39.73-0.42-40.96,5.43c-1.46,6.92,18.98,17.3,48.2,25.36
		c2.45,13.33,4.13,27.12,4.97,41.24c-28.74-20.45-54.28-31.69-59.01-25.45c-5.17,6.82,16.51,31.96,48.43,56.13
		c3.62,2.74,7.21,5.35,10.75,7.81c-0.77,15.27-2.52,30.14-5.17,44.5c-3.27-3.32-6.72-6.67-10.32-10.03
		c-29.31-27.28-57.79-44.32-63.63-38.05c-5.83,6.27,13.2,33.46,42.51,60.74c8.1,7.54,16.14,14.29,23.65,19.99
		c-3.55,11.98-7.76,23.46-12.55,34.38c-1.5-1.55-3.02-3.11-4.58-4.67c-28.31-28.31-56.17-46.36-62.23-40.31s11.99,33.91,40.31,62.23
		c3.98,3.98,7.96,7.76,11.86,11.29c-6.09,10.24-12.77,19.75-19.95,28.43c-3.67-6.02-7.8-12.29-12.31-18.65
		c-23.16-32.66-47.6-55.12-54.59-50.17s6.14,35.44,29.3,68.1c5.71,8.05,11.49,15.47,17.07,22.02c-7.03,6.22-14.4,11.72-22.06,16.46
		c-4.46-7.73-9.76-16-15.73-24.41c-23.16-32.66-47.6-55.12-54.59-50.17s6.14,35.44,29.3,68.1c4.91,6.92,9.87,13.37,14.71,19.21
		c-10.38,3.71-21.14,6.07-32.18,6.93c-4.76-8.48-10.59-17.69-17.25-27.08c-23.16-32.66-47.6-55.12-54.59-50.17s6.14,35.44,29.3,68.1
		c1.49,2.1,2.98,4.15,4.47,6.16c-33.63-8.04-63.94-30.05-87.88-61.72C481.1,512.27,493.43,476.88,517.25,477z"/>
	<path class="st1" d="M551.56,521.36c6.98-4.95,31.42,17.51,54.59,50.17c6.66,9.39,12.49,18.6,17.25,27.08
		c-3.16,0.25-6.35,0.39-9.56,0.39c-9.71,0-19.23-1.16-28.5-3.37c-1.49-2.01-2.99-4.06-4.47-6.16
		C557.69,556.81,544.58,526.32,551.56,521.36z"/>
	<path class="st1" d="M611.56,504.36c6.98-4.95,31.42,17.51,54.59,50.17c5.97,8.42,11.26,16.68,15.73,24.41
		c-8.44,5.22-17.22,9.49-26.3,12.73c-4.84-5.84-9.81-12.29-14.71-19.21C617.69,539.81,604.58,509.32,611.56,504.36z"/>
	<path class="st1" d="M657.56,472.36c6.98-4.95,31.42,17.51,54.59,50.17c4.51,6.36,8.63,12.63,12.31,18.65
		c-6.45,7.79-13.31,14.92-20.52,21.3c-5.58-6.55-11.36-13.97-17.07-22.02C663.69,507.81,650.58,477.32,657.56,472.36z"/>
	<path class="st1" d="M692.23,439.23c6.05-6.05,33.91,11.99,62.23,40.31c1.56,1.56,3.08,3.12,4.58,4.67
		c-4.4,10.03-9.29,19.56-14.64,28.54c-3.91-3.54-7.88-7.31-11.86-11.29C704.23,473.15,686.18,445.29,692.23,439.23z"/>
	<path class="st1" d="M705.43,369.1c5.83-6.27,34.32,10.77,63.63,38.05c3.61,3.36,7.05,6.71,10.32,10.03
		c-2.07,11.22-4.68,22.13-7.79,32.66c-7.51-5.7-15.55-12.45-23.65-19.99C718.63,402.56,699.6,375.37,705.43,369.1z"/>
	<path class="st1" d="M725.37,308.73c4.73-6.24,30.27,5,59.01,25.45c0.41,6.86,0.62,13.81,0.62,20.82c0,5.95-0.16,11.84-0.45,17.68
		c-3.54-2.47-7.13-5.07-10.75-7.81C741.88,340.69,720.2,315.55,725.37,308.73z"/>
	<path class="st1" d="M731.21,267.58c1.23-5.84,17.77-7.66,40.96-5.43c2.87,9.95,5.3,20.22,7.24,30.78
		C750.19,284.89,729.76,274.5,731.21,267.58z"/>
	<path class="st1" d="M720.31,226.89c-1.16-5.34,10.75-12.83,29.67-19.76c4.25,7.93,8.16,16.24,11.71,24.89
		C738.31,234.45,721.58,232.76,720.31,226.89z"/>
	<path class="st1" d="M706.01,185.29c-2.07-3.93,3.82-11.57,14.92-20.61c5.1,5.84,9.96,12.09,14.56,18.71
		C719.62,188.54,708.28,189.6,706.01,185.29z"/>
</g>
<g>
	<path class="st2" d="M100.81,570.57c0.21,7.23,0.71,14.41,1.87,21.42c1.11,7,2.74,13.88,5.32,20.25
		c2.58,6.35,5.91,12.25,10.17,17.13c4.23,4.91,9.4,8.71,15.03,11.32c2.81,1.31,5.61,2.69,8.59,3.75c2.98,1.06,6.13,1.72,9.32,2.19
		c6.4,0.91,13.04,0.83,19.63-0.01c6.6-0.85,13.16-2.46,19.49-4.71c3.17-1.13,6.28-2.41,9.32-3.85l4.6-2.29
		c1.53-0.8,3.04-1.64,4.55-2.46c12.09-6.76,23.6-15.08,35.52-23.31c5.96-4.12,12.04-8.22,18.36-12.07c3.16-1.93,6.38-3.8,9.68-5.57
		c3.27-1.79,6.76-3.47,10.24-4.99c7-3.04,14.32-5.43,21.94-6.94c7.61-1.5,15.53-2.13,23.54-1.35c7.99,0.73,16.06,3.15,23.22,7.31
		c7.16,4.13,13.33,9.95,17.94,16.63c4.66,6.68,7.81,14.1,9.92,21.61c2.11,7.52,3.23,15.16,3.68,22.76
		c0.44,7.62,0.19,15.16-0.58,22.72c-0.84,7.57-2.32,15.11-4.73,22.49c-2.39,7.37-5.73,14.63-10.54,21.24
		c-2.43,3.28-5.24,6.38-8.47,9.11c-3.25,2.7-6.92,5.01-10.86,6.73c-3.93,1.68-8.17,2.8-12.44,3.25c-4.26,0.45-8.53,0.26-12.66-0.44
		c-8.25-1.42-15.91-4.79-22.59-9.49c-6.7-4.75-12.16-10.68-16.67-17.09c-4.5-6.42-8.04-13.29-10.97-20.26
		c-1.44-3.44-2.87-7.14-3.91-11.08c-1.04-3.94-1.78-8.19-1.56-12.79c0.16-4.57,1.54-9.54,4.35-13.76c0.66-1.09,1.5-2.06,2.31-3.04
		c0.41-0.49,0.88-0.9,1.33-1.35c0.47-0.42,0.91-0.89,1.42-1.24l1.51-1.1c0.5-0.37,1.05-0.63,1.58-0.94
		c1.06-0.64,2.19-1.04,3.29-1.49c9.02-3.04,18.17-1.89,25.93,2.1c3.68,2,6.97,4.5,9.77,7.3c2.82,2.79,5.23,5.83,7.34,8.96
		c2.12,3.13,3.99,6.34,5.73,9.56c0.42,0.79,0.9,1.64,1.32,2.54c0.42,0.9,0.81,1.83,1.14,2.8c0.64,1.92,1.1,4.16,0.55,6.53
		c-0.28,1.17-0.87,2.3-1.67,3.17c-0.81,0.82-1.77,1.6-2.94,1.92c-0.56,0.23-1.15,0.24-1.72,0.3c-0.56-0.02-1.12-0.04-1.63-0.16
		c-0.51-0.12-1.03-0.24-1.48-0.45c-0.48-0.17-0.92-0.39-1.35-0.64c-3.38-1.94-5.82-4.82-7.62-7.95c1.17,1.38,2.49,2.6,3.92,3.64
		c1.42,1.05,2.95,1.94,4.52,2.46c1.55,0.52,3.21,0.66,4.26,0c0.56-0.25,0.94-0.78,1.31-1.29c0.32-0.54,0.47-1.1,0.5-1.71
		c0.05-1.2-0.4-2.61-1.14-3.98c-0.37-0.68-0.79-1.36-1.25-2.03c-0.46-0.66-0.98-1.31-1.53-2.03c-2.18-2.81-4.42-5.51-6.79-8
		c-2.36-2.5-4.87-4.75-7.48-6.68c-2.61-1.93-5.4-3.41-8.24-4.44c-2.69-0.92-5.59-1.27-8.4-1.12c-2.8,0.21-5.51,0.92-7.66,2.11
		c-0.52,0.31-1.07,0.58-1.53,0.92c-0.51,0.29-0.93,0.64-1.38,0.96c-0.25,0.14-0.42,0.34-0.62,0.51c-0.19,0.18-0.44,0.32-0.6,0.52
		c-0.34,0.4-0.76,0.74-1.02,1.2c-0.65,0.81-1.12,1.87-1.45,2.95c-0.35,1.09-0.55,2.29-0.59,3.6c-0.14,2.59,0.3,5.53,1.11,8.53
		c0.79,3.03,1.95,6.05,3.28,9.25c2.64,6.28,5.75,12.27,9.52,17.63c3.75,5.35,8.23,10.12,13.29,13.7c5.07,3.58,10.92,6.11,16.86,7.12
		c2.97,0.5,5.95,0.63,8.84,0.32c2.88-0.3,5.67-1.04,8.36-2.18c2.66-1.16,5.14-2.72,7.42-4.61c2.27-1.92,4.33-4.17,6.18-6.67
		c3.67-5.03,6.47-10.99,8.51-17.29c2.06-6.3,3.38-12.96,4.13-19.68c0.68-6.75,0.91-13.63,0.52-20.38
		c-0.39-6.75-1.39-13.43-3.17-19.76c-1.77-6.33-4.37-12.33-7.96-17.45c-3.57-5.14-8.12-9.4-13.42-12.47
		c-5.29-3.07-11.3-4.93-17.64-5.51c-6.32-0.62-12.89-0.14-19.39,1.15c-6.5,1.28-12.94,3.37-19.13,6.06
		c-3.11,1.36-6.12,2.8-9.16,4.46c-3.04,1.62-6.04,3.37-9.02,5.19c-5.96,3.64-11.82,7.58-17.7,11.64
		c-11.75,8.11-23.6,16.71-36.64,24.01c-1.65,0.89-3.28,1.8-4.94,2.67l-5.06,2.52c-3.47,1.64-7.01,3.1-10.62,4.39
		c-7.22,2.56-14.71,4.41-22.39,5.4c-7.67,0.98-15.54,1.1-23.4-0.01c-3.93-0.55-7.83-1.47-11.69-2.63c-3.86-1.15-7.7-2.64-11.16-4.84
		c-6.91-4.42-12.76-10.37-17.02-17.08c-4.23-6.75-7.03-14.09-8.63-21.49C97.48,599.61,98.35,584.78,100.81,570.57z"/>
</g>
<g>
	<path class="st2" d="M717.51,570.57c2.47,14.21,3.33,29.04,0.17,43.89c-1.59,7.4-4.4,14.74-8.63,21.49
		c-4.26,6.71-10.11,12.66-17.02,17.08c-3.46,2.21-7.3,3.69-11.16,4.84c-3.86,1.16-7.76,2.08-11.69,2.63
		c-7.86,1.12-15.73,1-23.4,0.01c-7.67-0.99-15.16-2.84-22.39-5.4c-3.61-1.28-7.16-2.75-10.62-4.39l-5.06-2.52
		c-1.66-0.87-3.29-1.78-4.94-2.67c-13.04-7.3-24.89-15.9-36.64-24.01c-5.88-4.06-11.74-8.01-17.7-11.64
		c-2.98-1.82-5.98-3.57-9.02-5.19c-3.03-1.66-6.05-3.1-9.16-4.46c-6.2-2.69-12.63-4.78-19.13-6.06c-6.49-1.29-13.06-1.77-19.39-1.15
		c-6.34,0.57-12.35,2.44-17.64,5.51c-5.3,3.07-9.86,7.33-13.42,12.47c-3.6,5.13-6.19,11.12-7.96,17.45
		c-1.78,6.34-2.78,13.01-3.17,19.76c-0.4,6.75-0.16,13.63,0.52,20.38c0.75,6.72,2.07,13.38,4.13,19.68
		c2.04,6.3,4.84,12.25,8.51,17.29c1.85,2.49,3.92,4.75,6.18,6.67c2.29,1.89,4.77,3.44,7.42,4.61c2.69,1.14,5.47,1.87,8.36,2.18
		c2.89,0.31,5.87,0.18,8.84-0.32c5.94-1.01,11.79-3.54,16.86-7.12c5.06-3.58,9.54-8.35,13.29-13.7c3.77-5.37,6.88-11.35,9.52-17.63
		c1.34-3.2,2.49-6.22,3.28-9.25c0.8-3,1.24-5.94,1.11-8.54c-0.05-1.31-0.25-2.51-0.59-3.6c-0.33-1.08-0.79-2.14-1.45-2.95
		c-0.26-0.46-0.68-0.8-1.02-1.2c-0.17-0.2-0.41-0.34-0.6-0.52c-0.21-0.17-0.37-0.38-0.62-0.51c-0.45-0.32-0.87-0.67-1.38-0.96
		c-0.46-0.33-1-0.61-1.53-0.92c-2.15-1.19-4.86-1.9-7.66-2.11c-2.81-0.15-5.71,0.21-8.4,1.12c-2.84,1.04-5.63,2.51-8.24,4.44
		c-2.61,1.93-5.12,4.18-7.48,6.68c-2.37,2.49-4.62,5.19-6.79,8c-0.56,0.72-1.07,1.37-1.53,2.03c-0.46,0.67-0.89,1.35-1.25,2.03
		c-0.74,1.37-1.19,2.78-1.14,3.98c0.02,0.6,0.18,1.17,0.5,1.71c0.37,0.51,0.75,1.04,1.31,1.29c1.05,0.66,2.71,0.52,4.26,0
		c1.58-0.53,3.11-1.42,4.52-2.46c1.42-1.05,2.75-2.26,3.92-3.64c-1.8,3.13-4.24,6.01-7.62,7.95c-0.42,0.24-0.87,0.46-1.35,0.64
		c-0.46,0.21-0.97,0.33-1.48,0.45c-0.51,0.12-1.08,0.14-1.63,0.16c-0.57-0.07-1.16-0.07-1.71-0.3c-1.17-0.32-2.13-1.1-2.94-1.92
		c-0.8-0.87-1.39-2-1.67-3.17c-0.55-2.37-0.08-4.6,0.55-6.53c0.33-0.98,0.71-1.91,1.14-2.8c0.43-0.9,0.9-1.76,1.32-2.54
		c1.74-3.22,3.61-6.43,5.73-9.56c2.11-3.14,4.51-6.18,7.34-8.96c2.8-2.8,6.09-5.3,9.77-7.3c7.76-4,16.91-5.14,25.93-2.1
		c1.11,0.45,2.24,0.85,3.29,1.49c0.53,0.31,1.08,0.56,1.58,0.94l1.51,1.1c0.51,0.36,0.95,0.82,1.42,1.24
		c0.45,0.45,0.93,0.85,1.33,1.35c0.82,0.98,1.65,1.94,2.31,3.04c2.81,4.22,4.19,9.19,4.35,13.76c0.22,4.6-0.52,8.85-1.56,12.79
		c-1.03,3.94-2.47,7.64-3.91,11.08c-2.93,6.98-6.47,13.84-10.97,20.26c-4.51,6.41-9.97,12.34-16.67,17.09
		c-6.68,4.7-14.33,8.07-22.59,9.49c-4.12,0.7-8.39,0.89-12.66,0.44c-4.27-0.45-8.51-1.56-12.44-3.25
		c-3.94-1.71-7.61-4.03-10.86-6.73c-3.23-2.73-6.04-5.83-8.47-9.11c-4.81-6.61-8.15-13.87-10.54-21.24
		c-2.41-7.38-3.89-14.92-4.73-22.49c-0.77-7.56-1.02-15.1-0.58-22.72c0.44-7.6,1.56-15.24,3.68-22.76
		c2.11-7.5,5.26-14.93,9.92-21.61c4.62-6.68,10.78-12.51,17.94-16.63c7.16-4.16,15.23-6.58,23.22-7.31c8-0.78,15.93-0.16,23.54,1.35
		c7.62,1.51,14.94,3.9,21.94,6.94c3.48,1.52,6.97,3.19,10.24,4.99c3.3,1.76,6.52,3.64,9.68,5.57c6.32,3.86,12.4,7.96,18.36,12.07
		c11.92,8.23,23.43,16.55,35.52,23.31c1.52,0.82,3.03,1.66,4.55,2.46l4.6,2.29c3.04,1.44,6.15,2.72,9.32,3.85
		c6.34,2.24,12.9,3.86,19.49,4.71c6.59,0.85,13.24,0.93,19.63,0.01c3.19-0.47,6.34-1.13,9.32-2.19c2.98-1.07,5.78-2.44,8.59-3.75
		c5.64-2.61,10.81-6.42,15.03-11.32c4.27-4.88,7.59-10.77,10.17-17.13c2.58-6.37,4.22-13.25,5.32-20.25
		C716.81,584.97,717.3,577.8,717.51,570.57z"/>
</g>
<g>
	<path class="st2" d="M426.88,670.74c-1.85-2.95-3.52-5.93-4.97-9c-0.77-1.52-1.42-3.09-2.12-4.64c-0.65-1.57-1.28-3.15-1.88-4.75
		c-2.36-6.41-4.08-13.17-4.9-20.29c-0.23-1.77-0.31-3.59-0.45-5.4c-0.02-1.83-0.09-3.65,0.01-5.51c0.02-3.71,0.62-7.44,1.26-11.18
		c0.73-3.74,1.86-7.34,3.07-10.82c1.31-3.45,2.79-6.75,4.37-9.92c1.66-3.13,3.36-6.15,5.15-9.04c1.85-2.85,3.64-5.66,5.55-8.31
		c1.9-2.63,3.78-5.34,5.96-8.03c1.07-1.34,2.15-2.72,3.33-4.06c1.17-1.33,2.42-2.65,3.68-3.96c1.27-1.32,2.65-2.55,4.07-3.77
		c1.42-1.21,2.88-2.4,4.47-3.46c3.12-2.21,6.6-4.01,10.17-5.33c3.62-1.26,7.38-2.09,11.16-2.12c1.87-0.06,3.76,0.14,5.56,0.47
		c0.91,0.2,1.79,0.42,2.65,0.71c0.86,0.23,1.7,0.63,2.5,0.99l-0.11,1.4c-6.31-0.39-12.55,1.7-17.87,5.02
		c-5.39,3.29-9.89,7.87-13.75,12.93c-3.87,5.07-7.17,10.6-10.53,16.12c-3.35,5.52-6.64,11.05-9.51,16.77
		c-2.93,5.68-5.45,11.57-7.06,17.71c-1.58,6.14-2.38,12.5-2.45,18.89c-0.09,3.19,0.08,6.4,0.26,9.59c0.24,3.2,0.54,6.39,0.95,9.59
		c0.72,6.39,1.78,12.76,2.82,19.14L426.88,670.74z"/>
</g>
<g>
	<path class="st2" d="M393.24,670.48c-0.39-1.71-0.59-3.39-0.91-5.08c-0.24-1.68-0.48-3.35-0.67-5.01
		c-0.41-3.32-0.72-6.57-1.07-9.78c-0.15-1.6-0.29-3.18-0.49-4.75l-0.5-4.65c-0.4-3.06-0.74-6.06-1.24-8.96
		c-0.93-5.82-2.21-11.24-3.92-16.31c-0.88-2.52-1.82-5.06-3-7.59c-1.09-2.56-2.32-5.13-3.68-7.71c-1.28-2.63-2.72-5.26-4.18-7.95
		c-1.4-2.73-2.98-5.45-4.45-8.31c-1.48-2.87-2.98-5.68-4.31-8.42l-2.07-4c-0.66-1.33-1.35-2.6-2.05-3.86
		c-0.73-1.22-1.38-2.5-2.12-3.69c-0.73-1.2-1.49-2.36-2.26-3.52c-1.54-2.27-3.24-4.41-5.19-6.45c-3.91-4.05-8.59-7.59-15.05-9.72
		l-0.11-1.4c6.66-0.65,13.34,1.33,19.06,4.63c5.74,3.37,10.49,8.15,14.52,13.29c4.04,5.17,7.45,10.73,10.87,16.21
		c3.42,5.49,6.82,11.04,9.82,16.84c2.93,5.83,5.45,11.94,7.06,18.33c1.56,6.4,2.3,12.97,2.29,19.51c0.03,6.54-0.56,13.05-1.47,19.48
		c-0.96,6.43-2.24,12.78-3.51,19.12L393.24,670.48z"/>
</g>
<ellipse class="st2" cx="403" cy="517" rx="18" ry="43"/>
<g>
	<g>
		<path class="st2" d="M527.87,454.04c-13.42-12.47-26.05-25.74-37.27-40.8c-5.49-7.59-10.59-15.66-14.73-24.4
			c-4.16-8.72-7.44-18.09-9.28-27.91c-0.91-4.9-1.56-9.89-1.77-14.92c-0.2-5.02-0.07-10.08,0.44-15.06
			c0.9-9.98,3.18-19.57,5.97-28.8c2.83-9.22,6.38-18.04,10.12-26.65c3.84-8.56,7.97-16.88,12.2-25.06
			c4.32-8.14,8.67-16.13,13.07-24.09c4.48-7.93,9.01-16.01,14-23.91c9.92-15.85,21.57-31.16,35.22-44.39
			c13.71-13.28,29.15-24.38,45.68-33.17c16.58-8.65,34.16-15.34,52.33-18.38l0.42,1.33c-17.18,5.61-33.54,13.62-48.7,23.42
			c-15.18,9.76-29.27,21.27-41.57,34.45c-6.14,6.61-11.87,13.6-17.19,20.88c-5.32,7.29-10.2,14.9-14.83,22.66
			c-4.61,7.78-8.96,15.71-13.26,23.69c-4.3,7.98-8.6,15.96-12.77,24c-8.38,16.03-16.39,32.31-22.14,49.41
			c-2.85,8.54-5.09,17.29-6.24,26.19c-1.19,8.88-1.17,17.92,0.13,26.79c1.24,8.88,3.75,17.57,7.1,25.91
			c3.34,8.36,7.6,16.33,12.27,24.05c9.38,15.44,20.62,29.7,31.89,43.89L527.87,454.04z"/>
	</g>
	<g>
		<polygon class="st2" points="480.07,307.17 574,416 469.93,316.83 		"/>
	</g>
	<g>
		<polygon class="st2" points="502.07,261.17 596,370 491.93,270.83 		"/>
	</g>
	<g>
		<polygon class="st2" points="526.07,214.17 620,323 515.93,223.83 		"/>
	</g>
	<g>
		<polygon class="st2" points="551.07,176.17 645,285 540.93,185.83 		"/>
	</g>
	<g>
		<polygon class="st2" points="579.08,146.19 662.5,244.5 568.92,155.81 		"/>
	</g>
	<g>
		<polygon class="st2" points="606.09,125.32 666.5,177.5 597.91,136.68 		"/>
	</g>
</g>
<g>
	<path class="st2" d="M308.54,466.16c9.3-15.78,19.37-30.92,27.21-46.77c7.91-15.74,13.88-32.02,15.25-48.35
		c0.37-4.07,0.52-8.14,0.3-12.18c-0.18-4.05-0.55-8.06-1.27-12.07c-1.39-8.02-3.6-16.09-6.51-24.07
		c-2.89-7.99-6.26-15.97-10.03-23.87c-3.69-7.94-7.71-15.83-11.87-23.73c-4.08-7.94-8.37-15.89-12.6-23.89
		c-4.15-8.02-8.39-15.82-12.68-23.5c-4.31-7.65-8.87-15.07-13.68-22.26c-2.44-3.57-4.94-7.1-7.56-10.54
		c-2.57-3.48-5.3-6.83-8.08-10.15c-11.11-13.18-24.03-25.15-38.05-35.89c-14-10.84-29.36-20.03-45.76-28.03l0.42-1.33
		c34.74,10.96,66.45,31.16,91.55,57.61c6.24,6.65,12.05,13.69,17.46,21.03c5.4,7.34,10.36,14.99,15.06,22.79
		c4.67,7.81,9.08,15.76,13.42,23.73c4.33,7.97,8.67,15.94,12.9,23.98c8.35,16.12,16.34,32.54,22.09,49.89
		c2.85,8.67,5.1,17.58,6.24,26.68c1.18,9.09,1.12,18.37-0.25,27.44c-1.31,9.08-3.91,17.94-7.36,26.4
		c-3.43,8.48-7.77,16.55-12.54,24.31c-9.67,15.47-21.13,29.63-32.58,43.68L308.54,466.16z"/>
</g>
<g>
	<polygon class="st2" points="358.57,334.83 254.5,434 348.43,325.17 	"/>
</g>
<g>
	<polygon class="st2" points="336.57,288.83 232.5,388 326.43,279.17 	"/>
</g>
<g>
	<polygon class="st2" points="312.57,241.83 208.5,341 302.43,232.17 	"/>
</g>
<g>
	<polygon class="st2" points="287.57,203.83 183.5,303 277.43,194.17 	"/>
</g>
<g>
	<polygon class="st2" points="259.58,173.81 166,262.5 249.42,164.19 	"/>
</g>
<g>
	<polygon class="st2" points="232.59,150.68 164,191.5 224.41,139.32 	"/>
</g>
<g>
	<path class="st2" d="M197.41,121.13c-2.08-9.22-3.17-18.95-1.41-28.96c0.89-4.99,2.61-10.03,5.36-14.75
		c0.7-1.17,1.5-2.29,2.29-3.42l1.31-1.61c0.44-0.54,0.88-1.09,1.39-1.57l1.49-1.49c0.5-0.5,1-1.01,1.56-1.43l1.66-1.33
		c0.56-0.45,1.11-0.9,1.73-1.25c0.6-0.38,1.21-0.73,1.83-1.08c0.62-0.35,1.25-0.68,1.91-0.91c0.65-0.26,1.31-0.5,1.98-0.73
		l0.99-0.35c0.33-0.11,0.67-0.18,1-0.28c2.67-0.77,5.34-1.42,8.02-1.79c5.37-0.76,10.71-0.68,15.89-0.02
		c5.18,0.67,10.22,1.91,15.08,3.63l3.61,1.39l3.54,1.57l3.37,1.67l3.29,1.77c8.66,4.85,16.43,10.5,24.05,15.75
		c3.81,2.63,7.59,5.18,11.4,7.5c1.91,1.16,3.82,2.28,5.76,3.31c1.93,1.06,3.81,1.95,5.77,2.81c7.77,3.38,16.19,5.24,23.86,4.51
		c7.68-0.68,14.19-4.5,18.46-10.66c2.16-3.07,3.75-6.72,4.84-10.64c1.1-3.92,1.73-8.09,1.98-12.34c0.25-4.24,0.11-8.61-0.34-12.86
		c-0.46-4.23-1.28-8.41-2.58-12.32c-1.28-3.9-3-7.55-5.18-10.57c-2.23-2.96-4.87-5.21-7.86-6.54l-1.17-0.41
		c-0.39-0.15-0.77-0.31-1.16-0.38c-0.39-0.1-0.78-0.21-1.18-0.26c-0.4-0.08-0.8-0.15-1.22-0.17c-1.64-0.17-3.36-0.11-5.09,0.19
		c-3.46,0.59-6.96,2.09-9.98,4.22c-3.01,2.13-5.75,5.03-8.06,8.33c-2.33,3.31-4.28,7.06-5.94,11.02c-0.85,2.04-1.55,3.89-2.03,5.7
		c-0.48,1.79-0.72,3.48-0.64,4.81c0.02,0.68,0.12,1.26,0.28,1.75c0.15,0.48,0.34,0.97,0.64,1.26c0.24,0.35,0.61,0.58,0.98,0.86
		c0.37,0.28,0.79,0.59,1.29,0.93c1,0.7,2.43,1.21,3.98,1.44c1.55,0.19,3.2,0.1,4.74-0.3c3.43-0.94,6.84-3.29,10.01-6.31
		c1.59-1.51,3.11-3.18,4.61-4.94c0.39-0.46,0.73-0.84,1.04-1.24c0.31-0.4,0.59-0.79,0.84-1.19c0.5-0.79,0.79-1.57,0.84-2.15
		c0.03-0.29,0.01-0.56-0.12-0.86c-0.16-0.28-0.31-0.58-0.57-0.73c-0.46-0.41-1.45-0.44-2.44-0.16c-1,0.27-2.02,0.79-2.97,1.42
		c-0.96,0.63-1.86,1.37-2.67,2.24c1.08-2.11,2.58-4.09,4.82-5.5c0.56-0.35,1.2-0.64,1.93-0.82c0.36-0.1,0.76-0.12,1.16-0.15
		c0.41,0.03,0.84,0.03,1.26,0.19c0.87,0.22,1.6,0.77,2.2,1.36c0.6,0.62,1.06,1.46,1.29,2.32c0.44,1.74,0.14,3.34-0.26,4.69
		c-0.21,0.69-0.45,1.33-0.72,1.96c-0.27,0.63-0.57,1.22-0.83,1.74c-1.06,2.17-2.21,4.35-3.55,6.5c-1.33,2.15-2.88,4.27-4.75,6.24
		c-1.85,1.98-4.08,3.8-6.62,5.28c-5.49,2.98-11.94,3.97-18.62,1.88c-1.65-0.58-3.29-1.41-4.76-2.59c-1.46-1.18-2.76-2.63-3.78-4.26
		c-2.1-3.18-3.13-6.89-3.24-10.21c-0.16-3.35,0.38-6.34,1.09-9.07c0.72-2.72,1.7-5.25,2.65-7.53c1.96-4.66,4.33-9.29,7.39-13.65
		c3.07-4.36,6.79-8.42,11.44-11.72c4.63-3.26,9.93-5.6,15.7-6.59c2.88-0.49,5.89-0.63,8.9-0.31c0.75,0.06,1.51,0.18,2.26,0.32
		c0.75,0.12,1.5,0.3,2.24,0.5c0.75,0.17,1.46,0.43,2.18,0.69l2.14,0.79c5.61,2.45,10.24,6.57,13.59,11.11
		c3.31,4.59,5.57,9.54,7.21,14.52c1.64,4.99,2.62,10.05,3.18,15.13c0.54,5.06,0.69,10.09,0.4,15.2c-0.3,5.1-1.05,10.24-2.48,15.34
		c-1.43,5.09-3.58,10.17-6.8,14.79c-3.19,4.62-7.48,8.68-12.47,11.56c-4.99,2.9-10.6,4.57-16.09,5.07
		c-5.5,0.54-10.9,0.11-16.05-0.91c-5.15-1.02-10.08-2.63-14.77-4.67c-2.33-1.02-4.68-2.15-6.86-3.34c-2.2-1.17-4.33-2.42-6.42-3.69
		c-4.18-2.55-8.17-5.25-12.07-7.94c-7.79-5.38-15.22-10.75-22.93-15.05l-2.9-1.56l-2.92-1.45l-2.89-1.28l-2.95-1.13
		c-3.97-1.4-8.08-2.41-12.19-2.94c-4.1-0.53-8.21-0.57-12.12-0.01c-1.95,0.29-3.86,0.68-5.65,1.35c-1.79,0.68-3.42,1.56-5.14,2.25
		c-3.44,1.4-6.71,3.47-9.45,6.36c-2.78,2.85-5.05,6.43-6.88,10.39c-1.82,3.97-3.1,8.34-4.05,12.84
		C198.34,111.74,197.81,116.4,197.41,121.13z"/>
</g>
<g>
	<path class="st2" d="M611.92,116.13c-0.4-4.72-0.93-9.39-1.93-13.9c-0.95-4.5-2.23-8.87-4.05-12.84c-1.83-3.96-4.1-7.54-6.88-10.39
		c-2.75-2.88-6.01-4.96-9.45-6.36c-1.73-0.69-3.35-1.57-5.14-2.25c-1.79-0.67-3.7-1.06-5.65-1.35c-3.91-0.56-8.02-0.52-12.12,0.01
		c-4.11,0.53-8.21,1.53-12.19,2.94l-2.95,1.13l-2.89,1.28l-2.92,1.45l-2.9,1.56c-7.71,4.31-15.14,9.67-22.93,15.05
		c-3.9,2.69-7.89,5.39-12.07,7.94c-2.09,1.28-4.22,2.52-6.42,3.69c-2.17,1.19-4.52,2.32-6.86,3.34c-4.69,2.04-9.62,3.65-14.77,4.67
		c-5.15,1.02-10.54,1.45-16.05,0.91c-5.49-0.5-11.1-2.18-16.09-5.07c-4.99-2.87-9.28-6.93-12.47-11.56
		c-3.22-4.62-5.37-9.7-6.8-14.79c-1.43-5.1-2.18-10.25-2.48-15.34c-0.29-5.11-0.14-10.13,0.4-15.2c0.56-5.08,1.54-10.14,3.18-15.13
		c1.64-4.98,3.89-9.94,7.21-14.52c3.35-4.53,7.98-8.66,13.59-11.11l2.14-0.79c0.71-0.26,1.42-0.52,2.18-0.69
		c0.74-0.19,1.49-0.38,2.24-0.5c0.75-0.14,1.5-0.26,2.26-0.32c3.02-0.32,6.02-0.18,8.9,0.31c5.78,1,11.08,3.34,15.7,6.59
		c4.64,3.3,8.37,7.36,11.44,11.72c3.06,4.36,5.43,8.99,7.39,13.65c0.95,2.28,1.94,4.81,2.65,7.53c0.72,2.73,1.25,5.72,1.09,9.07
		c-0.11,3.32-1.14,7.03-3.24,10.21c-1.02,1.63-2.33,3.08-3.78,4.26c-1.47,1.18-3.11,2.01-4.76,2.59c-6.68,2.09-13.13,1.1-18.62-1.88
		c-2.54-1.48-4.77-3.3-6.62-5.28c-1.87-1.97-3.42-4.09-4.75-6.24c-1.34-2.15-2.49-4.33-3.55-6.5c-0.25-0.52-0.55-1.12-0.83-1.74
		c-0.27-0.62-0.51-1.27-0.72-1.96c-0.39-1.35-0.7-2.95-0.26-4.69c0.23-0.86,0.69-1.69,1.29-2.32c0.61-0.59,1.33-1.14,2.2-1.36
		c0.42-0.15,0.85-0.16,1.26-0.19c0.4,0.02,0.81,0.05,1.16,0.15c0.73,0.18,1.37,0.47,1.93,0.82c2.24,1.4,3.74,3.38,4.82,5.5
		c-0.81-0.86-1.71-1.61-2.67-2.24c-0.95-0.63-1.96-1.15-2.97-1.42c-0.99-0.27-1.99-0.25-2.44,0.16c-0.26,0.15-0.4,0.45-0.57,0.73
		c-0.12,0.29-0.15,0.56-0.12,0.86c0.05,0.58,0.34,1.35,0.84,2.15c0.24,0.4,0.53,0.79,0.84,1.19c0.31,0.39,0.65,0.78,1.04,1.24
		c1.49,1.76,3.02,3.43,4.61,4.94c3.17,3.03,6.58,5.37,10.01,6.31c1.55,0.39,3.19,0.49,4.74,0.3c1.54-0.23,2.98-0.74,3.98-1.44
		c0.5-0.34,0.92-0.66,1.29-0.93c0.36-0.28,0.73-0.51,0.98-0.86c0.3-0.3,0.49-0.78,0.64-1.26c0.16-0.49,0.26-1.07,0.28-1.75
		c0.08-1.34-0.16-3.02-0.64-4.81c-0.47-1.81-1.18-3.66-2.03-5.7c-1.67-3.97-3.62-7.71-5.94-11.02c-2.31-3.3-5.05-6.2-8.06-8.33
		c-3.02-2.14-6.51-3.64-9.98-4.22c-1.73-0.29-3.45-0.36-5.09-0.19c-0.42,0.03-0.82,0.1-1.22,0.17c-0.41,0.05-0.8,0.16-1.18,0.26
		c-0.39,0.07-0.78,0.24-1.16,0.38l-1.17,0.41c-2.99,1.34-5.63,3.58-7.86,6.54c-2.18,3.02-3.9,6.67-5.18,10.57
		c-1.29,3.91-2.11,8.09-2.58,12.32c-0.45,4.25-0.58,8.62-0.34,12.86c0.25,4.25,0.87,8.42,1.98,12.34c1.1,3.92,2.69,7.57,4.84,10.64
		c4.27,6.17,10.77,9.99,18.46,10.66c7.67,0.74,16.1-1.13,23.86-4.51c1.96-0.86,3.84-1.75,5.77-2.81c1.93-1.03,3.85-2.15,5.76-3.31
		c3.82-2.33,7.59-4.87,11.4-7.5c7.62-5.26,15.39-10.9,24.05-15.75l3.29-1.77l3.37-1.67l3.54-1.57l3.61-1.39
		c4.86-1.72,9.9-2.96,15.08-3.63c5.18-0.66,10.52-0.74,15.89,0.02c2.69,0.37,5.35,1.02,8.02,1.79c0.33,0.1,0.67,0.17,1,0.28
		l0.99,0.35c0.66,0.23,1.32,0.48,1.98,0.73c0.66,0.23,1.29,0.56,1.91,0.91c0.62,0.35,1.24,0.69,1.83,1.08
		c0.61,0.35,1.17,0.8,1.73,1.25l1.66,1.33c0.56,0.42,1.06,0.94,1.56,1.43l1.49,1.49c0.51,0.48,0.95,1.03,1.39,1.57l1.31,1.61
		c0.8,1.13,1.59,2.26,2.29,3.42c2.75,4.72,4.47,9.75,5.36,14.75C615.1,97.18,614,106.91,611.92,116.13z"/>
</g>
<g>
	<path class="st2" d="M410.84,56.12c0.49,1.16,0.8,2.28,1.21,3.42c0.34,1.12,0.67,2.24,0.96,3.34c0.6,2.2,1.08,4.35,1.58,6.43
		c0.94,4.17,1.75,8.07,2.69,11.62c0.93,3.57,1.93,6.73,3.09,9.61c0.6,1.43,1.18,2.9,1.94,4.38c0.7,1.5,1.46,3.04,2.28,4.64
		c1.64,3.19,3.41,6.65,5.25,10.4c0.89,1.91,1.8,3.76,2.52,5.55c0.37,0.9,0.77,1.74,1.12,2.59c0.34,0.87,0.69,1.68,1.05,2.5
		c0.38,0.78,0.68,1.62,1.04,2.39l1.09,2.3c0.72,1.49,1.52,2.94,2.51,4.4c1.99,2.9,4.41,5.72,8.61,8.03l0.11,1.4
		c-4.39,0.47-8.82-0.8-12.61-2.95c-3.8-2.19-6.97-5.32-9.65-8.67c-2.7-3.36-4.9-7.02-7.13-10.58c-2.22-3.58-4.44-7.2-6.4-11.01
		c-1.92-3.82-3.59-7.82-4.64-12.03c-1.02-4.21-1.55-8.53-1.49-12.82c0.02-4.29,0.45-8.54,1.08-12.73c0.66-4.19,1.54-8.32,2.41-12.44
		L410.84,56.12z"/>
</g>
<g>
	<path class="st2" d="M388.93,55.87c1.65,1.84,3.11,3.71,4.38,5.67c1.31,1.95,2.44,3.96,3.48,6.05c2.06,4.17,3.58,8.68,4.44,13.55
		c0.22,1.21,0.34,2.46,0.51,3.71c0.08,1.27,0.16,2.52,0.15,3.82c0.1,2.58-0.26,5.21-0.65,7.86c-0.45,2.65-1.21,5.17-2.01,7.61
		c-0.86,2.41-1.87,4.69-2.96,6.85c-2.18,4.31-4.77,8.06-7.33,11.49c-1.31,1.67-2.6,3.42-4.17,5.16c-0.77,0.87-1.54,1.78-2.39,2.65
		c-0.85,0.87-1.76,1.74-2.68,2.6c-0.92,0.87-1.94,1.67-2.99,2.47c-1.05,0.79-2.12,1.57-3.3,2.24c-2.31,1.43-4.88,2.54-7.49,3.27
		c-2.65,0.69-5.37,1.04-8.07,0.77c-1.33-0.1-2.66-0.39-3.9-0.79c-0.63-0.23-1.23-0.47-1.81-0.76c-0.58-0.25-1.13-0.62-1.65-0.97
		l0.11-1.4c4.05,0.21,8.03-1.17,11.43-3.34c3.44-2.14,6.3-5.11,8.76-8.4c2.45-3.3,4.62-6.86,6.8-10.47
		c2.18-3.59,4.32-7.18,6.18-10.88c1.89-3.68,3.51-7.48,4.55-11.43c1.02-3.95,1.5-8.05,1.6-12.18c0.11-4.13-0.18-8.29-0.67-12.43
		c-0.43-4.16-1.07-8.31-1.72-12.47L388.93,55.87z"/>
</g>
<ellipse class="st2" cx="404.15" cy="156" rx="11.72" ry="28"/>
<ellipse class="st2" cx="408.15" cy="409" rx="11.72" ry="28"/>
<ellipse class="st2" cx="408.15" cy="336" rx="11.72" ry="28"/>
<ellipse class="st2" cx="407" cy="740" rx="18" ry="43"/>
<ellipse class="st2" cx="407" cy="246" rx="18" ry="43"/>
</svg>
