<?xml version="1.0" encoding="utf-8"?>
<!-- Generator: Adobe Illustrator 23.0.3, SVG Export Plug-In . SVG Version: 6.00 Build 0)  -->
<svg version="1.1" id="Layer_1" xmlns="http://www.w3.org/2000/svg" xmlns:xlink="http://www.w3.org/1999/xlink" x="0px" y="0px"
	 viewBox="0 0 815.9 816" style="enable-background:new 0 0 815.9 816;" xml:space="preserve">
<style type="text/css">
	.st0{fill:#8C5600;stroke:#8C5600;stroke-width:5;stroke-miterlimit:10;}
</style>
<g>
	<path class="st0" d="M652.9,493.18c-3.16-1.17-6.53-2.38-9.83-2.45c-23.44-0.53-46.88-0.82-70.32-1.09
		c-10.12-0.12-20.23-0.02-32.01-0.02c5.6-14.14-1.75-24.78-7.25-36.99c-16.45-36.56-29.51-74.51-35.73-114.39
		c-0.67-4.27-1.01-10.19,1.31-13.05c8.74-10.78,5.21-19.34-2.59-28.24c-2.15-2.45-3.71-5.82-4.48-9.02
		c-5.25-21.8-10.21-43.67-14.47-62.1c8.4-9.4,19.48-16.7,22.54-26.49c4.05-12.97,11.39-13.13,21.05-12.51
		c15.5,0.99,30.96,2.69,46.46,3.29c7.93,0.31,18.35,2.71,21.43-7.79c2.95-10.06-5.39-15.77-12.71-20.63
		c-5.01-3.33-10.38-6.35-15.98-8.51c-12.33-4.76-24.85-9.09-37.41-13.21c-10.87-3.57-21.23-7.08-28.02-17.72
		c-2.44-3.82-8.71-7.2-13.3-7.29c-18.44-0.34-36.97,0.01-55.36,1.46c-12.32,0.97-20.96,8.06-27.47,19.33
		c-13.46,23.29-28.98,45.05-49.15,63.54c-8.27,7.57-15.16,18.46-18.59,29.15c-8.75,27.27-16.23,55.05-22.33,83.04
		c-8.18,37.48-16.54,74.49-39.27,106.67c-4.98,7.04-6.25,16.76-8.98,25.32c-4.55,14.28-8.87,28.62-13.32,42.93
		c-1.97,6.33-6.54,7.49-12.48,6.51c-11.94-1.97-23.86-4.33-35.88-5.45c-25.56-2.36-51.17-5.46-76.78-5.55
		c-23.03-0.07-37.02,20.49-32.89,43.24c3.84,21.12,17.11,34.37,35.54,42.63c27.62,12.38,57.01,18.1,87.17,18.2
		c53.33,0.19,105.32-10.86,157.09-21.77c43.46-9.16,86.7-16.6,131.42-15.27c34.82,1.04,69.8,0.34,104.57-1.83
		c16.65-1.04,33.24-6.41,49.33-11.48c9.47-2.98,15.56-11.52,15.5-21.83C669.64,503.19,662.52,496.73,652.9,493.18z M253.69,571.26
		c-36.44,5.56-74.16,4.36-109.99-8.48c-8.49-3.04-16.88-6.85-24.56-11.55c-10.44-6.38-16.84-15.92-18.51-28.5
		c-2.18-16.47,3.84-27.85,20.45-29.25c18.16-1.53,37.11-1.03,54.95,2.48c38.03,7.46,76.27,10.3,114.67,11.01
		c1.23-3.47,3.04-6.95,5.16-10.17c-12.46-0.3-24.91-0.68-37.36-1.2c4.12-14.18,7.9-27.69,12.1-41.08c0.56-1.8,2.94-3.66,4.87-4.3
		c21.84-7.23,43.54-14.52,67.15-14.22c39.75,0.51,79.53-0.66,119.26,0.45c12.46,0.35,24.8,5.64,37.13,8.92
		c3.78,1,7.33,2.84,10.99,4.29c1.05-1.07,2.09-2.14,3.14-3.22c-2.47-6-4.1-12.55-7.56-17.9c-19.69-30.41-49.05-39.88-83.55-37.13
		c-31.33,2.5-60.53,12.15-88.84,25.68c-16.98,8.12-35.03,14.01-52.65,20.75c-1.55,0.59-3.53,0.08-6.92,0.08
		c2.4-5.87,3.5-11.24,6.43-15.29c23.77-32.92,31.66-71.45,40.04-109.97c5.22-23.98,11.92-47.63,17.78-71.48
		c4.48-18.2,15.19-31.77,30.25-42.43c3.02-2.14,5.72-5.04,7.83-8.09c10.53-15.27,21.82-30.15,30.87-46.28
		c6.88-12.27,16.54-17.14,29.39-17.58c13.64-0.47,27.31-0.64,40.94-0.15c3.53,0.13,7.15,2.9,10.39,4.97
		c9.02,5.76,17.27,13.11,26.91,17.39c13.05,5.8,27.34,8.77,40.66,14.04c7.44,2.94,14.02,8.08,21.83,12.73
		c-20.15,0-38.41,0.16-56.67-0.05c-17.5-0.2-24.45-0.17-30.64,19.07c-2.31,7.18-11.83,13.83-19.59,17.01
		c-9.91,4.07-11.09,8.84-6.72,17.02c10.6,19.79,14.97,41.02,16,63.29c0.19,4.08,3.97,8.68,7.27,11.78
		c5.49,5.17,5.78,10.45,0.2,14.32c-12.39,8.58-25.22,16.61-38.48,23.75c-2.53,1.36-9.33-1.18-11.56-3.99
		c-8.9-11.18-17.79-22.62-24.81-35.01c-11.01-19.43-24.28-34.86-48.21-36.78c-3.75-0.3-7.84-0.85-11.25,0.27
		c-4.31,1.42-8.09,4.44-12.1,6.77c2.92,2.78,5.84,5.56,8.95,8.52c-10.21,38.48,20.18,55.41,43.59,77.74
		c-8.12,4.5-16.4,8.72-24.23,13.64c-2.48,1.56-3.77,5-5.6,7.58c2.98,0.81,6.14,2.71,8.91,2.26c18.64-3.02,37.34-5.97,55.74-10.15
		c9.16-2.08,16.76-1.79,24.54,3.78c4.63,3.31,10.3,5.17,16.77,8.29c0.64-6.11,1.02-9.78,1.48-14.18c6.19-2.53,12.7-5.19,18.66-7.62
		c9.64,28.4,19.04,56.49,28.77,84.46c2.08,5.99,3.99,13.12,8.38,17.01c8.89,7.87,5.21,15.63,2.12,23.59
		c-0.83,2.13-4.2,4.53-6.52,4.64c-9.14,0.46-18.28,0.89-27.42,1.29c-0.01,3.97-1.83,7.91-5.57,9.66c-1.01,0.48-2.06,0.93-3.1,1.38
		c14.25-0.18,28.5-0.36,42.75-0.53c2.58-0.03,5.16,0,7.74,0c0.2,1.09,0.41,2.18,0.61,3.27c-29.16,8.72-57.9,19.39-87.57,25.76
		C384.43,547.56,319.31,561.25,253.69,571.26z M653.5,522.32c-4.39,3.26-9.9,5.59-15.28,6.88c-48.75,11.72-98.13,10.31-147.53,7.83
		c-0.2-1.83-0.4-3.67-0.6-5.5c43.18-9.99,86.24-20.6,129.65-29.5c9.81-2.01,20.91,1.44,31.25,3.32c2.98,0.54,7.42,4.24,7.54,6.67
		C658.7,515.45,656.34,520.21,653.5,522.32z"/>
	<path class="st0" d="M409.07,198.75c3.02-2.14,5.72-5.04,7.83-8.09c10.07-14.6,20.81-28.85,29.64-44.16
		c-3.15-2.23-6.08-4.72-8.77-7.46c-13.01,22.05-27.98,42.65-47.2,60.25c-7.56,6.92-13.93,16.61-17.6,26.39
		c3.36,0.82,6.7,2.02,9.99,3.53C388.54,216.83,397.52,206.93,409.07,198.75z"/>
	<path class="st0" d="M217.39,552.61c-21.41,3.26-43.57,2.54-64.62-5c-4.99-1.79-9.93-4.03-14.45-6.79
		c-6.14-3.75-9.91-9.36-10.89-16.77c-0.73-5.51,0.11-10.05,2.76-13.09c-1.74-1.41-3.34-2.92-4.8-4.54
		c-4.21,4.78-6.1,11.72-4.76,19.07c2.26,12.42,10.07,20.22,20.91,25.08c16.25,7.28,33.54,10.65,51.28,10.71
		c12.63,0.04,25.13-0.99,37.54-2.65c-3.38-1.69-6.79-3.34-10.25-4.89C219.22,553.35,218.31,552.98,217.39,552.61z"/>
</g>
</svg>
