<?xml version="1.0" encoding="utf-8"?>
<!-- Generator: Adobe Illustrator 23.0.3, SVG Export Plug-In . SVG Version: 6.00 Build 0)  -->
<svg version="1.1" id="Layer_1" xmlns="http://www.w3.org/2000/svg" xmlns:xlink="http://www.w3.org/1999/xlink" x="0px" y="0px"
	 viewBox="0 0 816 816" style="enable-background:new 0 0 816 816;" xml:space="preserve">
<path d="M92.4,153.2c-7.7,17.1-14.2,34.7-19.5,52.5c-5.1,17.9-8.8,36.2-11.2,54.5l-1.5,13.8c-0.4,4.6-0.6,9.2-0.9,13.8
	c-0.4,4.6-0.3,9.2-0.4,13.8l-0.1,6.9c0,2.3,0.1,4.6,0.2,6.9l0.3,6.9c0.1,2.3,0.1,4.6,0.4,6.9l1.2,13.7c1.2,9.1,2.2,18.2,4,27.2
	l1.2,6.7c0.4,2.2,1,4.5,1.5,6.7l1.5,6.7c0.5,2.2,1,4.4,1.7,6.6l3.7,13.2c1.4,4.3,2.9,8.6,4.3,13c6,17.2,13.3,33.8,21.7,49.9
	c8.6,15.9,18.2,31.2,29,45.7l8.2,10.7l8.7,10.3l2.2,2.6l2.3,2.5l4.6,4.9l4.6,4.9l4.8,4.7l4.8,4.7l2.4,2.4c0.8,0.8,1.6,1.5,2.5,2.3
	c3.3,3,6.6,6.1,9.8,9.1c6.8,5.8,13.4,11.9,20.6,17.2l5.3,4.1l1.3,1l1.4,1l2.8,1.9c3.7,2.5,7.3,5.1,11.1,7.6l11.5,7l2.9,1.8l3,1.6
	l5.9,3.2c15.7,8.6,32,15.7,48.8,21.3c16.9,5.6,34.2,9.6,51.8,12c35.2,4.8,71.2,3.1,105.9-4.9c34.6-8,67.8-22.3,97.2-42.2
	c29.5-19.8,55.2-45.1,75.7-74.1l3.8-5.5c1.3-1.8,2.5-3.6,3.7-5.6c2.3-3.8,4.7-7.6,6.9-11.4l6.4-11.7c2-3.9,3.8-7.9,5.8-11.9
	c7.3-16,12.8-32.8,16.5-50c7.3-34.4,7.2-70.4-0.4-104.7c-7.7-34.3-22.7-67-43.9-95.1c-21.2-28.1-48.5-51.4-79.5-68.1
	c-7.7-4.3-15.6-7.8-23.7-11.1c-8.1-3-16.4-5.9-24.8-7.9c-8.4-2.2-17-3.6-25.6-4.8l-6.5-0.6c-1.1-0.1-2.2-0.2-3.2-0.3l-3.3-0.2
	l-6.5-0.3l-6.5,0l-3.3,0c-1.1,0-2.2,0.1-3.3,0.1l-6.5,0.3c-2.2,0.2-4.3,0.4-6.5,0.6l-3.2,0.3c-1.1,0.1-2.2,0.3-3.2,0.4l-6.5,0.9
	c-2.1,0.3-4.3,0.8-6.4,1.2c-4.3,0.7-8.5,1.9-12.7,2.9c-8.4,2.3-16.7,4.9-24.7,8.3l-3,1.2l-1.5,0.6l-1.5,0.7l-5.9,2.7l-1.5,0.7
	l-1.4,0.7l-2.9,1.5l-2.9,1.5c-1,0.5-1.9,1-2.9,1.6c-3.7,2.2-7.6,4.3-11.2,6.7c-1.8,1.2-3.7,2.3-5.4,3.6l-5.3,3.8
	c-1.8,1.2-3.5,2.6-5.2,4c-1.7,1.4-3.4,2.7-5.1,4.1l-4.9,4.3l-2.4,2.2l-2.3,2.3l-4.7,4.5l-4.5,4.8l-2.2,2.4c-0.8,0.8-1.4,1.6-2.1,2.5
	l-4.2,5c-0.7,0.8-1.4,1.7-2,2.6l-2,2.6l-2,2.6l-1,1.3l-0.9,1.3c-2.4,3.6-5,7.1-7.2,10.9l-3.4,5.6l-3.1,5.7
	c-2.2,3.8-3.9,7.7-5.8,11.6c-3.4,7.9-6.4,15.9-8.8,24.2c-2.3,8.3-4,16.7-5.1,25.2c-1,8.5-1.5,17.1-1.3,25.7
	c0.3,8.6,1.1,17.1,2.5,25.6c1.5,8.5,3.6,16.8,6.2,24.9c5.4,16.3,13.1,31.8,23.1,45.8c4.9,7.1,10.4,13.6,16.3,19.8
	c5.9,6.3,12.3,11.9,19.1,17.2c6.7,5.3,14,9.9,21.4,14.2l5.7,3.1l5.7,2.8c3.9,1.7,7.7,3.4,11.7,4.8c31.7,11.6,67.5,11.1,99.2-0.6
	c15.8-5.9,30.6-14.5,43.5-25.4c12.9-10.9,23.7-24.1,32.1-38.8l3-5.6l2.7-5.6l2.4-5.7l2.1-5.8c2.6-7.8,4.4-16,5.3-24.2
	c1.9-16.4,0.3-33.2-4.5-49.1c-2.4-7.9-5.6-15.6-9.6-22.9c-4-7.3-8.7-14.1-14.1-20.4c-5.4-6.3-11.4-12-17.9-17.1
	c-1.6-1.3-3.3-2.5-5-3.7l-2.6-1.8c-0.8-0.6-1.8-1.1-2.6-1.6l-2.6-1.6c-0.9-0.5-1.8-1-2.7-1.5l-2.7-1.5c-0.9-0.5-1.8-0.9-2.7-1.3
	c-14.6-7.1-30.8-10.5-46.9-10c-16.1,0.5-32.2,5-46.2,13c-14.1,7.9-26.1,19.4-34.9,32.9l-1.6,2.6l-0.8,1.3l-0.7,1.3l-1.5,2.7
	c-0.5,0.9-0.9,1.8-1.3,2.7c-0.9,1.8-1.6,3.6-2.4,5.4c-0.4,0.9-0.7,1.8-1,2.8l-0.5,1.4l-0.4,1.4c-2.4,7.5-3.6,15.3-3.8,23.1
	c-0.3,15.7,3.9,31.5,12.1,44.9c2.1,3.3,4.3,6.6,6.8,9.6c2.5,3,5.2,5.9,8.1,8.5c2.9,2.6,6,5.1,9.2,7.3c1.6,1.2,3.3,2.1,5,3.2l2.6,1.4
	c0.4,0.2,0.9,0.5,1.3,0.7l1.3,0.6c6.8,3.4,14.2,5.5,21.7,6.4c7.5,0.9,15.2,0.5,22.6-1.1c7.4-1.7,14.5-4.5,21-8.5
	c6.4-4,12.2-9,17-14.9c4.7-5.9,8.7-12.6,11-19.4c2.4-6.9,3.4-14.2,2.8-21.4c-0.5-7.2-2.6-14.3-5.8-20.8c-3.2-6.5-7.6-12.4-12.8-17.4
	c-2.6-2.5-5.5-4.8-8.6-6.7l-2.4-1.4c-0.8-0.4-1.5-0.8-2.3-1.2c-1.6-0.8-3.2-1.5-4.9-2.1c-3.3-1.2-6.8-2-10.3-2.4
	c-3.5-0.4-7.1-0.4-10.7,0.1c-7.1,0.9-14.2,3.4-20.2,7.5c-6.1,4-11.3,9.5-15,16c-1.7,3.2-3.3,6.4-4.1,9.9l-0.4,1.3
	c-0.1,0.4-0.2,0.9-0.2,1.3l-0.5,2.7l-0.2,2.7c0,0.5-0.1,0.9-0.1,1.4l0,1.4c0,3.7,0.7,7.3,1.7,10.8l0.9,2.6c0.3,0.9,0.7,1.7,1.1,2.6
	l0.5,1.3c0.2,0.4,0.5,0.8,0.7,1.2c0.5,0.8,0.9,1.6,1.4,2.4c1.1,1.5,2,3.1,3.3,4.5l0.9,1.1c0.3,0.4,0.6,0.7,0.9,1l2,2l0.5,0.5
	l0.6,0.4l1.1,0.9l1.1,0.9l0.6,0.4l0.6,0.4l2.4,1.5l0.6,0.4l0.6,0.3l1.2,0.6l1.2,0.6l1.3,0.5l1.3,0.5c0.4,0.2,0.9,0.3,1.3,0.4
	l2.7,0.7l2.7,0.5c3.7,0.5,7.5,0.4,11.2-0.3c3.7-0.6,7.3-2,10.7-3.8c3.3-1.8,6.5-4.2,9-7.1c0.7-0.7,1.3-1.5,1.9-2.2l0.9-1.1
	c0.3-0.4,0.5-0.8,0.8-1.2c0.5-0.8,1.1-1.6,1.5-2.5c0.4-0.9,0.9-1.7,1.3-2.5c1.5-3.5,2.4-7.3,2.5-11.1c0.3-7.7-2.5-15.7-7.8-21.6
	c-2.6-3-5.9-5.5-9.4-7.3c-3.5-1.8-7.5-2.8-11.5-2.9c-8-0.2-16.3,3.3-21.7,9.8c-1.3,1.6-2.6,3.4-3.5,5.2l-0.7,1.4l-0.6,1.5l-0.3,0.7
	c-0.1,0.2-0.1,0.5-0.2,0.8l-0.4,1.5c-0.4,2-0.7,4.2-0.5,6.3l0,0.8l0.1,0.8l0.2,1.6l0.3,1.6l0.2,0.8l0.3,0.8c0.6,2.1,1.6,4,2.7,5.9
	c0.6,0.9,1.2,1.8,1.9,2.6c0.4,0.4,0.7,0.8,1.1,1.2l1.2,1.1c0.4,0.4,0.8,0.7,1.2,1.1c0.4,0.3,0.9,0.7,1.3,1l1.4,0.9l0.7,0.4l0.7,0.4
	c1.9,1.1,4.1,1.7,6.2,2.1c1.1,0.2,2.2,0.3,3.3,0.4c1.1,0,2.2,0,3.4-0.2c2.2-0.3,4.5-0.9,6.5-1.9c2.1-1,4-2.3,5.7-3.8
	c1.7-1.6,3.1-3.4,4.3-5.5c-1,2.1-2.3,4.1-3.9,5.9c-1.6,1.7-3.5,3.2-5.6,4.5c-2.1,1.2-4.4,2.1-6.7,2.6c-1.2,0.3-2.4,0.4-3.6,0.5
	c-1.2,0-2.5,0.1-3.7-0.1c-2.4-0.2-4.9-0.8-7.2-1.8l-0.9-0.4l-0.8-0.4l-1.6-0.9c-0.5-0.3-1-0.7-1.6-1c-0.5-0.3-1-0.7-1.5-1.1
	l-1.4-1.2c-0.5-0.4-0.9-0.9-1.3-1.3c-0.9-0.9-1.7-1.9-2.5-2.8c-1.4-2.1-2.8-4.2-3.7-6.6l-0.4-0.9l-0.3-0.9l-0.6-1.8l-0.4-1.9
	l-0.2-0.9l-0.1-1c-0.1-0.6-0.1-1.3-0.2-1.9l0-1.9c0-0.6,0-1.3,0.1-1.9c0.1-0.6,0.1-1.3,0.2-1.9l0.4-1.9c0.1-0.3,0.1-0.6,0.2-1
	l0.3-0.9l0.6-1.9l0.7-1.8c1-2.4,2.3-4.6,3.8-6.7c6.1-8.5,16.2-14,26.9-14.6c5.3-0.3,10.8,0.7,15.8,2.8c5,2.1,9.5,5.1,13.3,8.8
	c7.7,7.5,12.5,18.1,12.9,29.2c0.2,5.5-0.6,11.1-2.4,16.4c-0.5,1.3-1,2.6-1.6,3.9c-0.6,1.3-1.3,2.4-1.9,3.6c-0.3,0.6-0.6,1.2-1,1.8
	l-1.1,1.7c-0.8,1.1-1.5,2.3-2.4,3.3c-3.4,4.4-7.6,8.1-12.2,11.1c-4.7,3-9.8,5.4-15.2,6.8c-5.4,1.4-11.1,1.9-16.7,1.6
	c-5.7-0.3-11.3-1.7-16.5-3.8l-2-0.8l-1-0.4l-0.9-0.5l-3.7-2l-0.9-0.5l-0.9-0.6l-1.7-1.2l-1.7-1.2l-0.9-0.6l-0.8-0.7l-3.2-2.7
	c-0.6-0.4-1-0.9-1.5-1.4l-1.5-1.5c-2-1.9-3.7-4.2-5.5-6.4c-0.8-1.2-1.6-2.3-2.3-3.5c-0.4-0.6-0.8-1.2-1.1-1.8l-1-1.9
	c-0.6-1.3-1.3-2.5-1.9-3.8l-1.6-3.9c-1.9-5.3-3.4-10.9-3.8-16.6l-0.2-2.1c0-0.7,0-1.4,0-2.2c0-1.4,0-2.9,0-4.3l0.4-4.3
	c0.1-0.7,0.1-1.4,0.3-2.1l0.4-2.1c0.9-5.7,3-11.2,5.4-16.4c5-10.1,12.3-19.2,21.5-26.1c9.1-6.9,19.9-11.7,31.2-13.9
	c5.7-1.1,11.5-1.5,17.3-1.3c5.8,0.2,11.6,1.2,17.3,2.8c2.8,0.8,5.6,1.8,8.3,2.9c1.4,0.6,2.7,1.2,4,1.8l3.8,1.9
	c5,2.7,9.8,5.9,14.2,9.6c8.8,7.3,16.1,16.6,21.1,27c5.1,10.3,7.9,21.7,8.5,33.2c0.6,11.5-0.9,23.1-4.6,33.9c-0.5,1.3-1,2.7-1.5,4
	c-0.6,1.3-1.1,2.6-1.7,3.9c-0.6,1.3-1.2,2.6-1.9,3.9l-2,3.7c-2.8,4.8-5.9,9.4-9.4,13.8c-7,8.7-15.6,16.1-25.1,21.9
	c-9.5,5.8-20,10-30.9,12.5c-10.9,2.4-22.2,3-33.3,1.7c-11.1-1.3-22-4.5-31.9-9.4l-1.9-0.9c-0.6-0.3-1.2-0.6-1.8-1l-3.6-2
	c-2.3-1.4-4.7-2.8-6.9-4.4c-4.5-3-8.8-6.5-12.8-10.1c-4.1-3.6-7.8-7.7-11.3-11.8c-3.5-4.2-6.6-8.7-9.5-13.3
	c-11.3-18.6-17.2-40.4-16.8-62.2c0.2-10.9,2-21.8,5.3-32.1l0.6-1.9l0.7-1.9c0.5-1.3,0.9-2.6,1.4-3.8c1.1-2.5,2.1-5,3.3-7.5
	c0.6-1.2,1.2-2.5,1.8-3.6l1.9-3.5l1-1.7l1-1.7l2.1-3.4c5.7-9,12.6-17.2,20.4-24.6c7.7-7.4,16.4-13.7,25.7-19
	c18.5-10.5,39.6-16.4,60.9-17.2c21.3-0.7,42.8,3.8,61.9,13.1c1.2,0.6,2.4,1.1,3.6,1.8l3.4,1.9c1.1,0.6,2.3,1.2,3.4,1.9l3.3,2
	c1.1,0.7,2.2,1.3,3.3,2.1l3.2,2.2c2.2,1.4,4.3,3,6.3,4.6c8.3,6.4,15.9,13.7,22.7,21.6c6.8,8,12.8,16.6,17.8,25.8
	c5,9.2,9.1,18.9,12.1,28.9c6.1,20,8.1,41.3,5.7,62.1c-1.2,10.4-3.5,20.7-6.8,30.6c-0.9,2.5-1.8,4.9-2.7,7.4l-3,7.2l-3.4,7.1
	l-3.7,6.8c-10.2,17.8-23.4,34.1-39.2,47.4c-15.7,13.3-33.8,23.9-53.1,31c-19.3,7.2-39.9,10.9-60.5,11.1c-10.3,0.1-20.6-0.7-30.8-2.5
	c-10.2-1.8-20.2-4.4-29.8-7.9c-4.9-1.7-9.6-3.7-14.3-5.8l-6.9-3.4l-6.7-3.6c-8.8-5-17.4-10.5-25.4-16.8l-3-2.3L288,496
	c-1.9-1.7-3.9-3.2-5.8-5l-5.6-5.2c-1.9-1.7-3.6-3.6-5.4-5.4c-7-7.4-13.6-15.2-19.4-23.5c-11.7-16.6-20.9-35-27.3-54.2
	c-3.1-9.7-5.6-19.5-7.4-29.5c-1.7-10-2.7-20.1-3-30.3c-0.2-10.2,0.4-20.3,1.6-30.4c1.3-10.1,3.4-20.1,6.1-29.9
	c2.8-9.8,6.3-19.3,10.4-28.6c2.2-4.5,4.3-9.2,6.8-13.6l3.6-6.6l3.9-6.4c2.5-4.3,5.5-8.4,8.3-12.5l1.1-1.5l1.1-1.5l2.3-3l2.3-3
	c0.8-1,1.5-2,2.3-3l4.9-5.8c0.8-0.9,1.6-1.9,2.5-2.9l2.6-2.8l5.2-5.5l5.4-5.2l2.7-2.6l2.8-2.5l5.7-5c1.9-1.6,3.9-3.1,5.9-4.7
	c2-1.6,3.9-3.1,6-4.6l6.1-4.4c2-1.5,4.2-2.8,6.3-4.1c4.2-2.8,8.6-5.2,12.9-7.8c1.1-0.6,2.2-1.2,3.3-1.8l3.3-1.7l3.3-1.7l1.7-0.9
	l1.7-0.8l6.8-3.1l1.7-0.8l1.7-0.7l3.5-1.4c9.3-3.8,18.9-6.9,28.5-9.5c4.9-1.2,9.7-2.5,14.7-3.3c2.5-0.5,4.9-1,7.4-1.4l7.5-1.1
	c1.2-0.2,2.5-0.4,3.7-0.5l3.7-0.4c2.5-0.2,5-0.5,7.5-0.7l7.5-0.4c1.3-0.1,2.5-0.1,3.8-0.2l3.8,0l7.5,0l7.5,0.4l3.8,0.2
	c1.3,0.1,2.5,0.2,3.7,0.4l7.5,0.7c9.9,1.3,19.9,3,29.6,5.6c9.8,2.3,19.3,5.6,28.7,9.1l6.9,2.9l3.5,1.5c1.2,0.5,2.3,1.1,3.4,1.6
	l6.8,3.3c0.6,0.3,1.1,0.5,1.7,0.8l1.6,0.9l3.3,1.8c35,18.8,65.9,45.3,89.9,77c23.9,31.8,40.9,68.7,49.6,107.5
	c8.6,38.8,8.8,79.5,0.5,118.4c-4.2,19.4-10.4,38.5-18.6,56.5c-2.2,4.5-4.3,9-6.5,13.4l-7.1,13c-2.5,4.2-5.1,8.4-7.7,12.6
	c-1.2,2.1-2.7,4.1-4.1,6.2l-4.2,6.1c-22.7,32.2-51.3,60.3-84,82.3c-32.7,22.1-69.5,37.9-107.8,46.8c-38.4,8.9-78.4,10.8-117.4,5.4
	c-19.5-2.7-38.8-7.1-57.5-13.3c-18.7-6.2-36.9-14.2-54-23.6l-6.4-3.5l-3.2-1.8l-3.1-1.9l-12.5-7.7c-2.1-1.3-4.1-2.7-6.1-4.1
	l-6.1-4.1c-4.1-2.7-8-5.7-11.9-8.6c-3.9-2.9-7.9-5.8-11.6-9c-3.8-3.1-7.6-6.2-11.3-9.4c-3.6-3.3-7.2-6.7-10.7-10
	c-0.9-0.9-1.8-1.7-2.6-2.5l-2.5-2.7l-5-5.4l-5-5.4l-4.7-5.7l-4.7-5.7l-2.3-2.8l-2.2-2.9l-8.8-11.7l-8.2-12.1
	c-10.6-16.4-20-33.4-28-51.1c-15.6-35.5-26.3-73-30.3-111.3c-1.2-9.5-1.6-19.1-2.2-28.7l-0.2-14.4c-0.1-2.4,0.1-4.8,0.1-7.2l0.3-7.2
	c0.1-2.4,0.1-4.8,0.3-7.1l0.6-7.1c0.4-4.7,0.7-9.5,1.5-14.2c0.7-4.7,1.2-9.4,2-14.1l2.6-14c4-18.6,9.2-36.8,15.8-54.5
	c1.7-4.4,3.6-8.7,5.3-13.1c1.7-4.4,3.8-8.6,5.8-12.9C83.3,169.7,88,161.5,92.4,153.2z"/>
</svg>
