<?xml version="1.0" encoding="utf-8"?>
<!-- Generator: Adobe Illustrator 23.0.3, SVG Export Plug-In . SVG Version: 6.00 Build 0)  -->
<svg version="1.1" id="Layer_1" xmlns="http://www.w3.org/2000/svg" xmlns:xlink="http://www.w3.org/1999/xlink" x="0px" y="0px"
	 viewBox="0 0 816 816" style="enable-background:new 0 0 816 816;" xml:space="preserve">
<style type="text/css">
	.st0{fill:#FFDC35;}
</style>
<path class="st0" d="M420.7,242.4l37.8,76.6c2.1,4.2,6,7.1,10.6,7.7l84.6,12.3c11.6,1.7,16.2,15.9,7.8,24.1l-61.2,59.7
	c-3.3,3.2-4.8,7.9-4.1,12.5l14.4,84.2c2,11.5-10.1,20.3-20.5,14.9l-75.6-39.8c-4.1-2.2-9-2.2-13.1,0l-75.6,39.8
	c-10.4,5.4-22.5-3.3-20.5-14.9l14.4-84.2c0.8-4.6-0.7-9.2-4.1-12.5l-61.2-59.7c-8.4-8.2-3.8-22.4,7.8-24.1l84.6-12.3
	c4.6-0.7,8.6-3.6,10.6-7.7l37.8-76.6C400.5,231.9,415.5,231.9,420.7,242.4z"/>
</svg>
