<?xml version="1.0" encoding="utf-8"?>
<!-- Generator: Adobe Illustrator 23.0.3, SVG Export Plug-In . SVG Version: 6.00 Build 0)  -->
<svg version="1.1" id="Layer_1" xmlns="http://www.w3.org/2000/svg" xmlns:xlink="http://www.w3.org/1999/xlink" x="0px" y="0px"
	 viewBox="0 0 816 816" style="enable-background:new 0 0 816 816;" xml:space="preserve">
<style type="text/css">
	.st0{fill:#FFFFFF;}
	.st1{fill:#4A5254;}
	.st2{fill:#858B8C;}
</style>
<g>
	<g>
		<g>
			<circle class="st0" cx="219.5" cy="348" r="118"/>
			<circle cx="219.5" cy="348" r="49.5"/>
		</g>
		<g>
			<circle class="st0" cx="585.5" cy="348" r="118"/>
			<circle cx="585.5" cy="348" r="49.5"/>
		</g>
		<path d="M467,431.4c0,6.9-64.7,25.2-64.7,25.2S336,438.3,336,431.4s29.3-12.4,65.5-12.4S467,424.6,467,431.4z"/>
	</g>
	<path class="st1" d="M232.4,51.8c-23.3,10.7-43.6,37.6-43.6,37.6l-23.3,38l-12.6,30.6l50.8-62.5l28.4-30.6l-2.5,44.4l-7.4,52.6
		l-6.9,26.7l25.4-61.5l5-56.6l-8.5-26.4L232.4,51.8z"/>
	<path class="st1" d="M552.1,44.8c23.3,10.7,43.6,37.6,43.6,37.6l23.3,38l12.6,30.6l-50.8-62.5l-28.4-30.6l2.5,44.4l7.4,52.6
		l6.9,26.7l-25.4-61.5l-5-56.6l8.5-26.4L552.1,44.8z"/>
	<path class="st0" d="M115,691c74.9,77.8,178.5,126,293,126c119.7,0,227.5-52.6,303-136.7C683.4,570.7,561,488,414.2,488
		C262.6,488,137.1,576.1,115,691z"/>
	<g>
		<g>
			<path d="M671.8,478.5c3.4-3.2,7-5.8,10.7-8.2c3.7-2.4,7.5-4.6,11.4-6.6c3.9-2,7.9-3.7,12-5.1c4.1-1.4,8.3-2.7,12.4-4.2l12.3-4.4
				l12.4-4.3c8.3-2.8,16.5-5.6,24.9-8.2l0.4,1c-7.7,4.2-15.4,8.2-23.1,12.3l-11.6,6l-11.7,5.8c-3.9,1.9-7.7,4-11.6,6.1
				c-3.9,2-7.8,3.8-12,5.2c-4.1,1.4-8.3,2.6-12.6,3.6c-4.3,1-8.7,1.8-13.3,2.1L671.8,478.5z"/>
		</g>
		<g>
			<path d="M651.8,505c4.7-1.8,9.5-3,14.3-4.1c4.8-1,9.6-1.8,14.4-2.4c4.8-0.6,9.6-0.8,14.5-0.7c4.8,0.1,9.7,0.3,14.5,0.3l14.5,0
				l14.5,0.2c9.7,0.2,19.4,0.3,29,0.7l0.1,1.1c-9.6,1.4-19.2,2.5-28.8,3.7l-14.4,1.7l-14.4,1.5c-4.8,0.5-9.6,1.2-14.4,1.8
				c-4.8,0.6-9.6,0.9-14.5,0.8c-4.8-0.1-9.7-0.3-14.5-0.9c-4.9-0.5-9.7-1.3-14.6-2.6L651.8,505z"/>
		</g>
		<g>
			<path d="M652.5,527.2c4.6-0.5,9.1-0.4,13.5-0.1c4.4,0.3,8.8,0.9,13,1.6c4.3,0.7,8.5,1.8,12.6,3.2c4.1,1.4,8.2,2.9,12.4,4.2
				l12.5,3.9l12.4,4.1c8.3,2.8,16.5,5.5,24.8,8.5l-0.3,1.1c-8.6-1.3-17.2-2.8-25.8-4.2l-12.9-2.3l-12.8-2.5
				c-4.3-0.8-8.6-1.5-12.9-2.2c-4.3-0.7-8.5-1.7-12.7-3.1c-4.1-1.4-8.2-2.9-12.3-4.7c-4-1.8-8-3.8-11.8-6.4L652.5,527.2z"/>
		</g>
	</g>
	<g>
		<g>
			<path d="M154.6,477.5c-4.6-0.3-9-1.1-13.3-2.1c-4.3-1-8.5-2.2-12.6-3.6c-4.1-1.4-8.1-3.1-12-5.2c-3.9-2.1-7.7-4.2-11.6-6.1
				l-11.7-5.8l-11.6-6c-7.7-4-15.5-8.1-23.1-12.3l0.4-1c8.3,2.6,16.6,5.4,24.9,8.2l12.4,4.3l12.3,4.4c4.1,1.5,8.3,2.8,12.4,4.2
				c4.1,1.4,8.2,3.1,12,5.1c3.9,2,7.7,4.2,11.4,6.6c3.7,2.4,7.3,5,10.7,8.2L154.6,477.5z"/>
		</g>
		<g>
			<path d="M175,504c-4.9,1.3-9.8,2-14.6,2.6c-4.9,0.5-9.7,0.8-14.5,0.9c-4.8,0.1-9.7-0.2-14.5-0.8c-4.8-0.6-9.6-1.3-14.4-1.8
				l-14.4-1.5l-14.4-1.7c-9.6-1.2-19.2-2.3-28.8-3.7l0.1-1.1c9.7-0.4,19.4-0.5,29-0.7l14.5-0.2l14.5,0c4.8,0,9.7-0.2,14.5-0.3
				c4.8-0.1,9.7,0.1,14.5,0.7c4.8,0.6,9.6,1.3,14.4,2.4c4.8,1,9.6,2.3,14.3,4.1L175,504z"/>
		</g>
		<g>
			<path d="M174.6,526.3c-3.8,2.6-7.8,4.6-11.8,6.4c-4,1.8-8.1,3.4-12.3,4.7c-4.1,1.4-8.4,2.4-12.7,3.1c-4.3,0.7-8.6,1.3-12.9,2.2
				l-12.8,2.5l-12.9,2.3c-8.6,1.5-17.2,2.9-25.8,4.2l-0.3-1.1c8.2-3,16.5-5.7,24.8-8.5l12.4-4.1l12.5-3.9c4.2-1.3,8.3-2.8,12.4-4.2
				c4.1-1.4,8.3-2.5,12.6-3.2c4.3-0.7,8.6-1.3,13-1.6c4.4-0.3,8.9-0.4,13.5,0.1L174.6,526.3z"/>
		</g>
	</g>
	<g>
		<path class="st2" d="M315.3,583.9c-1-2.3-2.1-4.5-3.3-6.5c-2.4-4.1-5.4-7.8-8.6-11.1c-3.2-3.3-6.8-6.3-10.9-8.9
			c-4-2.5-8.3-4.7-13.7-5.8c0.1-0.2,0.1-0.4,0.2-0.6c-6.1,1-11.2,3.2-16,5.7c-4.8,2.6-9.2,5.6-13.3,9c-4.1,3.4-7.8,7.2-11.2,11.5
			c-1.7,2.1-3.3,4.4-4.7,6.8c-1.4,2.4-2.8,5-3.8,7.9c3.1-0.5,5.8-1.3,8.5-2.3c2.6-1,5.1-2.1,7.5-3.4c4.8-2.6,9.2-5.6,13.3-9
			c4.1-3.4,7.9-7.2,11.2-11.5c3.1-4.1,6-8.4,8.1-13.8c1,5.3,3.1,9.6,5.4,13.6c2.5,4.1,5.4,7.8,8.6,11.1c3.3,3.3,6.9,6.3,10.9,8.9
			c2,1.3,4.2,2.4,6.5,3.5c2.3,1,4.7,1.9,7.5,2.4C317,588.7,316.2,586.3,315.3,583.9z"/>
	</g>
	<g>
		<path class="st2" d="M444.3,571.9c-1-2.3-2.1-4.5-3.3-6.5c-2.4-4.1-5.4-7.8-8.6-11.1c-3.2-3.3-6.8-6.3-10.9-8.9
			c-4-2.5-8.3-4.7-13.7-5.8c0.1-0.2,0.1-0.4,0.2-0.6c-6.1,1-11.2,3.2-16,5.7c-4.8,2.6-9.2,5.6-13.3,9c-4.1,3.4-7.8,7.2-11.2,11.5
			c-1.7,2.1-3.3,4.4-4.7,6.8c-1.4,2.4-2.8,5-3.8,7.9c3.1-0.5,5.8-1.3,8.5-2.3c2.6-1,5.1-2.1,7.5-3.4c4.8-2.6,9.2-5.6,13.3-9
			c4.1-3.4,7.9-7.2,11.2-11.5c3.1-4.1,6-8.4,8.1-13.8c1,5.3,3.1,9.6,5.4,13.6c2.5,4.1,5.4,7.8,8.6,11.1c3.3,3.3,6.9,6.3,10.9,8.9
			c2,1.3,4.2,2.4,6.5,3.5c2.3,1,4.7,1.9,7.5,2.4C446,576.7,445.2,574.3,444.3,571.9z"/>
	</g>
	<g>
		<path class="st2" d="M565.3,583.9c-1-2.3-2.1-4.5-3.3-6.5c-2.4-4.1-5.4-7.8-8.6-11.1c-3.2-3.3-6.8-6.3-10.9-8.9
			c-4-2.5-8.3-4.7-13.7-5.8c0.1-0.2,0.1-0.4,0.2-0.6c-6.1,1-11.2,3.2-16,5.7c-4.8,2.6-9.2,5.6-13.3,9c-4.1,3.4-7.8,7.2-11.2,11.5
			c-1.7,2.1-3.3,4.4-4.7,6.8c-1.4,2.4-2.8,5-3.8,7.9c3.1-0.5,5.8-1.3,8.5-2.3c2.6-1,5.1-2.1,7.5-3.4c4.8-2.6,9.2-5.6,13.3-9
			c4.1-3.4,7.9-7.2,11.2-11.5c3.1-4.1,6-8.4,8.1-13.8c1,5.3,3.1,9.6,5.4,13.6c2.5,4.1,5.4,7.8,8.6,11.1c3.3,3.3,6.9,6.3,10.9,8.9
			c2,1.3,4.2,2.4,6.5,3.5c2.3,1,4.7,1.9,7.5,2.4C567,588.7,566.2,586.3,565.3,583.9z"/>
	</g>
	<g>
		<path class="st2" d="M384.3,645.9c-1-2.3-2.1-4.5-3.3-6.5c-2.4-4.1-5.4-7.8-8.6-11.1c-3.2-3.3-6.8-6.3-10.9-8.9
			c-4-2.5-8.3-4.7-13.7-5.8c0.1-0.2,0.1-0.4,0.2-0.6c-6.1,1-11.2,3.2-16,5.7c-4.8,2.6-9.2,5.6-13.3,9c-4.1,3.4-7.8,7.2-11.2,11.5
			c-1.7,2.1-3.3,4.4-4.7,6.8c-1.4,2.4-2.8,5-3.8,7.9c3.1-0.5,5.8-1.3,8.5-2.3c2.6-1,5.1-2.1,7.5-3.4c4.8-2.6,9.2-5.6,13.3-9
			c4.1-3.4,7.9-7.2,11.2-11.5c3.1-4.1,6-8.4,8.1-13.8c1,5.3,3.1,9.6,5.4,13.6c2.5,4.1,5.4,7.8,8.6,11.1c3.3,3.3,6.9,6.3,10.9,8.9
			c2,1.3,4.2,2.4,6.5,3.5c2.3,1,4.7,1.9,7.5,2.4C386,650.7,385.2,648.3,384.3,645.9z"/>
	</g>
	<g>
		<path class="st2" d="M508.3,645.9c-1-2.3-2.1-4.5-3.3-6.5c-2.4-4.1-5.4-7.8-8.6-11.1c-3.2-3.3-6.8-6.3-10.9-8.9
			c-4-2.5-8.3-4.7-13.7-5.8c0.1-0.2,0.1-0.4,0.2-0.6c-6.1,1-11.2,3.2-16,5.7c-4.8,2.6-9.2,5.6-13.3,9c-4.1,3.4-7.8,7.2-11.2,11.5
			c-1.7,2.1-3.3,4.4-4.7,6.8c-1.4,2.4-2.8,5-3.8,7.9c3.1-0.5,5.8-1.3,8.5-2.3c2.6-1,5.1-2.1,7.5-3.4c4.8-2.6,9.2-5.6,13.3-9
			c4.1-3.4,7.9-7.2,11.2-11.5c3.1-4.1,6-8.4,8.1-13.8c1,5.3,3.1,9.6,5.4,13.6c2.5,4.1,5.4,7.8,8.6,11.1c3.3,3.3,6.9,6.3,10.9,8.9
			c2,1.3,4.2,2.4,6.5,3.5c2.3,1,4.7,1.9,7.5,2.4C510,650.7,509.2,648.3,508.3,645.9z"/>
	</g>
</g>
</svg>
