<?xml version="1.0" encoding="utf-8"?>
<!-- Generator: Adobe Illustrator 23.0.3, SVG Export Plug-In . SVG Version: 6.00 Build 0)  -->
<svg version="1.1" id="Layer_1" xmlns="http://www.w3.org/2000/svg" xmlns:xlink="http://www.w3.org/1999/xlink" x="0px" y="0px"
	 viewBox="0 0 815.9 816" style="enable-background:new 0 0 815.9 816;" xml:space="preserve">
<style type="text/css">
	.st0{fill:#006212;}
	.st1{fill:#C20086;}
</style>
<g>
	<path class="st0" d="M270.37,619.31c-8.71-0.3-17.11,0.05-25.04,0.96c-2.47,0.12-4.97,0.14-7.52,0.03
		c-29.7-1.21-53.59-17.37-56.34-37.09c-0.36,1.66-0.58,3.36-0.65,5.09c-0.59,14.61,9.64,27.81,25.35,35.34
		c-29.4-1.42-52.96-17.47-55.69-37.06c-0.36,1.66-0.58,3.36-0.65,5.09c-0.89,21.9,22.51,40.63,52.27,41.84c0.03,0,0.06,0,0.1,0
		c-10.03,6.17-16.08,13.94-16.38,22.57c-0.06,1.66,0.1,3.31,0.46,4.93c4.18-14.58,23.93-26.09,50.2-30.27
		c6.17-0.98,12.7-1.56,19.47-1.68c-7.14,5.13-12.43,14.32-13.95,25.27c1.05,17.48,12.66,31.45,27.4,32.05
		c9.27,0.38,17.73-4.62,23.35-12.69c1.32-3.9,2.14-8.17,2.32-12.66c0.5-12.19-3.76-23.12-10.64-29.74
		c32.35,5.78,55.68,21.95,55.04,40.17c-0.18,5.05-2.18,9.82-5.68,14.15c11.2-6.34,18.03-14.55,18.35-23.73
		C352.92,639.96,316.3,620.91,270.37,619.31z"/>
	<path class="st0" d="M537.04,630.16c8.7,0.4,17.05,1.44,24.88,2.99c2.45,0.32,4.95,0.54,7.49,0.64
		c29.7,1.21,54.82-12.96,59.16-32.4c0.22,1.68,0.31,3.39,0.24,5.12c-0.59,14.61-11.87,26.94-28.14,33.16
		c29.42,0.98,54.2-13.12,58.51-32.41c0.22,1.68,0.31,3.39,0.24,5.12c-0.89,21.9-25.74,38.67-55.5,37.46c-0.03,0-0.06,0-0.1-0.01
		c9.49,6.96,14.9,15.2,14.5,23.82c-0.08,1.66-0.37,3.29-0.86,4.87c-2.99-14.87-21.73-27.95-47.58-34.25
		c-6.07-1.48-12.53-2.58-19.27-3.25c6.7,5.69,11.23,15.29,11.85,26.32c-2.47,17.34-15.18,30.32-29.91,29.72
		c-9.27-0.38-17.3-6.04-22.25-14.54c-1-4-1.46-8.32-1.28-12.81c0.5-12.19,5.63-22.74,13.02-28.78
		c-32.71,3.13-57.28,17.36-58.12,35.57c-0.23,5.05,1.38,9.96,4.52,14.56c-10.65-7.23-16.79-15.97-16.37-25.14
		C453.09,644.04,491.13,628.02,537.04,630.16z"/>
	<path class="st0" d="M452.17,734.67c-19.8,0-36.64,6.72-42.87,16.1c-6.23-9.38-23.07-16.1-42.87-16.1
		c-21.33,0-39.23,7.8-44.13,18.33h2.72c6.81-10.12,29.01-13.69,52.95-7.84c11.46,2.8,21.44,7.3,28.8,12.54
		c-0.03,0.37-0.05,0.73-0.05,1.1c0,0.94,0.1,1.86,0.3,2.77c0.72-0.66,1.48-1.31,2.28-1.96c0.8,0.64,1.56,1.3,2.28,1.96
		c0.2-0.91,0.3-1.83,0.3-2.77c0-0.37-0.02-0.74-0.05-1.1c7.36-5.24,17.35-9.74,28.8-12.54c23.94-5.85,46.14-2.28,52.95,7.84h2.72
		C491.4,742.47,473.5,734.67,452.17,734.67z"/>
	<path class="st0" d="M399.49,780.31c17.47,2.51,33.37-0.61,41.93-7.27c1.7-3.25,4.01-6.18,6.73-8.67c-0.15-0.14-0.3-0.28-0.45-0.41
		c0.08-0.36,0.15-0.72,0.21-1.09c0.13-0.93,0.16-1.85,0.1-2.78c-0.81,0.55-1.65,1.09-2.54,1.61c-0.7-0.75-1.36-1.51-1.98-2.26
		c-0.32,0.87-0.56,1.77-0.69,2.7c-0.05,0.37-0.09,0.73-0.11,1.1c-8.03,4.14-18.55,7.18-30.29,8.33c-24.53,2.39-46-4.29-51.3-15.28
		l-2.69-0.39C361.76,767.02,378.37,777.29,399.49,780.31z"/>
	<g>
		<path class="st1" d="M6,472.5c8.89,2.36,17.77,4.73,26.69,6.95c8.9,2.27,17.82,4.47,26.76,6.56c8.94,2.07,17.88,4.15,26.84,6.11
			c8.95,1.97,17.95,3.8,26.95,5.67c17.98,3.78,35.94,7.61,53.93,10.78l6.74,1.17c2.25,0.39,4.5,0.71,6.74,1.09
			c4.49,0.77,8.99,1.35,13.48,1.97c8.98,1.09,17.96,1.97,26.89,2.19c8.93,0.19,17.8-0.2,26.55-1.36c2.18-0.34,4.37-0.6,6.54-0.99
			l6.49-1.27c4.33-0.95,8.65-2.08,12.94-3.3c4.29-1.24,8.54-2.62,12.76-4.09c4.21-1.51,8.39-3.08,12.52-4.78
			c4.12-1.72,8.21-3.5,12.19-5.47c2.02-0.94,3.97-2,5.95-2.99c1.94-1.07,3.91-2.08,5.81-3.21c7.66-4.4,14.95-9.32,21.49-14.9
			c3.27-2.78,6.28-5.79,9.03-8.93c2.76-3.13,5.14-6.49,7.07-9.98c1.92-3.49,3.41-7.12,4.28-10.83l0.54-2.8l0.28-2.82
			c0.1-0.94,0.04-1.89,0.08-2.83c-0.06-0.95-0.08-1.89-0.18-2.84c-0.39-3.79-1.38-7.59-2.84-11.31c-1.47-3.72-3.45-7.33-5.73-10.83
			c-4.56-7.01-10.41-13.45-16.81-19.4c-3.2-2.98-6.56-5.83-10.03-8.58c-1.74-1.38-3.5-2.73-5.31-4.09c-1.83-1.38-3.6-2.68-5.39-3.97
			c-3.56-2.56-7.21-4.91-10.97-7.07c-3.75-2.16-7.61-4.13-11.57-5.82c-3.94-1.76-8.01-3.15-12.11-4.43
			c-4.13-1.14-8.3-2.19-12.53-2.82l-3.17-0.49c-1.06-0.17-2.13-0.21-3.19-0.32l-3.2-0.29l-3.21-0.09l-3.21-0.09
			c-1.06,0.01-2.15,0.03-3.23,0.07c-2.18,0.08-4.36,0.22-6.55,0.4c-8.73,0.76-17.43,2.2-25.61,4.72
			c-8.16,2.49-15.83,6.22-21.57,11.5c-2.86,2.64-5.12,5.7-6.7,9.1c-0.83,1.68-1.36,3.49-1.84,5.31c-0.35,1.85-0.67,3.73-0.67,5.68
			c-0.14,3.88,0.53,7.9,1.63,11.92c0.57,2.01,1.25,4.03,2.02,6.05c0.39,1.01,0.8,2.03,1.22,3.06l0.65,1.57l0.64,1.47
			c3.5,7.79,8.39,15.17,14.13,21.58c5.77,6.4,12.64,11.8,20.41,15.07c3.86,1.67,7.96,2.7,12.12,3.19c2.09,0.2,4.19,0.3,6.3,0.21
			c2.12-0.08,4.26-0.32,6.39-0.66c4.26-0.68,8.48-1.84,12.48-3.47c3.99-1.64,7.78-3.77,10.99-6.49c3.2-2.71,5.77-6.08,7.11-9.92
			c1.36-3.83,1.42-8.15,0.49-12.33c-0.92-4.19-2.83-8.22-5.32-11.88c-2.48-3.67-5.59-6.94-9.04-9.83
			c-6.92-5.8-15.37-9.76-24.24-12.13c9.06,1.52,17.95,4.9,25.62,10.33c3.81,2.74,7.32,5.97,10.26,9.73
			c2.94,3.74,5.36,8.01,6.75,12.73c1.39,4.69,1.75,9.92,0.29,14.88c-1.41,4.95-4.41,9.31-8.02,12.73c-3.63,3.44-7.82,6.09-12.21,8.2
			c-4.4,2.1-9.02,3.65-13.79,4.69c-4.75,1.05-9.74,1.49-14.74,1.18c-4.98-0.35-9.94-1.39-14.6-3.16
			c-9.39-3.47-17.56-9.4-24.39-16.32c-6.86-6.95-12.48-14.94-16.81-23.78l-0.79-1.67l-0.72-1.59c-0.49-1.08-0.97-2.18-1.44-3.3
			c-0.93-2.24-1.8-4.56-2.56-6.94c-1.47-4.79-2.53-9.9-2.53-15.22c-0.07-2.65,0.26-5.35,0.7-8.01c0.58-2.65,1.3-5.29,2.4-7.78
			c2.12-5.01,5.31-9.56,9.09-13.28c3.79-3.72,8.09-6.68,12.52-9.12c4.44-2.45,9.06-4.34,13.72-5.9c9.33-3.1,18.84-4.9,28.4-5.86
			c2.39-0.24,4.79-0.43,7.2-0.56c1.21-0.07,2.42-0.11,3.66-0.14l3.68,0.03l3.68,0.05l3.67,0.27c1.22,0.11,2.45,0.15,3.67,0.32
			l3.65,0.5c4.87,0.66,9.65,1.77,14.38,3.04c4.69,1.41,9.34,2.95,13.82,4.9c4.51,1.87,8.87,4.05,13.11,6.43
			c4.24,2.37,8.34,4.97,12.27,7.74c1.96,1.38,3.89,2.8,5.73,4.18c1.87,1.4,3.76,2.83,5.63,4.31c3.73,2.95,7.4,6.03,10.94,9.3
			c3.55,3.26,6.96,6.71,10.2,10.38c3.24,3.66,6.3,7.56,9.03,11.77c2.73,4.21,5.18,8.69,7.08,13.53c1.89,4.83,3.25,10.01,3.78,15.36
			c0.13,1.34,0.17,2.69,0.24,4.04c-0.04,1.35,0,2.71-0.12,4.06c-0.13,1.35-0.26,2.7-0.42,4.04l-0.77,3.97
			c-1.25,5.24-3.29,10.19-5.85,14.7c-2.56,4.52-5.59,8.67-8.93,12.4c-3.34,3.74-6.89,7.21-10.65,10.34
			c-7.5,6.29-15.57,11.61-23.93,16.21c-2.07,1.19-4.21,2.24-6.31,3.36c-2.14,1.04-4.25,2.13-6.41,3.1
			c-4.29,2.03-8.66,3.85-13.05,5.6c-4.4,1.74-8.84,3.33-13.33,4.81c-4.49,1.45-9.02,2.8-13.58,4.02c-4.57,1.2-9.18,2.28-13.84,3.2
			l-7.07,1.22c-2.36,0.38-4.75,0.59-7.12,0.88c-9.51,0.96-19.06,1.06-28.49,0.56c-18.87-1.16-37.24-4.46-55.3-8.47
			c-18.06-4.03-35.89-8.61-53.69-13.25c-17.76-4.71-35.6-9.49-53.19-14.92c-8.8-2.7-17.58-5.49-26.31-8.39
			C23.33,478.67,14.63,475.69,6,472.5z"/>
	</g>
	<g>
		<path class="st1" d="M802,477.5c-8.84,3.17-17.75,6.14-26.68,9.07c-8.94,2.88-17.92,5.66-26.93,8.34
			c-18,5.4-36.25,10.16-54.41,14.84c-18.21,4.61-36.44,9.17-54.89,13.19c-4.63,0.96-9.22,2.02-13.89,2.85l-6.99,1.3l-7.03,1.16
			c-9.4,1.45-18.87,2.74-28.49,3.28c-9.6,0.58-19.32,0.59-29.03-0.22l-7.26-0.82c-2.42-0.29-4.81-0.77-7.22-1.15
			c-4.81-0.8-9.5-1.86-14.19-3.02c-4.68-1.16-9.32-2.44-13.92-3.87c-2.31-0.69-4.59-1.46-6.87-2.21c-2.27-0.81-4.55-1.57-6.8-2.44
			c-9.04-3.35-17.9-7.24-26.53-11.71c-8.61-4.51-16.99-9.64-24.82-15.79c-7.82-6.13-15.14-13.34-20.88-22.22
			c-2.84-4.44-5.15-9.39-6.67-14.67c-1.5-5.27-2.19-10.89-1.84-16.42c0.14-2.77,0.59-5.48,1.14-8.15c0.64-2.64,1.38-5.24,2.35-7.72
			c1.89-4.99,4.34-9.64,7.16-13.92c5.64-8.59,12.5-15.92,19.77-22.53c3.65-3.29,7.41-6.42,11.26-9.38c1.92-1.48,3.86-2.93,5.8-4.34
			c1.92-1.39,3.85-2.8,5.88-4.19c16.12-11.15,34.83-19.47,54.63-22.4c4.94-0.72,9.92-1.19,14.91-1.27c2.49-0.01,5-0.11,7.48,0.03
			c2.47,0.1,4.91,0.27,7.35,0.49c9.74,0.88,19.43,2.56,28.98,5.48c4.77,1.48,9.49,3.28,14.08,5.57c4.58,2.29,9.06,5.09,13.06,8.68
			c3.99,3.58,7.58,7.91,10,12.94c2.43,5,3.78,10.57,3.92,16.03c0.12,5.47-0.8,10.78-2.32,15.69c-1.5,4.95-3.56,9.47-5.64,13.81
			c-2.21,4.54-4.8,8.79-7.69,12.83c-2.88,4.04-6.12,7.82-9.65,11.33c-7.04,7-15.44,12.91-24.98,16.42
			c-4.75,1.77-9.78,2.85-14.85,3.22c-5.07,0.38-10.16-0.04-15.01-1.03c-4.86-0.99-9.59-2.49-14.12-4.53
			c-4.51-2.04-8.85-4.62-12.65-8c-1.89-1.69-3.64-3.59-5.13-5.7c-1.48-2.12-2.69-4.48-3.48-6.98c-1.64-5.02-1.39-10.42,0.06-15.21
			c1.43-4.83,3.95-9.16,7-12.94c3.05-3.8,6.69-7.03,10.61-9.77c7.92-5.42,17.02-8.75,26.28-10.26c-9.07,2.35-17.76,6.27-24.92,12.08
			c-3.57,2.89-6.81,6.17-9.4,9.89c-2.59,3.69-4.6,7.79-5.55,12.05c-0.97,4.26-0.8,8.65,0.68,12.51c1.46,3.89,4.25,7.22,7.62,9.9
			c3.37,2.69,7.31,4.77,11.43,6.36c4.13,1.59,8.47,2.7,12.84,3.35c4.39,0.63,8.74,0.83,13.02,0.31c4.28-0.5,8.47-1.59,12.44-3.27
			c7.97-3.32,15.08-8.75,21.05-15.23c3-3.24,5.71-6.75,8.18-10.42c2.46-3.67,4.65-7.53,6.42-11.49c1.84-4.16,3.54-8.28,4.63-12.36
			c1.13-4.09,1.65-8.17,1.44-12.08c-0.23-3.91-1.29-7.62-3.05-11.01c-1.76-3.39-4.36-6.35-7.42-8.93
			c-3.06-2.58-6.63-4.78-10.49-6.58c-3.85-1.82-7.95-3.29-12.17-4.49c-8.46-2.39-17.39-3.74-26.34-4.43
			c-2.24-0.17-4.48-0.28-6.7-0.34c-2.21-0.09-4.39,0.04-6.59,0.08c-4.39,0.13-8.76,0.63-13.09,1.32c-8.67,1.41-17.13,4-25.25,7.46
			c-8.13,3.46-15.82,7.92-23.16,13.06c-1.83,1.28-3.7,2.64-5.57,4.01c-1.85,1.36-3.67,2.72-5.46,4.11
			c-3.58,2.77-7.03,5.66-10.33,8.66c-6.58,6.02-12.59,12.56-17.24,19.69c-2.35,3.54-4.29,7.25-5.74,11.03
			c-0.75,1.89-1.28,3.8-1.77,5.72c-0.39,1.92-0.74,3.85-0.83,5.77c-0.49,7.68,1.8,15.32,6.16,22.29
			c4.39,6.96,10.49,13.23,17.38,18.71c6.87,5.52,14.53,10.3,22.45,14.64c7.97,4.28,16.26,8.09,24.77,11.39
			c4.25,1.67,8.55,3.21,12.89,4.65c4.33,1.46,8.71,2.76,13.11,3.96c4.4,1.19,8.84,2.3,13.27,3.13c2.22,0.4,4.42,0.89,6.66,1.21
			l6.7,0.95c8.98,1.03,18.07,1.31,27.2,1.04c18.29-0.54,36.69-3.44,55.07-6.55c18.39-3.17,36.75-6.99,55.13-10.73
			c9.2-1.86,18.4-3.68,27.55-5.63c9.16-1.94,18.3-4.01,27.45-6.07c9.14-2.07,18.26-4.26,27.37-6.51
			C783.82,482.2,792.9,479.84,802,477.5z"/>
	</g>
	<g>
		<g>
			<path class="st1" d="M390.3,225.6c1.22-6,2.39-11.99,3.33-18.02c0.99-6.01,1.84-12.04,2.52-18.08c0.67-6.04,1.2-12.07,1.71-18.17
				c0.5-6.08,1-12.15,1.32-18.19c0.34-6.04,0.62-12.05,0.41-17.95c-0.19-5.9-0.73-11.7-2.05-17.21c-1.31-5.51-3.35-10.73-6.14-15.61
				c-0.71-1.22-1.37-2.45-2.21-3.6c-0.81-1.17-1.53-2.36-2.43-3.51c-1.72-2.32-3.53-4.61-5.44-6.83
				c-7.62-8.92-16.33-17.03-25.59-24.26c-9.33-7.13-19.26-13.49-29.79-18.15c-5.26-2.32-10.63-4.3-16.09-5.73
				c-5.46-1.38-10.99-2.29-16.49-2.42c-5.5-0.2-10.99,0.21-16.32,1.38c-5.34,1.16-10.52,3.04-15.42,5.54
				c-4.92,2.48-9.57,5.52-13.91,9.1l-1.64,1.37l-1.66,1.44c-1.1,0.95-2.06,1.86-3.02,2.79c-1.88,1.86-3.53,3.82-4.88,5.86
				c-2.69,4.09-4.21,8.45-4.03,12.98c-0.04,2.26,0.56,4.58,1.2,6.9c0.38,1.15,0.88,2.4,1.41,3.62c0.28,0.61,0.54,1.23,0.84,1.84
				l0.91,1.82c2.55,4.79,5.75,9.27,9.53,13.13c3.78,3.86,8.12,7.13,12.92,9.62c1.16,0.71,2.43,1.19,3.67,1.73l1.87,0.81
				c0.63,0.25,1.3,0.43,1.94,0.65c1.31,0.4,2.58,0.9,3.92,1.22c0.67,0.16,1.33,0.34,2,0.49l2.02,0.42
				c5.42,1.01,11.02,1.28,16.67,0.85c2.83-0.21,5.66-0.58,8.57-1.05c3.01-0.49,5.71-0.98,8.51-1.7c5.53-1.41,10.96-3.38,15.61-6.09
				c2.3-1.36,4.39-2.94,5.89-4.7c1.54-1.76,2.35-3.6,2.47-5.55c0.14-1.96-0.54-4.2-1.84-6.51c-1.27-2.29-2.98-4.5-4.88-6.54
				c-1.91-2.03-4.05-3.91-6.37-5.55c-2.33-1.63-4.82-3.03-7.43-4.19c-2.61-1.17-5.37-1.97-8.17-2.59c-2.82-0.56-5.72-0.86-8.63-0.86
				c-5.81,0.01-11.75,1.18-16.92,3.98c-2.59,1.37-4.94,3.22-6.8,5.54c-1.84,2.33-3.07,5.16-3.55,8.19c0.06-3.06,0.92-6.17,2.59-8.85
				c1.66-2.69,3.95-4.99,6.56-6.8c5.27-3.62,11.54-5.53,17.89-6.21c3.18-0.32,6.42-0.35,9.63,0.04c3.2,0.42,6.41,1.07,9.49,2.15
				c6.16,2.12,11.93,5.44,16.85,9.89c2.46,2.22,4.71,4.73,6.63,7.65c0.5,0.7,0.91,1.53,1.36,2.29c0.4,0.83,0.82,1.65,1.14,2.56
				c0.7,1.78,1.11,3.8,1.16,5.86c0.05,2.06-0.31,4.17-1.02,6.09c-0.69,1.93-1.72,3.64-2.85,5.16c-2.29,3.05-5.05,5.32-7.87,7.26
				c-5.69,3.82-11.77,6.31-17.96,8.26c-3.07,0.96-6.35,1.75-9.35,2.39c-3.09,0.68-6.3,1.24-9.55,1.62
				c-6.5,0.78-13.22,0.78-19.86-0.17l-2.48-0.41c-0.83-0.15-1.64-0.34-2.47-0.51c-1.65-0.34-3.25-0.89-4.88-1.33
				c-0.81-0.24-1.63-0.45-2.43-0.73l-2.37-0.92c-1.58-0.63-3.18-1.2-4.68-2.02c-6.14-2.93-11.84-6.9-16.7-11.67
				c-4.88-4.76-8.99-10.22-12.32-16.13c-1.65-2.99-3.1-5.99-4.3-9.44c-1.08-3.52-2.02-7.18-2.08-11.05
				c-0.15-3.82,0.29-7.76,1.44-11.41c1.11-3.67,2.76-7.09,4.74-10.16c1.99-3.08,4.31-5.8,6.75-8.25c1.22-1.21,2.48-2.39,3.68-3.45
				l1.79-1.57l1.87-1.58c5.07-4.21,10.67-7.94,16.65-10.97c5.99-3.02,12.4-5.32,19.01-6.72c6.61-1.4,13.4-1.92,20.09-1.59
				c6.71,0.27,13.29,1.46,19.64,3.17c6.34,1.76,12.44,4.09,18.27,6.87c11.69,5.54,22.33,12.69,32.1,20.76
				c4.87,4.06,9.53,8.33,13.96,12.84c4.4,4.54,8.61,9.27,12.51,14.29c1.96,2.5,3.84,5.09,5.61,7.78c0.91,1.31,1.71,2.78,2.57,4.17
				c0.88,1.38,1.6,2.87,2.35,4.34c2.97,5.89,5.09,12.28,6.18,18.74c1.11,6.46,1.34,12.92,1.09,19.22
				c-0.24,6.31-0.94,12.49-1.77,18.61c-0.84,6.12-1.86,12.17-2.87,18.21c-1.03,6.01-2.02,12.11-3.37,18.12
				c-1.31,6.01-2.76,11.98-4.39,17.9C394.14,213.97,392.36,219.83,390.3,225.6z"/>
		</g>
		<g>
			<path class="st1" d="M398.31,150.5c1,6.02,1.72,12.09,2.36,18.17c0.57,6.09,0.98,12.2,1.23,18.32c0.3,6.12,0.25,12.29,0.21,18.37
				c-0.04,6.1-0.08,12.21-0.29,18.36c-0.19,6.14-0.6,12.32-1.37,18.56c-0.78,6.23-2.03,12.55-4.25,18.75
				c-2.19,6.2-5.55,12.18-9.84,17.32l-1.61,1.93c-0.56,0.62-1.15,1.19-1.73,1.79l-1.75,1.78c-0.59,0.58-1.19,1.11-1.79,1.67
				c-2.4,2.18-4.9,4.19-7.46,6.11c-10.24,7.63-21.43,13.74-33.27,18.44c-5.93,2.32-12.02,4.32-18.27,5.82
				c-6.25,1.48-12.65,2.52-19.14,3c-6.49,0.5-13.08,0.31-19.63-0.52c-3.28-0.4-6.53-1.05-9.77-1.79l-4.8-1.35l-1.2-0.34l-1.17-0.42
				l-2.35-0.85c-12.5-4.62-23.77-12.23-32.99-21.52c-4.61-4.65-8.78-9.74-12.46-14.98c-1.76-2.51-3.67-5.27-5.35-8.23
				c-1.69-2.95-3.21-6.09-4.41-9.45c-1.21-3.35-2.07-6.95-2.37-10.71l-0.12-1.41c-0.03-0.47-0.01-0.95-0.02-1.43
				c0.02-0.96-0.02-1.91,0.07-2.87l0.33-2.87c0.11-0.96,0.39-1.89,0.59-2.84l0.34-1.41c0.13-0.47,0.31-0.91,0.46-1.37l1-2.71
				l1.28-2.55l0.65-1.27c0.24-0.4,0.49-0.83,0.73-1.2c1.95-3.05,4.11-5.73,6.51-8.24c4.74-5.04,10.47-9.17,16.77-12.16
				c6.3-3,13.2-4.65,20.02-5.06c13.72-0.97,26.96,3.03,38.35,8.92c2.86,1.47,5.61,3.03,8.27,4.63c2.77,1.65,5.45,3.42,8.04,5.32
				c5.18,3.8,10.11,8.02,14.38,13.23c2.1,2.63,4.07,5.51,5.5,8.91c0.7,1.71,1.26,3.55,1.55,5.52c0.3,1.96,0.23,4.08-0.24,6.11
				c-0.46,2.03-1.33,3.94-2.42,5.59c-1.13,1.59-2.36,2.99-3.7,4.15c-2.65,2.37-5.58,4.17-8.65,5.54
				c-6.14,2.73-12.81,3.83-19.32,3.54c-3.26-0.21-6.48-0.7-9.58-1.56c-3.1-0.85-6.09-2.03-8.91-3.48
				c-5.64-2.89-10.81-6.76-14.73-11.71c-1.92-2.5-3.53-5.25-4.51-8.23c-1.03-2.96-1.3-6.14-0.84-9.15
				c-0.03,3.05,0.64,6.05,1.93,8.72c1.26,2.69,3.07,5.07,5.13,7.17c4.13,4.21,9.29,7.31,14.72,9.41c2.72,1.06,5.53,1.82,8.35,2.37
				c2.83,0.53,5.68,0.7,8.51,0.65c5.64-0.23,11.2-1.68,16-4.33c2.38-1.32,4.6-2.92,6.35-4.75c0.91-0.9,1.6-1.88,2.17-2.81
				c0.51-0.94,0.83-1.87,0.97-2.82c0.3-1.88-0.21-3.98-1.27-6.14c-1.07-2.16-2.68-4.28-4.5-6.29c-3.73-3.99-8.27-7.56-13.08-10.7
				c-2.41-1.57-4.9-3.03-7.43-4.36c-2.65-1.39-5.25-2.74-7.86-3.93c-5.21-2.4-10.55-4.26-15.97-5.37c-2.71-0.55-5.42-0.97-8.14-1.13
				c-2.7-0.04-5.42-0.2-8.06,0.16c-5.3,0.5-10.38,1.94-15.03,4.27c-4.64,2.34-8.88,5.54-12.39,9.46c-1.76,1.93-3.38,4.06-4.68,6.15
				c-0.17,0.26-0.3,0.5-0.45,0.76l-0.36,0.78l-0.76,1.53l-0.54,1.59c-0.09,0.26-0.2,0.52-0.27,0.79l-0.17,0.81
				c-0.55,2.15-0.61,4.4-0.38,6.71c0.21,2.3,0.79,4.67,1.69,7.03c0.88,2.36,2,4.72,3.35,7.04c1.34,2.33,2.9,4.58,4.65,7.04
				c3.33,4.71,6.94,9.03,10.91,13.02c7.87,8.02,17.27,14.33,27.58,18.26c10.26,4.11,21.53,5.45,32.83,4.94
				c5.66-0.29,11.34-1.06,16.96-2.25c5.62-1.23,11.19-2.81,16.66-4.75c10.9-3.95,21.5-9.16,31.08-15.66
				c2.38-1.64,4.7-3.35,6.92-5.14c0.54-0.46,1.11-0.9,1.63-1.36l1.53-1.4c0.5-0.47,1.03-0.93,1.52-1.41l1.4-1.51
				c3.73-4.02,6.67-8.66,8.89-13.8c2.23-5.14,3.69-10.76,4.85-16.54c1.15-5.78,1.94-11.73,2.6-17.73c0.71-5.99,1.27-12.04,1.81-18.1
				c0.56-6.08,1.05-12.07,1.43-18.13c0.38-6.05,0.57-12.11,0.65-18.19C398.53,162.69,398.45,156.6,398.31,150.5z"/>
		</g>
	</g>
	<g>
		<g>
			<path class="st1" d="M441.63,233.45c-2.04-5.85-3.81-11.8-5.49-17.78c-1.62-5.99-3.07-12.04-4.37-18.13
				c-1.34-6.08-2.34-12.25-3.36-18.34c-1.01-6.11-2.02-12.24-2.87-18.43c-0.86-6.18-1.53-12.43-1.84-18.8
				c-0.31-6.36-0.18-12.86,0.79-19.39c0.94-6.53,2.87-13.04,5.68-19.1c0.74-1.49,1.47-2.99,2.24-4.47l2.51-4.29
				c1.72-2.78,3.58-5.43,5.49-8.02c7.7-10.32,16.51-19.63,26.21-28.01c9.67-8.41,20.35-15.79,32.01-21.69
				c5.84-2.93,11.98-5.4,18.36-7.3c6.37-1.9,13.03-3.2,19.82-3.58c13.58-1,27.55,2.03,39.69,8.14c6.05,3.1,11.72,6.89,16.81,11.19
				c1.28,1.06,2.52,2.17,3.7,3.22c1.2,1.09,2.45,2.23,3.67,3.48c2.45,2.47,4.79,5.22,6.79,8.3c2.01,3.08,3.69,6.48,4.87,10.13
				c1.17,3.67,1.69,7.57,1.69,11.42l-0.15,2.88c-0.04,0.96-0.26,1.88-0.39,2.82c-0.24,1.9-0.79,3.67-1.28,5.47
				c-1.08,3.59-2.51,6.64-4.1,9.7c-3.16,6.08-7.22,11.65-11.99,16.61c-4.77,4.95-10.4,9.14-16.54,12.29l-2.3,1.18
				c-0.77,0.37-1.59,0.66-2.38,1l-2.39,0.96l-1.2,0.48l-1.23,0.37l-4.92,1.45c-1.66,0.37-3.32,0.75-5.01,1
				c-6.72,1.09-13.54,1.17-20.14,0.41c-3.3-0.38-6.55-0.94-9.7-1.63c-3.05-0.67-6.32-1.44-9.45-2.43c-6.27-2-12.42-4.54-18.15-8.44
				c-2.84-1.98-5.61-4.29-7.91-7.36c-2.3-2.99-4.01-7.06-3.98-11.25c-0.02-2.08,0.39-4.09,1.02-5.92c0.29-0.94,0.7-1.77,1.08-2.62
				c0.41-0.82,0.85-1.6,1.31-2.36c1.87-2.99,4.09-5.58,6.53-7.89c4.88-4.61,10.67-8.06,16.86-10.34c3.11-1.1,6.34-1.84,9.59-2.29
				c3.26-0.42,6.53-0.41,9.76-0.09c6.43,0.68,12.79,2.65,18.07,6.39c2.62,1.87,4.9,4.25,6.53,6.99c1.65,2.74,2.48,5.89,2.54,8.98
				c-0.48-3.06-1.68-5.95-3.51-8.33c-1.83-2.38-4.18-4.3-6.78-5.73c-5.19-2.91-11.2-4.14-17.07-4.15c-2.95,0.01-5.88,0.32-8.72,0.91
				c-2.84,0.64-5.6,1.53-8.23,2.71c-5.23,2.44-10,5.87-13.78,10.11c-1.88,2.1-3.57,4.37-4.8,6.72c-1.23,2.37-1.88,4.64-1.7,6.67
				c0.18,2.02,1.03,3.93,2.6,5.74c0.77,0.9,1.68,1.76,2.68,2.57c1.02,0.8,2.12,1.55,3.28,2.26c4.7,2.78,10.19,4.8,15.77,6.24
				c2.81,0.73,5.59,1.24,8.61,1.74c2.92,0.47,5.79,0.86,8.64,1.05c5.7,0.41,11.35,0.08,16.8-1.05c1.37-0.27,2.71-0.62,4.05-0.97
				l3.93-1.31l0.98-0.32l0.94-0.42l1.88-0.84c0.62-0.29,1.27-0.53,1.87-0.85l1.79-1.01c9.53-5.3,17.2-13.79,22.1-23.7
				c0.62-1.23,1.17-2.49,1.69-3.74c0.5-1.26,1-2.49,1.29-3.67c0.29-1.19,0.68-2.38,0.78-3.56c0.06-0.59,0.23-1.18,0.22-1.77
				l0.06-1.75c-0.06-2.32-0.37-4.61-1.11-6.83c-0.77-2.22-1.86-4.39-3.26-6.47c-1.39-2.08-3.07-4.08-4.98-5.98
				c-0.94-0.96-1.98-1.89-3.07-2.88c-1.13-1-2.2-1.95-3.31-2.86c-4.36-3.66-9.07-6.73-14.03-9.27c-9.92-5.02-20.97-7.47-32.08-6.76
				c-11.14,0.44-22.27,3.97-32.81,8.87c-10.53,5.01-20.5,11.57-29.76,19.04c-4.63,3.74-9.09,7.73-13.33,11.92
				c-4.26,4.18-8.31,8.58-12.05,13.18c-1.85,2.31-3.65,4.65-5.32,7.04l-2.37,3.6l-2.11,3.72c-2.65,5.03-4.55,10.4-5.75,16.05
				c-1.2,5.64-1.66,11.55-1.8,17.55c-0.14,6,0.11,12.09,0.48,18.21c0.33,6.12,0.82,12.27,1.32,18.43c0.5,6.18,1.03,12.27,1.7,18.4
				c0.67,6.12,1.51,12.22,2.49,18.31C439.28,221.3,440.43,227.37,441.63,233.45z"/>
		</g>
		<g>
			<path class="st1" d="M433.62,156.49c-0.13,6.17-0.21,12.33-0.1,18.48c0.08,6.15,0.26,12.29,0.63,18.41
				c0.37,6.13,0.83,12.2,1.4,18.35c0.54,6.13,1.1,12.25,1.78,18.33c0.65,6.08,1.42,12.1,2.5,17.99c1.09,5.88,2.45,11.64,4.56,16.94
				c2.09,5.31,4.91,10.14,8.51,14.35c0.96,1.02,1.83,2.09,2.83,3.06c1.04,0.95,2.02,1.93,3.08,2.87c2.17,1.87,4.47,3.66,6.84,5.36
				c4.75,3.41,9.8,6.48,15.01,9.21c5.21,2.75,10.59,5.18,16.08,7.26c10.99,4.1,22.44,6.89,33.89,7.55
				c5.72,0.34,11.41,0.17,16.98-0.62c2.79-0.35,5.53-0.95,8.25-1.62c2.67-0.8,5.37-1.51,7.95-2.6
				c10.42-3.97,19.87-10.45,27.77-18.65c3.97-4.09,7.6-8.49,10.93-13.29c1.74-2.5,3.32-4.83,4.67-7.2c1.36-2.37,2.51-4.78,3.42-7.19
				c0.93-2.42,1.5-4.84,1.79-7.22c0.33-2.39,0.2-4.7-0.23-6.93c-0.34-2.26-1.33-4.37-2.37-6.47c-1.2-2.1-2.82-4.33-4.53-6.33
				c-1.71-2.05-3.68-3.84-5.69-5.57c-2.09-1.61-4.25-3.16-6.59-4.35c-4.64-2.47-9.73-4.03-15.06-4.62l-2.01-0.18l-1-0.1
				c-0.34-0.02-0.68,0-1.02,0l-4.09,0.04c-2.74,0.18-5.48,0.57-8.21,1.12c-5.47,1.11-10.85,3.03-16.1,5.49
				c-2.63,1.23-5.24,2.61-7.91,4.05c-2.55,1.37-5.05,2.88-7.47,4.49c-4.83,3.22-9.39,6.89-13.13,10.98
				c-1.83,2.05-3.45,4.23-4.53,6.44c-0.53,1.1-0.94,2.21-1.19,3.28c-0.22,1.07-0.28,2.09-0.17,3.09c0.13,0.99,0.39,1.97,0.92,2.93
				c0.54,0.96,1.21,1.96,2.11,2.89c1.72,1.89,3.93,3.55,6.32,4.92c4.8,2.76,10.4,4.3,16.1,4.53c2.85,0.06,5.74-0.13,8.59-0.67
				c2.85-0.57,5.69-1.37,8.42-2.47c5.47-2.19,10.64-5.42,14.74-9.75c2.05-2.16,3.84-4.6,5.08-7.35c1.27-2.73,1.93-5.76,1.89-8.85
				c0.46,3.05,0.2,6.27-0.8,9.27c-0.95,3.02-2.53,5.84-4.44,8.39c-3.88,5.07-9.05,9.08-14.73,12.06c-2.85,1.5-5.86,2.72-9,3.6
				c-3.14,0.88-6.41,1.38-9.71,1.59c-6.61,0.29-13.36-0.92-19.53-3.8c-3.08-1.45-6.01-3.33-8.64-5.8c-1.33-1.21-2.54-2.67-3.62-4.32
				c-1.08-1.68-1.86-3.65-2.27-5.68c-0.41-2.04-0.43-4.14-0.14-6.1c0.3-1.96,0.87-3.8,1.57-5.51c1.42-3.42,3.38-6.34,5.48-9.02
				c4.25-5.31,9.19-9.63,14.39-13.53c2.61-1.94,5.3-3.76,8.09-5.46c2.67-1.63,5.44-3.24,8.33-4.76
				c11.49-6.04,24.94-10.16,38.88-8.98c6.93,0.52,13.9,2.35,20.2,5.55c3.18,1.55,6.12,3.51,8.94,5.61c2.73,2.2,5.36,4.53,7.68,7.15
				c2.34,2.63,4.45,5.34,6.35,8.56c1.8,3.34,3.41,6.9,4.12,10.74l0.31,1.42l0.17,1.44c0.09,0.96,0.25,1.92,0.27,2.88l0.02,2.87
				c0,0.96-0.13,1.88-0.2,2.83c-0.4,3.74-1.24,7.35-2.47,10.71c-1.22,3.36-2.74,6.52-4.43,9.5c-1.69,2.99-3.57,5.76-5.33,8.33
				c-3.67,5.34-7.84,10.52-12.45,15.27c-9.23,9.48-20.57,17.3-33.24,22c-3.13,1.25-6.41,2.1-9.65,3c-3.28,0.76-6.58,1.42-9.9,1.8
				c-6.64,0.84-13.32,0.95-19.89,0.38c-13.15-1.09-25.84-4.5-37.74-9.45c-11.91-4.95-23.11-11.37-33.31-19.34
				c-2.55-2-5.03-4.1-7.4-6.39c-1.19-1.16-2.33-2.41-3.5-3.61c-1.14-1.23-2.16-2.6-3.24-3.89c-4.14-5.37-7.29-11.53-9.3-17.83
				c-2.05-6.3-3.17-12.68-3.88-18.97c-0.68-6.3-1.08-12.55-1.25-18.76c-0.17-6.21-0.22-12.4-0.25-18.57
				c-0.04-6.15-0.06-12.4,0.24-18.58c0.26-6.2,0.67-12.38,1.25-18.54C431.91,168.72,432.63,162.58,433.62,156.49z"/>
		</g>
	</g>
	<g>
		<path class="st1" d="M4.64,412.49l5.34,4.06c1.82,1.3,3.61,2.63,5.44,3.89c1.85,1.24,3.65,2.54,5.51,3.74
			c1.88,1.18,3.72,2.42,5.63,3.53c7.58,4.55,15.39,8.61,23.47,11.82c8.06,3.23,16.38,5.62,24.76,6.85l3.14,0.43
			c1.04,0.17,2.1,0.16,3.15,0.26l3.14,0.22c1.04,0.06,2.09,0,3.13,0.01l3.12-0.02c1.04-0.06,2.07-0.18,3.1-0.27l3.09-0.27
			c1.01-0.16,2.03-0.27,3.03-0.46c4.02-0.72,7.98-1.78,11.79-3.24c3.81-1.44,7.52-3.18,11.02-5.28c1.76-1.02,3.45-2.17,5.12-3.34
			c1.66-1.22,3.23-2.42,4.86-3.78c3.25-2.71,6.28-5.52,8.92-8.49c2.61-2.98,4.83-6.1,6.33-9.31c1.49-3.12,2.12-6.33,2.06-9.69
			c-0.15-6.71-3.37-13.86-8.22-19.95c-4.79-6.13-11.09-11.51-17.89-15.03c-6.85-3.62-14.62-5.46-22.63-5.83
			c-4.01-0.19-8.08,0-12.16,0.51c-4.1,0.53-8.08,1.34-12.29,2.41c-4.13,1.03-8.11,2.27-11.86,3.79c-3.75,1.49-7.19,3.37-9.89,5.64
			l-0.52,0.42l-0.45,0.45l-0.91,0.89c-0.25,0.32-0.5,0.64-0.76,0.95c-0.13,0.16-0.27,0.31-0.39,0.47l-0.3,0.5
			c-0.2,0.33-0.43,0.65-0.63,0.99c-0.15,0.35-0.3,0.69-0.47,1.04c-0.37,0.7-0.47,1.3-0.63,1.96c-0.2,1.28-0.13,2.64,0.36,4.1
			c0.46,1.46,1.31,2.99,2.39,4.47c2.19,2.97,5.3,5.67,8.67,7.99c3.39,2.32,7.1,4.34,10.89,5.58c3.84,1.34,8.02,2.02,12.2,2.19
			c4.19,0.17,8.42-0.26,12.49-1.36c4.05-1.13,7.87-3.12,10.97-6.05c0.85-0.67,1.46-1.55,2.19-2.35c0.71-0.81,1.28-1.73,1.8-2.68
			c1.01-1.91,1.7-4.04,1.96-6.27c0.16,2.24-0.14,4.54-0.89,6.73c-0.38,1.09-0.83,2.18-1.44,3.17c-0.63,0.97-1.15,2.04-1.93,2.92
			c-2.91,3.69-6.89,6.54-11.23,8.44c-4.35,1.91-9.04,2.92-13.77,3.32c-4.74,0.38-9.54,0.11-14.3-0.95c-2.39-0.49-4.75-1.3-6.97-2.18
			c-2.23-0.9-4.41-1.93-6.52-3.1c-4.21-2.35-8.24-5.24-11.75-9.16c-1.72-1.99-3.35-4.24-4.46-6.97c-1.15-2.69-1.73-5.88-1.47-9.04
			c0.16-1.54,0.46-3.17,0.98-4.52l0.77-2.08c0.3-0.66,0.66-1.3,0.99-1.94l0.52-0.96c0.19-0.31,0.4-0.59,0.6-0.88l1.24-1.74
			l1.37-1.56l0.7-0.77L46.9,366c3.93-3.73,8.34-6.36,12.75-8.44c4.43-2.08,8.94-3.68,13.42-5.02c4.38-1.34,9.11-2.57,13.86-3.31
			c4.76-0.76,9.63-1.16,14.55-1.1c9.82,0.12,19.89,2.32,28.96,6.85c4.56,2.29,8.72,5.12,12.54,8.3c3.83,3.17,7.32,6.74,10.44,10.69
			c1.54,1.99,2.98,4.08,4.3,6.27c1.3,2.2,2.49,4.51,3.5,6.93c2.02,4.83,3.34,10.2,3.39,15.79c0,2.79-0.31,5.61-0.94,8.35
			c-0.6,2.74-1.65,5.42-2.83,7.85c-2.39,4.84-5.53,8.98-8.94,12.58c-3.41,3.61-7.07,6.74-10.77,9.63c-1.84,1.44-3.87,2.9-5.88,4.22
			c-2.05,1.3-4.12,2.57-6.27,3.69c-8.55,4.59-17.97,7.57-27.6,8.66c-9.63,0.94-19.23,0.27-28.39-1.89c-9.17-2.12-17.86-5.57-26-9.84
			c-8.13-4.3-15.73-9.39-22.77-15.09c-1.78-1.4-3.46-2.92-5.19-4.37c-1.71-1.48-3.35-3.03-5-4.55c-1.62-1.56-3.19-3.18-4.78-4.76
			C7.66,415.81,6.15,414.15,4.64,412.49z"/>
	</g>
	<g>
		<path class="st1" d="M130.11,113.97c4.37,0.44,8.73,1.48,12.93,3.11c4.14,1.75,8.07,4.04,11.73,6.73c3.61,2.75,6.9,5.92,9.95,9.3
			c2.98,3.43,5.68,7.09,8.18,10.86c2.44,3.81,4.66,7.75,6.73,11.75c2.01,3.98,3.96,8.2,5.47,12.56c1.55,4.36,2.77,8.87,3.56,13.49
			c0.81,4.61,1.26,9.33,1.19,14.07c-0.03,4.74-0.54,9.51-1.46,14.17c-0.93,4.65-2.3,9.19-3.95,13.57
			c-3.32,8.78-7.69,16.86-12.84,24.6c-5.19,7.7-11.35,14.89-18.79,21.06c-3.75,3.04-7.83,5.81-12.3,8.04
			c-4.46,2.23-9.29,3.99-14.35,4.91c-5.05,0.96-10.3,1.05-15.37,0.39c-5.11-0.65-9.92-2.06-14.48-3.93
			c-4.55-1.88-8.82-4.23-12.82-6.95c-3.99-2.72-7.76-5.75-11.15-9.21c-1.71-1.71-3.32-3.53-4.86-5.42c-0.77-0.95-1.5-1.99-2.25-2.98
			c-0.73-1.02-1.38-2.1-2.07-3.15c-2.64-4.29-4.6-9.1-5.69-14.15c-1.1-5.04-1.29-10.33-0.46-15.44c0.81-5.11,2.66-9.98,5.15-14.31
			c0.65-1.05,1.28-2.17,1.97-3.16c0.69-0.97,1.35-1.98,2.1-2.9c0.73-0.94,1.46-1.89,2.25-2.78c0.77-0.91,1.55-1.8,2.39-2.65
			c3.27-3.45,6.9-6.6,10.94-9.22c4.04-2.61,8.46-4.8,13.27-6c4.79-1.22,9.9-1.46,14.77-0.52c2.44,0.43,4.79,1.28,7.03,2.25
			l1.64,0.83l0.81,0.42l0.77,0.49l1.54,0.97l1.44,1.1c3.81,2.96,6.81,6.75,8.96,10.88c2.17,4.12,3.42,8.63,3.88,13.13
			c0.38,4.51-0.01,8.99-1.06,13.26c0.49-8.77-1.52-17.53-6.37-24.23c-4.77-6.7-12.07-11.3-19.7-11.8
			c-7.63-0.67-15.1,2.39-21.28,7.28c-3.1,2.44-5.95,5.27-8.47,8.37c-0.65,0.76-1.25,1.56-1.83,2.37c-0.61,0.79-1.15,1.63-1.71,2.46
			c-0.58,0.81-1.04,1.69-1.58,2.53c-0.51,0.84-0.89,1.67-1.35,2.5c-3.38,6.72-4.08,14.17-2.22,21.1c0.93,3.47,2.48,6.81,4.51,9.92
			c0.55,0.76,1.04,1.54,1.61,2.28c0.6,0.73,1.15,1.47,1.78,2.2c1.28,1.46,2.61,2.88,4.05,4.21c2.84,2.69,5.95,5.13,9.24,7.26
			c3.28,2.14,6.76,3.95,10.33,5.33c7.16,2.89,14.46,3.92,21.57,2.53c7.13-1.24,13.96-4.87,20.1-9.73c3.07-2.44,5.99-5.19,8.73-8.16
			c2.73-2.99,5.28-6.18,7.7-9.5c4.79-6.67,9-13.97,12.26-21.41c3.21-7.49,5.38-15.25,5.9-23.27c0.61-8.01-0.3-16.22-2.38-24.21
			c-1-4.02-2.44-7.89-3.98-11.91c-1.56-3.96-3.3-7.84-5.19-11.64c-1.93-3.77-4.07-7.42-6.43-10.93c-2.41-3.47-5.1-6.72-8.05-9.77
			c-3.02-2.96-6.37-5.6-10.03-7.84C138.35,116.88,134.32,115.27,130.11,113.97z"/>
	</g>
	<g>
		<path class="st1" d="M804.04,412.49c-1.51,1.65-3.02,3.32-4.58,4.94c-1.59,1.58-3.16,3.2-4.78,4.76c-1.66,1.52-3.3,3.07-5,4.55
			c-1.73,1.45-3.41,2.96-5.19,4.37c-7.04,5.7-14.64,10.79-22.77,15.09c-8.13,4.27-16.83,7.72-26,9.84
			c-9.16,2.16-18.76,2.83-28.39,1.89c-9.63-1.09-19.06-4.07-27.6-8.66c-2.15-1.12-4.22-2.39-6.27-3.69
			c-2.01-1.32-4.04-2.78-5.88-4.22c-3.71-2.89-7.36-6.03-10.77-9.63c-3.41-3.6-6.55-7.74-8.94-12.58c-1.18-2.43-2.23-5.11-2.83-7.85
			c-0.63-2.74-0.94-5.56-0.94-8.35c0.05-5.59,1.37-10.95,3.39-15.79c1.02-2.42,2.2-4.73,3.5-6.93c1.32-2.19,2.76-4.28,4.3-6.27
			c3.11-3.95,6.61-7.52,10.44-10.69c3.82-3.18,7.97-6,12.54-8.3c9.07-4.53,19.14-6.73,28.96-6.85c4.92-0.07,9.78,0.33,14.55,1.1
			c4.74,0.74,9.47,1.97,13.86,3.31c4.47,1.34,8.98,2.94,13.42,5.02c4.41,2.09,8.82,4.72,12.75,8.44l0.73,0.69l0.7,0.77l1.37,1.56
			l1.24,1.74c0.2,0.29,0.41,0.58,0.6,0.88l0.52,0.96c0.34,0.65,0.69,1.28,0.99,1.94l0.77,2.08c0.52,1.35,0.81,2.98,0.98,4.52
			c0.26,3.16-0.32,6.35-1.47,9.04c-1.12,2.73-2.74,4.99-4.46,6.97c-3.51,3.92-7.53,6.81-11.75,9.16c-2.11,1.17-4.28,2.2-6.52,3.1
			c-2.22,0.89-4.58,1.69-6.97,2.18c-4.76,1.06-9.56,1.33-14.3,0.95c-4.73-0.4-9.42-1.42-13.77-3.32c-4.34-1.9-8.32-4.75-11.23-8.44
			c-0.78-0.87-1.31-1.95-1.93-2.92c-0.61-0.99-1.06-2.08-1.44-3.17c-0.75-2.19-1.05-4.5-0.89-6.73c0.27,2.23,0.95,4.36,1.96,6.27
			c0.52,0.95,1.08,1.86,1.8,2.68c0.73,0.8,1.34,1.68,2.19,2.35c3.1,2.93,6.92,4.92,10.97,6.05c4.06,1.1,8.3,1.53,12.49,1.36
			c4.18-0.17,8.36-0.85,12.2-2.19c3.8-1.25,7.5-3.26,10.89-5.58c3.37-2.32,6.48-5.02,8.67-7.99c1.07-1.48,1.93-3.01,2.39-4.47
			c0.49-1.46,0.56-2.81,0.36-4.1c-0.16-0.66-0.26-1.25-0.63-1.96c-0.16-0.34-0.32-0.69-0.47-1.04c-0.19-0.33-0.43-0.66-0.63-0.99
			l-0.3-0.5c-0.12-0.16-0.26-0.31-0.39-0.47c-0.26-0.31-0.51-0.63-0.76-0.95l-0.91-0.89l-0.45-0.45l-0.52-0.42
			c-2.7-2.27-6.14-4.15-9.89-5.64c-3.74-1.52-7.72-2.76-11.86-3.79c-4.21-1.07-8.19-1.89-12.29-2.41c-4.07-0.51-8.15-0.7-12.16-0.51
			c-8.02,0.36-15.78,2.21-22.63,5.83c-6.8,3.52-13.09,8.9-17.89,15.03c-4.85,6.09-8.07,13.23-8.22,19.95
			c-0.06,3.36,0.57,6.57,2.06,9.69c1.5,3.21,3.72,6.33,6.33,9.31c2.63,2.97,5.67,5.79,8.92,8.49c1.63,1.37,3.2,2.56,4.86,3.78
			c1.67,1.17,3.36,2.32,5.12,3.34c3.5,2.1,7.2,3.84,11.02,5.28c3.81,1.47,7.77,2.53,11.79,3.24c1,0.2,2.02,0.3,3.03,0.46l3.09,0.27
			c1.03,0.08,2.06,0.2,3.1,0.27l3.12,0.02c1.04-0.01,2.09,0.05,3.13-0.01l3.14-0.22c1.05-0.1,2.1-0.09,3.15-0.26l3.14-0.43
			c8.38-1.23,16.7-3.62,24.76-6.85c8.08-3.21,15.89-7.27,23.47-11.82c1.91-1.12,3.74-2.36,5.63-3.53c1.87-1.2,3.66-2.5,5.51-3.74
			c1.83-1.26,3.62-2.59,5.44-3.89L804.04,412.49z"/>
	</g>
	<g>
		<path class="st1" d="M678.57,113.97c-4.21,1.3-8.24,2.91-11.92,5.13c-3.66,2.24-7.01,4.87-10.03,7.84
			c-2.95,3.05-5.64,6.31-8.05,9.77c-2.36,3.51-4.51,7.16-6.43,10.93c-1.89,3.8-3.63,7.67-5.19,11.64
			c-1.54,4.02-2.98,7.89-3.98,11.91c-2.09,8-2.99,16.2-2.38,24.21c0.53,8.02,2.69,15.78,5.9,23.27c3.26,7.44,7.47,14.74,12.26,21.41
			c2.42,3.32,4.98,6.51,7.7,9.5c2.74,2.97,5.65,5.72,8.73,8.16c6.14,4.86,12.98,8.49,20.1,9.73c7.1,1.39,14.41,0.36,21.57-2.53
			c3.57-1.38,7.05-3.2,10.33-5.33c3.29-2.13,6.4-4.57,9.24-7.26c1.43-1.33,2.77-2.75,4.05-4.21c0.64-0.73,1.18-1.47,1.78-2.2
			c0.57-0.74,1.07-1.52,1.61-2.28c2.04-3.1,3.58-6.45,4.51-9.92c1.86-6.93,1.16-14.38-2.22-21.1c-0.46-0.83-0.84-1.66-1.35-2.5
			c-0.53-0.84-1-1.71-1.58-2.53c-0.56-0.83-1.1-1.67-1.71-2.46c-0.59-0.81-1.19-1.61-1.83-2.37c-2.53-3.1-5.38-5.93-8.47-8.37
			c-6.18-4.89-13.65-7.95-21.28-7.28c-7.63,0.5-14.93,5.1-19.7,11.8c-4.86,6.7-6.86,15.46-6.37,24.23
			c-1.05-4.27-1.44-8.75-1.06-13.26c0.46-4.5,1.7-9.01,3.88-13.13c2.15-4.12,5.15-7.92,8.96-10.88l1.44-1.1l1.54-0.97l0.77-0.49
			l0.81-0.42l1.64-0.83c2.24-0.97,4.59-1.82,7.03-2.25c4.87-0.94,9.98-0.69,14.77,0.52c4.81,1.2,9.23,3.39,13.27,6
			c4.04,2.62,7.67,5.77,10.94,9.22c0.83,0.85,1.62,1.75,2.39,2.65c0.79,0.89,1.51,1.84,2.25,2.78c0.75,0.93,1.41,1.93,2.1,2.9
			c0.68,0.99,1.31,2.1,1.97,3.16c2.49,4.34,4.34,9.2,5.15,14.31c0.82,5.11,0.63,10.4-0.46,15.44c-1.09,5.04-3.05,9.85-5.69,14.15
			c-0.69,1.05-1.34,2.13-2.07,3.15c-0.75,0.99-1.48,2.03-2.25,2.98c-1.54,1.89-3.15,3.71-4.86,5.42c-3.39,3.46-7.16,6.49-11.15,9.21
			c-4,2.72-8.27,5.07-12.82,6.95c-4.55,1.87-9.36,3.28-14.48,3.93c-5.08,0.67-10.32,0.57-15.37-0.39
			c-5.06-0.93-9.89-2.68-14.35-4.91c-4.47-2.24-8.55-5-12.3-8.04c-7.44-6.17-13.61-13.37-18.79-21.06
			c-5.15-7.74-9.53-15.82-12.84-24.6c-1.65-4.38-3.01-8.92-3.95-13.57c-0.92-4.66-1.43-9.43-1.46-14.17
			c-0.07-4.74,0.38-9.46,1.19-14.07c0.8-4.62,2.01-9.13,3.56-13.49c1.52-4.37,3.46-8.59,5.47-12.56c2.06-4.01,4.29-7.94,6.73-11.75
			c2.51-3.78,5.2-7.44,8.18-10.86c3.05-3.38,6.33-6.55,9.95-9.3c3.67-2.69,7.6-4.98,11.73-6.73
			C669.84,115.45,674.2,114.42,678.57,113.97z"/>
	</g>
</g>
</svg>
