<?xml version="1.0" encoding="utf-8"?>
<!-- Generator: Adobe Illustrator 23.0.3, SVG Export Plug-In . SVG Version: 6.00 Build 0)  -->
<svg version="1.1" id="Layer_1" xmlns="http://www.w3.org/2000/svg" xmlns:xlink="http://www.w3.org/1999/xlink" x="0px" y="0px"
	 viewBox="0 0 4.7 4.8" style="enable-background:new 0 0 4.7 4.8;" xml:space="preserve">
<path d="M4,0.6L4,0.6c0-0.2,0-0.3,0.1-0.3c0,0,0.1-0.1,0.2-0.1c0.1,0,0.1,0,0.2,0.1c0,0,0.1,0.1,0.1,0.2v1c0,0.1,0,0.2-0.1,0.2
	c0,0-0.1,0.1-0.2,0.1c-0.1,0-0.1,0-0.1-0.1c0,0-0.1-0.1-0.1-0.2c0-0.2-0.2-0.5-0.5-0.7S2.9,0.5,2.4,0.5C1.8,0.5,1.3,0.7,1,1.1
	C0.7,1.5,0.5,1.9,0.5,2.5c0,0.5,0.2,1,0.5,1.4c0.4,0.4,0.8,0.5,1.4,0.5c0.3,0,0.7-0.1,1-0.2c0.3-0.1,0.7-0.3,0.9-0.6
	c0.1-0.1,0.1-0.1,0.2-0.1s0.1,0,0.1,0.1l0.1,0.1c0,0.1-0.2,0.3-0.5,0.6C3.7,4.7,3,4.8,2.4,4.8c-0.7,0-1.2-0.2-1.7-0.7
	C0.3,3.7,0,3.1,0,2.4s0.2-1.3,0.7-1.7C1.1,0.2,1.7,0,2.4,0S3.6,0.2,4,0.6z"/>
</svg>
