<?xml version="1.0" encoding="utf-8"?>
<!-- Generator: Adobe Illustrator 23.0.3, SVG Export Plug-In . SVG Version: 6.00 Build 0)  -->
<svg version="1.1" id="Layer_1" xmlns="http://www.w3.org/2000/svg" xmlns:xlink="http://www.w3.org/1999/xlink" x="0px" y="0px"
	 viewBox="0 0 5.3 4.6" style="enable-background:new 0 0 5.3 4.6;" xml:space="preserve">
<path d="M3.1,2.2L5,4.1c0.1,0,0.2,0,0.2,0s0.1,0,0.1,0.1v0.1c0,0.1,0,0.1-0.1,0.2c0,0-0.1,0.1-0.2,0.1H3.6c-0.1,0-0.2,0-0.2-0.1
	c0,0-0.1-0.1-0.1-0.2c0-0.1,0-0.1,0.1-0.2c0,0,0.1-0.1,0.2-0.1h0.7L2.6,2.4L1,4h0.7c0.1,0,0.2,0,0.2,0.1c0,0,0.1,0.1,0.1,0.2
	c0,0.1,0,0.1-0.1,0.2c0,0-0.1,0.1-0.2,0.1H0.3c-0.1,0-0.2,0-0.2-0.1c0,0-0.1-0.1-0.1-0.2V4.2l0.1-0.1c0,0,0.1,0,0.2,0l1.9-1.9
	L0.5,0.5c-0.1,0-0.2,0-0.2,0s-0.1,0-0.1-0.1V0.3c0-0.1,0-0.1,0.1-0.2c0,0,0.1-0.1,0.2-0.1h1.2c0.1,0,0.2,0,0.2,0.1
	c0,0,0.1,0.1,0.1,0.2c0,0.1,0,0.1-0.1,0.2c0,0-0.1,0.1-0.2,0.1H1.2L2.6,2L4,0.6H3.5c-0.1,0-0.2,0-0.2-0.1c0,0-0.1-0.1-0.1-0.2
	c0-0.1,0-0.1,0.1-0.2c0,0,0.1-0.1,0.2-0.1h1.2c0.1,0,0.2,0,0.2,0.1c0,0,0.1,0.1,0.1,0.2v0.1L4.9,0.5c0,0-0.1,0-0.2,0L3.1,2.2z"/>
</svg>
