<?xml version="1.0" encoding="utf-8"?>
<!-- Generator: Adobe Illustrator 23.0.3, SVG Export Plug-In . SVG Version: 6.00 Build 0)  -->
<svg version="1.1" id="Layer_1" xmlns="http://www.w3.org/2000/svg" xmlns:xlink="http://www.w3.org/1999/xlink" x="0px" y="0px"
	 viewBox="0 0 4.2 6" style="enable-background:new 0 0 4.2 6;" xml:space="preserve">
<path d="M3.1,5.5L2.8,5C2.5,5.4,2.1,5.7,1.6,5.7c-0.4,0-0.8-0.2-1.1-0.5C0.2,4.9,0,4.5,0,4c0-0.4,0.1-0.7,0.3-0.9
	c0.2-0.3,0.5-0.5,0.9-0.6C1,2.1,0.8,1.8,0.8,1.7c0-0.1-0.1-0.3-0.1-0.4c0-0.3,0.1-0.6,0.4-0.9S1.7,0,2,0c0.1,0,0.2,0,0.3,0.1
	c0.1,0,0.2,0.1,0.3,0.2c0.1-0.1,0.2-0.1,0.3-0.1C3,0.2,3,0.2,3,0.3c0,0,0.1,0.1,0.1,0.2v0.1L3,0.7L2.7,0.9C2.6,0.8,2.5,0.7,2.4,0.7
	c-0.1,0-0.2-0.1-0.3-0.1c-0.2,0-0.4,0.1-0.6,0.3C1.3,1.1,1.2,1.3,1.2,1.5s0.2,0.6,0.5,1.1l1.2,1.9c0.2-0.4,0.4-0.8,0.5-1.3h0.4
	c0.1,0,0.2,0,0.2,0.1c0,0,0.1,0.1,0.1,0.2v0.1L4,3.7c0,0-0.1,0-0.2,0C3.6,4.3,3.5,4.7,3.2,5l0.3,0.4h0.4c0.1,0,0.2,0,0.2,0.1
	c0,0,0.1,0.1,0.1,0.2s0,0.1-0.1,0.2C4.1,5.9,4,6,3.9,6H3.1C3.1,6,3.1,5.5,3.1,5.5z M1.4,2.8C1.1,2.9,0.9,3,0.7,3.2
	C0.5,3.4,0.4,3.7,0.4,3.9c0,0.3,0.1,0.6,0.3,0.9C0.9,5,1.2,5.2,1.5,5.2c0.4,0,0.7-0.2,0.9-0.6L1.4,2.8z"/>
</svg>
