<?xml version="1.0" encoding="utf-8"?>
<!-- Generator: Adobe Illustrator 23.0.3, SVG Export Plug-In . SVG Version: 6.00 Build 0)  -->
<svg version="1.1" id="Layer_1" xmlns="http://www.w3.org/2000/svg" xmlns:xlink="http://www.w3.org/1999/xlink" x="0px" y="0px"
	 viewBox="0 0 4.1 6.7" style="enable-background:new 0 0 4.1 6.7;" xml:space="preserve">
<path d="M2.9,3.1c0.4,0.2,0.7,0.4,0.9,0.7c0.2,0.3,0.3,0.6,0.3,1c0,0.5-0.2,1-0.6,1.3C3.1,6.5,2.6,6.7,2,6.7c-0.4,0-0.7-0.1-1.1-0.2
	C0.5,6.3,0.2,6.2,0.1,6C0,5.9,0,5.9,0,5.8s0-0.1,0.1-0.1l0.1-0.1c0.1,0,0.1,0,0.2,0.1c0.5,0.4,1.1,0.6,1.7,0.6
	c0.5,0,0.9-0.2,1.2-0.5s0.5-0.7,0.5-1S3.7,4.3,3.6,4.1C3.4,3.9,3.2,3.7,2.9,3.5C2.6,3.4,2.3,3.3,2,3.3c-0.1,0-0.2,0-0.2-0.1
	c0,0-0.1-0.1-0.1-0.2s0-0.1,0.1-0.2c0,0,0.1-0.1,0.2-0.1h0.4c0.4,0,0.7-0.1,0.9-0.3c0.2-0.2,0.4-0.5,0.4-0.8S3.6,1,3.3,0.8
	C3,0.6,2.7,0.4,2.3,0.4C2,0.4,1.7,0.5,1.5,0.6S1.1,0.8,0.9,1C0.8,1.1,0.8,1.1,0.8,1.1H0.7c-0.1,0-0.1,0-0.1-0.1L0.5,0.9
	c0-0.1,0.1-0.3,0.4-0.5C1.3,0.1,1.8,0,2.3,0s1,0.2,1.3,0.5s0.5,0.7,0.5,1.1c0,0.3-0.1,0.6-0.2,0.8C3.4,2.7,3.2,2.9,2.9,3.1z"/>
</svg>
