<?xml version="1.0" encoding="utf-8"?>
<!-- Generator: Adobe Illustrator 23.0.3, SVG Export Plug-In . SVG Version: 6.00 Build 0)  -->
<svg version="1.1" id="Layer_1" xmlns="http://www.w3.org/2000/svg" xmlns:xlink="http://www.w3.org/1999/xlink" x="0px" y="0px"
	 viewBox="0 0 3.9 6.7" style="enable-background:new 0 0 3.9 6.7;" xml:space="preserve">
<path d="M0.5,3.8C0.8,3.4,1,3.1,1.3,2.9c0.3-0.1,0.6-0.2,0.9-0.2c0.5,0,0.9,0.2,1.2,0.6c0.4,0.4,0.5,0.8,0.5,1.4
	c0,0.5-0.2,1-0.5,1.4S2.7,6.7,2.1,6.7c-0.4,0-0.7-0.1-1-0.3c-0.3-0.2-0.6-0.6-0.8-1C0.1,4.8,0,4.2,0,3.5C0,3,0.1,2.5,0.3,2
	c0.2-0.4,0.4-0.7,0.6-0.9c0.4-0.4,0.7-0.7,1-0.8C2.3,0.1,2.6,0,3.1,0c0.3,0,0.5,0.1,0.7,0.2c0.1,0.1,0.1,0.1,0.1,0.2s0,0.1-0.1,0.1
	L3.7,0.6c0,0-0.1,0-0.2-0.1C3.4,0.4,3.2,0.4,3,0.4c-0.7,0-1.3,0.3-1.8,0.8c-0.5,0.6-0.8,1.2-0.8,2C0.4,3.4,0.5,3.6,0.5,3.8z
	 M0.6,4.5c0.1,0.6,0.3,1.1,0.6,1.3c0.3,0.3,0.6,0.4,1,0.4s0.7-0.1,1-0.4s0.4-0.7,0.4-1.1S3.5,3.9,3.2,3.6C2.9,3.3,2.6,3.2,2.3,3.2
	S1.7,3.3,1.4,3.6C1,3.7,0.8,4.1,0.6,4.5z"/>
</svg>
