<?xml version="1.0" encoding="utf-8"?>
<!-- Generator: Adobe Illustrator 23.0.3, SVG Export Plug-In . SVG Version: 6.00 Build 0)  -->
<svg version="1.1" id="Layer_1" xmlns="http://www.w3.org/2000/svg" xmlns:xlink="http://www.w3.org/1999/xlink" x="0px" y="0px"
	 viewBox="0 0 5.4 6.7" style="enable-background:new 0 0 5.4 6.7;" xml:space="preserve">
<path d="M1.3,0.1v0.8c0.3-0.3,0.5-0.5,0.8-0.7S2.7,0,3.1,0s0.8,0.1,1.2,0.3s0.6,0.5,0.8,0.8s0.3,0.7,0.3,1.1c0,0.6-0.2,1.1-0.7,1.6
	c-0.4,0.4-1,0.6-1.6,0.6c-0.8,0-1.4-0.3-1.8-0.9v2.6h1c0.1,0,0.2,0,0.2,0.1c0,0,0.1,0.1,0.1,0.2c0,0.1,0,0.1-0.1,0.2
	c0,0-0.1,0.1-0.2,0.1h-2c-0.1,0-0.2,0-0.2-0.1c0,0-0.1-0.1-0.1-0.2c0-0.1,0-0.1,0.1-0.2c0,0,0.1-0.1,0.2-0.1h0.6V0.6H0.3
	c-0.1,0-0.2,0-0.2-0.1c0,0-0.1-0.1-0.1-0.2c0-0.1,0-0.1,0.1-0.2c0,0,0.1-0.1,0.2-0.1h1V0.1z M4.9,2.1c0-0.5-0.2-0.9-0.5-1.3
	C4,0.5,3.6,0.3,3.1,0.3s-1,0.2-1.3,0.5C1.4,1.2,1.3,1.6,1.3,2.1S1.5,3,1.8,3.4c0.4,0.4,0.8,0.5,1.3,0.5S4,3.7,4.4,3.4
	C4.8,3,4.9,2.6,4.9,2.1z"/>
</svg>
