<?xml version="1.0" encoding="utf-8"?>
<!-- Generator: Adobe Illustrator 23.0.3, SVG Export Plug-In . SVG Version: 6.00 Build 0)  -->
<svg version="1.1" id="Layer_1" xmlns="http://www.w3.org/2000/svg" xmlns:xlink="http://www.w3.org/1999/xlink" x="0px" y="0px"
	 viewBox="0 0 3.9 4.4" style="enable-background:new 0 0 3.9 4.4;" xml:space="preserve">
<path d="M3.6,0.1v0.4L0.4,4.1h2.9V3.4c0-0.1,0-0.2,0.1-0.2c0,0,0.1-0.1,0.2-0.1s0.1,0,0.2,0.1c0,0,0.1,0.1,0.1,0.2v1H0V4l3.2-3.6
	H0.6V1c0,0.1,0,0.2-0.1,0.2c0,0-0.1,0.1-0.2,0.1s-0.1,0-0.2-0.1C0.1,1.2,0,1.1,0,1V0h3.6V0.1z"/>
</svg>
