<?xml version="1.0" encoding="utf-8"?>
<!-- Generator: Adobe Illustrator 23.0.3, SVG Export Plug-In . SVG Version: 6.00 Build 0)  -->
<svg version="1.1" id="Layer_1" xmlns="http://www.w3.org/2000/svg" xmlns:xlink="http://www.w3.org/1999/xlink" x="0px" y="0px"
	 viewBox="0 0 5 4.8" style="enable-background:new 0 0 5 4.8;" xml:space="preserve">
<path d="M3.6,4.6V4C3,4.5,2.3,4.8,1.6,4.8c-0.5,0-0.9-0.1-1.2-0.4C0.1,4.1,0,3.8,0,3.5c0-0.4,0.2-0.8,0.6-1.1C1,2.1,1.5,1.9,2.3,1.9
	c0.2,0,0.4,0,0.6,0S3.4,2,3.6,2V1.3c0-0.2-0.1-0.4-0.3-0.6c-0.2-0.2-0.5-0.3-1-0.3C2,0.4,1.5,0.5,0.9,0.7c-0.1,0-0.2,0.1-0.2,0.1
	c-0.1,0-0.1,0-0.1-0.1c0,0-0.1-0.1-0.1-0.2c0-0.1,0-0.1,0.1-0.1c0-0.1,0.2-0.1,0.6-0.2C1.7,0.1,2.1,0,2.4,0c0.5,0,1,0.1,1.3,0.4
	C4,0.7,4.1,1,4.1,1.3v2.8h0.6c0.1,0,0.2,0,0.2,0.1c0,0,0.1,0.1,0.1,0.2c0,0.1,0,0.1-0.1,0.2c0,0-0.1,0.1-0.2,0.1L3.6,4.6L3.6,4.6z
	 M3.6,2.5C3.4,2.4,3.2,2.4,3,2.4s-0.5,0-0.7,0c-0.6,0-1.1,0.1-1.4,0.4C0.6,3,0.5,3.2,0.5,3.5S0.6,4,0.8,4.1C1,4.3,1.3,4.4,1.7,4.4
	s0.7-0.1,1-0.2c0.3-0.1,0.6-0.4,1-0.7v-1H3.6z"/>
</svg>
