<?xml version="1.0" encoding="utf-8"?>
<!-- Generator: Adobe Illustrator 23.0.3, SVG Export Plug-In . SVG Version: 6.00 Build 0)  -->
<svg version="1.1" id="Layer_1" xmlns="http://www.w3.org/2000/svg" xmlns:xlink="http://www.w3.org/1999/xlink" x="0px" y="0px"
	 viewBox="0 0 5.3 6.7" style="enable-background:new 0 0 5.3 6.7;" xml:space="preserve">
<path d="M1.3,0.2v2.6c0.3-0.3,0.5-0.5,0.8-0.6C2.3,2.1,2.6,2,2.9,2s0.6,0.1,0.8,0.2c0.2,0.1,0.4,0.3,0.6,0.5s0.2,0.5,0.2,0.8v2.6H5
	c0.1,0,0.2,0,0.2,0.1c0,0,0.1,0.1,0.1,0.2c0,0.1,0,0.1-0.1,0.2c0,0-0.1,0.1-0.2,0.1H3.6c-0.1,0-0.2,0-0.2-0.1c0,0-0.1-0.1-0.1-0.2
	c0-0.1,0-0.1,0.1-0.2c0,0,0.1-0.1,0.2-0.1h0.5V3.5c0-0.3-0.1-0.6-0.3-0.8S3.3,2.4,2.9,2.4c-0.3,0-0.6,0.1-0.8,0.2
	C1.9,2.7,1.7,3,1.3,3.4v2.7h0.5c0.1,0,0.2,0,0.2,0.1c0,0,0.1,0.1,0.1,0.2c0,0.1,0,0.1-0.1,0.2c0,0-0.1,0.1-0.2,0.1H0.4
	c-0.1,0-0.2,0-0.2-0.1c0,0-0.1-0.1-0.1-0.2c0-0.1,0-0.1,0.1-0.2c0,0,0.1-0.1,0.2-0.1h0.5V0.6H0.3c-0.1,0-0.2,0-0.2-0.1
	c0,0-0.1-0.1-0.1-0.2c0-0.1,0-0.1,0.1-0.2c0,0,0.1-0.1,0.2-0.1h1L1.3,0.2L1.3,0.2z"/>
</svg>
