<?xml version="1.0" encoding="utf-8"?>
<!-- Generator: Adobe Illustrator 23.0.3, SVG Export Plug-In . SVG Version: 6.00 Build 0)  -->
<svg version="1.1" id="Layer_1" xmlns="http://www.w3.org/2000/svg" xmlns:xlink="http://www.w3.org/1999/xlink" x="0px" y="0px"
	 viewBox="0 0 3.2 8.4" style="enable-background:new 0 0 3.2 8.4;" xml:space="preserve">
<path d="M2.8,2.6H0.3c-0.1,0-0.2,0-0.2-0.1c0,0-0.1-0.1-0.1-0.2c0-0.1,0-0.1,0.1-0.2c0,0,0.1-0.1,0.2-0.1h2.9v4.7
	c0,0.4-0.1,0.7-0.2,0.9S2.6,8,2.3,8.2C2.1,8.3,1.9,8.4,1.6,8.4H0.3c-0.1,0-0.2,0-0.2-0.1c0,0-0.1-0.1-0.1-0.2C0,8,0,8,0.1,7.9
	c0,0,0.1-0.1,0.2-0.1h1.3c0.4,0,0.7-0.1,0.9-0.4c0.2-0.2,0.3-0.5,0.3-0.9L2.8,2.6L2.8,2.6z M2.8,0v1.1H2.2V0H2.8z"/>
</svg>
