<?xml version="1.0" encoding="utf-8"?>
<!-- Generator: Adobe Illustrator 23.0.3, SVG Export Plug-In . SVG Version: 6.00 Build 0)  -->
<svg version="1.1" id="Layer_1" xmlns="http://www.w3.org/2000/svg" xmlns:xlink="http://www.w3.org/1999/xlink" x="0px" y="0px"
	 viewBox="0 0 4.7 4.7" style="enable-background:new 0 0 4.7 4.7;" xml:space="preserve">
<path d="M4.7,2.5H0.4c0.1,0.5,0.3,1,0.7,1.3S2,4.3,2.5,4.3c0.3,0,0.6-0.1,1-0.2C3.8,4,4.1,3.9,4.3,3.7c0.1-0.1,0.1-0.1,0.2-0.1
	c0.1,0,0.1,0,0.1,0.1l0.1,0.1c0,0.1,0,0.1-0.1,0.2C4.5,4.2,4.2,4.3,3.8,4.5C3.4,4.6,3,4.7,2.5,4.7C1.8,4.7,1.2,4.5,0.7,4
	S0,2.9,0,2.3c0-0.6,0.2-1.1,0.7-1.6C1.2,0.3,1.7,0,2.4,0s1.3,0.2,1.7,0.7C4.5,1.1,4.7,1.7,4.7,2.5z M4.3,2C4.2,1.5,4,1.2,3.6,0.9
	S2.8,0.5,2.3,0.5S1.4,0.6,1,0.9C0.6,1.2,0.4,1.6,0.3,2H4.3z"/>
</svg>
