<?xml version="1.0" encoding="utf-8"?>
<!-- Generator: Adobe Illustrator 23.0.3, SVG Export Plug-In . SVG Version: 6.00 Build 0)  -->
<svg version="1.1" id="Layer_1" xmlns="http://www.w3.org/2000/svg" xmlns:xlink="http://www.w3.org/1999/xlink" x="0px" y="0px"
	 viewBox="0 0 4.9 4.8" style="enable-background:new 0 0 4.9 4.8;" xml:space="preserve">
<path d="M1.9,0.1v1.1c0.6-0.5,1-0.8,1.2-1C3.4,0.1,3.6,0,3.9,0s0.5,0.1,0.7,0.3s0.3,0.3,0.3,0.4c0,0.1,0,0.1-0.1,0.2
	c0,0-0.1,0.1-0.2,0.1H4.5c0,0-0.1,0-0.1-0.1C4.3,0.8,4.2,0.7,4.1,0.7S3.9,0.6,3.8,0.6c-0.2,0-0.4,0.1-0.7,0.2
	C2.8,0.9,2.4,1.3,1.7,1.9v2.3h1.9c0.1,0,0.2,0,0.2,0.1c0,0,0.1,0.1,0.1,0.2c0,0.1,0,0.1-0.1,0.2c0,0-0.1,0.1-0.2,0.1H0.3
	c-0.1,0-0.2,0-0.2-0.1L0,4.6c0-0.1,0-0.1,0.1-0.1c0,0,0.1-0.1,0.2-0.1h1V0.9H0.7c-0.1,0-0.2,0-0.2-0.1c0,0-0.1-0.1-0.1-0.2
	c0-0.1,0-0.1,0.1-0.2c0,0,0.1-0.1,0.2-0.1h1.2V0.1z"/>
</svg>
