<?xml version="1.0" encoding="utf-8"?>
<!-- Generator: Adobe Illustrator 23.0.3, SVG Export Plug-In . SVG Version: 6.00 Build 0)  -->
<svg version="1.1" id="Layer_1" xmlns="http://www.w3.org/2000/svg" xmlns:xlink="http://www.w3.org/1999/xlink" x="0px" y="0px"
	 viewBox="0 0 5.3 4.8" style="enable-background:new 0 0 5.3 4.8;" xml:space="preserve">
<path d="M4.1,4.6V4C3.5,4.5,2.9,4.8,2.2,4.8c-0.4,0-0.7-0.1-0.9-0.3C1,4.2,0.9,3.9,0.9,3.5V0.6H0.3c-0.1,0-0.2,0-0.2-0.1
	c0,0-0.1-0.1-0.1-0.2c0-0.1,0-0.1,0.1-0.2c0,0,0.1-0.1,0.2-0.1h1v3.2c0,0.3,0.1,0.5,0.3,0.7S2,4.2,2.3,4.2c0.7,0,1.3-0.3,1.9-0.9
	V0.6H3.4c-0.1,0-0.2,0-0.2-0.1c0,0-0.1-0.1-0.1-0.2c0-0.1,0-0.1,0.1-0.2c0,0,0.1-0.1,0.2-0.1h1.2v4H5c0.1,0,0.2,0,0.2,0.1
	c0,0,0.1,0.1,0.1,0.2c0,0.1,0,0.1-0.1,0.2c0,0-0.1,0.1-0.2,0.1H4.1z"/>
</svg>
