<?xml version="1.0" encoding="utf-8"?>
<!-- Generator: Adobe Illustrator 23.0.3, SVG Export Plug-In . SVG Version: 6.00 Build 0)  -->
<svg version="1.1" id="Layer_1" xmlns="http://www.w3.org/2000/svg" xmlns:xlink="http://www.w3.org/1999/xlink" x="0px" y="0px"
	 viewBox="0 0 6.1 5.9" style="enable-background:new 0 0 6.1 5.9;" xml:space="preserve">
<path d="M4.4,3.9H1.6L1.1,5.5h0.8c0.1,0,0.2,0,0.2,0.1c0,0,0.1,0.1,0.1,0.2c0,0.1,0,0.1-0.1,0.2c0,0-0.1,0.1-0.2,0.1H0.3
	c-0.1,0-0.2,0-0.2-0.1C0,5.8,0,5.8,0,5.7c0-0.1,0-0.1,0.1-0.2c0,0,0.1-0.1,0.2-0.1h0.3l1.9-5.1H1.2c-0.1,0-0.2,0-0.2-0.1
	c0,0-0.1-0.1-0.1-0.2c0-0.1,0-0.1,0.1-0.2C1.1,0,1.1,0,1.2,0h2.1l2.1,5.5h0.3c0.1,0,0.2,0,0.2,0.1c0,0,0.1,0.1,0.1,0.2
	c0,0.1,0,0.1-0.1,0.2c0,0-0.1,0.1-0.2,0.1H4.2C4.1,5.9,4,5.9,4,5.9c0,0-0.1-0.1-0.1-0.2c0-0.1,0-0.1,0.1-0.2c0,0,0.1-0.1,0.2-0.1H5
	L4.4,3.9z M4.3,3.5L3.1,0.4H2.9L1.8,3.5H4.3z"/>
</svg>
