<?xml version="1.0" encoding="utf-8"?>
<!-- Generator: Adobe Illustrator 23.0.3, SVG Export Plug-In . SVG Version: 6.00 Build 0)  -->
<svg version="1.1" id="Layer_1" xmlns="http://www.w3.org/2000/svg" xmlns:xlink="http://www.w3.org/1999/xlink" x="0px" y="0px"
	 viewBox="0 0 5.5 6.8" style="enable-background:new 0 0 5.5 6.8;" xml:space="preserve">
<path d="M1.3,0.2V3c0.5-0.7,1.1-1,1.9-1c0.6,0,1.2,0.2,1.6,0.7c0.4,0.4,0.7,1,0.7,1.7S5.3,5.6,4.8,6.1c-0.4,0.5-1,0.7-1.6,0.7
	c-0.7,0-1.4-0.3-1.9-1v0.8h-1c-0.1,0-0.2,0-0.2-0.1c0,0-0.1-0.1-0.1-0.2c0-0.1,0-0.1,0.1-0.2c0,0,0.1-0.1,0.2-0.1h0.6V0.6H0.3
	c-0.1,0-0.2,0-0.2-0.1c0,0-0.1-0.1-0.1-0.2c0-0.1,0-0.1,0.1-0.2c0,0,0.1-0.1,0.2-0.1h1V0.2z M5,4.4c0-0.5-0.2-1-0.6-1.4
	C4,2.6,3.6,2.4,3.1,2.4S2.2,2.6,1.8,3C1.4,3.4,1.2,3.8,1.2,4.4c0,0.5,0.2,1,0.6,1.4s0.8,0.6,1.3,0.6S4,6.2,4.4,5.8
	C4.8,5.4,5,4.9,5,4.4z"/>
</svg>
