<?xml version="1.0" encoding="utf-8"?>
<!-- Generator: Adobe Illustrator 23.0.3, SVG Export Plug-In . SVG Version: 6.00 Build 0)  -->
<svg version="1.1" id="Layer_1" xmlns="http://www.w3.org/2000/svg" xmlns:xlink="http://www.w3.org/1999/xlink" x="0px" y="0px"
	 viewBox="0 0 5.4 6.7" style="enable-background:new 0 0 5.4 6.7;" xml:space="preserve">
<path d="M4.1,0.8V0h1c0.1,0,0.2,0,0.2,0.1c0,0,0.1,0.1,0.1,0.2c0,0.1,0,0.1-0.1,0.2c0,0-0.1,0.1-0.2,0.1H4.5v5.5h0.6
	c0.1,0,0.2,0,0.2,0.1c0,0,0.1,0.1,0.1,0.2c0,0.1,0,0.1-0.1,0.2c0,0-0.1,0.1-0.2,0.1h-2c-0.1,0-0.2,0-0.2-0.1c0,0-0.1-0.1-0.1-0.2
	c0-0.1,0-0.1,0.1-0.2c0,0,0.1-0.1,0.2-0.1h1V3.5C3.6,4.1,3,4.4,2.3,4.4c-0.6,0-1.2-0.2-1.6-0.6C0.3,3.4,0,2.8,0,2.2s0.2-1.1,0.7-1.6
	C1.1,0.2,1.7,0,2.3,0C3-0.1,3.6,0.2,4.1,0.8z M4.1,2.1c0-0.5-0.2-0.9-0.5-1.3C3.2,0.5,2.8,0.3,2.3,0.3S1.4,0.5,1,0.8
	C0.6,1.1,0.5,1.6,0.5,2.1S0.7,3,1,3.4c0.4,0.4,0.8,0.5,1.3,0.5s0.9-0.2,1.3-0.5C3.9,3,4.1,2.6,4.1,2.1z"/>
</svg>
