<?xml version="1.0" encoding="utf-8"?>
<!-- Generator: Adobe Illustrator 23.0.3, SVG Export Plug-In . SVG Version: 6.00 Build 0)  -->
<svg version="1.1" id="Layer_1" xmlns="http://www.w3.org/2000/svg" xmlns:xlink="http://www.w3.org/1999/xlink" x="0px" y="0px"
	 viewBox="0 0 4.8 6.1" style="enable-background:new 0 0 4.8 6.1;" xml:space="preserve">
<path d="M2.7,0.4v5.1h1.1c0.1,0,0.2,0,0.2,0.1c0,0,0.1,0.1,0.1,0.2S4.1,5.9,4,6c0,0-0.1,0.1-0.2,0.1H1.2C1.1,6.1,1,6.1,1,6
	c0,0-0.1-0.1-0.1-0.2s0-0.1,0.1-0.2c0,0,0.1-0.1,0.2-0.1h1.1V0.4H0.6v1.5c0,0.1,0,0.2-0.1,0.2c0,0-0.1,0.1-0.2,0.1
	c-0.1,0-0.1,0-0.2-0.1C0.1,2.1,0,2,0,1.9V0h4.8v1.9c0,0.1,0,0.2-0.1,0.2c0,0-0.1,0.1-0.2,0.1c-0.1,0-0.1,0-0.2-0.1
	c0,0-0.1-0.1-0.1-0.2V0.4H2.7z"/>
</svg>
