<?xml version="1.0" encoding="utf-8"?>
<!-- Generator: Adobe Illustrator 23.0.3, SVG Export Plug-In . SVG Version: 6.00 Build 0)  -->
<svg version="1.1" id="Layer_1" xmlns="http://www.w3.org/2000/svg" xmlns:xlink="http://www.w3.org/1999/xlink" x="0px" y="0px"
	 viewBox="0 0 6 6.1" style="enable-background:new 0 0 6 6.1;" xml:space="preserve">
<path d="M4.8,6.1H4.1L2.9,1.9L1.8,6.1H1.1L0.5,0.6H0.3c-0.1,0-0.2,0-0.2-0.1c0,0-0.1-0.1-0.1-0.2s0-0.1,0.1-0.2c0,0,0.1-0.1,0.2-0.1
	h1.6C2,0,2.1,0,2.1,0.1c0,0,0.1,0.1,0.1,0.2s0,0.1-0.1,0.2c0,0-0.1,0.1-0.2,0.1h-1l0.6,5l1.1-4.1h0.7l1.2,4.1l0.6-5h-1
	c-0.1,0-0.2,0-0.2-0.1c0,0-0.1-0.1-0.1-0.2s0-0.1,0.1-0.2C3.9,0.1,4,0,4.1,0h1.6c0.1,0,0.2,0,0.2,0.1c0,0,0.1,0.1,0.1,0.2
	s0,0.1-0.1,0.2c0,0-0.1,0.1-0.2,0.1H5.5L4.8,6.1z"/>
</svg>
