<?xml version="1.0" encoding="utf-8"?>
<!-- Generator: Adobe Illustrator 23.0.3, SVG Export Plug-In . SVG Version: 6.00 Build 0)  -->
<svg version="1.1" id="Layer_1" xmlns="http://www.w3.org/2000/svg" xmlns:xlink="http://www.w3.org/1999/xlink" x="0px" y="0px"
	 viewBox="0 0 5 5.9" style="enable-background:new 0 0 5 5.9;" xml:space="preserve">
<path d="M1.3,3.1v2.4h1.5c0.1,0,0.2,0,0.2,0.1C3,5.6,3,5.6,3,5.7C3,5.8,3,5.8,3,5.9c0,0-0.1,0.1-0.2,0.1H0.3c-0.1,0-0.2,0-0.2-0.1
	C0,5.8,0,5.8,0,5.7c0-0.1,0-0.1,0.1-0.2c0,0,0.1-0.1,0.2-0.1h0.6V0.4H0.3c-0.1,0-0.2,0-0.2-0.1C0,0.3,0,0.3,0,0.2
	c0-0.1,0-0.1,0.1-0.2C0.1,0,0.2,0,0.3,0H5v1.5c0,0.1,0,0.2-0.1,0.2c0,0-0.1,0.1-0.2,0.1c-0.1,0-0.1,0-0.2-0.1c0,0-0.1-0.1-0.1-0.2
	v-1H1.3v2.2h1.5V2.2c0-0.1,0-0.2,0.1-0.2c0,0,0.1-0.1,0.2-0.1c0.1,0,0.1,0,0.2,0.1c0,0,0.1,0.1,0.1,0.2v1.4c0,0.1,0,0.2-0.1,0.2
	c0,0-0.1,0.1-0.2,0.1c-0.1,0-0.1,0-0.2-0.1c0,0-0.1-0.1-0.1-0.2V3.1H1.3z"/>
</svg>
