<?xml version="1.0" encoding="utf-8"?>
<!-- Generator: Adobe Illustrator 23.0.3, SVG Export Plug-In . SVG Version: 6.00 Build 0)  -->
<svg version="1.1" id="Layer_1" xmlns="http://www.w3.org/2000/svg" xmlns:xlink="http://www.w3.org/1999/xlink" x="0px" y="0px"
	 viewBox="0 0 3.7 6.4" style="enable-background:new 0 0 3.7 6.4;" xml:space="preserve">
<path d="M2.3,3.5v0.4c0,0.1,0,0.2-0.1,0.2c0,0-0.1,0.1-0.2,0.1s-0.1,0-0.2-0.1c0,0-0.1-0.1-0.1-0.2V3.2c0.7-0.3,1.2-0.5,1.5-0.8
	c0.2-0.2,0.2-0.3,0.2-0.6c0-0.4-0.1-0.7-0.4-1S2.4,0.4,1.9,0.4c-0.2,0-0.4,0-0.6,0.1S0.9,0.6,0.6,0.8v0.4c0,0.1,0,0.2-0.1,0.2
	c0,0-0.1,0.1-0.2,0.1s-0.1,0-0.2-0.1c0,0-0.1-0.1-0.1-0.2V0.5c0.5-0.2,0.9-0.4,1-0.4C1.3,0,1.5,0,1.8,0c0.6,0,1,0.2,1.4,0.5
	c0.3,0.3,0.5,0.8,0.5,1.3c0,0.3-0.1,0.6-0.3,0.8C3.5,2.9,3,3.2,2.3,3.5z M1.9,5.2h0.4c0.1,0,0.3,0.1,0.4,0.2s0.2,0.2,0.2,0.4
	c0,0.1-0.1,0.3-0.2,0.4S2.5,6.4,2.3,6.4H1.9c-0.1,0-0.3-0.1-0.4-0.2S1.3,6,1.3,5.8c0-0.2,0.1-0.3,0.2-0.4S1.7,5.2,1.9,5.2z"/>
</svg>
