<?xml version="1.0" encoding="utf-8"?>
<!-- Generator: Adobe Illustrator 23.0.3, SVG Export Plug-In . SVG Version: 6.00 Build 0)  -->
<svg version="1.1" id="Layer_1" xmlns="http://www.w3.org/2000/svg" xmlns:xlink="http://www.w3.org/1999/xlink" x="0px" y="0px"
	 viewBox="0 0 4 6.7" style="enable-background:new 0 0 4 6.7;" xml:space="preserve">
<path d="M2.9,3.2c0.4,0.2,0.6,0.4,0.8,0.7C3.9,4.2,4,4.5,4,4.8c0,0.5-0.2,0.9-0.6,1.3C3,6.5,2.6,6.7,2,6.7c-0.5,0-1-0.2-1.4-0.6
	S0,5.3,0,4.8c0-0.3,0.1-0.6,0.3-0.9s0.4-0.5,0.8-0.7C0.8,3,0.6,2.8,0.4,2.6C0.2,2.3,0.1,2,0.1,1.7c0-0.5,0.2-0.9,0.5-1.2
	C1,0.2,1.4,0,1.9,0s0.9,0.2,1.3,0.5s0.5,0.8,0.5,1.2c0,0.3-0.1,0.6-0.3,0.9C3.4,2.9,3.2,3,2.9,3.2z M3.6,4.8c0-0.4-0.1-0.7-0.4-1
	S2.5,3.4,2.1,3.4C1.7,3.4,1.3,3.5,1,3.8s-0.4,0.6-0.4,1s0.1,0.7,0.4,1s0.7,0.4,1.1,0.4c0.4,0,0.8-0.1,1.1-0.4
	C3.4,5.5,3.6,5.2,3.6,4.8z M3.4,1.8c0-0.4-0.1-0.7-0.4-0.9C2.7,0.6,2.4,0.5,2,0.5S1.3,0.6,1,0.9S0.6,1.5,0.6,1.8S0.7,2.4,1,2.7
	c0.3,0.2,0.6,0.4,1,0.4S2.7,3,3,2.7S3.4,2.1,3.4,1.8z"/>
</svg>
