<?xml version="1.0" encoding="utf-8"?>
<!-- Generator: Adobe Illustrator 23.0.3, SVG Export Plug-In . SVG Version: 6.00 Build 0)  -->
<svg version="1.1" id="Layer_1" xmlns="http://www.w3.org/2000/svg" xmlns:xlink="http://www.w3.org/1999/xlink" x="0px" y="0px"
	 viewBox="0 0 5.2 5.9" style="enable-background:new 0 0 5.2 5.9;" xml:space="preserve">
<path d="M0.9,5.5V0.4H0.3c-0.1,0-0.2,0-0.2-0.1C0,0.3,0,0.3,0,0.2c0-0.1,0-0.1,0.1-0.2C0.1,0,0.2,0,0.3,0H3c0.5,0,1,0.2,1.3,0.5
	c0.3,0.3,0.5,0.7,0.5,1.1c0,0.5-0.3,0.9-0.8,1.3c0.4,0.2,0.8,0.4,1,0.6C5.1,3.7,5.2,4,5.2,4.3c0,0.3-0.1,0.5-0.2,0.8
	C4.8,5.3,4.6,5.5,4.4,5.7C4.1,5.8,3.8,5.9,3.5,5.9H0.3c-0.1,0-0.2,0-0.2-0.1C0,5.8,0,5.8,0,5.7c0-0.1,0-0.1,0.1-0.2
	c0,0,0.1-0.1,0.2-0.1H0.9z M1.3,2.6h1.5c0.3,0,0.6-0.1,0.9-0.2C3.9,2.4,4,2.2,4.1,2c0.1-0.2,0.2-0.4,0.2-0.5c0-0.3-0.1-0.5-0.4-0.7
	C3.7,0.5,3.4,0.4,3,0.4H1.3V2.6z M1.3,5.5h2.1c0.3,0,0.5-0.1,0.7-0.2C4.3,5.2,4.5,5,4.6,4.9c0.1-0.2,0.2-0.4,0.2-0.6
	c0-0.2-0.1-0.4-0.2-0.6C4.4,3.5,4.2,3.3,3.9,3.2C3.6,3.1,3.3,3.1,2.8,3.1H1.3V5.5z"/>
</svg>
