<?xml version="1.0" encoding="utf-8"?>
<!-- Generator: Adobe Illustrator 23.0.3, SVG Export Plug-In . SVG Version: 6.00 Build 0)  -->
<svg version="1.1" id="Layer_1" xmlns="http://www.w3.org/2000/svg" xmlns:xlink="http://www.w3.org/1999/xlink" x="0px" y="0px"
	 viewBox="0 0 1.8 7.6" style="enable-background:new 0 0 1.8 7.6;" xml:space="preserve">
<path d="M0,3.8C0,3.4,0.1,3,0.2,2.6c0.1-0.4,0.3-0.9,0.6-1.5c0.3-0.6,0.5-0.9,0.6-1L1.5,0c0.1,0,0.1,0,0.2,0.1l0.1,0.1v0.1
	C1.4,1,1.2,1.6,1,2.1C0.8,2.7,0.8,3.2,0.8,3.8S0.9,4.9,1,5.5c0.2,0.6,0.4,1.2,0.8,1.8v0.1c0,0.1,0,0.1-0.1,0.1c0,0-0.1,0.1-0.2,0.1
	c0,0-0.1,0-0.1-0.1c-0.1-0.1-0.3-0.4-0.6-1C0.5,5.9,0.3,5.5,0.2,5C0.1,4.7,0,4.3,0,3.8z"/>
</svg>
