<?xml version="1.0" encoding="utf-8"?>
<!-- Generator: Adobe Illustrator 23.0.3, SVG Export Plug-In . SVG Version: 6.00 Build 0)  -->
<svg version="1.1" id="Layer_1" xmlns="http://www.w3.org/2000/svg" xmlns:xlink="http://www.w3.org/1999/xlink" x="0px" y="0px"
	 viewBox="0 0 5.2 6.6" style="enable-background:new 0 0 5.2 6.6;" xml:space="preserve">
<path d="M2.4,4.4l-2-3.9H0.3c-0.1,0-0.2,0-0.2-0.1c0,0-0.1-0.1-0.1-0.2V0.1L0.1,0c0,0,0.1,0,0.2,0h1.2c0.1,0,0.2,0,0.2,0.1
	c0,0,0.1,0.1,0.1,0.2c0,0.1,0,0.1-0.1,0.2c0,0-0.1,0.1-0.2,0.1H0.9l1.7,3.5l1.7-3.5H3.7c-0.1,0-0.2,0-0.2-0.1c0,0-0.1-0.1-0.1-0.2
	c0-0.1,0-0.1,0.1-0.2c0,0,0.1-0.1,0.2-0.1h1.2C5,0,5.1,0,5.1,0.1c0,0,0.1,0.1,0.1,0.2v0.1L5.1,0.5c0,0-0.1,0-0.3,0L2.1,6h0.7
	C2.9,6,3,6,3,6.1c0,0,0.1,0.1,0.1,0.2c0,0.1,0,0.1-0.1,0.2c0,0-0.1,0.1-0.2,0.1H0.4c-0.1,0-0.2,0-0.2-0.1c0,0-0.1-0.1-0.1-0.2
	c0-0.1,0-0.1,0.1-0.2c0,0,0.1-0.1,0.2-0.1h1.3L2.4,4.4z"/>
</svg>
