<?xml version="1.0" encoding="utf-8"?>
<!-- Generator: Adobe Illustrator 23.0.3, SVG Export Plug-In . SVG Version: 6.00 Build 0)  -->
<svg version="1.1" id="Layer_1" xmlns="http://www.w3.org/2000/svg" xmlns:xlink="http://www.w3.org/1999/xlink" x="0px" y="0px"
	 viewBox="0 0 6 6.4" style="enable-background:new 0 0 6 6.4;" xml:space="preserve">
<path d="M3.3,4.4H2.8L1.2,0.7H1.1v5.1h0.8c0.1,0,0.2,0,0.2,0.1c0,0,0.1,0.1,0.1,0.2s0,0.1-0.1,0.2c0,0-0.1,0.1-0.2,0.1H0.3
	c-0.1,0-0.2,0-0.2-0.1c0,0-0.1-0.1-0.1-0.2S0,6,0.1,5.9c0,0,0.1-0.1,0.2-0.1h0.4V0.6H0.4c-0.1,0-0.2,0-0.2-0.1c0,0-0.1-0.1-0.1-0.2
	s0-0.1,0.1-0.2c0,0,0.1-0.1,0.2-0.1h1L3,3.7L4.6,0h1c0.1,0,0.2,0,0.2,0.1c0,0,0.1,0.1,0.1,0.2s0,0.1-0.1,0.2c0,0-0.1,0.1-0.2,0.1
	H5.3v5.1h0.4c0.1,0,0.2,0,0.2,0.1C5.9,5.8,6,5.9,6,6s0,0.1-0.1,0.2c0,0-0.1,0.1-0.2,0.1H4.1c-0.1,0-0.2,0-0.2-0.1
	c0,0-0.1-0.1-0.1-0.2s0-0.1,0.1-0.2c0,0,0.1-0.1,0.2-0.1h0.8V0.6H4.8L3.3,4.4z"/>
</svg>
