<?xml version="1.0" encoding="utf-8"?>
<!-- Generator: Adobe Illustrator 23.0.3, SVG Export Plug-In . SVG Version: 6.00 Build 0)  -->
<svg version="1.1" id="Layer_1" xmlns="http://www.w3.org/2000/svg" xmlns:xlink="http://www.w3.org/1999/xlink" x="0px" y="0px"
	 viewBox="0 0 4.8 6.3" style="enable-background:new 0 0 4.8 6.3;" xml:space="preserve">
<path d="M1.3,3.7v2h1.5c0.1,0,0.2,0,0.2,0.1c0,0,0.1,0.1,0.1,0.2s0,0.1-0.1,0.2c0,0-0.1,0.1-0.2,0.1H0.3c-0.1,0-0.2,0-0.2-0.1
	C0.1,6.2,0,6.1,0,6s0-0.1,0.1-0.2c0,0,0.1-0.1,0.2-0.1h0.6V0.6H0.3c-0.1,0-0.2,0-0.2-0.1c0,0-0.1-0.1-0.1-0.2s0-0.1,0.1-0.2
	c0,0,0.1-0.1,0.2-0.1h2.5c0.6,0,1.1,0.2,1.4,0.5c0.4,0.3,0.6,0.7,0.6,1.2c0,0.3-0.1,0.5-0.2,0.7C4.5,2.6,4.3,2.8,4.2,2.9
	C3.9,3.1,3.7,3.2,3.4,3.3C3.2,3.4,3,3.4,2.7,3.4H1.3V3.7z M1.3,3.3h1.4c0.3,0,0.6-0.1,0.9-0.2C3.9,3,4.1,2.8,4.2,2.6S4.4,2.2,4.4,2
	c0-0.3-0.1-0.6-0.4-0.9C3.7,0.8,3.4,0.7,2.9,0.7H1.4v2.6H1.3z"/>
</svg>
