<?xml version="1.0" encoding="utf-8"?>
<!-- Generator: Adobe Illustrator 23.0.3, SVG Export Plug-In . SVG Version: 6.00 Build 0)  -->
<svg version="1.1" id="Layer_1" xmlns="http://www.w3.org/2000/svg" xmlns:xlink="http://www.w3.org/1999/xlink" x="0px" y="0px"
	 viewBox="0 0 5 6.7" style="enable-background:new 0 0 5 6.7;" xml:space="preserve">
<path d="M1.3,4.8v1.9h-1c-0.1,0-0.2,0-0.2-0.1c0,0-0.1-0.1-0.1-0.2c0-0.1,0-0.1,0.1-0.2c0,0,0.1-0.1,0.2-0.1h0.6V0.6H0.3
	c-0.1,0-0.2,0-0.2-0.1c0,0-0.1-0.1-0.1-0.2c0-0.1,0-0.1,0.1-0.2c0,0,0.1-0.1,0.2-0.1h1v3.9l1.8-1.5H2.9c-0.1,0-0.2,0-0.2-0.1
	c0,0-0.1-0.1-0.1-0.2c0-0.1,0-0.1,0.1-0.2c0,0,0.1-0.1,0.2-0.1h1.4c0.1,0,0.2,0,0.2,0.1c0,0,0.1,0.1,0.1,0.2c0,0.1,0,0.1-0.1,0.2
	c0,0-0.1,0.1-0.2,0.1H3.8L2.1,3.8l2.1,2.1h0.5c0.1,0,0.2,0,0.2,0.1C4.9,6,5,6.1,5,6.2c0,0.1,0,0.1-0.1,0.2c0,0-0.1,0.1-0.2,0.1H3.3
	c-0.1,0-0.2,0-0.2-0.1c0,0-0.1-0.1-0.1-0.2C3,6.1,3,6.1,3.1,6c0,0,0.1-0.1,0.2-0.1h0.3L1.8,4L1.3,4.8z"/>
</svg>
