<?xml version="1.0" encoding="utf-8"?>
<!-- Generator: Adobe Illustrator 23.0.3, SVG Export Plug-In . SVG Version: 6.00 Build 0)  -->
<svg version="1.1" id="Layer_1" xmlns="http://www.w3.org/2000/svg" xmlns:xlink="http://www.w3.org/1999/xlink" x="0px" y="0px"
	 viewBox="0 0 5.7 6.3" style="enable-background:new 0 0 5.7 6.3;" xml:space="preserve">
<path d="M1.3,3.5v2.2h0.8c0.1,0,0.2,0,0.2,0.1c0,0,0.1,0.1,0.1,0.2s0,0.1-0.1,0.2c0,0-0.1,0.1-0.2,0.1H0.3c-0.1,0-0.2,0-0.2-0.1
	C0.1,6.2,0,6.1,0,6s0-0.1,0.1-0.2c0,0,0.1-0.1,0.2-0.1h0.6V0.6H0.3c-0.1,0-0.2,0-0.2-0.1c0,0-0.1-0.1-0.1-0.2s0-0.1,0.1-0.2
	c0,0,0.1-0.1,0.2-0.1h2.6c0.5,0,1,0.2,1.3,0.5c0.4,0.3,0.5,0.7,0.5,1.1c0,0.3-0.1,0.6-0.3,0.9S3.8,3,3.3,3.2
	c0.3,0.2,0.6,0.4,0.8,0.7s0.6,0.8,1,1.6h0.3c0.1,0,0.2,0,0.2,0.1c0,0,0.1,0.1,0.1,0.2s0,0.1-0.1,0.2c0,0-0.1,0.1-0.2,0.1H4.8
	C4.3,5.2,3.9,4.5,3.6,4.2S3,3.6,2.6,3.5C2.6,3.5,1.3,3.5,1.3,3.5z M1.3,3.1h1.2c0.4,0,0.7-0.1,1-0.2C3.8,2.8,4,2.6,4.2,2.4
	C4.3,2.2,4.4,2,4.4,1.8C4.4,1.5,4.3,1.2,4,1C3.7,0.7,3.4,0.6,3,0.6H1.4L1.3,3.1L1.3,3.1z"/>
</svg>
