<?xml version="1.0" encoding="utf-8"?>
<!-- Generator: Adobe Illustrator 23.0.3, SVG Export Plug-In . SVG Version: 6.00 Build 0)  -->
<svg version="1.1" id="Layer_1" xmlns="http://www.w3.org/2000/svg" xmlns:xlink="http://www.w3.org/1999/xlink" x="0px" y="0px"
	 viewBox="0 0 5.4 6.9" style="enable-background:new 0 0 5.4 6.9;" xml:space="preserve">
<path d="M4.5,0.2v5.9h0.6c0.1,0,0.2,0,0.2,0.1c0,0,0.1,0.1,0.1,0.2c0,0.1,0,0.1-0.1,0.2c0,0-0.1,0.1-0.2,0.1h-1V5.9
	c-0.5,0.7-1.1,1-1.9,1c-0.4,0-0.8-0.1-1.1-0.3C0.7,6.4,0.5,6.1,0.3,5.7S0,4.9,0,4.5s0.1-0.8,0.3-1.2s0.5-0.7,0.8-0.9
	c0.4-0.2,0.7-0.3,1.1-0.3c0.7,0,1.4,0.3,1.9,1V0.6H3.5c-0.1,0-0.2,0-0.2-0.1c0,0-0.1-0.1-0.1-0.2c0-0.1,0-0.1,0.1-0.2
	c0,0,0.1-0.1,0.2-0.1h1V0.2z M4,4.4c0-0.5-0.2-1-0.5-1.4C3.1,2.6,2.7,2.4,2.2,2.4S1.3,2.6,0.9,3C0.5,3.4,0.4,3.8,0.4,4.4
	c0,0.5,0.2,1,0.5,1.4c0.4,0.4,0.8,0.6,1.3,0.6s0.9-0.2,1.3-0.6C3.8,5.4,4,4.9,4,4.4z"/>
</svg>
