<?xml version="1.0" encoding="utf-8"?>
<!-- Generator: Adobe Illustrator 23.0.3, SVG Export Plug-In . SVG Version: 6.00 Build 0)  -->
<svg version="1.1" id="Layer_1" xmlns="http://www.w3.org/2000/svg" xmlns:xlink="http://www.w3.org/1999/xlink" x="0px" y="0px"
	 viewBox="0 0 1.4 6.8" style="enable-background:new 0 0 1.4 6.8;" xml:space="preserve">
<path d="M0.6,5.6h0.2c0.1,0,0.3,0.1,0.4,0.2S1.4,6,1.4,6.2c0,0.1-0.1,0.3-0.2,0.4S1,6.8,0.8,6.8H0.6c-0.1,0-0.3-0.1-0.4-0.2
	S0,6.4,0,6.2C0,6,0.1,5.9,0.2,5.8C0.4,5.7,0.5,5.6,0.6,5.6z M1.1,0.6L0.9,4c0,0.1,0,0.2-0.1,0.2L0.7,4.3c-0.1,0-0.1,0-0.1-0.1
	c0,0-0.1-0.1-0.1-0.2L0.3,0.6c0-0.1,0-0.1,0-0.2s0-0.2,0.1-0.3C0.5,0,0.6,0,0.7,0C0.8,0,0.9,0,1,0.1c0.1,0.1,0.1,0.2,0.1,0.3
	C1.1,0.5,1.1,0.5,1.1,0.6z"/>
</svg>
