<?xml version="1.0" encoding="utf-8"?>
<!-- Generator: Adobe Illustrator 23.0.3, SVG Export Plug-In . SVG Version: 6.00 Build 0)  -->
<svg version="1.1" id="Layer_1" xmlns="http://www.w3.org/2000/svg" xmlns:xlink="http://www.w3.org/1999/xlink" x="0px" y="0px"
	 viewBox="0 0 5.4 6.2" style="enable-background:new 0 0 5.4 6.2;" xml:space="preserve">
<path d="M2.9,3l2,2.6h0.2c0.1,0,0.2,0,0.2,0.1c0,0,0.1,0.1,0.1,0.2s0,0.1-0.1,0.2c0,0-0.1,0.1-0.2,0.1H3.7c-0.1,0-0.2,0-0.2-0.1
	c0,0-0.1-0.1-0.1-0.2s0-0.1,0.1-0.2c0,0,0.1-0.1,0.2-0.1h0.7L2.6,3.3L0.9,5.6h0.7c0.1,0,0.2,0,0.2,0.1c0,0,0.1,0.1,0.1,0.2
	s0,0.1-0.1,0.2c0,0-0.1,0.1-0.2,0.1H0.3c-0.1,0-0.2,0-0.2-0.1C0.1,6.1,0,6,0,5.9V5.8l0.1-0.1c0,0,0.1,0,0.3,0l2-2.6L0.5,0.6H0.3
	c-0.1,0-0.2,0-0.2-0.1c0,0-0.1-0.1-0.1-0.2s0-0.1,0.1-0.2c0,0,0.1-0.1,0.2-0.1h1.2c0.1,0,0.2,0,0.2,0.1c0,0,0.1,0.1,0.1,0.2
	s0,0.1-0.1,0.2c0,0-0.1,0.1-0.2,0.1H1l1.6,2.1l1.6-2.1H3.7c-0.1,0-0.2,0-0.2-0.1c0,0-0.1-0.1-0.1-0.2s0-0.1,0.1-0.2
	c0,0,0.1-0.1,0.2-0.1h1.2C5,0,5.1,0,5.1,0.1c0,0,0.1,0.1,0.1,0.2s0,0.1-0.1,0.2c0,0-0.1,0.1-0.2,0.1H4.7L2.9,3z"/>
</svg>
