<?xml version="1.0" encoding="utf-8"?>
<!-- Generator: Adobe Illustrator 23.0.3, SVG Export Plug-In . SVG Version: 6.00 Build 0)  -->
<svg version="1.1" id="Layer_1" xmlns="http://www.w3.org/2000/svg" xmlns:xlink="http://www.w3.org/1999/xlink" x="0px" y="0px"
	 viewBox="0 0 4.1 4.7" style="enable-background:new 0 0 4.1 4.7;" xml:space="preserve">
<path d="M3.4,0.5c0-0.1,0-0.2,0.1-0.2c0,0,0.1-0.1,0.2-0.1c0.1,0,0.1,0,0.2,0.1c0,0,0.1,0.1,0.1,0.2v0.7c0,0.1,0,0.2-0.1,0.2
	c0,0-0.1,0.1-0.2,0.1c-0.1,0-0.1,0-0.1-0.1c0,0-0.1-0.1-0.1-0.2c0-0.2-0.1-0.4-0.3-0.5C2.9,0.5,2.6,0.4,2.1,0.4S1.3,0.5,1,0.7
	C0.8,0.8,0.7,1,0.7,1.2s0.1,0.4,0.4,0.5C1.3,1.8,1.6,1.9,2,1.9C2.6,2,3,2,3.2,2.1c0.3,0.1,0.6,0.3,0.7,0.5C4.1,2.8,4.1,3,4.1,3.3
	c0,0.4-0.2,0.7-0.5,1S2.7,4.7,2.1,4.7c-0.7,0-1.2-0.2-1.6-0.5c0,0.1,0,0.2,0,0.2s0,0.1-0.1,0.1H0.3c-0.1,0-0.1,0-0.2-0.1
	c0,0-0.1-0.1-0.1-0.2V3.3c0-0.1,0-0.2,0.1-0.2c0,0,0.1-0.1,0.2-0.1c0.1,0,0.1,0,0.2,0.1c0,0,0.1,0.1,0.1,0.2c0,0.2,0,0.3,0.1,0.4
	C0.8,3.9,1,4,1.3,4.1c0.3,0.1,0.6,0.2,0.9,0.2c0.6,0,1-0.1,1.2-0.3c0.3-0.2,0.4-0.4,0.4-0.7S3.7,2.8,3.4,2.7
	C3.1,2.5,2.7,2.4,2.2,2.4C1.7,2.3,1.3,2.3,1.1,2.2C0.9,2.1,0.7,2,0.6,1.8S0.4,1.4,0.4,1.2c0-0.4,0.2-0.7,0.5-0.9
	C1.3,0.1,1.7,0,2.2,0C2.5,0.1,3,0.3,3.4,0.5z"/>
</svg>
