<?xml version="1.0" encoding="utf-8"?>
<!-- Generator: Adobe Illustrator 23.0.3, SVG Export Plug-In . SVG Version: 6.00 Build 0)  -->
<svg version="1.1" id="Layer_1" xmlns="http://www.w3.org/2000/svg" xmlns:xlink="http://www.w3.org/1999/xlink" x="0px" y="0px"
	 viewBox="0 0 5.2 6.2" style="enable-background:new 0 0 5.2 6.2;" xml:space="preserve">
<path d="M3.9,0.6v3.7c0,0.5-0.2,1-0.6,1.3C2.9,6,2.5,6.2,1.9,6.2C1.6,6.2,1.3,6.1,1,6C0.7,5.9,0.4,5.6,0,5.3V3.7
	c0-0.1,0-0.2,0.1-0.2c0,0,0.1-0.1,0.2-0.1c0.1,0,0.1,0,0.2,0.1c0,0,0.1,0.1,0.1,0.2v1.4c0.3,0.2,0.5,0.4,0.8,0.5s0.5,0.2,0.8,0.2
	S2.7,5.7,3,5.6c0.2-0.1,0.4-0.3,0.5-0.5c0.2-0.2,0.2-0.5,0.2-0.8V0.6H1.8c-0.1,0-0.2,0-0.2-0.1c0,0-0.1-0.1-0.1-0.2s0-0.1,0.1-0.2
	c0,0,0.1-0.1,0.2-0.1h3.1C5,0,5.1,0,5.1,0.1c0,0,0.1,0.1,0.1,0.2s0,0.1-0.1,0.2c0,0-0.1,0.1-0.2,0.1H3.9z"/>
</svg>
