<?xml version="1.0" encoding="utf-8"?>
<!-- Generator: Adobe Illustrator 23.0.3, SVG Export Plug-In . SVG Version: 6.00 Build 0)  -->
<svg version="1.1" id="Layer_1" xmlns="http://www.w3.org/2000/svg" xmlns:xlink="http://www.w3.org/1999/xlink" x="0px" y="0px"
	 viewBox="0 0 4.3 7.9" style="enable-background:new 0 0 4.3 7.9;" xml:space="preserve">
<path d="M3.1,3.2L3,4.5h0.8c0.1,0,0.2,0,0.2,0.1c0,0,0.1,0.1,0.1,0.2S4.1,4.9,4,5c0,0-0.1,0.1-0.2,0.1H3L2.8,7.5
	c0,0.1,0,0.2-0.1,0.2L2.6,7.8H2.5C2.4,7.7,2.4,7.7,2.4,7.6V7.5l0.2-2.3h-1L1.4,7.6c0,0.1,0,0.2-0.1,0.2L1.2,7.9H1.1
	C1,7.8,1,7.8,1,7.7V7.6l0.2-2.3H0.3c-0.1,0-0.2,0-0.2-0.1C0.1,5.2,0,5.1,0,5s0-0.1,0.1-0.2c0,0,0.1-0.1,0.2-0.1h0.9l0.1-1.3H0.5
	c-0.1,0-0.2,0-0.2-0.1c0,0-0.1-0.1-0.1-0.2s0-0.1,0.1-0.2c0,0,0.1-0.1,0.2-0.1h0.8l0.2-2.4c0-0.1,0-0.2,0.1-0.2l0.1-0.1h0.1
	c0.1,0.1,0.1,0.1,0.1,0.2v0.1L1.7,2.7h1l0.2-2.4c0-0.1,0-0.2,0.1-0.2L3.1,0h0.1c0.1,0.1,0.1,0.1,0.1,0.2v0.1L3.1,2.6H4
	c0.1,0,0.2,0,0.2,0.1c0,0,0.1,0.1,0.1,0.2s0,0.1-0.1,0.2c0,0-0.1,0.1-0.2,0.1H3.1z M2.7,3.2h-1L1.6,4.5h1L2.7,3.2z"/>
</svg>
