<?xml version="1.0" encoding="utf-8"?>
<!-- Generator: Adobe Illustrator 23.0.3, SVG Export Plug-In . SVG Version: 6.00 Build 0)  -->
<svg version="1.1" id="Layer_1" xmlns="http://www.w3.org/2000/svg" xmlns:xlink="http://www.w3.org/1999/xlink" x="0px" y="0px"
	 viewBox="0 0 5 4.7" style="enable-background:new 0 0 5 4.7;" xml:space="preserve">
<path d="M1.1,0.2v0.6c0.3-0.3,0.6-0.5,0.8-0.6C2.1,0.1,2.4,0,2.7,0s0.6,0.1,0.9,0.2C3.8,0.3,4,0.5,4.1,0.7c0.2,0.2,0.2,0.5,0.2,0.7
	v2.7h0.4c0.1,0,0.2,0,0.2,0.1c0,0,0.1,0.1,0.1,0.2c0,0.1,0,0.1-0.1,0.2c0,0-0.1,0.1-0.2,0.1H3.6c-0.1,0-0.2,0-0.2-0.1
	c0,0-0.1-0.1-0.1-0.2c0-0.1,0-0.1,0.1-0.2c0,0,0.1-0.1,0.2-0.1H4V1.5c0-0.3-0.1-0.6-0.3-0.8C3.5,0.5,3.2,0.4,2.8,0.4
	c-0.3,0-0.5,0.1-0.7,0.2C1.9,0.7,1.6,1,1.2,1.4v2.7h0.5c0.1,0,0.2,0,0.2,0.1c0,0,0.1,0.1,0.1,0.2c0,0.1,0,0.1-0.1,0.2
	c0,0-0.1,0.1-0.2,0.1H0.3c-0.1,0-0.2,0-0.2-0.1c0,0-0.1-0.1-0.1-0.2c0-0.1,0-0.1,0.1-0.2c0,0,0.1-0.1,0.2-0.1h0.5V0.6H0.4
	c-0.1,0-0.2,0-0.2-0.1c0,0-0.1-0.1-0.1-0.2c0-0.1,0-0.1,0.1-0.2c0,0,0.1-0.1,0.2-0.1h0.7C1.1,0,1.1,0.2,1.1,0.2z"/>
</svg>
