<?xml version="1.0" encoding="utf-8"?>
<!-- Generator: Adobe Illustrator 23.0.3, SVG Export Plug-In . SVG Version: 6.00 Build 0)  -->
<svg version="1.1" id="Layer_1" xmlns="http://www.w3.org/2000/svg" xmlns:xlink="http://www.w3.org/1999/xlink" x="0px" y="0px"
	 viewBox="0 0 4.8 6.2" style="enable-background:new 0 0 4.8 6.2;" xml:space="preserve">
<path d="M1.5,1.6h2.3c0.1,0,0.2,0,0.2,0.1c0,0,0.1,0.1,0.1,0.2C4.1,2,4.1,2,4,2.1c0,0-0.1,0.1-0.2,0.1H1.5V5c0,0.2,0.1,0.5,0.3,0.6
	C2,5.8,2.3,5.8,2.7,5.8c0.3,0,0.6,0,0.9-0.1s0.6-0.2,0.8-0.3c0.1,0,0.1-0.1,0.2-0.1s0.1,0,0.1,0.1l0.1,0.1c0,0.1,0,0.1-0.1,0.1
	C4.6,5.7,4.3,5.8,3.9,6C3.5,6.1,3.1,6.2,2.7,6.2c-0.5,0-0.9-0.1-1.2-0.3S1.1,5.4,1.1,5V2.2H0.3c-0.1,0-0.2,0-0.2-0.1
	C0.1,2.1,0,2,0,1.9c0-0.1,0-0.1,0.1-0.2c0,0,0.1-0.1,0.2-0.1h0.8V0.3c0-0.1,0-0.2,0.1-0.2c0,0,0.1-0.1,0.2-0.1c0.1,0,0.1,0,0.2,0.1
	c0,0,0.1,0.1,0.1,0.2v1.3H1.5z"/>
</svg>
