<?xml version="1.0" encoding="utf-8"?>
<!-- Generator: Adobe Illustrator 23.0.3, SVG Export Plug-In . SVG Version: 6.00 Build 0)  -->
<svg version="1.1" id="Layer_1" xmlns="http://www.w3.org/2000/svg" xmlns:xlink="http://www.w3.org/1999/xlink" x="0px" y="0px"
	 viewBox="0 0 5.6 6.3" style="enable-background:new 0 0 5.6 6.3;" xml:space="preserve">
<path d="M4.9,6.1H4.4L1.3,0.8v4.9h0.8c0.1,0,0.2,0,0.2,0.1c0,0,0.1,0.1,0.1,0.2s0,0.1-0.1,0.2c0,0-0.1,0.1-0.2,0.1H0.5
	c-0.1,0-0.2,0-0.2-0.1c0,0-0.1-0.1-0.1-0.2s0-0.1,0.1-0.2c0,0,0.1-0.1,0.2-0.1h0.4V0.6H0.3c-0.1,0-0.2,0-0.2-0.1
	c0,0-0.1-0.1-0.1-0.2s0-0.1,0.1-0.2c0,0,0.1-0.1,0.2-0.1h1.1l3.1,5.3V0.6H3.7c-0.1,0-0.2,0-0.2-0.1c0,0-0.1-0.1-0.1-0.2
	s0-0.1,0.1-0.2c0,0,0.1-0.1,0.2-0.1h1.6c0.1,0,0.2,0,0.2,0.1c0,0,0.1,0.1,0.1,0.2s0,0.1-0.1,0.2c0,0-0.1,0.1-0.2,0.1H4.9V6.1z"/>
</svg>
