<?xml version="1.0" encoding="utf-8"?>
<!-- Generator: Adobe Illustrator 23.0.3, SVG Export Plug-In . SVG Version: 6.00 Build 0)  -->
<svg version="1.1" id="Layer_1" xmlns="http://www.w3.org/2000/svg" xmlns:xlink="http://www.w3.org/1999/xlink" x="0px" y="0px"
	 viewBox="0 0 5.2 6.7" style="enable-background:new 0 0 5.2 6.7;" xml:space="preserve">
<path d="M3.9,1V0.2h1c0.1,0,0.2,0,0.2,0.1c0,0,0.1,0.1,0.1,0.2c0,0.1,0,0.1-0.1,0.2c0,0-0.1,0.1-0.2,0.1H4.3V5
	c0,0.3-0.1,0.5-0.2,0.8C4,5.9,3.9,6.1,3.7,6.3S3.3,6.6,3.2,6.6C3,6.7,2.8,6.7,2.6,6.7H1.4c-0.1,0-0.2,0-0.2-0.1c0,0-0.1-0.1-0.1-0.2
	c0-0.1,0-0.1,0.1-0.2c0,0,0.1-0.1,0.2-0.1h1.2c0.2,0,0.5-0.1,0.7-0.2c0.2-0.1,0.4-0.3,0.5-0.6C3.9,5.2,3.9,5,3.9,4.8V3.5
	c-0.5,0.6-1,0.9-1.8,0.9C1.5,4.4,1,4.2,0.6,3.8C0.2,3.4,0,2.8,0,2.2s0.2-1.1,0.6-1.6C1,0.2,1.5,0,2.1,0C2.9,0,3.5,0.3,3.9,1z
	 M3.9,2.2c0-0.5-0.2-0.9-0.5-1.3C3.1,0.6,2.6,0.4,2.2,0.4C1.7,0.4,1.3,0.6,1,0.9S0.5,1.7,0.5,2.2S0.7,3.1,1,3.5C1.3,3.8,1.7,4,2.2,4
	s0.9-0.2,1.2-0.5C3.7,3.1,3.9,2.7,3.9,2.2z"/>
</svg>
