<?xml version="1.0" encoding="utf-8"?>
<!-- Generator: Adobe Illustrator 23.0.3, SVG Export Plug-In . SVG Version: 6.00 Build 0)  -->
<svg version="1.1" id="Layer_1" xmlns="http://www.w3.org/2000/svg" xmlns:xlink="http://www.w3.org/1999/xlink" x="0px" y="0px"
	 viewBox="0 0 4.6 6.5" style="enable-background:new 0 0 4.6 6.5;" xml:space="preserve">
<path d="M1.7,2.4v3.5h1.9c0.1,0,0.2,0,0.2,0.1c0,0,0.1,0.1,0.1,0.2c0,0.1,0,0.1-0.1,0.2c0,0-0.1,0.1-0.2,0.1H0.3
	c-0.1,0-0.2,0-0.2-0.1c0,0-0.1-0.1-0.1-0.2C0,6.1,0,6.1,0.1,6c0,0,0.1-0.1,0.2-0.1h1V2.4H0.4c-0.1,0-0.2,0-0.2-0.1
	c0,0-0.1-0.1-0.1-0.2c0-0.1,0-0.1,0.1-0.2c0,0,0.1-0.1,0.2-0.1h0.9V1.3c0-0.4,0.1-0.7,0.4-0.9C2,0.1,2.4,0,2.9,0
	c0.4,0,0.8,0,1.3,0.1c0.2,0,0.3,0.1,0.3,0.1l0.1,0.1c0,0.1,0,0.1-0.1,0.1c0,0-0.1,0.1-0.2,0.1H4.2C3.7,0.4,3.3,0.4,2.9,0.4
	S2.2,0.5,2,0.7S1.7,1.1,1.7,1.3v0.6h2c0.1,0,0.2,0,0.2,0.1C3.9,2,4,2.1,4,2.2c0,0.1,0,0.1-0.1,0.2c0,0-0.1,0.1-0.2,0.1L1.7,2.4
	L1.7,2.4z"/>
</svg>
