<?xml version="1.0" encoding="utf-8"?>
<!-- Generator: Adobe Illustrator 23.0.3, SVG Export Plug-In . SVG Version: 6.00 Build 0)  -->
<svg version="1.1" id="Layer_1" xmlns="http://www.w3.org/2000/svg" xmlns:xlink="http://www.w3.org/1999/xlink" x="0px" y="0px"
	 viewBox="0 0 4 6.6" style="enable-background:new 0 0 4 6.6;" xml:space="preserve">
<path d="M2.8,4.6H0V4.1L2.4,0h0.9v4.1h0.4c0.1,0,0.2,0,0.2,0.1c0,0,0.1,0.1,0.1,0.2s0,0.1-0.1,0.2c0,0-0.1,0.1-0.2,0.1H3.2V6h0.4
	c0.1,0,0.2,0,0.2,0.1c0,0,0.1,0.1,0.1,0.2s0,0.1-0.1,0.2c0,0-0.1,0.1-0.2,0.1H2c-0.1,0-0.2,0-0.2-0.1c0,0-0.1-0.1-0.1-0.2
	s0-0.1,0.1-0.2C1.8,6.1,1.9,6,2,6h0.8C2.8,6,2.8,4.6,2.8,4.6z M2.8,4.2V0.5H2.6L0.5,4.2H2.8z"/>
</svg>
