<?xml version="1.0" encoding="utf-8"?>
<!-- Generator: Adobe Illustrator 23.0.3, SVG Export Plug-In . SVG Version: 6.00 Build 0)  -->
<svg version="1.1" id="Layer_1" xmlns="http://www.w3.org/2000/svg" xmlns:xlink="http://www.w3.org/1999/xlink" x="0px" y="0px"
	 viewBox="0 0 4.8 4.8" style="enable-background:new 0 0 4.8 4.8;" xml:space="preserve">
<path d="M4.8,2.4c0,0.6-0.2,1.2-0.7,1.7s-1,0.7-1.7,0.7S1.2,4.6,0.7,4.1S0,3.1,0,2.4c0-0.6,0.2-1.2,0.7-1.7S1.7,0,2.4,0
	s1.2,0.2,1.7,0.7S4.8,1.7,4.8,2.4z M4.4,2.4c0-0.5-0.2-1-0.6-1.4S3,0.4,2.4,0.4C1.9,0.4,1.4,0.6,1,1C0.6,1.4,0.4,1.8,0.4,2.4
	c0,0.5,0.2,1,0.6,1.4s0.8,0.6,1.4,0.6c0.5,0,1-0.2,1.4-0.6C4.2,3.3,4.4,2.9,4.4,2.4z"/>
</svg>
