<?xml version="1.0" encoding="utf-8"?>
<!-- Generator: Adobe Illustrator 23.0.3, SVG Export Plug-In . SVG Version: 6.00 Build 0)  -->
<svg version="1.1" id="Layer_1" xmlns="http://www.w3.org/2000/svg" xmlns:xlink="http://www.w3.org/1999/xlink" x="0px" y="0px"
	 viewBox="0 0 4.3 6.5" style="enable-background:new 0 0 4.3 6.5;" xml:space="preserve">
<path d="M0.4,6.1h3.3V5.9c0-0.1,0-0.2,0.1-0.2c0,0,0.1-0.1,0.2-0.1s0.1,0,0.2,0.1c0,0,0.1,0.1,0.1,0.2v0.6H0V5.9
	c0.9-0.8,1.7-1.6,2.5-2.4c0.4-0.4,0.6-0.6,0.8-0.8c0.1-0.2,0.2-0.3,0.3-0.5c0.1-0.1,0.1-0.3,0.1-0.4c0-0.4-0.1-0.7-0.4-1
	C3,0.5,2.7,0.4,2.2,0.4c-0.4,0-0.7,0.1-1,0.3C0.9,0.9,0.7,1.2,0.6,1.5c0,0.1,0,0.1-0.1,0.2L0.4,1.8c-0.1,0-0.1,0-0.1-0.1L0.2,1.6
	c0-0.2,0.1-0.4,0.3-0.7c0.2-0.3,0.4-0.5,0.7-0.7S1.8,0,2.2,0c0.5,0,1,0.2,1.4,0.6s0.6,0.8,0.6,1.2c0,0.2,0,0.4-0.1,0.5
	C4,2.5,3.9,2.6,3.8,2.8C3.6,3,3.4,3.3,3,3.7C1.9,4.7,1,5.5,0.4,6.1L0.4,6.1z"/>
</svg>
