<?xml version="1.0" encoding="utf-8"?>
<!-- Generator: Adobe Illustrator 23.0.3, SVG Export Plug-In . SVG Version: 6.00 Build 0)  -->
<svg version="1.1" id="Layer_1" xmlns="http://www.w3.org/2000/svg" xmlns:xlink="http://www.w3.org/1999/xlink" x="0px" y="0px"
	 viewBox="0 0 4.2 5.9" style="enable-background:new 0 0 4.2 5.9;" xml:space="preserve">
<path d="M4.1,5.9H0V5.3l3.4-4.8l0,0H0.6v1.2c0,0.1,0,0.2-0.1,0.2c0,0-0.1,0.1-0.2,0.1S0.2,2,0.1,1.9c0,0-0.1-0.1-0.1-0.2V0h3.7v0.6
	L0.3,5.4l0,0h3.3V4c0-0.1,0-0.2,0.1-0.2c0,0,0.1-0.1,0.2-0.1s0.1,0,0.2,0.1c0,0,0.1,0.1,0.1,0.2L4.1,5.9L4.1,5.9z"/>
</svg>
