<?xml version="1.0" encoding="utf-8"?>
<!-- Generator: Adobe Illustrator 23.0.3, SVG Export Plug-In . SVG Version: 6.00 Build 0)  -->
<svg version="1.1" id="Layer_1" xmlns="http://www.w3.org/2000/svg" xmlns:xlink="http://www.w3.org/1999/xlink" x="0px" y="0px"
	 viewBox="0 0 816 816" style="enable-background:new 0 0 816 816;" xml:space="preserve">
<style type="text/css">
	.st0{fill:#B5B5B9;}
	.st1{fill:#BFBEC3;}
	.st2{fill:#B2B1B6;}
	.st3{fill:#9D9CA2;}
	.st4{fill:#B1B1B6;}
	.st5{fill:#B9B9BE;}
	.st6{fill:#A5A4A9;}
	.st7{fill:#BABABD;}
	.st8{fill:#B8B7BB;}
	.st9{fill:#B1B0B6;}
	.st10{fill:#CAC9CE;}
	.st11{fill:#C8C7CB;}
	.st12{fill:#ADACAE;}
	.st13{fill:#C0BFC4;}
	.st14{fill:#9E9EA2;}
	.st15{fill:#C8C7CC;}
	.st16{fill:#939297;}
	.st17{fill:#C8C8CC;}
	.st18{fill:#C7C7CB;}
	.st19{fill:#F5F4F4;}
	.st20{fill:#F8F8F8;}
	.st21{fill:#F6F6F6;}
	.st22{fill:#F4F4F4;}
	.st23{fill:#F6F6F7;}
	.st24{fill:#A6A5AB;}
	.st25{fill:#9C9C9F;}
	.st26{fill:#9C9CA1;}
	.st27{fill:#828184;}
	.st28{fill:#87868B;}
	.st29{fill:#75747B;}
	.st30{fill:#8C8B91;}
	.st31{fill:#929293;}
	.st32{fill:#848488;}
	.st33{fill:#7B7A81;}
	.st34{fill:#807F85;}
	.st35{fill:#7C7B7D;}
	.st36{fill:#98979D;}
	.st37{fill:#747475;}
	.st38{fill:#898990;}
	.st39{fill:#7D7C83;}
	.st40{fill:#76757F;}
	.st41{fill:#8A898F;}
	.st42{fill:#6D6C74;}
	.st43{fill:#5B5B61;}
	.st44{fill:#89888E;}
	.st45{fill:#5D5C61;}
	.st46{fill:#77767D;}
	.st47{fill:#7B7A82;}
	.st48{fill:#6E6C73;}
	.st49{fill:#68676C;}
	.st50{fill:#76757C;}
	.st51{fill:#6C6B6F;}
	.st52{fill:#828284;}
	.st53{fill:#646467;}
	.st54{fill:#797880;}
	.st55{fill:#6C6B72;}
	.st56{fill:#5C5B63;}
	.st57{fill:#706F72;}
	.st58{fill:#66656C;}
	.st59{fill:#5D5D61;}
	.st60{fill:#474749;}
	.st61{fill:#4D4C50;}
	.st62{fill:#626168;}
	.st63{fill:#F8F8F9;}
	.st64{fill:#F7F6F7;}
	.st65{fill:#F7F7F4;}
	.st66{fill:#F7F7F8;}
	.st67{fill:#F9F8FA;}
	.st68{fill:#F6F6F5;}
	.st69{fill:#F8F7F8;}
	.st70{fill:#F5F5F4;}
	.st71{fill:#F4F4F2;}
	.st72{fill:#F9F9F9;}
	.st73{fill:#F7F7F6;}
	.st74{fill:#F5F5F5;}
	.st75{fill:#F8F8F7;}
	.st76{fill:#707070;}
	.st77{fill:#74737A;}
	.st78{fill:#F7F7F5;}
	.st79{fill:#8A898D;}
	.st80{fill:#F6F6F4;}
	.st81{fill:#F8F7F7;}
	.st82{fill:#40413C;}
	.st83{fill:#C5C1C5;}
	.st84{fill:#F6F8F5;}
	.st85{fill:#727A73;}
	.st86{fill:#EFF4F1;}
	.st87{fill:#EAEFEA;}
	.st88{fill:#5D6D5F;}
	.st89{fill:#F0F5ED;}
	.st90{fill:#737A73;}
	.st91{fill:#536052;}
	.st92{fill:#535B50;}
	.st93{fill:#888F81;}
	.st94{fill:#BFC5BE;}
	.st95{fill:#F2F5F4;}
	.st96{fill:#EEF0EB;}
	.st97{fill:#EDEAE2;}
	.st98{fill:#F8F9F7;}
	.st99{fill:#F0F0F0;}
	.st100{fill:#A5A39C;}
	.st101{fill:#EBEFE2;}
	.st102{fill:#5C6158;}
	.st103{fill:#7B8577;}
	.st104{fill:#5B6052;}
	.st105{fill:#7A827B;}
	.st106{fill:#9E9B85;}
	.st107{fill:#878C8A;}
	.st108{fill:#687167;}
	.st109{fill:#4D5646;}
	.st110{fill:#636458;}
	.st111{fill:#F4F8EA;}
	.st112{fill:#D2DCD5;}
	.st113{fill:#D5D6C9;}
	.st114{fill:#F0F4ED;}
	.st115{fill:#80877B;}
	.st116{fill:#B6BDB6;}
	.st117{fill:#505B4C;}
	.st118{fill:#FAFBFB;}
	.st119{fill:#F8F4F0;}
	.st120{fill:#F1F3EE;}
	.st121{fill:#F1F4F1;}
	.st122{fill:#AAAAA4;}
	.st123{fill:#E9F0DF;}
	.st124{fill:#3F452B;}
	.st125{fill:#858C84;}
	.st126{fill:#51523A;}
	.st127{fill:#DEE0E0;}
	.st128{fill:#F3F3F2;}
	.st129{fill:#F1F3F1;}
	.st130{fill:#434A3A;}
	.st131{fill:#F0F3F4;}
	.st132{fill:#2A3524;}
	.st133{fill:#D8DBD1;}
	.st134{fill:#1F2716;}
	.st135{fill:#43483A;}
	.st136{fill:#2F392A;}
	.st137{fill:#333D26;}
	.st138{fill:#4C4E47;}
	.st139{fill:#969B97;}
	.st140{fill:#585C5B;}
	.st141{fill:#565E57;}
	.st142{fill:#6A7269;}
	.st143{fill:#343A2D;}
	.st144{fill:#F6F7F6;}
	.st145{fill:#979F95;}
	.st146{fill:#7B7D78;}
	.st147{fill:#D7DCD6;}
	.st148{fill:#AFB3AE;}
	.st149{fill:#AEB3AA;}
	.st150{fill:#666F68;}
	.st151{fill:#D4D9D1;}
	.st152{fill:#5E605A;}
	.st153{fill:#F3F5F4;}
	.st154{fill:#F2F5F1;}
	.st155{fill:#595B58;}
	.st156{fill:#4C554D;}
	.st157{fill:#ABB1A9;}
	.st158{fill:#858B89;}
	.st159{fill:#E5E7E5;}
	.st160{fill:#373934;}
	.st161{fill:#858B84;}
	.st162{fill:#5E6860;}
	.st163{fill:#F3F6F3;}
	.st164{fill:#EFF2EF;}
	.st165{fill:#D7D7D1;}
	.st166{fill:#D8E0D8;}
	.st167{fill:#E9E6E8;}
	.st168{fill:#8D8E8B;}
	.st169{fill:#BDBFB0;}
	.st170{fill:#69766A;}
	.st171{fill:#666E66;}
	.st172{fill:#F8FBF7;}
	.st173{fill:#DFE3DE;}
	.st174{fill:#EDEDEA;}
	.st175{fill:#737671;}
	.st176{fill:#C1CAC0;}
	.st177{fill:#BBBEBA;}
	.st178{fill:#EBEBE9;}
	.st179{fill:#FEFCFE;}
	.st180{fill:#7D877A;}
	.st181{fill:#C6C8C6;}
	.st182{fill:#F1F3F2;}
	.st183{fill:#CBCECD;}
	.st184{fill:#3C3C2E;}
	.st185{fill:#9C9D99;}
	.st186{fill:#4C524C;}
	.st187{fill:#BFC4C0;}
	.st188{fill:#DEE1DF;}
	.st189{fill:#8B918B;}
	.st190{fill:#F3F4F3;}
	.st191{fill:#6D6F6A;}
	.st192{fill:#E2E4E3;}
	.st193{fill:#ADAFAE;}
	.st194{fill:#DCDFDB;}
	.st195{fill:#7A7C77;}
	.st196{fill:#D2D9D2;}
	.st197{fill:#F6FAF5;}
	.st198{fill:#97A89B;}
	.st199{fill:#859485;}
	.st200{fill:#6A7564;}
	.st201{fill:#939C8E;}
	.st202{fill:#EEF5EF;}
	.st203{fill:#E5F0E6;}
	.st204{fill:#C4C8C5;}
	.st205{fill:#687166;}
	.st206{fill:#EBEBEB;}
	.st207{fill:#636960;}
	.st208{fill:#586356;}
	.st209{fill:#B4B9AF;}
	.st210{fill:#9CA099;}
	.st211{fill:#5E645D;}
	.st212{fill:#2A3429;}
	.st213{fill:#7E8377;}
	.st214{fill:#71756B;}
	.st215{fill:#E0E5DE;}
	.st216{fill:#C9CBC9;}
	.st217{fill:#9EA094;}
	.st218{fill:#545C4C;}
	.st219{fill:#767873;}
	.st220{fill:#757873;}
	.st221{fill:#FDFDFD;}
	.st222{fill:#F9FAF8;}
	.st223{fill:#E7E9EA;}
	.st224{fill:#E0E2E1;}
	.st225{fill:#EBEDEC;}
	.st226{fill:#BEC5BE;}
	.st227{fill:#909290;}
	.st228{fill:#F5F7F6;}
	.st229{fill:#797979;}
	.st230{fill:#232322;}
	.st231{fill:#3A3A39;}
	.st232{fill:#DBDFD6;}
	.st233{fill:#EBEEEA;}
	.st234{fill:#C5CCC6;}
	.st235{fill:#818981;}
	.st236{fill:#A5AAA5;}
	.st237{fill:#D1D9CF;}
	.st238{fill:#D0D2D1;}
	.st239{fill:#333329;}
	.st240{fill:#F6F8F4;}
	.st241{fill:#EBEEED;}
	.st242{fill:#EEEEEE;}
	.st243{fill:#E3E4E1;}
	.st244{fill:#474A44;}
	.st245{fill:#939C99;}
	.st246{fill:#F0F2EF;}
	.st247{fill:#B1B2B0;}
	.st248{fill:#CED2CD;}
	.st249{fill:#E9E9E9;}
	.st250{fill:#E9EBE8;}
	.st251{fill:#4E534F;}
	.st252{fill:#828781;}
	.st253{fill:#F7F6F5;}
	.st254{fill:#D3D4D6;}
	.st255{fill:#E7EDE8;}
	.st256{fill:#F5F5F3;}
	.st257{fill:#7B726B;}
	.st258{fill:#A6A7A7;}
	.st259{fill:#959687;}
	.st260{fill:#515956;}
	.st261{fill:#4A514B;}
	.st262{fill:#63665E;}
	.st263{fill:#60645E;}
	.st264{fill:#41433E;}
	.st265{fill:#1A1C19;}
	.st266{fill:#242621;}
	.st267{fill:#42453F;}
	.st268{fill:#E6E7E2;}
	.st269{fill:#2B2F2A;}
	.st270{fill:#25281F;}
	.st271{fill:#5C5D55;}
	.st272{fill:#666357;}
	.st273{fill:#3D3F3B;}
	.st274{fill:#3F403D;}
	.st275{fill:#696458;}
	.st276{fill:#6A6A69;}
	.st277{fill:#8A9189;}
	.st278{fill:#FAFBF9;}
	.st279{fill:#F1F2F3;}
	.st280{fill:#71736E;}
	.st281{fill:#DBDCD8;}
	.st282{fill:#767772;}
	.st283{fill:#9D9E8C;}
	.st284{fill:#F2F1E4;}
	.st285{fill:#F4F5F2;}
	.st286{fill:#E6E6E5;}
	.st287{fill:#A4A0A2;}
	.st288{fill:#F2F5EF;}
	.st289{fill:#D1D3C8;}
</style>
<g>
	<path class="st0" d="M90.6,337.7c0.1-2.1-5.2-8.5-7.2-8.9c-2.3-0.4-3.9-2-4.8-4.9c-0.7-2.7-0.8-5.1,2.1-6.6
		c1.8,0.7,3.2,1.7,2.8,3.9c-0.2,1.3,0.2,2.4,0.7,3.6c0.5,1.3,1,2.8,2.8,1c1.2-1.2,2.2,0.5,3.4,0.6c1.1-0.1,2.1-0.3,2.8,1
		c0.6,3.3,2.1,5.7,5.4,6.9c6.1,2,8.5,6.6,6.5,12.5c-0.4,1.2,0.1,1.3,0.5,1.9c0.8,1.1,1.9,2.2,2.1,3.5c0.3,2.1,0.4,2.7,3.1,2
		c2.8-0.5,4.8,2.2,5.9,5c1.2,2.7,1.6,5.1-1.3,7c2.8,1.5,3.7,2.8,3.5,5.6c-0.1,1.2,0.7,0.4,1,0.4c4.9,0.7,8.6,4.6,9,9.5
		c0.1,1,0.1,1.1-1.5,1.6c-0.3,0.1-0.7,0.1-0.6,0.4c0.1,0.5-0.2,1.3,1,1.5c3,0.6,4.5,2.4,3.8,5.6c-0.2,0.8-0.1,1.1,1,1
		c4.5-0.3,8.6,3.2,9.2,7.3c0.3,2.1-1.9,2.5-2.2,4.2c0.2,0.1,0.5,0.1,0.6,0.3c3.8,4.4,10.2,5.9,13.1,11.5c0.8,1.6,1.8,3.2,0.5,5.1
		c-0.7,1.2-0.1,2,0.7,3s2,1.8,1.6,3.2c-1,2.9,0.8,1.6,1.7,1.2c3.6-2,5.6,0.8,7.6,2.7c2.3,2,3.8,5.2,1.6,7.6
		c-1.9,2.1,0.5,2.1,0.6,3.2c-0.8,1-1.8,1.5-3.7,0c2.1,1.8,4.5,1.4,5.3,3.4c0.3,0.1,0.6,0.1,1.1,0.2c0.6,1.2,2.9-0.3,2.9,1.7
		c0,2.3,1.7,5.2-2.5,5.9c-1.4,0.2-0.3,3.1-2.4,3.3c-2.7-1.7-2.2-4.7-3.1-7.1c0.3-2.7-2-5.1-4.6-5c-4.2,0.2-6.4-1.4-7.2-5.4
		c-0.3-1.5-0.5-3-2.1-3.7c-0.7-0.3-1.2-1.1-0.8-1.7c2.2-3.8-0.1-5.8-2.9-7.8c-0.4-0.3-0.5-1-0.7-1.5c-0.8-1.1-0.3-1.8,0.4-2.4
		c3.6-3.2,3.6-3.4-0.1-7.4c-1.1,3-4.5,2.4-6.4,4.2c-0.4,0-0.7-0.1-0.8-0.5c-0.2,0.1-0.1,0.3,0.1,0.6c0.7,1.1,1.1,2.1,0,3.2
		c-1.7-2.4-2.7-4.6-1.8-8c0.7-3-3.2-4.9-5.6-5.8c-2.8-1.1-4-2.5-4.6-5.1c-0.2-0.8-0.8-1.6-1.4-2.4c-0.1-0.2-0.6-0.3-0.6-0.5
		c-0.6-3.4-1.2-6.8-1.8-10.1c1,0.7,2.2,1,3.1,1.9c0.1-0.1,0.1-0.2,0.2-0.4c-0.4-2-2.5-0.3-3.3-1.5c-2.3,0.6-3.9-1.2-5.7-2
		c-3.7-1.9-5.4-5.3-5.5-9.5c0-1.5,0.7-1.9,2-1.9c2.1,1.1,2.3,3.6,3.6,5.3c1.1,1.4,1.9,2.4,3.6,1.7c1.2-0.5,2.7-1.5,2.5-3
		c-0.1-1.7-2.2-1.9-3.3-3c-0.5-0.5-0.2,0.2-0.3,0.3c-2.3,3-2.3,3-4.6-0.1c-0.4-0.5-1.1-0.8-1.6-1.3c-2.5-2.1-6.3-3.3-5.4-7.9
		c0.1-0.7-0.1-1.4,0.8-1.2c4.6,0.5,1.8-3.3,2.7-4.9c0.8-1.8,0.1-4-2.7-4.7c-1.4-0.3-1.5-0.4-1.6,1.2c-0.1,1.4-1.2,1.5-2,1.7
		c-1.6,0.3-0.4-1.1-0.7-1.5c-2.4-3-5-5.9-8.7-7.4c-2.5-1.1-5.1-2.2-5.7-5.3c2.3-0.8,3.1,2.8,5.4,1.8c5.1-1.5,5.7-4.5,1.6-10.1
		c-1.1,3.5-2.9,5.3-6.3,3C89.9,341,89.9,341,90.6,337.7z"/>
	<path class="st1" d="M380.1,584.5c0.1,0.6-0.1,1.5,0.2,2c2.7,4.8,2.2,5.7-3.1,6.9c-4.9,1.1-9.2-1-11.5-5.1
		c-1.4-2.7-3.5-3.3-6.2-1.9c-6.3,3.3-12,1.8-16-4.2c-1.5-2.2-3-3.3-6.2-2.1c-6.2,2.4-10.1,1.2-14.6-4.6c-1.8-2.3-5.9-1.8-6.1-6.7
		c-1.5,5.2-4,3.6-6.4,2.5c0.3-1.4,2.3-0.6,2.4-2.2c-1.7-1.2-2.5-2.4-1.1-4.4c0.5-0.7,1.3-1.7,0.1-2.4c-1.3-1-1.9,0.2-2.7,1
		c-1,1-2,1.8-2.8,3c-1.1,1.3-0.2,1.9,0.8,2.5c0.8,0.6,2.5,0.6,2.3,2.3c-2.3,0.8-4.5-0.3-5.5-1.9c-2.4-3.4-5.9-5.4-8.7-8.4
		c-1.5-1.6-0.7,0.4-1,0.6c-1.1,1.5-1.4,0.8-1.6-0.4c-0.2-0.7-1-1.2-1.2-1.9c-0.5-3.1,1.4-5.5,2-8.3c1.4-0.2,2.4,0,2.5,1.7
		c0,1.1,0.3,2.1,1.4,2.2c4.6,0.4,8.4,3.5,13.4,3.3c2.7-0.1,5.9,1.5,8.1,5.2c1.4,2.4,6.2,3.4,9.9,2.9c0.2,1.2-1.7,2.7,0.4,3.6
		c1.4,1.4,0.6,2.5-0.4,3.5c-0.6,0.5-1.5,1.2-0.6,2c1,1.1,2.2,1.7,3.7,1.7c1,0,1.6-0.5,1.7-1.5c0.2-2.1,1.2-4.1,1.2-6.4
		c1.8-1,2.8,2.2,4.7,1.1c2.1,0.7,0.8,3.1,2,4.4c0.2,2,2.5,1.1,3.3,2.3c0.8,0.4,1.6,1,2.5,1.5c0.7-1.5-3.4-2.2-0.7-3.9
		c0.6,0.8,2-0.3,2.4,1.1c1.2,1.7,3.2,3.5-0.3,5c-0.7,0.3-1.2,0.7-0.4,1.5c1.6,1.9,3.5,3.2,6.1,3c0.8-0.1,2-0.4,2.3-1.5
		c0.3-1.2-0.7-1.3-1.5-1.5c-0.7-0.3-1.2-1-0.4-1.5c0.7-0.5,1.6-1.6,2.8-0.2c2,2.3,4.4,4,7.6,4c0.1-1.2-0.5-1.2-1-1.3
		c-1.2-0.2-2.5-0.1-3.3-1.4c-0.3-0.6,0.1-1.3,0.6-1.3c1.5-0.2,3-0.4,4.4,0.5c1.2,0.8,1,3.4,3.4,2.7c0.8,0,1.4-1,2.2-1
		c3,2.1,1.1,3.5-0.8,4.9c3.7,2.5,3.7,2.5,5.2-1.1c0.6-1.6,2.1-2,3.7-2.2C379.6,584.3,379.9,584.4,380.1,584.5z"/>
	<path class="st2" d="M707.3,418.6c0-0.2,0.1-0.4,0-0.6c0-0.2,0.1-0.4,0.1-0.6c0.8-1.5,2-2.9,3.8-2.1c2,0.7,1.6,2.4,1.1,4.1
		c-0.2,1.5,1.7,1.1,1.9,2.2c-0.8,1.5-2.2,1-3.4,0.8c-3.5-0.2-4.2,1.7-3.6,4.7c1.6,6.9-2.7,12.5-9.9,13c-1.2,0.1-2.3,0.2-3.6,0.4
		c-3.1,0.6-1.6,2-0.8,3.4c-1.6,1.9-3.6,2.9-6.2,2.2c-2.5-1.9-4.1-0.6-5.1,1.8c-0.4,1-1,2,1.2,2.2c2.5,0.2,2.7,2,1.6,4
		c-0.6,1.4-2,1.6-3.2,2.3c-1.2,2.5-1.9,4.9-1.6,8c0.6,6.4-6.3,10.8-13.2,9.1c-1.2-1.7-3.2-1.4-4.8-2.1c0.6-0.8,1.4-1.7,2-2.4
		c3.7-1.6,4.5-1.2,4.7,2.4c1.2,0.1,1.7-1,2.7-1.4c1.5-0.7,3.3-1.5,3.3-3.4c0-2.1-2.3-2.5-3.5-3.7c-1.4-1.4-2.7,0.3-3.1,1.6
		c-0.6,2.2-2.2,3.4-3.9,4.6c-2.3,0-1.9-1.6-1.6-2.9c0.8-4.1,4-7.3,8.5-7.3c3.9,0.1,4.9-3.1,7.1-4.8c0.2-0.2,0.7-0.4,0.1-1
		c-3.6-2.9-0.8-5.5,0.6-7.9c1.9-3.1,4.9-4.9,8.7-4.8c4.6,0.1,5.4-1.1,3.8-5c-2-5.1,2.5-11.5,8-11.2c1.2,0.1,2.2,0.2,3.2-0.6
		c1.6,0.1,2.8-0.6,3-2.1C705.4,420.1,706.4,419.6,707.3,418.6z"/>
	<path class="st3" d="M714.3,421.5c-0.8,0-1.7-0.1-2.4-0.2c-0.5-0.1-1.3-0.2-1.4-0.4c-0.2-0.8,0.6-1.1,1.2-1.4
		c0.6-0.5,1.4-1,1.9-1.6c1.3-1.1,3.2-2.1,2.9-3.8c-0.4-1.9-2.9-2.1-4.4-3.3c-1.2-1-2.2,0.6-2.7,1.8c-0.6,1.9-1.1,3.7-2.2,5.3l0,0
		c-3.5-0.7-4.7-2.8-2.5-5.3c2.7-3.2,4.8-7.2,10.2-6.6c2.4,0.3,4.2-3.9,3.1-6.2c-2.4-4.5,1.1-10.7,6.9-11c3.8-0.2,4.4-3.3,6.6-4.9
		c0.6-0.5,0.1-0.8-0.2-1.3c-1.3-1.5-2.7-2.8-1.5-5c1.5-2.9,2.7-6.2,5.6-7.4c2.4-1.1,5.3-1.6,8-1.4c2,0.1,4,7.6,2.9,9.6
		c-2.4,4.1-4.7,8.5-10.9,7.3c-1.7-0.3-3,2-3.7,3.8c-0.5,0.5-1.3,0.5-1.7,1.1c0.8,0,1.2-0.7,1.7-1.2c5.4,2.5,2.4,9.9-1.9,13.4
		c-1.7,1.3-3.6,1.8-5.7,1.8c-3.8,0.1-4.6,1.3-3.2,4.6C722.9,413.9,720.4,418.6,714.3,421.5z"/>
	<path class="st4" d="M800.1,276c-0.5-0.3-0.8-0.6-1.1-1c-1.4-0.1-2.8-0.7-3.9-1.6c-0.6,0.6-1.6,1.1-2.9,1.1c-4.4,0-6.1,3.1-7.1,6.3
		c-1,2.8-0.3,5.7,3.2,6.7c-1.8,3-2.4,6.4-7.5,6.6c-5.2,0.2-7.8,7.4-4.9,12c1.1,1.7,0.3,2.5-0.1,3.9c-0.8,2.5-3.1,2.9-5.1,3.6
		c-0.3,1.1-1.6,1.7-1.1,3c2.4,1.1,4.1,5,7.8,2.3c1-1.1,1.4-2.3,1.6-3.6c-1.3-2,0.5-4.7,3.1-5c6.7-0.7,12.5-8.6,7.8-14.6
		c-2.1-2.7-0.7-3.7,1.4-4.5c2.2-0.7,4.5-1.6,6.4-2.9C802.1,285.1,803.6,278.5,800.1,276z M796.8,282.8c-0.3,1.5-1.4,2.5-2.5,1.9
		c-3.3-1.8-4.2,0.7-5.5,2.5c0.7-1.2,1.4-2.3,1.5-3.9c0.4-4.8,0.8-4.9,5.2-3C796.7,280.9,797,281.5,796.8,282.8z"/>
	<path class="st5" d="M577.4,543.5c2.1-1.5,0.8-4.1,2.5-6.1c2-2.2,3.8-4.1,7.2-3.5c3.8,0.6,6.7-1.9,9.8-3.8c0.6-0.4,0.3-0.6,0.3-1.1
		c0.1-4.2,2.7-6.6,6.4-8.1c0.1,0.2,0.1,0.5,0.1,0.7c0,0.6-1.7,1.5,0.1,2c0.2,1.6-2.9,3.9,1.3,4.7c1.1,0.2,0,1.8,0.8,2.7
		c2.1-1.2,3.8-2.1,1.6-4.9c-0.8-1-0.8-2.7-0.3-4c1.3-0.8-1.4-1.3-0.3-2.1c4.6-0.4,7.2-2.5,8.2-7.4c1-5,5.1-7,9.9-5.8
		c0,1.4-1.2,1.8-2,2.3c-2,1.5-3.9,2.7-1,5.3c1.3,1.2,0.4,3.4,0.2,5.1c-0.5,0.6-1.2,1.2-2.1,0.7c-1.7,1.8-4.1,2.9-4.7,5.6
		c-1,5.3-5.9,9.6-11.5,9.3c-3.4-0.1-5.1,1.7-6.3,4.5c-1.5,3.5-2.9,7-7.4,7.5c-0.1-0.1-0.2-0.3-0.3-0.4c-1.1-0.8,2.1-0.7,0.4-1.8
		c0.8-3.1-0.7-5.4-2.5-8c-2.1,1.1-3.8,3.2-5.8,5C581,544.3,579.8,545.7,577.4,543.5z"/>
	<path class="st6" d="M58.7,257.2c-1.1-0.2-2.2-0.4-3.2-0.8c-2.1-1-3.4-4.2-2.2-5.5c4.4-5.1,1.5-13.4-5.2-15
		c-2.4-0.6-3.8-1.8-3.9-3.4c-0.7,0.4-1.6,0.7-2.4,0.8c-0.1,1.7,1.3,3.3-0.2,4.8c-2.8,2.7-2.8,5.7-1.5,9.1c1.7,4.6,5.8,5,9.6,6.2
		c0.7-1.2-1.1-1.9,0-3.2c1.6,2.1,0.3,5.3,2.5,7.1c1.8,0.8,2.9,3,5,3.3c3.9,2,4.5,4.2,2.3,9.7c0.2,1.6,1.2,2.7,2.4,3.5
		c0.7,0.5,1.6,0.5,1.4-0.8c-1.4-1.8,0-3,0.7-4.5C66.2,264,63.6,258.4,58.7,257.2z"/>
	<path class="st7" d="M59.4,269.7c1,1.4,1.5,3.2,3.6,3.3c0.7,1.4,1.3,2.5,3.4,2.9c4.6,0.6,7.1,3.7,8.3,8.2c0.2,1,0.8,2.1,0,2.8
		c-3.6,3-1.8,5.9-0.2,9c0.6,1.5,3.2,0.3,3.3,2.5c0.1,1-3,0.3-1.2,2.3c0.6,0.7-0.5,1.5-1.3,1.6c-1.5,0.3-3.8-1.4-3.6,2.2
		c0.2,3.1,2.2,3.4,4.4,3.8c-0.5,2.9-3,0.7-4.2,1.7c-1.8-1.1-2.7-2.8-3.4-4.6c-1.7-3.8-1.1-5.3,3.1-6.8c0.6-0.2,1.4-1.3,0.8-1.5
		c-2.9-0.7-3.6-4.2-6.9-4.9c-6.3-1.3-9.3-7.8-6.6-13.5c1.8-3.7,0.4-4.9-2.9-5.7c-5.1-1.3-8.9-6.5-8.2-10.8c0.4-2.3,1.1-4.7,4-5
		c2.4-0.7,3,2.5,5.1,2.5c0.5,1.9-0.4,3-2,3.5c-1.1,0.4-2.3,0.5-1.8,2.1c0.5,1.5,1.3,2.9,3.1,2.9C57.6,268.4,59.2,267.4,59.4,269.7z"
		/>
	<path class="st1" d="M404.3,588.6c0.5,0.7-1.8,2.4,1.1,2.5c4.6,0,5.2,0,5.1-2c0-0.8,0.3-1.3,0.7-1.8c3-3.9,12.2-4,15.5-0.3
		c1.1,1.3,1.1,2-0.4,3c-0.5,0.3-1.6,1.2-0.2,1.8c0.3,0.1,1-0.4,1.5-0.6c1.8,0.1,3.5,0.5,5.3,0c0.6-0.3,1.2-0.5,1.8-0.8
		c0.3-0.8,0.8-1.3,1.8-1c1.2,0.5,2.4,1.2,2.3,2.7c-0.2,2.8,1.7,3.1,3.6,3.6c1.2,0.5,2.1,1.3,3.3,1.7c0.3,0.2,0.5,0.4,0.6,0.7
		c-4.9,2.5-10.1,1.7-13.2-2.4c-1.4-1.9-3.6-1.6-5.7-3.3c1.5,3.7-0.7,5.2-2.7,6.2c-2.8,1.5-5.9,1.1-8.9,0.2c-2.7-0.7-5.6-1.4-5.5-5.5
		c0-1.8-2.3-0.5-3.5-0.8s-1.1,0.1-1.6,1.2c-3,5.5-11.6,5.9-16.7,0c-1.2-1.3-2.2-2.5-4-3.8c1.3-0.2,2.1-0.3,3.3-0.4
		c-1.6-0.7-3.2,0-4.5-1.5c2.1-1.1,5.3-0.1,5.9-3.2c2,1,3,2.7,3.4,4.7c0.1,1.6,0.8,3,2.4,3.4c1.3,0.3,3.7,2.4,3.1-1.7
		c-0.3-1.9,1.9-2.8,3.1-4C402.8,586.6,403.7,587.3,404.3,588.6z"/>
	<path class="st8" d="M533.2,578.7c-2.3,3.2-5.6,2.1-8.3,1.3c-2.3-0.7-4.1-1.8-6.4,0c-0.6,0.5-2,0.1-3.2,0.1
		c0.4-2.8,3.3-2.1,4.7-3.5c-1.6-0.5-2.9,1.2-4.5,0.5l-0.1-0.1c3.9-2.8,5.6-7.8,9.9-10.2c3-1.7,6.7-2.7,9.5-0.7
		c2.5,1.8,4.4,1.4,6.9,0.2c-3.2-2.9-1.2-5.3,0.8-7.4c3.7-3.7,8.5-4.1,13.5-1.5c0.5,0.3,1.4,0.2,2,0.3c0.6,0.5-1,1.3,0.1,1.8
		c0.2,2.9,1.4,5.9-2.4,7.5c-0.7-0.2-1.3-0.7-1.8-1.3c-1.4-1.2-3.5-1.6-3.7-3.6c-0.4-3.8-2.3-2.1-3.8-1c-1.2,1-1.9,2.3-2.3,3.8
		c-0.4,0.4,0.5,0.6,0.1,0.3c-0.1-0.1-0.1-0.2,0.1-0.3c1.1-1.6,2.8-1.9,3.8-0.5c1.4,1.7-0.2,3-1.3,4.2c-0.2,0.2-0.5,0.1-0.6,0.2
		c-0.2,0.1,0.1,0.1,0.4,0.2c0.7,0.1,1.2,0.4,0.7,1.3c-1.2,0.8-2.4,0.5-3.5-0.2c-3.7-2.5-4.6,0.1-5.3,2.9c-0.5,2-1.3,4-2.9,5.5
		c-0.7,0.7-1.5,0.5-1.5-0.7c-0.6-1,0.1-1.9,0-2.8c-0.1-0.5,1.6-2.7-1.1-1.3c-0.7,0.4-1.7-0.6-2-1.7c-0.3-0.8,0.6-2.7-1.4-2.3
		c-1.2,0.2-2.7,0.3-3.3,1.5c-0.7,1.2,0.5,1.9,1.2,2.8c1.1,1.6,1.4,3.9,4.4,3C532.8,576.6,532.8,578,533.2,578.7z"/>
	<path class="st9" d="M771.8,329.2c-1.1,0.5-2.3,0.7-3.1,1.6c-0.8,1-3.1,1.9-0.1,3.7c2,1.2,2.1,4.1,1.2,6.5
		c-1.5,3.4-3.3,6.3-7.5,6.9c-4.7,0.7-5.8,2.3-4.6,5.8c0.4,1.1,0,2.2,0.3,3.1c0.8,2.9-0.3,4.8-2,6.7c-0.8-0.5-1.2-1.5-1.6-2.3
		c-1.2-0.8,0-2.7-1.9-3.5c-4.1-1.9-4-2-6.5,2.3c-0.3,0.5-0.8,0.6-1.5,0.5c-0.7-0.6-1.7-1.1-2.8-1.2c1.4-5.9,3.4-8.1,9-8.4
		c3.1-0.2,2.9-2.5,3.9-4c1-1.3,0.5-3.5-0.4-3.9c-3.1-1.3-1.3-3.4-1-4.8c0.8-3.2,4-5.8,6.4-5.7c4.7,0.1,5.1-3.3,6.8-5.7
		c0.3-0.2,0.5-0.5,0.7-0.8c0.3-0.3,0.5-0.6,0.8-0.8c3.4-2.8,3.9-2.5,5,1.8C773.2,328.1,772.6,328.7,771.8,329.2z"/>
	<path class="st10" d="M244.5,518.4c1.5,2.9,3.3,4.9,7,3.7c1.2-0.4,1.8,0.4,2.2,1.3c-1.2,3-2.7,5.6-4.6,8.2
		c-1.1,1.6,1.3,2.9,0.4,4.5c-3.2-2-5.8-3.9-5.5-8.6c0.2-3.4-3.3-3.2-5.5-3.1c-6.9,0.5-12.1-4.1-11.9-10.9c0.1-3-2.4-4.8-6.5-3.9
		c-2.4,0.5-3.7-0.1-4.8-2c1.7-1.2,3.5,0.1,5.3-0.1c0.5-0.1,0.8-0.3,0.3-0.2c-0.1-0.3-0.2-0.5-0.4-0.7c-0.7-1.4-1.4-2.8-0.2-4.1
		c1.6-1.8,3.2-0.1,4.9,0.1c1.1,0.3,1.9,0.8,2.5,1.7c-0.3,3.5,2.5,3.6,4.7,4.2c1.5,0.4,3.3-0.5,4.8,0.6c-1,1.5-2.5,0.1-3.6,0.8
		c1,0,2.2-0.8,2.9,0.6c-0.6,2.8-2.1,4.8-4.7,5.9c-0.1,0.8-2.8,0.5-1.2,2.1c1.5,1.6,2.7,4.2,5.5,2.3c-0.3-4.6,0.3-5.2,5.1-4.9
		C242.3,516.8,243.5,517.4,244.5,518.4z"/>
	<path class="st11" d="M481.5,592.7c-3.2-1.2-6.4-3.7-9,1c-0.6,1.1-2.1,1.7-3.2,2.5c-3.4,2.8-11.3,1.9-13.6-1.5
		c-1.4-2-3.9-1.9-5.2,0.4c-1,1.7-2,2.9-4,2.9c-0.1-0.1-0.2-0.2-0.3-0.3c-0.1-1,0.6-1.5,1.2-2c1.4-1.5,0-1.4-0.8-1.7
		c-3.2-2.7-3.2-3.2-0.3-6.4c1.2-0.2,2.1,0.1,2.8,1.2c-0.5,0.7-1.1,1.6-1.6,2.3c2.7-2.4,5.5-2.8,8.9-1.3c-2.1-3.4,0.4-4.2,2.5-5.3
		c1.3,0.7,2.8-0.5,4,0.5c0.4,1.8-1.5,3.6,0.4,5.4c1.1,1.1-1.1,1.9-1.3,3c4.2,1.1,4.5,1,3.9-2.8c2.7-1,3-4.4,5.5-5.3
		c3.1,2.9,4.9,1,6.5-1.6c1.2,0.3,2.3-0.5,3.4,0c0.2,1.9,4.5,2.5,1.4,5.8c-1.3,1.4,2.9,1,3.7,2.5c0.1,1.5-1,0.7-1.5,0.7
		C483.7,592.8,482.6,591.9,481.5,592.7z"/>
	<path class="st12" d="M180,456.5c0.4,2.3,3.8,2.8,3.3,5.7c-0.1,0.6,1.1,0,1.7-0.1c6.4-1.2,11.5,3.7,10.5,10.3
		c-0.5,3.2,2.8,3.8,3.8,5.8c0.8,1.1,1.9,0.2,3,0.4c0.7,0.1,1.7,0,1.3,1.3c-0.5,1.1-4,0-2.1,3c0,0.1-0.6,0.8-1.2,1.1
		c-0.7,0.3-1.2,0.1-1.4-0.8c-0.3-1.9-1.8-2.2-3.4-2.9c-2.8-1.2-3.3-4.1-3.1-6.9c0.5-6.5-0.7-8.2-6.5-8.3c0.4,1.4,2.2,3-0.3,3.8
		c-2.1,0.6-2.1-1-2.3-2.4c-0.1-1-0.2-1.9-1.9-2.1c0.6,2,1.1,4,1.6,5.9c0.6,2.3,2,4.6,5.1,4.7c1.2,0,1.8,1.2,1.7,2
		c-0.2,1.4-1.5,0.7-2.3,0.6c-5.6-1.1-9.7-7.3-8.2-12.5c1-3.6-2.3-3.5-4.2-4.6c-0.6-0.5-1.1-1.1-1.2-1.9c-0.1-3,2-3,4-3
		C178.6,455.6,179.3,455.7,180,456.5z"/>
	<path class="st13" d="M620.1,520.2c0.5-0.3,1.2-0.6,1.7-1c1.8-0.6,3-2,4-3.5c0.7-1.1,1.5-1.9-0.6-3c-2.8-1.4-1.1-4-0.3-6.2
		c3.6-1.9,6.5-3.9,6.5-8.8c0-2.4,2.5-4.8,5.5-5.5c1.3,1.5-1.2,2.3-0.6,3.7c0.8,1.6-1.1,2.8-0.7,4.2c1.1,1,1.2,2,0.4,3.2
		c-3,5.3-3.2,12.2-8.9,16.1C624.7,521.2,622.6,522.4,620.1,520.2z"/>
	<path class="st8" d="M503.1,581.1c-1.5,0.1-3.4,0.2-4-1.1c-0.6-1.5,1.1-3.1,2-3.7c1.7-1.3,3.5-4,6.3-1.6c0.6,0.5,1.3,0.3,1.9-0.1
		c3-1.8,5.2-1.2,6.4,2.2l0.1,0.1c-0.3,1.7-4.5,3.3,0,5.1c0.7,0.3,0.8,1.8-0.1,2.9c-3.4,3.7-10.3,4.4-14.4,1c-1.2-1-2.2-1-3.5-0.5
		c-2,0.5-3.5-0.1-4.7-1.7l-0.1,0.1c1.6-0.3,3.4-0.3,4.9-1c2.4-1.2,4-0.8,4.9,3.2C503,583.4,503,582.2,503.1,581.1
		c3.7-1,3.8-0.8,3.4,3.5c1.6,0.3,3.3,0.1,3.7-1.6c0.4-1.7-1.5-3.4-0.8-5.3c-1.5-0.2-3.1-0.2-4.4,0.7
		C504.1,579.2,503.9,580.5,503.1,581.1z"/>
	<path class="st14" d="M635.9,503.5c-0.3-1.2,0-2.9-2-2.9c1.3-1.5,2.8-2.3,4.7-1.5c1.5,0.6,0.6,1.8,0.5,2.8c3.2-0.7,3.9-4.8,6.6-5
		c-0.7,0.4-2.5,0.6-3.4-0.3c-2.2-2.7-4.6-1.4-6.9-0.7c-1.3-1.9,1.3-2.3,1.4-3.6c1.1-0.5,2.2-1.2,3.3-1.7c0.4-0.1,1-0.3,1.2-0.1
		c4.2,3.8,5.8-0.5,8.3-2.5c-1.2,0.5-1.8,2.4-3.6,1.2c-0.1-1.3,0.1-2.4,1.2-3.3c0.8-1.5,2.3-2,3.9-2.5c1.9-0.2,3.8-0.3,4.6,2.1
		s1.8,0.1,2.7,0.1c0.8-0.4,1.5-1.2,2.4-1.4c1.4-0.3,2.2-0.1,1.4,1.6c-1.4,2.4-3.6,4.1-6.4,4.1c-5,0-6.3,3-6.7,7
		c-0.4,3.7-7.1,9-10.9,9C636.3,506,636,504.9,635.9,503.5z"/>
	<path class="st15" d="M262.9,532.6c1.5,0.2,2.5,1.2,3.3,2.3c1,1.9,3.5,3.2,2.7,5.8c-0.1,1.5,0.3,3.2-1.8,3.4
		c-0.8,0.6-0.7,1.8-1.5,2.4c-1-0.2-2.1-0.5-2.3-1.5c-1-4.4-5-5.7-7.8-8.4c0.5-1.2-0.6-1.3-1.2-1.8c0.2-2-0.3-4.1,1.5-6.1
		c1.3-1.4-2.1-2.8-1.5-4.8c2.5-1.7,4.1,0,5,1.8C260.3,528.4,262,530.3,262.9,532.6c-0.1,0.4-1.4,0.4-0.5,1.3
		c0.1,0.1,0.4,0.5,0.4,0.1C262.8,533.6,262.5,533,262.9,532.6z"/>
	<path class="st16" d="M265.5,546.7c-0.1-1.4-0.6-2.9,0.7-4c2.4,2.3,4.7,4.6,8.7,2.9c1.9-0.8,4.1-0.2,5.3,2c1,1.8,1.9,1.2,2.8,0
		c0.4-0.1,0.7,0,1.1,0.2c5.9-1.1,13.2,1.9,15.2,6.4c-1.7,1.1-1.7-1.5-3-1.4c-0.8-0.4-1.7-1-2.7-1.4c-1.5,0.1-3.3-0.7-3.6,1.9
		c-0.2,1.5-1.4,2.2-3,2.3c1,2.3,3.4,2.4,5,3.8c1.1,0.2,2.3,0.3,0.8,1.7c-6.2,0.5-6.2,0.5-10.1-9c-1.5,0.5-0.1,2-1.1,2.9
		c-0.1,0-0.5,0-0.5-0.1c-0.2-2.9-5-3-3.9-6.6c-0.6,0-1.6-0.3-2,0C271.6,551.2,268.6,549,265.5,546.7z"/>
	<path class="st17" d="M651.3,483.9c-1.4,0.6-2.8,1.3-4.1,2c-1-4.9,0.4-7.4,4.9-9.2c2.2,0,4.2-1.4,6.6-1.5c1.1,0,3-0.7,2.7-2.8
		c0.2-0.3,0.3-0.5,0.4-0.8c1.9,0,5-2.7,4.8,2.1c0.1,0.2,0.5,0.6,0.4,0.6c-2.8,3.3-1,8.6-4.9,11.5c-0.1-0.7,0.1-1.8-1.3-1
		c-0.7,0.5-1.5,1.1-2.2,1.6c-1.5-1.1,0.7-2.7-0.6-3.9C654.4,479.2,654.2,479.2,651.3,483.9z"/>
	<path class="st18" d="M577.4,543.5c2.9,0.4,3.3,0.2,3.3-1.9c0.5-1.7,2.2-0.6,3.2-1.4c1.3-1,2.3-0.2,3.2,0.8
		c1.1,1.3,0.4,2.3-0.4,3.3c-0.5,0.6-1.1,1.3-1.8,1.7c-0.5,0.3-1.2,0.5-1.6,0.8c-0.7,1.1-1.6,2-3.1,1.6c-2.4,0.5-4.1,1.9-4.6,4.6
		c-4.7-0.2-5.1-0.6-5.8-5.9c0.5-1.2,2-0.7,2.7-1.8C574.4,545.5,575.9,544.6,577.4,543.5z"/>
	<path class="st19" d="M533.2,578.7c-1-1.5-2-1-3.4-0.5c-1.3,0.3-3.7,0.7-2.3-2.2c0.5-1.2,0.1-1.5-1-1.6c-2.4-0.1-1.2-2-1.5-3.1
		c-0.4-1.6,1.1-1.6,1.9-1.8c1.6-0.3,2.9-1.8,4.7-1c0.7,0.3,1.9,0.3,1.1,1.5c-0.6,1-1.7,1.6-0.3,2.7c1.6,1.3,2-0.7,3.1-1
		c0.4,0,0.7-0.3,1.4-0.3c-2.9,1.4-0.5,4.7-2.5,6.3C533.9,578.1,533.5,578.4,533.2,578.7z"/>
	<path class="st20" d="M140.6,418c0.6-2.9,4.8-1.6,5-3.3c0.6-4.1,2.5-1.1,3.1-0.6c3.2,2.3,2.5,5.7-1.2,7.5c-1,0.4-0.6,1.4-1,2.1
		c-0.4,0-1,0-1.4,0C141.6,423.4,140.3,421.4,140.6,418z"/>
	<path class="st21" d="M90.3,327.8c-0.4,0.4-1,0.7-1.4,0c-2.4-4.2-2.1-0.2-2.9,1.2c-2.9-1.6-4.1-4.7-3.7-7.2c0.3-2.3-1-3.1-1.7-4.5
		c0.2-0.5,0.4-1.1,0.6-1.6c0.4-0.1,0.7-0.1,1.1,0.1c1.5,1.1,1.5,3.8,5,2.3c2.8-1.3,3.8,2.5,4.6,5C92.7,325.2,90.9,326.3,90.3,327.8z
		"/>
	<path class="st22" d="M624.9,506.6c0.5,1.5-1.1,2.9-0.1,4.5c0.3,0.5,0,1.3,1.1,1.5c2.1,0.4,2.4,0.6,1.2,2.5c-1.2,1.8-1.4,5.4-5.2,4
		c-0.8-1.9,1.1-5.1-2.5-5.9c-0.1,0-0.5-2.9,1.2-3.8C621.9,508.6,623.4,507.5,624.9,506.6C624.9,506.7,624.9,506.6,624.9,506.6z"/>
	<path class="st23" d="M254.4,524.2c4.9,3.6,0.8,7.2,0.1,10.8c-3.6,1.8-4.9-0.4-5.7-3.4c-0.5-1.3-2.2-2.9,1-2.9c1.3,0,1.5-1,1.6-2
		c0.2-1.6,0.5-3,2.3-3.4C253.9,523.7,254.1,524,254.4,524.2z"/>
	<path class="st24" d="M195.2,481.7c1.5,0.4,2.3,1.2,2.4,2.9c0.1,2.4,1.7,3.8,3.6,5.2c1.2,0.8,2.1,1.4,3.3,0.2c1-1,1.7-1.3,2.4,0.3
		c0.5,1.3,0.5,2.1-0.7,2.8c-1.2,0.6-2.2,0.8-3.6,0.5c-4.8-1.1-7-4.7-8.9-8.6C193.2,483.9,193.4,482.4,195.2,481.7z"/>
	<path class="st25" d="M227.6,504c-0.7-0.2-1.5-0.5-2.2-0.7c-0.6-0.5-1.1-1.3-1.4-1.9c-2.5-4.2-2.9-4.4-7.5-2.5
		c-0.6,0.2-1.3,0.2-2,0.1c-0.8-0.3-1.4-0.8-1.4-1.8c-0.1-0.7-0.1-1.5-0.2-2.1c-0.5-1.1-0.6-1.8,1-1.7c5.5-0.6,10.5-0.2,13.3,5.6
		C227.7,500.6,228.2,502.2,227.6,504z"/>
	<path class="st26" d="M686.3,445.5c2.5,0.6,4.5-1.3,6.8-1.6c2.9,3.8,0.3,6.7-1.9,9.2c-2.5,2.8-5.5,5.2-9.8,3.4
		c0.8-0.8,1.7-1.7,2.7-2.7c1.1-0.2,2.1-0.7,2.9-1.5c1.3-1.4,3.2-2.8-0.1-4.1C686.1,448,684.6,446.7,686.3,445.5z"/>
	<path class="st27" d="M741.7,359.4c1.5-1.3,2.7-1.8,2.7,1c3.5,0.6,6.8,3.9,10.5,0.5c1.1,0.6,0.8,1.7,1,2.7c-2.7,3.8-7,3.3-10.8,3.9
		c-0.4,0.1-1.4-0.6-1.3-0.7C744.4,364,741,362.3,741.7,359.4z"/>
	<path class="st0" d="M91.3,323.4c-0.8-1.3-0.7-3-2-4c-1-0.7-2-1.7-3,0c-1.7,3.1-2.4,2.7-2.9-0.6c-0.1-1-1.4-1.7-1.4-2.9
		c0.8-1,1.7-0.2,2.7-0.1c5-1.8,9.5,1.6,9.9,7.6C93.4,324.3,92.4,324.2,91.3,323.4z"/>
	<path class="st28" d="M575.6,552.9c0.3-1.1-2-1.8-0.6-2.8c1.5-1.1,3-3,5.3-1.6c-1,1.9-2,3.9-3,5.8c-2.7,5.4-7.1,7.1-13.1,5
		c-0.7-3.2,2.2-1.7,3.3-2.5C570.8,556.8,573.3,554.9,575.6,552.9z"/>
	<path class="st29" d="M213.5,493.3c-0.8,0.3-1,1-1,1.7c-3.7-1.2-4.8-4.4-4.5-7.4c0.4-4.1-1.5-6.2-4.8-7.5c-1.2-1.3-2.4-0.4-3.7-0.2
		c-1.7,0.2-0.5-0.8-0.4-1.5c6.5-0.4,10.6,1.7,11.7,6.1c0.3,1.3,1.3,2.7-0.5,3.9c-1,0.6-1,1.7,0.4,2.5
		C212,491.4,212.7,492.5,213.5,493.3z"/>
	<path class="st30" d="M404.3,588.6c-1-0.2-1.9-0.5-2.5-1.5c-1.7,0.4-2.5-1.3-4-1.7c-2.4-0.6-3.8,0.4-3.4,3c0.1,0.8,0.5,1.7-0.3,2.2
		c-1.2,0.6-1.7-0.2-2.2-1.1c0.1-2-2-3-2.4-4.8c4.8-3,10.6-2.8,14.6,0.5C405,586.1,406.2,587.2,404.3,588.6z"/>
	<path class="st31" d="M212.9,497.1c0.5,0.4,1,0.7,1.5,1.2c1.4,3.4,2.5,7.1,6.7,8.4c0.6,0.2,1.6-0.3,1.8,0.5s-0.5,1.1-1.3,1.2
		c-2.2,0.3-4.2-0.3-6.4-0.8c-3.1-2.3-3.9-5.6-3.7-9.3C211.6,497.2,212.2,497,212.9,497.1z"/>
	<path class="st32" d="M180,456.5c-0.8,0-1.6,0-2.4,0c-0.7-0.6-0.8-1.5-0.6-2.2c0.7-3.8-1.9-5.7-4.4-7.6c-0.1-1.6-3.6,1.9-2.4-1.6
		c3.9-1,7,0.5,9.5,3.5C181.5,451,181.7,453.7,180,456.5z"/>
	<path class="st33" d="M481.3,583.7c-1.2,0.7-2.3,2.5-3.4,0c3.7-4.1,10.1-5.5,14.7-3.4c2.2,1.1,0.6,2.2,0.4,3.4l0.1-0.1
		c-0.3,0.2-0.7,0.3-1.1,0.6c-1.1,0.6-1,3.5-2.5,2.3c-2.1-1.5,1.3-1.5,1.4-2.7c0-0.6,0.7-1.4-0.1-1.7c-1.7-0.7-3.5-2.1-5.3-1.2
		C483.9,581.7,482.1,582,481.3,583.7z"/>
	<path class="st34" d="M370.8,582.8c0.2,1.7-0.6,1.3-1.6,0.7c-2.2-3-1.4-4.1,2.2-4.6c5-0.5,9.2,0.1,12.4,5.4c-1.6,0-2.7,0-3.8,0l0,0
		C377.2,582.8,374.6,579.8,370.8,582.8z"/>
	<path class="st35" d="M244.5,518.4c-1.4,0-2.7,0-3.2-1.6c-0.7-2.8-3.3-4-5.1-6.1c-1-0.7-2-1.2-2.7,0.3c-0.2,0.6-0.5,1.1-1.1,0.4
		c-0.3-0.3-0.6-1-0.7-1.4c-0.2-0.7,0.2-1,0.8-1.1c1.5-0.1,3-0.1,4.6-0.2C241.8,510.3,244.7,513.1,244.5,518.4z"/>
	<path class="st17" d="M646,489.1c2.3,0,2.5-3.7,5.5-3.2c-0.8,4.2-4.7,5.6-7.2,8c-1.6,1.5-2.3,0-2.1-1.4c0.4-2-0.6-2-2-2
		C642.2,490,644,489,646,489.1z"/>
	<path class="st36" d="M267.9,540.9c1.5-2.5-2-3.7-1.7-5.9c2.8,2.3,6.9,0,9.7,2.8c1.7,1.7,4.6,2.5,3.7,5.8c-0.2,0-0.4-0.1-0.5-0.1
		c-1.4-0.6-2.8-1.2-3.9-2c-1.8-1.5-3.5-3.1-5.4,0C269.4,541.8,268.3,541.5,267.9,540.9z"/>
	<path class="st37" d="M174,458.8c0.8,0.3,0.8,1,0.8,1.7c-6.7,0.1-12-6.1-10-11.6c3.2,1.4,1.4,5,3.2,7
		C170.7,455.4,172.7,456.6,174,458.8z"/>
	<path class="st8" d="M567.5,557.7c-0.7,1.4-3.3-0.7-3.4,1.8c-1.6-1.9-3.4,1.3-5.1-0.1c-0.3-1.6,1.7-1.9,1.7-3.4
		c-1.4-1.3-1.4-2.7-0.4-4c1.6-1,2.1,1.2,3.4,1.2s2.4-0.3,3.6,0.4c0.8,0.5,1.8,1.8,0.5,2.1C565.3,556.3,568.3,557.1,567.5,557.7z"/>
	<path class="st34" d="M448.8,588.9c-1-0.2-1.8-0.5-2.8-0.7c-3.6-1.4-6.8-0.2-9.9,1.5c-0.5,0.2-1.1,0.5-1.5,0.7
		c-1.5-1.9-1.6-3.1,1.3-4c4-1.3,7.9-2.7,11.9-0.3C448.9,586.8,450.2,587.3,448.8,588.9z"/>
	<path class="st38" d="M767.8,326.7c-0.4,0-0.8,0-1.2,0.1c-4.2-5.4-3.2-8.6,4.2-13.3c1.2,1.3-0.5,1.7-0.7,2.5
		C768.1,319.3,767.9,323,767.8,326.7z"/>
	<path class="st39" d="M72,310.1c0.1-1.2,0.4-1.9,1.8-1.3c0.8,0.4,1.8,0.8,2.4-0.5c0.5-1.4,1.2-2.8,2.5-0.8c1.3,1.7,3.2,3,4,5.1
		c-0.8,0.7-1.7,0.6-2.4,0c-0.8-1.8-0.8-1.7-2.4-0.8C75.7,312.8,73.8,311.6,72,310.1z"/>
	<path class="st40" d="M771.8,329.2c0.3-0.8,0.5-1.6,0.8-2.4c2.3-2.3,4-5.1,4.8-8.3c-0.1-1.5,0.4-2.7,1.8-3.4l0,0
		c1.5,3.4,1.4,6.8-0.8,9.9C776.9,327.5,774.6,328.8,771.8,329.2z"/>
	<path class="st41" d="M462.9,585.3c-1.4-0.3-3.1,1-4.2-0.8c4.4-1.7,8.7-2.1,12.7,0.7c-1.4,2-2,4.8-5.2,5.1c-1-1.3,0.1-2,0.7-2.9
		c0.2-2.8-1.9-1.6-3.2-1.8C463.4,585.8,463.1,585.6,462.9,585.3z"/>
	<path class="st42" d="M339.5,570.3c-2.1,2.4-3.1-0.7-4.6-0.8c-2,0.4-4.4-2.2-5.9,0.8c-3.7-1.5-1.8-2.8,0.1-4.1
		C333.1,566,336.8,566.8,339.5,570.3z"/>
	<path class="st43" d="M349.2,575.6c-0.8-0.2-1.9-0.1-2.4-1.1c3.8-0.8,7.5-1.9,11.3,0.5c1.5,1,3.1,1.8,3.5,3.9
		C357.1,578.5,354.2,573.1,349.2,575.6z"/>
	<path class="st44" d="M90.6,337.7c1.9-0.1-1.8,3.5,1.6,2.4c2.2,2.3,2.9,5.5,4.4,8.2c-2.5,1.1-3.4-1.7-5.1-2.3
		C90,343.4,88.3,340.7,90.6,337.7z"/>
	<path class="st45" d="M481.5,592.7c-0.3-1.5-0.3-1.6,0-1.5c1.6,0.6,3.1,1.2,4.9,0.8c3.8,0.4,4.6-3.9,7.6-5.2
		C492.8,592.8,488.8,594.5,481.5,592.7z"/>
	<path class="st46" d="M248.7,531.7c1.6,1.6,2.7,4.1,5.7,3.4c1.5,0,1.5,0.8,1,1.9c-2.3,1.8-4.1,0.3-6.1-0.8
		C246.9,532.8,246.9,532.8,248.7,531.7z"/>
	<path class="st47" d="M547.3,570.4c-0.5-1-1.6-0.6-2.4-1.2c0.2-1.1,1.2-0.4,1.7-0.7c2.5-1.5,5.4-2,8.1-3.2c1.3,0,1,1.1,1.2,1.8
		C553.7,569.9,550.9,570.9,547.3,570.4z"/>
	<path class="st48" d="M661.3,472.4c0.4,1.3,1.5-0.6,2,0.7c-2.5,4.1-8.8,1.3-11.4,5.7c-1.3-1.2,0.4-1.6,0.1-2.3
		C654.6,474,659.1,475.7,661.3,472.4z"/>
	<path class="st49" d="M313.8,569.2c0.1,1.4-0.3,1.6-3.3,2c-0.2-0.1-0.5-0.1-0.7-0.1c-1.7-1.7-6.6-1.2-4.2-5.8
		C308.2,566.8,310.7,568.5,313.8,569.2z"/>
	<path class="st50" d="M562.9,554.4c-2,0.3-1-2.4-2.5-2.5c1.4-1.9,1.6-5.2,5.2-4.5c0.4,0.1,0.6,0.4,0.6,0.7
		C565.2,550.2,564.6,552.7,562.9,554.4z"/>
	<path class="st51" d="M103.9,366c-1.6-2.5-2.8-5.2-2.4-8.4c1.1,2.7,3.6,4.2,4.5,6.9C105.5,365.2,105.3,366.4,103.9,366z"/>
	<path class="st52" d="M140.6,418c0.3,2.9,2.7,4.1,4.6,5.8c-3.3,2.7-3.7-1.3-5.3-2.4c0.2-1.8-1.4-3.4-0.4-5.4
		C139.8,416.7,140.2,417.4,140.6,418z"/>
	<path class="st0" d="M103.9,366c0.6-0.5,0.8-1.7,2-1.5c1.8,1.3,1.1,3.4,2,5.6C105.7,368.9,103.4,368.9,103.9,366z"/>
	<path class="st53" d="M77.9,298.3c-0.8-1.3-3.3-0.3-3.3-2.5c1.7,0.4,3.3,1,5,1.4c3,0.7,3.9,2.4,2.4,5.3l0.1-0.1
		C80.5,301.3,80.4,298.6,77.9,298.3z"/>
	<path class="st3" d="M707.3,418.6c0,1.2-1.2,1.8-1.3,3.3c-0.1,2-1.5,3.6-3.9,1.8C703.9,422,704.3,419.1,707.3,418.6z"/>
	<path class="st4" d="M778.3,325c1.5-3.2,1.2-6.5,0.8-9.9C781.9,318.8,781.6,321.5,778.3,325z"/>
	<path class="st32" d="M169,444.8c-2.8-0.7-5.2-1.8-7.4-5.2c2.4,1.2,3.8,3.1,5.8,1.9C168,442.5,169.6,443.1,169,444.8z"/>
	<path class="st54" d="M91.3,323.4c1.1,0,2.1,0,3.2,0.1c0.6,1.8-1.2,2.7-1.5,4.1c-1-0.6-1.8-0.1-2.7,0.3
		C89.6,326.1,92.2,325.2,91.3,323.4z"/>
	<path class="st50" d="M572.5,545.2c1.2,3.4-1.8,1.1-2.4,1.8c-1.1,1-2.3,1.4-3.8,1c-0.2-0.2-0.4-0.4-0.6-0.7
		C567.4,545.2,569.9,544.9,572.5,545.2z"/>
	<path class="st55" d="M80.4,312.6c0.8,0,1.7,0,2.4,0c0.6,1.1,1.2,2.2,1.8,3.3c-0.8,1.3-1.8-0.5-2.7,0.1c-0.2-0.1-0.5-0.1-0.7-0.2
		C81.2,314.6,79.7,313.8,80.4,312.6z"/>
	<path class="st56" d="M284.1,547.7c-0.4,0.1-0.8,0.1-1.3,0.2c-2.5,0.4-3.6-1.6-4.7-3.1c-0.8-1.3,0-2,1.5-1.2l-0.1-0.1
		C281.5,544.4,282.9,546,284.1,547.7z"/>
	<path class="st57" d="M344.8,577c-1.5-0.3-2.9-0.5-4.4-1c-0.5-0.1-1.5-0.5-0.7-1.3c0.3-0.3,1.2-0.1,1.7-0.1
		C343.6,574,344.3,575.5,344.8,577z"/>
	<path class="st58" d="M606.8,520c-0.2,0.8,2.1,0.7,0.7,2c-1.3,1-2.5,1.6-4.1,1.4c-0.4,0-1.1,0.1-1.1-0.1c-0.5-1.2,1.1-1.4,1.3-2.2
		C604.7,520.6,605.8,520.3,606.8,520z"/>
	<path class="st59" d="M560.7,556c1.6,2.2-1.1,2.3-1.7,3.4c-0.2,0-0.4,0.1-0.6,0.2c-0.4,0-1-0.1-1.4-0.1c0.4-0.5,0.8-1.2,1.3-1.7
		C559.1,557.1,559.9,556.5,560.7,556z"/>
	<path class="st18" d="M590.3,547.2c-1.7,2-3.5,2.4-5.2,0c1.6-1.8,3.3-1.6,5-0.3L590.3,547.2z"/>
	<path class="st60" d="M82.1,302.5c1.5,1.6,1.2,3.5,1,5.4c-0.1,0.6-0.4,1.8-1.6,1.2c-0.4-0.3-0.6-1.7-0.6-1.8
		C83.2,306.2,81.5,303.9,82.1,302.5C82.2,302.4,82.1,302.5,82.1,302.5z"/>
	<path class="st61" d="M590,546.7c-1.7,0.1-3.4,0.2-5,0.3c-0.5-0.1-1.2-0.1-1.7-0.2c0-0.7,0.3-1.2,1.1-1.2c2.1-0.7,4.1-1.5,6.5-0.8
		C591.6,545.7,591.6,545.7,590,546.7z"/>
	<path class="st62" d="M432.9,591.2c-1.8,1.4-3.5,1.9-5.3,0C429.4,590.4,431.1,590.1,432.9,591.2z"/>
	<path class="st63" d="M96.5,348.3c-3.5-1.7-3.1-5.3-4.4-8.2c1.6-2,1.8,2.2,3.6,0.7c1.4-1.2,0.7-4.4,2.9-3.7
		c2.1,0.6,3.7,3.1,3.9,5.3C102.9,346.4,100.8,348.2,96.5,348.3z"/>
	<path class="st21" d="M174,458.8c-2-1-3.9-2-5.9-3c1-1.4,0.8-2.8-0.6-4.2c1.7-0.1,2.7-0.1,3.6-0.2c1.7-0.2,2.9-0.8,0.8-2.4
		c-1.9-1.4,0.5-1.6,0.6-2.4c4.8,1.2,6.1,3.6,5.1,10C175.7,456.2,174.5,457,174,458.8z"/>
	<path class="st64" d="M159.9,442.5c-2.3-2.7-5.4-4.6-5.6-8.4c1.9,0.1,5,1.8,3.6-2.5c-0.2-0.7,0.4-1,1-1.2c3.1-1.1,3.6,2,4.9,3.4
		c1.3,1.6,0.7,3.6-1.2,4.6C159.6,439.8,159.5,439.7,159.9,442.5z"/>
	<path class="st65" d="M131.7,404.4c-1.6-3.1-4.8-5.6,0.7-8c0.8-0.3,0.6-2.3,2.8-1c2.2,1.4,2.8,2.7,2,4.9c-0.3,0.8-1.1,1.7-1.8,1.4
		C132.7,400.4,132.8,402.9,131.7,404.4z"/>
	<path class="st66" d="M370.8,582.8c-0.6-0.4-1.1-0.8-0.1-1.5c3.2-1.9,6.9-0.7,9.3,3.2c-1.5,1.1-5.4,0.8-2.2,4.5
		c0.5,0.6-0.7,1.3-1.6,1.4c-2.1,0.2-4.1,0-5.8-1.5c-0.5-0.5-1.8-0.2-1.6-1.5c0.2-1.1,0.8-1.2,1.9-1.4
		C372.7,585.5,372.9,584,370.8,582.8z"/>
	<path class="st66" d="M329,570.3c-1.1-1.5-0.8-2.5,1.1-2.7c1.8-0.1,3.5,0.5,4.9,1.8c0.3,1.4,2.3,2.8-0.2,4c-0.2,0.1-0.5,0.8-0.4,1
		c2.4,2.5,0.2,3.5-1.6,3.8c-2.4,0.3-4.5-1.1-5.9-3c-0.5-0.6-0.7-1.7,1-2C328.8,573,330.4,572,329,570.3z"/>
	<path class="st67" d="M292.1,559.4c-1.9,0.2-3.5-0.3-4.8-1.8c-1.7-1.8-1.7-1.7,0.7-2.9c0.7-0.3,1.3-1,1.5-1.9
		c0.6-3.9,0.6-3.9,4.2-1.5C295.3,554.4,292,556.5,292.1,559.4z"/>
	<path class="st20" d="M313.8,569.2c-3.9,1.1-6.3-1.1-8.3-4c1-1.5,3.2-1.5,3.6-3.8c0.4-2.1,2.2-1.1,3.3-0.4c0.8,0.5,3.1,1.1,1.7,2.5
		C312.1,565.6,311.7,567.2,313.8,569.2z"/>
	<path class="st63" d="M663.7,469c2-1.6,2-4.5,3.7-6.2c1.4-1.3,3.5-4.7,4.8,0.2c0.5,1.8,4.5-0.2,3.4,3.4c-0.7,2.4-4.7,5.8-7.3,5.6
		c-0.3,0-0.2-0.3-0.2-0.5C667.3,468.5,667.3,468.5,663.7,469L663.7,469z"/>
	<path class="st68" d="M707.3,418c1-2.7-0.1-5.9,2.5-8c1.6-1.2,3.1-2.3,4,0.6c0.3,0.8,0.5,1.6,1.6,1.5c4.1-0.4,2.7,2.4,1.7,3.7
		c-1.3,1.8-2.8,3.9-5.6,3.7c-0.6-1.2,1.5-2.9-0.3-3.6C709.4,415,708.7,417.4,707.3,418z"/>
	<path class="st69" d="M697.1,433.8c-1.3-0.1-1.8,2.9-3.4,1.5c-1-0.8,1.8-1.7,1.1-3.4c-1-2.4,0.8-4,2.7-5c1.9-1.1,2.5,0.8,3.4,2.1
		c0.8,1.2,3.9,0,2.9,2.9c-0.6,1.7-0.7,3.7-2.9,4.1c-0.7,0.1-3.2,2.2-2-1.2C698.9,434.2,698.3,433.7,697.1,433.8z"/>
	<path class="st70" d="M724.8,401.9c-1-1.2,1.2-2.2-0.1-3.1c-1.2-0.8-2,0.1-2.8,1c-1.1,1.1-2,0.5-1.9-0.6c0.3-2.8,0.5-5.7,3.3-7.3
		c1.3-0.7,3-1.4,3.5,1c0.1,0.5,0.2,1.2,0.7,1.3c1.3,0.3,3.7-1.8,3.4,1.9c-0.3,3.2-1.4,5.3-4.8,5.5
		C725.7,401.6,725.2,401.8,724.8,401.9z"/>
	<path class="st71" d="M777.4,318.5c0.8,4.1-0.6,7-4.8,8.3c-1.5-6.5-3.2-0.5-4.8-0.1c-1.3-4-1.4-7.8,2.3-10.6
		c1.3,0.4,3.2-0.8,3.6,1.9C774,320.3,776.2,317.5,777.4,318.5z"/>
	<path class="st72" d="M788.4,287.4c1.2-2.1,0.3-4.6,0.8-6.8c0.6-3.3,2.1-3.9,4.9-1.8c0.4,0.3,1,0.8,1.3,0.7c1.2-0.2,3-1.2,2.7,0.8
		c-0.2,1.6,0.6,4-1.7,4.9c-1.2,0.4-2,2.7-3.8,0C791.3,283.3,790,286.7,788.4,287.4L788.4,287.4z"/>
	<path class="st73" d="M783.2,307.3c-0.2-3.5-0.2-3.6-2.8-2.2c-0.5,0.3-1,0.4-1.5,0.1c-1.1-0.5-0.7-1.3-0.6-2.1
		c0.3-2,0.2-4.2,2.3-5.4c1-0.5,1.6-0.5,2.4,0.4c1,1,1.7,3.3,3.8,1.6c0.8,1.2,1.5,2.5,0.3,3.8C786.2,304.8,785.4,306.5,783.2,307.3z"
		/>
	<path class="st74" d="M59.4,269.7c-0.6,0-0.6-1.2-1.6-1c-3.4,1-6.8-1.8-6.3-5.1c0.1-1,0.8-1.7,1.6-1.4c2.5,1,3-1.1,3.8-2.5
		c2.8-0.5,3.9,1.7,4,3.5C61.2,265.4,62.6,268.3,59.4,269.7z"/>
	<path class="st72" d="M46.7,251.1c-1.1-1.9-2.9-2.7-3.2-4.4c-0.4-1.9-2.4-4.6,2.1-3.9c0.6,0.1,1.6-0.7,1.9-1.4c0.4-1,0.7-1.9,2-1.5
		c1.1,0.3,1.9,1.1,1.9,2.4c0,1.5-0.3,3,0.2,4.6c0.3,1-0.7,2.1-2.1,1.6C47.1,247.3,47.1,247.2,46.7,251.1z"/>
	<path class="st75" d="M68.5,279.4c0.4,0.1,1.2,1,1.6,2c0.6,1.8,0.2,3.8,1.3,5.5c0.1,0.2-0.1,0.8-0.3,1c-1.9,1.2-4.2,0.1-6.4,0.7
		c-1.3,0.3-2.8-3-2.5-5.4c0-0.3,0-0.7,0.1-0.7C64.1,281.4,66,280.6,68.5,279.4z"/>
	<path class="st74" d="M436.2,589.5c3.5-3.6,6.4-4.1,9.9-1.5c-1.2,2.1-2.4,4.2,1,5.6c0.6,3.1,0.2,3.4-3.9,2.7
		c-2.4-0.5-6.3,0.5-5-4.5C438.2,591.3,436.8,590.4,436.2,589.5z"/>
	<path class="st70" d="M391.8,589.4c0.8,0.2,2.8,1.5,1.9-0.3c-0.8-1.8-1.6-3,0.2-4.4c2.1-1.6,4.2-0.7,6.2,0.5
		c0.6,0.4,1.2,1.2,1.7,1.8c0.1,1.4-0.7,1.9-1.7,2.4c-0.5,0.3-1.3,1.4-1.2,1.5c1.4,1.5,2.3,2.9-0.6,3.4c-2.7,0.5-4.8-0.5-6.3-2.9
		C391.8,590.9,391.9,590.2,391.8,589.4z"/>
	<path class="st72" d="M415.2,595.5c-0.1-2,3.1-4-0.1-6.2c-0.2-0.1,1.1-1.9,2.3-2.2c2.4-0.5,4.7,0,6.5,2.3c-4.2,1.8-2.2,3.8-0.2,5.9
		C421.7,598.3,418.8,598.3,415.2,595.5z"/>
	<path class="st76" d="M443.1,596.4c1.5-0.6,4.2,0.6,3.9-2.7c0.7-0.8,1.6-1.3,2.4-0.4c0.5,0.6,0.1,1.6-0.5,2.2
		c-1,0.8-1.9,1.5-2.9,2.2C444.8,597.8,443.7,597.6,443.1,596.4z"/>
	<path class="st77" d="M415.2,595.5c2.9,1.4,5.6,3,8.5,0c1.3-0.1,2.2,0,0.7,1.4c-1.5,1.5-8.7,1.8-10.2,0.3
		C413.3,596.1,415.3,596.3,415.2,595.5z"/>
	<path class="st21" d="M554.8,565.2c-1.9,3-5,3.2-8.1,3.2c0-0.4,0-0.8,0.1-1.2c0.3-0.8,2.2-1.6,0.5-2.5c-1.3-0.8-2.4-0.1-2.7,1.6
		c-0.1,0.8-0.3,1.7-1.8,1.4c0.2-3.5,0.7-6.8,4.4-8.5c2.7-1.3,4-0.3,3.7,2.5C550.9,564.4,554.1,563.5,554.8,565.2z"/>
	<path class="st68" d="M754.9,361c-0.8,3.2-3.6,3-5.8,3.7c-0.8-1.2,1.1-2.1-0.3-3.3c-1.2-0.5-4.1,4.6-4.4-1.1
		c1.8-0.2,0.8-1.7,1.1-2.5c0.4-1.8,1.6-2.9,3.1-3.4c1.4-0.5,2,1.6,2.5,1.7C753.8,356.8,754.4,358.6,754.9,361z"/>
	<path class="st78" d="M761.2,346.2c0.4-5.5-1.8-3.3-3.7-1.8c-1.3-4.4-0.5-7.8,2-8.6c2.7-1,3.4,4,6.5,2.3
		C766.5,341.5,764.3,343.7,761.2,346.2z"/>
	<path class="st79" d="M231,516c0.5,3.5,3.1,4.8,6.1,5.6c-1.3,2.3-2.9,1.3-4.5,0.3c-2-1.2-3.4-3-3.8-5.2
		C228.5,516.1,230.4,517.2,231,516z"/>
	<path class="st20" d="M467.9,587.8c-0.6,0.8-2.3,0.8-1.7,2.5c-1,1.8,4.5,1.4,1.4,3.8c-2.8,2.2-5.8,1.3-7.8-2
		c0.7-0.8,2.4,0.7,2.8-0.8c0.2-1.2-0.8-1.5-1.7-2.2c-3.1-2.9,1.9-2.1,2-3.7c0.2,0,0.5-0.1,0.7-0.2
		C465.9,584.8,467.7,585.2,467.9,587.8z"/>
	<path class="st80" d="M635.5,496c1.3-0.8,2-2.2,3.6-2.8c1-0.3,2-1,2,0.7c0,2.5,2.2,2.1,3.6,2.5c2.1,0.7,1.2-2.2,3-2.5
		c-1.3,1.4,1.1,4.4-3.1,4.7c-1.1,0.1-2.9,3.7-5.1,4.8c-0.5,0.2-1.6,0.7-2.1-0.3c-0.7-1.6,1.6-1.6,1.6-2.9c-1.8-1.1-3.5-0.6-5.1,0.5
		c-1.4-0.4-0.4-1.1,0-1.3C635.9,498.8,635.8,497.5,635.5,496z"/>
	<path class="st81" d="M651.3,483.9c-1.2-3.8,2.3-4.2,4.1-6.2c1.3,1.8,0.6,5.9,5.1,3.2c-0.8,2.2-1.4,3.8-2,5.5
		c-1.3,0.7-2.4,1.7-4.5,1.5C656.1,484.5,654.1,483.9,651.3,483.9z"/>
	<path class="st36" d="M262.9,532.6c0.7,1.1,1.6,2.2,2.9,3.9c-3.2-0.7-4.5-2.7-5.9-4.4C261,531.2,261.9,532.8,262.9,532.6
		L262.9,532.6z"/>
	<path class="st73" d="M566.1,548.1c1.3-0.2,2.3-1.4,3.8-1c1.2,2.7,1.8,5.7,5.6,5.7c-1.4,3.8-4.4,5-8.1,4.9c-3.7-1.5,0.2-2,0.3-3
		c-1.6-1.7-3.4-0.4-5.1-0.3C562.7,551.6,564.4,549.8,566.1,548.1z"/>
	<path class="st11" d="M467.9,587.8c-1-1.7-2.3-2.7-4.4-2.8c2.1-1.4,3.7-0.1,5.1,1.1C469.8,587.1,468.5,587.4,467.9,587.8z"/>
</g>
<g>
	<ellipse class="st82" cx="412.7" cy="673.7" rx="11.1" ry="7.1"/>
	<path class="st83" d="M380.1,699.2c0,1,0,2.1,0,3c-0.7-0.3-1.6,0.4-1.9-1.6c0-0.4,0.7-1.1,1.1-1.6
		C379.7,699,379.8,699.1,380.1,699.2z"/>
	<path class="st84" d="M395.2,602c-0.7-4.9,1.1-9.3,3.6-13.4c-0.1-1.1,0.3-1.9,1.2-2.6c0.3-0.1,0.7-0.1,1-0.1
		c0.5,0.1,1.1,0.3,1.6,0.4c1.5,0.4,3.2-1.5,4.4,0.3c1.2,1.8,1.2,4.1,1.1,6.2c-0.1,1.6,0,2.9,1.2,4c0.4,0.5,0.8,1,1,1.6
		c0.1,0.8,0.3,1.5,0.8,2.2c0.5,0.8,1.2,1.5,1.6,2.5c0.5,1.2,1.2,2.5,0,3.7c-1.1,1.2-2.3,0.8-3.6-0.1c-1.4-2.7-1.8-5.9-4.1-8.1
		c-0.1-0.4-0.3-1-0.5-1.2c-0.4-0.5-0.5-1.4-0.8-2.1c-0.1-0.8,0-1.8-0.5-2.5c-1-0.1-1.2-2.2-2.7-1.1c-0.3,0.5-0.5,1.2-0.5,1.5
		c-0.1-0.4,0.4-1,0.7-1.6c1.2-0.8,1.4,0.8,2.1,1.1c0.3,0.3,0.4,0.4,0.5,0.7c0.4,1.4,0.4,3,1.5,4.1c0.1,1.9,1,3.7,1.5,5.6
		c0.1,0.7,0,1.2-0.1,1.9c-1,1.5-1.9,1.4-2.7-0.1c-0.7-1.2-1.5-2.2-2.6-2.9c1.8,1.4,2.6,3.6,4.8,4.7c1.4,0.7,1.6,2.3-0.5,2.7
		c-1.5,0.3-2.3,1.1-2.5,2.6c-0.1,2.9-1.6,2.1-3.2,1.2c-1.2-1.1-2.2-2.3-2.9-3.8c-0.5-1.2-1-2.6-1.6-3.8
		C394.3,604.1,393.7,602.8,395.2,602z"/>
	<path class="st83" d="M381.2,684.1c0-0.4-0.1-1-0.1-1.4c0.5-0.7,1-1.2,1.5-1.9c0.4-0.4,0.8-0.4,1.4-0.3c0.3,0.3,0.3,0.5,0.3,1
		C383.8,683.1,383.2,684.4,381.2,684.1z"/>
	<path class="st85" d="M383.8,680.7c-0.4,0-0.8,0-1.4,0c0.4-0.4,0.8-1,1.4-1.4c0.4,0,1,0,1.4,0.1C385.3,680.4,384.9,681,383.8,680.7
		z"/>
	<path class="st83" d="M379.7,695.1c0.1-1,0-2.1,0.8-2.9h0.1c1.9,2.9,1.8,4.9-0.7,6.9c0-1-0.1-2.1-0.1-3
		C379.7,695.7,379.7,695.4,379.7,695.1z"/>
	<path class="st86" d="M400,612c0.5,0.3,1,0.5,1.5,0.8c-0.7-3.3,0.8-4.9,4.4-4.9c-2.3-3-6.7-4.4-5.9-9.3c0.4,2.6,3.8,3.2,4.3,5.9
		c0.1,0.5,1,0.4,1.4-0.1c2.2,0.5,2.3,2.3,2.2,4.1c-0.8,2.5-3.8,3.3-4.9,5.6c-0.3,0.7-1.4,0.5-2.2,0.1
		C399.7,613.8,399.3,613.1,400,612z"/>
	<path class="st87" d="M401.3,585.7c2.3,0.3,4.4-1.1,6.7-0.5c0.5,0,0.8,0.3,1.1,0.7c0.1,0.3,0.1,0.5,0.3,1c-0.1,1.1-0.4,2.2-0.3,3.3
		c0,1.6-0.1,3.3,0.4,4.8c0.1,0.5,0,1.1-0.1,1.5c-0.1,0.3-0.4,0.5-0.7,0.7c-1.6-1-2.3-2.3-1.8-4.3c0.5-1.6-0.3-3.3-0.3-4.9
		c0-1.4-0.8-1.9-1.9-1.1c-1.5,1.1-2.7,0-4-0.5C400.9,586.3,401.1,586,401.3,585.7z"/>
	<path class="st88" d="M406.7,608.7c-0.3-1.5-0.3-3-1.2-4.3c0-0.5-0.1-1.2-0.1-1.8c0.1-0.8-0.1-1.8,0.8-2.2c2.5,1,2.7,3.3,3,5.5
		c0.7,1.4,1.5,2.7,1.2,4.5c-0.3,0.8-1,1.1-1.8,1.1C406.8,611.3,406.8,610,406.7,608.7z"/>
	<path class="st89" d="M409.6,605.9c1,0.1,1.9,1.1,2.7,0c0.7-1-0.4-1.8-0.5-2.7c-0.3-1.1-2.3-1-1.6-2.5c0.4-0.4,0.8-0.5,1.4-0.5
		c1.4,0.5,2.1,1.6,2.7,2.9c0.3,1,0.3,1.9,0.7,2.9c0.4,1.8-0.7,2.7-1.9,3.7c-1,0.5-1.9,0.7-2.7,0c-0.5-1-0.5-2.2-1-3.3
		C409.3,606.1,409.4,606,409.6,605.9z"/>
	<path class="st90" d="M413.3,603.5c-0.7-1-1.2-1.9-1.9-2.9c-0.7-0.7-1.5-1.2-1.9-2.2c-0.3-0.4-0.5-0.8-0.8-1.2
		c0-0.3,0.1-0.4,0.1-0.7c0.4-0.3,0.8-0.5,1.2-0.5c0.7,0,1.2,0.3,1.6,0.7c0.7,0.8,1,1.8,1.6,2.6c0.4,0.8,1.4,1.1,1.6,2.1
		c0,0.3,0,0.5,0,0.8C414.6,602.8,414.1,603.4,413.3,603.5z"/>
	<path class="st89" d="M408.7,606c-0.1-2.2-1.4-4-2.6-5.6c-1.2-0.5-1.8-1.2-0.7-2.5c3.3,1.6,3.7,4.8,4.1,8l-0.1,0.1
		C409,606.4,408.9,606.4,408.7,606z"/>
	<path class="st91" d="M405.5,597.9c-0.4,1,1,1.5,0.7,2.5c-0.1,0.8-0.1,1.8-1,2.3c-0.5-1.8-2.7-3.4-0.5-5.5l-0.1,0.1
		C404.9,597.5,405.2,597.8,405.5,597.9z"/>
	<path class="st87" d="M400.7,591.2c-0.8,1.8,1.1,3.6,0.3,5.8C398.9,594.9,398.6,593.1,400.7,591.2L400.7,591.2z"/>
	<path class="st92" d="M404.8,597.2c-2.2-0.5-2.5-2.1-2.2-4c-0.1-0.8,0.3-1,0.8-0.5c0.7,0.4,0.7,1.2,1.1,1.9
		C404.6,595.4,404.6,596.4,404.8,597.2L404.8,597.2z"/>
	<path class="st93" d="M404.5,594.6c-1,0-0.5-1.9-1.9-1.4c-0.1,0-0.3,0-0.4-0.1c-0.7-0.3-0.7-0.7-0.3-1.2c0.7-0.7,1.4-0.5,2.1,0
		C404.6,592.7,404.8,593.7,404.5,594.6z"/>
	<path class="st87" d="M403.9,591.9c-0.8,0-1.8-0.1-1.8,1.2c-0.5-0.7-1.1-1.2-1.6-1.9l0,0C402,590.4,403,591.2,403.9,591.9z"/>
	<path class="st94" d="M409.6,598.5c1.2,0.3,1.8,1,1.9,2.2c-0.4,0-0.8,0-1.4,0C409.4,600.1,409.4,599.3,409.6,598.5z"/>
	<path class="st95" d="M384.5,637.7c0.1-0.3,0.3-0.5,0.5-0.7c1.4-0.7,1.8-2.2,2.9-3.2c0.3-0.3,0.5-0.4,0.8-0.4c1-0.3,1.8-0.4,2.7,0
		c0.4,0.3,0.8,0.5,1,1c0.5,1.2,0.3,2.5,0.4,3.7c0,0.5-0.1,1-0.4,1.4c-0.5,0.7-1.2,1.1-2.1,1.2c-1.1,0-2.2-0.4-3.3-0.3
		C385.6,639.9,384.9,638.9,384.5,637.7z"/>
	<path class="st96" d="M384.5,637.7c1,0.7,1.9,1.4,2.7,2.1c0.8-0.1,1.5,0.1,2.1,0.7c0,0.3,0,0.5-0.1,0.8c-1.8,0.8-3.3,2.3-5.3,1.8
		c-0.1-0.7-0.3-1.4-0.4-2.1C383.9,640,383.7,638.6,384.5,637.7z"/>
	<path class="st97" d="M385.2,636.4c1.1-1,2.2-1.9,3.3-2.7c-1,1.4-0.1,4.5-3.6,3.3C385,636.7,385.2,636.6,385.2,636.4z"/>
	<path class="st98" d="M379.8,699.1c0.8-2.2,0.8-4.5,0.7-6.9c1.1-2.6,0.1-5.5,0.5-8.1c1-1,1.8-1.8,2.7-2.7c2.6-0.4,3.2,0.3,2.3,2.6
		c-0.5,1.6-2.3,3.6,0.3,5.1c1.2,1.8,0.1,3-1.2,4c-2.1,3.7-1.4,8.1-2.9,11.8c-1.4,3.6-0.3,7,0.5,10.3c0.1,0.3,0,0.5,0,1
		c-0.7,1.6,0,4-2.2,4.9c-2.5,0.5-3.6-0.7-3.8-3c-0.7-5.8-0.8-11.4,2.5-16.6C379.8,700.9,380,699.9,379.8,699.1z"/>
	<path class="st99" d="M385.8,689.5c-2.1,0.8-2.1-0.7-1.9-1.8c0.1-1.4,0.7-2.7,1.2-4c0.8-1.6,0.1-2.2-1.4-2.2c0-0.3,0-0.4,0-0.7
		c0.4-0.4,1-0.8,1.4-1.2l0,0c0.1-0.3,0.4-0.4,0.7-0.5c0.4-0.1,0.8-0.1,1.2,0c1.8,0.3,2.3-0.4,1.6-2.1c-0.1-0.3-0.1-0.5,0-1
		c0.4-1.2,1.8-1.5,2.6-2.6c1.2-0.8,1.2-2.1,1.1-3.4c-0.5-0.7-1-1.5-0.5-2.5c1.4-1.4,2.2-0.7,2.6,0.8c0.4,1.6,0.8,3.3,0.3,4.9
		c0.7-1.8,0.7-3.7,1.6-5.3c0.5-1,1.1-2.1,2.6-1.4c1.1,0.5,1.5,1.5,1.4,2.7c-0.7,3.6-1.8,6.6-5.2,8.9c-3.3,2.3-6.7,5.1-8.1,9.3
		C386.9,688.4,386.5,689.1,385.8,689.5z"/>
	<path class="st100" d="M392,669.9c-0.3-0.7-0.4-1.4-0.7-2.1c-0.3-0.1-0.5-0.4-0.7-0.7c-0.3-0.7-0.1-1.4,0.4-1.9
		c1.1-0.4,1.6,0.1,1.9,1.1c0,0.4-0.1,0.7-0.4,1c0,1,0,1.8,0,2.7C392.3,670,392.2,670,392,669.9z"/>
	<path class="st83" d="M379.1,701.7c-1.4,5.5-2.7,11-1.9,16.7c-0.3,0.3-0.5,0.3-0.8,0c-1.9-3.4-0.7-6.7-0.1-10.1
		c-0.3-0.5-0.4-1.2-0.7-1.8c-0.3-0.3-0.3-0.5-0.4-0.8c0.1-0.7,0.4-1.5,0.7-2.2c0.5-0.7,1.8-0.4,2.2-1.4c0-0.1,0.1-0.4,0.1-0.5
		C378.7,701.6,379,701.6,379.1,701.7z"/>
	<path class="st101" d="M424.2,585.2c1.5,0.3,2.7,1.2,4.1,2.1c1,1.4,1.8,2.7,2.7,4.1c2.1,1.1,1.5,2.7,1,4.5c-0.3,1-0.3,1.9-0.1,2.9
		c-0.1,1.2-0.7,1.9-2.1,1.9c-1.1-0.4-2.2-1-2.7-2.2c-0.4-2.2,1-4.7-0.8-6.7c-0.5-0.5-1-1.2-1.2-1.9c-0.1-0.3-0.3-0.5-0.5-0.8
		c-3-2.3-4.9-2.3-8.8,0.1c-0.5,0.4-1.2,1-1.8,1.5c-1.1,0.5-1.9,0.4-2.3-0.8c0-0.3,0-0.7,0-1c0.5-1.6,1.9-2.6,3.4-3.3
		c0.3-0.1,0.7-0.1,1-0.3c1.9-1.1,3.8-1.1,5.9-0.5c0.3,0.1,0.7,0.3,1,0.4C423.3,585,423.8,585,424.2,585.2z"/>
	<path class="st102" d="M431,590c0.4,0.1,1,0.4,1.4,0.5c0.5-0.3,1,0.1,1.2,0.4c1,1.6,1.9,3.3,0.5,5.1c-0.3,0.3-0.5,0.4-0.8,0.5
		c-1,0.3-1.8,0.1-2.3-0.7c0.4-1.5,0.7-3.2,0.1-4.7C431,590.8,431,590.4,431,590z"/>
	<path class="st103" d="M406.7,608.7c0.8,0.7,0.8,2.1,2.1,2.2c0.1,0.3,0.1,0.5,0,0.8c-0.5,1.4-2.3,1.4-3,2.5
		c-0.1,0.3-0.3,0.4-0.5,0.7c-0.7,0.8-1,1.8-1.2,2.7c-0.4,1-1,1.6-1.9,1.9c-0.3,0-0.7,0-1-0.1c-1.1-1.4,0.1-3-0.8-4.5
		c0-0.3,0-0.5,0.1-1c0.1-0.1,0.1-0.1,0.3-0.3c0.3,0,1,0,1,0C402.2,610.9,404.8,610.3,406.7,608.7z"/>
	<path class="st104" d="M408.7,586.5c2.6,0,2.5,1.5,1.9,3.3c0.1,0.4,0.1,0.8,0.1,1.4c-0.5,1.2-0.3,2.6,0,3.8c0,0.7-0.3,1.2-0.8,1.6
		c-0.4,0-0.8,0-1.2,0c0-0.4-0.1-0.8-0.1-1.2c-0.5-1.8-0.1-3.6-0.3-5.3C408.5,588.9,408.1,587.6,408.7,586.5L408.7,586.5z"/>
	<path class="st105" d="M408.6,589.8c0,1.9,0,3.7,0,5.6c-1-1.8-1-3.6-0.5-5.5C408.2,589.5,408.3,589.4,408.6,589.8z"/>
	<path class="st106" d="M408.6,589.8c-0.1,0-0.3,0.1-0.5,0.1c-0.1-1.2-0.4-2.3,0.7-3.3C408.7,587.6,408.6,588.7,408.6,589.8z"/>
	<path class="st107" d="M408.7,611.3c0-0.1,0-0.3,0-0.4c0.4-0.3,0.8-0.5,1.2-0.8c-0.1-0.1-0.3-0.4-0.1-0.5c0.1-0.1,0.1-0.3,0.3-0.3
		c1,0.3,1.9,0,2.6-0.5c0.7,0,1.5-0.1,2.2,0.4c0.1,0.3,0.3,0.5,0.1,0.8c-0.1,0.5-0.5,1.1-1,1.5c-0.8,1.1-0.8,2.6-1.9,3.6
		c-0.3,0.1-0.5,0.1-1,0.1c-0.8-0.3-1.2-0.8-1.5-1.6C409.7,612.7,408.9,612.2,408.7,611.3z"/>
	<path class="st108" d="M410.1,609.3c0,0.3-0.1,0.5-0.1,0.7c-0.8-1.2-1.2-2.6-1.2-4.1c0.1,0,0.4,0.1,0.5,0.1
		C409.6,607.2,409.8,608.2,410.1,609.3z"/>
	<path class="st109" d="M413.3,603.5c0.3-0.7,0.4-1.4,1.4-1.5c1.1-0.1,1.9,0,2.5,1.1c0.1,0.3,0,0.5,0,1c-0.5,0.8-1.8,1-2.3,1.9
		c-0.3,0.1-0.5,0.3-0.8,0.3C413.8,605.3,413.5,604.4,413.3,603.5z"/>
	<path class="st110" d="M414.8,609.4c-0.7-0.1-1.5-0.1-1.9-0.7c0.1-1,1.6-1.2,1.2-2.5c0.1-0.1,0.1-0.4,0.3-0.5c0.4,0,0.7,0.1,1,0.4
		c0.3,0.3,0.4,0.7,0.4,1C415.9,608.1,415.6,608.9,414.8,609.4z"/>
	<path class="st111" d="M416.7,603.4c-0.7-0.4-1.6-0.5-2.1-1.4c0-0.3,0-0.4,0-0.7c0.7-1,1.8-0.7,2.7-0.4c0.3,0,0.7,0,1,0.1
		c1.2,0.3,2.6,0,3.6,1.1c0.3,0.5,0.3,1,0,1.5s-0.7,0.8-1.1,1.1C419.2,604.9,417.9,604.4,416.7,603.4z"/>
	<path class="st112" d="M410.1,596.5c0-0.7,0-1.4-0.1-2.1c-0.3-0.4-0.3-0.8-0.1-1.2c0.8-0.5,1.6-1.4,2.7-0.5
		c0.5,0.7,0.5,1.5,0.5,2.3c0,0.5-0.1,1.1-0.4,1.5s-0.8,0.7-1.4,0.7C410.9,597.1,410.5,596.8,410.1,596.5z"/>
	<path class="st113" d="M417.7,601.9c-1-0.1-2.1-0.4-3-0.5c-1,0-1.5-0.5-1.9-1.4c0.1-0.5,0.4-1,1-1.1
		C415.5,599.3,417.8,598.9,417.7,601.9z"/>
	<path class="st114" d="M413.4,599.3c-0.3,0.3-0.4,0.4-0.7,0.7c-0.7-0.7-1.1-1.6-1.4-2.6c0.3-0.3,0.4-0.5,0.7-0.8
		C413.5,597,414.1,597.8,413.4,599.3z"/>
	<path class="st100" d="M395.3,650.6c-0.3,0-0.5-0.1-0.8-0.1c-3.6-1-2.1-2.5-1-4c0-0.1,0-0.4,0-0.5c0.3,0,0.5,0,1,0
		c0.5,0.3,1.2,0.4,1.8,0.7l0,0c0.8,1.4,3.8-0.5,4,1.6C399.7,651.1,399,651.5,395.3,650.6z"/>
	<path class="st96" d="M393.2,646.4c-2.3,0-4.8,1.5-7-0.5c0.1-0.8,0.4-1.8,1.4-1.5c3,1.1,2.5-1.2,2.7-2.7c1.5-3,4.3-3.2,7.1-2.9
		c0.4,0,0.7,0.1,1.1,0.1c2.2,0.8,2.9,2.7,3.6,4.7c0.1,0.4,0.1,0.7,0.1,1.1c-0.1,0.7-0.4,1.4-1,1.9c-1.4,1.1-2.9,0.3-4.4,0.4
		C395.7,646.6,394.3,647.3,393.2,646.4z"/>
	<path class="st95" d="M391.2,642.3c-0.1,1.1,1.5,2.5,0.5,3s-2.6,1.4-3.8-0.3c-0.5-0.7-1,0.5-1.5,0.7c-1.1-0.7-2.2-1.4-2.5-2.7
		c1.8-0.8,2.9-3.3,5.3-2.1C390.5,640.4,390.6,641.8,391.2,642.3z"/>
	<path class="st115" d="M391.2,642.3c-0.7-0.4-1.4-0.8-1.9-1.4c-0.1-0.3-0.1-0.4-0.1-0.7c0.1-0.4,0.5-0.4,0.8-0.7
		c0.7-0.3,1.2-0.4,1.9-0.7c0.5-0.5,1.1-1,1.9-1.1c0.8-0.4,1.4-1.2,2.2-1.6c1.1-0.4,2.1-0.1,2.6,1c0.4,1,0.1,1.8-0.5,2.5
		C395.4,640,392.3,638.5,391.2,642.3z"/>
	<path class="st97" d="M391.9,637.7c-0.8-1.1-0.3-2.2,0-3.3c0-0.1,0-0.3,0-0.4c0.7,0,1.1,0.3,1.4,0.8c0.4,1,0.4,1.8-0.3,2.6
		C392.6,637.8,392.3,637.8,391.9,637.7z"/>
	<path class="st116" d="M389.8,639.7c-0.3,0.3-0.5,0.4-0.8,0.7c-0.5-0.3-1.2-0.4-1.8-0.7C388.2,638.5,389,639.3,389.8,639.7z"/>
	<path class="st117" d="M391.9,637.7c0.1-0.1,0.3-0.1,0.5-0.3c0.8,0,1.8-0.7,2.5,0.3c0,0.4,0.1,1-0.4,1.1c-0.8,0-1.8,0-2.6,0.1
		C391.9,638.5,391.9,638.1,391.9,637.7z"/>
	<path class="st97" d="M388.5,633.6c0.8-0.7,1.8-1.2,2.6,0C390.2,633.8,389.4,634.9,388.5,633.6z"/>
	<path class="st118" d="M392.6,667.3c0-0.3,0-0.4,0-0.7c-0.4-2.3-2.7-3.8-2.5-6.7c0.3-3.2-0.1-3.2,2.9-1.8c0.3,0.1,0.7,0,1,0
		c0.5,0.1,0.8,0.3,1.1,0.7c0.3,0.4,0.4,0.8,0.4,1.4c-0.1,1.4,0.1,2.5,1.9,1.9c0.7-0.3,1.2-0.3,1.9,0c0.4,0.3,0.8,0.7,1.2,1.6
		c-0.4-1-0.7-1.4-0.8-1.9c0-0.5,0.3-1,0.7-1.1c0.3-0.1,0.7-0.1,1-0.1c0.7,0.1,1.2,0.4,1.8,0.8c0.4,0.3,0.7,0.7,1,1.2
		c0.3,0.7,0.3,1.4,0.1,1.9c-0.3,2.2-2.2,4.7,1.1,6.3c1.5,0.8,1.8,2.1,1.4,3.6c-0.1,0.3-0.3,0.5-0.5,0.8c-4.1,3.3-7.5,7.4-11.7,10.6
		c-0.5,0.5-1.2,1-1.8,1.5c-0.3,0.1-0.5,0.3-0.8,0.3c-2.3,0.1-0.1,1.8-0.7,2.3c-2.2,4.7-3.6,9.5-3.7,14.7c0,2.9-0.1,5.8,0.8,8.5
		c0.3,0.8,0.3,1.6,0.4,2.5c0.1,0.8,0.1,1.5,0.4,2.3c1,2.2,0.1,3.6-2.1,4.3c-1.4,0.3-2.6,0-3.7-1c-1.1-1.4-1.5-2.9-1-4.7
		c0-0.3,0-0.4,0-0.7c-1.2-5.2-1.2-10.4,0.4-15.5c0.8-2.5,0.5-5.1,1.6-7.4c0.5-1.1,2.3-1.6,1.4-3.4c0.5-2.9,0.7-5.3,4-7.5
		c2.5-1.6,4.5-4.7,7.4-6.7c1.9-1.4,1.4-4.5,2.3-6.7c0.3-0.4-0.4-1.1-1-1.2c-0.7-0.1-0.7,0.5-0.7,1c-0.3,1.4-1.5,2.3-1.2,3.7
		c0.5,2.7-2.6,2.6-3.3,4.4c0,0.1-0.7,0.1-0.8-0.1c-0.7-0.8,0-1.5,0.4-2.1C394.9,671.8,393.8,669.5,392.6,667.3z"/>
	<path class="st99" d="M384.5,692.8c0.3,2.6-0.3,5.1-1.1,7.5c-1.4,4.4-1.2,8.8-0.4,13.2c0.1,0.8,1,1.8-0.5,2.2
		c-2.2-2.3-2.2-5.5-1.8-8.1c1-5.1,1.9-10,3-15.1c0-0.3,0.3-0.8,0.3-0.8C384.6,692,384.3,692.5,384.5,692.8z"/>
	<path class="st99" d="M382.4,716.4c0.4,1.4,1,2.6,1.4,4c-0.1,0.8-0.5,1.4-1.5,1.2c-0.4-0.4-0.8-0.8-1.2-1.2
		C382,719.2,380.1,717.1,382.4,716.4z"/>
	<path class="st119" d="M389.4,676.7c0.4,0.5,1.9,0,1.6,1.2c-0.4,1.6-2.1,1.8-3.3,2.5c-0.3,0.1-1.1,0.7-1.1-0.3
		c0-0.3,0.3-0.5,0.4-0.8c0-1.1,1-1.5,1.5-2.2C388.9,676.9,389.1,676.7,389.4,676.7z"/>
	<path class="st83" d="M389.1,677.3c-0.3,1.1-1.5,1.1-1.9,1.9c-0.4,0-0.8,0.1-1.2,0.1c0.4-0.7,1-1.2,1.4-1.9l0,0
		C387.8,676.5,388.5,676.1,389.1,677.3z"/>
	<path class="st85" d="M389.1,677.3c-0.7-0.4-1.2-0.3-1.8,0.1c0.1-1.4,1.1-1.4,2.2-1.2c0,0.3,0,0.4,0.1,0.5
		C389.3,676.9,389.1,677.2,389.1,677.3z"/>
	<path class="st120" d="M394.2,658.4c-1.1,0.5-0.5,2.1-1.6,2.7c-1.2-0.8,0-2.5-1.5-3.4c0.3,2.3-0.1,4.5,1.4,6.4
		c0.5,0.7,1.1,1.5,0.3,2.3c-0.4-0.5-0.5-1.2-1.4-1.2c-0.7,0-1.1-0.4-1.4-1c-1.4-4.3-1.2-8.2,1.5-11.9c0.3-0.4,0.5-0.8,0.7-1.2
		c1.1-1.4,2.5-2.2,4.3-1.1c0.7,1.6,0.5,3.4,1.2,4.9c0,0.5-0.1,1-0.3,1.4C396.4,657.6,395,657.6,394.2,658.4z"/>
	<path class="st121" d="M429.4,599.8c1.4-0.1,1.5-1.1,1.4-2.1c0.1-0.1,0.1-0.3,0.3-0.3c0.5-0.4,1.4-0.4,1.9-1
		c0.3-0.1,0.4-0.4,0.7-0.5l0,0c0.3-0.3,0.5-0.4,0.8-0.7c1.6-1,2.9-0.5,4,0.8c0.5,1.4,0.8,2.7-1.4,2.7c-0.8-0.3-1.5-0.3-1.9,0.7
		c-1,1.2-1.1,2.9-2.1,4.1c-1,1-1.9,1.4-3.3,1.1c0.1,1.2,0.7,2.5-0.7,3.3c-0.3,0.1-0.7,0.3-1,0.3c-3.8-0.4-4.4-1.4-2.6-4.8
		c0.3-0.5,0.4-1,0.5-1.5C426.8,600.7,427.5,599.4,429.4,599.8z"/>
	<path class="st122" d="M429.4,599.8c-1.1,0.4-1.8,1.4-2.6,2.2c-0.4,0.4-0.7,0.8-1.4,0.7c-0.1-0.1-0.3-0.3-0.4-0.4
		c-0.4-0.4-0.7,0.1-1.1,0.3c-0.3,0.1-0.5,0.1-0.8,0.3c-0.7,0-1.2-0.4-1.8-0.8c-1.2,0.3-2.3,0.1-3.4-0.3c0-0.8,0.5-1.2,1.2-1.4
		c2.6-0.5,4.9-1.8,7.4-2.9c0.3,0,0.7,0.1,1,0.3C428.1,598.7,429.6,598.5,429.4,599.8z"/>
	<path class="st123" d="M414.8,588.5c3.7-3.4,7.8-3.4,10.7,0c-0.8,0.5-1.8,0.3-2.7,0.1c-1.9-0.7-4-0.7-5.9,0.3
		c-0.3,0.1-0.5,0.1-1,0.3C415.5,589.1,415,589,414.8,588.5z"/>
	<path class="st123" d="M412,592.6c-0.5,0.5-1.1,1.2-2.1,0.7c-0.5-0.8-0.4-1.8,0-2.7c0.3-0.3,0.4-0.5,0.7-0.7
		c0.4-0.3,0.8-0.4,1.4-0.7c0.1,1,0.7,1.1,1.4,0.7c0.4,0.4,0.5,0.8,0.5,1.4C413.5,592.2,413.3,593,412,592.6z"/>
	<path class="st123" d="M416.8,584.6c1.8,0,3.7-0.7,5.3,0.5c-2.3,0.3-4.5,0.4-6.9,0.7C415.9,585.4,416.4,585,416.8,584.6z"/>
	<path class="st124" d="M413.3,591.2c0.1-0.4,0.1-0.8,0.3-1.2c0.4-0.4,1-1,1.4-1.4c0.4,0,0.8-0.1,1.2-0.1
		C416.4,590.6,415.5,591.6,413.3,591.2z"/>
	<path class="st123" d="M412,589.1c0-2.2,1.2-3.3,3.4-3.4C414.2,586.8,413.1,588,412,589.1z"/>
	<path class="st125" d="M433.7,596c0,0.3,0,0.4,0,0.7c-0.8,0.8-1.8,1-2.7,1.2l0,0c-0.8-0.7-0.7-1.2,0-1.9
		C431.8,595.9,432.7,595.9,433.7,596z"/>
	<path class="st126" d="M426.8,590.6c-0.1,1-0.7,1-1.2,0.5c-0.3-0.1-0.4-0.4-0.5-0.8c0-0.3,0-0.7,0.1-1c0.1-0.1,0.3-0.3,0.4-0.3
		C426,589.7,426.4,590.1,426.8,590.6z"/>
	<path class="st126" d="M423,587.6c1.1-0.3,1.8,0.5,2.6,1c0,0.1,0,0.4,0,0.5c-0.1,0.1-0.1,0.1-0.3,0.3c-1.1,0.5-2.1,0.1-2.6-0.8
		C422.6,588.2,422.7,587.9,423,587.6z"/>
	<path class="st103" d="M443.8,591.1c1.1,0.1,1.6-0.8,2.5-1.2c1.2,0.1,2.7,0,1.1,1.8c-0.1,0.3,0.3,1,0.3,1.5
		c0.3,1.6,1.1,3.3-0.5,4.7c-0.5,0.1-1.1,0.1-1.5,0c-1.9-1.1,0.5-3.4-1.2-4.4c-0.4-0.7-1-1.2-0.7-2.1
		C443.7,591.2,443.8,591.1,443.8,591.1z"/>
	<path class="st78" d="M402,619.4c0.4-0.7,0.7-1.4,1.1-2.1c2.7,0.4,1.2-1.4,1.2-2.5c0-0.3,0.1-0.7,0.3-1l0,0c3.2-1,3.2,1.1,3.3,3.2
		c-1.5,2.1-0.3,4.7-1.5,6.9c-0.1,0.3,1,0.1,1.2,0.7c0.1,2.7,1,5.1,3.6,6.4c0.5,0.3,0.5,1.1,0.7,1.8c0.4,2.3,0.3,4.8,1.9,6.7
		c0.7-0.7-0.1-1.4,0-2.1c0.1-0.8,0.1-1.8,0.3-2.6c0.1-0.8,0.8-1.5,0.5-2.5c0-0.4,0-0.8-0.1-1.2c-0.1-0.7-0.1-1.2,0.3-1.8
		c1-1.1,1.9-1,2.9,0c0.3,0.4,0.3,0.8,0.3,1.4c-0.1,0.7,0,1.4,0.4,1.9c0.3,0.5,0.7,1.2,1,1.8c0.3,1,1.2,1,1.9,1.4
		c0.5,0.5,1.2,1,1.5,1.8c0,0.3,0,0.7,0,1c-1.1,1.9-2.9,3.4-4.3,5.2c-0.8,0.7-0.8,1.8-1.2,2.7c-1.8,2.5-4.4,1.2-6.7,1.8
		c-2.7-1.1-3-3.8-4-6.2c-0.3-1.4,0-2.9-0.7-4.3c-0.4-0.8-1.1-1.5-1.5-2.3c-0.3-1.9-1.8-3.3-2.7-4.8c0-1.1-1.2-1.8-1.2-2.9
		C400.7,624.9,399.4,621.8,402,619.4z"/>
	<path class="st127" d="M406.7,618.1c-0.3-1.6,0.8-4-2.1-4.1c1-1.5,2.7-1.8,4.1-2.6c0.7,0.5,2.7-1.1,2.1,1.4c-2.1,2.5,1,2.1,1.8,3
		c0.8,1.8,0.1,3.2-1.6,3.7C409.3,620,407.6,620.3,406.7,618.1z"/>
	<path class="st128" d="M404.6,614.1c0.1,1.4,2.1,3.7-1.5,3.3C403.7,616.3,403.4,614.8,404.6,614.1z"/>
	<path class="st105" d="M410,590.5c0,1,0,1.8,0,2.7c0,0.4,0,1,0,1.4C408.9,593.2,409.2,591.9,410,590.5z"/>
	<path class="st129" d="M406.7,618.1c1.6,0.8,3.2,1.1,4.7-0.1c1-0.8,0.8-1.8,0-2.6c0-0.1,0-0.3,0-0.4c0.1-0.1,0.4-0.1,0.5-0.1
		c1.8-1,0.7-2.9,1.4-4.1c0.4-0.1,1-0.4,1.4-0.5c0.4-0.4,0.8-0.8,1.5-1c2.2,0.3,4.7-1,6.7,1c0.3,0.8-0.1,1.4-0.8,1.9
		c-0.4,0.3-1,0.4-1.4,0.4c-1,0-1.9-0.3-2.9,0.4c-0.1,0.1-0.4,0.4-0.5,0.5s-0.4,0.3-0.5,0.4c-0.4,0.4-0.8,1-0.8,1.6
		c0.1,1.2,0.8,0,1.1,0.1c1-0.1,1.9-0.3,2.7,0c0.8,0.4,1.4,1,1.6,1.8c0.1,1-0.3,1.6-0.7,2.5c-1,1.2-2.3,1-3.7,1c-1,0-1.6,0.3-1.9,1.4
		c-0.3,1.1-1.1,1.6-2.2,1.8c-0.7,0-1.2-0.3-1.9-0.4c-2.1-0.4-2.1-0.4-2.7,1.2c-0.3,0.1-0.5,0.1-0.8,0c-1.2,0-2.6,0.3-1.6-1.9
		C406.5,621.5,403.9,619.3,406.7,618.1z"/>
	<path class="st130" d="M416.1,610.1c-0.4,0-1,0-1.4,0c0-0.3,0-0.4,0-0.7c0-1,0-1.8,0-2.7c1-1,1.9-0.8,3.2-0.5
		c1.2,0.3,2.6,0.7,3.8-0.4c0.4-0.7,0.4-1.6,1.2-2.3c1.2-0.7,1.8-0.1,1.9,1.1c-0.3,1-0.4,1.9-0.1,3c0.4,1.9,0.1,2.9-2.3,2.3
		C420.4,609.3,418.2,609.3,416.1,610.1z"/>
	<path class="st128" d="M413.4,610.5c1.5,1.8-0.3,3.7,0.3,5.5c-1.2,0.1-1-1.1-1.6-1.4C412.7,613.4,411.8,611.6,413.4,610.5z"/>
	<path class="st131" d="M411.5,614.9c0,0.1,0,0.3,0,0.4c-0.5,0.1-1.1,1.8-1.6,0.7c-0.5-1-1.1-2.7,1.1-3.2
		C410.8,613.5,410.5,614.4,411.5,614.9z"/>
	<path class="st132" d="M414.6,606.1c-0.1-0.1-0.3-0.3-0.4-0.4c-0.5-2.9,1.5-1.5,2.6-1.6c1.5-0.8,2.6,0.3,4,0.7
		c-0.1,2.1-1.6,1.8-2.9,1.5C416.8,605.7,415.7,605.6,414.6,606.1z"/>
	<path class="st133" d="M420.8,604.6c-1.4-0.3-2.6-0.4-4-0.7c0-0.1-0.1-0.4-0.1-0.5c1.4-0.3,2.7,0.3,4,0.5c0.1,0.1,0.1,0.1,0.3,0.3
		C420.9,604.4,420.8,604.5,420.8,604.6z"/>
	<path class="st134" d="M414.6,606.1c0.5-1.8,1.8-1.5,3.2-1.2c1.1,0.3,2.1,0.7,3-0.3l0,0c1.4-0.5,1.6,0.7,2.2,1.4
		c-0.3,1.2-0.8,1.9-2.3,1.6c-1.9-0.4-3.8-0.7-5.8-1C414.8,606.5,414.8,606.3,414.6,606.1z"/>
	<path class="st135" d="M426.7,597.2c0,0.3,0.1,0.4,0.1,0.7c-2.2,2.9-6,2.5-8.9,3.8c-0.1,0-0.3,0-0.4,0.1c-0.8-1.9-2.9-1.5-4.3-2.6
		c-0.5-1-1-1.8-1.5-2.7c0-0.4,0-1,0.1-1.4c1.6-0.7,2.1,0.8,2.7,1.6c0.4,0.4,1,0.7,1.5,0.8c1.8,0.4,3.4,0.8,5.1-0.1
		c1.2-0.3,2.3-0.7,3.6-0.7C425.6,597,426.2,596.8,426.7,597.2z"/>
	<path class="st136" d="M422.9,606c-0.7-0.4-1.4-1-2.2-1.4c0-0.3,0-0.4,0-0.5c0.3-0.1,0.5-0.4,0.8-0.5c0.1,0,0.3,0,0.4,0
		c0.4,0.1,0.8,0.3,1,0.8C422.9,604.8,423.4,605.5,422.9,606z"/>
	<path class="st133" d="M421.5,602c0.7,0,1.2,0,1.9-0.1c0.4,1.8-0.8,1.5-1.9,1.5l0.1-0.3C421.5,603,421.5,602.6,421.5,602z"/>
	<path class="st137" d="M414.1,597.9c-0.8-0.8-0.8-2.2-2.1-2.7c0-1,0-1.8,0-2.7c0.4-0.4,0.8-1,1.1-1.4c1.4-0.4,2.3-1.4,2.7-2.7l0,0
		c2.3-0.5,4.7-1.9,7,0c0.8,0.3,1.6,0.7,2.3,1c0.1,0.4,0.1,0.8,0.3,1.2c-1,1-2.2,0.4-3.3,0.3c-1.5-0.1-3-0.1-4.4,0.7
		c-0.4,0.3-0.8,0.4-1.2,0.5c-0.7,0.3-1.4,0.5-1.5,1.4c-0.4,0.8,0,1.6,0,2.5C415,596.8,414.9,597.5,414.1,597.9z"/>
	<path class="st138" d="M401.3,644.4c-0.1-0.1-0.1-0.3-0.1-0.5c-0.3-0.5-0.3-1.2-0.3-1.8c0.8-1.2,2.7-1.1,3.3-2.7
		c0.5-0.5,1.1-1.2,2.1-1.2c0.4,0,0.5,0.3,0.7,0.7c0,1.4,0.3,2.7-0.1,4.1c-0.5,0.7-1.2,1.2-1.9,1.8
		C403.7,644.9,402.6,645.5,401.3,644.4z"/>
	<path class="st139" d="M396.8,647c-0.1-0.4-0.1-0.8-0.3-1.2c1.4-0.7,2.7,1,4.1,0.3c0.4,0.4,0.5,0.8,0.4,1.2
		c-0.3,0.8-0.3,1.5-0.8,2.2c-0.5,0.4-1.1,0.7-1.8,0.7C397.2,649.5,397.4,648,396.8,647z"/>
	<path class="st140" d="M400.7,647c0-0.4,0.1-0.7,0.1-1.1c0.7-0.4,0.5-1,0.5-1.6c1.1-0.3,2.2-0.4,3.3-0.7c0.3,0.3,0.4,0.5,0.4,0.8
		c-0.4,1.5-1.5,2.6-3,3C401.5,647.5,401.1,647.5,400.7,647z"/>
	<path class="st141" d="M395.9,650.6c-1.5-1.2-2.6,0.7-3.8,0.7c-0.3-0.8,0.4-1.5,0.7-2.1c0.8,0.5,1.6-0.1,2.5-0.1
		c0.7-0.4,1,0,1.1,0.5C396.3,650,396.1,650.3,395.9,650.6z"/>
	<path class="st142" d="M396,649.7c-0.3-0.3-0.5-0.4-0.8-0.7c0.5-0.7,1.1-1.4,1.6-2.1c1.1,0.5,1.5,1.8,1.8,2.9
		c0.5,0.1,0.8,0.4,0.8,1c-0.3,0.7-0.8,1-1.5,1C396.8,651.7,396.7,650.4,396,649.7z"/>
	<path class="st143" d="M394.5,636.3c0,0.4,0,0.8,0,1.4c-0.7,0.4-1.5,0.8-2.2-0.1c0.1-0.8,0.1-1.6,0.3-2.5c0.4,0,0.8,0,1.4,0
		C394.1,635.3,394.3,635.9,394.5,636.3z"/>
	<path class="st144" d="M404.8,671.3c-1.4-0.1-1.8-1.2-2.1-2.3c-0.4-1.8-1-3.2,0.7-4.5c0.4-0.4,0.8-1,1.4-1.2
		c1.4-0.8,1.9-1.8,0.3-2.9c-0.3-0.1-0.4-0.4-0.7-0.5c-0.4-0.7-0.5-1.4-0.7-2.2c-0.7-1.4-1.6-2.9-0.3-4.4c1.4-0.8,1.8-3,4-2.9
		c1.1,0.4,2.2,0.3,3.3,0.7c1.8,1,0.7,3.3,2.2,4.4c0.5,1.9,3.2,1.2,3.7,3c0.1,0.3,0.1,0.7,0,1c-1.5,1.6-1.8,2.2-2.6,6.2
		c-0.1,0.4-0.4,1.1-0.5,1.1c-2.9-1.1-2.9,2.6-4.9,2.7C406.7,669.1,405.7,670.2,404.8,671.3z"/>
	<path class="st145" d="M393.7,685.4c4-3.6,7.8-7,11.8-10.6c0.5,0.5,0.7,1.1,0.7,1.8c-0.3,1.4-1.1,2.3-2.2,3.2
		c-0.7,0.4-1.5,1-1.8,1.8c-0.8,1.1-1.9,1.9-3.2,2.7c-1.4,0.7-1.9,2.5-3.6,2.9c-0.3,0-0.7,0-1-0.1
		C393.8,686.6,393.7,686.1,393.7,685.4z"/>
	<path class="st146" d="M404.8,671.3c-0.1-2.5-0.1-4.5,3.2-2.6c1,0.5,1.9,0,2.9,0.1c2.2,0.1,4.5,0.3,4.8,3.3c-0.3,0.5-0.8,0.8-1.4,1
		c-0.7,0.1-1.4,0.1-2.1,0c-1.4-0.3-2.9-2.2-4.3-0.1c-0.5,0.8-0.4,2.3-2.2,1.8C406.3,673.2,406,672.1,404.8,671.3z"/>
	<path class="st147" d="M386.5,704.3c0-5.3,1.1-10.3,4-14.8c0.4-0.7-0.4-2.3,1.5-2.1c1.4,1.6,0.5,3.2-0.3,4.5
		c-1.2,1.9-1.9,3.8-1.9,6.2c0,0.7-0.3,1.4-0.4,2.1c-0.1,0.7-0.5,1.2-0.7,1.9C388,702.8,388.3,704.4,386.5,704.3z"/>
	<path class="st148" d="M388.6,698.4c-0.4-2.5,0.7-4.5,1.9-6.6c0.8-1.4,1.4-2.7,1.4-4.4c-0.3-0.1-0.3-0.3-0.1-0.4s0.1-0.1,0.3-0.1
		c0.1,0,0.3-0.1,0.5-0.1c0.7-0.1,1.2,0,1.8,0.7c0.5,1,0.1,1.9,0,2.9c-0.1,0.7-0.5,1.1-0.8,1.6c-0.5,1.1-1.9,1.6-1.9,3
		C390.8,696.2,390.6,698.1,388.6,698.4z"/>
	<path class="st149" d="M386.5,704.3c0.4-1,0.8-1.9,1.2-2.7c1.4,1.1,1.5,2.6,1.2,4.3c-0.3,1.9-0.1,3.7-0.1,5.6c0,1-0.1,1.8-1.1,2.3
		C385.7,710.9,386.8,707.5,386.5,704.3z"/>
	<path class="st120" d="M399.3,662.6c-1.4,0-2.2,1.6-3.7,0.8c-1.1-0.7-2.2-1.4-1.1-2.9c1.4-0.3,2.7-0.7,4.1,0.1
		c0.4,0.4,0.7,0.8,0.8,1.4C399.4,662.2,399.3,662.4,399.3,662.6z"/>
	<path class="st150" d="M398.6,661.1c-1.4,0.1-2.7,0.1-4-0.5c0-0.4,0.1-1,0.1-1.4c0.3-0.4,0.7-0.7,1.1-0.7c1.4-0.1,2.7-0.3,4-0.4
		c0.3,0,0.5,0.1,0.8,0.4s0.4,0.5,0.4,0.8c0,0.7-0.3,1.2-0.8,1.5C399.7,661,399.1,661.3,398.6,661.1z"/>
	<path class="st151" d="M389.8,719.1c0,1.9-1.2,2.2-2.7,1.9c1-0.7,2.1-1.2,1-2.7c-0.5-1-0.5-2.1-0.4-3.2c0.3-0.3,0.5-0.4,0.8-0.3
		c0.8,0.4,1,1.2,1.4,1.9C390.2,717.6,390.4,718.4,389.8,719.1z"/>
	<path class="st152" d="M405.9,674.6c1.4-0.8,0.8-2.2,1-3.3c0.4-0.3,0.8-0.3,1.4-0.1c0.8,1.1,0.8,2.3,0.5,3.7
		c-0.1,0.5-0.4,0.8-0.8,1.2c-0.7,0.7-1.5,1.5-2.6,0.5c0-0.5,0.1-1.2,0.1-1.8C405.5,674.7,405.6,674.6,405.9,674.6z"/>
	<path class="st153" d="M400,661.8c1.5,2.6,1.5,2.6-0.8,3.7c-0.3-1.1,1.1-2.1,0.1-3l0,0C399.6,662.2,399.6,661.8,400,661.8z"/>
	<path class="st154" d="M392,686.9c0,0.1,0,0.4-0.1,0.5c-0.4,0.7-1,1.4-1.4,2.1c-0.5-1-1.6-1.8-1.1-3.4
		C390.2,686.3,391.2,686.6,392,686.9z"/>
	<path class="st155" d="M403.3,662.6c-0.3-0.3-0.4-0.4-0.7-0.7c-0.3-0.3-0.3-0.5-0.3-1c0.5-0.8,1.1-1.8,2.3-1.2h0.1
		c1.9,1.2,1.9,2.3-0.1,3.3C404.2,663.2,403.7,662.9,403.3,662.6z"/>
	<path class="st156" d="M395.9,659.1c-0.4,0-0.8,0-1.1,0c-0.1-0.3-0.4-0.5-0.5-0.8c-0.1-1.6,1.1-1.9,2.5-2.1
		C397.5,657.6,397.1,658.5,395.9,659.1z"/>
	<path class="st157" d="M394.2,687.6c-0.5-0.3-1.1-0.5-1.6-0.8c0.1-0.7,0.5-1.1,1.1-1.4c0.5,0.4,0.8,1,1,1.6
		C394.6,687.3,394.5,687.4,394.2,687.6z"/>
	<path class="st158" d="M403.3,662.6c0.4,0,1,0,1.4-0.1c0.4,0.5,0.5,1,0.1,1.6c-0.4,0.7-1,0.5-1.5,0.4
		C403.4,663.9,403.3,663.2,403.3,662.6z"/>
	<path class="st159" d="M400,661.8c-0.3,0.3-0.5,0.4-0.7,0.7c-0.3-0.5-0.5-1-0.7-1.5c0.3-0.7,1-0.4,1.4-0.5c0.5-0.1,1,0,0.5,0.7
		C400.4,661.4,400.2,661.7,400,661.8z"/>
	<path class="st160" d="M402.7,661.1c0,0.3-0.1,0.5-0.1,0.8c-0.4-0.3-1-0.5-1.4-0.7c-0.5-0.7-0.4-1.2,0.4-1.6c0.4-0.1,0.7,0,1,0.1
		C403.1,660.2,403.1,660.7,402.7,661.1z"/>
	<path class="st161" d="M402,659.9c-0.3,0.4-0.5,0.8-0.7,1.4c-0.3,0-0.5,0-0.8,0c-0.1-0.3-0.4-0.5-0.5-0.7c0.3-0.4,0.4-1,0.7-1.4
		C401.5,658.8,402,658.8,402,659.9z"/>
	<path class="st85" d="M395.9,659.1c0.3-1,0.5-1.8,0.7-2.7c0-0.4,0-0.8,0.1-1.2c0.4-0.4,0.8-0.4,1.4-0.1c1.1,1,1.8,2.2,1.9,3.7
		C398.6,659.2,397.4,660,395.9,659.1z"/>
	<path class="st162" d="M398,655.2c-0.4,0-0.8,0-1.4,0c-1.2-1.4-1.5-2.9-0.8-4.5c0-0.3,0-0.5,0-0.8c1,0,1.4,1,2.2,1.4
		c0.1,0.3,0.3,0.5,0.4,0.8c-0.1,1,0.1,1.9-0.1,3C398.2,654.9,398,655.1,398,655.2z"/>
	<path class="st116" d="M403.9,635.1c-0.3-0.3-0.4-0.5-0.7-0.7c-0.1-1.5-1.5-2.2-2.1-3.3c0.3-0.4,0.5-0.4,0.8-0.1
		c1.1,1.4,2.2,2.7,3.2,4.1C404.9,635.3,404.5,635.3,403.9,635.1z"/>
	<path class="st115" d="M400.7,629.6c0-0.4,0-0.8,0-1.2c0.3,0,0.4,0,0.7,0c0.3,0.8,0.5,1.8,0.8,2.6c-0.3,0-0.5,0.1-0.8,0.1
		C401.1,630.5,400.9,630,400.7,629.6z"/>
	<path class="st163" d="M445.1,592.6c2.2,1.6,2.7,3.2-0.1,4.7c-1.9,1.2-3.7,2.6-5.1,4.5c-0.5,0.5-1.1,1.1-1.6,1.6
		c-0.4,0.3-0.8,0.4-1.2,0.5c-0.8,0-1.5-0.3-2.1-0.8c-0.3-0.5-0.1-1.1,0.1-1.6c0.3-0.4,0.4-1,0.4-1.4c0.1-1,1-1.4,1.6-1.9
		c2.2,0.5,0.7-0.8,0.7-1.4C438.2,592.8,440.7,591.5,445.1,592.6z"/>
	<path class="st164" d="M435.6,600.7c0,0.1,0.1,0.3,0.1,0.4l-0.1,0.1c-1.8,2.6-2.6,5.9-5.3,7.7c-1-0.1-1.6-0.4-1.4-1.6
		c-0.1-1.8-0.3-3.7,1-5.2c0.8,0.4-0.1,1.8,1,1.8c0.8,0,1.4-0.8,1.6-1.5c0.7-1.2,1.2-2.6,1.8-4C435.2,599,435.2,600,435.6,600.7z"/>
	<path class="st165" d="M445.1,592.6c-3.3,0-5.8,1.4-7.4,4.1c-0.8-1.2-2.1-1-3.3-0.7c2.3-3,5.2-5.1,9.3-4.7
		C444.1,591.7,444.7,592.2,445.1,592.6z"/>
	<path class="st164" d="M423.7,607.2c0.1-0.8,0.4-1.6,0.5-2.5c0.4-0.7,0-1.9,1.4-2.1c0.4-0.1,0.8-0.4,1.2-0.5
		c-0.1,0.7-0.1,1.4-0.5,1.8c-2.5,2.9-0.7,3.3,1.9,3.4c0.3,0.8,1.4,1.4,0.8,2.3c-0.7,1.2-1.8,0.3-2.6,0.1
		C424.9,609.6,424.2,608.6,423.7,607.2z"/>
	<path class="st166" d="M426.7,608.7c0.5,0.3,1.4,0.8,1.6,0.5c0.7-0.5-0.3-1.2-0.1-2.1c0.1,0,0.4,0,0.5,0c0.4,0.4,1,0.8,1.4,1.2
		c0.7-1,1.4-1.5,2.6-0.8c0.3,0.3,0.4,0.5,0.3,1c-0.5,1.4-1.8,1.6-2.9,2.3C428.2,611.8,426.4,611.8,426.7,608.7z"/>
	<path class="st167" d="M435.6,600.7c-1.2-0.1-1.4-1.1-1.4-2.1c0.7-1.2,1.4-1.9,2.7-0.7C437.1,599.1,436.4,599.8,435.6,600.7z"/>
	<path class="st164" d="M430.8,597.8c0.5-1.1,1.8-1,2.7-1.2C433.3,598.2,432.3,598.5,430.8,597.8z"/>
	<path class="st168" d="M425.6,602.7c-0.4,0.7-0.8,1.4-1.4,2.1c-0.3-0.7-0.5-1.4-1.5-0.5c-0.5-0.1-1.1,0-1.4-0.7
		c0.8-0.3,1.8-0.4,1.9-1.5c0.3,0,0.5,0,0.8,0c0.4-0.4,1-0.4,1.4,0C425.6,602.3,425.6,602.4,425.6,602.7z"/>
	<path class="st169" d="M425.6,602c-0.4,0-0.8,0-1.4,0c0.3-1.2,1.1-1.8,2.3-2.1C426.7,600.9,425.7,601.3,425.6,602z"/>
	<path class="st124" d="M423,588.5c-2.3-1.2-4.7,0-7,0c2.2-1.4,4.4-2.2,6.9-0.7C423,587.9,423,588.2,423,588.5z"/>
	<path class="st170" d="M439,601.3c0.8-1.9,2.9-2.7,4-4.3c0.7-1,1.4-0.1,1.9,0.1c0.5,0.1,1.1,0.1,1.5,0.3c0,0.1-0.1,0.3-0.1,0.5
		c-0.5,0.7-1.2,1.1-1.9,1.8c-1.2,1.2-2.5,2.3-4.1,3C439.2,603,438.4,602.8,439,601.3z"/>
	<path class="st127" d="M443.8,598.7c0.7-1.1,1.6-0.8,2.6-0.8c0,1.1,0,2.2,0,3.3c0.4,0.5,0.5,1.2,0.1,1.9c-0.7,0.5-1.2,0.3-1.8-0.1
		C443.6,601.9,444.8,600,443.8,598.7z"/>
	<path class="st171" d="M416.8,630.3c0.4-0.1,0.5-0.3,0.4-0.7c-0.1-0.3-0.3-0.7-0.1-1c0.7-1.4,2.1-1.8,3.4-1.9
		c1.2,0.3,2.5,0.1,3.6,0.4c2.1,0.8,2.5,2.6,2.3,4.7c0.1,1.9-0.4,3.4-2.1,4.5c-1.8,1.1-3.3-0.5-4.9-0.5c-0.5,0-1.1-0.3-1.4-0.8
		c-0.3-0.7-0.5-1.2-0.8-1.9C417.2,632.1,415.9,631.4,416.8,630.3z"/>
	<path class="st128" d="M407.4,624.9c0.3,0,0.4,0,0.7,0c0.1,0,0.3,0.1,0.4,0.1c1.4,2.3,3.8,1.1,5.8,1.8c0.7,0.5,1,1.2,0.8,2.1
		c-0.3,0.5-1.1,0.8-1,1.6c0.1,0.3,0.3,0.4,0.3,0.7c0.3,0.5,0.7,0.8,1,1.2c0.4,0.8,0.8,1.8-0.7,2.1c-0.4,0.3-0.8,0.3-1.2,0.3
		c-0.3-0.1-0.5-0.3-0.8-0.4c-0.5-0.4-1.4-0.7-1.9-1.1c0.1-1.1-0.5-1.1-1.5-1.4C406.7,630.4,406.1,627.9,407.4,624.9z"/>
	<path class="st172" d="M414.8,628.9c-0.3-0.7-0.4-1.4-0.7-2.1v-0.3c0-0.3-0.1-0.3-0.4-0.3c-0.3-0.1-0.4-0.3-0.5-0.4
		c-0.1-0.8-2.1-1.2-0.4-2.3c1.9-0.8,0.8-4.5,4.1-4c2.2,1.5,2.7,3.2,0.5,5.1c0.3,0.7,1.2,0.3,1.5,0.8c0.1,0.3,0.3,0.5,0.3,0.8
		c-0.3,1.1-1.4,1.8-1.8,2.7c0,0.3-0.1,0.4-0.1,0.7c-0.8-0.1-1.6-0.5-2.6,0c-0.1-0.1-0.1-0.3-0.3-0.3
		C414.6,629.2,414.6,629,414.8,628.9z"/>
	<path class="st173" d="M417.5,643c1.6-1.5,2.6-3.7,4.8-4.7c0.7,0.1,1.1,0.5,1.2,1.2c0,0.3,0,0.7-0.1,1c-0.3,0.5-0.7,1.1-1.1,1.5
		c-1.1,1-1.6,2.2-2.1,3.4c-1.6,1.8-3,3.7-5.5,4.1c-1.4,0.3-2.7,0.3-3.7-0.8c-0.3-0.3-0.3-0.7,0.1-1c0.7-0.7,0.5-3,2.6-1.1
		c1.1,1.1,2.2-0.5,3.3-1C417.1,644.8,417,643.8,417.5,643z"/>
	<path class="st174" d="M410.8,632.9c1.1-0.7,2.1-0.7,2.7,0.7c-0.1,0.1-0.3,0.3-0.4,0.4c0.1-0.1,0.3-0.3,0.4-0.4
		c0.4,0.3,1,0.4,1.4,0.7c0,1.1,0,2.2,0,3.4c-0.8,0.8,0.1,1.9-0.7,2.7c-0.7,0.4-0.5,1.9-1.8,1.8c-1.2-0.3-0.7-1.5-0.7-2.3
		C411.8,637.4,410.3,635.3,410.8,632.9z"/>
	<path class="st175" d="M405.9,642.5c1-1.2,0.7-2.7,0.7-4.3c-0.3-0.5-0.3-1,0.1-1.4c1.2,1.5,0.4,3.2,0.7,4.8
		c0.3,1.8,1.1,3.3,1.2,5.1c-0.1,0.5-0.5,1-1.1,1.2c-0.4,0.1-0.7,0-1.1-0.1c-1.1-0.8-1.5-2.1-1.2-3.4
		C405.3,643.8,405.6,643.2,405.9,642.5z"/>
	<path class="st176" d="M423,639.9c-0.3-0.5-0.5-1-0.8-1.5c0-0.1,0.1-0.4,0.1-0.7c1.4-1.6,3.6-1.1,5.1-2.1c0.5,0,1,0,1.5,0.4
		c0.8,1.5-0.4,2.1-1.2,2.7c-0.4,0.3-0.8,0.4-1.2,0.5c-0.4,0.1-0.8,0.4-1.2,0.5C424.4,640.3,423.7,640.4,423,639.9z"/>
	<path class="st68" d="M427.7,636.4c-1.5,1.4-3.6,1.1-5.3,1.2c-0.5-0.4-1-1-1.5-1.4c0.1-0.1,0.3-0.3,0.3-0.3c0.8-0.1,1.5,0,2.3,0
		c1.1,0.3,1.8-0.7,2.6-1.1C427.4,634.5,428.2,634.8,427.7,636.4z"/>
	<path class="st177" d="M408.1,647.1c-0.3-1.8-0.4-3.6-0.7-5.3c1.2,1.9,1.4,4.7,3.6,6c-0.1,0.1-0.3,0.1-0.4,0.1
		C409.4,648.5,408.3,648.8,408.1,647.1z"/>
	<path class="st115" d="M406.7,637c0,0.4-0.1,1-0.1,1.4c-0.1,0-0.4,0-0.5,0c-0.7-1.1-1.4-2.2-2.1-3.3c0.4,0,1,0,1.4,0
		C405.7,635.6,406.3,636.3,406.7,637z"/>
	<path class="st68" d="M417.5,643c0,1,0.8,2.1-0.7,2.7C415.9,644.5,416.8,643.8,417.5,643z"/>
	<path class="st128" d="M414.1,640.3c0-1-0.1-1.9,0.7-2.7C414,638.4,417,640.1,414.1,640.3z"/>
	<path class="st68" d="M418.2,634.8c0.4,0,0.8,0.1,1.4,0.1c0.3,0.7,1.6,0.1,1.4,1.4v0.1C419.7,636.3,418.5,636.4,418.2,634.8z"/>
	<path class="st178" d="M415.5,632.2c-1,0-1.8-0.1-2.1-1.4c0.7-0.7,1.4-0.5,2.1,0C415.5,631.4,415.5,631.8,415.5,632.2z"/>
	<path class="st128" d="M415.5,631c-0.7,0-1.4,0-2.1,0l0,0c-0.5-1.4-0.1-1.9,1.4-1.4l0,0C415,630,415.2,630.5,415.5,631z"/>
	<path class="st128" d="M416.8,630.3c-0.4,1,0.5,1.8,0.4,2.6C416.4,632.2,415.7,631.4,416.8,630.3z"/>
	<path class="st172" d="M427.7,636.4c-0.1-0.7-0.3-1-1.1-0.5c-1,0.5-1.9,1.2-3,0.5c-0.1-0.5,0.4-0.5,0.7-0.8
		c0.8-1.2,1.6-2.3,1.6-3.8c0.7-1.8,0.7-3.3-1.1-4.4c-1-0.5-1.4-1.5-1.1-2.6c0.5-1.9,4.5-1.4,3-4.7c-2.1,0.4-4.4,1.8-6.4-0.5
		c0.3-0.7,0.4-1.4,0.7-2.1c0.1-0.3,0.4-0.4,0.5-0.7c0-0.1,0-0.4-0.3-0.4c-0.5-0.4-1-1-1.1-1.6c-0.3-1.4,0.5-2.2,1.2-3.2
		c0.5-0.3,1-0.5,1.5-0.7c2.7-1.6,4.4,0.1,6,1.9c0.7,1.4,1.6,2.6,2.2,4.1c0.3,1.9,0.5,4,1.5,5.8c0.3,0.4,0.5,1,0.5,1.5
		c0.4,2.6-0.4,5.1-0.5,7.5c0,1.8-1.2,3-1.8,4.5c-0.5,0.5-1.2,1-1.9,0.3C428.5,636.3,428.1,636.4,427.7,636.4z"/>
	<path class="st179" d="M420.1,619.4c2.2-0.4,4.9,1.2,6.4-1.8c0.1-0.4,1.4-0.4,1.8,0.7c1.1,3.2-0.7,5.9-3.8,6
		c-0.1,0-0.3,0.4-0.4,0.5c-1.5,1.5-3.4,1.8-5.3,1.4c0-0.3,0-0.4,0-0.7c-0.5-0.7-1.5,0-2.1-0.7c0-1.1-1.2-1.2-1.6-2.1
		c0.8-1.4,1.8,0.4,2.6-0.1c0.4-1.4-0.7-2.2-1.1-3.3C417.9,619.7,419,620.3,420.1,619.4z"/>
	<path class="st128" d="M412.7,623.5c0.1,1,1.8,1.4,1.4,2.7c-2.3,0.7-4.5,1.1-6-1.4l0,0c0.4-1.8-1-4.3,2.2-5.5
		c-0.7,1.9-1.5,3.7,1.5,3C412.4,622.2,412.6,623,412.7,623.5z"/>
	<path class="st180" d="M428.1,613.5c-1.1-1.9-2.7-3.2-5.2-2.9c-2.1-1.6-4.5,0.1-6.7-0.5c1.8-1,3.7-1.4,5.8-0.8
		c2.6,0.8,2.1-0.7,1.8-2.1c0.7,1.1,1.8,1.6,3,1.5c0.7,1.8,1.8,2.5,3.4,1.2c0.4,0.3,0.5,0.7,0.5,1.1c-0.1,1.2-1.1,1.6-1.9,2.2
		C428.6,613.5,428.3,613.5,428.1,613.5z"/>
	<path class="st172" d="M416.8,612c1.1-0.7,2.1-1.5,3.3-0.7c0.7,1,0,1.9-0.1,2.7c-0.5,1.1-1.5,1.6-2.6,1.9c-1.1,0.8-1.6,2.5-3.6,2.5
		c0.1-1.4,1.2-2.5,1-3.8c1-0.3,0.8-1.4,1.4-2.1c0.3,0,0.4,0,0.7,0c0.3-0.1,0.4-0.3,0.3-0.5C417.1,612.2,417,612,416.8,612z"/>
	<path class="st181" d="M419.4,614c0-1,0.3-1.8,0.8-2.6c0.4,0,0.8,0,1.2,0c0.4,1.2-0.5,2.2-0.5,3.3c-0.3,0.3-0.5,0.3-0.8,0.3
		C419.4,614.8,419.2,614.5,419.4,614z"/>
	<path class="st182" d="M420.3,614.8c0.1,0,0.4,0,0.5,0c0.5,0.4,1,1,1.5,1.4c0.4,0.4,0.4,1-0.1,1.4c-0.4,0-0.8,0-1.2,0
		c-0.4-0.4-1-0.8-1.4-1.4C419.2,615.3,419.7,615,420.3,614.8z"/>
	<path class="st183" d="M420.3,614.8c-0.3,0.4-0.4,1-0.7,1.4c-0.7,0.3-1.4,0.8-2.1,0c0.7-0.7,1.2-1.4,1.9-2.2
		C419.7,614.2,420,614.5,420.3,614.8z"/>
	<path class="st128" d="M416.8,612c0.7,0.1,1.2,0.4,1.1,1.2c0,0.1-0.3,0.4-0.4,0.4c-0.5,0-0.5-0.4-0.7-0.8
		C416.8,612.6,416.8,612.3,416.8,612z"/>
	<path class="st128" d="M416.1,612.7c-0.3,0.8,0.7,2.5-1.4,2.1C415.2,614.1,415.7,613.4,416.1,612.7z"/>
	<path class="st184" d="M415.5,598.6c2.1,0.4,4-1,6,0C419.4,599.6,417.5,599.7,415.5,598.6z"/>
	<path class="st124" d="M419.4,590.6c-0.8,0-1.8-0.1-2.6-0.1c1.8-1.1,3.7-0.4,5.6-0.5c0,0.1,0,0.4,0,0.5
		C421.5,590.5,420.4,590.6,419.4,590.6z"/>
	<path class="st185" d="M405.9,642.5c0,0.7,0,1.2,0,1.9c-0.5,0.4-1,0.3-1.4-0.1c0-0.1,0-0.4,0-0.5
		C405,643.3,405.5,642.9,405.9,642.5z"/>
	<path class="st186" d="M399.3,650.6c-0.3-0.3-0.4-0.5-0.7-0.7c0.4-0.3,1-0.5,1.4-0.8c1.1-1.1,2.3-1.1,3.7-0.5
		c0.3,0.3,0.5,0.5,0.7,0.8c0.1,0.5-0.1,1.1-0.4,1.5c-0.7,0.5-1.5,0.8-2.5,0.8C400.5,651.7,399.8,651.4,399.3,650.6z"/>
	<path class="st187" d="M403.9,649.3c-1.2-0.1-2.6-0.3-3.8-0.3c0-0.7-0.1-1.5,0.7-1.9c0.4,0,0.8,0,1.4,0
		C403.1,647.4,404.5,647.5,403.9,649.3z"/>
	<path class="st188" d="M403.9,649.3c-0.3-1.1-1.9-1-1.9-2.2c0.7-1.1,1.2-2.3,2.6-2.7c0.4,0,1,0.1,1.4,0.1c0.3,1.1,0.5,2.2,1,3.2
		c0.7,1.1,0.4,2.1-0.5,2.7c-1,0.5-1.6,0.1-2.2-0.7C403.9,649.7,403.8,649.5,403.9,649.3z"/>
	<path class="st189" d="M399.3,650.6c0.7,0,1.5-0.1,2.1,0.5c0.4,0.4,0.4,1,0.1,1.5c-0.5,0.5-1.2,0.7-2.1,0.7
		c-0.8-0.1-1.4-0.7-1.6-1.4c0.1-0.3,0.1-0.4,0.3-0.7C398.5,651,398.9,650.7,399.3,650.6z"/>
	<path class="st190" d="M415.6,671.8c-2.1-2.3-5.5-1.2-7.7-3.2c2.5-0.5,1.9-2.9,2.3-4.7c1,0.7,1.5,1.9,2.9,2.3
		c0-1.8-2.1-2.6-1.2-4.7c1-2.5,3.2-1.1,4.3-2.5c0.4-0.3,1-0.4,1.5-0.5s0.8-0.5,0.8-1.1c0-1,0.3-1.8,1-2.5c1.5-1.8,2.9-2.7,4.7-0.3
		c0.3,0.4,0.5,0.8,0.7,1.2c0.5,2.2,0.5,4.1-1.2,5.9c-2.6,1-2.1,3.6-2.6,5.5c-0.1,0.5-0.1,1.1,0,1.6c-0.1,0.4,0.3,0,0,0.3
		c-3.4,5.5-3.2,11.5-3.2,17.5c0,0.8-0.1,1.5-0.8,2.1c-0.5,0.3-1,0-1.4-0.4c-0.7-2.3-2.1-4.5-1.2-7c-0.1-2.1,1.4-3.7,1.4-5.8
		C415.9,674.4,415.6,673.2,415.6,671.8z"/>
	<path class="st191" d="M402,659.9c-0.4-0.3-1-0.5-1.4-0.7c0-0.3,0-0.5-0.1-0.7c0-0.1,0-0.3,0-0.4c0.1-1.8-0.3-3.6,0.7-5.2
		c0.8-0.4,1.4-1.5,2.5-1.2c1,0.7,0.8,1.4,0.3,2.2c-1.4,1.6,0.5,2.6,0.7,3.8c0,1.5-0.7,2.3-2.3,2.3h-0.1L402,659.9z"/>
	<path class="st190" d="M416.1,658.5c-1.5-0.8-4,0.1-4-2.7c-0.4-1.1,0-1.9,1.2-2.3c1.1,0.4,2.2,0.8,3,1.6
		C417.4,656.3,418.1,657.6,416.1,658.5z"/>
	<path class="st192" d="M416.1,658.5c0.7-1.5,0.5-2.7-1.4-2.9c-1.4-0.1-1.4-0.8-1.4-1.8c-0.1-1.1,0.5-1.2,1.4-1.4
		c0.4,0,0.8,0.1,1.1,0.3c1.5,1.9,3.7,3.7,1.5,6.4c-0.4,0.5-1,0.1-1.4,0C416.1,658.9,416.1,658.8,416.1,658.5z"/>
	<path class="st192" d="M414.8,653.2c-0.4,0.3-1,0.4-1.4,0.7c-0.4,0.7-0.8,1.4-1.4,1.9c-2.1-0.7-1-2.6-1.5-3.8
		c0.1-0.1,0.1-0.3,0.3-0.5c1.5-1.1,2.9-1.1,4.1,0.5C415.2,652.5,415,652.8,414.8,653.2z"/>
	<path class="st193" d="M404.8,664.1c0-0.5-0.1-1.1-0.1-1.6c1.1-0.8,1.2-1.8,0.1-2.7c0.7,0.1,1.4-1.2,1.9-0.3c1.1,1.6,0,3.4-0.3,4.9
		C406.3,665.1,405.5,664.3,404.8,664.1z"/>
	<path class="st194" d="M404.1,653.8c-0.1-0.8,0.4-1.8-0.5-2.3c-0.3-0.4-0.8-0.7,0.1-1c0.1-0.3,0.4-0.5,0.5-0.8
		c0.7,0.3,1.4,0.4,2.1,0.7c0.7-0.4,1.1-0.3,1.4,0.4c-0.1,0.1-0.1,0.3-0.3,0.4C405.5,651.1,406,654,404.1,653.8z"/>
	<path class="st195" d="M402.4,659.9c1.1-0.4,1.8-1.2,2.3-2.3c0.7,0.7,0,1.4,0,2.2c-0.7,0.4-1,1.4-2.1,1.4
		C402.7,660.7,402.6,660.3,402.4,659.9z"/>
	<path class="st194" d="M410.7,651.9c-1.1-0.3-2.3,0.1-3.3-0.7l0.1-0.3c0.7-0.8,1.5-0.8,2.5-0.5c0.5,0.3,0.8,0.7,0.8,1.2
		L410.7,651.9z"/>
	<path class="st82" d="M412.2,671.9c-1-0.1-1.9-0.4-2.9-0.5c-0.4,0.3-1,0.4-1.4,0c-0.4,0-0.8,0-1.2-0.1
		C408.7,670.4,410.7,669.9,412.2,671.9z"/>
	<path class="st82" d="M416.1,675.4c0.3-1.6-0.8-2.6-2.1-3.4c0.5,0,1-0.1,1.5-0.1c2.1,0.5,1.1,2.2,1.2,3.4
		C416.6,675.5,416.4,675.6,416.1,675.4z"/>
	<path class="st196" d="M400,658.6c-1.5-0.7-2.2-1.8-2.1-3.4l0,0c0.3-0.8,0.4-1.9,1.6-1.5c1.4,1.4,2.1,2.9,0.8,4.8l0,0
		C400.4,658.5,400.1,658.5,400,658.6z"/>
	<path class="st85" d="M399.3,653.8c-0.4,0.4-0.8,1-1.4,1.4c-0.5-1.1-1.1-2.2-0.1-3.3c0.5,0.3,1,0.5,1.5,0.8
		C399.7,653,399.6,653.4,399.3,653.8z"/>
	<path class="st197" d="M432.7,607.9c-0.8,0.3-1.6,0.4-2.5,0.7c1.4-2.7,2.6-5.6,5.3-7.3c-0.3,0.4-0.4,1-0.7,1.4
		c0.7,0.4,1.2,1,1.2,1.9c0,0.5-0.3,1-0.5,1.2C434.7,606.5,434.1,607.8,432.7,607.9z"/>
	<path class="st198" d="M435.1,605.6c0.1-0.4,0.4-0.7,0.5-1.1c0.4-0.4,0.7-1,1.4-1.2c0.3-0.1,0.4-0.4,0.7-0.5
		c0.7,0.3,1.1,0.8,1.2,1.6c-0.1,1.9-1.1,3.2-3.3,2.7C435.2,606.7,435.1,606.3,435.1,605.6z"/>
	<path class="st199" d="M438.4,604.1c-0.3-0.4-0.5-1-0.7-1.4c0.4-0.4,0.8-1,1.4-1.4c0.1,1,0.7,1.1,1.4,0.7
		C441,603.8,440.3,604.5,438.4,604.1z"/>
	<path class="st121" d="M437,603.3c-0.1,0.7-0.7,1.1-1.4,1.2c-0.3-0.7-0.4-1.2-0.7-1.9C435.6,602.8,436.3,603.1,437,603.3z"/>
	<path class="st200" d="M430.4,611.5c0-0.5,0-1-0.1-1.5c0.5-1,1.6-1.1,2.6-1.4c0.7-0.1,1,0.1,1.2,0.7c0.3,1.2-0.3,2.1-1.4,2.7
		c-0.5,0.3-1.1,0.3-1.6,0.1C430.8,612,430.5,611.8,430.4,611.5z"/>
	<path class="st201" d="M433.7,609.4c-0.3-0.3-0.5-0.5-0.8-0.8c0-0.3,0-0.4-0.1-0.7c0.4-1.1,1.1-1.9,2.3-2.3
		c0.1,0.4,0.4,0.8,0.5,1.2C436,608.5,435.6,609.6,433.7,609.4z"/>
	<path class="st202" d="M433.7,609.4c1.1-0.5,1.6-1.5,2.1-2.6c1.2-0.5,2.5-1.2,2.7-2.7c1.1-0.3,1.9-0.8,1.9-2.1
		c0.8-1.5,2.9-1.5,3.4-3.3c1.4-0.4,2.3-0.1,1.9,1.5c-0.3,0.8-0.7,1.6-0.3,2.5c0,0.3,0,0.7,0,1c-0.1,1.1,0,2.2-0.1,3.3
		c0,2.7-2.7,4.5-2.7,7.3c-0.8,2.3-2.6,3.7-4.7,4.7c-0.5,0.1-1.1,0.1-1.5,0c-1.1-0.3-1.5-1.2-2.1-2.1c-0.5-1.2-1.9-1.5-2.9-2.5
		c-0.8-1.4-0.4-2.3,1-2.9C433.1,611.1,433.7,610.4,433.7,609.4z"/>
	<path class="st127" d="M445.2,603.3c0.1-0.1,0.1-0.4,0.3-0.5c0.3,0.1,0.7,0.4,1,0.5l0,0c0.4,0.4,0.5,0.8,0.5,1.5
		c-0.4,1.1,0,2.7-1.9,2.6c-0.1-0.3-0.3-0.7-0.3-1.1C444.9,605.3,444.4,604.2,445.2,603.3z"/>
	<path class="st128" d="M418.9,626.2c1.6-1.4,3.4-1.4,5.3-1.4c1.4,1.9,3.3,3.4,2.9,6.3c-0.1,1.2-0.5,1-1.2,0.5
		c0.3-2.1-0.7-3.3-2.5-4.1c-1-0.1-1.9-0.3-2.9-0.1c-1.2,0-2.1,0.8-3,1.5C417.4,627.8,417.7,626.8,418.9,626.2z"/>
	<path class="st203" d="M424.2,631.8c-0.3,1.2-1.2,1.8-2.3,1.6c-1.5-0.1-2.7-1.1-2.9-2.6c-0.1-1.4,1.4-1.9,2.3-1.8
		C422.6,629.3,424.2,629.7,424.2,631.8z"/>
	<path class="st204" d="M424.2,635.6c-0.3,0.3-0.4,0.5-0.7,0.8c-0.8,0-1.8-0.1-2.6-0.1c-0.4-0.4-1-0.8-1.4-1.4
		C421.1,635.2,422.6,635.3,424.2,635.6z"/>
	<path class="st205" d="M420.5,627.4c1-0.1,1.9-1,2.9,0.1C422.5,628.2,421.5,627.9,420.5,627.4z"/>
	<path class="st206" d="M408.1,624.9c1.8,1.8,4.4-0.5,6,1.4l0,0c0.4,0.3,0.4,0.4,0,0.7l0,0C411.5,627.9,408.9,628.9,408.1,624.9z"/>
	<path class="st178" d="M414.8,629.6c-0.8,0.1-1.2,0.5-1.4,1.4c-0.5-0.1-1.6,0.1-1.5-0.8c0.4-1.2,1.6-1.1,2.7-1.2
		C414.8,629.2,414.8,629.3,414.8,629.6z"/>
	<path class="st128" d="M416.8,624.8c0.7,0.1,1.8-0.8,2.1,0.7C418.2,625.3,417.1,626.2,416.8,624.8z"/>
	<path class="st128" d="M414.1,626.8c0-0.3,0-0.4,0-0.7c0.7,0,1.5,0,2.2,0.7C415.5,627.7,414.8,626.7,414.1,626.8z"/>
	<path class="st207" d="M410.8,651.7c-0.3-0.1-0.5-0.4-0.7-0.5c-1.6-0.5-3.3-1-2.7-3.3c0.3-0.3,0.4-0.4,0.7-0.7
		c0.7,0.8,1.6,0.4,2.5,0.8c4,1.5,6.7-0.4,9-3.4c0.7-1.1,1.5-2.1,2.2-3.3c0.4-0.3,0.8-0.5,1.2-0.8c0.7,0.1,1.4,0.5,1.6,1.4
		c0.1,0.8-0.3,1.4-0.7,2.1c-0.3,0.5-0.5,1.1-1,1.5c-1,1.9-3.4,2.9-3,5.6c0,0.3-0.1,0.5-0.4,0.8c-0.8,0.7-2.1,0.5-3,1.2
		c-0.5,0.1-1.2,0.3-1.6-0.4C413.7,651.2,412.2,652.1,410.8,651.7z"/>
	<path class="st208" d="M424.1,641.6c-0.8-0.1-1.2-0.5-1.4-1.4c0-0.1,0.1-0.3,0.1-0.5c0.7-0.3,1.2-0.5,1.9-0.8
		c0.4,0.3,0.7,0.7,0.8,1.1c0,0.3,0,0.7-0.1,1c-0.1,0.1-0.1,0.3-0.3,0.4c-0.1,0.1-0.3,0.3-0.4,0.3
		C424.6,641.9,424.4,641.9,424.1,641.6z"/>
	<path class="st209" d="M421.6,641.1c0,1.5-1,2.5-2.2,3.3C419.7,643,420.4,641.8,421.6,641.1z"/>
	<path class="st128" d="M413.4,633.6c-0.1,0.7,0.4,1.6-0.5,1.9c-0.1,0-0.7-0.5-0.8-0.8C411.6,633.4,412.7,633.7,413.4,633.6
		L413.4,633.6z"/>
	<path class="st210" d="M407.4,647.8c0.5,1.4,1.4,2.5,2.7,3.3c-0.8,0-1.8,0-2.6-0.1c-0.4-0.1-0.8-0.4-1.4-0.5c0.3-1,0.4-1.8,0.7-2.7
		C407.1,647.7,407.2,647.7,407.4,647.8z"/>
	<path class="st211" d="M428.9,636.3c0.4-0.3,0.8-0.4,1.2-0.7c0.4-0.4,0.7-1.1,1.4-1.2c0.5,0,1,0,1.2,0.4c0.8,1.8-0.8,2.5-1.5,3.4
		c-0.3,0.4-0.5,0.8-0.8,1.1c-0.5,0.4-1.1,0.5-1.8,0.5c-0.3,0-0.5-0.1-0.8-0.3c-0.5-0.3-1-0.7-1.1-1.4
		C427.4,637.5,428.6,637.4,428.9,636.3z"/>
	<path class="st212" d="M424.9,640.3c0-0.4,0-1,0-1.4c0.3-0.1,0.4-0.3,0.7-0.4c0.7,0.3,1.8,0.1,1.5,1.5
		C426.4,640.7,425.7,641.1,424.9,640.3z"/>
	<path class="st208" d="M426.7,639.6c-0.4-0.4-0.8-0.8-1.2-1.1c0.4-0.1,0.8-0.1,1.2-0.3c0.5,0.3,1,0.4,1.5,0.7
		C427.9,639.7,427.5,640.1,426.7,639.6z"/>
	<path class="st213" d="M432.3,611.5c-0.5,0.8-1.4,1.8-0.3,2.7c1.8,0.5,1.9,2.5,2.9,3.7c0.4,0.4,1,0.5,1.5,0.4c0.4,0,0.7,0,1.1,0
		c0.3,0.4,0.3,1,0.1,1.5c-0.1,0.3-0.3,0.5-0.5,0.8c-0.3,0.3-0.5,0.4-1,0.4c-1,0.1-2.1,0.1-3-0.1c-0.3-0.1-0.5-0.3-0.8-0.5
		c-0.7-1-0.5-2.3-1.6-3c-0.1-0.1-0.4-0.4-0.5-0.5c-0.7-1.1-1.5-2.2-2.2-3.3c0.1-0.1,0.3-0.1,0.4-0.3c1-0.4,2.1-0.8,2.5-1.9
		C431.4,611.3,431.9,611.5,432.3,611.5z"/>
	<path class="st214" d="M431,616.8c0.1-0.5,0.4-1.2,1-0.5c1,1,1.1,2.3,1.1,3.7c0.3,1.2,0.7,2.5-0.4,3.6h-0.1h-0.1
		c-0.1-0.3-0.4-0.4-0.5-0.7C431.1,620.8,430.8,618.9,431,616.8z"/>
	<path class="st215" d="M431,616.8c0.8,1.9,0.5,4,0.7,6c-1.2-1.8-1.4-3.8-1.4-6C430.5,616.8,430.7,616.8,431,616.8z"/>
	<path class="st216" d="M422.2,617.5c0-0.4,0-0.8,0.1-1.4c0.4-0.3,0.8-1,1.2-1c0.7,0,0.7,0.7,0.5,1.2
		C423.8,617.4,423.3,617.9,422.2,617.5z"/>
	<path class="st217" d="M431.6,631.5c0.3,0,0.4,0,0.5,0.1c0.4,0.3,0.7,0.7,0.7,1.2c0,1-0.7,1.4-1.4,1.9c-0.4,0.3-0.8,0.5-1.2,0.7
		C430.1,634.1,431.2,633,431.6,631.5z"/>
	<path class="st218" d="M431,611.3c-0.3,1.4,0,3.4-2.5,1.9c-0.7-2.1,1.1-1.4,1.9-1.8C430.5,611.5,430.7,611.3,431,611.3z"/>
	<path class="st219" d="M403.5,650.6c0,0.3-0.1,0.5-0.1,1c-0.1,1.2-1,1.6-2.1,1.6c-0.1-0.1-0.3-0.3-0.1-0.4c0-0.1,0.1-0.3,0.1-0.3
		c0-0.5,0-1,0-1.5C402.2,650.8,402.7,650.3,403.5,650.6z"/>
	<path class="st220" d="M401.3,652.5c0,0.3,0,0.4,0,0.7c1,1.4,0,3,0.8,4.4c0.5,1.1-1,0.7-1.6,0.8c0.3-1.8-0.3-3.2-1.2-4.7
		c0-0.4,0-0.7,0-1.1C400,652.6,400.7,652.6,401.3,652.5z"/>
	<path class="st221" d="M422.9,661.3c1.9-1.5,0.5-3.7,1.4-5.3c-0.3-0.7-0.4-1.9,0.1-2.2c2.9-1.2,2.9-4.7,5.2-6.3
		c0.7-0.5,0.7-1.2,0.5-2.1c-0.3-1.1,0-2.2,1.1-2.7c0.7-0.3,1.2-0.3,1.9,0.1c0.3,0.3,0.4,0.5,0.5,0.8c1.1,4.9,3.7,9.3,5.6,14
		c1.5,3.6,1.6,6.7,0.8,10.3c-1,1.4-2.5,1.1-3.7,1.2c-3.3-0.3-6.6-1.1-9.7,0.7c-0.7,0.4-1.5,0.1-2.2-0.3c-0.5-0.3-1.1,0-1.6,0
		c-1.4,0.3-1.6-0.8-2.3-1.6c0-0.1-0.1-0.3-0.1-0.4l0.1-0.1c0.3-0.3,0.7-0.7,1-0.8c1.8-0.7,1.6-2.1,1.5-3.6
		C422.7,662.4,423.3,661.8,422.9,661.3z"/>
	<path class="st222" d="M424.2,668c0.7,0.3,1.5,2.5,2.2,0c0-0.1,0.4-0.3,0.5-0.3c2.9-0.3,5.8-0.5,8.6,0.3c0,2.2-2.1,2.7-3.2,4
		c-1.5,0.5-2.9,0.3-4.4-0.1c-1.4-0.4-2.7,0.4-3.8,1.2c-0.8,3.2-0.4,6.2,0.3,9.3c0,1.6,0.3,3.2-0.5,4.7c-1.6,3.7-1,7.5-0.7,11.4
		c0.3,4.1-0.3,8.1,0.5,12.2c0.1,0.7-0.1,1.5-0.8,2.1c-1.2,0.1-2.2,0.3-1.6,2.1c0.4,1.5,1.4,3,0.8,4.8c-0.5,1.9-1.4,3.4-3.7,2.1
		c-0.8-1.5-0.8-3-0.5-4.7c1.4-7.1,0.5-14-1.5-20.7c-0.4-0.8-0.4-1.8-0.4-2.7c0.1-1.5-0.4-3.2,1-4.4c-0.5-5.1,0.8-10,0.8-15.1
		c0-1.2,0.3-2.5,1.5-3.2s1.2-1.8,1.2-2.9c0.7,0.1,1.1,1.4,2.1,0.7C422.9,668.2,423.7,668.7,424.2,668z"/>
	<path class="st223" d="M423.5,655.1c-1.1-0.5-2.2-0.5-3.4,0c-3.7-1.6-3.7-1.8-0.4-4.4c-0.3-1.5,0.5-2.5,1.6-3.3
		c1.9-1.4,3.2-3.6,5.8-3.8c1.8,0.1,2.5,1.1,1.9,2.9c-1,1.8-1.9,3.7-3.6,4.7C424,652.1,424.6,654.1,423.5,655.1z"/>
	<path class="st20" d="M423.5,655.1c-0.3-3.3-0.1-3.2,2.7-6c0.7-0.7,0.5-2.3,1.9-2.7c1.5-0.8,1.9,0,2.1,1.4c-1,1.6-2.2,3.3-3,5.2
		c-0.7,1.5-3.4,0.5-3.2,2.9C424,655.6,423.7,655.4,423.5,655.1z"/>
	<path class="st224" d="M420.1,651c0.1,1.4-1.4,1.2-2.2,1.9c1,0.5,2.6,0.4,2.2,2.2c-0.3,0.8-0.4,1.8-0.7,2.6c-2.3-0.7-1.9-3.7-4-4.7
		c-0.3,0-0.5,0-0.7,0c0-0.3,0-0.5,0-0.8c0.4-0.1,1-0.3,1.4-0.4c0.8-1.2,2.3,0.1,3.3-1l0,0C419.7,650.8,419.8,650.7,420.1,651z"/>
	<path class="st225" d="M415.5,653.2c2.5,0.5,2.5,3.3,4,4.7c-0.1,1,0.5,2.2-0.5,2.7s-0.8-1.1-1.5-1.4
		C417.9,656.9,416.4,655.1,415.5,653.2z"/>
	<path class="st226" d="M416,688.3c-0.3,0-0.4,0-0.5-0.3c-0.7-1.4-2.6-1-3.4-2.3c-0.5-1-0.8-2.1-0.1-3c0.5-0.5,1.2-0.5,1.8-1.1
		c0.3-0.1,0.4-0.3,0.7-0.4c0.3,0,0.5,0,0.8,0.1C414.6,683.7,416.6,685.9,416,688.3z"/>
	<path class="st222" d="M422.9,661.3c0.3,0.4,0.4,1,0.7,1.4c-1.4,1.2,0.3,3.8-2.1,4.7c-0.4,0-1,0-1.4,0c0.1-0.8,0.7-1.9,0.3-2.5
		C419.2,662.1,421.1,661.8,422.9,661.3z"/>
	<path class="st227" d="M415.3,681.3c-0.1,0-0.4,0-0.5,0.1c-1-0.5-0.8-1.4-0.7-2.3c0.1-0.7,0.5-1.2,0.7-1.8c0.3-0.8,0.7-1.4,1.4-1.9
		l0,0c0.1,0,0.4,0,0.5-0.1C417.2,677.6,415.3,679.2,415.3,681.3z"/>
	<path class="st228" d="M412.6,682.6c-0.8,1,0.1,1.9,0.1,2.9c1.2,1.2-0.5,2.2-0.1,3.4c0,0.1,0,0.4,0.1,0.5c-0.4,0.5-0.8,1.2-1.2,1.8
		c-1,2.3-1,4.7-0.3,7.1c1.2,4.3,1.8,8.5,3.3,12.8c0.7,1.9,0.3,3.7-0.1,5.5c-0.4,1.4-0.1,2.9-1.5,3.8c-1.2,0.7-2.2,1.4-3.6,0
		c-2.3-2.6-0.1-4.4,1.5-7.3c-3,2.1-3.4,0.8-3.8-1.4c-1-4.8-1.9-9.7-3.7-14.4c-0.5-1-0.8-2.2-1.8-2.9c-0.5-3.3,0.5-5.8,3.4-7.5
		c1-1.1,1.9-2.1,3.2-2.9c0.7-0.7,1.5-1.2,2.2-1.9c0.7-0.5,1.4-1.5,2.5-0.8C413.1,681.7,413.1,682.2,412.6,682.6z"/>
	<path class="st227" d="M412.6,682.6c-0.4-2.5-1.8,0.5-2.3-0.4c0.1-1.1,1.1-1.5,1.8-2.2c1.6-0.4,2.3,0.7,2.6,1.9
		C414.2,683.2,413.8,683.9,412.6,682.6z"/>
	<path class="st229" d="M414.6,682c-0.8-0.8-1.5-1.6-2.6-1.9c0.4-0.3,1-0.5,1.4-0.7c0.4-0.3,0.7-1,1.4-0.5c0,0.8,0,1.8,0,2.6
		C414.8,681.5,414.8,681.8,414.6,682z"/>
	<path class="st82" d="M416.1,675.4c-0.1,0.7-0.1,1.5-0.8,1.9s-1-0.4-1.4-0.5C413.8,674.8,415.3,675.5,416.1,675.4z"/>
	<path class="st230" d="M405.5,686.8c-0.3,0-0.4-0.1-0.7-0.1c0.8-1.1,1.6-2.3,3.3-2.6C407.6,685.5,406.5,686.1,405.5,686.8z"/>
	<path class="st231" d="M414,676.7c0.4,0.1,1,0.4,1.4,0.5c-0.1,0.5-0.4,1-0.5,1.5c-0.4,0.1-1,0.3-1.4,0.5
		C413.5,678.4,413.8,677.6,414,676.7z"/>
	<path class="st127" d="M444.3,612.7c-0.8,0.5-1.4,1.4-2.5,1.4c-1-3.2,3-4.3,2.7-7.1c0-0.3,0.1-0.5,0.5-0.4c0,0.3,0.1,0.5,0.1,0.8
		c1,0.7,1,1.6,0.8,2.6C445.8,611.1,445.1,611.9,444.3,612.7z"/>
	<path class="st232" d="M435.1,618.8c-2.3-0.5-1.5-3.3-2.9-4.5c1.5-0.1,2.2,0.8,2.9,1.9C435.5,617,435.5,617.8,435.1,618.8z"/>
	<path class="st233" d="M445.1,606.5c-0.1,0.1-0.4,0.3-0.5,0.4c0-1.2-0.4-2.6,0.7-3.7C445.1,604.4,445.1,605.5,445.1,606.5z"/>
	<path class="st233" d="M435.1,618.8c0-0.8,0-1.8,0-2.6c0.5,0.7,1.1,1.5,1.5,2.2C436.2,618.8,435.6,619,435.1,618.8z"/>
	<path class="st234" d="M427,644.4c-1.6,1.4-3.3,2.6-4.9,4c-1.9-1.4,0.7-2.6,0-4c0.3-0.4,0.5-0.8,0.8-1.2c0.7-0.4,1.6-0.4,1.9-1.4
		l0,0c0.8-0.5,1.8-0.1,2.6,0c0.5,0.3,1.1,0.7,1.1,1.4C428.6,644.1,427.5,643.8,427,644.4z"/>
	<path class="st235" d="M422,644.4c1.2,1.4-0.4,2.6,0,4c-0.7,1-1.8,1.4-1.9,2.7c-0.3,0-0.4,0-0.7,0c-0.8-0.5-1.9-1-0.8-2.3
		C419.8,647.3,420.9,645.8,422,644.4z"/>
	<path class="st209" d="M424.8,641.6c0.3,1.6-0.7,1.6-1.9,1.4c0.4-0.4,0.8-1,1.2-1.4C424.4,641.6,424.6,641.6,424.8,641.6z"/>
	<path class="st235" d="M419.4,651.1c-0.8,1.1-2.1,0.8-3.3,1C417,650.7,418.3,651.1,419.4,651.1z"/>
	<path class="st211" d="M426.7,639.6c0.5-0.3,1-0.4,1.5-0.7l0.3,0.1c0.4,0.7,0.1,1.2-0.3,1.8c-0.4,0.3-0.8,0.5-1.4,0.7
		c-0.7,0.1-1.2-0.3-1.9-0.5c0-0.3,0-0.5,0-0.7C425.5,640.1,426.2,639.9,426.7,639.6z"/>
	<path class="st236" d="M424.9,641.1c0.7,0,1.4-0.1,1.9-0.1c0.4,0.5,0.4,1.1,0.1,1.6c-1.2,0.8-1.5-0.5-2.2-1
		C424.8,641.4,424.9,641.2,424.9,641.1z"/>
	<path class="st237" d="M430.4,637.8c1.2-0.5,1.9,0.1,2.5,1.2c0.8,0.5,1,1.2,0.7,2.2c-0.1,0.3-0.4,0.5-0.7,0.7
		c-1.4,0-1.8-1.2-2.5-2.2c-0.1-0.3-0.3-0.5-0.3-0.8C430.3,638.5,430.3,638.2,430.4,637.8z"/>
	<path class="st238" d="M427.5,640.3c0.3-0.4,0.5-0.8,0.8-1.1c0.5-0.1,1.1-0.3,1.8-0.3c0.1,0.1,0.1,0.1,0.3,0.3c0.3,1,0,1.8-0.7,2.3
		C428.6,641.8,427.1,642.7,427.5,640.3z"/>
	<path class="st239" d="M436.3,620.1c-1.1,0.8-2.2,0.8-3.3,0C434.1,620.3,435.2,620.3,436.3,620.1z"/>
	<path class="st192" d="M439.6,667.3c-0.1-1.8-0.4-3.7-0.3-5.5c0-1.1-0.1-1.6-0.7-2.5c-2.2-4.5-4-9.2-6.2-13.7
		c-0.4-1,0.1-1.2,0.4-1.6c0.7-0.4,1.4-0.1,1.9,0.3c2.9,3.2,4.3,7.1,5.6,11.1c0.1,1,0.5,1.9,0.8,2.9c-0.1,1.2,0.4,2.3,0.7,3.6
		c0,1.1,0,2.2,0,3.3c-0.1,1.4,0.1,2.9-1.9,2.9C440,667.4,439.7,667.3,439.6,667.3z"/>
	<path class="st240" d="M432.3,671.3c0.7-1.5,2.2-2.3,3.4-3.4c1.4,0,2.7,0.1,4-0.7l0.3,0.3c0.3,0.4,0.3,1,0.1,1.4
		c-1.8,2.1-4.1,3.2-6.9,3.6C432.7,672.2,432.3,671.8,432.3,671.3z"/>
	<path class="st240" d="M427,644.4c0.4-0.4,0.8-0.8,1.4-1.2c0.3-0.3,0.5-0.5,0.8-0.7c0.7-0.1,1.4,0,1.9,0.5
		c-0.5,0.8-0.1,1.6,0.1,2.5c0.5,1.1,0.5,1.9-0.8,2.2c-0.7-0.5-1.1-1.4-2.1-1.4C429,644.9,428.5,644.4,427,644.4z"/>
	<path class="st241" d="M431,643c-0.7,0-1.4,0-2.1,0c-0.4-0.8,0.1-1.4,0.7-1.9c0.3-0.7,0.5-1.2,0.8-1.9c1.9-0.1,1.6,1.8,2.3,2.7
		c0.5,0.4,0.5,0.8,0.1,1.2C432.2,643,431.6,643,431,643z"/>
	<path class="st190" d="M421.5,667.3c1.5-1.2-1.2-4.3,2.1-4.7C423.5,664.4,425.7,667.1,421.5,667.3z"/>
	<path class="st237" d="M432.9,643c0-0.4,0-0.8-0.1-1.2c0.1-0.1,0.1-0.1,0.3-0.3c1.4,0,1.6,0.8,1.6,2.1c-0.1,0.3-0.3,0.5-0.5,0.8
		c-0.4-0.3-0.8-0.4-1.2-0.7C433,643.4,432.9,643.3,432.9,643z"/>
	<path class="st242" d="M424.2,668c-0.3,1.5-1.1,1.1-2.1,0.7C422.7,668,423.4,668,424.2,668z"/>
	<path class="st243" d="M422.7,712.3c-0.4-7.4-0.7-14.8-1.1-22.2c0-1.2,0.3-2.5,1.2-3.3c1.4,1.4,0.8,3,0.8,4.7
		c0.1,2.1-0.1,4.1,0.4,6.2c0.1,0.4,0.1,0.7,0.1,1.1c0,0.7,0,1.5,0,2.2c0.1,2.7-0.3,5.5,0.4,8.1c0.1,0.3,0.1,0.7,0.1,1.1
		c-0.4,1.5-0.5,3-0.4,4.5c0,0.3,0,0.7,0.1,1c0.3,1.1,0.5,2.2,0.7,3.4c1.5,3.6,1.4,4-1.4,4.1C422.2,719.7,420.3,716.2,422.7,712.3z"
		/>
	<path class="st233" d="M422.7,712.3c-1,3.7,1,7,1.4,10.4c-0.3,0.1-0.5,0.3-0.8,0.4c-0.5,0-1.6-1-1.5,0.7c-0.8,1-1.8,1-2.9,0.7
		c-1.1-0.5-1.8-1.2-1.8-2.5c0.3-0.8,0.7-1.2,1.6-1.1c3.4,0.1,2.3-2.7,2.1-4c-0.5-1.9-0.5-3.7-0.5-5.8
		C421.2,711.4,421.6,712.8,422.7,712.3z"/>
	<path class="st244" d="M423.4,698.4c-1.2-3.8,0-7.7-0.4-11.7c0.7-1.5,0.7-3.2,0.5-4.8c-0.7-2.7-0.1-5.6-0.4-8.4
		c0.1-0.4,0.4-0.5,0.8-0.5c1.5,0.7,1.6,2.1,1.5,3.4c-0.4,3.4-0.5,6.7-0.5,9.9c1.5-0.8-1.6-3,1-3.8c2.3,1.8,0.8,4.3,1.4,6.4
		c0,0.4,0,0.8,0,1.1c-0.3,1-1,1.5-1.9,1.6c-0.5,0-0.8-0.5-1.1-1c0,0.5,0.1,1.2,0.3,1.8C424.2,694.6,425.3,696.8,423.4,698.4z"/>
	<path class="st245" d="M418.8,721c-0.4,0.3-1,0.5-1.4,0.8c-0.4,0-0.8-0.1-1.1-0.4c-0.8-1.9-1-3.8,0.4-5.6c1.5-3,0.4-6.3,1.4-9.5
		c0.7-0.1,1,0.4,1,1c0,3.3,0.1,6.6-0.3,9.9C418.1,718.4,418.8,719.7,418.8,721z"/>
	<path class="st246" d="M420.1,683.5c1,5.1-0.5,10.1-0.3,15.2c-1.5-4.9-0.5-10.1-1.1-15.2C419.3,683.1,419.7,683.1,420.1,683.5z"/>
	<path class="st233" d="M418.8,717.1c-0.8-2.3,0.1-4.7,0-7c0-1.4,0.4-2.7-0.7-3.8c-0.3-3.6-0.5-7.1-0.8-10.7c2.1,4.4,1.8,9,2.1,13.7
		C419.6,711.8,420.3,714.6,418.8,717.1z"/>
	<path class="st247" d="M424.2,673.3c-0.1,0-0.4,0.1-0.5,0.1c-0.5-0.4-0.5-1-0.1-1.5c2.7-2.6,5.9-0.4,8.8-0.7
		c0.3,0.1,0.5,0.4,0.8,0.5c-0.1,0.7-0.5,1.1-1.1,1.5c-1.6,1.2-3.4-0.3-5.1,0.3C426,674,425.1,673.6,424.2,673.3z"/>
	<path class="st248" d="M423.5,671.9c0,0.5,0.1,1,0.1,1.5c0,2.9-0.1,5.8-0.1,8.6C422.9,678.7,421.4,675.4,423.5,671.9z"/>
	<path class="st249" d="M420.1,683.5c-0.4,0-0.8,0-1.4,0c0-0.3,0-0.4,0-0.7c1-1.6-0.3-3.7,0.7-5.3c0-1.4,0-2.9,0-4.3
		c0.3,0,0.4,0,0.7,0C420.1,676.5,420.1,680,420.1,683.5z"/>
	<path class="st250" d="M420.7,708.8c0.3-2.3-0.4-4.7-0.3-7C421.5,704.2,422,706.5,420.7,708.8z"/>
	<path class="st246" d="M419.4,677.4c-0.3,1.8,0.5,3.7-0.7,5.3C419,681,418.3,679.1,419.4,677.4z"/>
	<path class="st251" d="M412,693.5c-1.2,1.5-0.3,3.3-0.8,4.9c-2.5-2.6-1.4-5.1,0-7.7c0.4-0.4,1-1,1.4-1.4
		C412.6,690.9,412.3,692.1,412,693.5z"/>
	<path class="st252" d="M412.7,688.9c-1.2-1.2,0.4-2.2,0.1-3.4c1.2,0.5,2.5,1,2.7,2.6C414.2,687,413.5,688.1,412.7,688.9z"/>
	<path class="st253" d="M408.1,719.8c-0.8-1.1-0.4-2.3-0.7-3.4c-1.2-1.2-1-2.9-1.6-4.4c0-1-0.1-2.1-0.5-2.9
		c-0.4-1.8-0.5-3.6-0.8-5.3c0-0.3,0.3-0.7,0.4-0.8c-0.3-1.4-0.5-2.6-0.7-4c-0.4-0.7-0.4-1.4,0.1-2.1c2.2,5.2,3.3,10.7,4.3,16.7
		c0.7-1,0.4-2.9,1.8-2.5c0.8,0.3,1.4,1.6,1.9,2.6c1,1.5-0.4,1.8-1.4,2.5c-0.8,0.5-1.9,1.9-1.4,2.3c1.1,0.7,1.8,2.9,3.7,1.4
		c0.5-0.4,1.2-0.7,1.9-0.3c1.1,0.7,1.2,2.1,1.6,3.2c0,0.8-0.4,1.4-1,1.8c-0.8,0.5-1.6,0.5-2.6,0.4c-0.8-0.1-1.6-0.4-2.5-0.8
		C409,723.1,408.6,721.3,408.1,719.8z"/>
	<path class="st253" d="M411.3,690.9c-0.5,2.6-1.8,5.1,0,7.7c0.1,0.4,0.1,0.8,0.3,1.1c1.8,2.2,1.5,5.1,2.5,7.5
		c-0.1,1.2,0.1,2.2,0.8,3.2c0.5,1.6,1.1,3.3,1,4.9c0,0.3,0.1,0.7,0.3,1c0.1,0.7,0.1,1.4-0.1,1.9c-2.6,1.8-1.9-0.8-2.5-1.8
		c0.7-2.6,0.3-5.2-0.8-7.7c-1.6-4.1-1.8-8.5-3.2-12.6C409,694.8,408.9,692,411.3,690.9z"/>
	<path class="st254" d="M413.4,716.4c1.2,0,0.7,1.9,1.9,2.1c0.4,0.7,0.4,1.1-0.4,1.4c-0.7,0-1.4,0-2.1-0.1
		C413.3,718.7,412.6,717.5,413.4,716.4z"/>
	<path class="st255" d="M404.1,696.9c0,0.7,0,1.4-0.1,2.1c-0.4-0.7-0.8-1.4-1.2-2.2c0-0.4-0.3-0.5-0.7-0.7c0-0.4,0.1-1,0.1-1.4
		C404.1,694.4,403.3,696.4,404.1,696.9z"/>
	<path class="st256" d="M410.1,708.1c0.1-0.3,0.3-0.4,0.4-0.5c0.3,0.1,0.4,0.3,0.5,0.5c0,0-0.1,0.3-0.3,0.4
		C410.7,708.4,410.4,708.3,410.1,708.1z"/>
	<path class="st257" d="M410.8,722.9c-2.1,1-1.9-1.2-2.9-1.9c0-0.4,0-0.8,0-1.2C409,720.9,409.8,722,410.8,722.9z"/>
	<path class="st258" d="M429.6,641.1c-0.3,0.7-0.4,1.2-0.7,1.9c-0.3,0-0.4,0-0.5,0.1c-0.3-0.4-0.7-0.7-1.2-0.5
		c0-0.5-0.1-1.1-0.1-1.6c0.3-0.1,0.4-0.4,0.7-0.5C427.7,641.9,428.9,641,429.6,641.1z"/>
	<path class="st259" d="M439.7,668.5c0.1,0.3,0.1,0.4,0.3,0.7c-0.4,2.6-2.5,3.4-4.7,4.3c-1.4,0.4-2.7,0.7-3.7-1
		c0.5-0.3,1-0.4,1.5-0.7C435.2,670.9,437.4,669.6,439.7,668.5z"/>
	<path class="st260" d="M415.6,715.7c-0.3-1.8-0.4-3.6-0.7-5.3c1.6,1.5,1.4,3.4,1.2,5.3C416,716,415.7,716,415.6,715.7z"/>
	<path class="st261" d="M415.6,715.7c0.1,0,0.4,0,0.5,0c0.3,0,0.4,0,0.7,0c0,2.1,0,4,0,6c-0.1,0-0.3,0.1-0.5,0.1
		c-1.6-1.6,0.1-3.7-0.7-5.5C415.6,716.2,415.6,716,415.6,715.7z"/>
	<path class="st262" d="M418.9,723.8c1-0.1,1.9,0.7,2.7-0.3c0.3-1.2,1.5-0.4,2.2-1c0,0.1,0.1,0.1,0.3,0.1c0.8,0.7,1.2,0.3,1.1-0.5
		c-0.1-1.1-0.7-2.1-1-3.2c0.5-1.1-0.4-2.2,0.3-3.3c0.3-0.3,0.5-0.3,0.8-0.3c2.1,1,1.1,3.2,1.8,4.7c0.1,0.7,0.4,1.2,0.3,1.9
		c-0.4,1.8-1.5,2.9-3.3,3.3c-0.5,0.1-1.2,0-1.8,0.1c-1,0.3-2.1,0.5-3.2,0.1c-0.4-0.3-0.7-0.5-0.8-1.1
		C418.5,724.3,418.6,724,418.9,723.8z"/>
	<path class="st263" d="M425.7,715.8c-0.3,0-0.5,0-0.8,0c-0.4,0.4-1,0.4-1.4,0c0-0.3,0-0.4,0-0.7c0.8-0.8,0.7-1.9,0.7-3
		c0-0.7,0.1-1.2,0.5-1.8c0.5-0.3,1,0,1.2,0.3c0.5,0.8,0.5,1.8,1,2.6c0.1,0.8,0.5,1.8-0.1,2.6C426.6,716.1,426,716.1,425.7,715.8z"/>
	<path class="st264" d="M424.1,709.8c-0.1-3-0.3-5.9-0.4-8.9c1.4,0.1,1.2,1.2,1.4,2.2c-0.4,1.6,0.1,3.2,0.1,4.7
		C425.1,708.7,424.9,709.4,424.1,709.8z"/>
	<path class="st265" d="M424.4,702.7c0-0.7,0-1.4-0.7-1.8c0-0.7-0.1-1.4-0.1-2.1c1.2,0.1,1.9,0.7,2.1,1.9c-0.7,0.7,0.1,1.6-0.5,2.2
		C424.6,703.2,424.4,703.1,424.4,702.7z"/>
	<path class="st264" d="M424.8,712.3c0.1,1.2,0,2.3-1.4,2.9c-0.1-1.6-0.3-3.3,0.7-4.9C424.9,710.7,424.2,711.7,424.8,712.3z"/>
	<path class="st266" d="M424.8,712.3c-0.3-0.7-0.4-1.4-0.7-2.1c-0.1-0.1-0.1-0.3,0-0.4c0.1-0.7,0.1-1.4,0.3-2.1
		c0.3-0.3,0.5-0.3,0.8,0c0.5,0.8,0.5,1.8-0.3,2.5C424.9,711,424.8,711.6,424.8,712.3z"/>
	<path class="st267" d="M423.5,715.7c0.4,0,1,0,1.4,0c-0.1,1.1,0.3,2.3-0.5,3.3C424.1,717.9,423.8,716.8,423.5,715.7z"/>
	<path class="st261" d="M418.9,723.8c0,0.3-0.1,0.5-0.1,0.8c-0.7,0.5-1.4,0.3-2.2,0c-0.3-0.1-0.4-0.4-0.5-0.7c0-0.4,0-1,0-1.4
		c0.1-0.4,0.4-0.5,0.7-0.7l0,0c0.1,0,0.4,0,0.5,0C417.9,722.4,418.3,723.1,418.9,723.8z"/>
	<path class="st268" d="M423.8,722.5c-0.5,0.8-1.5,0.4-2.2,1C421.2,720.3,423.1,722.8,423.8,722.5z"/>
	<path class="st269" d="M424.2,673.3c0.7-1.4,1.6-0.7,2.6-0.5c1.9,0.7,4.8-0.3,5.1,3c-1.6,1.1-3,2.5-3.2,4.7
		c-0.1,0.3-0.4,0.4-0.7,0.5c-0.5,0.1-1,0.1-1.5,0.1c-0.3,0.3-0.4,0.7-0.7,1c-0.1,0.1-0.4,0.4-0.7,0.5c0,1.9,0,3.8,0,5.9
		C424.1,683.6,424.2,678.4,424.2,673.3z"/>
	<path class="st270" d="M424.9,691.6c0,0.1-0.1,0.4-0.1,0.5c-0.1,0.5-0.4,0.5-0.5,0c-0.1-0.1-0.3-0.4-0.5-0.5c0-0.8,0-1.6,0-2.7
		C424.6,689.6,424.6,690.7,424.9,691.6z"/>
	<path class="st271" d="M431.5,675.9c-0.4-2.7-3.3-1.8-4.5-3c1.5-1.2,3.2,1.1,4.7-0.3c1.1,0.3,2.2,0.4,3.4,0c1,0.4,1.4,1.2,1.4,2.2
		c0,0.4-0.1,0.8-0.3,1.1c-0.7,1-1.6,1-2.6,1S431.9,676.7,431.5,675.9z"/>
	<path class="st260" d="M416.8,721.9c-0.3,0.3-0.5,0.4-0.7,0.7c-0.3-1-1.2-1.6-1-2.7c0.7-0.3,0.7-0.8,0.4-1.4c0-0.7,0.1-1.4,0.1-1.9
		C416.8,718,415.5,720.2,416.8,721.9z"/>
	<path class="st272" d="M435.8,674.7c-0.3-0.7-0.4-1.4-0.7-2.1c1.6-1.1,3.3-2.2,4.9-3.3c0.1,0,0.3,0,0.4,0c0.7,0.4,0.8,1,0.7,1.6
		c-1.2,1,0.4,1.5,0.3,2.3c0,0.5-0.3,1-0.7,1.2C439,674.8,437.4,676.2,435.8,674.7z"/>
	<path class="st273" d="M424.2,692.1c0.1,0,0.4,0,0.5,0c0.1,1-0.1,1.9,0.7,2.6c0,0.7,0.3,1.5-0.7,2.3
		C423.7,695.5,424.4,693.7,424.2,692.1z"/>
	<path class="st273" d="M425.6,706.4c-0.1,0.4-0.3,0.8-0.5,1.2c-0.3,0.1-0.4,0.1-0.7,0.3c0-1.6,0-3.4,0-5.2c0.1,0.1,0.3,0.1,0.4,0.1
		c0.7,0.3,0.4,1,0.7,1.4c0,0.4,0,1,0,1.4C425.9,705.8,425.9,706.1,425.6,706.4z"/>
	<path class="st274" d="M425.5,704.3c-0.3-0.4-0.4-1-0.7-1.4c0-0.7,0.1-1.5,0.7-2.1C425.7,702,426.4,703.1,425.5,704.3z"/>
	<path class="st275" d="M423,726.7c-0.7-0.5-0.7-1.2-0.8-2.1c0.4-0.5,1-0.7,1.4,0C424,725.4,424.8,726.4,423,726.7z"/>
	<path class="st276" d="M431.5,675.9c0.8,0,1.5,0.1,2.3,0.1c0.1,0.4,0,0.8-0.3,1.2c-0.7,0.5-1.4,1-1.6,1.8c-0.1,0.4-0.4,0.7-0.7,1.1
		c-0.7,0.8-0.3,2.2-1.5,2.7c-1.5-0.1-1.4-1.2-1.4-2.2C428.5,678.5,427.4,675.5,431.5,675.9z"/>
	<path class="st277" d="M426.2,679.4c0,1,0.3,1.9-0.5,2.6C425.7,681.1,424.8,680,426.2,679.4z"/>
	<path class="st98" d="M430.1,679.2c0.3-0.1,0.4-0.4,0.7-0.5c0.7-0.7,1.4-1.4,2.2-1.8c0.3-0.3,0.5-0.5,0.7-0.7
		c0.8,0.1,1.5,0,2.1-0.5c4.9-1.6,5.6-0.8,4.9,5.1c-0.4,1.2-0.7,2.5-0.7,3.7c-1.1,2.6-1.5,5.2-1.4,8c-0.7,2.3,0,5.1-1.6,7.3
		c-1.5,0.8-2.2-0.3-2.3-1.4c-0.4-2.3-0.7-4.8,0-7.3c1.1-3.7,1.4-7.5,0.3-11.7c-1.8,1.1-1.8,2.6-2.1,4c-0.3,1.2-0.4,2.5-2.2,2.3
		C430.4,683.5,429.9,681.4,430.1,679.2z"/>
	<path class="st278" d="M431.1,685.5c1.2-2.2,0.7-5.1,2.3-7.1c0.4-0.7,0.8-1.4,1.8-1.4c1.1,0.1,1.2,1.2,1.4,2.1
		c0.7,4.1,0.3,8.2-0.8,12.3c-0.8,2.7-0.5,5.6,0.7,8.4c1.9,0.4,1.4,1.9,1.5,3.3c0.1,1.6-0.7,3-0.7,4.7c0.1,1.4-0.5,2.7,0.3,4
		c0.1,0.3,0.1,0.5,0.3,0.8c0,0.7,0.1,1.5,0.3,2.2c0.1,0.3,0.1,0.5,0.1,0.8c-0.8,1.8-0.5,3.4,0.3,5.1c0.1,1,0.4,1.8,0.7,2.7
		c0.1,2.1-0.5,3.4-2.6,4.1c-1.2,0.3-2.3-0.3-3.6,0c-1.2,0-2.2-0.5-3.4-0.8c-0.3-0.1-0.4-0.4-0.7-0.5l0,0c0.5-3,0.3-5.9,0.1-8.9
		c0.1-0.5,0.4-1.1,0.8-1.6c1.5-2.1,2.7-4,0.3-6.3c-0.5-0.5-0.5-2.2-0.4-3.4c-0.7-4.1,1.1-8,1.4-11.9c0.5-2.5,0.5-4.9,0-7.4l0,0
		C430.5,685.8,430.7,685.5,431.1,685.5z"/>
	<path class="st279" d="M429.6,705.5c0.7,2.7,3.4,4.4,3.6,7.3c0,1,1.1,2.5-1.4,1.6c-1.1-0.3,0.3,1.6-1,1.9c-2.7-1.4-1.8-3.8-1.8-6
		C428.9,708.7,428.9,707,429.6,705.5z"/>
	<path class="st280" d="M428.9,710.3c1.5,0,1.4,1.2,1.1,2.1c-0.4,1.5,0,2.7,0.7,4c-0.5,0-0.8,0.3-1.1,0.7c-0.4,0.5-1,0.7-1.6,0.4
		c-0.3-0.5-0.5-1.1-0.7-1.6c-0.1-0.7-0.3-1.4-0.4-2.1c0.4-1.1,0.8-2.2,1.2-3.4C428.5,710.3,428.8,710.3,428.9,710.3z"/>
	<path class="st281" d="M431.1,685.5c-0.1,0.3-0.1,0.4-0.3,0.7c-0.1,0-0.4-0.1-0.5-0.1c0-1,0-1.8-0.7-2.6c0-0.3,0-0.4,0-0.7
		c0.3-1.1-0.4-2.5,0.5-3.6C431.1,681.3,430.7,683.3,431.1,685.5z"/>
	<path class="st281" d="M431,686.1c1.2,2.5,1.1,4.9,0,7.4C431,691,431,688.5,431,686.1z"/>
	<path class="st282" d="M428.1,717.5c0.5-0.1,1.1-0.3,1.6-0.4c1.6,3.2-0.1,5.9-0.8,8.8c-1.6-1,0.8-3.3-1.4-4
		c0.7-0.5,0.7-1.4,0.5-2.2C427.9,719,427.5,718.3,428.1,717.5z"/>
	<path class="st281" d="M433,676.9c-0.3,1.2-1.1,1.6-2.2,1.8C431,677.3,431.8,676.9,433,676.9z"/>
	<path class="st283" d="M437,712.3c0-0.1,0-0.4-0.1-0.5c-1.1-1,0.1-2.5-0.5-3.4c-0.3-2.9,1.4-5.8,0.1-8.6c1.1-2.3-0.1-5.2,1.1-7.5
		c2.2,1.8,0.7,4.1,1.1,6.2c0,1.6-0.1,3.2,0.3,4.8c-0.1,2.1,0,4,0.7,5.9c-0.4,1.6,0.3,3,1.1,4.3c0.3,0.4,0.3,0.8,0.3,1.4
		c-0.5,1.9-0.7,3.8,0.4,5.8c0.1,0.3,0.1,0.7,0,1c-0.1,0.7-0.5,1.2-1.4,1.5c-1.4-0.1-1.6-1.1-1.9-2.2c-0.5-1.8-0.7-3.7-0.5-5.6
		c0-0.1,0-0.4-0.1-0.5C437,713.8,437.5,712.9,437,712.3z"/>
	<path class="st284" d="M439,720.5c0.4,0.7,0.8,1.4,1.4,2.1c1.9,2.9,1.6,4.4-1.1,6.2c-0.4,0-0.8,0.1-1.2,0.1c-0.5,0-1.2-0.1-1.6-0.5
		c-0.4-0.5-0.4-1.1,0-1.6c1.5-0.7,1.6-2.2,2.1-3.4c-0.5-0.8-0.3-1.8-0.3-2.6C438.4,720.2,438.6,720.2,439,720.5z"/>
	<path class="st285" d="M439,720.5c-0.3,0-0.4,0-0.7,0c-0.3-0.1-0.3-0.4-0.4-0.7c0.1,0.3,0,0.5-0.3,0.7c-1.6-1.9-1.8-3.7,0.1-5.5
		C439.2,716.5,439,718.6,439,720.5z"/>
	<path class="st98" d="M434,691c-1.2-3.4-1.2-6.6-0.4-9.6C432.5,684.6,435.2,687.4,434,691z"/>
	<path class="st286" d="M432.9,727.1c-1.5,0.7-3,1.5-3.4-1.1c1.4-1.2,2.3,0.3,3.4,0.5C433.3,726.7,433.3,726.9,432.9,727.1z"/>
	<path class="st287" d="M432.9,727.1c0-0.1,0-0.4,0-0.5c1.2-1.4,2.3,0.3,3.4,0.1c0,0.4,0.1,0.7,0.1,1.1c-0.7,0.8-1.4,0.8-2.1,0
		C434.2,726.7,433.4,726.9,432.9,727.1z"/>
	<path class="st288" d="M436.4,708.3c0.7,1.1,0.8,2.2,0.5,3.4C434.7,710.9,436.4,709.4,436.4,708.3z"/>
	<path class="st285" d="M437,712.3c0.5,0.7,0.5,1.4,0.5,2.2c-0.5,0-1.9,1.2-1.2-0.7C436.6,713.2,436.8,712.7,437,712.3z"/>
	<path class="st289" d="M437.7,720.5c0.1-0.1,0.3-0.4,0.5-0.5c0.1,0.1,0.1,0.4,0.3,0.5c0,1,0,1.8,0,2.7
		C437.5,722.4,437.8,721.4,437.7,720.5z"/>
</g>
</svg>
