<?xml version="1.0" encoding="utf-8"?>
<!-- Generator: Adobe Illustrator 23.0.3, SVG Export Plug-In . SVG Version: 6.00 Build 0)  -->
<svg version="1.1" id="Layer_1" xmlns="http://www.w3.org/2000/svg" xmlns:xlink="http://www.w3.org/1999/xlink" x="0px" y="0px"
	 viewBox="0 0 816 816" style="enable-background:new 0 0 816 816;" xml:space="preserve">
<style type="text/css">
	.st0{fill:#B5B5B9;}
	.st1{fill:#BFBEC3;}
	.st2{fill:#B2B1B6;}
	.st3{fill:#9D9CA2;}
	.st4{fill:#B1B1B6;}
	.st5{fill:#B9B9BE;}
	.st6{fill:#A5A4A9;}
	.st7{fill:#BABABD;}
	.st8{fill:#B8B7BB;}
	.st9{fill:#B1B0B6;}
	.st10{fill:#CAC9CE;}
	.st11{fill:#C8C7CB;}
	.st12{fill:#ADACAE;}
	.st13{fill:#C0BFC4;}
	.st14{fill:#9E9EA2;}
	.st15{fill:#C8C7CC;}
	.st16{fill:#939297;}
	.st17{fill:#C8C8CC;}
	.st18{fill:#C7C7CB;}
	.st19{fill:#F5F4F4;}
	.st20{fill:#F8F8F8;}
	.st21{fill:#F6F6F6;}
	.st22{fill:#F4F4F4;}
	.st23{fill:#F6F6F7;}
	.st24{fill:#A6A5AB;}
	.st25{fill:#9C9C9F;}
	.st26{fill:#9C9CA1;}
	.st27{fill:#828184;}
	.st28{fill:#87868B;}
	.st29{fill:#75747B;}
	.st30{fill:#8C8B91;}
	.st31{fill:#929293;}
	.st32{fill:#848488;}
	.st33{fill:#7B7A81;}
	.st34{fill:#807F85;}
	.st35{fill:#7C7B7D;}
	.st36{fill:#98979D;}
	.st37{fill:#747475;}
	.st38{fill:#898990;}
	.st39{fill:#7D7C83;}
	.st40{fill:#76757F;}
	.st41{fill:#8A898F;}
	.st42{fill:#6D6C74;}
	.st43{fill:#5B5B61;}
	.st44{fill:#89888E;}
	.st45{fill:#5D5C61;}
	.st46{fill:#77767D;}
	.st47{fill:#7B7A82;}
	.st48{fill:#6E6C73;}
	.st49{fill:#68676C;}
	.st50{fill:#76757C;}
	.st51{fill:#6C6B6F;}
	.st52{fill:#828284;}
	.st53{fill:#646467;}
	.st54{fill:#797880;}
	.st55{fill:#6C6B72;}
	.st56{fill:#5C5B63;}
	.st57{fill:#706F72;}
	.st58{fill:#66656C;}
	.st59{fill:#5D5D61;}
	.st60{fill:#474749;}
	.st61{fill:#4D4C50;}
	.st62{fill:#626168;}
	.st63{fill:#F8F8F9;}
	.st64{fill:#F7F6F7;}
	.st65{fill:#F7F7F4;}
	.st66{fill:#F7F7F8;}
	.st67{fill:#F9F8FA;}
	.st68{fill:#F6F6F5;}
	.st69{fill:#F8F7F8;}
	.st70{fill:#F5F5F4;}
	.st71{fill:#F4F4F2;}
	.st72{fill:#F9F9F9;}
	.st73{fill:#F7F7F6;}
	.st74{fill:#F5F5F5;}
	.st75{fill:#F8F8F7;}
	.st76{fill:#707070;}
	.st77{fill:#74737A;}
	.st78{fill:#F7F7F5;}
	.st79{fill:#8A898D;}
	.st80{fill:#F6F6F4;}
	.st81{fill:#F8F7F7;}
	.st82{fill:#A5A5A5;}
	.st83{fill:#D7D3D4;}
	.st84{fill:#352A29;}
</style>
<g>
	<path class="st0" d="M90.6,337.7c0.1-2.1-5.2-8.5-7.2-8.9c-2.3-0.4-3.9-2-4.8-4.9c-0.7-2.7-0.8-5.1,2.1-6.6
		c1.8,0.7,3.2,1.7,2.8,3.9c-0.2,1.3,0.2,2.4,0.7,3.6c0.5,1.3,1,2.8,2.8,1c1.2-1.2,2.2,0.5,3.4,0.6c1.1-0.1,2.1-0.3,2.8,1
		c0.6,3.3,2.1,5.7,5.4,6.9c6.1,2,8.5,6.6,6.5,12.5c-0.4,1.2,0.1,1.3,0.5,1.9c0.8,1.1,1.9,2.2,2.1,3.5c0.3,2.1,0.4,2.7,3.1,2
		c2.8-0.5,4.8,2.2,5.9,5c1.2,2.7,1.6,5.1-1.3,7c2.8,1.5,3.7,2.8,3.5,5.6c-0.1,1.2,0.7,0.4,1,0.4c4.9,0.7,8.6,4.6,9,9.5
		c0.1,1,0.1,1.1-1.5,1.6c-0.3,0.1-0.7,0.1-0.6,0.4c0.1,0.5-0.2,1.3,1,1.5c3,0.6,4.5,2.4,3.8,5.6c-0.2,0.8-0.1,1.1,1,1
		c4.5-0.3,8.6,3.2,9.2,7.3c0.3,2.1-1.9,2.5-2.2,4.2c0.2,0.1,0.5,0.1,0.6,0.3c3.8,4.4,10.2,5.9,13.1,11.5c0.8,1.6,1.8,3.2,0.5,5.1
		c-0.7,1.2-0.1,2,0.7,3s2,1.8,1.6,3.2c-1,2.9,0.8,1.6,1.7,1.2c3.6-2,5.6,0.8,7.6,2.7c2.3,2,3.8,5.2,1.6,7.6
		c-1.9,2.1,0.5,2.1,0.6,3.2c-0.8,1-1.8,1.5-3.7,0c2.1,1.8,4.5,1.4,5.3,3.4c0.3,0.1,0.6,0.1,1.1,0.2c0.6,1.2,2.9-0.3,2.9,1.7
		c0,2.3,1.7,5.2-2.5,5.9c-1.4,0.2-0.3,3.1-2.4,3.3c-2.7-1.7-2.2-4.7-3.1-7.1c0.3-2.7-2-5.1-4.6-5c-4.2,0.2-6.4-1.4-7.2-5.4
		c-0.3-1.5-0.5-3-2.1-3.7c-0.7-0.3-1.2-1.1-0.8-1.7c2.2-3.8-0.1-5.8-2.9-7.8c-0.4-0.3-0.5-1-0.7-1.5c-0.8-1.1-0.3-1.8,0.4-2.4
		c3.6-3.2,3.6-3.4-0.1-7.4c-1.1,3-4.5,2.4-6.4,4.2c-0.4,0-0.7-0.1-0.8-0.5c-0.2,0.1-0.1,0.3,0.1,0.6c0.7,1.1,1.1,2.1,0,3.2
		c-1.7-2.4-2.7-4.6-1.8-8c0.7-3-3.2-4.9-5.6-5.8c-2.8-1.1-4-2.5-4.6-5.1c-0.2-0.8-0.8-1.6-1.4-2.4c-0.1-0.2-0.6-0.3-0.6-0.5
		c-0.6-3.4-1.2-6.8-1.8-10.1c1,0.7,2.2,1,3.1,1.9c0.1-0.1,0.1-0.2,0.2-0.4c-0.4-2-2.5-0.3-3.3-1.5c-2.3,0.6-3.9-1.2-5.7-2
		c-3.7-1.9-5.4-5.3-5.5-9.5c0-1.5,0.7-1.9,2-1.9c2.1,1.1,2.3,3.6,3.6,5.3c1.1,1.4,1.9,2.4,3.6,1.7c1.2-0.5,2.7-1.5,2.5-3
		c-0.1-1.7-2.2-1.9-3.3-3c-0.5-0.5-0.2,0.2-0.3,0.3c-2.3,3-2.3,3-4.6-0.1c-0.4-0.5-1.1-0.8-1.6-1.3c-2.5-2.1-6.3-3.3-5.4-7.9
		c0.1-0.7-0.1-1.4,0.8-1.2c4.6,0.5,1.8-3.3,2.7-4.9c0.8-1.8,0.1-4-2.7-4.7c-1.4-0.3-1.5-0.4-1.6,1.2c-0.1,1.4-1.2,1.5-2,1.7
		c-1.6,0.3-0.4-1.1-0.7-1.5c-2.4-3-5-5.9-8.7-7.4c-2.5-1.1-5.1-2.2-5.7-5.3c2.3-0.8,3.1,2.8,5.4,1.8c5.1-1.5,5.7-4.5,1.6-10.1
		c-1.1,3.5-2.9,5.3-6.3,3C89.9,341,89.9,341,90.6,337.7z"/>
	<path class="st1" d="M380.1,584.5c0.1,0.6-0.1,1.5,0.2,2c2.7,4.8,2.2,5.7-3.1,6.9c-4.9,1.1-9.2-1-11.5-5.1
		c-1.4-2.7-3.5-3.3-6.2-1.9c-6.3,3.3-12,1.8-16-4.2c-1.5-2.2-3-3.3-6.2-2.1c-6.2,2.4-10.1,1.2-14.6-4.6c-1.8-2.3-5.9-1.8-6.1-6.7
		c-1.5,5.2-4,3.6-6.4,2.5c0.3-1.4,2.3-0.6,2.4-2.2c-1.7-1.2-2.5-2.4-1.1-4.4c0.5-0.7,1.3-1.7,0.1-2.4c-1.3-1-1.9,0.2-2.7,1
		c-1,1-2,1.8-2.8,3c-1.1,1.3-0.2,1.9,0.8,2.5c0.8,0.6,2.5,0.6,2.3,2.3c-2.3,0.8-4.5-0.3-5.5-1.9c-2.4-3.4-5.9-5.4-8.7-8.4
		c-1.5-1.6-0.7,0.4-1,0.6c-1.1,1.5-1.4,0.8-1.6-0.4c-0.2-0.7-1-1.2-1.2-1.9c-0.5-3.1,1.4-5.5,2-8.3c1.4-0.2,2.4,0,2.5,1.7
		c0,1.1,0.3,2.1,1.4,2.2c4.6,0.4,8.4,3.5,13.4,3.3c2.7-0.1,5.9,1.5,8.1,5.2c1.4,2.4,6.2,3.4,9.9,2.9c0.2,1.2-1.7,2.7,0.4,3.6
		c1.4,1.4,0.6,2.5-0.4,3.5c-0.6,0.5-1.5,1.2-0.6,2c1,1.1,2.2,1.7,3.7,1.7c1,0,1.6-0.5,1.7-1.5c0.2-2.1,1.2-4.1,1.2-6.4
		c1.8-1,2.8,2.2,4.7,1.1c2.1,0.7,0.8,3.1,2,4.4c0.2,2,2.5,1.1,3.3,2.3c0.8,0.4,1.6,1,2.5,1.5c0.7-1.5-3.4-2.2-0.7-3.9
		c0.6,0.8,2-0.3,2.4,1.1c1.2,1.7,3.2,3.5-0.3,5c-0.7,0.3-1.2,0.7-0.4,1.5c1.6,1.9,3.5,3.2,6.1,3c0.8-0.1,2-0.4,2.3-1.5
		c0.3-1.2-0.7-1.3-1.5-1.5c-0.7-0.3-1.2-1-0.4-1.5c0.7-0.5,1.6-1.6,2.8-0.2c2,2.3,4.4,4,7.6,4c0.1-1.2-0.5-1.2-1-1.3
		c-1.2-0.2-2.5-0.1-3.3-1.4c-0.3-0.6,0.1-1.3,0.6-1.3c1.5-0.2,3-0.4,4.4,0.5c1.2,0.8,1,3.4,3.4,2.7c0.8,0,1.4-1,2.2-1
		c3,2.1,1.1,3.5-0.8,4.9c3.7,2.5,3.7,2.5,5.2-1.1c0.6-1.6,2.1-2,3.7-2.2C379.6,584.3,379.9,584.4,380.1,584.5z"/>
	<path class="st2" d="M707.3,418.6c0-0.2,0.1-0.4,0-0.6c0-0.2,0.1-0.4,0.1-0.6c0.8-1.5,2-2.9,3.8-2.1c2,0.7,1.6,2.4,1.1,4.1
		c-0.2,1.5,1.7,1.1,1.9,2.2c-0.8,1.5-2.2,1-3.4,0.8c-3.5-0.2-4.2,1.7-3.6,4.7c1.6,6.9-2.7,12.5-9.9,13c-1.2,0.1-2.3,0.2-3.6,0.4
		c-3.1,0.6-1.6,2-0.8,3.4c-1.6,1.9-3.6,2.9-6.2,2.2c-2.5-1.9-4.1-0.6-5.1,1.8c-0.4,1-1,2,1.2,2.2c2.5,0.2,2.7,2,1.6,4
		c-0.6,1.4-2,1.6-3.2,2.3c-1.2,2.5-1.9,4.9-1.6,8c0.6,6.4-6.3,10.8-13.2,9.1c-1.2-1.7-3.2-1.4-4.8-2.1c0.6-0.8,1.4-1.7,2-2.4
		c3.7-1.6,4.5-1.2,4.7,2.4c1.2,0.1,1.7-1,2.7-1.4c1.5-0.7,3.3-1.5,3.3-3.4c0-2.1-2.3-2.5-3.5-3.7c-1.4-1.4-2.7,0.3-3.1,1.6
		c-0.6,2.2-2.2,3.4-3.9,4.6c-2.3,0-1.9-1.6-1.6-2.9c0.8-4.1,4-7.3,8.5-7.3c3.9,0.1,4.9-3.1,7.1-4.8c0.2-0.2,0.7-0.4,0.1-1
		c-3.6-2.9-0.8-5.5,0.6-7.9c1.9-3.1,4.9-4.9,8.7-4.8c4.6,0.1,5.4-1.1,3.8-5c-2-5.1,2.5-11.5,8-11.2c1.2,0.1,2.2,0.2,3.2-0.6
		c1.6,0.1,2.8-0.6,3-2.1C705.4,420.1,706.4,419.6,707.3,418.6z"/>
	<path class="st3" d="M714.3,421.5c-0.8,0-1.7-0.1-2.4-0.2c-0.5-0.1-1.3-0.2-1.4-0.4c-0.2-0.8,0.6-1.1,1.2-1.4
		c0.6-0.5,1.4-1,1.9-1.6c1.3-1.1,3.2-2.1,2.9-3.8c-0.4-1.9-2.9-2.1-4.4-3.3c-1.2-1-2.2,0.6-2.7,1.8c-0.6,1.9-1.1,3.7-2.2,5.3l0,0
		c-3.5-0.7-4.7-2.8-2.5-5.3c2.7-3.2,4.8-7.2,10.2-6.6c2.4,0.3,4.2-3.9,3.1-6.2c-2.4-4.5,1.1-10.7,6.9-11c3.8-0.2,4.4-3.3,6.6-4.9
		c0.6-0.5,0.1-0.8-0.2-1.3c-1.3-1.5-2.7-2.8-1.5-5c1.5-2.9,2.7-6.2,5.6-7.4c2.4-1.1,5.3-1.6,8-1.4c2,0.1,4,7.6,2.9,9.6
		c-2.4,4.1-4.7,8.5-10.9,7.3c-1.7-0.3-3,2-3.7,3.8c-0.5,0.5-1.3,0.5-1.7,1.1c0.8,0,1.2-0.7,1.7-1.2c5.4,2.5,2.4,9.9-1.9,13.4
		c-1.7,1.3-3.6,1.8-5.7,1.8c-3.8,0.1-4.6,1.3-3.2,4.6C722.9,413.9,720.4,418.6,714.3,421.5z"/>
	<path class="st4" d="M800.1,276c-0.5-0.3-0.8-0.6-1.1-1c-1.4-0.1-2.8-0.7-3.9-1.6c-0.6,0.6-1.6,1.1-2.9,1.1c-4.4,0-6.1,3.1-7.1,6.3
		c-1,2.8-0.3,5.7,3.2,6.7c-1.8,3-2.4,6.4-7.5,6.6c-5.2,0.2-7.8,7.4-4.9,12c1.1,1.7,0.3,2.5-0.1,3.9c-0.8,2.5-3.1,2.9-5.1,3.6
		c-0.3,1.1-1.6,1.7-1.1,3c2.4,1.1,4.1,5,7.8,2.3c1-1.1,1.4-2.3,1.6-3.6c-1.3-2,0.5-4.7,3.1-5c6.7-0.7,12.5-8.6,7.8-14.6
		c-2.1-2.7-0.7-3.7,1.4-4.5c2.2-0.7,4.5-1.6,6.4-2.9C802.1,285.1,803.6,278.5,800.1,276z M796.8,282.8c-0.3,1.5-1.4,2.5-2.5,1.9
		c-3.3-1.8-4.2,0.7-5.5,2.5c0.7-1.2,1.4-2.3,1.5-3.9c0.4-4.8,0.8-4.9,5.2-3C796.7,280.9,797,281.5,796.8,282.8z"/>
	<path class="st5" d="M577.4,543.5c2.1-1.5,0.8-4.1,2.5-6.1c2-2.2,3.8-4.1,7.2-3.5c3.8,0.6,6.7-1.9,9.8-3.8c0.6-0.4,0.3-0.6,0.3-1.1
		c0.1-4.2,2.7-6.6,6.4-8.1c0.1,0.2,0.1,0.5,0.1,0.7c0,0.6-1.7,1.5,0.1,2c0.2,1.6-2.9,3.9,1.3,4.7c1.1,0.2,0,1.8,0.8,2.7
		c2.1-1.2,3.8-2.1,1.6-4.9c-0.8-1-0.8-2.7-0.3-4c1.3-0.8-1.4-1.3-0.3-2.1c4.6-0.4,7.2-2.5,8.2-7.4c1-5,5.1-7,9.9-5.8
		c0,1.4-1.2,1.8-2,2.3c-2,1.5-3.9,2.7-1,5.3c1.3,1.2,0.4,3.4,0.2,5.1c-0.5,0.6-1.2,1.2-2.1,0.7c-1.7,1.8-4.1,2.9-4.7,5.6
		c-1,5.3-5.9,9.6-11.5,9.3c-3.4-0.1-5.1,1.7-6.3,4.5c-1.5,3.5-2.9,7-7.4,7.5c-0.1-0.1-0.2-0.3-0.3-0.4c-1.1-0.8,2.1-0.7,0.4-1.8
		c0.8-3.1-0.7-5.4-2.5-8c-2.1,1.1-3.8,3.2-5.8,5C581,544.3,579.8,545.7,577.4,543.5z"/>
	<path class="st6" d="M58.7,257.2c-1.1-0.2-2.2-0.4-3.2-0.8c-2.1-1-3.4-4.2-2.2-5.5c4.4-5.1,1.5-13.4-5.2-15
		c-2.4-0.6-3.8-1.8-3.9-3.4c-0.7,0.4-1.6,0.7-2.4,0.8c-0.1,1.7,1.3,3.3-0.2,4.8c-2.8,2.7-2.8,5.7-1.5,9.1c1.7,4.6,5.8,5,9.6,6.2
		c0.7-1.2-1.1-1.9,0-3.2c1.6,2.1,0.3,5.3,2.5,7.1c1.8,0.8,2.9,3,5,3.3c3.9,2,4.5,4.2,2.3,9.7c0.2,1.6,1.2,2.7,2.4,3.5
		c0.7,0.5,1.6,0.5,1.4-0.8c-1.4-1.8,0-3,0.7-4.5C66.2,264,63.6,258.4,58.7,257.2z"/>
	<path class="st7" d="M59.4,269.7c1,1.4,1.5,3.2,3.6,3.3c0.7,1.4,1.3,2.5,3.4,2.9c4.6,0.6,7.1,3.7,8.3,8.2c0.2,1,0.8,2.1,0,2.8
		c-3.6,3-1.8,5.9-0.2,9c0.6,1.5,3.2,0.3,3.3,2.5c0.1,1-3,0.3-1.2,2.3c0.6,0.7-0.5,1.5-1.3,1.6c-1.5,0.3-3.8-1.4-3.6,2.2
		c0.2,3.1,2.2,3.4,4.4,3.8c-0.5,2.9-3,0.7-4.2,1.7c-1.8-1.1-2.7-2.8-3.4-4.6c-1.7-3.8-1.1-5.3,3.1-6.8c0.6-0.2,1.4-1.3,0.8-1.5
		c-2.9-0.7-3.6-4.2-6.9-4.9c-6.3-1.3-9.3-7.8-6.6-13.5c1.8-3.7,0.4-4.9-2.9-5.7c-5.1-1.3-8.9-6.5-8.2-10.8c0.4-2.3,1.1-4.7,4-5
		c2.4-0.7,3,2.5,5.1,2.5c0.5,1.9-0.4,3-2,3.5c-1.1,0.4-2.3,0.5-1.8,2.1c0.5,1.5,1.3,2.9,3.1,2.9C57.6,268.4,59.2,267.4,59.4,269.7z"
		/>
	<path class="st1" d="M404.3,588.6c0.5,0.7-1.8,2.4,1.1,2.5c4.6,0,5.2,0,5.1-2c0-0.8,0.3-1.3,0.7-1.8c3-3.9,12.2-4,15.5-0.3
		c1.1,1.3,1.1,2-0.4,3c-0.5,0.3-1.6,1.2-0.2,1.8c0.3,0.1,1-0.4,1.5-0.6c1.8,0.1,3.5,0.5,5.3,0c0.6-0.3,1.2-0.5,1.8-0.8
		c0.3-0.8,0.8-1.3,1.8-1c1.2,0.5,2.4,1.2,2.3,2.7c-0.2,2.8,1.7,3.1,3.6,3.6c1.2,0.5,2.1,1.3,3.3,1.7c0.3,0.2,0.5,0.4,0.6,0.7
		c-4.9,2.5-10.1,1.7-13.2-2.4c-1.4-1.9-3.6-1.6-5.7-3.3c1.5,3.7-0.7,5.2-2.7,6.2c-2.8,1.5-5.9,1.1-8.9,0.2c-2.7-0.7-5.6-1.4-5.5-5.5
		c0-1.8-2.3-0.5-3.5-0.8s-1.1,0.1-1.6,1.2c-3,5.5-11.6,5.9-16.7,0c-1.2-1.3-2.2-2.5-4-3.8c1.3-0.2,2.1-0.3,3.3-0.4
		c-1.6-0.7-3.2,0-4.5-1.5c2.1-1.1,5.3-0.1,5.9-3.2c2,1,3,2.7,3.4,4.7c0.1,1.6,0.8,3,2.4,3.4c1.3,0.3,3.7,2.4,3.1-1.7
		c-0.3-1.9,1.9-2.8,3.1-4C402.8,586.6,403.7,587.3,404.3,588.6z"/>
	<path class="st8" d="M533.2,578.7c-2.3,3.2-5.6,2.1-8.3,1.3c-2.3-0.7-4.1-1.8-6.4,0c-0.6,0.5-2,0.1-3.2,0.1
		c0.4-2.8,3.3-2.1,4.7-3.5c-1.6-0.5-2.9,1.2-4.5,0.5l-0.1-0.1c3.9-2.8,5.6-7.8,9.9-10.2c3-1.7,6.7-2.7,9.5-0.7
		c2.5,1.8,4.4,1.4,6.9,0.2c-3.2-2.9-1.2-5.3,0.8-7.4c3.7-3.7,8.5-4.1,13.5-1.5c0.5,0.3,1.4,0.2,2,0.3c0.6,0.5-1,1.3,0.1,1.8
		c0.2,2.9,1.4,5.9-2.4,7.5c-0.7-0.2-1.3-0.7-1.8-1.3c-1.4-1.2-3.5-1.6-3.7-3.6c-0.4-3.8-2.3-2.1-3.8-1c-1.2,1-1.9,2.3-2.3,3.8
		c-0.4,0.4,0.5,0.6,0.1,0.3c-0.1-0.1-0.1-0.2,0.1-0.3c1.1-1.6,2.8-1.9,3.8-0.5c1.4,1.7-0.2,3-1.3,4.2c-0.2,0.2-0.5,0.1-0.6,0.2
		c-0.2,0.1,0.1,0.1,0.4,0.2c0.7,0.1,1.2,0.4,0.7,1.3c-1.2,0.8-2.4,0.5-3.5-0.2c-3.7-2.5-4.6,0.1-5.3,2.9c-0.5,2-1.3,4-2.9,5.5
		c-0.7,0.7-1.5,0.5-1.5-0.7c-0.6-1,0.1-1.9,0-2.8c-0.1-0.5,1.6-2.7-1.1-1.3c-0.7,0.4-1.7-0.6-2-1.7c-0.3-0.8,0.6-2.7-1.4-2.3
		c-1.2,0.2-2.7,0.3-3.3,1.5c-0.7,1.2,0.5,1.9,1.2,2.8c1.1,1.6,1.4,3.9,4.4,3C532.8,576.6,532.8,578,533.2,578.7z"/>
	<path class="st9" d="M771.8,329.2c-1.1,0.5-2.3,0.7-3.1,1.6c-0.8,1-3.1,1.9-0.1,3.7c2,1.2,2.1,4.1,1.2,6.5
		c-1.5,3.4-3.3,6.3-7.5,6.9c-4.7,0.7-5.8,2.3-4.6,5.8c0.4,1.1,0,2.2,0.3,3.1c0.8,2.9-0.3,4.8-2,6.7c-0.8-0.5-1.2-1.5-1.6-2.3
		c-1.2-0.8,0-2.7-1.9-3.5c-4.1-1.9-4-2-6.5,2.3c-0.3,0.5-0.8,0.6-1.5,0.5c-0.7-0.6-1.7-1.1-2.8-1.2c1.4-5.9,3.4-8.1,9-8.4
		c3.1-0.2,2.9-2.5,3.9-4c1-1.3,0.5-3.5-0.4-3.9c-3.1-1.3-1.3-3.4-1-4.8c0.8-3.2,4-5.8,6.4-5.7c4.7,0.1,5.1-3.3,6.8-5.7
		c0.3-0.2,0.5-0.5,0.7-0.8c0.3-0.3,0.5-0.6,0.8-0.8c3.4-2.8,3.9-2.5,5,1.8C773.2,328.1,772.6,328.7,771.8,329.2z"/>
	<path class="st10" d="M244.5,518.4c1.5,2.9,3.3,4.9,7,3.7c1.2-0.4,1.8,0.4,2.2,1.3c-1.2,3-2.7,5.6-4.6,8.2
		c-1.1,1.6,1.3,2.9,0.4,4.5c-3.2-2-5.8-3.9-5.5-8.6c0.2-3.4-3.3-3.2-5.5-3.1c-6.9,0.5-12.1-4.1-11.9-10.9c0.1-3-2.4-4.8-6.5-3.9
		c-2.4,0.5-3.7-0.1-4.8-2c1.7-1.2,3.5,0.1,5.3-0.1c0.5-0.1,0.8-0.3,0.3-0.2c-0.1-0.3-0.2-0.5-0.4-0.7c-0.7-1.4-1.4-2.8-0.2-4.1
		c1.6-1.8,3.2-0.1,4.9,0.1c1.1,0.3,1.9,0.8,2.5,1.7c-0.3,3.5,2.5,3.6,4.7,4.2c1.5,0.4,3.3-0.5,4.8,0.6c-1,1.5-2.5,0.1-3.6,0.8
		c1,0,2.2-0.8,2.9,0.6c-0.6,2.8-2.1,4.8-4.7,5.9c-0.1,0.8-2.8,0.5-1.2,2.1c1.5,1.6,2.7,4.2,5.5,2.3c-0.3-4.6,0.3-5.2,5.1-4.9
		C242.3,516.8,243.5,517.4,244.5,518.4z"/>
	<path class="st11" d="M481.5,592.7c-3.2-1.2-6.4-3.7-9,1c-0.6,1.1-2.1,1.7-3.2,2.5c-3.4,2.8-11.3,1.9-13.6-1.5
		c-1.4-2-3.9-1.9-5.2,0.4c-1,1.7-2,2.9-4,2.9c-0.1-0.1-0.2-0.2-0.3-0.3c-0.1-1,0.6-1.5,1.2-2c1.4-1.5,0-1.4-0.8-1.7
		c-3.2-2.7-3.2-3.2-0.3-6.4c1.2-0.2,2.1,0.1,2.8,1.2c-0.5,0.7-1.1,1.6-1.6,2.3c2.7-2.4,5.5-2.8,8.9-1.3c-2.1-3.4,0.4-4.2,2.5-5.3
		c1.3,0.7,2.8-0.5,4,0.5c0.4,1.8-1.5,3.6,0.4,5.4c1.1,1.1-1.1,1.9-1.3,3c4.2,1.1,4.5,1,3.9-2.8c2.7-1,3-4.4,5.5-5.3
		c3.1,2.9,4.9,1,6.5-1.6c1.2,0.3,2.3-0.5,3.4,0c0.2,1.9,4.5,2.5,1.4,5.8c-1.3,1.4,2.9,1,3.7,2.5c0.1,1.5-1,0.7-1.5,0.7
		C483.7,592.8,482.6,591.9,481.5,592.7z"/>
	<path class="st12" d="M180,456.5c0.4,2.3,3.8,2.8,3.3,5.7c-0.1,0.6,1.1,0,1.7-0.1c6.4-1.2,11.5,3.7,10.5,10.3
		c-0.5,3.2,2.8,3.8,3.8,5.8c0.8,1.1,1.9,0.2,3,0.4c0.7,0.1,1.7,0,1.3,1.3c-0.5,1.1-4,0-2.1,3c0,0.1-0.6,0.8-1.2,1.1
		c-0.7,0.3-1.2,0.1-1.4-0.8c-0.3-1.9-1.8-2.2-3.4-2.9c-2.8-1.2-3.3-4.1-3.1-6.9c0.5-6.5-0.7-8.2-6.5-8.3c0.4,1.4,2.2,3-0.3,3.8
		c-2.1,0.6-2.1-1-2.3-2.4c-0.1-1-0.2-1.9-1.9-2.1c0.6,2,1.1,4,1.6,5.9c0.6,2.3,2,4.6,5.1,4.7c1.2,0,1.8,1.2,1.7,2
		c-0.2,1.4-1.5,0.7-2.3,0.6c-5.6-1.1-9.7-7.3-8.2-12.5c1-3.6-2.3-3.5-4.2-4.6c-0.6-0.5-1.1-1.1-1.2-1.9c-0.1-3,2-3,4-3
		C178.6,455.6,179.3,455.7,180,456.5z"/>
	<path class="st13" d="M620.1,520.2c0.5-0.3,1.2-0.6,1.7-1c1.8-0.6,3-2,4-3.5c0.7-1.1,1.5-1.9-0.6-3c-2.8-1.4-1.1-4-0.3-6.2
		c3.6-1.9,6.5-3.9,6.5-8.8c0-2.4,2.5-4.8,5.5-5.5c1.3,1.5-1.2,2.3-0.6,3.7c0.8,1.6-1.1,2.8-0.7,4.2c1.1,1,1.2,2,0.4,3.2
		c-3,5.3-3.2,12.2-8.9,16.1C624.7,521.2,622.6,522.4,620.1,520.2z"/>
	<path class="st8" d="M503.1,581.1c-1.5,0.1-3.4,0.2-4-1.1c-0.6-1.5,1.1-3.1,2-3.7c1.7-1.3,3.5-4,6.3-1.6c0.6,0.5,1.3,0.3,1.9-0.1
		c3-1.8,5.2-1.2,6.4,2.2l0.1,0.1c-0.3,1.7-4.5,3.3,0,5.1c0.7,0.3,0.8,1.8-0.1,2.9c-3.4,3.7-10.3,4.4-14.4,1c-1.2-1-2.2-1-3.5-0.5
		c-2,0.5-3.5-0.1-4.7-1.7l-0.1,0.1c1.6-0.3,3.4-0.3,4.9-1c2.4-1.2,4-0.8,4.9,3.2C503,583.4,503,582.2,503.1,581.1
		c3.7-1,3.8-0.8,3.4,3.5c1.6,0.3,3.3,0.1,3.7-1.6c0.4-1.7-1.5-3.4-0.8-5.3c-1.5-0.2-3.1-0.2-4.4,0.7
		C504.1,579.2,503.9,580.5,503.1,581.1z"/>
	<path class="st14" d="M635.9,503.5c-0.3-1.2,0-2.9-2-2.9c1.3-1.5,2.8-2.3,4.7-1.5c1.5,0.6,0.6,1.8,0.5,2.8c3.2-0.7,3.9-4.8,6.6-5
		c-0.7,0.4-2.5,0.6-3.4-0.3c-2.2-2.7-4.6-1.4-6.9-0.7c-1.3-1.9,1.3-2.3,1.4-3.6c1.1-0.5,2.2-1.2,3.3-1.7c0.4-0.1,1-0.3,1.2-0.1
		c4.2,3.8,5.8-0.5,8.3-2.5c-1.2,0.5-1.8,2.4-3.6,1.2c-0.1-1.3,0.1-2.4,1.2-3.3c0.8-1.5,2.3-2,3.9-2.5c1.9-0.2,3.8-0.3,4.6,2.1
		s1.8,0.1,2.7,0.1c0.8-0.4,1.5-1.2,2.4-1.4c1.4-0.3,2.2-0.1,1.4,1.6c-1.4,2.4-3.6,4.1-6.4,4.1c-5,0-6.3,3-6.7,7
		c-0.4,3.7-7.1,9-10.9,9C636.3,506,636,504.9,635.9,503.5z"/>
	<path class="st15" d="M262.9,532.6c1.5,0.2,2.5,1.2,3.3,2.3c1,1.9,3.5,3.2,2.7,5.8c-0.1,1.5,0.3,3.2-1.8,3.4
		c-0.8,0.6-0.7,1.8-1.5,2.4c-1-0.2-2.1-0.5-2.3-1.5c-1-4.4-5-5.7-7.8-8.4c0.5-1.2-0.6-1.3-1.2-1.8c0.2-2-0.3-4.1,1.5-6.1
		c1.3-1.4-2.1-2.8-1.5-4.8c2.5-1.7,4.1,0,5,1.8C260.3,528.4,262,530.3,262.9,532.6c-0.1,0.4-1.4,0.4-0.5,1.3
		c0.1,0.1,0.4,0.5,0.4,0.1C262.8,533.6,262.5,533,262.9,532.6z"/>
	<path class="st16" d="M265.5,546.7c-0.1-1.4-0.6-2.9,0.7-4c2.4,2.3,4.7,4.6,8.7,2.9c1.9-0.8,4.1-0.2,5.3,2c1,1.8,1.9,1.2,2.8,0
		c0.4-0.1,0.7,0,1.1,0.2c5.9-1.1,13.2,1.9,15.2,6.4c-1.7,1.1-1.7-1.5-3-1.4c-0.8-0.4-1.7-1-2.7-1.4c-1.5,0.1-3.3-0.7-3.6,1.9
		c-0.2,1.5-1.4,2.2-3,2.3c1,2.3,3.4,2.4,5,3.8c1.1,0.2,2.3,0.3,0.8,1.7c-6.2,0.5-6.2,0.5-10.1-9c-1.5,0.5-0.1,2-1.1,2.9
		c-0.1,0-0.5,0-0.5-0.1c-0.2-2.9-5-3-3.9-6.6c-0.6,0-1.6-0.3-2,0C271.6,551.2,268.6,549,265.5,546.7z"/>
	<path class="st17" d="M651.3,483.9c-1.4,0.6-2.8,1.3-4.1,2c-1-4.9,0.4-7.4,4.9-9.2c2.2,0,4.2-1.4,6.6-1.5c1.1,0,3-0.7,2.7-2.8
		c0.2-0.3,0.3-0.5,0.4-0.8c1.9,0,5-2.7,4.8,2.1c0.1,0.2,0.5,0.6,0.4,0.6c-2.8,3.3-1,8.6-4.9,11.5c-0.1-0.7,0.1-1.8-1.3-1
		c-0.7,0.5-1.5,1.1-2.2,1.6c-1.5-1.1,0.7-2.7-0.6-3.9C654.4,479.2,654.2,479.2,651.3,483.9z"/>
	<path class="st18" d="M577.4,543.5c2.9,0.4,3.3,0.2,3.3-1.9c0.5-1.7,2.2-0.6,3.2-1.4c1.3-1,2.3-0.2,3.2,0.8
		c1.1,1.3,0.4,2.3-0.4,3.3c-0.5,0.6-1.1,1.3-1.8,1.7c-0.5,0.3-1.2,0.5-1.6,0.8c-0.7,1.1-1.6,2-3.1,1.6c-2.4,0.5-4.1,1.9-4.6,4.6
		c-4.7-0.2-5.1-0.6-5.8-5.9c0.5-1.2,2-0.7,2.7-1.8C574.4,545.5,575.9,544.6,577.4,543.5z"/>
	<path class="st19" d="M533.2,578.7c-1-1.5-2-1-3.4-0.5c-1.3,0.3-3.7,0.7-2.3-2.2c0.5-1.2,0.1-1.5-1-1.6c-2.4-0.1-1.2-2-1.5-3.1
		c-0.4-1.6,1.1-1.6,1.9-1.8c1.6-0.3,2.9-1.8,4.7-1c0.7,0.3,1.9,0.3,1.1,1.5c-0.6,1-1.7,1.6-0.3,2.7c1.6,1.3,2-0.7,3.1-1
		c0.4,0,0.7-0.3,1.4-0.3c-2.9,1.4-0.5,4.7-2.5,6.3C533.9,578.1,533.5,578.4,533.2,578.7z"/>
	<path class="st20" d="M140.6,418c0.6-2.9,4.8-1.6,5-3.3c0.6-4.1,2.5-1.1,3.1-0.6c3.2,2.3,2.5,5.7-1.2,7.5c-1,0.4-0.6,1.4-1,2.1
		c-0.4,0-1,0-1.4,0C141.6,423.4,140.3,421.4,140.6,418z"/>
	<path class="st21" d="M90.3,327.8c-0.4,0.4-1,0.7-1.4,0c-2.4-4.2-2.1-0.2-2.9,1.2c-2.9-1.6-4.1-4.7-3.7-7.2c0.3-2.3-1-3.1-1.7-4.5
		c0.2-0.5,0.4-1.1,0.6-1.6c0.4-0.1,0.7-0.1,1.1,0.1c1.5,1.1,1.5,3.8,5,2.3c2.8-1.3,3.8,2.5,4.6,5C92.7,325.2,90.9,326.3,90.3,327.8z
		"/>
	<path class="st22" d="M624.9,506.6c0.5,1.5-1.1,2.9-0.1,4.5c0.3,0.5,0,1.3,1.1,1.5c2.1,0.4,2.4,0.6,1.2,2.5c-1.2,1.8-1.4,5.4-5.2,4
		c-0.8-1.9,1.1-5.1-2.5-5.9c-0.1,0-0.5-2.9,1.2-3.8C621.9,508.6,623.4,507.5,624.9,506.6C624.9,506.7,624.9,506.6,624.9,506.6z"/>
	<path class="st23" d="M254.4,524.2c4.9,3.6,0.8,7.2,0.1,10.8c-3.6,1.8-4.9-0.4-5.7-3.4c-0.5-1.3-2.2-2.9,1-2.9c1.3,0,1.5-1,1.6-2
		c0.2-1.6,0.5-3,2.3-3.4C253.9,523.7,254.1,524,254.4,524.2z"/>
	<path class="st24" d="M195.2,481.7c1.5,0.4,2.3,1.2,2.4,2.9c0.1,2.4,1.7,3.8,3.6,5.2c1.2,0.8,2.1,1.4,3.3,0.2c1-1,1.7-1.3,2.4,0.3
		c0.5,1.3,0.5,2.1-0.7,2.8c-1.2,0.6-2.2,0.8-3.6,0.5c-4.8-1.1-7-4.7-8.9-8.6C193.2,483.9,193.4,482.4,195.2,481.7z"/>
	<path class="st25" d="M227.6,504c-0.7-0.2-1.5-0.5-2.2-0.7c-0.6-0.5-1.1-1.3-1.4-1.9c-2.5-4.2-2.9-4.4-7.5-2.5
		c-0.6,0.2-1.3,0.2-2,0.1c-0.8-0.3-1.4-0.8-1.4-1.8c-0.1-0.7-0.1-1.5-0.2-2.1c-0.5-1.1-0.6-1.8,1-1.7c5.5-0.6,10.5-0.2,13.3,5.6
		C227.7,500.6,228.2,502.2,227.6,504z"/>
	<path class="st26" d="M686.3,445.5c2.5,0.6,4.5-1.3,6.8-1.6c2.9,3.8,0.3,6.7-1.9,9.2c-2.5,2.8-5.5,5.2-9.8,3.4
		c0.8-0.8,1.7-1.7,2.7-2.7c1.1-0.2,2.1-0.7,2.9-1.5c1.3-1.4,3.2-2.8-0.1-4.1C686.1,448,684.6,446.7,686.3,445.5z"/>
	<path class="st27" d="M741.7,359.4c1.5-1.3,2.7-1.8,2.7,1c3.5,0.6,6.8,3.9,10.5,0.5c1.1,0.6,0.8,1.7,1,2.7c-2.7,3.8-7,3.3-10.8,3.9
		c-0.4,0.1-1.4-0.6-1.3-0.7C744.4,364,741,362.3,741.7,359.4z"/>
	<path class="st0" d="M91.3,323.4c-0.8-1.3-0.7-3-2-4c-1-0.7-2-1.7-3,0c-1.7,3.1-2.4,2.7-2.9-0.6c-0.1-1-1.4-1.7-1.4-2.9
		c0.8-1,1.7-0.2,2.7-0.1c5-1.8,9.5,1.6,9.9,7.6C93.4,324.3,92.4,324.2,91.3,323.4z"/>
	<path class="st28" d="M575.6,552.9c0.3-1.1-2-1.8-0.6-2.8c1.5-1.1,3-3,5.3-1.6c-1,1.9-2,3.9-3,5.8c-2.7,5.4-7.1,7.1-13.1,5
		c-0.7-3.2,2.2-1.7,3.3-2.5C570.8,556.8,573.3,554.9,575.6,552.9z"/>
	<path class="st29" d="M213.5,493.3c-0.8,0.3-1,1-1,1.7c-3.7-1.2-4.8-4.4-4.5-7.4c0.4-4.1-1.5-6.2-4.8-7.5c-1.2-1.3-2.4-0.4-3.7-0.2
		c-1.7,0.2-0.5-0.8-0.4-1.5c6.5-0.4,10.6,1.7,11.7,6.1c0.3,1.3,1.3,2.7-0.5,3.9c-1,0.6-1,1.7,0.4,2.5
		C212,491.4,212.7,492.5,213.5,493.3z"/>
	<path class="st30" d="M404.3,588.6c-1-0.2-1.9-0.5-2.5-1.5c-1.7,0.4-2.5-1.3-4-1.7c-2.4-0.6-3.8,0.4-3.4,3c0.1,0.8,0.5,1.7-0.3,2.2
		c-1.2,0.6-1.7-0.2-2.2-1.1c0.1-2-2-3-2.4-4.8c4.8-3,10.6-2.8,14.6,0.5C405,586.1,406.2,587.2,404.3,588.6z"/>
	<path class="st31" d="M212.9,497.1c0.5,0.4,1,0.7,1.5,1.2c1.4,3.4,2.5,7.1,6.7,8.4c0.6,0.2,1.6-0.3,1.8,0.5s-0.5,1.1-1.3,1.2
		c-2.2,0.3-4.2-0.3-6.4-0.8c-3.1-2.3-3.9-5.6-3.7-9.3C211.6,497.2,212.2,497,212.9,497.1z"/>
	<path class="st32" d="M180,456.5c-0.8,0-1.6,0-2.4,0c-0.7-0.6-0.8-1.5-0.6-2.2c0.7-3.8-1.9-5.7-4.4-7.6c-0.1-1.6-3.6,1.9-2.4-1.6
		c3.9-1,7,0.5,9.5,3.5C181.5,451,181.7,453.7,180,456.5z"/>
	<path class="st33" d="M481.3,583.7c-1.2,0.7-2.3,2.5-3.4,0c3.7-4.1,10.1-5.5,14.7-3.4c2.2,1.1,0.6,2.2,0.4,3.4l0.1-0.1
		c-0.3,0.2-0.7,0.3-1.1,0.6c-1.1,0.6-1,3.5-2.5,2.3c-2.1-1.5,1.3-1.5,1.4-2.7c0-0.6,0.7-1.4-0.1-1.7c-1.7-0.7-3.5-2.1-5.3-1.2
		C483.9,581.7,482.1,582,481.3,583.7z"/>
	<path class="st34" d="M370.8,582.8c0.2,1.7-0.6,1.3-1.6,0.7c-2.2-3-1.4-4.1,2.2-4.6c5-0.5,9.2,0.1,12.4,5.4c-1.6,0-2.7,0-3.8,0l0,0
		C377.2,582.8,374.6,579.8,370.8,582.8z"/>
	<path class="st35" d="M244.5,518.4c-1.4,0-2.7,0-3.2-1.6c-0.7-2.8-3.3-4-5.1-6.1c-1-0.7-2-1.2-2.7,0.3c-0.2,0.6-0.5,1.1-1.1,0.4
		c-0.3-0.3-0.6-1-0.7-1.4c-0.2-0.7,0.2-1,0.8-1.1c1.5-0.1,3-0.1,4.6-0.2C241.8,510.3,244.7,513.1,244.5,518.4z"/>
	<path class="st17" d="M646,489.1c2.3,0,2.5-3.7,5.5-3.2c-0.8,4.2-4.7,5.6-7.2,8c-1.6,1.5-2.3,0-2.1-1.4c0.4-2-0.6-2-2-2
		C642.2,490,644,489,646,489.1z"/>
	<path class="st36" d="M267.9,540.9c1.5-2.5-2-3.7-1.7-5.9c2.8,2.3,6.9,0,9.7,2.8c1.7,1.7,4.6,2.5,3.7,5.8c-0.2,0-0.4-0.1-0.5-0.1
		c-1.4-0.6-2.8-1.2-3.9-2c-1.8-1.5-3.5-3.1-5.4,0C269.4,541.8,268.3,541.5,267.9,540.9z"/>
	<path class="st37" d="M174,458.8c0.8,0.3,0.8,1,0.8,1.7c-6.7,0.1-12-6.1-10-11.6c3.2,1.4,1.4,5,3.2,7
		C170.7,455.4,172.7,456.6,174,458.8z"/>
	<path class="st8" d="M567.5,557.7c-0.7,1.4-3.3-0.7-3.4,1.8c-1.6-1.9-3.4,1.3-5.1-0.1c-0.3-1.6,1.7-1.9,1.7-3.4
		c-1.4-1.3-1.4-2.7-0.4-4c1.6-1,2.1,1.2,3.4,1.2s2.4-0.3,3.6,0.4c0.8,0.5,1.8,1.8,0.5,2.1C565.3,556.3,568.3,557.1,567.5,557.7z"/>
	<path class="st34" d="M448.8,588.9c-1-0.2-1.8-0.5-2.8-0.7c-3.6-1.4-6.8-0.2-9.9,1.5c-0.5,0.2-1.1,0.5-1.5,0.7
		c-1.5-1.9-1.6-3.1,1.3-4c4-1.3,7.9-2.7,11.9-0.3C448.9,586.8,450.2,587.3,448.8,588.9z"/>
	<path class="st38" d="M767.8,326.7c-0.4,0-0.8,0-1.2,0.1c-4.2-5.4-3.2-8.6,4.2-13.3c1.2,1.3-0.5,1.7-0.7,2.5
		C768.1,319.3,767.9,323,767.8,326.7z"/>
	<path class="st39" d="M72,310.1c0.1-1.2,0.4-1.9,1.8-1.3c0.8,0.4,1.8,0.8,2.4-0.5c0.5-1.4,1.2-2.8,2.5-0.8c1.3,1.7,3.2,3,4,5.1
		c-0.8,0.7-1.7,0.6-2.4,0c-0.8-1.8-0.8-1.7-2.4-0.8C75.7,312.8,73.8,311.6,72,310.1z"/>
	<path class="st40" d="M771.8,329.2c0.3-0.8,0.5-1.6,0.8-2.4c2.3-2.3,4-5.1,4.8-8.3c-0.1-1.5,0.4-2.7,1.8-3.4l0,0
		c1.5,3.4,1.4,6.8-0.8,9.9C776.9,327.5,774.6,328.8,771.8,329.2z"/>
	<path class="st41" d="M462.9,585.3c-1.4-0.3-3.1,1-4.2-0.8c4.4-1.7,8.7-2.1,12.7,0.7c-1.4,2-2,4.8-5.2,5.1c-1-1.3,0.1-2,0.7-2.9
		c0.2-2.8-1.9-1.6-3.2-1.8C463.4,585.8,463.1,585.6,462.9,585.3z"/>
	<path class="st42" d="M339.5,570.3c-2.1,2.4-3.1-0.7-4.6-0.8c-2,0.4-4.4-2.2-5.9,0.8c-3.7-1.5-1.8-2.8,0.1-4.1
		C333.1,566,336.8,566.8,339.5,570.3z"/>
	<path class="st43" d="M349.2,575.6c-0.8-0.2-1.9-0.1-2.4-1.1c3.8-0.8,7.5-1.9,11.3,0.5c1.5,1,3.1,1.8,3.5,3.9
		C357.1,578.5,354.2,573.1,349.2,575.6z"/>
	<path class="st44" d="M90.6,337.7c1.9-0.1-1.8,3.5,1.6,2.4c2.2,2.3,2.9,5.5,4.4,8.2c-2.5,1.1-3.4-1.7-5.1-2.3
		C90,343.4,88.3,340.7,90.6,337.7z"/>
	<path class="st45" d="M481.5,592.7c-0.3-1.5-0.3-1.6,0-1.5c1.6,0.6,3.1,1.2,4.9,0.8c3.8,0.4,4.6-3.9,7.6-5.2
		C492.8,592.8,488.8,594.5,481.5,592.7z"/>
	<path class="st46" d="M248.7,531.7c1.6,1.6,2.7,4.1,5.7,3.4c1.5,0,1.5,0.8,1,1.9c-2.3,1.8-4.1,0.3-6.1-0.8
		C246.9,532.8,246.9,532.8,248.7,531.7z"/>
	<path class="st47" d="M547.3,570.4c-0.5-1-1.6-0.6-2.4-1.2c0.2-1.1,1.2-0.4,1.7-0.7c2.5-1.5,5.4-2,8.1-3.2c1.3,0,1,1.1,1.2,1.8
		C553.7,569.9,550.9,570.9,547.3,570.4z"/>
	<path class="st48" d="M661.3,472.4c0.4,1.3,1.5-0.6,2,0.7c-2.5,4.1-8.8,1.3-11.4,5.7c-1.3-1.2,0.4-1.6,0.1-2.3
		C654.6,474,659.1,475.7,661.3,472.4z"/>
	<path class="st49" d="M313.8,569.2c0.1,1.4-0.3,1.6-3.3,2c-0.2-0.1-0.5-0.1-0.7-0.1c-1.7-1.7-6.6-1.2-4.2-5.8
		C308.2,566.8,310.7,568.5,313.8,569.2z"/>
	<path class="st50" d="M562.9,554.4c-2,0.3-1-2.4-2.5-2.5c1.4-1.9,1.6-5.2,5.2-4.5c0.4,0.1,0.6,0.4,0.6,0.7
		C565.2,550.2,564.6,552.7,562.9,554.4z"/>
	<path class="st51" d="M103.9,366c-1.6-2.5-2.8-5.2-2.4-8.4c1.1,2.7,3.6,4.2,4.5,6.9C105.5,365.2,105.3,366.4,103.9,366z"/>
	<path class="st52" d="M140.6,418c0.3,2.9,2.7,4.1,4.6,5.8c-3.3,2.7-3.7-1.3-5.3-2.4c0.2-1.8-1.4-3.4-0.4-5.4
		C139.8,416.7,140.2,417.4,140.6,418z"/>
	<path class="st0" d="M103.9,366c0.6-0.5,0.8-1.7,2-1.5c1.8,1.3,1.1,3.4,2,5.6C105.7,368.9,103.4,368.9,103.9,366z"/>
	<path class="st53" d="M77.9,298.3c-0.8-1.3-3.3-0.3-3.3-2.5c1.7,0.4,3.3,1,5,1.4c3,0.7,3.9,2.4,2.4,5.3l0.1-0.1
		C80.5,301.3,80.4,298.6,77.9,298.3z"/>
	<path class="st3" d="M707.3,418.6c0,1.2-1.2,1.8-1.3,3.3c-0.1,2-1.5,3.6-3.9,1.8C703.9,422,704.3,419.1,707.3,418.6z"/>
	<path class="st4" d="M778.3,325c1.5-3.2,1.2-6.5,0.8-9.9C781.9,318.8,781.6,321.5,778.3,325z"/>
	<path class="st32" d="M169,444.8c-2.8-0.7-5.2-1.8-7.4-5.2c2.4,1.2,3.8,3.1,5.8,1.9C168,442.5,169.6,443.1,169,444.8z"/>
	<path class="st54" d="M91.3,323.4c1.1,0,2.1,0,3.2,0.1c0.6,1.8-1.2,2.7-1.5,4.1c-1-0.6-1.8-0.1-2.7,0.3
		C89.6,326.1,92.2,325.2,91.3,323.4z"/>
	<path class="st50" d="M572.5,545.2c1.2,3.4-1.8,1.1-2.4,1.8c-1.1,1-2.3,1.4-3.8,1c-0.2-0.2-0.4-0.4-0.6-0.7
		C567.4,545.2,569.9,544.9,572.5,545.2z"/>
	<path class="st55" d="M80.4,312.6c0.8,0,1.7,0,2.4,0c0.6,1.1,1.2,2.2,1.8,3.3c-0.8,1.3-1.8-0.5-2.7,0.1c-0.2-0.1-0.5-0.1-0.7-0.2
		C81.2,314.6,79.7,313.8,80.4,312.6z"/>
	<path class="st56" d="M284.1,547.7c-0.4,0.1-0.8,0.1-1.3,0.2c-2.5,0.4-3.6-1.6-4.7-3.1c-0.8-1.3,0-2,1.5-1.2l-0.1-0.1
		C281.5,544.4,282.9,546,284.1,547.7z"/>
	<path class="st57" d="M344.8,577c-1.5-0.3-2.9-0.5-4.4-1c-0.5-0.1-1.5-0.5-0.7-1.3c0.3-0.3,1.2-0.1,1.7-0.1
		C343.6,574,344.3,575.5,344.8,577z"/>
	<path class="st58" d="M606.8,520c-0.2,0.8,2.1,0.7,0.7,2c-1.3,1-2.5,1.6-4.1,1.4c-0.4,0-1.1,0.1-1.1-0.1c-0.5-1.2,1.1-1.4,1.3-2.2
		C604.7,520.6,605.8,520.3,606.8,520z"/>
	<path class="st59" d="M560.7,556c1.6,2.2-1.1,2.3-1.7,3.4c-0.2,0-0.4,0.1-0.6,0.2c-0.4,0-1-0.1-1.4-0.1c0.4-0.5,0.8-1.2,1.3-1.7
		C559.1,557.1,559.9,556.5,560.7,556z"/>
	<path class="st18" d="M590.3,547.2c-1.7,2-3.5,2.4-5.2,0c1.6-1.8,3.3-1.6,5-0.3L590.3,547.2z"/>
	<path class="st60" d="M82.1,302.5c1.5,1.6,1.2,3.5,1,5.4c-0.1,0.6-0.4,1.8-1.6,1.2c-0.4-0.3-0.6-1.7-0.6-1.8
		C83.2,306.2,81.5,303.9,82.1,302.5C82.2,302.4,82.1,302.5,82.1,302.5z"/>
	<path class="st61" d="M590,546.7c-1.7,0.1-3.4,0.2-5,0.3c-0.5-0.1-1.2-0.1-1.7-0.2c0-0.7,0.3-1.2,1.1-1.2c2.1-0.7,4.1-1.5,6.5-0.8
		C591.6,545.7,591.6,545.7,590,546.7z"/>
	<path class="st62" d="M432.9,591.2c-1.8,1.4-3.5,1.9-5.3,0C429.4,590.4,431.1,590.1,432.9,591.2z"/>
	<path class="st63" d="M96.5,348.3c-3.5-1.7-3.1-5.3-4.4-8.2c1.6-2,1.8,2.2,3.6,0.7c1.4-1.2,0.7-4.4,2.9-3.7
		c2.1,0.6,3.7,3.1,3.9,5.3C102.9,346.4,100.8,348.2,96.5,348.3z"/>
	<path class="st21" d="M174,458.8c-2-1-3.9-2-5.9-3c1-1.4,0.8-2.8-0.6-4.2c1.7-0.1,2.7-0.1,3.6-0.2c1.7-0.2,2.9-0.8,0.8-2.4
		c-1.9-1.4,0.5-1.6,0.6-2.4c4.8,1.2,6.1,3.6,5.1,10C175.7,456.2,174.5,457,174,458.8z"/>
	<path class="st64" d="M159.9,442.5c-2.3-2.7-5.4-4.6-5.6-8.4c1.9,0.1,5,1.8,3.6-2.5c-0.2-0.7,0.4-1,1-1.2c3.1-1.1,3.6,2,4.9,3.4
		c1.3,1.6,0.7,3.6-1.2,4.6C159.6,439.8,159.5,439.7,159.9,442.5z"/>
	<path class="st65" d="M131.7,404.4c-1.6-3.1-4.8-5.6,0.7-8c0.8-0.3,0.6-2.3,2.8-1c2.2,1.4,2.8,2.7,2,4.9c-0.3,0.8-1.1,1.7-1.8,1.4
		C132.7,400.4,132.8,402.9,131.7,404.4z"/>
	<path class="st66" d="M370.8,582.8c-0.6-0.4-1.1-0.8-0.1-1.5c3.2-1.9,6.9-0.7,9.3,3.2c-1.5,1.1-5.4,0.8-2.2,4.5
		c0.5,0.6-0.7,1.3-1.6,1.4c-2.1,0.2-4.1,0-5.8-1.5c-0.5-0.5-1.8-0.2-1.6-1.5c0.2-1.1,0.8-1.2,1.9-1.4
		C372.7,585.5,372.9,584,370.8,582.8z"/>
	<path class="st66" d="M329,570.3c-1.1-1.5-0.8-2.5,1.1-2.7c1.8-0.1,3.5,0.5,4.9,1.8c0.3,1.4,2.3,2.8-0.2,4c-0.2,0.1-0.5,0.8-0.4,1
		c2.4,2.5,0.2,3.5-1.6,3.8c-2.4,0.3-4.5-1.1-5.9-3c-0.5-0.6-0.7-1.7,1-2C328.8,573,330.4,572,329,570.3z"/>
	<path class="st67" d="M292.1,559.4c-1.9,0.2-3.5-0.3-4.8-1.8c-1.7-1.8-1.7-1.7,0.7-2.9c0.7-0.3,1.3-1,1.5-1.9
		c0.6-3.9,0.6-3.9,4.2-1.5C295.3,554.4,292,556.5,292.1,559.4z"/>
	<path class="st20" d="M313.8,569.2c-3.9,1.1-6.3-1.1-8.3-4c1-1.5,3.2-1.5,3.6-3.8c0.4-2.1,2.2-1.1,3.3-0.4c0.8,0.5,3.1,1.1,1.7,2.5
		C312.1,565.6,311.7,567.2,313.8,569.2z"/>
	<path class="st63" d="M663.7,469c2-1.6,2-4.5,3.7-6.2c1.4-1.3,3.5-4.7,4.8,0.2c0.5,1.8,4.5-0.2,3.4,3.4c-0.7,2.4-4.7,5.8-7.3,5.6
		c-0.3,0-0.2-0.3-0.2-0.5C667.3,468.5,667.3,468.5,663.7,469L663.7,469z"/>
	<path class="st68" d="M707.3,418c1-2.7-0.1-5.9,2.5-8c1.6-1.2,3.1-2.3,4,0.6c0.3,0.8,0.5,1.6,1.6,1.5c4.1-0.4,2.7,2.4,1.7,3.7
		c-1.3,1.8-2.8,3.9-5.6,3.7c-0.6-1.2,1.5-2.9-0.3-3.6C709.4,415,708.7,417.4,707.3,418z"/>
	<path class="st69" d="M697.1,433.8c-1.3-0.1-1.8,2.9-3.4,1.5c-1-0.8,1.8-1.7,1.1-3.4c-1-2.4,0.8-4,2.7-5c1.9-1.1,2.5,0.8,3.4,2.1
		c0.8,1.2,3.9,0,2.9,2.9c-0.6,1.7-0.7,3.7-2.9,4.1c-0.7,0.1-3.2,2.2-2-1.2C698.9,434.2,698.3,433.7,697.1,433.8z"/>
	<path class="st70" d="M724.8,401.9c-1-1.2,1.2-2.2-0.1-3.1c-1.2-0.8-2,0.1-2.8,1c-1.1,1.1-2,0.5-1.9-0.6c0.3-2.8,0.5-5.7,3.3-7.3
		c1.3-0.7,3-1.4,3.5,1c0.1,0.5,0.2,1.2,0.7,1.3c1.3,0.3,3.7-1.8,3.4,1.9c-0.3,3.2-1.4,5.3-4.8,5.5
		C725.7,401.6,725.2,401.8,724.8,401.9z"/>
	<path class="st71" d="M777.4,318.5c0.8,4.1-0.6,7-4.8,8.3c-1.5-6.5-3.2-0.5-4.8-0.1c-1.3-4-1.4-7.8,2.3-10.6
		c1.3,0.4,3.2-0.8,3.6,1.9C774,320.3,776.2,317.5,777.4,318.5z"/>
	<path class="st72" d="M788.4,287.4c1.2-2.1,0.3-4.6,0.8-6.8c0.6-3.3,2.1-3.9,4.9-1.8c0.4,0.3,1,0.8,1.3,0.7c1.2-0.2,3-1.2,2.7,0.8
		c-0.2,1.6,0.6,4-1.7,4.9c-1.2,0.4-2,2.7-3.8,0C791.3,283.3,790,286.7,788.4,287.4L788.4,287.4z"/>
	<path class="st73" d="M783.2,307.3c-0.2-3.5-0.2-3.6-2.8-2.2c-0.5,0.3-1,0.4-1.5,0.1c-1.1-0.5-0.7-1.3-0.6-2.1
		c0.3-2,0.2-4.2,2.3-5.4c1-0.5,1.6-0.5,2.4,0.4c1,1,1.7,3.3,3.8,1.6c0.8,1.2,1.5,2.5,0.3,3.8C786.2,304.8,785.4,306.5,783.2,307.3z"
		/>
	<path class="st74" d="M59.4,269.7c-0.6,0-0.6-1.2-1.6-1c-3.4,1-6.8-1.8-6.3-5.1c0.1-1,0.8-1.7,1.6-1.4c2.5,1,3-1.1,3.8-2.5
		c2.8-0.5,3.9,1.7,4,3.5C61.2,265.4,62.6,268.3,59.4,269.7z"/>
	<path class="st72" d="M46.7,251.1c-1.1-1.9-2.9-2.7-3.2-4.4c-0.4-1.9-2.4-4.6,2.1-3.9c0.6,0.1,1.6-0.7,1.9-1.4c0.4-1,0.7-1.9,2-1.5
		c1.1,0.3,1.9,1.1,1.9,2.4c0,1.5-0.3,3,0.2,4.6c0.3,1-0.7,2.1-2.1,1.6C47.1,247.3,47.1,247.2,46.7,251.1z"/>
	<path class="st75" d="M68.5,279.4c0.4,0.1,1.2,1,1.6,2c0.6,1.8,0.2,3.8,1.3,5.5c0.1,0.2-0.1,0.8-0.3,1c-1.9,1.2-4.2,0.1-6.4,0.7
		c-1.3,0.3-2.8-3-2.5-5.4c0-0.3,0-0.7,0.1-0.7C64.1,281.4,66,280.6,68.5,279.4z"/>
	<path class="st74" d="M436.2,589.5c3.5-3.6,6.4-4.1,9.9-1.5c-1.2,2.1-2.4,4.2,1,5.6c0.6,3.1,0.2,3.4-3.9,2.7
		c-2.4-0.5-6.3,0.5-5-4.5C438.2,591.3,436.8,590.4,436.2,589.5z"/>
	<path class="st70" d="M391.8,589.4c0.8,0.2,2.8,1.5,1.9-0.3c-0.8-1.8-1.6-3,0.2-4.4c2.1-1.6,4.2-0.7,6.2,0.5
		c0.6,0.4,1.2,1.2,1.7,1.8c0.1,1.4-0.7,1.9-1.7,2.4c-0.5,0.3-1.3,1.4-1.2,1.5c1.4,1.5,2.3,2.9-0.6,3.4c-2.7,0.5-4.8-0.5-6.3-2.9
		C391.8,590.9,391.9,590.2,391.8,589.4z"/>
	<path class="st72" d="M415.2,595.5c-0.1-2,3.1-4-0.1-6.2c-0.2-0.1,1.1-1.9,2.3-2.2c2.4-0.5,4.7,0,6.5,2.3c-4.2,1.8-2.2,3.8-0.2,5.9
		C421.7,598.3,418.8,598.3,415.2,595.5z"/>
	<path class="st76" d="M443.1,596.4c1.5-0.6,4.2,0.6,3.9-2.7c0.7-0.8,1.6-1.3,2.4-0.4c0.5,0.6,0.1,1.6-0.5,2.2
		c-1,0.8-1.9,1.5-2.9,2.2C444.8,597.8,443.7,597.6,443.1,596.4z"/>
	<path class="st77" d="M415.2,595.5c2.9,1.4,5.6,3,8.5,0c1.3-0.1,2.2,0,0.7,1.4c-1.5,1.5-8.7,1.8-10.2,0.3
		C413.3,596.1,415.3,596.3,415.2,595.5z"/>
	<path class="st21" d="M554.8,565.2c-1.9,3-5,3.2-8.1,3.2c0-0.4,0-0.8,0.1-1.2c0.3-0.8,2.2-1.6,0.5-2.5c-1.3-0.8-2.4-0.1-2.7,1.6
		c-0.1,0.8-0.3,1.7-1.8,1.4c0.2-3.5,0.7-6.8,4.4-8.5c2.7-1.3,4-0.3,3.7,2.5C550.9,564.4,554.1,563.5,554.8,565.2z"/>
	<path class="st68" d="M754.9,361c-0.8,3.2-3.6,3-5.8,3.7c-0.8-1.2,1.1-2.1-0.3-3.3c-1.2-0.5-4.1,4.6-4.4-1.1
		c1.8-0.2,0.8-1.7,1.1-2.5c0.4-1.8,1.6-2.9,3.1-3.4c1.4-0.5,2,1.6,2.5,1.7C753.8,356.8,754.4,358.6,754.9,361z"/>
	<path class="st78" d="M761.2,346.2c0.4-5.5-1.8-3.3-3.7-1.8c-1.3-4.4-0.5-7.8,2-8.6c2.7-1,3.4,4,6.5,2.3
		C766.5,341.5,764.3,343.7,761.2,346.2z"/>
	<path class="st79" d="M231,516c0.5,3.5,3.1,4.8,6.1,5.6c-1.3,2.3-2.9,1.3-4.5,0.3c-2-1.2-3.4-3-3.8-5.2
		C228.5,516.1,230.4,517.2,231,516z"/>
	<path class="st20" d="M467.9,587.8c-0.6,0.8-2.3,0.8-1.7,2.5c-1,1.8,4.5,1.4,1.4,3.8c-2.8,2.2-5.8,1.3-7.8-2
		c0.7-0.8,2.4,0.7,2.8-0.8c0.2-1.2-0.8-1.5-1.7-2.2c-3.1-2.9,1.9-2.1,2-3.7c0.2,0,0.5-0.1,0.7-0.2
		C465.9,584.8,467.7,585.2,467.9,587.8z"/>
	<path class="st80" d="M635.5,496c1.3-0.8,2-2.2,3.6-2.8c1-0.3,2-1,2,0.7c0,2.5,2.2,2.1,3.6,2.5c2.1,0.7,1.2-2.2,3-2.5
		c-1.3,1.4,1.1,4.4-3.1,4.7c-1.1,0.1-2.9,3.7-5.1,4.8c-0.5,0.2-1.6,0.7-2.1-0.3c-0.7-1.6,1.6-1.6,1.6-2.9c-1.8-1.1-3.5-0.6-5.1,0.5
		c-1.4-0.4-0.4-1.1,0-1.3C635.9,498.8,635.8,497.5,635.5,496z"/>
	<path class="st81" d="M651.3,483.9c-1.2-3.8,2.3-4.2,4.1-6.2c1.3,1.8,0.6,5.9,5.1,3.2c-0.8,2.2-1.4,3.8-2,5.5
		c-1.3,0.7-2.4,1.7-4.5,1.5C656.1,484.5,654.1,483.9,651.3,483.9z"/>
	<path class="st36" d="M262.9,532.6c0.7,1.1,1.6,2.2,2.9,3.9c-3.2-0.7-4.5-2.7-5.9-4.4C261,531.2,261.9,532.8,262.9,532.6
		L262.9,532.6z"/>
	<path class="st73" d="M566.1,548.1c1.3-0.2,2.3-1.4,3.8-1c1.2,2.7,1.8,5.7,5.6,5.7c-1.4,3.8-4.4,5-8.1,4.9c-3.7-1.5,0.2-2,0.3-3
		c-1.6-1.7-3.4-0.4-5.1-0.3C562.7,551.6,564.4,549.8,566.1,548.1z"/>
	<path class="st11" d="M467.9,587.8c-1-1.7-2.3-2.7-4.4-2.8c2.1-1.4,3.7-0.1,5.1,1.1C469.8,587.1,468.5,587.4,467.9,587.8z"/>
</g>
<g>
	
		<ellipse transform="matrix(0.6126 -0.7904 0.7904 0.6126 -407.1615 543.6478)" class="st82" cx="351" cy="687.2" rx="6.8" ry="3.5"/>
	<path class="st82" d="M441,568.2c-3-2.2-2.2-5.8-0.4-7.1c2.9-2.2,3.9-4.8,4.7-7.8c1.3,3.2,0.7,6.3-0.4,9.4
		c-2.2-1.1-1.7,1.2-2.2,1.9C441.9,565.7,441.5,567,441,568.2z"/>
	<path class="st82" d="M437.7,624.6c2.2-4.6,5.9-8.1,8.6-12.4c-0.1,4.4-1.1,8.5-5,11.2h-0.2l0.2,0.1c0.3,1.4-0.5,1.5-1.6,1.4
		c-0.5,0.2-1.1,0.4-1.6,0.7h0.1C437.9,625.3,437.8,625,437.7,624.6z"/>
	<path class="st82" d="M437,629.2c0-0.8-0.1-1.5-0.1-2.3c0-0.7,0.7-0.9,1.1-1.2h-0.1c0.2,0.4,0.5,0.8,0.7,1.1
		C438.7,628,438.2,628.8,437,629.2z"/>
	<path class="st82" d="M401.1,714.8c0.9-0.7,1.5-1.6,1.3-2.8c0.8,0.1,1.6,0.2,2.3,0.3C405.4,715.9,403.7,716,401.1,714.8z"/>
	<path class="st82" d="M470.2,660.6c-1.3-1.3-1.7-0.2-2.5,0.7c-4.4,4.4-8.6,8.9-13.8,12.5c-1.8,1.2-3.5,1.9-5.2,0
		c2.1-1.5,4.5-2.8,6.4-4.6c1.8-1.8,4.7-2.9,4.9-6c0.3-1.5,0.9-2.5,2.7-2c0.8-2.6,5.2-2.8,4.1-6.6l0.1-0.1c1-0.1,1.6-0.7,2-1.5
		C472.7,656.3,473,658.6,470.2,660.6z"/>
	<path class="st82" d="M466.9,654.5c-0.1-0.5-0.3-1-0.4-1.5c0.8-0.4,1.6-0.4,2.4-0.1C468.5,653.8,467.9,654.4,466.9,654.5z"/>
	<path class="st83" d="M371.1,657c0,3-0.3,6.1,1.6,8.9c0.5,0.7,0.1,1.4-0.9,1.5c-0.4,0-0.8-0.1-1.1-0.1c-4.1,0.5-4.2,0.5-6.3,4
		c-0.1,0.1-0.1,0.3-0.2,0.3c-4.9,1.5-4.9,6.7-7.4,10c-0.7-1.5-0.5-3-0.5-4.6c1.5-1.7-0.6-2.6-0.8-3.8c0.6-0.9,2.5-0.4,2.5-2.3
		c-0.9-0.7-2.6,0.1-3.2-1.3c2.1-0.5,4-1.4,5.5-3C363.7,663.1,368,660.7,371.1,657z"/>
	<path class="st82" d="M403.3,687.7c0-2.6,1-4.7,2.8-6.5c1,1.9,2.8,0.8,4.2,0.9c-0.3,1.8,1.7,4.4-1.7,5.1l-0.3-0.1l0.2,0.1
		c0.7,0.8,1.4,1.7,2.2,2.5c1.6,1.5,2,0.3,2.2-1.1c0.9-0.2,1.7-0.4,2.6-0.5c0.1,0.1,0.2,0.3,0.2,0.3c-3.2,3.7-3.3,9.8-8.6,11.8
		c-2.9,1.1-3.8-1.5-4.7-3.6c1.5-2.5,4.2-4.5,2.6-7.9C404.6,688.4,403.9,688,403.3,687.7z"/>
	<path class="st82" d="M357.7,706.7c-4.8,0.3-1.5-2.1-1.2-3.6c-0.2-0.2-0.4-0.3-0.7-0.4c-0.1,1.2-0.8,2.4-2.2,3
		c-0.2,0.1-0.4,0.1-0.6,0.2c0,0.5,0,1,0,1.5c0.4,2.1,2.9,3,2.9,5.5c0,1,1.7,0.8,2.6,0.8c1.5,0,0.8-1.3,0.7-2
		C359,709.9,358.9,708.2,357.7,706.7z"/>
	<path class="st82" d="M388.3,653.4c0.5,1.2,2.2,0.2,2.8,1.7c-1.8,0.5-3.9,0.8-2.4,3.5c-2.1,1.5-3.7,3.7-6.4,4.5l0,0
		c-1-2.1-2.9-2.8-4.9-2.7c-2.2,0.1-2.4-1.4-2.7-2.8c-0.1-0.4,0.3-0.9,0.6-1.2c0.4-0.4,1-0.1,1.2,0.3c2.1,4.1,2.5-0.1,3.6-0.8
		c4,3.1,3.6-1.9,5.4-2.9C386.4,653.9,387.4,653.7,388.3,653.4z"/>
	<path class="st82" d="M354.5,667.9c1.8-0.3,2.5-1.9,3.6-3.1c2.2-2.3,4.6-4.6,7.5-6.1c1.3-0.7,3.1-1.2,1.3-3.2
		c-0.7-0.7-0.2-1.3,0.5-1.8c1.6-1,2.4,0.7,3.6,1.1c0.6,0.7,0.5,1.4,0.2,2.1c-3.1,3.8-7.4,6.2-10.8,9.7c-1.5,1.5-3.4,2.5-5.5,3
		c-0.3,0.2-0.6,0.3-0.9,0.5c-0.6-0.2-1.2-0.4-1.8-0.6c0.2-0.4,0.3-0.7,0.5-1.1C353.3,668.3,353.9,668.1,354.5,667.9z"/>
	<path class="st82" d="M400.2,664.8c0.4,2.6-3.6,3.8-2.3,6.8c0.3,0.7,0.2,1.6,0.7,2.4c2.7,4.7,2,10.8-1.6,14.8
		c-0.1-3.9,1.1-7.7,0.4-11.6c-0.5-2.8-2-5.4-1.6-8.3C396.3,666.5,396.8,664.2,400.2,664.8z"/>
	<path class="st82" d="M370.7,651.4c-5.1-0.5-8.9,2-11.9,6.1c-1.6,2.2,2.9,1.8,0.6,3.4c-1.2,0.9-3.1-1.2-3.8,1.1
		c-0.2,0.5-0.8,0.9-1.2,1.4c-0.9-5.8,6.5-14.3,12.3-14.1C368.1,649.3,371.4,646.8,370.7,651.4z"/>
	<path class="st82" d="M400.1,710.3c-0.6,0.3-1.1,0.6-1.7,0.9c-1-3.2-3.7-3.1-6.3-3.2v0.1c1-1.1,2-2.2,3-3.4
		c0.8,0.9,1.4,1.7,2.8,0.7c1.3-1,2-2.1,1.5-3.8C402,703.7,402.3,707.4,400.1,710.3z"/>
	<path class="st82" d="M384.2,689.5c1.6-0.8,1.7-2.3,1.8-3.8c0.1-1.5,1.4-2.2,2.4-3.1c0.1,3.4,1.8,7.1-2.3,9.5
		c-0.9,0.5-1,1.7-1.1,2.7c-0.2,3-1.6,2.1-3.1,1c1.8-0.8,2.8-2.1,2.3-4.2C384.3,690.9,384.2,690.2,384.2,689.5z"/>
	<path class="st82" d="M381.8,713c-1.9-0.6-2.7-0.2-1.9,1.9c0.3,0.8,0.7,2-0.4,2.2c-1.2,0.2-1.4-1.1-1.5-2.1c-0.3-4.2,3.2-8.5,7.4-9
		c0.6-0.1,1.4-0.2,1.6,0.5c0.5,1.8-1.3,2.2-2.2,3.1C383,710,382.8,711.9,381.8,713z"/>
	<path class="st82" d="M432.2,681.2c0.5,0.7,0.4,1.4,0,2.1c-0.7,1-9.7,4.1-10.8,3.9c-1.2-0.2-1.4-1.2-1.9-2.1
		c1.1-0.4,2.1-0.8,3.2-1.3c0.7-0.2,1.4-0.5,2.1-0.7c0.8-0.1,1.6-0.2,2.4-0.3c1-0.4,1.9-0.8,2.9-1.2
		C430.7,681.5,431.4,681.4,432.2,681.2z"/>
	<path class="st82" d="M361.9,717.5c0.9-1.3,2.1,0.3,3.3-0.4c0.6-1.1-2.5-3,0.2-3.7c2-0.5,4.4,1.4,4,2.9c-0.6,2.5,1.7,1.8,2.3,2.8
		C368,720.5,365.5,720.1,361.9,717.5z"/>
	<path class="st82" d="M391.4,647.2c-1.1-0.2-2.3-0.3-3.4-0.5c-0.3-0.4-0.7-0.8-1-1.2h-0.1c2-0.2,2.7-2,4-3.1
		c1.3,3.1,4.7,2.2,6.9,3.7c1.2,0.8,2.5,1.1,0.5,2.4c-1.7,0.9-3.4,1.8-5.1,2.7c-0.2-0.4-0.4-0.8-0.6-1.2v-0.2c0.5-0.2,1-0.3,1.3-0.6
		c0.6-0.6,2.1-1,1.4-2.2c-0.4-0.8-1.5-0.6-2.4-0.4C392.3,646.8,391.9,647,391.4,647.2z"/>
	<path class="st82" d="M405.5,658c-1.2-1.8,2.4-4.1-0.7-5.7c0.7-0.8,1.4-1.5,2.1-2.3c3.4,1.1,2.4,4.5,2.7,6.7
		C409.7,658.6,407.3,659,405.5,658z"/>
	<path class="st82" d="M409.4,668.3c-0.8,0.5-1.6,1-2.4,1.6c-0.7,0.5-0.6,2.3-2,1.4c-0.9-0.6-0.6-1.8-0.7-2.8
		c-0.1-1.5,0.7-1.3,1.9-1.2c2.2,0.2,1-1.5,1.1-2.5c0.8,0.4,1.5,0.9,2.3,1.2c1,0.3,2.8-0.5,2.8,1C412.4,669,410.3,667.6,409.4,668.3z
		"/>
	<path class="st82" d="M410.3,682.1c-1.4-0.2-3.1,1-4.2-0.9c1.2-1.5,2.4-3,3.6-4.5c0.6,0.7,1.2,1.4,1.8,2.1c0.4,1.1,2.7,0.9,2.2,2.5
		C413.2,683.1,411.5,682.1,410.3,682.1z"/>
	<path class="st82" d="M353.4,685.8c-0.3-0.8-0.6-1.5-1-2.3c1.6-0.8,1.4-2.1,1-3.4c0.2-1.8,0.8-3.2,3-3.1c-0.1,1.5-0.2,3.1,0.5,4.6
		c-0.4,1.7-0.9,3.3-1.3,5c-0.5,0.1-0.9,0.2-1.4,0.2C353.9,686.4,353.7,686.1,353.4,685.8z"/>
	<path class="st82" d="M384.3,691.6c0.5,2.1-0.4,3.4-2.3,4.2c-1,0.1-2.1,0.3-3.1,0.4c-0.4-0.4-0.9-0.5-1.4-0.2
		c-0.4,0.8-1.1,0.8-1.8,0.4c-0.3-1.6,0.4-2.7,1.6-3.7c0.8,0.8,1.7,0.2,2.6,0.1c0.3,1.4,1,2.1,2.3,0.9
		C382.9,693,383.6,692.3,384.3,691.6z"/>
	<path class="st82" d="M431.2,662.6c0.8-0.4,1.9-0.4,2.1-1.7c0.3-0.1,0.5-0.3,0.8-0.4c2,2.9,5.2,0.5,7.5,1.7
		c-0.1,0.4-0.2,0.7-0.3,1.1c-0.8,0.6-1.8,1.1-1.7,2.4c-0.3,0.1-0.7,0.2-1,0.4c-1.3-3.7-4.4-2.4-7-2.4
		C431.4,663.3,431.3,663,431.2,662.6z"/>
	<path class="st82" d="M384.8,711.7c0.3,0.9,0.6,1.9,0.8,2.8c0,0.2-0.1,0.4-0.1,0.5c0.3-0.1,0.6-0.1,0.8-0.2c2,0.6,2.1,2.2,1.9,3.9
		c-0.1,0.6-0.9,0.8-1.5,0.7c-2-0.3-2.4-1.9-2.7-3.5C384,714.5,382.8,712.9,384.8,711.7z"/>
	<path class="st82" d="M408.7,635.9c-0.5,1.3-2.8,1.9-1.7,4c-1,0.7-2.4,1.7-3.2,0.4c-0.8-1.4,0.3-2.9,1.7-3.6
		C406.4,636.1,407.6,636.1,408.7,635.9z"/>
	<path class="st82" d="M423.9,676.9c0.7,0.8,1.7,1.4,1.9,2.6c-1.4,0.1-2.4-0.9-3.6-1.3c-0.9-0.3-2.1-1.7-3,0.2
		c-0.8-0.2-1.3-0.6-1.6-1.3v0.1C419.5,675.4,421.6,673.9,423.9,676.9z"/>
	<path class="st83" d="M405.2,688.7c1.5,3.4-1.2,5.5-2.6,7.9c-0.8,0.1-1.5,1.3-2.3,0.2c-0.6-0.8,0-1.3,0.7-1.7
		C403.3,693.6,403.5,690.7,405.2,688.7z"/>
	<path class="st82" d="M462.3,660c-0.8-1,2.7-2.1-0.1-3c0.1-0.4,0.2-0.8,0.2-1.2c1.6,0.2,3-0.3,4.4-1.2c1.1,3.7-3.4,4-4.1,6.6
		C462.4,660.8,462,660.5,462.3,660z"/>
	<path class="st82" d="M380.8,682.7c0.9,2.8,1.2,5.6-0.8,8.2l0,0c0-1-0.6-1.8-1.2-2.5C379.1,686.4,379.8,684.5,380.8,682.7z"/>
	<path class="st82" d="M389.6,658.5c1.3-1,2.4-2.2,4.3-1.2c0.2,1.1,0.4,2.1,0.6,3.2c-0.4,0.4-0.9,0.8-1.3,1.2
		c-0.2-0.3-0.5-0.6-0.7-0.9C391.5,660,390.6,659.2,389.6,658.5z"/>
	<path class="st82" d="M448.5,659.4c-3-0.4-5.9,0.1-8.8,0.3c0.5-0.6,1-1.1,1.5-1.7c0.7-0.4,1.3-0.7,2-1.1h0.1c1.4,1.1,3,1,4.7,0.9
		C448.1,658.3,448.3,658.9,448.5,659.4z"/>
	<path class="st82" d="M440.3,681.5c1.7-1.5,2.8-2.7,4.1-3.6c0.8-0.6,2.1-1.7,2.9-0.5c0.9,1.3-0.6,1.9-1.6,2.3
		C444.2,680.4,442.7,681.3,440.3,681.5z"/>
	<path class="st82" d="M411.6,678.8c-0.6-0.7-1.2-1.4-1.8-2.1c-0.3-1.1-0.9-2.1,0.1-3.1C412.4,674.6,414.1,676,411.6,678.8z"/>
	<path class="st82" d="M406.9,650c-0.7,0.8-1.4,1.5-2.1,2.3c-1.5-0.5-1.8-2.1-2.8-3.1c-0.6-1.2-0.1-1.8,1.1-1.4
		C404.5,648.3,405.9,648.8,406.9,650z"/>
	<path class="st82" d="M378.1,647.3c-1.2,0.1-2.9,1.7-3.4-0.4c-0.5-1.7,1.4-1.6,2.6-1.8c1.1-0.2,2.2-0.7,3.2-1
		c0.2,0.5,0.3,1,0.5,1.5C380.1,646.2,379.1,646.8,378.1,647.3z"/>
	<path class="st82" d="M378.1,647.3c1-0.6,1.9-1.1,2.9-1.7c0.2,0.1,0.3,0.1,0.5,0.2c-0.3,1-0.5,2.1-0.8,3.1c-0.7,1.2-2,1.7-3.2,2.2
		c-0.1-0.5-0.3-1-0.4-1.4C377.4,648.9,377.8,648.1,378.1,647.3z"/>
	<path class="st82" d="M384.8,711.7c-2,1.1-0.8,2.8-0.7,4.3c-1.5-0.4-1.8-1.8-2.3-3c1.1-1.2,1.3-3.1,3.2-3.5
		C384.9,710.3,384.8,711,384.8,711.7z"/>
	<path class="st82" d="M370.3,707.9h0.1c-1.5,0.2-1.9-1-2.5-2c1.5-1,3.1-1.9,4.6-2.9C371.6,704.6,372.3,706.9,370.3,707.9z"/>
	<path class="st82" d="M398.2,655.7c-0.6-1.1-1.2-2.3-1.9-3.4c1.4-1.1,2.7,0.4,4-0.4c0.3,2-1.6,2.4-1.8,3.8l-0.1,0.2L398.2,655.7z"
		/>
	<path class="st82" d="M327.4,624.1c-0.8,0.3-1.1,1.9-2.3,1.1c-1.3-0.8-1.6-2-0.9-3.4C325.5,622.1,326.6,622.8,327.4,624.1z"/>
	<path class="st82" d="M415.6,688.1c-0.9,0.2-1.7,0.4-2.6,0.5c-1.2-1.8-0.1-2.3,1.4-2.8c0.7-0.2,1.4-1.4,2.1-0.2
		C417,686.7,416.7,687.6,415.6,688.1z"/>
	<path class="st82" d="M410.6,672.3c-0.2-0.6-0.3-1.2-0.5-1.8c1.8,0.3,4.1-0.7,5.2,2.1C413.5,673.3,412.1,671.5,410.6,672.3z"/>
	<path class="st82" d="M359.1,703.4c0-0.7,0-1.4,0-2.1c1.6-1,3.2-2.5,5.2-0.8c-1.4,0.1-2.6,0.4-2.8,2.1
		C360.7,702.9,359.9,703.2,359.1,703.4z"/>
	<path class="st82" d="M431.5,663.7c-1,0.3-1.9,0.5-2.9,0.8c-1.4,0.6-2.2,0-2.8-1.2c1.7-1.1,3.5-1.3,5.4-0.7
		C431.3,663,431.4,663.3,431.5,663.7z"/>
	<path class="st82" d="M394.5,660.5c-0.2-1.1-0.4-2.1-0.6-3.2c1.1-1,1.9-0.1,2.7,0.5C396.3,659,395.4,659.8,394.5,660.5z"/>
	<path class="st82" d="M422.4,629c-1.2,1.6-3,2.2-4.9,2.4C418.9,630.1,420.6,629.5,422.4,629z"/>
	<path class="st82" d="M392.1,708.1C392.1,708.1,392.1,708,392.1,708.1c-0.5,0.3-0.9,0.8-1.4,0.9c-0.7,0.1-1.8,0.1-1.8-0.8
		c0-1,1-1.3,1.9-0.9C391.3,707.5,391.7,707.9,392.1,708.1z"/>
	<path class="st82" d="M354.1,686.8c0.5-0.1,0.9-0.2,1.4-0.2c0.2,1.2,0.2,2.4-0.9,3c-1.1,0.5-1.4-0.7-1.8-1.4l0,0
		C353.2,687.7,353.7,687.2,354.1,686.8z"/>
	<path class="st82" d="M434,679.5c1.3-0.1,2.6-0.8,3.9-0.1C436.6,680.9,435.4,682.4,434,679.5z"/>
	<path class="st82" d="M399,701.5c-1.2,0.6-2.3,1.2-3.5,1.8C395.7,700.9,396.6,699.9,399,701.5z"/>
	<path class="st82" d="M392.5,660.7c0.2,0.3,0.5,0.6,0.7,0.9c-0.7,0.7-1.4,1.4-2.2,2.1c-0.2-0.2-0.4-0.5-0.6-0.7
		C391.1,662.2,391.8,661.5,392.5,660.7z"/>
	<path class="st82" d="M420.1,655.7c-0.4,0.2-0.8,0.4-1.2,0.7c-0.9-0.7-1.7-1.5-1.3-2.8C419,653.5,419.7,654.4,420.1,655.7z"/>
	<path class="st82" d="M362.5,703.8c1.4,0.2,3.1-0.8,4,1.2C365,705,363.3,705.8,362.5,703.8z"/>
	<path class="st82" d="M422.6,683.9c-0.3-0.6-0.6-1.3-0.8-1.9c-0.1-0.5-0.2-1.1-0.3-1.6c1.6,0.3,2.1,1.9,3.2,2.8
		C424,683.4,423.3,683.7,422.6,683.9z"/>
	<path class="st82" d="M417,661.6c1-0.8,1.9-1.7,2.9-2.5c0.9,1.7-1.1,2.1-1.5,3.2C417.7,662.5,417.3,662.3,417,661.6z"/>
	<path class="st82" d="M330.3,625.6c-0.1,0.5,0.5,1.2-0.4,1.5c-0.2-0.6-0.5-1.3-0.7-1.9C329.6,625.3,330,625.4,330.3,625.6z"/>
	<path class="st82" d="M414.3,633.4c-0.7,1-1.6,1.3-2.8,1.2C412.3,633.8,413.2,633.5,414.3,633.4z"/>
	<path class="st82" d="M451.5,665c-1.1-0.1-2.2-0.3-2.5-2.1c1.2,0.1,2.5-0.6,2.4,1.5C451.5,664.7,451.5,664.9,451.5,665z"/>
	<path class="st82" d="M417.5,677.2c-0.8,0.1-1.7,0.3-2.3-0.5c-0.2-0.3-0.1-0.8,0.4-0.8C416.6,675.7,417,676.6,417.5,677.2
		L417.5,677.2z"/>
	<path class="st82" d="M382.4,663c0.4,1,0.8,2,1.2,3C382.7,665.2,381.7,664.4,382.4,663L382.4,663z"/>
	<path class="st82" d="M402.1,656.5c1.1,0.1,1.6,0.7,1.9,1.7C402.3,658.8,402.3,657.5,402.1,656.5z"/>
	<path class="st82" d="M451.4,664.5c0.8,0.5,2.4,0.2,2,1.8c-0.2,0.7-0.9,0.5-1.4-0.1c-0.2-0.4-0.4-0.8-0.6-1.2
		C451.5,664.9,451.5,664.7,451.4,664.5C451.5,664.5,451.4,664.5,451.4,664.5z"/>
	<path class="st82" d="M381,645.7c-0.2-0.5-0.3-1-0.5-1.5c0.2-0.2,0.5-0.3,0.7-0.5c0.6,0,1.2,0.1,1.8,0.1c-0.5,0.7-1,1.4-1.6,2.1
		C381.3,645.8,381.2,645.7,381,645.7z"/>
	<path class="st82" d="M353.9,664.8c0.8,0.3,0.9,0.8,0.6,1.5c-0.5,0.2-0.9,0.4-1.4,0.5c0-0.6,0.1-1.1,0.1-1.7
		C353.4,665,353.6,664.9,353.9,664.8z"/>
	<path class="st82" d="M334.4,626.8c-0.8,0.6-1.3,0.1-1.7-0.6C333.4,625.9,334,626.1,334.4,626.8z"/>
	<path class="st82" d="M404.3,664.2c-0.6,0.5-1.3,0.5-2,0.1C403,663.8,403.6,663.7,404.3,664.2z"/>
	<path class="st82" d="M390.5,663c0.2,0.2,0.4,0.5,0.6,0.7c-0.2,0.6-0.6,1.2-1.2,0.7C389.1,663.7,389.8,663.3,390.5,663z"/>
	<path class="st82" d="M377.5,696c0.5-0.3,1-0.2,1.4,0.2C378.4,696.7,377.9,696.6,377.5,696z"/>
	<path class="st82" d="M377,683.6c-0.2-0.7-0.2-1.4,0.3-2.1c0.2,0,0.5,0.1,0.6,0.3c0,0.2,0.1,0.5,0.2,0.7
		C377.7,682.9,377.4,683.3,377,683.6z"/>
	<path class="st82" d="M386.4,715c-0.3,0.1-0.6,0.1-0.8,0.2c0-0.2,0.1-0.4,0.1-0.5C385.9,714.7,386.1,714.8,386.4,715z"/>
	<path class="st82" d="M377.1,649.7c0.1,0.5,0.3,1,0.4,1.4l-0.3,0.2l-0.4,0.1c-0.3-0.1-0.6-0.3-0.9-0.4c0.1-0.3,0.1-0.7,0.2-1
		C376.5,649.9,376.8,649.8,377.1,649.7z"/>
	<path class="st82" d="M308.1,611c-0.3-0.1-0.6-0.3-0.8-0.4C307.7,610.4,308,610.5,308.1,611z"/>
	<path class="st82" d="M376.2,650.1c-0.1,0.3-0.1,0.7-0.2,1C375.7,650.7,375.7,650.3,376.2,650.1z"/>
	<path class="st82" d="M378.1,682.5c-0.1-0.2-0.1-0.4-0.2-0.7c0.1,0.1,0.3,0.3,0.4,0.4C378.3,682.3,378.2,682.5,378.1,682.5z"/>
	<polygon class="st82" points="441.2,623.6 441,623.4 441.2,623.5 	"/>
	<path class="st82" d="M448.5,659.4c-0.2-0.5-0.4-1.1-0.6-1.6c4.7-1.7,9.5-2.4,14.5-2c-0.1,0.4-0.2,0.8-0.2,1.2
		C457.8,658.6,453,658.3,448.5,659.4z"/>
	<path class="st82" d="M345.7,690.9c0.9-5.2,1.8-10.5,2.6-15.7c1.6-1.7,2-4.2,3.8-5.7c0.6,0.2,1.2,0.4,1.8,0.6
		c0,0.2-0.1,0.4-0.2,0.6c-1.2,0.4-1.8,1.2-1.5,2.5c-0.1,0.2-0.1,0.4-0.2,0.6c-0.4,0.6-0.4,1.2-0.1,1.8c0,0.3,0,0.6-0.1,0.9
		c-0.6,0.5-1.2,1-1.7,1.5c-0.9,1.3-1.3,2.7-0.8,4.3c-1.3,1.2-1,2.6-0.5,4.1C348.6,688.4,347.5,689.9,345.7,690.9z"/>
	<path class="st82" d="M353.1,666.8c0.5-0.2,0.9-0.4,1.4-0.5c0,0.5,0.1,1.1,0.1,1.6c-0.6,0.2-1.3,0.3-1.9,0.5
		C352.8,667.9,352.9,667.4,353.1,666.8z"/>
	<path class="st82" d="M309.9,619.3c0.2-0.3,0.3-0.7,0.5-1c1.9,0.3,1.5,1.6,1.1,2.8C310.7,620.8,310.2,620.1,309.9,619.3z"/>
	<path class="st82" d="M403.1,679.2c-0.4,0.2-0.8,0.2-1-0.2c-0.1-0.2,0.1-0.5,0.1-0.7c0.3,0.1,0.7,0.1,1,0.3
		C403.3,678.5,403.1,678.9,403.1,679.2z"/>
	<polygon class="st82" points="402.1,672.1 402.1,672.3 401.9,672.1 	"/>
	<path class="st82" d="M389.6,649.5c0.3,0.5,0.5,0.9,0.8,1.4c0,0.2,0.1,0.4,0.2,0.5c-0.8,0.7-1.5,1.3-2.3,2c-1,0.3-1.9,0.5-2.7-0.4
		c0.1-0.2,0.3-0.5,0.4-0.7C387.1,651.1,388,649.9,389.6,649.5z"/>
	<path class="st82" d="M390.7,651.4c-0.1-0.2-0.2-0.3-0.2-0.5c0.7-0.3,1.3-0.6,2-0.9c0.2,0.4,0.4,0.8,0.6,1.2
		C392.3,651.7,391.5,652.1,390.7,651.4z"/>
	<path class="st83" d="M349.3,682.2c0.6,0.5,1.1,1.1,1.7,1.6c-0.2,1.3-1.1,2-2.2,2.5C348.3,684.9,348,683.5,349.3,682.2z"/>
	<path class="st82" d="M384.3,691.6c-0.7,0.7-1.4,1.4-2.1,2.1c-1.3,1.2-1.9,0.6-2.3-0.9c1.4-1.1,2.9-2.2,4.3-3.3
		C384.2,690.2,384.3,690.9,384.3,691.6z"/>
	<path class="st82" d="M391.4,647.2c0.5-0.2,0.9-0.4,1.4-0.5c0.9-0.3,2-0.4,2.4,0.4c0.6,1.2-0.8,1.5-1.4,2.2
		c-0.3,0.3-0.9,0.4-1.3,0.6C392.1,648.9,391.8,648,391.4,647.2z"/>
	<path class="st82" d="M389.6,649.5c-1.6,0.4-2.5,1.6-3.6,2.8c-0.2-1-1.3-2.1,0.1-2.9C387.2,648.8,388.6,647.9,389.6,649.5z"/>
	<path class="st82" d="M384.1,647.4c0.5-1.3,1.5-1.9,2.8-1.9c0.3,0.4,0.7,0.8,1,1.2C386.7,646.8,385.9,650.1,384.1,647.4z"/>
	<path class="st82" d="M425.8,679.5c1.9-0.2,2.6,1.8,4.2,2.2c-1,0.4-1.9,0.8-2.9,1.2C427.8,681.3,425.9,680.7,425.8,679.5z"/>
	<path class="st82" d="M391,600.9c0.6-0.1,1,0,1.3,0.6C391.7,601.6,391.2,601.4,391,600.9z"/>
	<path class="st82" d="M353.7,670.7c0.6,0.8,1.3,1.7,1.9,2.5c-1.1,0-2.3,0-3.4,0C351.9,671.9,352.5,671.1,353.7,670.7z"/>
	<path class="st82" d="M350.7,678.4c-0.2-0.2-0.4-0.3-0.6-0.5c0.6-0.5,1.2-1,1.7-1.5C351.9,677.3,351.3,677.9,350.7,678.4z"/>
	<path class="st82" d="M352,673.8c0.5,0.6,0.5,1.2-0.1,1.8C351.6,674.9,351.6,674.3,352,673.8z"/>
	<g>
		<g>
			<path class="st83" d="M441,568.2c-5.9,14.4-14.9,26.4-27.6,35.6c-0.3,0.2-0.7,0.4-1,0.5c-7.5,1.5-7,7.6-7,12.9
				c0,6.3-1.8,12.1-4.7,17.5c-1.4,2.6-1.6,6.1-5,7.5c-1.3,0.5-2.2,0.9-3.2-0.2c0.5-1.7,3.1-2.1,2.6-4.4H395c1.5-0.1,1.6-1.2,1.5-2.3
				h-0.1c0.5-0.5,0.8-1.1,0.1-1.7l0.1,0.1c1.1-0.3,1.1-1.1,0.9-1.9c0.4-1.6,0.9-3.1,1.3-4.7c0.7-0.9,1.2-1.8,1.3-3
				c0.8-2.5,1-5,0.6-7.6c0.3-0.8,0.1-1.5-0.2-2.3c0.4-2.7,0.6-5.3-1.5-7.4c-0.4-2.9-1.1-5.8,3.2-6.3c7.7-0.9,13.9-4.7,19.6-9.7
				c1.4-0.2,2.1-1.3,2.9-2.2c5.3-5.8,8.8-12.5,10.6-20.1v-0.3H435c0.8-0.1,0.8-0.5,0.4-1l0.1,0.2l0.2-0.1c2.8-6.5,3.7-13,0.8-19.8
				c-0.2-0.8-0.5-1.4-1.4-1.1c0.4,0.1,0.5-0.1,0.5-0.5c0-0.1,0.1-0.3,0-0.3c-0.1-0.1-0.3-0.2-0.4-0.4v0.1c0.3,0,0.8,0.2,1,0
				c3-3,5.3-2.6,7.1,1.3c0.9,2,2,4.1,2.1,6.4c-0.8,3.1-1.8,5.7-4.7,7.8C438.8,562.4,437.9,565.9,441,568.2z"/>
			<path class="st83" d="M410.6,622.8c-1.6-2.6-0.8-5.7,2.5-6.6c6.2-1.8,10.3-6.4,14.9-10.3c1.6-1.4,3.2-2.8,4.9-4.1
				c7.6-6,11.4-14.2,13.2-23.4c-2.9,1.3-3.7,4.3-5.3,6.6c-1.5,2.1-2.6,4.4-3.7,6.8c-2.2,5-6.9,7.8-10.8,11.3
				c-3.7,3.3-6.9,7.1-11.3,9.6c-1,0.6-2.2,2-3.3,0.8c-0.9-1,0.5-2,1.1-2.8c1.3-1.7,2.8-3.1,4.5-4.4c7.4-5.9,13.7-12.8,18.9-21
				c3.8-6,7.1-12,8.3-19.1c0.1-0.5,0.7-1,1-1.5c2,0.8,3.1,3,3,4.4c-0.6,7.5,3.3,15.3-1.8,22.4c-2.7,0.6-4,2.8-5.4,4.8
				c-5.4,7.6-11,15-19,20.3c-2.7,1.8-4.9,4.2-8,5.4C413.1,622.6,411.9,622.8,410.6,622.8L410.6,622.8z"/>
			<path class="st83" d="M444.5,607.5c-2.9,0.8-4.7,2.6-6.6,5.1c-3.5,4.6-8.3,8-13.1,11c-4.5,2.8-9,5.8-14.3,7.2
				c-1.2,0.3-2.2,1-2.9-0.3c-0.7-1.3,0.5-2.1,1.4-2.7c1.4-0.9,2.8-1.7,4.3-2.4c13.4-6.3,24.3-15.4,31-28.8c0.7-1.5,1.7-2,3-2.4
				c1,2.9,0.7,5.6-1,8.3C445.3,604,443.8,605.4,444.5,607.5z"/>
			<path class="st83" d="M414.3,633.4c1.1-0.6,2.2-1.3,3.2-1.9c1.9-0.3,3.7-0.8,4.9-2.4c7.4-4.4,14.6-9.2,20.1-16.1
				c0.9-1.2,2.5-2,3.8-2.9c0,0.8,0,1.5,0,2.3c-2.6,4.3-6.3,7.8-8.6,12.4c-5.9,2.7-11.4,5.9-16.8,9.5c-4.1,2.7-9,4.5-13.8,5.8
				c-1.1-2,1.2-2.6,1.7-4c0.9-0.5,1.8-0.9,2.8-1.4C412.6,634.7,413.6,634.4,414.3,633.4z"/>
			<path class="st83" d="M420.9,642c-3.7,2.3-8.2,2-11.9,4.2c-1,0.6-3.2-0.1-3.6-1.3c-0.4-1.5,1.5-1.5,2.6-1.9
				c9-2.6,16.8-7.5,24.7-12.2c1.6-1,1.8-3.7,4.1-4c0,0.8,0.1,1.5,0.1,2.3c-3.5,3.9-7.2,7.4-12.1,9.5
				C423.3,639.4,421.1,639.6,420.9,642z"/>
			<path class="st83" d="M446.3,610.1c-0.1-0.3-0.2-0.5-0.3-0.8C446.1,609.6,446.2,609.8,446.3,610.1z"/>
			<path class="st83" d="M399.6,715.3c-1.5-1-2.1-2.3-1.2-4.1c0.6-0.3,1.1-0.6,1.7-0.9c0.8,0.5,1.6,1.1,2.4,1.6
				c0.2,1.2-0.4,2.1-1.3,2.8C400.6,715,400.1,715.1,399.6,715.3z"/>
			<path class="st83" d="M452.9,654.2c3.1-0.1,6.1-0.6,9-1.5c1.5-0.5,3.1-0.5,4.6,0.3c0.1,0.5,0.3,1,0.4,1.5l-0.1,0.1
				c-1.4,0.8-2.8,1.4-4.4,1.2c-5-0.4-9.8,0.3-14.5,2c-1.7,0.1-3.3,0.2-4.7-0.9c0.5-0.2,1-0.3,1.5-0.5
				C447.6,656.4,450.3,655.4,452.9,654.2z"/>
			<path class="st83" d="M378.9,640.6c-1.9,3.2-5.8,3-8.9-0.3c-3.6-3.9-6.2-8.5-8.1-13.4c-1-2.6-2.6-3.3-4.9-3.8
				c-4-0.8-8.1,0-12.1,0.1c-7.7,0.2-14.5-2.3-21.2-5.9c-6.1-3.3-11.8-7.3-17.6-11c-1.2-2.4-2.9-4.6-4.7-6.6
				c-0.2-0.3-0.3-0.6-0.5-0.9c0.3-1.4-1.4-3.7,1.8-3.7c0.8,0.9,1.6,1.8,2.4,2.8c3.9,5,7.9,9.8,13.7,12.7h0.1
				c0.4,0.7,0.9,1.3,1.8,1.4l0.2,0.1c1.9,0.7,2.8,3.1,5.2,2.7c0.4,0.8,1.2,1.1,2,1.3c2.3,1.1,4.6,2.1,7.2,2.1l0,0
				c3,1.5,6.2,1.3,9.5,0.9c5.5-0.4,11-2,16.4,0.1c-0.2,0.6,0.2,0.8,0.7,0.9c0.1,0.9,0.6,1.5,1.2,2c-0.4,1.6,0.4,4.2,0.8,4.3
				c3.7,0.8,4.1,5,6.8,6.6c0,0.9,0.3,1.6,1.2,2c0.5,0.4,1,0.7,1.5,1.1C374.9,637.9,377.2,638.9,378.9,640.6z"/>
			<path class="st83" d="M311.9,621.8c-0.1-0.2-0.3-0.5-0.4-0.7c0.4-1.2,0.8-2.5-1.1-2.8c-0.7-1.7-1-3.6-3.1-4.2
				c-0.5-1.1-1-2.2-1.5-3.4c0.5-0.1,1.1-0.1,1.6-0.2c0.3,0.1,0.6,0.3,0.8,0.4c5,4.1,10,8.2,16,10.7c-0.7,1.4-0.4,2.6,0.9,3.4
				c1.2,0.7,1.5-0.8,2.3-1.1c0.6,0.3,1.3,0.7,1.9,1c0.2,0.6,0.5,1.3,0.7,1.9c0.9-0.3,0.2-1,0.4-1.5c0.9-0.3,1.6,0.2,2.4,0.6
				c0.4,0.7,0.9,1.1,1.7,0.6c3.8,1.8,7.6,2.2,11.8,1.8c3.3-0.4,6.6,0,9.9,0.2c1.2,0,1.7,1,2,2c0.4,1.4-0.5,2.2-1.7,2.5
				c-2.6,0.5-5.3,1.6-7.7,1.1c-6.3-1.4-12.8-1.4-18.8-4.4c-4.8-2.5-10.2-3.7-14.4-7.5C314.7,621.6,313.1,621.4,311.9,621.8z"/>
			<path class="st83" d="M318.8,633c-0.5-1.3-1.1-2.6-1.6-3.9c1.7-0.8,3.2,0,4.6,0.8c11.5,7.1,23.9,8.9,37,6
				c1.8-0.4,2.9,0.2,3.8,1.5c0.8,1.2,1.5,2-1,2.7c-7.3,2.2-14.3,2.6-21.9,0.5c-5.7-1.6-11.6-2.8-17.3-4.4
				C321.6,634.7,320.8,633.2,318.8,633z"/>
			<path class="st83" d="M403.3,687.7c-1,2-2,4-3,6c-0.9,1.8-2.6,3-4.2,2.2c-1.9-0.9-0.5-2.8-0.1-4.3c0.3-1,0.7-1.9,1.1-2.8
				c3.6-4.1,4.3-10.1,1.6-14.8c-0.5-0.8-0.4-1.7-0.7-2.4c-1.4-3,2.6-4.2,2.3-6.8c0.7-0.2,1.4-0.3,2.1-0.5c0.7,0.4,1.4,0.3,2-0.1
				c1,0,2.1-0.1,2.9,0.7c0,1,1.1,2.7-1.1,2.5c-1.2-0.1-2-0.3-1.9,1.2c0,1-0.2,2.2,0.7,2.8c1.4,0.9,1.4-0.9,2-1.4
				c0.8-0.6,1.6-1.1,2.4-1.6c-0.2,0.9,0.1,1.6,0.7,2.2c0.2,0.6,0.3,1.2,0.5,1.8c-0.2,0.4-0.5,0.8-0.7,1.2c-1,1-0.4,2.1-0.1,3.1
				c-1.2,1.5-2.4,3-3.6,4.5C404.3,683,403.3,685.1,403.3,687.7z M403.1,679.2c0-0.2,0.2-0.6,0.1-0.6c-0.3-0.1-0.6-0.2-1-0.3
				c0,0.2-0.2,0.5-0.1,0.7C402.3,679.3,402.7,679.4,403.1,679.2z M402.1,672.1l-0.2,0.1l0.2,0.2V672.1z"/>
			<path class="st83" d="M334.6,649.9c-4-3-8-6.2-10.8-10.5c9.2,4.8,19,6.6,29.2,5.6c3.2-0.3,6.3-1.4,9.5-1.7
				c1.2-0.1,2.4-0.3,2.7,1.1c0.3,1.6-1,1.4-2.1,1.9c-4.8,2.1-9.5,3.6-14.8,3.7c-2.7,0-5.1-0.6-7.6-1.1
				C338.4,648.6,336.5,648.6,334.6,649.9z"/>
			<path class="st83" d="M434,679.5c-3.1-1.3-4.9-4.4-8.3-5.3c-1.4-0.4-2.9-0.6-4.2-1.2c-1.1-0.5-2.8-0.7-3-2
				c-0.3-1.8,2.2-0.6,2.7-1.8c-0.2-1.1-2.2-0.8-1.8-2c0.4-1.1,1.5-1.3,2.8-1.2c7.5,0.6,13.8,4.1,20.2,7.5c1.8,0.9,2,2.5-0.3,3.6
				c-1.5,0.7-2.8,1.6-4.2,2.3C436.5,678.7,435.3,679.5,434,679.5z M424.6,669.9c-1.1-1-2.3-1.5-3.9-0.5c1,1.1,2.2,1.3,3.4,1.5
				c4.3,1.8,8.7,3.6,13,5.4c0.8,0.3,1.5,0.5,1.9-0.4c0.3-0.7-0.3-1.1-0.8-1.4C433.8,672.6,429.6,670.1,424.6,669.9z"/>
			<path class="st83" d="M398.2,655.7c-0.6,0.7-1.1,1.4-1.7,2.1c-0.8-0.7-1.6-1.5-2.7-0.5c-1.8-1-3,0.2-4.3,1.2c-0.3,0-0.6,0-0.9,0
				c-1.5-2.6,0.6-3,2.4-3.5c-0.6-1.5-2.3-0.5-2.8-1.7c0.8-0.7,1.5-1.3,2.3-2c0.9,0.7,1.6,0.3,2.4-0.2c1.7-0.9,3.4-1.8,5.1-2.7
				c1,2,2.5,1.3,3.9,0.8c0.9,1,1.2,2.6,2.8,3.1c3.1,1.6-0.6,3.9,0.7,5.7c-0.4,0.4-0.9,0.5-1.5,0.3c-0.2-1-0.8-1.6-1.9-1.7
				c-1.2-0.2-2.6,0.3-3.5-1c0.2-1.4,2.1-1.8,1.8-3.8c-1.3,0.9-2.6-0.7-4,0.4C397,653.4,397.6,654.5,398.2,655.7z"/>
			<path class="st83" d="M377.3,692.7c0-0.4,0-0.8,0-1.2c-0.2-1.3,0.5-2.3,1.4-3.2c0.6,0.8,1.2,1.5,1.2,2.5c2.1-2.5,1.8-5.3,0.8-8.2
				c0-1.9,0-3.7,0.1-5.6c0-1.6,1-2.7,2.4-3c1.5-0.4,2.7,0.6,3.1,2c0.6,2.2,2.5,4,2.1,6.6c-1,0.9-2.3,1.5-2.4,3.1
				c-0.1,1.5-0.2,3-1.8,3.8c-1.4,1.1-2.9,2.2-4.3,3.3C379,692.9,378.2,693.5,377.3,692.7z"/>
			<path class="st83" d="M370.7,651.4c0.5,1.1,2,2.2,0.3,3.5c-1.2-0.4-2-2.1-3.6-1.1c-0.7,0.5-1.2,1.1-0.5,1.8c1.8,2,0,2.5-1.3,3.2
				c-2.9,1.5-5.3,3.8-7.5,6.1c-1.1,1.2-1.8,2.7-3.6,3.1c0-0.5-0.1-1.1-0.1-1.6c0.3-0.7,0.2-1.2-0.6-1.5c0.2-0.5,0.3-1,0.5-1.4
				c0.4-0.5,1-0.8,1.2-1.4c0.7-2.3,2.6-0.1,3.8-1.1c2.2-1.7-2.3-1.3-0.6-3.4C361.8,653.4,365.6,650.9,370.7,651.4z"/>
			<path class="st83" d="M459.9,663.1c-0.3,3.1-3.1,4.2-4.9,6s-4.2,3.1-6.4,4.6c-3.5,1.2-4.7-2.9-7.5-3.2c0,0-0.1-0.7,0-1
				c0.4-1,1.3-1.1,2.2-0.9c2.2,0.5,4.4,1.1,6.7,1.6c0.1-0.6,0.2-0.7,0.1-0.8c-0.3-1.5-3.6-0.9-2.7-2.8c0.8-1.5,2.9-0.5,4.5-0.4
				c0.4,0.6,1.2,0.8,1.4,0.1c0.4-1.6-1.2-1.3-2-1.8c0.7-2.6,2.8-0.6,4.1-1.2C456.9,662.9,458.5,663.2,459.9,663.1z"/>
			<path class="st83" d="M434,660.6c1.9-0.3,4,1,5.7-0.9c2.9-0.1,5.9-0.7,8.8-0.3c4.5-1.1,9.3-0.8,13.7-2.4c2.9,0.9-0.6,2,0.1,3
				c-2.9,1.6-6.2,0.9-9.2,1.2c-3.8,0.4-7.7,0.7-11.5,1C439.2,661.1,436,663.5,434,660.6z"/>
			<path class="st83" d="M385.6,653c-1.8,0.9-1.5,6-5.4,2.9c0.3-1.2,0.4-2.2-1.1-2.6c-0.9-0.3-2-0.6-2.2-1.8l0.4-0.1l0.3-0.2
				c1.2-0.5,2.5-1,3.2-2.2c1.1-0.5,2.3-1,3.4-1.6c1.8,2.8,2.5-0.6,3.8-0.7c1.1,0.2,2.3,0.3,3.4,0.5c0.3,0.9,0.7,1.8,1,2.6v0.2
				c-0.7,0.3-1.3,0.6-2,0.9c-0.3-0.5-0.5-0.9-0.8-1.4c-1.1-1.6-2.4-0.7-3.5-0.1c-1.4,0.8-0.3,1.9-0.1,2.9
				C385.9,652.5,385.8,652.8,385.6,653z"/>
			<path class="st83" d="M348.4,658.3c-2.9-2.4-7-2.2-10-4.4c-0.9-0.6-0.9-0.9-0.3-1.6c4.2,0.4,8.2,1.4,12.4,1.4
				c0.9,0,2.4-0.8,3,0.7c0.6,1.3-1,1.9-1.4,2.8C351.3,658.9,349.9,658.8,348.4,658.3z"/>
			<path class="st83" d="M420.1,655.7c4.9,0.3,9.9,0.5,14.8,0.9c1.4,0.1,3.1-0.1,3.4,2c-6.6,0.6-13.2,0.2-19.5-2.2
				C419.3,656.1,419.7,655.9,420.1,655.7z"/>
			<path class="st83" d="M419.9,659.2c3.1,0.5,6.2,1.7,9.4,0.3c1.5-0.7,2.7,0.8,4,1.5c-0.1,1.2-1.3,1.3-2.1,1.7
				c-1.9-0.6-3.7-0.4-5.4,0.7c-2.5-0.3-5,0.2-7.4-1C418.8,661.2,420.8,660.8,419.9,659.2L419.9,659.2z"/>
			<path class="st83" d="M364.3,700.5c2.4,2.1,5.3,1.6,8.1,1.5c0,0.3,0.1,0.7,0.1,1c-1.5,1-3.1,1.9-4.6,2.9c-0.5-0.3-0.9-0.6-1.4-1
				c-0.9-2-2.6-0.9-4-1.2c-0.3-0.4-0.6-0.8-1-1.1C361.7,700.9,362.9,700.6,364.3,700.5z"/>
			<path class="st83" d="M431.5,663.7c2.6,0,5.7-1.3,7,2.4c-3.5,0.7-6.9,0.9-9.9-1.6C429.5,664.2,430.5,663.9,431.5,663.7z"/>
			<path class="st83" d="M427.1,682.9c-0.8,0.1-1.6,0.2-2.4,0.3c-1.1-0.9-1.6-2.5-3.2-2.8c-0.8-0.6-1.6-1.3-2.3-1.9
				c0.8-1.9,2.1-0.5,3-0.2c1.2,0.3,2.2,1.4,3.6,1.3l0,0C425.9,680.7,427.8,681.3,427.1,682.9z"/>
			<path class="st83" d="M370.3,707.9c-0.2,1.5,0.8,2,1.9,2.3c1,0.3,1.7,1,2.3,1.8c0.9,1.2,1.2,2.8-0.1,3.6
				c-1.1,0.6-1.7-0.9-2.4-1.8c-1.4-1.8-0.2-4.2-1.6-6C370.4,707.9,370.3,707.9,370.3,707.9z"/>
			<path class="st83" d="M432.2,681.2c-0.7,0.1-1.5,0.3-2.2,0.4c-1.6-0.4-2.3-2.4-4.2-2.2l0,0c-0.3-1.1-1.2-1.8-1.9-2.6
				C428,675.7,429.9,678.9,432.2,681.2z"/>
			<path class="st83" d="M417,661.6c-1,0.5-1.8,1.9-3.2,1.1c-0.2-0.1-0.3-1-0.1-1.3c0.8-1.5,1.8-3.2,3.7-3.2c0.7,0,2-0.1,2.5,1v-0.1
				C418.9,659.9,417.9,660.8,417,661.6z"/>
			<path class="st83" d="M439.5,665.7c-0.1-1.3,0.8-1.8,1.7-2.4c1.5,0.2,3,0.4,4.6,0.6C442.4,667.2,442.4,667.2,439.5,665.7z"/>
			<path class="st83" d="M422.6,683.9c-1.1,0.4-2.1,0.8-3.2,1.3c-0.7-1.1-1.4-2.3-1.2-3.8c1.4-0.6,2.4,0.3,3.6,0.6
				C422.1,682.6,422.4,683.3,422.6,683.9z"/>
			<path class="st83" d="M357.7,706.7c-4.8,0.3-1.5-2.1-1.2-3.6c0.7-0.9,1.6-1.5,2.6-1.9c0,0.7,0,1.4,0,2.1
				C358.6,704.5,358.1,705.6,357.7,706.7z"/>
			<path class="st83" d="M399.4,701.7c0.5,1.7-0.1,2.8-1.5,3.8c-1.3,1-2,0.2-2.8-0.7c0.1-0.5,0.2-1,0.4-1.5c1.2-0.6,2.3-1.2,3.5-1.8
				C399.1,701.5,399.3,701.5,399.4,701.7z"/>
			<path class="st83" d="M410.6,622.8c-0.4,0.1-0.8,0.2-1.2,0.3c0,0-0.1-0.2-0.1-0.3C409.7,622.8,410.1,622.8,410.6,622.8
				L410.6,622.8z"/>
			<path class="st83" d="M350.7,678.4c0,2.1,0.7,2.9,2.7,1.7c0.4,1.3,0.7,2.6-1,3.4c-0.5,0.1-1,0.2-1.5,0.3
				c-0.6-0.5-1.1-1.1-1.7-1.6c-0.5-1.6-0.1-3,0.8-4.3C350.3,678.1,350.5,678.2,350.7,678.4z"/>
			<path class="st83" d="M415.1,584.5c0.7,7.7-3.8,10.9-10.4,12.8c-2.6,0.7-5.1,2.1-7.3,3.7c-1.4,1-2.6,1-4,0.8
				c-0.3-0.4-0.5-0.8-1.1-0.4c-0.3-0.6-0.7-0.7-1.3-0.6c0.1-0.2,0-0.3-0.2-0.4c-0.5-0.3-1.1-0.6-1.6-0.9c-0.4-0.6-0.8-1.2-1.3-1.7
				c-0.4-1.9-2.1-2.8-3-4.3c-1.1-5.9,0.1-11.2,4.2-15.7l-0.1-0.1c0.5-0.2,1.1-0.4,1.6-0.7c5.5-2,10.8-4.4,16.8-1.2
				c1.7,0.9,2.8,2.4,4.7,2.9c0.1,0.2,0.2,0.3,0.3,0.3c0.7,1.3,1.4,2.6,2.1,4C414.7,583.6,414.9,584,415.1,584.5z M407.3,591.9
				c2-4.8,0.4-10-3.8-12c-4.9-2.3-8.7-1.1-11.2,3.5c-2.9,5.5-1,11.2,4.4,13C400.8,597.2,405.1,595.4,407.3,591.9z"/>
		</g>
		<g>
			<path class="st84" d="M442.7,564.6c-0.8,1.1-1.2,2.4-1.7,3.6c-5.9,14.4-14.9,26.4-27.6,35.6c-0.3,0.2-0.7,0.4-1,0.5
				c-7.5,1.5-7,7.6-7,12.9c0,6.3-1.8,12.1-4.7,17.5c-1.4,2.6-1.6,6.1-5,7.5c-1.3,0.5-2.2,0.9-3.2-0.2c-0.5,0.1-1.1,0.2-1.6,0.3
				c1.3,3.1,4.7,2.2,6.9,3.7c1.2,0.8,2.5,1.1,0.5,2.4c1,2,2.5,1.3,3.9,0.8c-0.6-1.2-0.1-1.8,1.1-1.4c1.4,0.5,2.8,1,3.8,2.2
				c3.4,1.1,2.4,4.5,2.7,6.7c0.2,1.9-2.2,2.3-4.1,1.3c-0.4,0.4-0.9,0.5-1.5,0.3c-1.7,0.6-1.6-0.8-1.9-1.7c-1.2-0.2-2.6,0.3-3.5-1
				l-0.1,0.2l-0.2-0.1c-0.6,0.7-1.1,1.4-1.7,2.1c-0.3,1.2-1.1,2-2,2.7c-0.4,0.4-0.9,0.8-1.3,1.2c-0.7,0.7-1.4,1.4-2.2,2.1
				c-0.2,0.6-0.6,1.2-1.2,0.7c-0.8-0.7,0-1.1,0.6-1.5c0.7-0.7,1.3-1.5,2-2.2c-1-0.8-1.9-1.5-2.9-2.3c-0.3,0-0.6,0-0.9,0
				c-2.1,1.5-3.7,3.7-6.4,4.5c-1-2.1-2.9-2.7-4.9-2.6c-2.2,0.1-2.4-1.4-2.7-2.8c-0.1-0.4,0.3-0.9,0.6-1.2c0.4-0.4,1-0.1,1.2,0.3
				c2.1,4.1,2.5-0.1,3.6-0.8c0.3-1.2,0.4-2.2-1.1-2.6c-0.9-0.3-2-0.6-2.2-1.8c-0.3-0.1-0.6-0.3-0.9-0.4c-0.3-0.4-0.3-0.7,0.2-1
				c0.3-0.1,0.6-0.3,0.9-0.4c0.4-0.8,0.7-1.6,1.1-2.4c-1.2,0.1-2.9,1.7-3.4-0.4c-0.5-1.7,1.4-1.6,2.6-1.8c1.1-0.2,2.2-0.7,3.2-1
				c0.2-0.2,0.5-0.3,0.7-0.5c1.4-1.5,0.4-2.4-0.9-3.2c-0.5,0-1,0.1-1.5,0.1c-1.9,3.2-5.8,3-8.9-0.3c-3.6-3.9-6.2-8.5-8.1-13.4
				c-1-2.6-2.6-3.3-4.9-3.8c-4-0.8-8.1,0-12.1,0.1c-7.7,0.2-14.5-2.3-21.2-5.9c-6.1-3.3-11.8-7.3-17.6-11c-1.4,0.5-2.1,1.2-0.9,2.7
				c0.4,0.5,1.6,1,0.4,1.9c0.5-0.1,1.1-0.1,1.6-0.2c0.4-0.1,0.7,0,0.8,0.4c5,4.1,10,8.2,16,10.7c1.4,0.4,2.5,1.1,3.2,2.3
				c0.6,0.3,1.3,0.7,1.9,1c0.4,0.2,0.7,0.3,1.1,0.5c0.9-0.3,1.6,0.2,2.4,0.6c0.7-0.2,1.3-0.1,1.7,0.6c3.8,1.8,7.6,2.2,11.8,1.8
				c3.3-0.4,6.6,0,9.9,0.2c1.2,0,1.7,1,2,2c0.4,1.4-0.5,2.2-1.7,2.5c-2.6,0.5-5.3,1.6-7.7,1.1c-6.3-1.4-12.8-1.4-18.8-4.4
				c-4.8-2.5-10.2-3.7-14.4-7.5c-0.7-0.6-2.3-0.8-3.6-0.4c1.1,2.9,5,3.8,5.3,7.3c1.7-0.8,3.2,0,4.6,0.8c11.5,7.1,23.9,8.9,37,6
				c1.8-0.4,2.9,0.2,3.8,1.5c0.8,1.2,1.5,2-1,2.7c-7.3,2.2-14.3,2.6-21.9,0.5c-5.7-1.6-11.6-2.8-17.3-4.4c-1.9,2.2,1.7,1.8,1.5,3.2
				c9.2,4.8,19,6.6,29.2,5.6c3.2-0.3,6.3-1.4,9.5-1.7c1.2-0.1,2.4-0.3,2.7,1.1c0.3,1.6-1,1.4-2.1,1.9c-4.8,2.1-9.5,3.6-14.8,3.7
				c-2.7,0-5.1-0.6-7.6-1.1c-2.2-0.4-4.2-0.4-6,0.9c0.5,1.8,2.4,1.5,3.5,2.3c4.2,0.4,8.2,1.4,12.4,1.4c0.9,0,2.4-0.8,3,0.7
				c0.6,1.3-1,1.9-1.4,2.8c-0.8,1.8-2.2,1.7-3.8,1.2c-1.3,2.7-3.8,2.2-6.3,2.5c3.9,1.2,6.6,4.8,11.1,4.4c0.2-0.1,0.5-0.2,0.7-0.4
				c0.2-0.5,0.3-1,0.5-1.4c-0.9-5.8,6.5-14.3,12.3-14.1c1.5,0.1,4.8-2.4,4,2.2c0.5,1.1,2,2.2,0.3,3.5c0.6,0.6,0.5,1.4,0.2,2.1
				c0,3-0.3,6.1,1.6,8.9c0.5,0.7,0.1,1.4-0.9,1.5c-0.4,0-0.8-0.1-1.1-0.1c-4.1,0.5-4.2,0.5-6.3,4c-0.1,0.1-0.1,0.3-0.2,0.3
				c-4.9,1.5-4.9,6.7-7.4,10c-0.4,1.7-0.9,3.3-1.3,5c0.2,1.2,0.2,2.4-0.9,3c-1.1,0.5-1.4-0.7-1.8-1.4c-1.1,1.1-0.7,3.8-3.7,2.9
				c-1-0.3-0.8,1.2-0.6,2c3.6,0,7.2-0.2,9.9-3.1c-0.2-3,1.6-5.1,3.6-7c2.3-2.1,4.8-3.8,7.8-5c5.6-2.2,6-2.2,7.5,3.6
				c0.2,0,0.5,0.1,0.6,0.3c0.1,0.1,0.3,0.3,0.4,0.4c0,0-0.1,0.2-0.2,0.2c-0.4,0.4-0.7,0.7-1.1,1.1l0.3,0.2c0.7,2.3-1,4.1-1.1,6.2
				c0.4,0.5,0.8,1,1.2,1.5c-0.2-1.3,0.5-2.3,1.4-3.2c0.3-2,1-3.8,2-5.6c0-1.9,0-3.7,0.1-5.6c0-1.6,1-2.7,2.4-3
				c1.5-0.4,2.7,0.6,3.1,2c0.6,2.2,2.6,4,2.1,6.6c0.1,3.4,1.8,7.1-2.3,9.5c-0.9,0.5-1,1.7-1.1,2.7c-0.2,3-1.6,2.1-3.1,1
				c-1,0.1-2.1,0.3-3.1,0.4c-0.6,0.5-1,0.4-1.4-0.2c-0.4,0.8-1.1,0.8-1.8,0.4c-1.2,0.6-2.5,1.7-1.2,2.8c4.5,3.8-0.7,1.9-1.4,2.6
				c-0.2,0.2-0.4,0.2-0.7,0.3l0.1,1c-0.9,1.6-0.2,3.8-2.2,4.9c-1.5,0.2-1.9-1.1-2.5-2c-0.5-0.3-0.9-0.6-1.4-1c-1.4,0-3.1,0.9-4-1.2
				c-0.3-0.4-0.6-0.8-1-1.1c-0.8,0.3-1.6,0.5-2.4,0.8c-0.5,1.1-0.9,2.2-1.4,3.3c1.2,1.4,1.3,3.2,1.5,4.9c0.1,0.7,0.7,2-0.7,2
				c-0.9,0-2.6,0.2-2.6-0.8c0-2.5-2.5-3.4-2.9-5.5c-1.6,1.5,0.1,2.9,0,4.4c0.5,0.8,1.1,1.7,1.6,2.5c0.2,0.4,0.4,0.8,0.6,1.1
				c2.9,2,4.5,3.2,4.5,4.3c0.3,0.1,0.6,0.1,1,0.3c1.4,0.4,2.7,0.7,4,1.2c0.1,0,0.1,0,0.2,0.1c1-0.4,2-0.4,3,0.3
				c3.2,2.3,6.8,1.8,10.4,1.4c2.9-0.4,6.1-1.7,8.8-0.4c2.6,1.2,3.5,0.3,4.2-1.7c0.7-2.2,2.3-3.3,4.4-3.5c1.7-0.1,2.7-1.2,3.9-2.1
				c-1.5-1-2.1-2.3-1.2-4.1c-1-3.2-3.7-3.1-6.2-3.2c1-1.1,2-2.2,3-3.3c0.1-0.5,0.2-1,0.4-1.5c0.2-2.4,1.2-3.4,3.5-1.8
				c0.2,0,0.3,0.1,0.4,0.2c2.6,2,2.9,5.8,0.7,8.6c0.8,0.5,1.6,1.1,2.4,1.6c0.8,0.1,1.6,0.2,2.3,0.3c0.5-1.3-0.1-2.5-0.1-3.7
				c0-1.6-0.2-3.3,1.3-4.5c2.4-1.8,4.8-3.7,7.1-5.5c2.1-1.6,4.8-2.8,6-4.9c2.4-4.2,6.3-5.1,10.3-5.9c2.8-0.5,5.8-1,8.4-1
				c7.7-0.1,11.9-5.1,16.7-9.6c4-3.7,7.9-7.5,11.9-11.3c1.2-1.8,2.4-3.6,3.6-5.3c-1.3-1.3-1.7-0.2-2.5,0.7
				c-4.4,4.4-8.6,8.9-13.8,12.5c-1.8,1.2-3.5,1.9-5.2,0c-3.5,1.2-4.7-2.9-7.5-3.2c0,0-0.1-0.7,0-1c0.4-1,1.3-1.1,2.2-0.9
				c2.2,0.5,4.4,1.1,6.7,1.6c0.1-0.6,0.2-0.7,0.1-0.8c-0.3-1.5-3.6-0.9-2.7-2.8c0.8-1.5,2.9-0.5,4.5-0.4c-0.2-0.4-0.4-0.8-0.6-1.2
				c-1.1-0.1-2.2-0.3-2.5-2.1c1.1,0.1,2.5-0.6,2.4,1.5c0.7-2.4,2.8-0.6,4.1-1.1c1.3-0.5,2.9-0.2,4.4-0.3c0.3-1.5,0.9-2.5,2.7-2
				c-0.3-0.3-0.7-0.7-0.3-1.2c-2.9,1.6-6.2,0.9-9.2,1.2c-3.8,0.4-7.7,0.7-11.5,1l-0.3,1.1c1.5,0.2,3,0.4,4.6,0.6
				c-3.5,3.2-3.5,3.2-6.3,1.8c-0.3,0.1-0.7,0.2-1,0.4c-3.5,0.7-6.9,0.9-9.9-1.6c-1.4,0.6-2.2,0-2.8-1.2c-2.5-0.3-5,0.2-7.4-1
				c-0.7,0.2-1.1,0-1.4-0.7c-1,0.5-1.8,1.9-3.2,1.1c-0.2-0.1-0.3-1-0.1-1.3c0.8-1.5,1.8-3.2,3.7-3.2c0.7,0,2-0.1,2.5,1
				c3.1,0.5,6.2,1.7,9.4,0.3c1.5-0.7,2.7,0.8,4,1.5c0.3-0.1,0.5-0.3,0.8-0.4c1.9-0.3,4,1,5.7-0.9c0.5-0.6,1-1.1,1.5-1.7
				c-1,0-1.7,1.2-2.8,0.6c-6.6,0.6-13.2,0.2-19.5-2.2c-0.9-0.7-1.7-1.5-1.3-2.8l0,0c-1.2,0.1-2-0.5-1.9-1.7c0.2-1.4,1.3-2.1,2.5-2.5
				c5.7-1.9,10.2-5.5,14.7-9.3c0.8-0.7,1.9-1.2,1.6-2.7c-2,0-3.5,1.2-5.3,1.8c-2.8,0.9-4.9,3.7-8.3,3c-3.7,2.3-8.2,2-11.9,4.2
				c-1,0.6-3.2-0.1-3.6-1.3c-0.4-1.5,1.5-1.5,2.6-1.9c9-2.6,16.8-7.5,24.7-12.2c1.6-1,1.8-3.7,4.1-4c0-0.7,0.7-0.9,1.1-1.2
				c-0.1-0.3-0.2-0.7-0.4-1c-5.9,2.7-11.4,5.9-16.8,9.5c-4.1,2.7-9,4.5-13.8,5.8c-1,0.7-2.4,1.7-3.2,0.4c-0.8-1.4,0.3-2.9,1.7-3.6
				c0.9-0.5,2.1-0.5,3.2-0.7c0.9-0.5,1.8-0.9,2.8-1.4c0.8-0.8,1.7-1.1,2.8-1.2c1.1-0.6,2.2-1.3,3.2-1.9c1.4-1.4,3.1-1.9,4.9-2.4
				c7.4-4.4,14.6-9.2,20.1-16.1c0.9-1.2,2.5-1.9,3.8-2.9l-0.3-0.6c-0.5-0.6-1-1.2-1.5-1.8c-2.9,0.8-4.7,2.6-6.6,5.1
				c-3.5,4.6-8.3,8-13.1,11c-4.5,2.8-9,5.8-14.3,7.2c-1.2,0.3-2.2,1-2.9-0.3c-0.7-1.3,0.5-2.1,1.4-2.7c1.4-0.9,2.8-1.7,4.3-2.4
				c13.4-6.3,24.3-15.4,31-28.8c0.7-1.5,1.7-2,3-2.4c-0.8-0.8-0.4-1.8-0.4-2.8c-2.7,0.6-4,2.8-5.4,4.8c-5.4,7.6-11,15-19,20.3
				c-2.7,1.8-4.9,4.2-8,5.4c-1.3,0.5-2.5,0.8-3.8,0.8c-0.4,0.1-0.8,0.2-1.2,0.3c0,0-0.1-0.2-0.1-0.3c0.4,0,0.9,0,1.3,0
				c-1.6-2.6-0.8-5.7,2.5-6.6c6.2-1.8,10.3-6.4,14.9-10.3c1.6-1.4,3.2-2.8,4.9-4.1c7.6-6,11.4-14.2,13.2-23.4
				c-2.9,1.3-3.7,4.3-5.3,6.6c-1.5,2.1-2.6,4.4-3.7,6.8c-2.2,5-6.9,7.8-10.8,11.3c-3.7,3.3-6.9,7.1-11.3,9.6c-1,0.6-2.2,2-3.3,0.8
				c-0.9-1,0.5-2,1.1-2.8c1.3-1.7,2.8-3.1,4.5-4.4c7.4-5.9,13.7-12.8,18.9-21c3.8-6,7.1-12,8.3-19.1c0.1-0.5,0.7-1,1-1.5
				c-0.3-0.7-0.5-1.3-0.8-2C442.7,561.6,443.2,563.8,442.7,564.6z M361.9,717.5c0.9-1.3,2.1,0.3,3.3-0.4c0.6-1.1-2.5-3,0.2-3.7
				c2-0.5,4.4,1.4,4,2.9c-0.6,2.5,1.7,1.8,2.3,2.8C368,720.5,365.5,720.1,361.9,717.5z M374.3,715.6c-1.1,0.6-1.7-0.9-2.4-1.8
				c-1-1.2-0.7-2.7-0.9-4.1c0.3,0.2,0.7,0.3,1.1,0.5c1,0.3,1.7,1,2.3,1.8C375.4,713.3,375.7,714.9,374.3,715.6z M384.9,709.5
				c0,0.7-0.1,1.5-0.1,2.2c0.3,0.9,0.6,1.9,0.8,2.8c0.2,0.1,0.5,0.3,0.7,0.4c2,0.6,2.1,2.2,1.9,3.9c-0.1,0.6-0.9,0.8-1.5,0.7
				c-2-0.3-2.4-1.9-2.7-3.5c-1.5-0.4-1.8-1.8-2.3-3c-1.9-0.6-2.7-0.2-1.9,1.9c0.3,0.8,0.7,2-0.4,2.2c-1.2,0.2-1.4-1.1-1.5-2.1
				c-0.3-4.2,3.2-8.5,7.4-9c0.6-0.1,1.4-0.2,1.6,0.5C387.6,708.3,385.8,708.6,384.9,709.5z M390.6,709c-0.7,0.1-1.8,0.1-1.8-0.8
				c0-1,1-1.3,1.9-0.9c0.4,0.2,0.8,0.5,1.2,0.7C391.6,708.4,391.1,708.9,390.6,709z M382.4,663.1l1.2,3
				C382.7,665.2,381.7,664.4,382.4,663.1z M413.8,681.3c-0.6,1.8-2.2,0.8-3.5,0.9c-0.3,1.8,1.7,4.4-1.7,5.1v0.1
				c0.7,0.8,1.4,1.7,2.2,2.5c1.6,1.5,2,0.3,2.2-1.1c-1.2-1.8-0.1-2.3,1.4-2.8c0.7-0.2,1.4-1.4,2.1-0.2c0.5,0.9,0.2,1.9-0.9,2.4
				c0.1,0.1,0.2,0.3,0.2,0.3c-3.2,3.7-3.3,9.8-8.6,11.8c-2.9,1.1-3.8-1.5-4.7-3.6c-0.8,0.1-1.5,1.3-2.3,0.2c-0.6-0.8,0-1.3,0.7-1.7
				c2.3-1.5,2.6-4.5,4.2-6.4c-0.6-0.3-1.3-0.7-1.9-1c-1,2-2,4-3,6c-0.9,1.8-2.6,3-4.2,2.2c-1.9-0.9-0.5-2.8-0.1-4.3
				c0.3-1,0.7-1.9,1.1-2.8c-0.1-3.9,1.1-7.7,0.4-11.6c-0.5-2.8-2-5.4-1.6-8.3c0.4-2.5,0.8-4.8,4.2-4.2c0.7-0.2,1.4-0.3,2.1-0.5
				c0.6-0.5,1.3-0.6,2-0.1c1,0,2.1-0.1,3,0.7c0.8,0.4,1.5,0.9,2.3,1.2c1,0.3,2.8-0.5,2.8,1c0,1.9-2.1,0.5-3,1.2
				c-0.2,0.9,0.1,1.6,0.7,2.2c1.8,0.3,4.1-0.7,5.2,2.1c-1.7,0.7-3.2-1.1-4.7-0.3c-0.2,0.4-0.5,0.8-0.7,1.2c2.6,1.1,4.2,2.5,1.7,5.3
				C412,679.9,414.3,679.7,413.8,681.3z M415.6,675.8c1-0.1,1.4,0.7,1.9,1.3c-0.8,0.1-1.6,0.3-2.2-0.6
				C415,676.3,415.2,675.8,415.6,675.8z M447.4,677.3c0.9,1.3-0.6,1.9-1.6,2.3c-1.6,0.7-3.1,1.7-5.5,1.8c1.7-1.5,2.8-2.7,4.1-3.6
				C445.3,677.2,446.6,676.2,447.4,677.3z M418.5,671c-0.3-1.8,2.2-0.6,2.7-1.8c-0.2-1.1-2.2-0.8-1.8-2c0.4-1.1,1.5-1.3,2.8-1.2
				c7.5,0.6,13.8,4.1,20.2,7.5c1.8,0.9,2,2.5-0.3,3.6c-1.5,0.7-2.8,1.6-4.2,2.3c-1.2,1.5-2.5,3-3.9,0.1c-3.1-1.3-4.9-4.4-8.3-5.3
				c-1.4-0.4-2.9-0.6-4.2-1.2C420.3,672.5,418.6,672.3,418.5,671z M423.9,676.9c4.1-1.2,6,2,8.3,4.3c0.5,0.7,0.4,1.4,0,2.1
				c-0.7,1-9.7,4.1-10.8,3.9c-1.2-0.2-1.4-1.2-1.9-2.1c-0.7-1.1-1.4-2.3-1.2-3.8c1.4-0.6,2.4,0.3,3.6,0.6c-0.1-0.5-0.2-1.1-0.3-1.6
				c-0.8-0.6-1.6-1.3-2.3-1.9c-0.7-0.2-1.3-0.6-1.6-1.2C419.6,675.4,421.6,673.9,423.9,676.9z"/>
			<path class="st84" d="M438.7,626.8c-0.2-0.4-0.5-0.8-0.7-1.1c0.5-0.2,1.1-0.4,1.6-0.7C439.6,625.7,439.4,626.4,438.7,626.8z"/>
			<path class="st84" d="M452.9,654.2c-2.6,1.2-5.3,2.2-8.2,2.1c0-0.6,0.1-1.2,0.1-1.9c0.5-0.1,1.1-0.3,1.6-0.4
				c0.8-0.1,1.5-0.1,2.3-0.2C450.1,654,451.5,654.1,452.9,654.2z"/>
			<path class="st84" d="M415.1,584.5c2.7,1.6,2.7,6.2,6.7,6.4c-5.7,4.9-11.9,8.8-19.6,9.7c-4.3,0.5-3.6,3.5-3.2,6.3
				c-4.4,1.1-4.3-2.8-5.6-5c1.4,0.2,2.6,0.1,4-0.8c2.2-1.5,4.7-3,7.3-3.7C411.3,595.4,415.8,592.2,415.1,584.5z"/>
			<path class="st84" d="M424.6,669.9c5,0.2,9.2,2.6,13.6,4.6c0.6,0.3,1.2,0.6,0.8,1.4c-0.4,0.9-1.1,0.7-1.9,0.4
				c-4.3-1.8-8.7-3.6-13-5.4C424.3,670.6,424.5,670.2,424.6,669.9z"/>
			<path class="st84" d="M424.1,670.9c-1.2-0.2-2.4-0.4-3.4-1.5c1.6-1,2.8-0.4,3.9,0.5C424.5,670.2,424.3,670.6,424.1,670.9z"/>
			<path class="st84" d="M351.8,676.4c0-0.3,0-0.6,0.1-0.9c0.6-0.6,0.6-1.1,0.1-1.8c0.1-0.2,0.2-0.4,0.2-0.6c1.1,0,2.3,0,3.4,0h-0.1
				c0.3,1.3,2.3,2.2,0.8,3.8c-2.2-0.1-2.7,1.3-3,3.1c-2,1.2-2.7,0.4-2.7-1.7C351.3,677.9,351.9,677.3,351.8,676.4z"/>
			<path class="st84" d="M353.7,670.7c0.1-0.2,0.2-0.4,0.2-0.6c0.3-0.2,0.6-0.3,0.9-0.5c0.6,1.4,2.3,0.5,3.2,1.3
				c0,1.8-1.8,1.4-2.5,2.3h0.1C355,672.3,354.3,671.5,353.7,670.7z"/>
			<polygon class="st84" points="408.6,687.4 408.4,687.2 408.6,687.3 			"/>
			<path class="st84" d="M354.1,686.8c-0.5,0.5-0.9,1-1.4,1.4c-0.1-0.9,0.1-1.7,0.7-2.4C353.7,686.1,353.9,686.4,354.1,686.8z"/>
			<path class="st84" d="M381.5,645.9c0.5-0.7,1-1.4,1.6-2.1c1.9-0.9,3.5-1.1,3.8,1.7h0.1c-1.4,0-2.3,0.6-2.8,1.9
				c-1.1,0.5-2.3,1-3.4,1.6C381,647.9,381.2,646.9,381.5,645.9z"/>
			<path class="st84" d="M396.8,596.3c-5.4-1.8-7.4-7.6-4.4-13c2.5-4.6,6.3-5.8,11.2-3.5c4.2,2,5.8,7.3,3.8,12c-1.1-0.3-1-1.2-1.2-2
				c-0.4-1.7-0.8-3.8-2.8-3.9c-2.3-0.1-4.4-0.4-6.5,2.1C394,591.3,395.5,593.6,396.8,596.3z"/>
		</g>
	</g>
</g>
</svg>
