<?xml version="1.0" encoding="utf-8"?>
<!-- Generator: Adobe Illustrator 23.0.3, SVG Export Plug-In . SVG Version: 6.00 Build 0)  -->
<svg version="1.1" id="Layer_1" xmlns="http://www.w3.org/2000/svg" xmlns:xlink="http://www.w3.org/1999/xlink" x="0px" y="0px"
	 viewBox="0 0 816 816" style="enable-background:new 0 0 816 816;" xml:space="preserve">
<style type="text/css">
	.st0{fill:#B5B5B9;}
	.st1{fill:#BFBEC3;}
	.st2{fill:#B2B1B6;}
	.st3{fill:#9D9CA2;}
	.st4{fill:#B1B1B6;}
	.st5{fill:#B9B9BE;}
	.st6{fill:#A5A4A9;}
	.st7{fill:#BABABD;}
	.st8{fill:#B8B7BB;}
	.st9{fill:#B1B0B6;}
	.st10{fill:#CAC9CE;}
	.st11{fill:#C8C7CB;}
	.st12{fill:#ADACAE;}
	.st13{fill:#C0BFC4;}
	.st14{fill:#9E9EA2;}
	.st15{fill:#C8C7CC;}
	.st16{fill:#939297;}
	.st17{fill:#C8C8CC;}
	.st18{fill:#C7C7CB;}
	.st19{fill:#F5F4F4;}
	.st20{fill:#F8F8F8;}
	.st21{fill:#F6F6F6;}
	.st22{fill:#F4F4F4;}
	.st23{fill:#F6F6F7;}
	.st24{fill:#A6A5AB;}
	.st25{fill:#9C9C9F;}
	.st26{fill:#9C9CA1;}
	.st27{fill:#828184;}
	.st28{fill:#87868B;}
	.st29{fill:#75747B;}
	.st30{fill:#8C8B91;}
	.st31{fill:#929293;}
	.st32{fill:#848488;}
	.st33{fill:#7B7A81;}
	.st34{fill:#807F85;}
	.st35{fill:#7C7B7D;}
	.st36{fill:#98979D;}
	.st37{fill:#747475;}
	.st38{fill:#898990;}
	.st39{fill:#7D7C83;}
	.st40{fill:#76757F;}
	.st41{fill:#8A898F;}
	.st42{fill:#6D6C74;}
	.st43{fill:#5B5B61;}
	.st44{fill:#89888E;}
	.st45{fill:#5D5C61;}
	.st46{fill:#77767D;}
	.st47{fill:#7B7A82;}
	.st48{fill:#6E6C73;}
	.st49{fill:#68676C;}
	.st50{fill:#76757C;}
	.st51{fill:#6C6B6F;}
	.st52{fill:#828284;}
	.st53{fill:#646467;}
	.st54{fill:#797880;}
	.st55{fill:#6C6B72;}
	.st56{fill:#5C5B63;}
	.st57{fill:#706F72;}
	.st58{fill:#66656C;}
	.st59{fill:#5D5D61;}
	.st60{fill:#474749;}
	.st61{fill:#4D4C50;}
	.st62{fill:#626168;}
	.st63{fill:#F8F8F9;}
	.st64{fill:#F7F6F7;}
	.st65{fill:#F7F7F4;}
	.st66{fill:#F7F7F8;}
	.st67{fill:#F9F8FA;}
	.st68{fill:#F6F6F5;}
	.st69{fill:#F8F7F8;}
	.st70{fill:#F5F5F4;}
	.st71{fill:#F4F4F2;}
	.st72{fill:#F9F9F9;}
	.st73{fill:#F7F7F6;}
	.st74{fill:#F5F5F5;}
	.st75{fill:#F8F8F7;}
	.st76{fill:#707070;}
	.st77{fill:#74737A;}
	.st78{fill:#F7F7F5;}
	.st79{fill:#8A898D;}
	.st80{fill:#F6F6F4;}
	.st81{fill:#F8F7F7;}
	.st82{fill:#B9B5AB;}
	.st83{fill:#78786F;}
	.st84{fill:#69635D;}
	.st85{fill:#BEBAB3;}
	.st86{fill:#ADA69D;}
	.st87{fill:#F5F4F2;}
	.st88{fill:#443936;}
	.st89{fill:#F6F5F1;}
	.st90{fill:#50423B;}
	.st91{fill:#8E817B;}
	.st92{fill:#D4D3C7;}
	.st93{fill:#DAD9D1;}
	.st94{fill:#D5D4C9;}
	.st95{fill:#9C9589;}
	.st96{fill:#F8F6F7;}
	.st97{fill:#A19D91;}
	.st98{fill:#E5DFD4;}
	.st99{fill:#4E4940;}
	.st100{fill:#D1C3B8;}
	.st101{fill:#C4BBB4;}
	.st102{fill:#5A4F43;}
	.st103{fill:#3D363F;}
	.st104{fill:#8C877A;}
	.st105{fill:#E1DED8;}
	.st106{fill:#3C312E;}
	.st107{fill:#3F3B32;}
	.st108{fill:#5C5752;}
	.st109{fill:#4E443F;}
	.st110{fill:#4A4039;}
	.st111{fill:#CDC9C5;}
	.st112{fill:#4A383A;}
	.st113{fill:#B1B0A4;}
	.st114{fill:#C7C3C1;}
	.st115{fill:#64605E;}
	.st116{fill:#E7E4DF;}
	.st117{fill:#837B71;}
	.st118{fill:#BCB6AE;}
	.st119{fill:#F0ECEA;}
	.st120{fill:#EFECDD;}
	.st121{fill:#6D6462;}
	.st122{fill:#BEB8B2;}
	.st123{fill:#EFEAE6;}
	.st124{fill:#33271A;}
	.st125{fill:#EAE6E4;}
	.st126{fill:#D6D3CE;}
	.st127{fill:#4F4743;}
	.st128{fill:#EEECEA;}
	.st129{fill:#545045;}
	.st130{fill:#413A39;}
	.st131{fill:#B4B2AE;}
	.st132{fill:#4D4B48;}
	.st133{fill:#3F3031;}
	.st134{fill:#706866;}
	.st135{fill:#C7C3C0;}
	.st136{fill:#504D4E;}
	.st137{fill:#959089;}
	.st138{fill:#A9A198;}
	.st139{fill:#917F76;}
	.st140{fill:#F2EFEE;}
	.st141{fill:#F2EFEB;}
	.st142{fill:#C1BDB8;}
	.st143{fill:#8F8787;}
	.st144{fill:#EEECE8;}
	.st145{fill:#F0EAE7;}
	.st146{fill:#F3F0EC;}
	.st147{fill:#BBAFA5;}
	.st148{fill:#514541;}
	.st149{fill:#DFDBD2;}
</style>
<g>
	<path class="st0" d="M110.6,284.5c0.1-2-4.9-8-6.8-8.4c-2.2-0.4-3.7-1.9-4.5-4.6c-0.7-2.5-0.8-4.8,2-6.2c1.7,0.7,3,1.6,2.6,3.7
		c-0.2,1.2,0.2,2.3,0.7,3.4c0.5,1.2,0.9,2.6,2.6,0.9c1.1-1.1,2.1,0.5,3.2,0.6c1-0.1,2-0.3,2.6,0.9c0.6,3.1,2,5.4,5.1,6.5
		c5.7,1.9,8,6.2,6.1,11.8c-0.4,1.1,0.1,1.2,0.5,1.8c0.8,1,1.8,2.1,2,3.3c0.3,2,0.4,2.5,2.9,1.9c2.6-0.5,4.5,2.1,5.6,4.7
		c1.1,2.5,1.5,4.8-1.2,6.6c2.6,1.4,3.5,2.6,3.3,5.3c-0.1,1.1,0.7,0.4,0.9,0.4c4.6,0.7,8.1,4.3,8.5,8.9c0.1,0.9,0.1,1-1.4,1.5
		c-0.3,0.1-0.7,0.1-0.6,0.4c0.1,0.5-0.2,1.2,0.9,1.4c2.8,0.6,4.2,2.3,3.6,5.3c-0.2,0.8-0.1,1,0.9,0.9c4.2-0.3,8.1,3,8.7,6.9
		c0.3,2-1.8,2.4-2.1,4c0.2,0.1,0.5,0.1,0.6,0.3c3.6,4.1,9.6,5.6,12.3,10.8c0.8,1.5,1.7,3,0.5,4.8c-0.7,1.1-0.1,1.9,0.7,2.8
		c0.8,0.9,1.9,1.7,1.5,3c-0.9,2.7,0.8,1.5,1.6,1.1c3.4-1.9,5.3,0.8,7.2,2.5c2.2,1.9,3.6,4.9,1.5,7.2c-1.8,2,0.5,2,0.6,3
		c-0.8,0.9-1.7,1.4-3.5,0c2,1.7,4.2,1.3,5,3.2c0.3,0.1,0.6,0.1,1,0.2c0.6,1.1,2.7-0.3,2.7,1.6c0,2.2,1.6,4.9-2.4,5.6
		c-1.3,0.2-0.3,2.9-2.3,3.1c-2.5-1.6-2.1-4.4-2.9-6.7c0.3-2.5-1.9-4.8-4.3-4.7c-4,0.2-6-1.3-6.8-5.1c-0.3-1.4-0.5-2.8-2-3.5
		c-0.7-0.3-1.1-1-0.8-1.6c2.1-3.6-0.1-5.5-2.7-7.3c-0.4-0.3-0.5-0.9-0.7-1.4c-0.8-1-0.3-1.7,0.4-2.3c3.4-3,3.4-3.2-0.1-7
		c-1,2.8-4.2,2.3-6,4c-0.4,0-0.7-0.1-0.8-0.5c-0.2,0.1-0.1,0.3,0.1,0.6c0.7,1,1,2,0,3c-1.6-2.3-2.5-4.3-1.7-7.5
		c0.7-2.8-3-4.6-5.3-5.5c-2.6-1-3.8-2.4-4.3-4.8c-0.2-0.8-0.8-1.5-1.3-2.3c-0.1-0.2-0.6-0.3-0.6-0.5c-0.6-3.2-1.1-6.4-1.7-9.5
		c0.9,0.7,2.1,0.9,2.9,1.8c0.1-0.1,0.1-0.2,0.2-0.4c-0.4-1.9-2.4-0.3-3.1-1.4c-2.2,0.6-3.7-1.1-5.4-1.9c-3.5-1.8-5.1-5-5.2-8.9
		c0-1.4,0.7-1.8,1.9-1.8c2,1,2.2,3.4,3.4,5c1,1.3,1.8,2.3,3.4,1.6c1.1-0.5,2.5-1.4,2.4-2.8c-0.1-1.6-2.1-1.8-3.1-2.8
		c-0.5-0.5-0.2,0.2-0.3,0.3c-2.2,2.8-2.2,2.8-4.3-0.1c-0.4-0.5-1-0.8-1.5-1.2c-2.4-2-5.9-3.1-5.1-7.4c0.1-0.7-0.1-1.3,0.8-1.1
		c4.3,0.5,1.7-3.1,2.5-4.6c0.8-1.7,0.1-3.8-2.5-4.4c-1.3-0.3-1.4-0.4-1.5,1.1c-0.1,1.3-1.1,1.4-1.9,1.6c-1.5,0.3-0.4-1-0.7-1.4
		c-2.3-2.8-4.7-5.6-8.2-7c-2.4-1-4.8-2.1-5.4-5c2.2-0.8,2.9,2.6,5.1,1.7c4.8-1.4,5.4-4.2,1.5-9.5c-1,3.3-2.7,5-5.9,2.8
		C110,287.6,110,287.6,110.6,284.5z"/>
	<path class="st1" d="M383.2,516.9c0.1,0.6-0.1,1.4,0.2,1.9c2.5,4.5,2.1,5.4-2.9,6.5c-4.6,1-8.7-0.9-10.8-4.8
		c-1.3-2.5-3.3-3.1-5.8-1.8c-5.9,3.1-11.3,1.7-15.1-4c-1.4-2.1-2.8-3.1-5.8-2c-5.8,2.3-9.5,1.1-13.7-4.3c-1.7-2.2-5.6-1.7-5.7-6.3
		c-1.4,4.9-3.8,3.4-6,2.4c0.3-1.3,2.2-0.6,2.3-2.1c-1.6-1.1-2.4-2.3-1-4.1c0.5-0.7,1.2-1.6,0.1-2.3c-1.2-0.9-1.8,0.2-2.5,0.9
		c-0.9,0.9-1.9,1.7-2.6,2.8c-1,1.2-0.2,1.8,0.8,2.4c0.8,0.6,2.4,0.6,2.2,2.2c-2.2,0.8-4.2-0.3-5.2-1.8c-2.3-3.2-5.6-5.1-8.2-7.9
		c-1.4-1.5-0.7,0.4-0.9,0.6c-1,1.4-1.3,0.8-1.5-0.4c-0.2-0.7-0.9-1.1-1.1-1.8c-0.5-2.9,1.3-5.2,1.9-7.8c1.3-0.2,2.3,0,2.4,1.6
		c0,1,0.3,2,1.3,2.1c4.3,0.4,7.9,3.3,12.6,3.1c2.5-0.1,5.6,1.4,7.6,4.9c1.3,2.3,5.8,3.2,9.3,2.7c0.2,1.1-1.6,2.5,0.4,3.4
		c1.3,1.3,0.6,2.4-0.4,3.3c-0.6,0.5-1.4,1.1-0.6,1.9c0.9,1,2.1,1.6,3.5,1.6c0.9,0,1.5-0.5,1.6-1.4c0.2-2,1.1-3.9,1.1-6
		c1.7-0.9,2.6,2.1,4.4,1c2,0.7,0.8,2.9,1.9,4.1c0.2,1.9,2.4,1,3.1,2.2c0.8,0.4,1.5,0.9,2.4,1.4c0.7-1.4-3.2-2.1-0.7-3.7
		c0.6,0.8,1.9-0.3,2.3,1c1.1,1.6,3,3.3-0.3,4.7c-0.7,0.3-1.1,0.7-0.4,1.4c1.5,1.8,3.3,3,5.7,2.8c0.8-0.1,1.9-0.4,2.2-1.4
		c0.3-1.1-0.7-1.2-1.4-1.4c-0.7-0.3-1.1-0.9-0.4-1.4c0.7-0.5,1.5-1.5,2.6-0.2c1.9,2.2,4.1,3.8,7.2,3.8c0.1-1.1-0.5-1.1-0.9-1.2
		c-1.1-0.2-2.4-0.1-3.1-1.3c-0.3-0.6,0.1-1.2,0.6-1.2c1.4-0.2,2.8-0.4,4.1,0.5c1.1,0.8,0.9,3.2,3.2,2.5c0.8,0,1.3-0.9,2.1-0.9
		c2.8,2,1,3.3-0.8,4.6c3.5,2.4,3.5,2.4,4.9-1c0.6-1.5,2-1.9,3.5-2.1C382.8,516.7,383,516.8,383.2,516.9z"/>
	<path class="st2" d="M691.3,360.7c0-0.2,0.1-0.4,0-0.6c0-0.2,0.1-0.4,0.1-0.6c0.8-1.4,1.9-2.7,3.6-2c1.9,0.7,1.5,2.3,1,3.9
		c-0.2,1.4,1.6,1,1.8,2.1c-0.8,1.4-2.1,0.9-3.2,0.8c-3.3-0.2-4,1.6-3.4,4.4c1.5,6.5-2.5,11.8-9.3,12.2c-1.1,0.1-2.2,0.2-3.4,0.4
		c-2.9,0.6-1.5,1.9-0.8,3.2c-1.5,1.8-3.4,2.7-5.8,2.1c-2.4-1.8-3.9-0.6-4.8,1.7c-0.4,0.9-0.9,1.9,1.1,2.1c2.4,0.2,2.5,1.9,1.5,3.8
		c-0.6,1.3-1.9,1.5-3,2.2c-1.1,2.4-1.8,4.6-1.5,7.5c0.6,6-5.9,10.2-12.4,8.6c-1.1-1.6-3-1.3-4.5-2c0.6-0.8,1.3-1.6,1.9-2.3
		c3.5-1.5,4.2-1.1,4.4,2.3c1.1,0.1,1.6-0.9,2.5-1.3c1.4-0.7,3.1-1.4,3.1-3.2c0-2-2.2-2.4-3.3-3.5c-1.3-1.3-2.5,0.3-2.9,1.5
		c-0.6,2.1-2.1,3.2-3.7,4.3c-2.2,0-1.8-1.5-1.5-2.7c0.8-3.9,3.8-6.9,8-6.9c3.7,0.1,4.6-2.9,6.7-4.5c0.2-0.2,0.7-0.4,0.1-0.9
		c-3.4-2.7-0.8-5.2,0.6-7.4c1.8-2.9,4.6-4.6,8.2-4.5c4.3,0.1,5.1-1,3.6-4.7c-1.9-4.8,2.4-10.8,7.5-10.5c1.1,0.1,2.1,0.2,3-0.6
		c1.5,0.1,2.6-0.6,2.8-2C689.5,362.1,690.5,361.6,691.3,360.7z"/>
	<path class="st3" d="M697.9,363.4c-0.8,0-1.6-0.1-2.3-0.2c-0.5-0.1-1.2-0.2-1.3-0.4c-0.2-0.8,0.6-1,1.1-1.3
		c0.6-0.5,1.3-0.9,1.8-1.5c1.2-1,3-2,2.7-3.6c-0.4-1.8-2.7-2-4.1-3.1c-1.1-0.9-2.1,0.6-2.5,1.7c-0.6,1.8-1,3.5-2.1,5c0,0,0,0,0,0
		c-3.3-0.7-4.4-2.6-2.4-5c2.5-3,4.5-6.8,9.6-6.2c2.3,0.3,4-3.7,2.9-5.8c-2.3-4.2,1-10.1,6.5-10.4c3.6-0.2,4.1-3.1,6.2-4.6
		c0.6-0.5,0.1-0.8-0.2-1.2c-1.2-1.4-2.5-2.6-1.4-4.7c1.4-2.7,2.5-5.8,5.3-7c2.3-1,5-1.5,7.5-1.3c1.9,0.1,3.8,7.2,2.7,9
		c-2.3,3.9-4.4,8-10.3,6.9c-1.6-0.3-2.8,1.9-3.5,3.6c-0.5,0.5-1.2,0.5-1.6,1c0.8,0,1.1-0.7,1.6-1.1c5.1,2.4,2.3,9.3-1.8,12.6
		c-1.6,1.2-3.4,1.7-5.4,1.7c-3.6,0.1-4.3,1.2-3,4.3C706,356.2,703.6,360.7,697.9,363.4z"/>
	<path class="st4" d="M778.7,226.4c-0.5-0.3-0.8-0.6-1-0.9c-1.3-0.1-2.6-0.7-3.7-1.5c-0.6,0.6-1.5,1-2.7,1c-4.1,0-5.7,2.9-6.7,5.9
		c-0.9,2.6-0.3,5.4,3,6.3c-1.7,2.8-2.3,6-7.1,6.2c-4.9,0.2-7.3,7-4.6,11.3c1,1.6,0.3,2.4-0.1,3.7c-0.8,2.4-2.9,2.7-4.8,3.4
		c-0.3,1-1.5,1.6-1,2.8c2.3,1,3.9,4.7,7.3,2.2c0.9-1,1.3-2.2,1.5-3.4c-1.2-1.9,0.5-4.4,2.9-4.7c6.3-0.7,11.8-8.1,7.3-13.7
		c-2-2.5-0.7-3.5,1.3-4.2c2.1-0.7,4.2-1.5,6-2.7C780.6,235,782,228.7,778.7,226.4z M775.6,232.8c-0.3,1.4-1.3,2.4-2.4,1.8
		c-3.1-1.7-4,0.7-5.2,2.4c0.7-1.1,1.3-2.2,1.4-3.7c0.4-4.5,0.8-4.6,4.9-2.8C775.5,231,775.8,231.6,775.6,232.8z"/>
	<path class="st5" d="M569,478.3c2-1.4,0.8-3.9,2.4-5.7c1.9-2.1,3.6-3.9,6.8-3.3c3.6,0.6,6.3-1.8,9.2-3.6c0.6-0.4,0.3-0.6,0.3-1
		c0.1-4,2.5-6.2,6-7.6c0.1,0.2,0.1,0.5,0.1,0.7c0,0.6-1.6,1.4,0.1,1.9c0.2,1.5-2.7,3.7,1.2,4.4c1,0.2,0,1.7,0.8,2.5
		c2-1.1,3.6-2,1.5-4.6c-0.8-0.9-0.8-2.5-0.3-3.8c1.2-0.8-1.3-1.2-0.3-2c4.3-0.4,6.8-2.4,7.7-7c0.9-4.7,4.8-6.6,9.3-5.5
		c0,1.3-1.1,1.7-1.9,2.2c-1.9,1.4-3.7,2.5-0.9,5c1.2,1.1,0.4,3.2,0.2,4.8c-0.5,0.6-1.1,1.1-2,0.7c-1.6,1.7-3.9,2.7-4.4,5.3
		c-0.9,5-5.6,9-10.8,8.8c-3.2-0.1-4.8,1.6-5.9,4.2c-1.4,3.3-2.7,6.6-7,7.1c-0.1-0.1-0.2-0.3-0.3-0.4c-1-0.8,2-0.7,0.4-1.7
		c0.8-2.9-0.7-5.1-2.4-7.5c-2,1-3.6,3-5.5,4.7C572.4,479,571.3,480.3,569,478.3z"/>
	<path class="st6" d="M80.6,208.7c-1-0.2-2.1-0.4-3-0.8c-2-0.9-3.2-4-2.1-5.2c4.1-4.8,1.4-12.6-4.9-14.1c-2.3-0.6-3.6-1.7-3.7-3.2
		c-0.7,0.4-1.5,0.7-2.3,0.8c-0.1,1.6,1.2,3.1-0.2,4.5c-2.6,2.5-2.6,5.4-1.4,8.6c1.6,4.3,5.5,4.7,9,5.8c0.7-1.1-1-1.8,0-3
		c1.5,2,0.3,5,2.4,6.7c1.7,0.8,2.7,2.8,4.7,3.1c3.7,1.9,4.2,4,2.2,9.1c0.2,1.5,1.1,2.5,2.3,3.3c0.7,0.5,1.5,0.5,1.3-0.8
		c-1.3-1.7,0-2.8,0.7-4.2C87.7,215.1,85.2,209.8,80.6,208.7z"/>
	<path class="st7" d="M81.3,220.5c0.9,1.3,1.4,3,3.4,3.1c0.7,1.3,1.2,2.4,3.2,2.7c4.3,0.6,6.7,3.5,7.8,7.7c0.2,0.9,0.8,2,0,2.6
		c-3.4,2.8-1.7,5.6-0.2,8.5c0.6,1.4,3,0.3,3.1,2.4c0.1,0.9-2.8,0.3-1.1,2.2c0.6,0.7-0.5,1.4-1.2,1.5c-1.4,0.3-3.6-1.3-3.4,2.1
		c0.2,2.9,2.1,3.2,4.1,3.6c-0.5,2.7-2.8,0.7-4,1.6c-1.7-1-2.5-2.6-3.2-4.3c-1.6-3.6-1-5,2.9-6.4c0.6-0.2,1.3-1.2,0.8-1.4
		c-2.7-0.7-3.4-4-6.5-4.6c-5.9-1.2-8.8-7.3-6.2-12.7c1.7-3.5,0.4-4.6-2.7-5.4c-4.8-1.2-8.4-6.1-7.7-10.2c0.4-2.2,1-4.4,3.8-4.7
		c2.3-0.7,2.8,2.4,4.8,2.4c0.5,1.8-0.4,2.8-1.9,3.3c-1,0.4-2.2,0.5-1.7,2c0.5,1.4,1.2,2.7,2.9,2.7C79.6,219.2,81.1,218.3,81.3,220.5
		z"/>
	<path class="st1" d="M406,520.7c0.5,0.7-1.7,2.3,1,2.4c4.3,0,4.9,0,4.8-1.9c0-0.8,0.3-1.2,0.7-1.7c2.8-3.7,11.5-3.8,14.6-0.3
		c1,1.2,1,1.9-0.4,2.8c-0.5,0.3-1.5,1.1-0.2,1.7c0.3,0.1,0.9-0.4,1.4-0.6c1.7,0.1,3.3,0.5,5,0c0.6-0.3,1.1-0.5,1.7-0.8
		c0.3-0.8,0.8-1.2,1.7-0.9c1.1,0.5,2.3,1.1,2.2,2.5c-0.2,2.6,1.6,2.9,3.4,3.4c1.1,0.5,2,1.2,3.1,1.6c0.3,0.2,0.5,0.4,0.6,0.7
		c-4.6,2.4-9.5,1.6-12.4-2.3c-1.3-1.8-3.4-1.5-5.4-3.1c1.4,3.5-0.7,4.9-2.5,5.8c-2.6,1.4-5.6,1-8.4,0.2c-2.5-0.7-5.3-1.3-5.2-5.2
		c0-1.7-2.2-0.5-3.3-0.8c-1.1-0.3-1,0.1-1.5,1.1c-2.8,5.2-10.9,5.6-15.7,0c-1.1-1.2-2.1-2.4-3.8-3.6c1.2-0.2,2-0.3,3.1-0.4
		c-1.5-0.7-3,0-4.2-1.4c2-1,5-0.1,5.6-3c1.9,0.9,2.8,2.5,3.2,4.4c0.1,1.5,0.8,2.8,2.3,3.2c1.2,0.3,3.5,2.3,2.9-1.6
		c-0.3-1.8,1.8-2.6,2.9-3.8C404.6,518.8,405.4,519.5,406,520.7z"/>
	<path class="st8" d="M527.4,511.4c-2.2,3-5.3,2-7.8,1.2c-2.2-0.7-3.9-1.7-6,0c-0.6,0.5-1.9,0.1-3,0.1c0.4-2.6,3.1-2,4.4-3.3
		c-1.5-0.5-2.7,1.1-4.2,0.5l-0.1-0.1c3.7-2.6,5.3-7.3,9.3-9.6c2.8-1.6,6.3-2.5,8.9-0.7c2.4,1.7,4.1,1.3,6.5,0.2c-3-2.7-1.1-5,0.8-7
		c3.5-3.5,8-3.9,12.7-1.4c0.5,0.3,1.3,0.2,1.9,0.3c0.6,0.5-0.9,1.2,0.1,1.7c0.2,2.7,1.3,5.6-2.3,7.1c-0.7-0.2-1.2-0.7-1.7-1.2
		c-1.3-1.1-3.3-1.5-3.5-3.4c-0.4-3.6-2.2-2-3.6-0.9c-1.1,0.9-1.8,2.2-2.2,3.6c-0.4,0.4,0.5,0.6,0.1,0.3c-0.1-0.1-0.1-0.2,0.1-0.3
		c1-1.5,2.6-1.8,3.6-0.5c1.3,1.6-0.2,2.8-1.2,4c-0.2,0.2-0.5,0.1-0.6,0.2c-0.2,0.1,0.1,0.1,0.4,0.2c0.7,0.1,1.1,0.4,0.7,1.2
		c-1.1,0.8-2.3,0.5-3.3-0.2c-3.5-2.4-4.3,0.1-5,2.7c-0.5,1.9-1.2,3.8-2.7,5.2c-0.7,0.7-1.4,0.5-1.4-0.7c-0.6-0.9,0.1-1.8,0-2.6
		c-0.1-0.5,1.5-2.5-1-1.2c-0.7,0.4-1.6-0.6-1.9-1.6c-0.3-0.8,0.6-2.5-1.3-2.2c-1.1,0.2-2.5,0.3-3.1,1.4c-0.7,1.1,0.5,1.8,1.1,2.6
		c1,1.5,1.3,3.7,4.1,2.8C527,509.4,527,510.7,527.4,511.4z"/>
	<path class="st9" d="M752,276.5c-1,0.5-2.2,0.7-2.9,1.5c-0.8,0.9-2.9,1.8-0.1,3.5c1.9,1.1,2,3.9,1.1,6.1c-1.4,3.2-3.1,5.9-7.1,6.5
		c-4.4,0.7-5.5,2.2-4.3,5.5c0.4,1,0,2.1,0.3,2.9c0.8,2.7-0.3,4.5-1.9,6.3c-0.8-0.5-1.1-1.4-1.5-2.2c-1.1-0.8,0-2.5-1.8-3.3
		c-3.9-1.8-3.8-1.9-6.1,2.2c-0.3,0.5-0.8,0.6-1.4,0.5c-0.7-0.6-1.6-1-2.6-1.1c1.3-5.6,3.2-7.6,8.5-7.9c2.9-0.2,2.7-2.4,3.7-3.8
		c0.9-1.2,0.5-3.3-0.4-3.7c-2.9-1.2-1.2-3.2-0.9-4.5c0.8-3,3.8-5.5,6-5.4c4.4,0.1,4.8-3.1,6.4-5.4c0.3-0.2,0.5-0.5,0.7-0.8
		c0.3-0.3,0.5-0.6,0.8-0.8c3.2-2.6,3.7-2.4,4.7,1.7C753.4,275.4,752.8,276,752,276.5z"/>
	<path class="st10" d="M255.5,454.6c1.4,2.7,3.1,4.6,6.6,3.5c1.1-0.4,1.7,0.4,2.1,1.2c-1.1,2.8-2.5,5.3-4.3,7.7
		c-1,1.5,1.2,2.7,0.4,4.2c-3-1.9-5.5-3.7-5.2-8.1c0.2-3.2-3.1-3-5.2-2.9c-6.5,0.5-11.4-3.9-11.2-10.3c0.1-2.8-2.3-4.5-6.1-3.7
		c-2.3,0.5-3.5-0.1-4.5-1.9c1.6-1.1,3.3,0.1,5-0.1c0.5-0.1,0.8-0.3,0.3-0.2c-0.1-0.3-0.2-0.5-0.4-0.7c-0.7-1.3-1.3-2.6-0.2-3.9
		c1.5-1.7,3-0.1,4.6,0.1c1,0.3,1.8,0.8,2.4,1.6c-0.3,3.3,2.4,3.4,4.4,4c1.4,0.4,3.1-0.5,4.5,0.6c-0.9,1.4-2.4,0.1-3.4,0.8
		c0.9,0,2.1-0.8,2.7,0.6c-0.6,2.6-2,4.5-4.4,5.6c-0.1,0.8-2.6,0.5-1.1,2c1.4,1.5,2.5,4,5.2,2.2c-0.3-4.3,0.3-4.9,4.8-4.6
		C253.5,453.1,254.6,453.7,255.5,454.6z"/>
	<path class="st11" d="M478.7,524.6c-3-1.1-6-3.5-8.5,0.9c-0.6,1-2,1.6-3,2.4c-3.2,2.6-10.6,1.8-12.8-1.4c-1.3-1.9-3.7-1.8-4.9,0.4
		c-0.9,1.6-1.9,2.7-3.8,2.7c-0.1-0.1-0.2-0.2-0.3-0.3c-0.1-0.9,0.6-1.4,1.1-1.9c1.3-1.4,0-1.3-0.8-1.6c-3-2.5-3-3-0.3-6
		c1.1-0.2,2,0.1,2.6,1.1c-0.5,0.7-1,1.5-1.5,2.2c2.5-2.3,5.2-2.6,8.4-1.2c-2-3.2,0.4-4,2.4-5c1.2,0.7,2.6-0.5,3.8,0.5
		c0.4,1.7-1.4,3.4,0.4,5.1c1,1-1,1.8-1.2,2.8c4,1,4.2,0.9,3.7-2.6c2.5-0.9,2.8-4.1,5.2-5c2.9,2.7,4.6,0.9,6.1-1.5
		c1.1,0.3,2.2-0.5,3.2,0c0.2,1.8,4.2,2.4,1.3,5.5c-1.2,1.3,2.7,0.9,3.5,2.4c0.1,1.4-0.9,0.7-1.4,0.7
		C480.8,524.7,479.7,523.8,478.7,524.6z"/>
	<path class="st12" d="M194.8,396.3c0.4,2.2,3.6,2.6,3.1,5.4c-0.1,0.6,1,0,1.6-0.1c6-1.1,10.8,3.5,9.9,9.7c-0.5,3,2.6,3.6,3.6,5.5
		c0.8,1,1.8,0.2,2.8,0.4c0.7,0.1,1.6,0,1.2,1.2c-0.5,1-3.8,0-2,2.8c0,0.1-0.6,0.8-1.1,1c-0.7,0.3-1.1,0.1-1.3-0.8
		c-0.3-1.8-1.7-2.1-3.2-2.7c-2.6-1.1-3.1-3.9-2.9-6.5c0.5-6.1-0.7-7.7-6.1-7.8c0.4,1.3,2.1,2.8-0.3,3.6c-2,0.6-2-0.9-2.2-2.3
		c-0.1-0.9-0.2-1.8-1.8-2c0.6,1.9,1,3.8,1.5,5.6c0.6,2.2,1.9,4.3,4.8,4.4c1.1,0,1.7,1.1,1.6,1.9c-0.2,1.3-1.4,0.7-2.2,0.6
		c-5.3-1-9.1-6.9-7.7-11.8c0.9-3.4-2.2-3.3-4-4.3c-0.6-0.5-1-1-1.1-1.8c-0.1-2.8,1.9-2.8,3.8-2.8
		C193.5,395.5,194.2,395.6,194.8,396.3z"/>
	<path class="st13" d="M609.2,456.3c0.5-0.3,1.1-0.6,1.6-0.9c1.7-0.6,2.8-1.9,3.8-3.3c0.7-1,1.4-1.8-0.6-2.8c-2.6-1.3-1-3.8-0.3-5.8
		c3.4-1.8,6.1-3.7,6.1-8.3c0-2.3,2.4-4.5,5.2-5.2c1.2,1.4-1.1,2.2-0.6,3.5c0.8,1.5-1,2.6-0.7,4c1,0.9,1.1,1.9,0.4,3
		c-2.8,5-3,11.5-8.4,15.2C613.5,457.3,611.6,458.4,609.2,456.3z"/>
	<path class="st8" d="M499,513.7c-1.4,0.1-3.2,0.2-3.8-1c-0.6-1.4,1-2.9,1.9-3.5c1.6-1.2,3.3-3.8,5.9-1.5c0.6,0.5,1.2,0.3,1.8-0.1
		c2.8-1.7,4.9-1.1,6,2.1c0,0,0.1,0.1,0.1,0.1c-0.3,1.6-4.2,3.1,0,4.8c0.7,0.3,0.8,1.7-0.1,2.7c-3.2,3.5-9.7,4.1-13.6,0.9
		c-1.1-0.9-2.1-0.9-3.3-0.5c-1.9,0.5-3.3-0.1-4.4-1.6l-0.1,0.1c1.5-0.3,3.2-0.3,4.6-0.9c2.3-1.1,3.8-0.8,4.6,3
		C498.9,515.8,498.9,514.7,499,513.7c3.5-0.9,3.6-0.8,3.2,3.3c1.5,0.3,3.1,0.1,3.5-1.5c0.4-1.6-1.4-3.2-0.8-5
		c-1.4-0.2-2.9-0.2-4.1,0.7C500,511.9,499.8,513.1,499,513.7z"/>
	<path class="st14" d="M624.1,440.6c-0.3-1.1,0-2.7-1.9-2.7c1.2-1.4,2.6-2.2,4.4-1.4c1.4,0.6,0.6,1.7,0.5,2.6c3-0.7,3.7-4.5,6.2-4.7
		c-0.7,0.4-2.4,0.6-3.2-0.3c-2.1-2.5-4.3-1.3-6.5-0.7c-1.2-1.8,1.2-2.2,1.3-3.4c1-0.5,2.1-1.1,3.1-1.6c0.4-0.1,0.9-0.3,1.1-0.1
		c4,3.6,5.5-0.5,7.8-2.4c-1.1,0.5-1.7,2.3-3.4,1.1c-0.1-1.2,0.1-2.3,1.1-3.1c0.8-1.4,2.2-1.9,3.7-2.4c1.8-0.2,3.6-0.3,4.3,2
		c0.7,2.3,1.7,0.1,2.5,0.1c0.8-0.4,1.4-1.1,2.3-1.3c1.3-0.3,2.1-0.1,1.3,1.5c-1.3,2.3-3.4,3.9-6,3.9c-4.7,0-5.9,2.8-6.3,6.6
		c-0.4,3.5-6.7,8.5-10.3,8.5C624.5,442.9,624.2,441.9,624.1,440.6z"/>
	<path class="st15" d="M272.9,468c1.4,0.2,2.4,1.1,3.1,2.2c0.9,1.8,3.3,3,2.5,5.5c-0.1,1.4,0.3,3-1.7,3.2c-0.8,0.6-0.7,1.7-1.4,2.3
		c-0.9-0.2-2-0.5-2.2-1.4c-0.9-4.1-4.7-5.4-7.3-7.9c0.5-1.1-0.6-1.2-1.1-1.7c0.2-1.9-0.3-3.9,1.4-5.7c1.2-1.3-2-2.6-1.4-4.5
		c2.4-1.6,3.9,0,4.7,1.7C270.4,464,272,465.8,272.9,468c-0.1,0.4-1.3,0.4-0.5,1.2c0.1,0.1,0.4,0.5,0.4,0.1
		C272.8,468.9,272.5,468.4,272.9,468z"/>
	<path class="st16" d="M275.3,481.3c-0.1-1.3-0.6-2.7,0.7-3.8c2.3,2.2,4.4,4.3,8.2,2.7c1.8-0.8,3.9-0.2,5,1.9c0.9,1.7,1.8,1.1,2.6,0
		c0.4-0.1,0.7,0,1,0.2c5.6-1,12.4,1.8,14.3,6c-1.6,1-1.6-1.4-2.8-1.3c-0.8-0.4-1.6-0.9-2.5-1.3c-1.4,0.1-3.1-0.7-3.4,1.8
		c-0.2,1.4-1.3,2.1-2.8,2.2c0.9,2.2,3.2,2.3,4.7,3.6c1,0.2,2.2,0.3,0.8,1.6c-5.8,0.5-5.8,0.5-9.5-8.5c-1.4,0.5-0.1,1.9-1,2.7
		c-0.1,0-0.5,0-0.5-0.1c-0.2-2.7-4.7-2.8-3.7-6.2c-0.6,0-1.5-0.3-1.9,0C281.1,485.5,278.2,483.4,275.3,481.3z"/>
	<path class="st17" d="M638.6,422.1c-1.3,0.6-2.6,1.2-3.9,1.9c-0.9-4.6,0.4-7,4.6-8.7c2.1,0,4-1.3,6.2-1.4c1,0,2.8-0.7,2.5-2.6
		c0.2-0.3,0.3-0.5,0.4-0.8c1.8,0,4.7-2.5,4.5,2c0.1,0.2,0.5,0.6,0.4,0.6c-2.6,3.1-0.9,8.1-4.6,10.8c-0.1-0.7,0.1-1.7-1.2-0.9
		c-0.7,0.5-1.4,1-2.1,1.5c-1.4-1,0.7-2.5-0.6-3.7C641.5,417.7,641.3,417.7,638.6,422.1z"/>
	<path class="st18" d="M569,478.3c2.7,0.4,3.1,0.2,3.1-1.8c0.5-1.6,2.1-0.6,3-1.3c1.2-0.9,2.2-0.2,3,0.8c1,1.2,0.4,2.2-0.4,3.1
		c-0.5,0.6-1,1.2-1.7,1.6c-0.5,0.3-1.1,0.5-1.5,0.8c-0.7,1-1.5,1.9-2.9,1.5c-2.3,0.5-3.9,1.8-4.3,4.3c-4.4-0.2-4.8-0.6-5.5-5.6
		c0.5-1.1,1.9-0.7,2.5-1.7C566.2,480.1,567.6,479.3,569,478.3z"/>
	<path class="st19" d="M527.4,511.4c-0.9-1.4-1.9-0.9-3.2-0.5c-1.2,0.3-3.5,0.7-2.2-2.1c0.5-1.1,0.1-1.4-0.9-1.5
		c-2.3-0.1-1.1-1.9-1.4-2.9c-0.4-1.5,1-1.5,1.8-1.7c1.5-0.3,2.7-1.7,4.4-0.9c0.7,0.3,1.8,0.3,1,1.4c-0.6,0.9-1.6,1.5-0.3,2.5
		c1.5,1.2,1.9-0.7,2.9-0.9c0.4,0,0.7-0.3,1.3-0.3c-2.7,1.3-0.5,4.4-2.4,5.9C528,510.8,527.7,511.1,527.4,511.4z"/>
	<path class="st20" d="M157.7,360.1c0.6-2.7,4.5-1.5,4.7-3.1c0.6-3.9,2.4-1,2.9-0.6c3,2.2,2.4,5.4-1.1,7.1c-0.9,0.4-0.6,1.3-0.9,2
		c-0.4,0-0.9,0-1.3,0C158.7,365.2,157.4,363.3,157.7,360.1z"/>
	<path class="st21" d="M110.4,275.2c-0.4,0.4-0.9,0.7-1.3,0c-2.3-4-2-0.2-2.7,1.1c-2.7-1.5-3.9-4.4-3.5-6.8c0.3-2.2-0.9-2.9-1.6-4.2
		c0.2-0.5,0.4-1,0.6-1.5c0.4-0.1,0.7-0.1,1,0.1c1.4,1,1.4,3.6,4.7,2.2c2.6-1.2,3.6,2.4,4.3,4.7C112.6,272.7,110.9,273.7,110.4,275.2
		z"/>
	<path class="st22" d="M613.7,443.5c0.5,1.4-1,2.7-0.1,4.2c0.3,0.5,0,1.2,1,1.4c2,0.4,2.3,0.6,1.1,2.4c-1.1,1.7-1.3,5.1-4.9,3.8
		c-0.8-1.8,1-4.8-2.4-5.6c-0.1,0-0.5-2.7,1.1-3.6C610.9,445.4,612.3,444.4,613.7,443.5C613.7,443.6,613.7,443.5,613.7,443.5z"/>
	<path class="st23" d="M264.9,460.1c4.6,3.4,0.8,6.8,0.1,10.2c-3.4,1.7-4.6-0.4-5.4-3.2c-0.5-1.2-2.1-2.7,0.9-2.7
		c1.2,0,1.4-0.9,1.5-1.9c0.2-1.5,0.5-2.8,2.2-3.2C264.4,459.6,264.6,459.9,264.9,460.1z"/>
	<path class="st24" d="M209.1,420.1c1.4,0.4,2.2,1.1,2.3,2.7c0.1,2.3,1.6,3.6,3.4,4.9c1.1,0.8,2,1.3,3.1,0.2
		c0.9-0.9,1.6-1.2,2.3,0.3c0.5,1.2,0.5,2-0.7,2.6c-1.1,0.6-2.1,0.8-3.4,0.5c-4.5-1-6.6-4.4-8.4-8.1
		C207.2,422.1,207.4,420.7,209.1,420.1z"/>
	<path class="st25" d="M239.6,441.1c-0.7-0.2-1.4-0.5-2.1-0.7c-0.6-0.5-1-1.2-1.3-1.8c-2.4-4-2.7-4.1-7.1-2.4
		c-0.6,0.2-1.2,0.2-1.9,0.1c-0.8-0.3-1.3-0.8-1.3-1.7c-0.1-0.7-0.1-1.4-0.2-2c-0.5-1-0.6-1.7,0.9-1.6c5.2-0.6,9.9-0.2,12.5,5.3
		C239.7,437.9,240.2,439.4,239.6,441.1z"/>
	<path class="st26" d="M671.5,386c2.4,0.6,4.2-1.2,6.4-1.5c2.7,3.6,0.3,6.3-1.8,8.7c-2.4,2.6-5.2,4.9-9.2,3.2
		c0.8-0.8,1.6-1.6,2.5-2.5c1-0.2,2-0.7,2.7-1.4c1.2-1.3,3-2.6-0.1-3.9C671.3,388.3,669.9,387.1,671.5,386z"/>
	<path class="st27" d="M723.7,304.9c1.4-1.2,2.5-1.7,2.5,0.9c3.3,0.6,6.4,3.7,9.9,0.5c1,0.6,0.8,1.6,0.9,2.5
		c-2.5,3.6-6.6,3.1-10.2,3.7c-0.4,0.1-1.3-0.6-1.2-0.7C726.2,309.2,723,307.6,723.7,304.9z"/>
	<path class="st0" d="M111.3,271c-0.8-1.2-0.7-2.8-1.9-3.8c-0.9-0.7-1.9-1.6-2.8,0c-1.6,2.9-2.3,2.5-2.7-0.6
		c-0.1-0.9-1.3-1.6-1.3-2.7c0.8-0.9,1.6-0.2,2.5-0.1c4.7-1.7,8.9,1.5,9.3,7.2C113.3,271.9,112.3,271.8,111.3,271z"/>
	<path class="st28" d="M567.3,487.1c0.3-1-1.9-1.7-0.6-2.6c1.4-1,2.8-2.8,5-1.5c-0.9,1.8-1.9,3.7-2.8,5.5c-2.5,5.1-6.7,6.7-12.3,4.7
		c-0.7-3,2.1-1.6,3.1-2.4C562.8,490.8,565.1,489,567.3,487.1z"/>
	<path class="st29" d="M226.4,431c-0.8,0.3-0.9,0.9-0.9,1.6c-3.5-1.1-4.5-4.1-4.2-7c0.4-3.9-1.4-5.8-4.5-7.1
		c-1.1-1.2-2.3-0.4-3.5-0.2c-1.6,0.2-0.5-0.8-0.4-1.4c6.1-0.4,10,1.6,11,5.7c0.3,1.2,1.2,2.5-0.5,3.7c-0.9,0.6-0.9,1.6,0.4,2.4
		C224.9,429.2,225.6,430.2,226.4,431z"/>
	<path class="st30" d="M406,520.7c-0.9-0.2-1.8-0.5-2.4-1.4c-1.6,0.4-2.4-1.2-3.8-1.6c-2.3-0.6-3.6,0.4-3.2,2.8
		c0.1,0.8,0.5,1.6-0.3,2.1c-1.1,0.6-1.6-0.2-2.1-1c0.1-1.9-1.9-2.8-2.3-4.5c4.5-2.8,10-2.6,13.7,0.5
		C406.7,518.4,407.8,519.4,406,520.7z"/>
	<path class="st31" d="M225.8,434.6c0.5,0.4,0.9,0.7,1.4,1.1c1.3,3.2,2.4,6.7,6.3,7.9c0.6,0.2,1.5-0.3,1.7,0.5
		c0.2,0.8-0.5,1-1.2,1.1c-2.1,0.3-4-0.3-6-0.8c-2.9-2.2-3.7-5.3-3.5-8.8C224.6,434.7,225.1,434.5,225.8,434.6z"/>
	<path class="st32" d="M194.8,396.3c-0.8,0-1.5,0-2.3,0c-0.7-0.6-0.8-1.4-0.6-2.1c0.7-3.6-1.8-5.4-4.1-7.2c-0.1-1.5-3.4,1.8-2.3-1.5
		c3.7-0.9,6.6,0.5,8.9,3.3C196.2,391.2,196.4,393.7,194.8,396.3z"/>
	<path class="st33" d="M478.5,516.1c-1.1,0.7-2.2,2.4-3.2,0c3.5-3.9,9.5-5.2,13.8-3.2c2.1,1,0.6,2.1,0.4,3.2c0,0,0.1-0.1,0.1-0.1
		c-0.3,0.2-0.7,0.3-1,0.6c-1,0.6-0.9,3.3-2.4,2.2c-2-1.4,1.2-1.4,1.3-2.5c0-0.6,0.7-1.3-0.1-1.6c-1.6-0.7-3.3-2-5-1.1
		C481,514.2,479.3,514.5,478.5,516.1z"/>
	<path class="st34" d="M374.5,515.3c0.2,1.6-0.6,1.2-1.5,0.7c-2.1-2.8-1.3-3.9,2.1-4.3c4.7-0.5,8.7,0.1,11.7,5.1c-1.5,0-2.5,0-3.6,0
		c0,0,0,0,0,0C380.5,515.3,378,512.4,374.5,515.3z"/>
	<path class="st35" d="M255.5,454.6c-1.3,0-2.5,0-3-1.5c-0.7-2.6-3.1-3.8-4.8-5.7c-0.9-0.7-1.9-1.1-2.5,0.3c-0.2,0.6-0.5,1-1,0.4
		c-0.3-0.3-0.6-0.9-0.7-1.3c-0.2-0.7,0.2-0.9,0.8-1c1.4-0.1,2.8-0.1,4.3-0.2C253,447,255.7,449.6,255.5,454.6z"/>
	<path class="st17" d="M633.6,427c2.2,0,2.4-3.5,5.2-3c-0.8,4-4.4,5.3-6.8,7.5c-1.5,1.4-2.2,0-2-1.3c0.4-1.9-0.6-1.9-1.9-1.9
		C630,427.9,631.7,426.9,633.6,427z"/>
	<path class="st36" d="M277.6,475.8c1.4-2.4-1.9-3.5-1.6-5.6c2.6,2.2,6.5,0,9.1,2.6c1.6,1.6,4.3,2.4,3.5,5.5c-0.2,0-0.4-0.1-0.5-0.1
		c-1.3-0.6-2.6-1.1-3.7-1.9c-1.7-1.4-3.3-2.9-5.1,0C279,476.7,278,476.4,277.6,475.8z"/>
	<path class="st37" d="M189.2,398.5c0.8,0.3,0.8,0.9,0.8,1.6c-6.3,0.1-11.3-5.7-9.4-10.9c3,1.3,1.3,4.7,3,6.6
		C186.1,395.3,187.9,396.4,189.2,398.5z"/>
	<path class="st8" d="M559.7,491.6c-0.7,1.3-3.1-0.7-3.2,1.7c-1.5-1.8-3.2,1.2-4.8-0.1c-0.3-1.5,1.6-1.8,1.6-3.2
		c-1.3-1.2-1.3-2.5-0.4-3.8c1.5-0.9,2,1.1,3.2,1.1c1.2,0,2.3-0.3,3.4,0.4c0.8,0.5,1.7,1.7,0.5,2
		C557.6,490.3,560.4,491.1,559.7,491.6z"/>
	<path class="st34" d="M447.9,521c-0.9-0.2-1.7-0.5-2.6-0.7c-3.4-1.3-6.4-0.2-9.3,1.4c-0.5,0.2-1,0.5-1.4,0.7
		c-1.4-1.8-1.5-2.9,1.2-3.8c3.8-1.2,7.4-2.5,11.2-0.3C448,519,449.2,519.5,447.9,521z"/>
	<path class="st38" d="M748.3,274.1c-0.4,0-0.8,0-1.1,0.1c-4-5.1-3-8.1,4-12.5c1.1,1.2-0.5,1.6-0.7,2.4
		C748.6,267.2,748.4,270.6,748.3,274.1z"/>
	<path class="st39" d="M93.1,258.5c0.1-1.1,0.4-1.8,1.7-1.2c0.8,0.4,1.7,0.8,2.3-0.5c0.5-1.3,1.1-2.6,2.4-0.8c1.2,1.6,3,2.8,3.8,4.8
		c-0.8,0.7-1.6,0.6-2.3,0c-0.8-1.7-0.8-1.6-2.3-0.8C96.6,261,94.8,259.9,93.1,258.5z"/>
	<path class="st40" d="M752,276.5c0.3-0.8,0.5-1.5,0.8-2.3c2.2-2.2,3.8-4.8,4.5-7.8c-0.1-1.4,0.4-2.5,1.7-3.2c0,0,0,0,0,0
		c1.4,3.2,1.3,6.4-0.8,9.3C756.8,274.9,754.7,276.1,752,276.5z"/>
	<path class="st41" d="M461.2,517.6c-1.3-0.3-2.9,0.9-4-0.8c4.1-1.6,8.2-2,12,0.7c-1.3,1.9-1.9,4.5-4.9,4.8
		c-0.9-1.2,0.1-1.9,0.7-2.7c0.2-2.6-1.8-1.5-3-1.7C461.7,518.1,461.4,517.9,461.2,517.6z"/>
	<path class="st42" d="M345,503.5c-2,2.3-2.9-0.7-4.3-0.8c-1.9,0.4-4.1-2.1-5.6,0.8c-3.5-1.4-1.7-2.6,0.1-3.9
		C339,499.4,342.5,500.2,345,503.5z"/>
	<path class="st43" d="M354.1,508.5c-0.8-0.2-1.8-0.1-2.3-1c3.6-0.8,7.1-1.8,10.6,0.5c1.4,0.9,2.9,1.7,3.3,3.7
		C361.6,511.2,358.8,506.1,354.1,508.5z"/>
	<path class="st44" d="M110.6,284.5c1.8-0.1-1.7,3.3,1.5,2.3c2.1,2.2,2.7,5.2,4.1,7.7c-2.4,1-3.2-1.6-4.8-2.2
		C110.1,289.8,108.5,287.3,110.6,284.5z"/>
	<path class="st45" d="M478.7,524.6c-0.3-1.4-0.3-1.5,0-1.4c1.5,0.6,2.9,1.1,4.6,0.8c3.6,0.4,4.3-3.7,7.2-4.9
		C489.3,524.7,485.6,526.3,478.7,524.6z"/>
	<path class="st46" d="M259.5,467.1c1.5,1.5,2.5,3.9,5.4,3.2c1.4,0,1.4,0.8,0.9,1.8c-2.2,1.7-3.9,0.3-5.7-0.8
		C257.8,468.2,257.8,468.2,259.5,467.1z"/>
	<path class="st47" d="M540.7,503.6c-0.5-0.9-1.5-0.6-2.3-1.1c0.2-1,1.1-0.4,1.6-0.7c2.4-1.4,5.1-1.9,7.6-3c1.2,0,0.9,1,1.1,1.7
		C546.7,503.1,544,504.1,540.7,503.6z"/>
	<path class="st48" d="M648,411.3c0.4,1.2,1.4-0.6,1.9,0.7c-2.4,3.9-8.3,1.2-10.7,5.4c-1.2-1.1,0.4-1.5,0.1-2.2
		C641.7,412.8,645.9,414.4,648,411.3z"/>
	<path class="st49" d="M320.8,502.5c0.1,1.3-0.3,1.5-3.1,1.9c-0.2-0.1-0.5-0.1-0.7-0.1c-1.6-1.6-6.2-1.1-4-5.5
		C315.5,500.2,317.9,501.8,320.8,502.5z"/>
	<path class="st50" d="M555.3,488.5c-1.9,0.3-0.9-2.3-2.4-2.4c1.3-1.8,1.5-4.9,4.9-4.2c0.4,0.1,0.6,0.4,0.6,0.7
		C557.5,484.6,556.9,486.9,555.3,488.5z"/>
	<path class="st51" d="M123.2,311.1c-1.5-2.4-2.6-4.9-2.3-7.9c1,2.5,3.4,4,4.2,6.5C124.7,310.4,124.5,311.5,123.2,311.1z"/>
	<path class="st52" d="M157.7,360.1c0.3,2.7,2.5,3.9,4.3,5.5c-3.1,2.5-3.5-1.2-5-2.3c0.2-1.7-1.3-3.2-0.4-5.1
		C157,358.9,157.3,359.5,157.7,360.1z"/>
	<path class="st0" d="M123.2,311.1c0.6-0.5,0.8-1.6,1.9-1.4c1.7,1.2,1,3.2,1.9,5.3C124.9,313.9,122.7,313.9,123.2,311.1z"/>
	<path class="st53" d="M98.7,247.4c-0.8-1.2-3.1-0.3-3.1-2.4c1.6,0.4,3.1,0.9,4.7,1.3c2.8,0.7,3.7,2.3,2.3,5l0.1-0.1
		C101.1,250.2,101,247.7,98.7,247.4z"/>
	<path class="st3" d="M691.3,360.7c0,1.1-1.1,1.7-1.2,3.1c-0.1,1.9-1.4,3.4-3.7,1.7C688.1,363.9,688.5,361.1,691.3,360.7z"/>
	<path class="st4" d="M758.2,272.5c1.4-3,1.1-6.1,0.8-9.3C761.5,266.7,761.3,269.2,758.2,272.5z"/>
	<path class="st32" d="M184.5,385.3c-2.6-0.7-4.9-1.7-7-4.9c2.3,1.1,3.6,2.9,5.5,1.8C183.5,383.2,185,383.7,184.5,385.3z"/>
	<path class="st54" d="M111.3,271c1,0,2,0,3,0.1c0.6,1.7-1.1,2.5-1.4,3.9c-0.9-0.6-1.7-0.1-2.5,0.3
		C109.7,273.6,112.1,272.7,111.3,271z"/>
	<path class="st50" d="M564.4,479.9c1.1,3.2-1.7,1-2.3,1.7c-1,0.9-2.2,1.3-3.6,0.9c-0.2-0.2-0.4-0.4-0.6-0.7
		C559.6,479.9,561.9,479.6,564.4,479.9z"/>
	<path class="st55" d="M101,260.8c0.8,0,1.6,0,2.3,0c0.6,1,1.1,2.1,1.7,3.1c-0.8,1.2-1.7-0.5-2.5,0.1c-0.2-0.1-0.5-0.1-0.7-0.2
		C101.8,262.7,100.4,262,101,260.8z"/>
	<path class="st56" d="M292.8,482.2c-0.4,0.1-0.8,0.1-1.2,0.2c-2.4,0.4-3.4-1.5-4.4-2.9c-0.8-1.2,0-1.9,1.4-1.1c0,0-0.1-0.1-0.1-0.1
		C290.4,479.1,291.7,480.6,292.8,482.2z"/>
	<path class="st57" d="M350,509.8c-1.4-0.3-2.7-0.5-4.1-0.9c-0.5-0.1-1.4-0.5-0.7-1.2c0.3-0.3,1.1-0.1,1.6-0.1
		C348.9,507,349.5,508.4,350,509.8z"/>
	<path class="st58" d="M596.7,456.1c-0.2,0.8,2,0.7,0.7,1.9c-1.2,0.9-2.4,1.5-3.9,1.3c-0.4,0-1,0.1-1-0.1c-0.5-1.1,1-1.3,1.2-2.1
		C594.7,456.7,595.7,456.4,596.7,456.1z"/>
	<path class="st59" d="M553.3,490c1.5,2.1-1,2.2-1.6,3.2c-0.2,0-0.4,0.1-0.6,0.2c-0.4,0-0.9-0.1-1.3-0.1c0.4-0.5,0.8-1.1,1.2-1.6
		C551.8,491.1,552.5,490.5,553.3,490z"/>
	<path class="st18" d="M581.1,481.7c-1.6,1.9-3.3,2.3-4.9,0c1.5-1.7,3.1-1.5,4.7-0.3L581.1,481.7z"/>
	<path class="st60" d="M102.6,251.3c1.4,1.5,1.1,3.3,0.9,5.1c-0.1,0.6-0.4,1.7-1.5,1.1c-0.4-0.3-0.6-1.6-0.6-1.7
		C103.7,254.8,102.1,252.7,102.6,251.3C102.7,251.2,102.6,251.3,102.6,251.3z"/>
	<path class="st61" d="M580.9,481.3c-1.6,0.1-3.2,0.2-4.7,0.3c-0.5-0.1-1.1-0.1-1.6-0.2c0-0.7,0.3-1.1,1-1.1c2-0.7,3.9-1.4,6.1-0.8
		C582.4,480.3,582.4,480.3,580.9,481.3z"/>
	<path class="st62" d="M432.9,523.2c-1.7,1.3-3.3,1.8-5,0C429.6,522.4,431.2,522.1,432.9,523.2z"/>
	<path class="st63" d="M116.2,294.5c-3.3-1.6-2.9-5-4.1-7.7c1.5-1.9,1.7,2.1,3.4,0.7c1.3-1.1,0.7-4.1,2.7-3.5c2,0.6,3.5,2.9,3.7,5
		C122.2,292.7,120.2,294.4,116.2,294.5z"/>
	<path class="st21" d="M189.2,398.5c-1.9-0.9-3.7-1.9-5.6-2.8c0.9-1.3,0.8-2.6-0.6-4c1.6-0.1,2.5-0.1,3.4-0.2
		c1.6-0.2,2.7-0.8,0.8-2.3c-1.8-1.3,0.5-1.5,0.6-2.3c4.5,1.1,5.7,3.4,4.8,9.4C190.8,396.1,189.6,396.8,189.2,398.5z"/>
	<path class="st64" d="M175.9,383.2c-2.2-2.5-5.1-4.3-5.3-7.9c1.8,0.1,4.7,1.7,3.4-2.4c-0.2-0.7,0.4-0.9,0.9-1.1
		c2.9-1,3.4,1.9,4.6,3.2c1.2,1.5,0.7,3.4-1.1,4.3C175.6,380.6,175.5,380.5,175.9,383.2z"/>
	<path class="st65" d="M149.3,347.3c-1.5-2.9-4.5-5.3,0.7-7.5c0.8-0.3,0.6-2.2,2.6-0.9c2.1,1.3,2.6,2.5,1.9,4.6
		c-0.3,0.8-1,1.6-1.7,1.3C150.3,343.5,150.4,345.9,149.3,347.3z"/>
	<path class="st66" d="M374.5,515.3c-0.6-0.4-1-0.8-0.1-1.4c3-1.8,6.5-0.7,8.8,3c-1.4,1-5.1,0.8-2.1,4.2c0.5,0.6-0.7,1.2-1.5,1.3
		c-2,0.2-3.9,0-5.5-1.4c-0.5-0.5-1.7-0.2-1.5-1.4c0.2-1,0.8-1.1,1.8-1.3C376.3,517.8,376.4,516.4,374.5,515.3z"/>
	<path class="st66" d="M335.1,503.5c-1-1.4-0.8-2.4,1-2.5c1.7-0.1,3.3,0.5,4.6,1.7c0.3,1.3,2.2,2.6-0.2,3.8
		c-0.2,0.1-0.5,0.8-0.4,0.9c2.3,2.4,0.2,3.3-1.5,3.6c-2.3,0.3-4.2-1-5.6-2.8c-0.5-0.6-0.7-1.6,0.9-1.9
		C334.9,506,336.4,505.1,335.1,503.5z"/>
	<path class="st67" d="M300.4,493.2c-1.8,0.2-3.3-0.3-4.5-1.7c-1.6-1.7-1.6-1.6,0.7-2.7c0.7-0.3,1.2-0.9,1.4-1.8
		c0.6-3.7,0.6-3.7,4-1.4C303.4,488.5,300.3,490.5,300.4,493.2z"/>
	<path class="st20" d="M320.8,502.5c-3.7,1-5.9-1-7.8-3.8c0.9-1.4,3-1.4,3.4-3.6c0.4-2,2.1-1,3.1-0.4c0.8,0.5,2.9,1,1.6,2.4
		C319.2,499.1,318.8,500.6,320.8,502.5z"/>
	<path class="st63" d="M650.3,408.1c1.9-1.5,1.9-4.2,3.5-5.8c1.3-1.2,3.3-4.4,4.5,0.2c0.5,1.7,4.2-0.2,3.2,3.2
		c-0.7,2.3-4.4,5.5-6.9,5.3c-0.3,0-0.2-0.3-0.2-0.5C653.6,407.6,653.6,407.6,650.3,408.1C650.3,408.1,650.3,408.1,650.3,408.1z"/>
	<path class="st68" d="M691.3,360.1c0.9-2.5-0.1-5.6,2.4-7.5c1.5-1.1,2.9-2.2,3.8,0.6c0.3,0.8,0.5,1.5,1.5,1.4
		c3.9-0.4,2.5,2.3,1.6,3.5c-1.2,1.7-2.6,3.7-5.3,3.5c-0.6-1.1,1.4-2.7-0.3-3.4C693.3,357.3,692.6,359.5,691.3,360.1z"/>
	<path class="st69" d="M681.7,375c-1.2-0.1-1.7,2.7-3.2,1.4c-0.9-0.8,1.7-1.6,1-3.2c-0.9-2.3,0.8-3.8,2.5-4.7c1.8-1,2.4,0.8,3.2,2
		c0.8,1.1,3.7,0,2.7,2.7c-0.6,1.6-0.7,3.5-2.7,3.9c-0.7,0.1-3,2.1-1.9-1.1C683.4,375.3,682.8,374.9,681.7,375z"/>
	<path class="st70" d="M707.8,344.9c-0.9-1.1,1.1-2.1-0.1-2.9c-1.1-0.8-1.9,0.1-2.6,0.9c-1,1-1.9,0.5-1.8-0.6
		c0.3-2.6,0.5-5.4,3.1-6.9c1.2-0.7,2.8-1.3,3.3,0.9c0.1,0.5,0.2,1.1,0.7,1.2c1.2,0.3,3.5-1.7,3.2,1.8c-0.3,3-1.3,5-4.5,5.2
		C708.6,344.6,708.2,344.8,707.8,344.9z"/>
	<path class="st71" d="M757.3,266.4c0.8,3.9-0.6,6.6-4.5,7.8c-1.4-6.1-3-0.5-4.5-0.1c-1.2-3.8-1.3-7.3,2.2-10c1.2,0.4,3-0.8,3.4,1.8
		C754.1,268.1,756.2,265.5,757.3,266.4z"/>
	<path class="st72" d="M767.7,237.1c1.1-2,0.3-4.3,0.8-6.4c0.6-3.1,2-3.7,4.6-1.7c0.4,0.3,0.9,0.8,1.2,0.7c1.1-0.2,2.8-1.1,2.5,0.8
		c-0.2,1.5,0.6,3.8-1.6,4.6c-1.1,0.4-1.9,2.5-3.6,0C770.4,233.3,769.2,236.5,767.7,237.1C767.7,237.1,767.7,237.1,767.7,237.1z"/>
	<path class="st73" d="M762.8,255.9c-0.2-3.3-0.2-3.4-2.6-2.1c-0.5,0.3-0.9,0.4-1.4,0.1c-1-0.5-0.7-1.2-0.6-2c0.3-1.9,0.2-4,2.2-5.1
		c0.9-0.5,1.5-0.5,2.3,0.4c0.9,0.9,1.6,3.1,3.6,1.5c0.8,1.1,1.4,2.4,0.3,3.6C765.6,253.5,764.8,255.1,762.8,255.9z"/>
	<path class="st74" d="M81.3,220.5c-0.6,0-0.6-1.1-1.5-0.9c-3.2,0.9-6.4-1.7-5.9-4.8c0.1-0.9,0.8-1.6,1.5-1.3c2.4,0.9,2.8-1,3.6-2.4
		c2.6-0.5,3.7,1.6,3.8,3.3C83,216.4,84.3,219.1,81.3,220.5z"/>
	<path class="st72" d="M69.3,202.9c-1-1.8-2.7-2.5-3-4.1c-0.4-1.8-2.3-4.3,2-3.7c0.6,0.1,1.5-0.7,1.8-1.3c0.4-0.9,0.7-1.8,1.9-1.4
		c1,0.3,1.8,1,1.8,2.3c0,1.4-0.3,2.8,0.2,4.3c0.3,0.9-0.7,2-2,1.5C69.7,199.4,69.7,199.3,69.3,202.9z"/>
	<path class="st75" d="M89.8,229.6c0.4,0.1,1.1,0.9,1.5,1.9c0.6,1.7,0.2,3.6,1.2,5.2c0.1,0.2-0.1,0.8-0.3,0.9c-1.8,1.1-4,0.1-6,0.7
		c-1.2,0.3-2.6-2.8-2.4-5.1c0-0.3,0-0.7,0.1-0.7C85.7,231.5,87.5,230.7,89.8,229.6z"/>
	<path class="st74" d="M436,521.6c3.3-3.4,6-3.9,9.3-1.4c-1.1,2-2.3,4,0.9,5.3c0.6,2.9,0.2,3.2-3.7,2.5c-2.3-0.5-5.9,0.5-4.7-4.2
		C437.9,523.3,436.6,522.4,436,521.6z"/>
	<path class="st70" d="M394.2,521.5c0.8,0.2,2.6,1.4,1.8-0.3c-0.8-1.7-1.5-2.8,0.2-4.1c2-1.5,4-0.7,5.8,0.5c0.6,0.4,1.1,1.1,1.6,1.7
		c0.1,1.3-0.7,1.8-1.6,2.3c-0.5,0.3-1.2,1.3-1.1,1.4c1.3,1.4,2.2,2.7-0.6,3.2c-2.5,0.5-4.5-0.5-5.9-2.7
		C394.2,522.9,394.3,522.2,394.2,521.5z"/>
	<path class="st72" d="M416.3,527.2c-0.1-1.9,2.9-3.8-0.1-5.8c-0.2-0.1,1-1.8,2.2-2.1c2.3-0.5,4.4,0,6.1,2.2c-4,1.7-2.1,3.6-0.2,5.6
		C422.4,529.9,419.7,529.9,416.3,527.2z"/>
	<path class="st76" d="M442.5,528.1c1.4-0.6,4,0.6,3.7-2.5c0.7-0.8,1.5-1.2,2.3-0.4c0.5,0.6,0.1,1.5-0.5,2.1
		c-0.9,0.8-1.8,1.4-2.7,2.1C444.1,529.4,443.1,529.2,442.5,528.1z"/>
	<path class="st77" d="M416.3,527.2c2.7,1.3,5.3,2.8,8,0c1.2-0.1,2.1,0,0.7,1.3c-1.4,1.4-8.2,1.7-9.6,0.3
		C414.5,527.8,416.4,528,416.3,527.2z"/>
	<path class="st21" d="M547.7,498.7c-1.8,2.8-4.7,3-7.6,3c0-0.4,0-0.8,0.1-1.1c0.3-0.8,2.1-1.5,0.5-2.4c-1.2-0.8-2.3-0.1-2.5,1.5
		c-0.1,0.8-0.3,1.6-1.7,1.3c0.2-3.3,0.7-6.4,4.1-8c2.5-1.2,3.8-0.3,3.5,2.4C544,497.9,547.1,497.1,547.7,498.7z"/>
	<path class="st68" d="M736.1,306.4c-0.8,3-3.4,2.8-5.5,3.5c-0.8-1.1,1-2-0.3-3.1c-1.1-0.5-3.9,4.3-4.1-1c1.7-0.2,0.8-1.6,1-2.4
		c0.4-1.7,1.5-2.7,2.9-3.2c1.3-0.5,1.9,1.5,2.4,1.6C735.1,302.5,735.7,304.2,736.1,306.4z"/>
	<path class="st78" d="M742.1,292.5c0.4-5.2-1.7-3.1-3.5-1.7c-1.2-4.1-0.5-7.3,1.9-8.1c2.5-0.9,3.2,3.8,6.1,2.2
		C747,288.1,745,290.1,742.1,292.5z"/>
	<path class="st79" d="M242.8,452.4c0.5,3.3,2.9,4.5,5.7,5.3c-1.2,2.2-2.7,1.2-4.2,0.3c-1.9-1.1-3.2-2.8-3.6-4.9
		C240.5,452.5,242.3,453.5,242.8,452.4z"/>
	<path class="st20" d="M465.9,520c-0.6,0.8-2.2,0.8-1.6,2.4c-0.9,1.7,4.2,1.3,1.3,3.6c-2.6,2.1-5.5,1.2-7.3-1.9
		c0.7-0.8,2.3,0.7,2.6-0.8c0.2-1.1-0.8-1.4-1.6-2.1c-2.9-2.7,1.8-2,1.9-3.5c0.2,0,0.5-0.1,0.7-0.2C464,517.1,465.7,517.5,465.9,520z
		"/>
	<path class="st80" d="M623.7,433.5c1.2-0.8,1.9-2.1,3.4-2.6c0.9-0.3,1.9-0.9,1.9,0.7c0,2.4,2.1,2,3.4,2.4c2,0.7,1.1-2.1,2.8-2.4
		c-1.2,1.3,1,4.1-2.9,4.4c-1,0.1-2.7,3.5-4.8,4.5c-0.5,0.2-1.5,0.7-2-0.3c-0.7-1.5,1.5-1.5,1.5-2.7c-1.7-1-3.3-0.6-4.8,0.5
		c-1.3-0.4-0.4-1,0-1.2C624.1,436.2,624,434.9,623.7,433.5z"/>
	<path class="st81" d="M638.6,422.1c-1.1-3.6,2.2-4,3.9-5.8c1.2,1.7,0.6,5.6,4.8,3c-0.8,2.1-1.3,3.6-1.9,5.2
		c-1.2,0.7-2.3,1.6-4.2,1.4C643.1,422.7,641.2,422.1,638.6,422.1z"/>
	<path class="st36" d="M272.9,468c0.7,1,1.5,2.1,2.7,3.7c-3-0.7-4.2-2.5-5.6-4.1C271.1,466.7,271.9,468.2,272.9,468
		C272.9,468,272.9,468,272.9,468z"/>
	<path class="st73" d="M558.4,482.6c1.2-0.2,2.2-1.3,3.6-0.9c1.1,2.5,1.7,5.4,5.3,5.4c-1.3,3.6-4.1,4.7-7.6,4.6
		c-3.5-1.4,0.2-1.9,0.3-2.8c-1.5-1.6-3.2-0.4-4.8-0.3C555.2,485.9,556.8,484.2,558.4,482.6z"/>
	<path class="st11" d="M465.9,520c-0.9-1.6-2.2-2.5-4.1-2.6c2-1.3,3.5-0.1,4.8,1C467.7,519.3,466.5,519.6,465.9,520z"/>
</g>
<g>
	<path class="st82" d="M562,576.4c-1.1-4.1-5.7-5.2-7.9-8.5c2.2-1.4,4.2,1.2,6-0.5c0.5-1.4-0.8-2.1-1.2-3.1
		c-1.6-0.8-2.6-1.7-3.2-2.9c-2.5,0.1-4.9-0.3-7.2-1.1c-1.7,1.5-4.4,1.3-10,0.8c-1.7-0.2-3.6,0.6-5.2-0.8c-0.2,0.1-0.5,0.1-0.7,0
		c-2.1,0.6-4.2,0.4-6.3-0.2c-6.1-1.7-11.1-5.1-15.5-9.5c-4.4-4.5-9.7-7.4-16.1-7.5c-2.7,1.4-2.3,2.8-0.1,4.3
		c1.6,1.1,4.2,1.3,4.1,4.4c-5.6-3.4-11.9-4.1-17.9-5.6c-8.4,1.2-16.6,3.5-25,4.8c-0.8,0.1-1.6,0.2-2.4,0.4
		c-8.2,1.3-16.3,4.2-24.9,1.7c-2.5-0.7-4.4,1.1-6,2.8c-0.9,1.3-0.7,2.4,0.4,3.5c5.2-0.2,10.5,0.2,15.7-0.8c3.7,1.5,7.2,3.5,11.3,3.7
		c0.5,0,0.9,0,1.4-0.1c0.7-0.1,1.8-0.1,1.9,0.3c1.3,6.2,4.9,4.6,8.6,2.5c1.2-0.6,2.6-0.2,3.9-0.7c0.4-0.2,0.7-0.6,1-1
		c0.1-0.9-0.9-2.5,0.7-2.4c4,0.3,7.5-2.8,11.7-1.3c-3.2,2-7.8,2.3-7.9,7.4c-0.1,2.8,2.6,3.8,3.8,6c-0.9-0.4-1.7-0.7-2.5-0.2
		c-0.2,0.4-0.3,0.9-0.3,1.4c0.1,0.7,0.4,1.4,0.8,2c3.8,2.4,7.6,4.6,11.8,6.1c0.9,0.3,2,0.6,2.8-0.4c0.8-1,0-1.9-0.4-2.7
		c-0.4-0.8-1.2-1.3-1.6-2c2.8,0.7,5.7,1.6,8.4,2.8c1.7,0.8,3.5,1.2,4.9-0.7c-0.5-2.8-3.1-2.7-4.9-3.6c-0.9-0.4-2-0.5-2.8-1.1
		c-2.5-1.9-4.3-4.6-7.7-5.7c-1.6-0.5-3.6-4-0.7-5c3.3-1.2,6.6-4.2,10.7-2.1c10.5,5.4,20.5,11.6,31.3,15.9c-0.5,0.1-1,0.4-1.3,1.1
		c5.8,3.4,12.2,4.7,18.7,5.9c1.5-1.6,1.4-3.5-0.5-4c-6.6-1.7-9.5-7.4-13.8-11.6c-1-1.9-2.5-2.9-4.7-3.1c-3.2-0.3-5.6-2.1-7.5-4.6
		c3.3,0.8,6.1,2.5,9.2,3.7c3.7,1.5,7.4,3.9,11.8,2.6c0.3-0.3,0.3-0.6,0.3-0.9c3.6,0.4,6.9,2.3,10.6,2.4c0.3,0-0.9,1.1-0.4,1.9
		c4,4.6,9.3,7.3,14.3,10.4c2.9,1.8,5.2,0.1,4.5-3c-1-4.3-2.8-8.3-5.7-11.6C558.2,570.7,561.1,573.3,562,576.4z"/>
	<path class="st83" d="M493.2,542.5c3.2-1,6.4-0.4,9.5,0.1c4,1.1,5.7,6.1,10.3,6.1c5,6.4,12.2,9.1,19.5,11.7
		c-1.5,2.4-3.6,1.9-5.7,1.3c-7-1.9-12.8-5.5-17.6-11c-3.7-4.4-9.2-5.3-14.4-6.8C494,543.7,493.1,543.7,493.2,542.5z"/>
	<path class="st84" d="M534.5,559.7c1.4,0.4,2.9,0.8,3.7,2.2c-1.7-0.3-4.4,2.5-4.9-1.6C533.7,560.1,534.1,559.9,534.5,559.7z"/>
	<path class="st84" d="M564.4,585c-1.6-0.5-3.1-1.5-3.2,1.7c0,1.6-1.2,0.6-1.7-0.2c-3.7-3.2-6.3-8-11.8-8.7
		c-6.1-4.8-13.6-6-20.7-8.1c-2.9-3.1-7.4-2.3-10.7-4.9c-2.3-1.8-2.9-3.1-1.9-5.8c7.3,3.3,14,8.1,22.4,8.4c3.9-0.2,7.2,1.2,10.3,3.3
		c4.4,3.1,8.8,6.3,13.2,9.4c1.3,0.9,2.8,2.5,4.4,1.4c1.9-1.3,0.8-3.5,0-4.9c-1.7-2.9-1.9-6.7-4.8-8.9l0,0c-0.6-0.9-1.2-1.7-1.8-2.6
		c0.6-0.2,1.2-0.4,1.8-0.6c2.5,4.2,4.9,8.5,6.4,13.3C567.4,580.8,567.1,583,564.4,585z"/>
	<path class="st85" d="M382.4,536.6c1.5,0.2,2.7,1.7,4.4,0.9c0.6,0.9,1.4,1.2,2.4,1.3c6,3.1,12.5,4.6,18.9,6.6
		c3.5,1.4,7.6,1.8,9.7,5.6c-0.1,1.5-1.1,2-2.4,2.4c-6.1,0.2-11.8-1.7-17.1-2.9c4,2.9,9.4,2.4,14.3,3.7c1.6,1.3,2.3,2.8,0.9,4.6
		c-2.4,2-5.2,2.5-8.2,2c-2.2-0.4-4.2,0-6.2,0.6c-6.2,1.8-10.9-2.7-16.3-4c-4.6-1.1-8.9-3.9-13.8-1.4c-0.5,0.3-1.3-0.2-1.8-0.7
		c-0.3-0.4-0.4-0.8-0.4-1.3c0.1-1.1,3.2-1.8,0.5-3.3c-1.1-0.6-3.4-0.3-2.9-2.5c0.5-2.1,1.3-4.1,3.8-4.7c0.6-0.2,1.2,0,1.8-0.5
		c-1.2-0.5-2.6-0.5-3.3-1.7c1.1-3.6,2.2-3.9,7.4-1.8c4.4,2.2,9.4,2.5,13.9,4.5c-3.6-1.4-7.1-2.9-10.9-3.4c-1.3-0.2-2.7-0.5-2.5-2.4
		C376.5,535.4,379.7,537.3,382.4,536.6z"/>
	<path class="st86" d="M373.9,540.6c-2.4-0.6-5-3.1-6.7,0.9c-2.1,0.7-2.2-0.8-2.1-2.1c0.1-1.3,0.9-2.2,2.3-2
		c1.9,0.3,3.8-0.4,5.3-0.2c1.1-0.1,0-1,0.4-0.5c0.1,0.2,0,0.3-0.4,0.3c-2.2-0.1-4.9,1.8-6.4-1.5c0.6-0.3,1.3-0.6,1.9-0.8
		c2.4,0,4.8,0.1,7.2,0.1c2.3,0.6,4.7,1.2,7,1.8c-2.2,1.8-5.8-0.2-7.7,2.6C374.5,539.8,374.6,540.4,373.9,540.6z"/>
	<path class="st87" d="M465.5,563.9c0.3-0.1,0.6-0.2,0.9-0.2c2.6-0.1,4.1,1.5,5.4,3.4c0.6,3.4,5.5,4.1,5.3,8.1
		c-2.2,0.3-2.8-1.7-4.3-2.2c-0.8,0.4-3.4-2.7-2.5,1.2c0.2,1.1-0.7,1.8-1.5,2.4c-3.1,1.8-5.6,4.6-9.3,5.2c-1.2,0.2-1.5,1.7-2.1,2.6
		c-3.8,4.3-8.2,7.5-14.1,8.6c-2.7,0.5-5.3,1.9-7.7,3.4c-0.7,0.3-1.5,0.4-2.3,0.3c-1.3-0.6-0.9-1.6-0.6-2.6c0.2-0.4,0.6-0.8,0.9-1.1
		c1.3-1,2.6-2,3.6-3.3c1.1-1.5,1.1-2.7-1-3.2c-4-2-3.1-4.4,0-6.9c-1.4,0.3-2.3,0.2-3.2-0.4c-1.2-1.1-1.7-2.2-0.4-3.5
		c0.4-3.1,3.3-5.2,3.3-8.4c-0.7-1.5-2.1-1.9-3.5-2.5c-2.9-1.8-6.5-1.2-9.6-2.7c-0.7-1-0.4-1.7,0.5-2.4c0.8-0.6,1.7-1.7,2.4-1.6
		c4.6,0.8,9.1-0.4,13.7-0.5c2.9,3.1,6.3,5.1,10.7,4c0.3-0.1,0.6-0.2,0.9-0.3c1.2,0.6,1.3,1.9,0.7,2.4c-2.3,1.9-2.8,4.6-3.3,6.9
		C453.7,568.2,460.7,568.9,465.5,563.9z"/>
	<path class="st88" d="M432.8,596.1c0.6-0.2,1.2-0.3,1.8-0.5c3.3-2.1,7.2-1.2,10.7-1.8c5.2-0.9,9.2-3.6,13.2-6.3
		c3.1-2.1,5.7-5,8.9-7c2.2-1.4,2.5-3.7,2.8-6.1c0.1-0.7-0.4-1.8,0.8-1.9c1,0,1,1.2,1.6,1.7c0.3,0.5,0.6,1,0.9,1.5
		c1.3,2.9,5.4,3.2,6.2,6.7c0.5,5.5-0.3,6.4-5.7,6.9c-3.1,0.3-5.8,1.2-7.8,3.8c-7.7,10.3-18,15.9-30.8,17.3c-1.5,0.2-4-0.9-4.3,2.1
		c-0.1,0.8-0.5,2-1.3,1.9c-5-0.6-6,3.2-7.7,6.5c-3.1-0.6-3.7-3.4-2.8-5.3c1.8-3.6,0.9-6.2-1.4-8.9c-0.5-0.6-0.6-1.5-0.6-2.4
		c0.3-2.7,2.3-4,4.5-4.8C425.6,598.1,429,596.6,432.8,596.1z"/>
	<path class="st89" d="M493.9,561.2c8.5,4.4,17.1,8.9,25.6,13.3c2.7,1.4,5.6,2.3,8.5,3.5c-1.4,1.5-3.1,0.1-4.4,1
		c-7.6,2-15.3,2.8-23.2,1.9c-0.8-0.2-1.4-0.7-1.8-1.5c-1.3-1.8-3.5-1.5-5.1-2.4c-2.4-2-4.8-3.8-6.1-7
		C484.8,562.9,486.3,560.7,493.9,561.2z"/>
	<path class="st84" d="M500,580.2c7.9-0.4,15.8-0.8,23.7-1.2c6.1,2,12.7,2.8,18.5,5.8c1.1-0.4,2.1,0.2,3,0.6c1,0.5,1.9,0.9,2.8,1.5
		c1.7,1.4,4,1.7,5.4,3.5c-0.4,7.2-4.2,12.9-9,13.7c-0.2-0.1-0.4-0.2-0.6-0.3c-1.3-2,0.1-3.5,0.9-5.2c0.9-3.4-0.2-5.2-3.9-4.8
		c-1.7,0.9-3.5,1.3-5.5,1c-2.5-0.8-3-2.9-3.2-5.1c-0.4-4.3-2.8-6.2-7.1-6.8c-3.8-0.5-7.5-0.7-11.2,0.6c-2.7,1-5.5,1.5-8.3,1
		c-3.6-0.7-6.8,0-10,1.6c-1.7-0.4-2.7-1.5-2.4-3.2c0.3-1.6,1.6-2,3-2C497.5,580.7,498.6,579.7,500,580.2z"/>
	<path class="st90" d="M417.4,550.6c-2.8-2.2-7.2-1.6-9.3-5.2c0.8-2.1,1.6-4.2,2.5-6.4c1.8,0.6,1.1,3.1,2.9,3.5c5,3,9.6,6.6,15.6,8
		c6.4,1.6,12.3,2.1,17.5-2.9c1.6-0.6,3.1-1.6,4.7-2c4.5,1.2,2,4.7,2.4,7.3c-8.4,1.4-16.8,4.2-25.4,1.5c-2.5-0.8-3.3,1.7-5.1,1.9
		C422,553.6,418.8,553,417.4,550.6z"/>
	<path class="st91" d="M472.7,574.3c-0.6,0.3-2.4-2.6-1.7,0.3c0.9,4.3-1.1,6.3-4.3,8.3c-4.3,2.6-7.7,6.4-12.2,8.9
		c-5.2,3-10.5,4.8-16.4,3.5c-1.4-0.3-2,3.9-3.5,0.4c2.4-2.7,6-3.8,9.1-4.4c5.7-1,9.3-4.4,13.1-8.1c4.3-1.8,8.9-3.1,11.4-7.6
		c3.1-1.7-2.2-4.2,1.1-5.9c1.3,0.4,2.3,1.9,3.4,3.2C472.7,573.4,472.7,573.9,472.7,574.3z"/>
	<path class="st92" d="M544.6,586.2c-0.8-0.5-1.6-0.9-2.4-1.4c0.4-1.6,0.4-2.7-1.7-3.3c-2.7-0.8-5.2-2.2-7.7-3.3
		c-0.5-0.2-0.9-0.4-1.4-0.5c1.7-4.4-3.7-4.9-4.4-8c8.2-0.3,15.4,2,21.3,7.8c0.2,0.1,0.4,0.3,0.5,0.4c0.4,1.8,0.6,3.6,0,5.3
		C547.8,584.5,546.9,586.4,544.6,586.2z"/>
	<path class="st84" d="M500,580.2c-1.3,0.4-2.5,0.8-3.8,1.2c-1.1,0.4-2.5,0.5-2.3,2.1c0.1,1.4,1.3,1.8,2.5,2.1
		c-1.4,1.9,2.1,2.4,1.2,4.2c-0.5,0.5-1.1,0.8-1.8,0.9c-6.2-1.5-12.5-2.6-16.9-8c-0.9-2.9-5-3.4-5.2-6.9c4.3,2.1,8.4,4.7,13.1,6.2
		c0.5-2.1-1.9-2.9-2-4.7c5.2-2.6,9,4,14,2.1C499.2,579.7,499.6,579.9,500,580.2z"/>
	<path class="st93" d="M465.5,563.9c-0.7,4.8-4.9,4.7-8.2,5.7c-3.7,1-7.5,1.6-11.9,2.3c4.4-2.1,2.7-4.1-0.4-6.2
		c3.5-0.4,6.8-0.2,6-4.4c4-0.3,4.1-0.3,4,3.1c0,0.8,0.1,1.4,0.8,1.4c1.3-0.1,2.9,0.9,3.7-0.5C461,562.3,463.3,563.6,465.5,563.9z"/>
	<path class="st94" d="M493.9,561.2c-2.3,0.8-6.2-0.2-6.5,2.8c-0.3,2.7,0.5,6,2.8,8.3c1.4,1.4,2.6,2.9,3.4,4.7
		c-2.2-1.3-6.5-0.1-6.1-4.9c0-0.3-0.8-0.9-0.9-0.8c-3.6,3.3-3.6-1.9-5.5-2.6c-1.3-0.5-1.9-2.8-1-4.4c0.9-1.5,1.8-3.2,4.2-1.8
		c2.1,1.2,2-2.4,3.8-2.2C490.1,560.5,492.2,559.8,493.9,561.2z"/>
	<path class="st84" d="M493.2,542.5c0.5,0.5,1.1,0.9,1.6,1.4c-3.2,2.3,0.1,2.5,1.1,2.8c3.9,1.2,4.5,3.9,4,7.3
		c-4.2-1.7-7.7-4.8-12.5-4.5c-2.1,0.1-3.7-1.2-5.3-2.3C485,543.6,489.5,544.1,493.2,542.5z"/>
	<path class="st95" d="M471.7,567.1c-2.2-0.5-3.5-2.4-5.4-3.4c-0.6-1.2-3-1.2-1.8-3.4c1-1.9,2.3-0.8,3.4-0.5
		c3.1,0.9,5.3-2.5,8.5-1.7c1.7,0.4,3.5,0.2,6.5,0.2c-2.7,2.1-4.4,3.7-6.7,4.2C473.5,563,472.5,564.9,471.7,567.1z"/>
	<path class="st96" d="M560,567.5c1.1,2.9,1.8,6,3.6,8.7c0.6,1,1,2.5-0.4,3c-1,0.4-1.8-0.7-2-1.7c-1-3.5-3.9-5.2-6.6-7.1
		c-1.2-0.9-3.4-1.7-2.3-3.8c1-1.9,2.9-0.8,4.5-0.5C557.9,566.4,558.9,567,560,567.5C560,567.5,560,567.5,560,567.5z"/>
	<path class="st97" d="M417.4,550.6c1.9,1.9,7.1,0.5,5.8,5.7c-0.9,1.1-0.3,2.2,0.1,3.2c-0.1,0.7-0.3,1.4-0.4,2.1
		c-0.3,0.4-0.7,0.5-1.2,0.4c-1-2.4-2.3-3.9-5.3-2.8c-1,0.4-2.2,0-3.1-0.9c0.7-1.6-0.8-2.4-1.2-3.6c0.3-1.3,1.6-1.2,2.4-1.8
		C415.7,552.4,417,552.1,417.4,550.6z"/>
	<path class="st98" d="M547.2,570.5c-3.5-1.1-7.1-1.5-10.3-3.3c0-0.5-1.6-1.8,0-1.5c4.4,0.8,8.7,2.2,14.3,3.7
		C548.9,570.1,548.1,570.3,547.2,570.5z"/>
	<path class="st93" d="M450,561.5c-5.7,2.3-7.5,1.7-10.7-4C442.6,559.6,446.2,560.8,450,561.5z"/>
	<path class="st99" d="M510.6,556.3c2.3,1.2,1.9,2.6,1.2,4c-0.1,0.2-1,0.3-1.2,0.2C509.3,559.2,509.8,557.8,510.6,556.3z"/>
	<path class="st100" d="M446.9,548.6c1.2-2.8,2.5-5.5,3.7-8.3c2.4,1,2.5,2.7,1.4,4.7c-0.2,0.4-0.4,0.8-0.6,1.2
		C450.4,547.8,448.7,548.3,446.9,548.6z"/>
	<path class="st101" d="M366.9,553.9c0.1,0.4,0.2,0.8,0.3,1.2c1.9,1.7,4.1,3.3,1.6,6.1c-2.1-0.5-4.3-0.7-5.9-2.3
		c1.1-4-2.1-4-4.8-5.4c0.7,1.8,1.8,2.6,2.2,3.9c0.2,0.7,0.3,1.4,0.1,2.1c-2.5,1.3-4.2-1.2-6.4-1.4c-1.2-0.5-2.3-1.4-3.4-2.1
		c-2.8-1.5-4.5,2.8-7.3,1.4c-0.4-3.9,1.4-7.3,2.2-10.9c1.5-2.8,1.7-6.4,5.3-7.9c5.9-2.4,8.1-1.8,12.7,4.1c0.7,0.6,1.2,1.6,0.8,2.2
		C361.3,548.9,364.1,551.4,366.9,553.9z"/>
	<path class="st102" d="M366.9,553.9c-2.4-0.2-3.6-3.7-6.8-2.2c0.9-3.4,4.1-5.5,3.4-9.1c0-0.6,0.3-1.5,0.1-1.9
		c-2.9-3.7-0.3-4.5,2.7-5.2c2.3,2.6,5.4-0.2,8,1.2c-1.9,1.2-4,1.4-6.1,1.4c-2.7,0-2.8,0.3-1,3.3c2,0.6,4.3-0.2,6.6,1.3
		c-2.4,2.9-8.7,0.4-8.2,6.4c2,0.3,5.3,0.1,5.6,3.2C371.3,554,368.5,553.8,366.9,553.9z"/>
	<path class="st103" d="M548.4,577.4c0-3.3,1.8-0.8,2.5-0.6c3.3,1,3.8,6.5,8.7,5.3c0.5-0.1-1.2,2.8,0,4.4c-1.3,2-2,5.2-5.5,2.7
		c-0.7-0.3-1.1-0.8-1.5-1.5c-0.6-1.5-1.4-2.9-1.8-4.5C551,580.8,550.5,578.8,548.4,577.4L548.4,577.4z"/>
	<path class="st104" d="M553.5,587.3c0.2,0.6,0.4,1.2,0.6,1.8c-0.2,0.4-0.4,0.8-0.6,1.3c-2.3-0.4-4.5-1.1-6.2-2.9
		c-0.2-1.4-0.3-2.9,1.4-3.2C551,583.8,552,586,553.5,587.3z"/>
	<path class="st105" d="M368.9,561.2c0.8-2.4-1.1-4-1.7-6c8.1-3.7,15.2,0.9,22,3.6c3.2,1.3,6.4,1.2,9.4,2.5c0.3,0.3,0.7,0.6,1,0.9
		c4.2,2.7,9.1,3.7,13.4,6.3c1.9,1.1,3.4,2.1,0.2,3.5c-3.3,0.7-6.1-0.8-8.9-2.2c-3.2-1.6-6.3-3.4-9.9-4.2c-0.6,1.8,1.1,2.4,1.4,3.5
		c1.2,3.6,4.9,3.7,7.3,5.5c1.7,1.3,3.3,2.7,5.1,3.9c0.8,1.9,2.8,2.6,4.2,3.9c0.8,1.5,3.4,2.5,1.9,4.4c-1.6,2-4.1,1.5-6.2,0.2
		c-0.7-0.4-1.2-1.1-2-1.4c-2.3-1-5.1-0.6-7.3-2.1c-0.5-0.5-0.9-1.1-1.1-1.8c-3-6.4-8.4-9.8-14.5-12.4c-1.9-0.3-3.9,0.3-5.5-1.1
		c-1.2-1.3-2.5-2.5-3.5-4c-0.8-1.3-1.5-2.6,0.6-3.5c3.7-0.6,6.3,3.7,10.3,2.4c-2.6-4-8.9-6.1-12.9-4.4c-0.9,1.3-0.3,2.4,0.3,3.5
		c0.5,1,1,2.1-0.6,2.6C369.9,564.3,368.8,563.3,368.9,561.2z"/>
	<path class="st106" d="M398.7,562c0.1-0.3,0.1-0.5-0.1-0.8c1.3-1.3,2.5-2.7,4.7-1.8c3.5,1.5,6.7,0.3,10-1.1
		c1.3-0.1,2.9,0.3,3.9-0.3c5.3-3,4.6,0.8,4.7,3.9c0.8,1.1,0.4,2-0.4,2.9C413.5,567.3,405.8,566.8,398.7,562z"/>
	<path class="st107" d="M376.5,547.7c5.9,0.6,11.4,2.4,16.7,7c-6.9,0.8-11.9-2.3-17.1-4.5C375,549.2,375,548.3,376.5,547.7z"/>
	<path class="st108" d="M414.5,552.9c-0.3,1.2-1.5,1.3-2.4,1.8c-6.7,0.6-12.7-1.2-18-6C400.9,550,407.7,551.5,414.5,552.9z"/>
	<path class="st109" d="M373.9,540.6c0.3-0.4,0.6-0.9,0.8-1.3c6.2,0.3,11.6,3,17.1,5.6C385.4,545.2,379.5,543.4,373.9,540.6z"/>
	<path class="st83" d="M376.5,547.7c-0.9,0.7-0.6,1.6-0.4,2.5c-1.2,0.4-2.4,1.3-3-0.9c-0.2-0.7-0.9-1.5-0.1-2.2
		C374.4,546.1,375.5,547,376.5,547.7z"/>
	<path class="st110" d="M394.9,569.3c-0.2-0.3-0.3-0.6-0.5-0.8c-0.8-1.2-3.7-1.6-2.4-3.6c1.4-2.2,3.5-0.6,5.3,0.1
		c5.3,2,9.9,5.8,15.9,6.1c6-3,12.9-2,19-4.5c1.5-0.6,3.2-0.7,4.8,0c0.3,0.4,0.9,1,0.8,1.2c-1.8,2.6-3.5,5.3-4.2,8.4
		c-8.7,0.4-17.3-0.8-25.9-1.1C402.8,574.9,398.4,572.9,394.9,569.3z"/>
	<path class="st111" d="M406.4,583.8c2.3,1.3,4.1,4.3,7.4,2.4c-0.8-1.3-1.6-2.6-2.4-3.9c1.9-1.6,3.7-0.1,5.6,0.3
		c6.4,1.4,13,2.3,19.5,3.3c3.2-0.9,4.1,0.1,2.5,3.1c-1.2,2.2-2.7,4-5.2,4.8c-0.7-2.6-2.1-3.5-4.7-2.3c-2.3,1-4.5,2-6.8,2.8
		c-1,0.1-1.9,0.1-2.4-1c-0.2-1.5,1.9-3.7-0.4-4.4c-2.7-0.8-5.6-0.2-7.3,2.6c-0.2,0.6-0.6,1.2-1.2,1.6c-2.3,1-4.8,1.4-7.3,1.5
		c-2.2-0.6-4.5-0.4-6.7-1.3c-0.4-0.3-0.6-0.7-0.6-1.2c0.1-0.5,0.4-0.9,0.7-1.2c1.2-1,2.1-2.5,3.9-2.7
		C406.3,589.7,406.3,589.7,406.4,583.8z"/>
	<path class="st88" d="M436.5,585.8c-1.2,2.4-3.2,1.1-4.7,0.8c-6.7-1.7-13.8-1.8-20.4-4.3c-1.5-0.7-3.5-1-3.2-3.4
		c-0.6-2.1,1.1-1.9,2.2-2.1c2.9-0.3,5.8,0,8.8,0.6c4.6,1,9.3,1.5,14,1c2,0,4-0.1,5.8-0.1C440.6,581.8,429,580.1,436.5,585.8z"/>
	<path class="st112" d="M422.4,593.3c2.7-2.4,6.3-3.2,9.5-3.9c4.6-0.9,1.9,2.5,1.8,4.3c-0.3,0.1-0.5,0.2-0.8,0.4
		c-2.4,4.2-7.4,3.8-10.8,6.1c-1.9,1.2-5.1,1-5.2,4.3c0.1,1.8,1.7,4.4-0.7,5.2c-1.9,0.7-3.3-1.8-4.3-3.4c-1.6-2.5-2.6-5.3-2.9-8.3
		c0-1.2,0.4-2.2,1.2-2.9c1.8-1.7,3.9-1,6.1-1C418.4,594.1,420.6,595,422.4,593.3z"/>
	<path class="st113" d="M437,566.6c-7.6,3.1-15.8,3.6-23.8,4.5c0.3-0.4,2.1-0.5,0.3-1.3c-4.4-1.9-8.8-3.8-13.2-5.7
		c-0.9-0.4-2.7-0.1-1.6-2.1c7.3,3.5,15,3.4,22.8,2.2c3.7-2.3,7.6,0.3,11.3-0.3C434.6,564.1,436.3,564.6,437,566.6z"/>
	<path class="st111" d="M433.3,578.4c-5,3.7-10.2,0.7-15.2-0.1c-3.4-0.5-6.6-0.6-9.8,0.5c-4.5-3.1-10.6-4.1-13.4-9.5
		c9.1,6,19.6,4.5,29.6,5.3c3.1,0.2,6.3-0.4,9.1,1.6C431.8,576.7,432.8,577.6,433.3,578.4z"/>
	<path class="st91" d="M415.4,604c-0.8-2.7,1.5-3,3.1-3.4c5.3-1.2,9.7-4.3,14.6-6.6c-0.1,0.7-0.2,1.4-0.2,2
		c-2.1,2.8-5.5,2.9-8.4,3.9c-2.7,0.9-5.4,1.5-5.8,5C417.2,605.8,416.5,604.2,415.4,604z"/>
	<path class="st114" d="M468.2,575.6c-1.6,5.8-5.9,7.5-11.4,7.6c0.3-1,0.2-3,1.2-2.9C462.6,581.1,464.7,577,468.2,575.6z"/>
	<path class="st115" d="M432.8,563.9c-3.7,2.3-7.5,0.1-11.3,0.3c0.1-0.8,0.3-1.5,0.4-2.3c0.3,0,0.6-0.1,0.9-0.3
		C426.3,561.7,429.8,561.7,432.8,563.9z"/>
	<path class="st116" d="M415.4,604c2.1-2.8,1.7,1.9,3.2,1.1c0.9,1.4,1.5,3.2,2.8,3.9c2.4,1.4,1.7,2.8,0.5,4.2
		c-2.5,2.8-2,5.2,0.7,7.4c2.8,1.1,3.4,4.1,5.2,6c1.8,2.6,4.2,4.7,6.3,7c1.4,2.4,3.2,4.4,4.6,6.8c0.9,1.6,2.3,2.8,3.4,4.3
		c1.2,1.6,2.6,3.2,0.8,5.3c-1.8,0.3-2.9-0.8-3.6-2c-4.7-7.7-12.3-11.1-20.2-14.1c-4.5-1-8.7-3.7-13.7-1.3c-2,1-4.4-0.5-5.5-2.5
		c-1.4-2.5,0.3-4,2.4-5c2.7-0.4,5.2-1.3,7.9-1.8c0.5-0.1,1-0.1,1.4,0c2.3,0.6,4.4-0.2,3.8-2.6c-0.6-2.6-2.9-3.7-5.7-2.4
		c-0.4,0.2-0.9,0.4-1.4,0.6c-8.3,0.5-10.3-2.6-14.1-11.9c-2-5-4.5-9.7-6.7-14.6c-0.4-0.7-0.7-1.4-0.9-2.1c-0.1-0.8,0.3-2.2,0.3-2.2
		c1.6,1.1,3.5-1.1,4.9,0.5c3.3,5.5,4.7,12,8.8,16.8c-0.4-4.3-4.6-7.5-3.6-12.3c2.3,0.1,4.8-1,6.7,1.2c1.8,1.5,4.4,1.4,6.1,3.2
		c1.8,3.9,1.2,9.1,6.3,11.2C415.9,607,415.7,605.5,415.4,604z"/>
	<path class="st117" d="M478.8,582.7c5.2,3.6,11.4,4.9,17.1,7.3c0.6,3.2-1.7,3.5-3.9,3.7c-2.9,0.3-5.6-0.5-8.4-1.2
		c-1.8-0.4-3.5-1-5.3-0.2c-6.3,0.2-11.2,2.4-14.9,8.1c-2.4,3.8-6.5,6.5-9.9,9.7c-3.4,3.1-7.8,4.2-12.6,3.7c-3.4-0.6-7-0.2-10.4-1.1
		c-1.8-1.8-1.7-3.6,0.9-3.7c9.9-0.2,18.7-2.6,26.5-9.1c2.9-2.4,5.3-4.9,7.4-7.8c2.3-3.1,5.3-4.6,9-4.1
		C479.2,588.6,479.6,586.3,478.8,582.7z"/>
	<path class="st103" d="M430.6,612.7c3.4-1.9,6.9-0.2,10.4-0.2c0.3,0.3,0.4,0.7,0.3,0.8c-5.9,2.6-7.1,9.4-11.7,13.2
		c-0.7,0.7-1.3,1.4-2.4,0.9c-2-1.9-3.3-4.4-4.6-6.8c0.1-6.6,0.5-7,7.1-6.9C429.9,613.7,430.3,613,430.6,612.7z"/>
	<path class="st118" d="M535.4,599.3c0.2-0.4,0.5-0.8,0.7-1.2c4.9-0.1,5.9-1.4,4.5-5.6c1.8-3.1,3.5,0,4.1,0.7c1.4,1.5,3.4,3.5,1,5.9
		c-2.7,2.6-4.4,6.1-7.8,8c-0.6,0.5-1.3,1-1.8,1.5c-4,4-4,4-6.5-1.1c0.4-0.9,0.8-1.7,1.2-2.6C533.2,603.8,535,602.1,535.4,599.3z"/>
	<path class="st119" d="M540.6,592.5c1.7,0.8,3.3,1.8,2.8,4c-0.7,3.3-5,0.9-6.1,3.7c-0.4-0.7-0.8-1.4-1.2-2c0-1.4,0.1-2.7,0.1-4.1
		C537.7,593.5,539.5,593.8,540.6,592.5z"/>
	<path class="st82" d="M553.5,587.3c-0.9-0.3-2.1-0.4-2.7-1.1c-2.3-2.4-2.8-0.3-3.5,1.3c-0.9-0.4-1.8-0.8-2.7-1.3
		c1.8-0.9,2.1-3.7,4.6-3.8c0.8-0.3,1.4-0.1,2,0.5C552.2,584.2,553.6,585.3,553.5,587.3z"/>
	<path class="st120" d="M537.9,607c1.8-3.4,4.6-5.9,7.8-8c-0.8,1.5-2,2.8-1.7,4.7C542,605,540.9,607.8,537.9,607z"/>
	<path class="st121" d="M551.2,582.8c-0.7-0.2-1.3-0.3-2-0.5c-2.1-1.3-0.4-3.3-0.8-4.9C551,578.4,554,579.1,551.2,582.8z"/>
	<path class="st103" d="M497.6,589.3c1.5-0.5,2.9-0.7,4.3,0.2c3.1,2,6.5,3.3,10.1,2.1c0.8,1.5-0.3,1.8-0.9,2
		c-4.6,1.9-6.5,4.8-3.9,9.6c0.2,0.4,0.3,1-0.4,0.9c-0.5,0-0.9-0.4-1.3-0.7c-2.5-2.6-6-3-9.1-4.2c-5-2.1-10.4-1.7-15.7-1.9
		c-3.1-1.1-4.7-2.8-2.4-6.1c1.1-1.4,2.1-1.5,3.8-0.7c3.1,1.5,6.5,2,10,2c2,0,3.1-0.7,3.6-2.6C496.4,589.8,497,589.6,497.6,589.3z"/>
	<path class="st122" d="M338.3,592.4c0-0.2,0-0.5,0-0.7c0-0.2,0-0.3,0.1-0.5c0.1-0.2,0.1-0.3,0.2-0.4c-5.8,0.6-5.4-4.2-6.6-7.6
		c0.2-0.7,0.4-1.4,0.5-2c0.7-1.4,0.2-3.1,1.2-4.5c0.8-0.8,1.7-1.5,2.8-1.9c1.9-0.3,4.2-3.9,5.6,0.7c0.2,0.8,1.5,0.4,2.3,0.4
		c2.6,0,4.8,1.6,5.4,3.6c0.8,2.9,1.7-0.2,2.4,0.4c1.3,0.4,2,1.2,1.9,2.7c-3.5,4.1-8.1,7.3-9.8,12.7
		C341.4,596.3,339.5,595.1,338.3,592.4z"/>
	<path class="st83" d="M336.6,575.2c-0.8,0.6-1.5,1.3-2.3,1.9c-1.2-1.5,0.5-2.3,0.9-3.5c0.8-3,1.7-6.1,2.5-9.1
		c1.2-1.6,2.4-3.2,3.6-4.9c0,0,0.2,0.4,0.2,0.4C343.1,566.2,341.6,571.3,336.6,575.2z"/>
	<path class="st83" d="M332,583.1c0.7,1.7,2.5,2.6,2.9,4.9c0.6,3.8,3.4,0.7,5.4,1.2c-0.2,1.2-0.4,2.3-1.9,2.5
		c-0.5,0.1-0.9,0.3-1.4,0.4c-4.9,0.6-5.2-3.2-6.1-6.4C331.2,584.8,331.6,584,332,583.1z"/>
	<path class="st123" d="M336.6,575.2c3.3-4.5,4.2-9.8,4.9-15.1c0.8-0.9,1.5-1.8,2.3-2.8c1.6-1.1,3.2-2.2,4.8-3.3
		c1.5-1,2.4-0.4,2.9,1.1c-0.9,1.4-2.5,1.9-3.7,2.8c-1.6,1-3.1,2.2-3.5,4.2c-0.2,2.9-2.2,5.8,0.1,8.6c1.5,0.7,3.5,0.4,4.5,2.3
		c0.7,1.9,3,1.9,3.9,3.5c0.5,1.3,0.4,2.4-0.8,3.2c-0.7,1.2-0.8,3-2.8,3c1.1-3.1-1.9-6.4-5.7-6.1c-3.4,0.2-3.4,0.2-2.5-2.9
		C339.1,573,338.9,577.5,336.6,575.2z"/>
	<path class="st84" d="M368.9,561.2c1,1,2,2.1,3.1,3.1c2,0.3,4,1,4.4,3.1c0.4,1.9-1.2,2.7-2.9,3.2c-1.7,0-3.3-0.6-4.7-1.7
		c-1-2-2.7-2.8-4.9-3c-0.8-0.5-1.4-1.1-1.9-1.8c-0.8-1.1-1.3-2.2-1.9-3.4c-0.2-0.4-0.2-0.8-0.1-1.3c-0.2-0.7-0.4-1.4-0.5-2.1
		c1.6-0.9,2.7-0.2,3.6,1C365.1,559.2,367.7,558.7,368.9,561.2z"/>
	<path class="st124" d="M352.2,543.2c2.6-1.5,4,0,4.6,2.4c0.5,2.2,1.3,5.2-1.7,5.9c-2.7,0.7-5.6,0.1-6.8-3.4
		C347,544.3,349.8,544.1,352.2,543.2z"/>
	<path class="st103" d="M346.9,557.4c1.1-1.6,2.8-2,4.6-2.1c0.8,0.6,1.7,1.2,2.5,1.8c0.8,1.5,0.4,3,0.2,4.5c-0.2,0.9-0.3,1.8-1,2.5
		c-0.9,0.5-1.8,0.2-2.7-0.2c-0.8-0.5-1.6-1.1-2.3-1.8C346.9,560.8,346.1,559.3,346.9,557.4z"/>
	<path class="st105" d="M363.1,558.5c-1.2-0.3-2.4-0.7-3.6-1c-1.4-1.3-2.1-3.3-4.9-4.5c4.8-0.9,7.8,0.1,9.9,3.5
		C365.9,558.4,363.7,557.9,363.1,558.5z"/>
	<path class="st125" d="M353.2,561.4c0.1-1.5-0.2-3,0.7-4.3c2.2,0.3,4.4,0.7,6.1,2.5c0.2,0.2,0.4,0.4,0.5,0.7c0.5,0.6,1.2,1.8,0.3,2
		c-2,0.6-3.9,1.5-5.9,2C353.2,564.7,353.5,562.6,353.2,561.4z"/>
	<path class="st126" d="M373,569.8c6.9-3.3-2-3.4-1.1-5.5c0.9-2.3-3-4.1-0.6-6.5c2.2,0,3.7,0.8,3.9,3.2c-1.9,0.9-0.6,1.7,0.1,2.5
		c1.1,1.3,2.7,2.3,3.1,4.2c1.1,3.5,3,6.2,6.5,7.7c1.2,0.5,2.4,1.3,2.4,2.9c-0.4,1-2.2,0.8-2,1.7c0.1,1.1,1.2,1.9,2.6,1.5
		c2.4-0.7,3.9-0.1,3.5,2.8c-0.5,0.5-1.1,0.5-1.6,0c-0.3,0.6,0.4,0.6,0.6,0.9c0.8,1,1.7,1.9,1,3.3c-1.1,0.8-3.1-0.7-3.8,1.4
		c-4.2-1.6-5.4-6.1-8.5-8.7c-1.1-2.6-2.5-4.9-4.3-7.1C373.7,572.9,372.4,571.7,373,569.8z"/>
	<path class="st127" d="M387.2,578.2c-2.5-1.8-5.9-2.4-7.7-5.1c-1-1.6-2.5-3.3-1.1-5.4c1.8,0,3.6,0,5.4,0.1c1.8,2.6,3.7,4.9,7,5.8
		c2.2,0.6,3.2,2.8,4.5,4.4c0.6,1.4,1.4,2.9-0.1,4c-1.2,0.8-2.6,0-3.7-0.7C390,580.4,387.9,580.1,387.2,578.2z"/>
	<path class="st128" d="M387.2,578.2c2.5,1.2,4.9,2.3,7.6,3.5c0.8-1.4-0.4-2.5-0.4-3.7c3.1-1.5,2.7,1.9,4.1,2.9
		c0.2,0.6,0.4,1.2,0.6,1.9c0.3,1.6-0.8,2.9-1,4.4c-0.3,1.5,0.5,3.1-0.5,4.5c-0.3,0.2-0.7,0.3-1,0.5c-4.3-0.8-4.1-4.8-5.4-7.7
		c-0.4-1.2-0.9-3.5-2.3-2.3c-4.5,3.7-3.6-1.8-6.4-2.7C384.7,578.8,386,578.5,387.2,578.2z"/>
	<path class="st129" d="M375.2,561c-1.3-1.1-2.6-2.2-3.9-3.2c-0.3-2.9,1.6-2.4,3.2-1.9c3.6,1.1,7.2,2.3,10.8,3.6
		c1.9,0.7,2.3,2.4,1.9,4.1c-0.5,1.8-2,1.1-3.3,1C380.6,564.3,378.2,562,375.2,561z"/>
	<path class="st130" d="M397.1,586.6c0.6-1.3,1.3-2.5,1.9-3.8c2.4,0.7,4.8,1.3,7.4,1c0.5,1,1.2,2,1.5,3.1c0.4,1.2,1,2.6-0.5,3.5
		c-1.1,0.6-2.5,0.8-3.7,0c-1-0.6-2-1.2-2.9-1.7C399.4,588.2,397.3,589,397.1,586.6z"/>
	<path class="st131" d="M398.5,580.9c-1.6-0.6-1.9-3.1-4.1-2.9c-1.4-2-3.5-3.2-5.8-4c-2.9-1-5.1-2.7-4.8-6.2
		C389.7,571,396,573.8,398.5,580.9z"/>
	<path class="st132" d="M391.1,584.5c2.6,2,2.5,5.9,5.4,7.7c0.1,0.3,0.3,0.6,0.6,0.7c2.1,5,4.2,10,6.3,15
		c-7.6-4.3-9.1-12.3-12.1-19.5c-0.7-1.2-1.4-2.4-2-3.7c-0.1-0.3,0.1-0.8,0.2-1.2C390,583.9,390.6,584.2,391.1,584.5z"/>
	<path class="st133" d="M411.3,591.1c0-0.9-2-1.9,0.2-2.5c2.1-0.5,4.1-1,6.2-1.3c1.3-0.2,2.9-0.8,3.7,1.3c0.7,2,0.8,3.5-1.3,4.6
		C416.5,595.7,413.7,594.5,411.3,591.1z"/>
	<path class="st134" d="M409.9,597.3c-2.2-0.8-5.6,0.9-6.1-3.2c2.3-0.6,4.5-1.9,7-1.4c1.1,0.7,1.1,1.8,0.8,2.9
		C410.8,595.9,410,596.3,409.9,597.3z"/>
	<path class="st135" d="M411.6,595.6c-0.3-1-0.5-1.9-0.8-2.9c0.2-0.6,0.4-1.1,0.6-1.7c2.6,2.1,5.5,3.1,8.9,2.1
		c0.7,0.1,1.5,0.1,2.2,0.2C419.5,597.5,415.1,594.5,411.6,595.6z"/>
	<path class="st135" d="M397.1,586.6c1.2,0.7,2.4,1.4,3.7,2c-1.1,1-1.4,2.7-3.2,3C397.5,590,395.8,588.4,397.1,586.6z"/>
	<path class="st82" d="M442.4,650.1c0.3,3.3,1,6.6-1.6,9.4c-2.2,2.4-4.4,4.6-8,3.8c-0.3-0.4-0.4-0.8-0.4-1.3
		c0.3-1.4,1.2-2.5,2.3-3.4c2.4-2.8,1.6-6.1,0.7-9c-1.1-3.2-3.1,0.1-4.8,0c-3.9-3.1-9.2-2.4-13.3-4.9c-0.8-0.5-2.1-0.3-2.8-0.9
		c-3.6-3.3-3.7-0.1-4.2,2.2c-1.8,1.6-2.6,5.9-6.4,2.5c-0.2-0.4-0.3-0.9-0.3-1.3c1.1-2,0.8-4.7,2.7-6.3c1.3-1,0.8-1.6-0.1-2.2
		c-1.2-0.9-2.4-0.6-2.6,0.9c-0.5,3.3-2.7,5.2-4.9,7.2c-0.8,0.6-1.6,1.2-2.5,1.5c-1.5,0.1-2.6-0.2-2.1-2.1c0.2-5-0.1-9.9-3.6-14
		c-3.8-4.5-9.3-7.7-10.6-14.1c-0.4-0.3-0.4-0.7-0.2-1.2c0.5-0.2,0.9-0.1,1.2,0.2c0.5,0.8,1,1.7,2.1,3c-1.3-1.6-1.8-2.9-3-3.7
		c-0.8-1.9-1.4-3.7-0.5-5.7c3.7,0.2,4.2,3.8,6.2,5.8c1.8,5.7,7.6,6.2,11.6,9.1c0.6,0.3,1.2,0.8,1.5,1.4c0.5,4.9,8.7,9.2,12.5,6.2
		c2.9-2.3,5.4-0.2,8-0.4C429.7,635.1,436.8,641.5,442.4,650.1z"/>
	<path class="st126" d="M385,617.7c-1.8-2.3-3.5-4.6-5.3-6.9c-3-0.2-2.7-2.7-3.1-4.7c-0.1-1.5-0.7-3,0.9-4.2c2.3,0.4,3,2.5,3.9,4.1
		c2.1,3.6,5.3,6.1,9.3,9.2c-3.1-5.6-8.5-7.9-10.6-12.9c-0.6-1.9,0.4-3.9-0.1-5.9c-0.2-1.3-0.5-2.5,0.2-3.7c2.1-0.5,1.9,1.2,2.2,2.3
		c0.1-0.1,0.1-0.3,0-0.7c-0.2-1.7-2.8-3.9-0.6-4.7c2.2-0.9,2.6,2.3,3.3,4c1,2.7,1.8,5.3,2.6,8.1c0.6,2.3,0.5-0.5,0.9-0.1
		c1-0.1,1.5,0.4,2,1.3c-0.8-3.9-3.8-7.2-2.2-11.5c2.3,4.6,5.8,8.4,6.6,14c1.2,8.2,7.2,12.7,14.2,12c1.6,2-0.2,3.2-1.4,3
		c-4.2-0.5-7.6,2.1-11.7,2.3C391.2,623,387.7,621.4,385,617.7z"/>
	<path class="st117" d="M385,617.7c3.8,2.8,7.6,5.1,12.7,3.7c1.4-0.4,3,0.9,2.9-2.1c-0.1-1.7,1.7,0.1,2.6,0.1c2.2-0.1,4.9,2,5.9-1.9
		c0.2-0.2,0.5-0.3,0.7-0.4c2.7,1.7,3.5,4.1,2.1,7l-0.4,0.1l-0.4-0.1c-4.9-0.4-9.7-0.5-14,2.3C392.5,624.4,387.1,623.3,385,617.7z"/>
	<path class="st117" d="M419.3,633c-1.4,0.5-2.7,1.2-4.2,0.3c-0.8-0.5-1.7-0.6-2.2,0.1c-1,1.5-1,3.8-4.1,2.8
		c-3.9-1.3-7.7-3-10.9-5.5c-1.4-1.1,0.3-2.4,0.7-3.5c0.9-1.6,1.6-3.5,3.7-1.2c-1,1.3-3.6,2.6-1,4.1c1.2,0.7,3.7,4.5,5.3,0
		c0.3-1,1-1.6,1.7-0.9C411.4,632.1,416.1,630.3,419.3,633z"/>
	<path class="st136" d="M388.4,591.5c1.2,4.2,2.3,8.5,3.5,12.7c0.1,0.4-0.3,0.9-0.6,1.6c-1-1.4-1.9-2.7-2.8-4
		c-1.6-0.7-1.9-2.2-2.3-3.6c-1.3-4.8-2.8-9.4-7.3-12.5c-1.3-0.9-3.8-3.7,0.6-4.8c3.7,2.1,5.8,5.7,8.1,9.1
		C387.8,590.4,388.1,590.9,388.4,591.5z"/>
	<path class="st103" d="M411.9,624.1c-0.7-2.3-1.4-4.7-2.1-7c3-3.8,4.6,0.6,6.6,1.4c3.1,1.3,0.2,3.8-0.3,5.4
		C415.5,626.2,413.4,625.4,411.9,624.1z"/>
	<path class="st103" d="M402.2,625.9c-1.8-1.4-2.4,1.2-3.7,1.2c-0.4-0.2-0.9-0.5-1.3-0.7c-0.3-1.3,0.3-2,1.5-2.6
		c3.1-1.8,7.3,1,9.9-2.5c0.9,0.9,1.8,1.9,2.6,2.8C408.2,624.9,405.5,626.6,402.2,625.9z"/>
	<path class="st137" d="M497.1,598c0.5,0.6,1,1.5,1.9,1.3c3.8-1.1,5.4,1.1,6.5,4.2c0.5,2.2,1.5,4.3-1.6,5.7
		c-3.3,1.4-1.5,5.1-2.8,7.4c-1.6,0.3-0.9,5-4.1,2.1c-0.7-3.7,0.8-6.8,2.1-10.1c0.8-1.9,2-3.7-1.9-4.3c-3.6-0.6-2.4-3.6-1.3-6
		C496.2,597.9,496.6,597.8,497.1,598z"/>
	<path class="st137" d="M497.1,627.3c-2.6,2.4-5.4,4.3-9.2,4c-0.7-1.2,0.1-1.8,0.8-2.4c1.6-1,2.9-2.4,4.5-3.4
		c4.1-1.2,4.6-6.1,8.1-7.9C501.6,621.5,498.9,624.2,497.1,627.3z"/>
	<path class="st138" d="M501.3,617.5c-2.8,2.8-2.5,8.2-7.8,8.7c-0.5-3.4,0.8-5.9,3.9-7.5c2.1,0.7,2-1.2,2.3-2.2
		c0.8-1.9,1-0.3,1.4,0.1C501.1,616.9,501.2,617.2,501.3,617.5z"/>
	<path class="st139" d="M535.4,599.3c2.1,4.9-1.3,5.1-4.6,5.6C532.4,603.1,532.3,599.9,535.4,599.3z"/>
	<path class="st84" d="M497.1,598l-0.5,0.1l-0.5,0.2c-0.3,1.9-1.2,3.4-3.2,3.8c-2,0.4-2.9,1.9-3.7,3.5c-1.1,1.5-2.1,0.2-3.2-0.1
		c-1.6-3-3.3-6-4.9-8.9C486.6,595.3,491.8,596.6,497.1,598z"/>
	<path class="st140" d="M400.6,677.6c-0.3,0.1-0.5,0.2-0.6,0.5c-1.3,0.4-2.5,0.7-3.8,1.1c-2.3,0.9-4.5,1.6-5.7-1.5
		c-0.5-1.5-0.9-3-1.4-4.5c0.3-0.7-0.5-1.9,0.5-2.2c2-0.7,1.2,1.9,2.2,2.3c-0.1,0-0.3-0.1-0.4-0.5c-1.2-3.7,2.3-6.9,2-9.5
		c-0.4-3.5-0.3-6.4,1.3-9.4c1-1.8,2-4.2,4.5-4c2.3,0.2,2.9,2.4,3.4,4.4c0.3,1.3,1.1,2.4,1.3,3.7c-0.7,3.3-1.3,6.4,0.1,9.9
		C405.4,671.6,403.5,675,400.6,677.6z"/>
	<path class="st122" d="M403.3,658.2c-0.6-1.6-2.5-2.6-2.3-4.8c0.1-1.5-0.9-2.8-2.1-2.9c-0.8-0.1-2,1-2.7,1.9
		c-2.9,3.5-2.6,8.7,0.6,11.6c-6,1.8-4.7,6.5-4.4,10.9c-0.9,0.3-0.7-0.6-0.9-1c-0.3-0.6-0.3-1.4-0.7-1.8c-1.5-1.6-0.9,0.8-1.6,0.9
		c-1.2-2.6-1.5-5.3-0.5-8.1c1.5-4.8,3.3-9.3,6.3-13.3c1-1.3,1.4-2.5,1.4-4.1c0.3-0.8,0.9-1.3,1.8-1.4c1.8,0.5,3.9,0.1,5.6,1.3
		c0.3,0.2,0.5,0.5,0.8,0.7c0.9,1.2,1.9,2.3,1.8,4c0,1.2-0.5,2.3-1,3.4C404.8,656.6,404.6,657.9,403.3,658.2z"/>
	<path class="st84" d="M390.4,677.6c1.2,3.1,4.1-0.2,5.7,1.5C393.3,682,391.4,681.6,390.4,677.6z"/>
	<path class="st84" d="M369.5,587.9c-3.3,1.6-2.6-6.1-5.8-2.8c-1.5,1.5-2.6,4.8-2.8,7c-0.7,6.7-4.4,8-10,7.7
		c-1.3-0.1-2.6,0.4-3.8,0.6c-0.4-1.7-2.1-2.1-3.2-3.1c-0.9-0.9-0.2-1.7,0.3-2.5c-0.5-1.1-1.2-2.8-0.4-3.2c4.2-2.2,5.1-7.9,10.1-9.2
		c1-1.2,2.2-1.6,3.4-0.5c1,0.8,0.9,2,0.5,3.2c-0.8,2.8-2,5.6-3,8.3c-0.3,1-0.9,1.7-0.8,1.7c0,0,0.7-0.7,1-1.8c2.3-5,3-10.8,5.8-15.2
		c-2.1,0.3-5.2,2.8-7.5-1.2c-3.4-3.8-3.4-3.8,1.2-8.2c0.2-0.4,0.6-0.7,1-0.9c3.8-0.3,7.5,0.5,10.9,2.1c0.4,0.3,0.9,0.6,1,1
		c1.8,7.3,7.4,12.3,11.5,18.2c0.8,1.2,1.3,2.6,1.2,4.1c0.5,1.2,0.9,2.4,1.4,3.5c-3.1,2.5-4.9-0.1-6.4-1.9c-1.6-2-3-4.3-3.9-6.7
		c-0.6-0.7-1.2-1.4-1.5-2.4C369.5,586.5,369.9,587.2,369.5,587.9z"/>
	<path class="st137" d="M353.9,576.3c0.9,1.6,2.1,2.7,4,1.5c1.8-1.2,3.9-0.7,6.1-1c-5.3,4.5-5.4,11.4-8.4,16.9
		c-0.4,0.6-0.9,0.7-1.5,0.3c0.4-2.6,1-5,2.4-7.4c1.2-2,1.9-5.3-2.8-4.1c-0.6-0.8-1.2-1.7-1.9-2.5c0-1,0.1-2.1,0.1-3.1
		C352.5,576,353.1,575.8,353.9,576.3z"/>
	<path class="st137" d="M413.7,525.3c-0.9,2.2-1.4,4.5-1.2,7.1c0.5-0.5,1.7,1.9,2.1-0.9c0.1-0.7,0.2-1.4,0.4-2.1
		C414.1,528.3,413.7,526.8,413.7,525.3z"/>
	<path class="st137" d="M437.7,512.6c-7.5-2.3-13.7,0.6-19.3,5.2c-0.1,0.1-0.1,0.2-0.2,0.3c0.1,0,0.2-0.1,0.4-0.1
		c1.2-1.4,3-2.4,5.5-2.4c1.1,0,2.1,0.2,3,0.6c6.4-2.7,13.8-2.3,18.3,2.3c1.1,1.1,2.9,1.4,4.4,2.1c0,0,0,0,0,0
		C446.3,517,443,513.2,437.7,512.6z"/>
	<path class="st141" d="M449.7,520.5c-2.2,1.4-3.7-0.2-5.3-1.2c-5.3-3.3-11-3.9-15.9-2.4c0.3,0.2,0.5,0.5,0.8,0.7
		c7.8-2.1,15.2,2.9,18.2,12.5c2.3,7.3-1.8,14.5-9.6,17c-8.1,2.6-15.3-1.1-18-9.3c-0.6-1.9-1-3.8-1-5.6c-1.2-0.3-2.1-0.9-2.9-1.6
		c-0.4,1.7-0.1,5.2-3.4,1.7l0,0c0.3,3.4,0.6,6.7,1,10.1c1.4,2.4,3.3,4.1,6,5.5c3.1,1.6,6.3,2.5,9.6,3.6c6.5,2.1,12.8,3.2,17.9-3
		c2.4-2.3,4.2-4.8,3.7-8.3C453.9,533.5,454.7,526.9,449.7,520.5z"/>
	<path class="st141" d="M414.9,529.5c-0.2,0.7-0.3,1.4-0.4,2.1c-0.3,2.7-1.5,0.3-2.1,0.9l0,0c3.3,3.5,3-0.1,3.4-1.7
		C415.5,530.3,415.2,529.9,414.9,529.5z"/>
	<path class="st141" d="M445.3,518.4c-4.5-4.6-11.9-4.9-18.3-2.3c0.5,0.2,1,0.5,1.5,0.8c5-1.5,10.6-0.9,15.9,2.4
		c1.6,1,3.1,2.6,5.3,1.2C448.2,519.9,446.3,519.5,445.3,518.4z"/>
	<path class="st84" d="M447.4,530.2c-3-9.6-10.4-14.6-18.2-12.5c1.2,1.3,1.8,2.9,2,4.7c5.5-1.1,11.8,3.3,13.7,9.7
		c1.3,4.4-3.1,11.9-7.7,13.4c-5.1,1.7-11.7-1.9-13.4-7.4c-0.6-1.9-0.7-3.9-0.4-5.9c-0.7,0.2-1.5,0.4-2.4,0.4c-0.8,0-1.5-0.1-2.1-0.3
		c0,1.8,0.4,3.7,1,5.6c2.8,8.2,9.9,11.9,18,9.3C445.6,544.8,449.7,537.5,447.4,530.2z"/>
	<path class="st142" d="M353.2,561.4c0.4,0.7,0.8,1.4,1.2,2.1c1.9-1.2,3.7-2.7,6.2-2.3c0-0.3-0.1-0.6-0.1-1c1.5,0.8,1.7,2.4,2.3,3.7
		c-2.6,1.8-5,3.9-8.2,4.6l0,0c-1.5,2.6-4,4-6.6,5.4c-0.8-2.8-3.6-0.2-4.8-1.8c3.1-2.8,7.8-3.8,9.4-8.3
		C352.9,563,353.1,562.2,353.2,561.4z"/>
	<path class="st103" d="M352.7,563.9c-0.4,5.3-2,6.8-9.4,8.3c-3.2-3.4-0.1-6.8-0.1-10.3c2.1-0.7,2.3,1.2,3,2.3
		c0.9,1.4,1.7,1.2,2.7,0.3c0.7-0.6,1.5-0.9,2.4-1.1C351.7,563.5,352.2,563.7,352.7,563.9z"/>
	<path class="st143" d="M349.4,565c-1,3.2-2.4,3-4,0.4c-0.7-1.2-0.4-3-2.1-3.6c0.1-2.4,1.8-3.5,3.7-4.5c0.2,1.8,0.9,3.3,2.5,4.3
		C351,562.8,347.3,563.9,349.4,565z"/>
	<path class="st122" d="M348.1,573.9c2.2-1.8,4.4-3.6,6.6-5.4c0.5,0.9,2.6,2.3,0.2,2.6c-7.1,0.7-1.6,3.2-1,5.1
		c-0.6,0.2-1.2,0.4-1.9,0.5C350.8,575.8,347.9,577,348.1,573.9z"/>
	<path class="st144" d="M380,593.2c-1.6-0.7-1.2-2.4-2-3.6c-1.8-3.1-3.4-6.3-4-10c-0.4-2.9-2.5-4.9-4.2-7.1c-0.9-1.2-3-2.5-0.7-4.3
		c1.3,0.5,2.6,1,3.8,1.5c1.9,3.8,6.6,6,6.4,11c-2.1,0.7-1.4,2.5-0.6,3c6.6,4.2,6.8,11.8,9.6,17.9c0,1.1,1,2.1,0.4,3.3
		c-3.8-4.2-4.2-9.8-6.9-14.6c0.5,1.9,0.9,3.8,1.4,5.8C381.4,595.9,382.2,593,380,593.2z"/>
	<path class="st86" d="M369.2,568.3c-0.1,0.4-0.5,1.2-0.4,1.3c6.9,4.9,6.9,13.1,9.2,20.1c-5.5-5.5-9.8-11.8-12.3-19.3
		c-1.5-1.4-2.3-3.1-1.7-5.2C366.1,565.6,368.7,565.3,369.2,568.3z"/>
	<path class="st122" d="M364,565.1c0.4,1.8,2.1,3.2,1.7,5.2c-3.7-0.6-7.4-1.2-11.1-1.7c2.5-2,5.1-3.8,8.2-4.6
		C363.3,564.4,363.7,564.7,364,565.1z"/>
	<path class="st145" d="M349.4,565c-1.1-0.2-2.6,1.6-3.2-0.6c-1-3.2,3-0.8,3.2-2.8c1,0.2,1.4,1,1.9,1.7
		C351.2,564.6,350.2,564.7,349.4,565z"/>
	<path class="st84" d="M404.2,655.6c3.4,3.6-0.1,8,1.3,11.9c0.3,0.7,0.1,1.6,0.2,2.4c-0.7,3.3,0,7.4-5.1,7.8
		c3.1-4.3,3.4-8.7,0.6-13.3c-1.5-2.6,1.8-3.9,2.1-6.1C403.6,657.4,403.9,656.5,404.2,655.6z"/>
	<path class="st146" d="M489.2,605.7c-0.8-2-2.7-4.4,1.9-4.2c2.1,0.1,3.8-1.5,5-3.2c0.1,6.2,0.1,6.2,5.6,4.4
		c0.1,5.8-4.4,10.3-4.3,15.9c-1.3,2.5-2.6,5-3.9,7.5c-1.3,1.1-2.2,2.7-4,3.3c-3.8-0.9-2.2-3-1-4.8c1.3-1.8,2.5-3.4,3.5-5.4
		c1.7-3.6,1.8-7-0.7-10.2C490.7,608,489.9,606.8,489.2,605.7z"/>
	<path class="st147" d="M491.4,609.1c4.7,4.4,2.7,10.8-1,15.4c-1.2,1.4-4.1,2.7-0.9,5c-0.6,0.6-1.6,0.8-1.6,1.8
		c-0.2,0.4-0.4,0.9-0.6,1.3c-1.7,1.5-3.1,1.9-3.7-1c-0.4-2.8,1.6-4.5,3-6.5C489.9,620.4,494.8,616,491.4,609.1z"/>
	<path class="st84" d="M403.6,647.6c-2,0.4-4,0.5-5.6-1.3c1.5-2.5,4.7-3.9,4.3-7.8c-0.2-1.9,1.6-2.4,3.6-1.5
		c1.9,0.8,1.9,2.9,4.6,4.5c-3.8-0.6-5,0.6-4.7,3.3C406.1,646.2,404.9,647,403.6,647.6z"/>
	<path class="st122" d="M432.9,662.5c-3.5,1.5-3.7-3.5-6.5-3.4c1.9-2,3.7-3.9,5.6-5.9c0.4-1.6,0.6-3.7,2.9-3.1
		c1.9,0.5,1.5,2.2,1.1,3.7c-0.5,1.9,0.1,4-1,5.8C434.3,660.6,433.6,661.5,432.9,662.5z"/>
	<path class="st84" d="M435,659.6c-0.7-1.8-0.5-3.5,0.1-5.3c0.4-1.2,1.3-2.8-0.4-3.4c-1.6-0.6-1.6,1.7-2.7,2.4
		c-0.4-1.2-0.7-2.4-1.1-3.7c1-1.2,1-3.8,3-3.3c2.2,0.5,4.2,3.1,3.3,4.8C435.8,653.9,440.6,658.2,435,659.6z"/>
	<path class="st84" d="M409.5,645.7c2.2,2.3,0.3,3.9-1.2,4.9c-1.1,0.7-1.6,1.9-2.7,2.5c-0.4-1.6-0.7-3.2-1.1-4.8
		C407.8,650.7,407.3,645.6,409.5,645.7z"/>
	<path class="st122" d="M380.7,617.2c1.9,1.4,3.8,2.8,4.8,5.8C382.4,621.6,381.1,619.7,380.7,617.2
		C380.7,617.1,380.7,617.2,380.7,617.2z"/>
	<path class="st148" d="M380.9,602.5c3.8,4.9,9.7,8.1,12.4,15.4c-8.2-3.5-12.4-9.1-15.5-15.7c-0.7-0.8-1.2-1.7,0.1-2.1
		C379.9,599.5,380.1,601.4,380.9,602.5z"/>
	<path class="st86" d="M380.9,602.5c-1.2-0.3-1.3-2.3-3-1.6c-0.2,0.1-0.1,0.9-0.1,1.3c-1.3,1.5,0.2,2.8,0.2,4.2
		c-2.9-2.2-1.7-5.9-3.1-8.5c-1-1.8-1.2-4.2-3.1-5.5c-0.2-0.7-0.3-1.3-0.5-2c0.4-1-0.8-2-0.1-3c1.6,2.3,3.1,4.6,4.8,6.8
		c1.3,1.7,2.8,3.4,5.4,2.5C382.3,598.7,380.1,600.5,380.9,602.5z"/>
	<path class="st149" d="M371.2,587.4c0.1,1,0.9,2,0.1,3c-0.6-0.8-1.2-1.7-1.8-2.5c-0.6-1.8-2.7-3.1-1.6-5.3c0.1-0.3,1-0.6,1.2-0.5
		C370.6,583.6,370.6,585.6,371.2,587.4z"/>
	<path class="st131" d="M354.1,593.9c0.5-0.1,1-0.2,1.5-0.3c-1.2,2.5-2.7,4.5-6.2,4.4C350.6,595.8,352.5,595,354.1,593.9z"/>
</g>
</svg>
