<?xml version="1.0" encoding="utf-8"?>
<!-- Generator: Adobe Illustrator 23.0.3, SVG Export Plug-In . SVG Version: 6.00 Build 0)  -->
<svg version="1.1" id="Layer_1" xmlns="http://www.w3.org/2000/svg" xmlns:xlink="http://www.w3.org/1999/xlink" x="0px" y="0px"
	 viewBox="0 0 815.9 816" style="enable-background:new 0 0 815.9 816;" xml:space="preserve">
<style type="text/css">
	.st0{fill:#161616;}
	.st1{fill:#ACACAC;}
	.st2{fill:#8C8C8C;}
	.st3{fill:#C9C9C9;}
	.st4{fill:#E9E9E9;}
	.st5{fill:#FEFEFE;}
	.st6{fill:#B5B5B9;}
	.st7{fill:#BFBEC3;}
	.st8{fill:#B2B1B6;}
	.st9{fill:#9D9CA2;}
	.st10{fill:#B9B9BE;}
	.st11{fill:#B8B7BB;}
	.st12{fill:#CAC9CE;}
	.st13{fill:#C8C7CB;}
	.st14{fill:#ADACAE;}
	.st15{fill:#C0BFC4;}
	.st16{fill:#9E9EA2;}
	.st17{fill:#C8C7CC;}
	.st18{fill:#939297;}
	.st19{fill:#C8C8CC;}
	.st20{fill:#C7C7CB;}
	.st21{fill:#F5F4F4;}
	.st22{fill:#F8F8F8;}
	.st23{fill:#F4F4F4;}
	.st24{fill:#F6F6F7;}
	.st25{fill:#A6A5AB;}
	.st26{fill:#9C9C9F;}
	.st27{fill:#9C9CA1;}
	.st28{fill:#87868B;}
	.st29{fill:#75747B;}
	.st30{fill:#8C8B91;}
	.st31{fill:#929293;}
	.st32{fill:#848488;}
	.st33{fill:#7B7A81;}
	.st34{fill:#807F85;}
	.st35{fill:#7C7B7D;}
	.st36{fill:#98979D;}
	.st37{fill:#747475;}
	.st38{fill:#8A898F;}
	.st39{fill:#6D6C74;}
	.st40{fill:#5B5B61;}
	.st41{fill:#5D5C61;}
	.st42{fill:#77767D;}
	.st43{fill:#7B7A82;}
	.st44{fill:#6E6C73;}
	.st45{fill:#68676C;}
	.st46{fill:#76757C;}
	.st47{fill:#828284;}
	.st48{fill:#5C5B63;}
	.st49{fill:#706F72;}
	.st50{fill:#66656C;}
	.st51{fill:#5D5D61;}
	.st52{fill:#4D4C50;}
	.st53{fill:#626168;}
	.st54{fill:#F6F6F6;}
	.st55{fill:#F7F6F7;}
	.st56{fill:#F7F7F4;}
	.st57{fill:#F7F7F8;}
	.st58{fill:#F9F8FA;}
	.st59{fill:#F8F8F9;}
	.st60{fill:#F6F6F5;}
	.st61{fill:#F8F7F8;}
	.st62{fill:#F5F5F4;}
	.st63{fill:#F5F5F5;}
	.st64{fill:#707070;}
	.st65{fill:#8A898D;}
	.st66{fill:#F6F6F4;}
	.st67{fill:#F8F7F7;}
	.st68{fill:#F7F7F6;}
</style>
<g>
	<g>
		<path class="st0" d="M429.8,397.3c0.3,0.4,1,0.5,1,1.2c0,0.3-0.1,0.6-0.1,0.9c-2.8,0.2-4.4,2.1-5.2,6.1c-1.2,1.9,0.4,2.3,1.5,3.1
			c-0.6,2.1,0.5,4.3-0.7,6.4c-0.4,0.6,0.2,2.1,0,3.3c-0.1,0.4,0.6,2.8,2.5,1.2c-0.7,2-1.8,3.8-2.5,5.7c-0.7,2.1-0.7,4.4-1.6,6.3
			c-0.9,1.7-1.6,3.4-1.7,5.3c-0.2,0.7-1,1.1-0.6,2.1c1.2-0.2,1.8-0.9,1.8-2.2c1.5-2.8,2.7-5.8,4.7-8.4c1.7,1.5,0.8,3.6,1.4,5.4
			c0.7,1.8-0.8,3.5-0.5,5.3c-2.1,0.7-0.7-2.5-2.8-2.2c0,3.8-3.7,5.5-5.2,8.6c-0.3,0.6-1.4,1.2-0.5,1.9c0.8,0.5,1.4-0.4,1.7-1
			c0.4-0.9,1-1.6,1.8-0.8c0.5,0.6,1.2,1.7-0.2,2.6c-0.9,0.6-2.4,1.1-2.3,2.6c-0.2,0.2-0.3,0.4-0.5,0.6c-0.5,0.5-1.7,0.9-0.6,1.9
			c0.7,0.7,1.4,0.1,1.8-0.6c0.5-0.8,1.7-1.1,1.7-2.3c0.5-0.3,1.1-0.5,1.6-0.8c-0.1,0.7-0.4,1.4-0.8,2c-1.2,1.8-1.2,2.6-0.4,4
			c0.1,0.2,0,0.5,0,0.7c-0.2,0.4-0.3,0.7-0.5,1.1c-0.3-0.7-0.4,1.7-0.9,0.1c-0.2-0.5-0.8-2-2.1-0.9c-0.3-0.1-0.6-0.2-0.9-0.3l0,0
			c-1.3-2.8-1.9-5.6-1.4-8.7c0.2-1.4,0.5-2.7,0-4.2c-1.2-3.5-4.3-5.6-5.7-8.9c-0.8-0.5-0.9,0.1-1.2,0.7c-1.2,2.3-1.6,2.3-3.4,0.5
			c-0.1-0.5-0.3-1.3-0.7-1.1c-0.7,0.5-1.4,1.1-1.3,2.1c0,2.3-1.5,3.4-3.3,4.4c-1.9,1-3,3.3-5.4,3.7c0.8-1.5,0.3-3.2,1-4.7
			c2.3,1.8,1.6-0.5,2-1.4c0.6-0.5,0.6-1-0.1-1.4c-1.2-3.7-3-7.1-5-10.3c-0.5-0.7-1.2-0.8-1.8-0.1c-0.2-0.1-0.3-0.2-0.5-0.3
			c-0.4-1,0.9-2.3-0.5-3.1c0.2-0.8,0.8-0.9,1.5-0.9c0.8,1.1,1.5,2.3,2.3,3.4c-0.1-2.9-0.7-5.4-3.5-6.7c-0.6-0.3-1.3-0.4-1.1-1.3
			c0.2-0.9,0.9-0.4,1.4-0.5c0.3-0.1,0.6-0.1,1-0.1c-0.2-1.3-0.3-2.4-1.6-3.2c-0.7-0.4-1.2-1.4-1.1-2.4c0.1-0.7,0.4-1,1.2-0.5
			c1.7,1.2,1.7,1.2,2-1.3c1.6-2.5,1.2-5.7,2.7-8.3c1.1-1.7,0.6-3.4-0.5-5c0.7-0.2,1.3-0.6,1.9,0.2c0,1.3,0.2,2.5,1,3.7
			c1.1-0.8,0.6-2.3,1.6-2.9c0.6,0.4,0.8,1,0.8,1.6c-0.9,1.4-1.2,3-1.5,4.6c-0.5,0-0.6,0.4-0.5,0.7c-0.8,0.5-0.8,1.5-1,2.3
			c-0.3,0.5-0.4,1-0.2,1.5c0,0.5,0.1,1.1,0.1,1.6c-0.1,2.5-1.1,4.8-1,7.5c0.1,3.8,0.7,7.5,0.9,11.3c0,0.4,0,0.9,0.6,0.9
			c0.7,0.1,0.8-0.5,0.9-1c3-1.3,2.6-4.3,3.5-6.6c0-0.1,0.1-0.1,0-0.2c0-0.1-0.1-0.2-0.1-0.3c0.6-0.4,0.5-1,0.5-1.6
			c0.8-2.3-1.1-4-1.5-6c0-0.5,0-1-0.1-1.5c0.2-1,0.4-2,0.6-3.1c0.1-0.3,0.1-0.6,0.2-0.9c0.5-0.1,0.9-0.5,1.5-0.3
			c0,0.6-0.1,1.1-0.1,1.7c-1.1,1.1-0.3,2.3-0.3,3.5c-0.1,0.9-0.4,2.2,0.7,2.3s0.3-1.5,0.9-2c0.1-0.1,0-0.5,0-0.7
			c0.1-0.5,0.3-1,0.4-1.5c0.1-0.3,0.1-0.6,0.2-1c0.2-0.1,0.3-0.2,0.5-0.3c0.3,0.1,0.7,0.3,1,0.4c-1.2,2.9-2,5.8-2.1,8.9
			c-1.7,0.5-1.7,1.3-0.4,2.3c-0.7,1.6-1.4,3.2-2,4.8c-0.6,1.4-1.5,2.8-0.2,4.4c0.3,0.3,0.4,1-0.2,1.3c-2.8,1.6-1.5,4.2-1.4,6.4
			c0,0.4,0.2,0.8,0.8,0.9c0.5,0,0.8-0.1,0.9-0.6c0.6-2,1.8-3.8,2.1-6.1c0.2-1.9,0.9-3.8,1.4-5.7c0.1,0,0.3,0,0.4,0
			c0.2,1.3,0.3,2.6,0.5,3.9c-0.5,1,0.3,1.7,0.6,2.5c0.2,0.6,0.3,1.8,1.5,0.8c1.8-0.8,1.4-2.7,2-4.5c1.8,2.6,2.2,5.5,4.4,8
			c0-2.2-0.2-3.8-0.9-5.3c0.4-2,0.5-4.1,0.4-6.2c-0.1-1.2,1-3-0.7-3.5c-2-0.6-1,2.1-2.3,2.7c-1.6-1.2-1.9-3.6-3.6-4.7
			c0.8-3.9,0.2-7.9,2.1-11.7c0.9-1.7,1.1-3.6,1.6-5.5c0.2-0.9,0-1.8-0.7-2.2c-0.9-0.6-1,0.6-1.4,0.9c-1.2,0.8-1.6,2.1-1.9,3.4
			c-0.3-0.2-0.7-0.3-1-0.5c0.4-5.9,0.7-11.7-0.3-17.5c0-1.2,1.3-2.4-0.2-3.5c1.6-0.4,3.1-0.8,4.7-1.1c2.4-0.4,2.6-0.8,1.3-3
			c0.3-0.1,0.6-0.2,1-0.3c0.4,0.2,0.7,0.8,1.3,0.5c0.3,0,0.7,0,1,0c-0.1,0.4-0.3,0.8-0.4,1.2c-3.3,2.6-2.6,6.7,1.5,9
			c1.4,1.6,2.9,1.8,4.8,0.7c1.2-0.7,2.8-1,4.2-1.4c1.3,1.4-0.9,2.4-0.5,3.6c-1.7-0.4-2.9,0.9-4.3,1.3c-4,1.1-4.4,2-3.1,5.9
			c-0.3,0.9-1.1,1.8,0.1,2.6c0.7-0.7,0.6-1.7,0.8-2.6c0-0.3,0.1-0.6,0.1-0.9c0.5-0.2,0.8-0.6,0.9-1.1c1.6-1.8,3.6-3.2,5.4-4.7
			c0.6-0.1,1.1,0.2,1.6,0.5c0.1,0.2,0.2,0.4,0.3,0.5c-0.6,0.1-1.3,0.3-1.4,1c-2.2,1.2-4.1,2.6-5.1,5c-1.2,1.8-1.9,3.9-2,6.1
			c-0.5,1.1-0.9,2.3-0.8,3.6c-0.7,3.1-1.1,6.3-1.3,9.5c-0.9,3.2-0.3,6.4-0.3,9.6c-0.2,2.2,0.2,4.4,0.5,6.6c0,0.7-0.2,1.4,0,2
			c0.3,0.7,0.1,2.1,1,2c1.3-0.2,0.4-1.3,0.3-2s0.9-1.3,0.1-2.1c-0.1-2.2-0.2-4.3-0.8-6.5c0.5-0.5,1.3-0.7,1.2-1.9
			c-0.2-2.8,0-5.7,0.1-8.6c0.9-0.5,1.2-1.3,1-2.2c0.1-0.3,0.4-0.6,0.4-0.9c0.1-1.8,1.8-3.4,0.4-5.3c2.5-1.1,0.9-3.2,1.2-4.9
			c-0.3-3.9,2.1-6.6,4.4-9.3C428.7,398.6,429.3,398.3,429.8,397.3z M400.6,442.4c0.5-0.2,0.8-0.6,0.5-1.2c-0.1-0.1-0.5-0.3-0.6-0.2
			c-0.5,0.3-0.4,0.8-0.3,1.3c0,0.1,0.1,0.3,0.1,0.4C400.4,442.7,400.5,442.6,400.6,442.4z M415.2,401c0.4,1.8,0.6,3.5-0.4,5.3
			c-2,3.7-2.2,7.7-2.1,11.8c0,0.9,0,1.8,0,2.7c0,0.5-0.2,1.1,0.5,1.2c0.6,0.1,0.8-0.5,0.9-1c1.4-5.2,3.8-10.1,3.9-15.6
			c0.5-1.8-0.4-3.2-1.5-4.5c0.3-0.4,0.5-0.8,0.8-1.2c0.5-0.8,0.5-1.6-0.2-2.3c-0.4-0.5-1-0.9-1.5-0.4c-0.6,0.7-1.7,1.2-1.4,2.4
			C414.5,400.1,414.9,400.5,415.2,401z M410.5,401.3c1.7-1.2,1.8-2.9,2.9-3.9c1.2-1.2,1.2-2.5,0.5-3.9c-1.3-2.2-2-4.4-1.8-7
			c0.1-0.6,0.3-1.6-0.6-1.7c-1-0.1-0.9,1.1-1,1.7C409.8,391.3,411.3,396.1,410.5,401.3z M416,420.6c0.9-1.2,1.2-2.6,1.5-4.6
			C415.8,417.5,415.9,419.1,416,420.6z"/>
		<path class="st0" d="M411.7,471.1c-1.8-2.2-2.7-4.8-3.5-7.4c-0.4-1.3-0.6-3.1-2.1-3.4c-1.7-0.4-2.3,1.4-3.2,2.3
			c-0.2,0.2-0.4,0.5-0.7,0.8c-1.4,0.2-1.4-0.7-1.4-1.7c0.1-0.9,0.8-1.7,0.3-2.7c0.2-0.3,0.3-0.6,0.5-0.9c1.2-0.7,2.1-1.5,1.3-3
			c-0.1-2.1-0.8-4.6,0.5-6.3c1.9-2.6,3.8-4.9,2-8.6c1.4,0.6,2.3,0.9,3.2,1.3l0,0c0.1,1.5,1.9,2.1,2.1,3.5c-0.1,0.6-0.2,1.1,0.5,1.5
			c0.2,0.6,0.7,1.4,0.5,1.8c-1.7,2.7-1.1,5.9-1.8,8.8c-0.7,4.6,0.1,8.9,2.1,13C412.2,470.4,412.5,470.9,411.7,471.1z"/>
		<path class="st1" d="M389.9,485.3c-2,2.3-2.4,5.4-3.6,8.1c-0.3,0-0.6,0-1,0c-0.5-1.5,1.2-3.6-1.3-4.5c-0.8-0.7-0.2-1.3,0-2
			c0.5-1.6,0.6-3.1-0.2-4.6c1.6,0,1.2-1.4,1.2-2.2c0-1.4-0.2-2.8-0.4-4.2c2.5-2.1,3.8-5.1,5.2-8c0.2-0.5,0-1.2,0-1.7
			c0-0.6,0.1-1.3-0.7-1.4c-0.7-0.1-0.9,0.4-1.3,0.9c-2.3,2.9-4.9,5.8-3.3,10c-2-0.3-1,1.4-1.5,2.2c-0.3,0.6-0.4,1.4-1.2,1.4
			c-1,0-0.7-1-0.8-1.5c-0.1-1.2,0-2.3,0-3.5c0.6-3.7,2.8-6.5,5.1-9.4c1.7-2.1,3.1-4.3,3.6-7c0.7,0,1.3,0.1,2,0.1c0,0.4,0,0.7,0,1.1
			c0.1,1,0.6,2,0.4,3c-0.7,0.9-0.8,1.6,0.5,2.1c0,0.2,0,0.4,0.1,0.5c0.1,1.4,0.8,3-1,4c-1.6,1.6-2.2,3.8-3.2,5.7
			c-0.6,1.2-2,3.2-1.5,4.2C388.2,480.8,387.6,483.6,389.9,485.3z"/>
		<path class="st1" d="M406.2,371.2c-2.5-5.6,0.1-13.4,5.9-17c5.1-3.2,10.4-3.8,15.6-0.5c4.7,3,7,7.4,6.6,13
			c-0.1,2.3,0.4,4.3,1.2,6.3c-0.8,0.6-0.8,1.2-0.1,1.8c0.7,0.7,1,1.5,0.9,2.5c-0.8,0.4-1.5,0.6-2.4,0.2c0.1-0.4,0.2-0.8,0.3-1.1
			c0-0.5,0.2-1.1,0-1.5c-1.4-2.8-1.5-5.8-1.4-8.8c0.2-7.2-5.5-12.6-13-13c-1.2-0.1-2.5,0-3.2,1.3c-3.9,1.8-6.7,4.5-8.6,8.4
			c-1.2,2.7-0.2,5.3-0.5,7.9C407.1,370.9,406.6,371.1,406.2,371.2z"/>
		<path class="st2" d="M385.3,493.3c0.3,0,0.6,0,1,0c-0.3,1.5,0,2.9,0.4,4.4c1.2,3.6-0.2,5.6-4,6.1c-2.4,0.3-4.5-0.3-6.5-1.4
			c-2.5-1.4-3.2-3.6-1.7-6.2c3.1-5.1,4.2-10.9,5.5-16.6c1.2-0.2,0.8,1.6,1.8,1.6c-0.3,0.8-0.8,1.5-0.7,2.4c-1.4,0.1-1.2,1.1-1.3,2
			c-0.1,1.6,0.1,3.2-0.5,4.7c-0.7,0.8-0.5,1.8-0.9,2.6c-0.7,1.7-0.5,2.6,1.4,2.9c1.6,0.4,3.2,0.5,4.7,1.4
			C385.1,495.9,384.4,494.4,385.3,493.3z M376.7,500.9c0.4,0.6,1,0.4,1.6,0.5c1.7,1.9,3.8,1,5.7,0.7c0.6-0.1,1.4-0.2,1.3-1.2
			c0-0.7-0.3-1.3-1.1-1.5c-1.3-0.4-2.6-1.2-4-1c-1.1-0.3-2,0.2-2.9,0.5C375.9,499.2,375.2,499.7,376.7,500.9z"/>
		<path class="st2" d="M430.8,399.4c0-0.3,0.1-0.6,0.1-0.9c1.7,1.1,2.5,2.8,2.5,4.6c0,9.2,1.4,18.4,0.3,27.7
			c-0.2,1.9-0.8,3.8-1.6,5.5c-1.9,4.1-1.7,8.7-2.4,13.1c-0.2,1.6-0.5,3.1-1.5,4.5c-0.6-0.1-1.2,0.2-1.7-0.2c0.6-1.2,1.2-2.4,1.3-3.7
			c0.3-2.1,1.1-4,1-6.1c0.4-0.2,0.5-0.6,0.4-1c0.5-1.2,0.7-2.4,0.5-3.7c-0.3-1.8,1.2-3.4,0.5-5.3c1,0.1,1.4-0.3,1.7-1.4
			c1.4-5.1,0.8-10.3,0.7-15.5c0-1.3-0.9-2.5-0.8-4.1C432.4,408.4,433.1,403.7,430.8,399.4z"/>
		<path class="st1" d="M392.3,393.2c0.6-2.6,2.4-4.2,4.6-5.4c0,0.6,0.2,1,0.7,1.4c-0.9,2.6-3.3,4.3-4.3,6.9c-1.1,3-3.4,5.6-3.4,9
			c0,0.7-0.1,1.3-0.1,2c-0.6,0.1-1.2,0.3-0.4,1c-0.1,0.6-0.2,1.1-0.3,1.7c-0.7,3.2-1.1,6.4-0.7,9.6c0.3,2.2,1.2,4.3,0.8,6.6
			c-0.2,1,0.3,1.2,1.1,1.3c0.6,0.7-0.1,2.8,2.1,2c0,0.6,0.2,1.2-0.4,1.6c-0.1-0.2-0.3-0.6-0.4-0.6c-3,0.2-3.3-1.7-3.4-4
			c-0.1-2.9-0.5-5.8-1.5-8.7c-1.1,1.2,0,2.9-1.4,3.7c-1.3-2.1-1.1-4.3-0.3-6.5c1.3,0.6,1.3-0.4,1.5-1.2c0.7-2.7,1.3-5.5,2-8.2
			c0.3-1.1,0.5-2.1,0.4-3.2l0,0c0.3-0.1,0.8-0.2,0.8-0.4c0.6-2.2,1.8-4.2,2.8-6.2C392.9,394.6,393.2,393.9,392.3,393.2z"/>
		<path class="st2" d="M389.9,457.9c-0.5,2.7-1.9,4.9-3.6,7c-2.2,2.8-4.5,5.6-5.1,9.4c-0.3,0.2-0.7,0.3-1,0.5
			c-0.7-2.7,0.7-4.8,1.8-7c1.2-2.4,2.5-4.7,4-6.9c1.5-2.3,2.3-5,3.6-7.4c0.5,1,1.4,0.3,2,0.5c0.3,0.8,0.6,1.6,0.9,2.4
			C391.8,457,389.4,455,389.9,457.9z"/>
		<path class="st2" d="M436.3,377.3c0.1-1-0.2-1.8-0.9-2.5c-0.7-0.7-0.7-1.2,0.1-1.8c2.2,3.4,3.9,6.9,2.5,11.2
			c-0.7,2.2-2.1,3.7-3.9,5c-1.4,1-3,1.7-4.2,3c-0.8,0.8-1.2,1.6-1,2.7c-0.5-0.3-1-0.6-1.6-0.5c0-0.2,0-0.4,0-0.6
			c-0.4-1.3,1.8-2.2,0.5-3.6c1.2-1.7,3-0.3,4.6-1c-1.4-0.1-1.8-0.6-1.1-1.7c0.8-0.1,2.1,0.3,1.8-1.4c0.1-0.2,0.2-0.5,0.3-0.7
			c0.9-0.1,1.8-0.3,2-1.4c0.6-0.4,0.5-1,0.4-1.6c0.1-0.3,0.2-0.7,0.3-1c1-0.6,2.5-0.9,0.9-2.4C436.8,378.3,436.9,377.7,436.3,377.3z
			"/>
		<path class="st2" d="M411.7,471.1c0.8-0.2,0.5-0.7,0.3-1.1c-2.1-4.1-2.8-8.4-2.1-13c1.2,1.7,1.2,3.6,1.3,5.6
			c0,0.8-0.4,1.8,0.4,2.3c1.5,1,1.5,2.5,1.5,3.9c-0.1,2.4,0.9,4,3.1,4.8c0,0.6,0.3,1,0.9,1c0.4,1.1,0.8,2.3,1.2,3.4
			c0.6,2.1,2.7,3.8,1.3,6.3c-1-1.1-1.7-2.5-2.2-3.9C416.2,476.9,413.8,474.1,411.7,471.1z"/>
		<path class="st0" d="M427.7,485.2c-1-0.6-2.1-1-3.4-0.5c-2.1-1.6-2.1-4.4-3.5-6.5c0-0.6-0.5-1.4,0.3-1.7c0.6-0.2,1.2,0.3,1.6,0.8
			c0.6,0.7,1.1,1.4,1.7,2.1c0.7,1.1,1.7,2,2.2,3.3c0.2,0.7,0.9,1,1.7,0.6c0.8-0.4,0.3-1,0.2-1.5c-0.4-1.1-0.4-2.5-1.7-3.2
			c0-0.1,0-0.3,0-0.4c1.3-0.1,2.6-0.3,3.3,1.1c0,1.4,1.5,2.3,1.1,3.8c-1,0.4-0.1,0.8,0,1.2c0.1,0.9,0.4,1.9-1.1,1.1
			C429.3,485.1,428.6,484.4,427.7,485.2z"/>
		<path class="st1" d="M393.5,483.5c-0.5,1.4-1.8,1.2-2.9,1.3c0.5-1-1.6-2-0.1-3.1c2.4-1.3,2.4-1.6,0.4-4.1c0.1-2.2-1-4.5,0.7-6.6
			c1.2,0.1,1.5-1.1,2.2-1.8c0.7-0.6,0.8-1.8,2.1-1.8c0.4,0.7,0.2,1.2-0.1,2c-0.7,1.8-2.5,3.4-1.3,5.6c-0.1,0.4-0.3,0.7-0.4,1.1
			C392.7,478.6,393.8,481.1,393.5,483.5z"/>
		<path class="st2" d="M427.7,485.2c0.9-0.8,1.6-0.1,2.4,0.3c1.4,0.8,1.2-0.3,1.1-1.1c0.4,0,0.7,0.1,1.1,0.1c0,0.1,0,0.2,0,0.3
			c0.2,0.3,0.4,0.5,0.5,0.8c0,0.5,0.4,0.8,0.8,0.8c1.3,0.9,1.8,2.8,3.7,3.1c-0.3,0.5-0.8,0.9,0,1.4c0,0.7,0.3,1.2,0.9,1.5
			c0.1,0.8-0.2,1.7,0.6,2.3c-0.2,1.4,0.9,2.7,0.4,4.1c-1.1,0.9,0.6,2.9-1.5,3.4c-1.2-0.6-1.8-1.6-1.4-2.9c1.9-5.9-0.8-9.5-5.8-12.1
			C429.5,486.6,428.6,485.8,427.7,485.2z"/>
		<path class="st2" d="M389.9,452.5c-0.6-2.1,0.3-4,0.6-6.1c0.5-4.4,1.3-8.8-0.6-13c0.7-0.1,1.2-0.4,0.9-1.1c-0.2-0.9,0.2-1,0.9-1
			c0.9,0.4,0.6,1.2,0.6,1.9c0.1,2.8-0.4,5.8,1.6,8.2c-1.4,0.9-1.7,2.3-1.5,3.9c0,1.8,0.1,3.7,0.1,5.5
			C391.4,450.9,391,452.2,389.9,452.5z"/>
		<path class="st2" d="M427.9,467.4c2.7,2,5.1,4.2,7.4,6.6c0.7,0.8,1.6,1.5,1.5,2.7c-0.1,0.1-0.2,0.2-0.3,0.3
			c0.2,0.1,0.3,0.1,0.5,0.2c1,1.6,2.1,3.2,3.1,4.8c-0.2,0.1-0.3,0.3-0.5,0.4c-1.7-1.2-3.1-2.7-4.4-4.2c0.4-1.7-0.5-2.3-2-2.5
			c0.2-1.2-0.8-1.9-1.4-2.7c-1.3-1.8-3.9-1.9-4.7-4.1c0.5-0.2,0.8-0.6,0.5-1.1C427.7,467.6,427.8,467.5,427.9,467.4z"/>
		<path class="st0" d="M390.5,481.8c-1.5,1.1,0.6,2,0.1,3.1c-0.2,0.2-0.4,0.3-0.7,0.5c-2.3-1.7-1.7-4.5-2.7-6.7
			c-0.5-1,0.8-3,1.5-4.2c1-1.9,1.6-4.1,3.2-5.7c-0.1,0.8-0.2,1.6-0.3,2.4c-1.7,2-0.6,4.4-0.7,6.6C390.5,479,390.1,480.4,390.5,481.8
			z"/>
		<path class="st2" d="M394.4,475.1c-1.1-2.2,0.7-3.8,1.3-5.6c0.3-0.8,0.5-1.3,0.1-2c0.2-0.2,0.4-0.4,0.6-0.5c0.7,0.1,1-0.3,0.9-1
			c1.2-2.4,2.5-4.7,3.7-7.1c0.5,0.9-0.2,1.8-0.3,2.7c-0.1,1-0.1,1.9,1.4,1.7c-1.3,2.7-3.6,4.8-5.2,7.3
			C396.1,472.1,395.3,473.6,394.4,475.1z"/>
		<path class="st2" d="M446.4,492.8c1.7,2.1,1.7,4.7,1.4,7.2c-0.3,2.2-2.2,2.7-4.1,3.1c-1.4,0.3-2.7,0.7-4.1-0.1
			c1-1,2.4-0.9,3.7-1.2c2.4-0.5,2.9-1.4,1.6-3.5c-0.2-1.3,1-2.2,0.9-3.5c0-0.7,0-1.3-0.1-2C446,492.8,446.2,492.8,446.4,492.8z"/>
		<path class="st0" d="M391.7,431.3c-0.7,0-1.1,0.1-0.9,1c0.2,0.8-0.3,1.1-0.9,1.1c-0.6-0.5-1.1-0.9-1.7-1.4
			c-1.2-1.6-1.5-3.4-1.4-5.3c0.1-1.1,0.2-2.1,0.2-3.2c0-1.3-0.8-1.2-1.6-1.3c0-0.3-0.1-0.7-0.1-1c1.4-0.8,0.3-2.6,1.4-3.7
			c1,2.9,1.4,5.8,1.5,8.7c0.1,2.3,0.5,4.2,3.4,4c0.1,0,0.3,0.4,0.4,0.6C391.9,430.9,391.8,431.1,391.7,431.3z"/>
		<path class="st3" d="M444.9,498.4c1.3,2.1,0.9,3-1.6,3.5c-1.3,0.2-2.6,0.2-3.7,1.2c-0.7-0.1-1.6,0.1-1.9-0.9
			c2.1-0.4,0.4-2.5,1.5-3.4C441.2,499.3,443,498.4,444.9,498.4z"/>
		<path class="st1" d="M420.8,478.2c1.4,2,1.4,4.8,3.5,6.5c-1.7,1.4-3.3,1.7-4.8-0.3c1.4-2.5-0.7-4.2-1.3-6.3
			C419.2,475.5,420,478.3,420.8,478.2z"/>
		<path class="st1" d="M421.7,456.7c1.3-1.1,1.9,0.4,2.1,0.9c0.6,1.6,0.6-0.8,0.9-0.1c0.6,1,0.1,2-0.3,2.9c-0.4,1.2-0.9,2.4-2,3.2
			c-1.5,0.1-2.4-0.9-2.8-2.1c-0.4-1.2,0.5-2.3,1.5-2.7C422.3,458.3,421.4,457.4,421.7,456.7z"/>
		<path class="st0" d="M380.3,474.7c0.3-0.2,0.7-0.3,1-0.5c0,1.2-0.1,2.3,0,3.5c0,0.5-0.3,1.6,0.8,1.5c0.8,0,0.9-0.9,1.2-1.4
			c0.4-0.8-0.5-2.5,1.5-2.2l0.1,0.2c0.1,1.4,0.4,2.8,0.4,4.2c0,0.8,0.4,2.2-1.2,2.2c-0.1-1.7-0.6-2.5-2.1-1c-1.1,0-0.6-1.7-1.8-1.6
			C380.1,478,380.2,476.3,380.3,474.7z"/>
		<path class="st2" d="M406.2,371.2c0.5-0.1,0.9-0.3,1.4-0.4c0.2,0.5,0.4,1,0.6,1.5c0,1.3,0.3,2.4,1.5,3c0.5,0,1,0.1,1.4,0.1
			c0.3,0.2,0.6,0.4,0.9,0.6c-0.1,1.4,0.5,2.4,1.8,2.9c0.6,0.2,1.4,0.4,1.4,1.2c-0.3,0.1-0.6,0.2-1,0.3
			C410.2,378.6,407.1,375.8,406.2,371.2z"/>
		<path class="st2" d="M397.6,389.2c-0.5-0.3-0.7-0.8-0.7-1.4c3.1-2.5,6.8-3.1,10.6-3.4c0,0.5,0,1,0,1.5c-0.2,0.2-0.4,0.3-0.6,0.5
			C403.8,387.1,400.3,386.9,397.6,389.2z"/>
		<path class="st1" d="M385.3,422.2c0.8,0,1.6,0,1.6,1.3c0,1.1-0.1,2.1-0.2,3.2c-0.1,1.9,0.2,3.8,1.4,5.3c-1.1,0.3-1.8-0.4-2.1-1.3
			C385,428,384.5,425.1,385.3,422.2z"/>
		<path class="st1" d="M427.8,450c-0.1,1.3-0.7,2.5-1.3,3.7c0.5,0.5,1.1,0.2,1.7,0.2c-0.3,1.7-1.5,2.4-3.1,2.5c0-0.2,0.1-0.6,0-0.7
			c-0.9-1.4-0.8-2.2,0.4-4c0.4-0.6,0.7-1.3,0.8-2C427,449.2,427.3,449.9,427.8,450z"/>
		<path class="st2" d="M388.9,402c0.1,1.1-0.1,2.1-0.4,3.2c-0.7,2.7-1.4,5.5-2,8.2c-0.2,0.8-0.1,1.8-1.5,1.2c0.6-4,2-7.9,3-11.8
			C388.1,402.5,388.6,402.3,388.9,402z"/>
		<path class="st1" d="M446.4,492.8c-0.2,0-0.4,0-0.6,0c-0.6-1-1.2-2.1-1.7-3.1c-1,0-0.4,2.1-1.7,1.2c-0.9-0.6-0.5-1.5,0.3-2
			c1.2-0.8-0.2-1.7,0.2-2.5c0-0.3,0.1-0.5,0.1-0.8C444.7,487.8,446.2,490,446.4,492.8z"/>
		<path class="st2" d="M392.3,393.2c0.9,0.6,0.6,1.4,0.2,2.2c-1.1,2-2.2,4-2.8,6.2c-0.1,0.2-0.5,0.3-0.8,0.4
			C389.2,398.8,390.4,395.8,392.3,393.2z"/>
		<path class="st0" d="M422.4,463.6c1.1-0.8,1.5-2,2-3.2c-0.1,1.2,0.8,2.1,1,3.1c0,1.6-1.8,1-2.2,2
			C420.7,465.7,422.4,464.3,422.4,463.6z"/>
		<path class="st1" d="M423.1,465.5c0.5-1,2.3-0.4,2.2-2c1.2,1,1.5,2.7,2.6,3.8c-0.1,0.1-0.1,0.2-0.2,0.3c-1.1,0-2.2,0.1-3.3,0.1
			C424.3,466.9,424.1,465.9,423.1,465.5z"/>
		<path class="st0" d="M389.9,452.5c1-0.3,1.5-1.5,2.6-1.7c0.3,0.1,0.6,0.2,0.9,0.3c-0.1,0.2,0,0.3,0.1,0.5c0,0.2,0,0.3-0.1,0.4
			c-1.1,0-1.6,0.6-1.7,1.7c-0.1,0.1-0.2,0.2-0.1,0.3c-0.7-0.2-1.5,0.5-2-0.5C389.7,453.1,389.8,452.8,389.9,452.5z"/>
		<path class="st2" d="M393.5,483.5c0.3-2.4-0.8-5,0.5-7.3C394.2,478.7,395.7,481.2,393.5,483.5z"/>
		<path class="st2" d="M429.8,397.3c-0.5,0.9-1.1,1.3-1.6,0c-0.1-0.3-0.3-0.6-0.4-0.9c0.2-0.8,0.8-0.9,1.4-1
			C430.1,395.8,430.1,396.5,429.8,397.3z"/>
		<path class="st1" d="M407.6,385.9c0-0.5,0-1,0-1.5c0.2,0,0.4,0,0.7,0.1c1.6,1.1,0.2,2.3,0.2,3.5c-0.3,0-0.5,0-0.8,0
			C407.6,387.3,407.6,386.6,407.6,385.9z"/>
		<path class="st2" d="M443,485.7c0,0.3-0.1,0.5-0.1,0.8c-0.5-0.2-1-0.5-1-1.1c0.1-0.1,0.3-0.2,0.4-0.3
			C442.5,485.2,442.7,485.4,443,485.7z"/>
		<path class="st2" d="M441.6,483.6c0.4,0.3,0.7,0.8,0.7,1.4c-0.1,0.1-0.2,0.2-0.4,0.3c-0.6-0.3-0.5-0.9-0.6-1.5
			C441.4,483.8,441.5,483.7,441.6,483.6z"/>
		<path class="st2" d="M440.2,482c0.2,0.2,0.3,0.3,0.5,0.5c-0.2,0.1-0.3,0.3-0.4,0.4c-0.2-0.2-0.3-0.3-0.5-0.5
			C439.9,482.3,440,482.1,440.2,482z"/>
		<path class="st2" d="M440.7,482.5c0.2,0.2,0.3,0.3,0.5,0.5c-0.2,0.1-0.3,0.3-0.5,0.4c-0.2-0.2-0.3-0.4-0.5-0.5
			C440.4,482.8,440.5,482.6,440.7,482.5z"/>
		<path class="st2" d="M441.2,483c0.1,0.2,0.3,0.4,0.4,0.6c-0.1,0.1-0.2,0.1-0.2,0.2c-0.2-0.1-0.4-0.3-0.6-0.4
			C440.9,483.3,441,483.2,441.2,483z"/>
		<path class="st0" d="M437.1,477.2c-0.2-0.1-0.3-0.1-0.5-0.2c0.1-0.1,0.2-0.2,0.3-0.3C436.9,476.9,437,477,437.1,477.2z"/>
		<path class="st3" d="M423.1,465.5c1.1,0.4,1.2,1.4,1.3,2.4c0,0.2-0.1,0.5-0.1,0.7c0.5,1.5,1.2,1.4,2,0.2c0.3,0,0.6,0,0.9,0
			c0.8,2.2,3.5,2.3,4.7,4.1c0.6,0.9,1.6,1.5,1.4,2.7c0,1.7,0,3.3,0,5l0,0c-0.3,0-0.7,0-1,0c-0.2-0.2-0.3-0.3-0.5-0.5l0,0
			c0-0.3-0.2-0.5-0.5-0.5l0,0c0.1-0.5,0-0.9-0.5-1l0,0c-0.5-1.4-1.2-2.8-2.7-3.4c-4.7-2-8.9-4.6-12-9c-1.4,2.4-0.1,3.8,1.6,4.8
			c3.3,2,6.7,3.9,9,7.1c-0.1,0.1-0.1,0.3,0,0.4c-0.4,1.4-1.6,0.3-2.3,0.7c-0.6-0.7-1.1-1.4-1.7-2.1c-0.4-0.5-1.1-1.1-1.6-0.8
			c-0.8,0.3-0.3,1.1-0.3,1.7c-0.9,0.1-1.6-2.6-2.6-0.1c-0.4-1.1-0.8-2.3-1.2-3.4c0.5-0.1,1.6,0.2,1.2-0.8s-1.4-1-2.2-0.2
			c-2.2-0.8-3.2-2.4-3.1-4.8c0.1-1.5,0-3-1.5-3.9c-0.8-0.5-0.4-1.5-0.4-2.3c-0.1-1.9-0.1-3.9-1.3-5.6c0.7-2.9,0.1-6.1,1.8-8.8
			c0.2-0.4-0.3-1.2-0.5-1.8c1.1-0.5,1.9-1.6,3.5-1.3c1.3,0.2,1.8-1,1.5-2.2c-0.4-1.6-1.4-0.9-2.4-0.6c-0.5,0.2-1.1,0.4-1.6,0.6
			c-0.2-2.9,1.3-5.4,1.5-8.2c1.4,3.3,4.5,5.4,5.7,8.9c0.5,1.5,0.3,2.8,0,4.2c-0.5,3.1,0.1,5.9,1.4,8.7c-0.5,0.3-1.4-0.7-1.5,0.5
			c0,0.3,0.2,0.8,0.4,0.8c0.9,0.1,1-0.7,1.1-1.3c0.3,0.1,0.6,0.2,0.9,0.3c-0.2,0.7,0.6,1.6-0.6,2.1c-1,0.5-2,1.5-1.5,2.7
			c0.4,1.2,1.3,2.1,2.8,2.1C422.4,464.3,420.7,465.7,423.1,465.5z M413.7,466.1c0.1,0.3,0.2,0.7,0.3,0.8c0.5,0.1,0.6-0.3,0.7-0.7
			c0.4-1.4,0.5-2.8,0.5-4.2c-0.1-3.8,0.4-7.7,0-11.5c1.5-0.2,1.1-1.6,1.3-2.4c0.4-1.5-0.3-2.1-1.8-1.2c-1.2,0.2-1.4,1.3-1.6,2.2
			c-1,3.2-0.4,6.4-0.1,9.6C413.2,461.1,412.5,463.7,413.7,466.1z"/>
		<path class="st4" d="M390.3,427.2c-0.7-0.1-1.2-0.3-1.1-1.3c0.4-2.3-0.5-4.4-0.8-6.6c-0.5-3.2,0-6.4,0.7-9.6
			c0.1-0.6,0.2-1.1,0.3-1.7c0.4-0.2,0.5-0.6,0.4-1c0-0.7,0.1-1.3,0.1-2c1.4-0.5,1.5-2,1.8-3.1c1.6-5.5,5.4-9.1,9.8-12.3
			c0.8-0.6,1.8-1,1.8,1c0,1.4-0.5,3.2,1.2,4.2c0,0.3,0,0.7,0,1c-0.8,0.3-1.6,0.6-2.5,1c-0.8,0-1.7,0-2.5,0.1
			c-0.6-0.8-1.2-0.3-1.9-0.2c-0.5,1.1-0.9,2.3-1.4,3.4c-0.5,1.1,0.2,2.4-0.9,3.5c-1.3,1.3-2,3-2.4,4.8c-0.9,0.8-2.4,1.7-1.8,3
			c1.3,2.7,0.3,5.5,0.6,8.2c-0.9-0.1-1.8-0.1-1.8,1.3c0,1.1,0.6,1.7,1.6,1.8c1.6,0.2,0.6-1.1,1-1.7c0.8,0.5,2.7-0.5,2.4,1.7
			c-0.7,0-1.3,0.2-1.5,0.9c-0.6,0-1.1-0.1-1.5,0.5c-1-0.4-1.6-0.2-1.6,1C390.4,425.9,390.3,426.6,390.3,427.2z"/>
		<path class="st3" d="M401.1,459c-1.2,2.4-2.5,4.7-3.7,7.1c-0.5,0.1-0.9,0.4-0.9,1c-0.2,0.2-0.4,0.4-0.6,0.5
			c-1.3-0.1-1.4,1.1-2.1,1.8c-0.7,0.6-0.9,1.8-2.2,1.8c0.1-0.8,0.2-1.6,0.3-2.4c1.9-0.9,1.2-2.5,1-4c3.2-1.6,3.7-4.7,4.1-7.8
			c0.4-3,0.5-6.1,2.5-8.7c0.6-0.8,0.7-1.6-0.6-1.8c0.2-0.5,0-0.9-0.5-1.1c0-0.1,0-0.2,0-0.4c2.4-0.4,3.4-2.7,5.4-3.7
			c1.8-0.9,3.3-2.1,3.3-4.4c0.5,0.7,1,1.3,1.5,2c-0.7,0.9-0.1,1.7,0,2.6c-0.9-0.4-1.8-0.7-3.2-1.3c1.8,3.7-0.1,6-2,8.6
			c-1.3,1.7-0.6,4.2-0.5,6.3c-0.4,1-0.9,2-1.3,3C401.4,458.4,401.2,458.7,401.1,459z"/>
		<path class="st4" d="M406.9,419.6c0.1-3.1,1-6,2.1-8.9c0.7,0,1.3,0.1,1.1-1c-0.2-1.2-0.2-2.5-0.4-3.7c0.3-1.3,0.7-2.6,1.9-3.4
			c0.5-0.3,0.5-1.5,1.4-0.9c0.7,0.5,0.9,1.4,0.7,2.2c-0.5,1.9-0.7,3.8-1.6,5.5c-1.9,3.7-1.3,7.8-2.1,11.7c0.2,1.9-0.7,3.5-2.5,5.4
			c3.6-0.9,2.8,1.6,3.5,2.9c-0.4,0.8-0.7,1.7-1.1,2.5c-0.4-0.2-0.9-0.4-1.3-0.5c-0.2-1.3-0.3-2.6-0.5-3.9c-0.1,0-0.3,0-0.4,0
			c-0.5,1.9-1.2,3.8-1.4,5.7c-0.2,2.2-1.4,4-2.1,6.1c-0.2,0.5-0.5,0.6-0.9,0.6c-0.5,0-0.7-0.5-0.8-0.9c-0.2-2.3-1.4-4.8,1.4-6.4
			c0.5-0.3,0.4-1,0.2-1.3c-1.3-1.6-0.3-3,0.2-4.4c0.6-1.6,1.3-3.2,2-4.8C407.5,421.2,407.1,420.4,406.9,419.6z"/>
		<path class="st3" d="M430.8,399.4c2.3,4.3,1.7,8.9,1.1,13.5c-0.2,1.6,0.7,2.7,0.8,4.1c0.1,5.2,0.6,10.4-0.7,15.5
			c-0.3,1-0.7,1.4-1.7,1.4c-0.6-1.8,0.4-3.9-1.4-5.4c-0.1-0.7-0.4-1.6,1-1.3c0.4,0.1,1.3,0.2,1.2-0.5c-0.4-2.2,0.9-4.5-0.3-6.7
			c-0.6-1.1-1-1.1-1.8-0.4c-1.8,1.6-2.5-0.8-2.5-1.2c0.2-1.2-0.4-2.6,0-3.3c1.2-2.1,0.1-4.3,0.7-6.4c2.2,0.1,0.5,2.2,1.5,3
			c1.1-3.9,0.1-5.8-3-6.1C426.4,401.5,428,399.7,430.8,399.4z"/>
		<path class="st4" d="M407.7,387.9c0.3,0,0.5,0,0.8,0c1,5.8,0.7,11.7,0.3,17.5l-0.1-0.1l-0.2,0.1c-1.1,0.4-0.9,0.8-0.1,1.3
			c-0.2,0.6-0.3,1.1-0.5,1.7c-1,0.6-1.1,1.3-0.3,2.2c-0.1,0.3-0.1,0.6-0.2,1c-1.2,0.3-1.1-1.1-1.8-1.5c0-0.6,0.1-1.1,0.1-1.7
			c0.6-2.4,0.8-4.8,0.5-7.2c1-1.4,1.1-2.9,0.2-4.4c-0.5-0.9-0.5-1.8-0.3-2.6C406.5,392.1,407.1,390,407.7,387.9z"/>
		<path class="st3" d="M427.8,450c-0.5-0.1-0.8-0.9-1.4-0.4c-0.5,0.3-1.1,0.5-1.6,0.8c-0.8,0.2-1.6,0.3-2.4,0.5c0-1.6,1.4-2,2.3-2.6
			c1.4-1,0.7-2,0.2-2.6c-0.8-0.8-1.4-0.1-1.8,0.8c-0.3,0.6-1,1.5-1.7,1c-0.9-0.6,0.2-1.3,0.5-1.9c1.5-3.1,5.2-4.8,5.2-8.6
			c2-0.3,0.6,2.8,2.8,2.2c0.2,1.3-0.1,2.5-0.5,3.7c-0.6,0.1-1.2,0.3-0.4,1C428.9,446,428.1,448,427.8,450z"/>
		<path class="st4" d="M428.8,419.5c0.8-0.7,1.2-0.6,1.8,0.4c1.2,2.2,0,4.5,0.3,6.7c0.1,0.6-0.7,0.6-1.2,0.5c-1.4-0.3-1.1,0.6-1,1.3
			c-2,2.5-3.2,5.5-4.7,8.4c-0.4,0-0.8,0-1.2,0c0.2-1.9,0.9-3.6,1.7-5.3c1-1.9,0.9-4.2,1.6-6.3C427.1,423.3,428.1,421.5,428.8,419.5z
			"/>
		<path class="st4" d="M404.2,408.7c-0.1,0.3-0.1,0.6-0.2,0.9c-1.4,0.7-1.6,1.8-0.6,3.1c0,0.5,0,1,0.1,1.5c-1.5,2.2-0.4,4.7-1,7
			c-0.2,0.2-0.4,0.3-0.5,0.5c-1.6,0.2-1.6-0.8-1.4-1.9c0.1-0.4,0.8-1,0.7-1.2c-1.5-2.8,0.2-5.7-0.3-8.5c0.4-0.8,1-1.6,0-2.4
			c0-0.2,0-0.4,0-0.5c0-0.2,0-0.3,0-0.5c0.8-0.1,1.4-0.5,1.4-1.4c0.1-0.8-0.3-1.2-1.1-1.2c0.3-1.6,0.6-3.2,1.5-4.6
			c0.7,0,1.5,0.1,2.2,0.1c0,0.3,0.1,0.7,0.1,1C403,403,404.2,405.9,404.2,408.7z"/>
		<path class="st1" d="M417.2,381.8c0.1-0.4,0.3-0.8,0.4-1.2c0-0.3,0-0.6,0.1-1c1.2-0.8,1.9-1.9,1.5-3.4c0.7-0.7,1.4-1.2-0.4-1.5
			c-3.6-0.5-6.4-2.3-7.2-6.2c-0.3-1.4-0.7-3,1.1-3.9c-0.5,5,3.7,10.3,8.5,9c0.3,1.6,1.2,0.9,2,0.5c0,0.3,0,0.7,0,1
			c-0.2,0.3-0.3,0.6-0.5,0.8c0.6,1-0.2,2.1,0.1,3.1c-1.7,0-2,2.7-4,2.2c-0.1-0.1-0.2-0.1-0.3-0.2c0.1,0.1,0.1,0.2,0.2,0.3
			c0,0.7-0.5,1.1-1.1,1.4C417.7,382.5,417.6,382,417.2,381.8z"/>
		<path class="st3" d="M411.2,429.3c-0.7-1.2,0.1-3.8-3.5-2.9c1.8-1.9,2.7-3.5,2.5-5.4c1.7,1.2,1.9,3.5,3.6,4.7
			c1.3-0.6,0.3-3.3,2.3-2.7c1.7,0.5,0.6,2.3,0.7,3.5c0.2,2.1,0,4.1-0.4,6.2c-1.2-0.7-1.3-2-1.3-3.2c-0.1-1.6-1.1-1.6-2.2-1.3
			C412.3,428.5,411.7,429,411.2,429.3z"/>
		<path class="st3" d="M401,410.1c0.5,2.8-1.2,5.7,0.3,8.5c0.1,0.2-0.6,0.8-0.7,1.2c-0.2,1.1-0.2,2.1,1.4,1.9
			c0.2,1.1-0.2,2.1-0.5,3.1c-0.3,1.3-1.1,2.6-0.4,4.1c-0.1,0.5-0.2,1-0.9,1c-0.6,0-0.5-0.5-0.6-0.9c-0.2-3.8-0.8-7.5-0.9-11.3
			c-0.1-2.7,0.9-5,1-7.5C400.1,410.1,400.5,410.1,401,410.1z"/>
		<path class="st3" d="M401.5,438.8c-0.4,0.9,0.3,3.2-2,1.4c-1.5-1.3-0.6-3.7-2.4-4.8c-0.9-2.8-1.8-5.6-2.7-8.4
			c0.6-0.8,1.4-0.7,1.8,0.1c2.1,3.2,3.8,6.7,5,10.3C401,438,400.9,438.4,401.5,438.8z"/>
		<path class="st3" d="M410.5,401.3c0.8-5.2-0.7-10,0-14.8c0.1-0.7,0-1.8,1-1.7c0.8,0.1,0.6,1.1,0.6,1.7c-0.2,2.6,0.5,4.8,1.8,7
			c0.8,1.4,0.7,2.7-0.5,3.9C412.4,398.4,412.2,400.1,410.5,401.3z"/>
		<path class="st1" d="M391.7,419.7c-0.3-2.7,0.7-5.5-0.6-8.2c-0.6-1.3,0.8-2.2,1.8-3c1.2-0.1,1,2,2.4,1.5c-0.3,2.5-0.3,2.5-2,1.3
			c-0.7-0.5-1.1-0.2-1.2,0.5c-0.1,1,0.4,2,1.1,2.4c1.3,0.8,1.4,1.9,1.6,3.2c-0.4,0.1-0.7,0.1-1,0.1c-0.5,0.1-1.2-0.4-1.4,0.5
			c-0.2,0.9,0.5,1.1,1.1,1.3c2.8,1.3,3.4,3.9,3.5,6.7c-0.8-1.1-1.5-2.3-2.3-3.4c0.3-2.1-1.6-1.2-2.4-1.7
			C392.2,420.7,392,420.2,391.7,419.7z"/>
		<path class="st1" d="M419.8,411.1c-0.1-1.3,0.3-2.5,0.8-3.6c1.3,0,1.2-1.2,1.6-2c0.8-0.1,1,0.7,1.5,1c-0.3,1.7,1.3,3.8-1.2,4.9
			c1.3,1.9-0.3,3.5-0.4,5.3c0,0.3-0.3,0.6-0.4,0.9c-1.9,0.7-2.1,0.2-1.8-1.8C420.2,414.4,421.5,412.7,419.8,411.1z"/>
		<path class="st1" d="M431.3,387.3c-0.8,1.1-0.3,1.6,1.1,1.7c-1.6,0.8-3.5-0.7-4.6,1c-1.4,0.5-3,0.7-4.2,1.4
			c-1.9,1.1-3.4,0.9-4.8-0.7c0.2-0.3,0.3-0.7,0.5-1c0.8,0,1.6,0,2.4,0c0.7,0.6,1.5,0.6,2.1-0.1c0.7-0.8-0.8-1.1-0.5-1.8
			c0.5-0.4,1-0.7,1.7-0.7c0.2,0.5,0.5,1,1.1,1.1c0.2,0.3,0.4,0.5,0.6,0c0.1-1,0.1-2.1-1.1-2.6c0.1-0.6,0.5-0.9,1.1-0.9
			c0.9,1.8,2.1,2.8,4.2,1.6C431.1,386.8,431.2,387.1,431.3,387.3z"/>
		<path class="st1" d="M418,405.5c-0.1,5.5-2.5,10.4-3.9,15.6c-0.1,0.5-0.3,1.1-0.9,1c-0.7-0.1-0.5-0.7-0.5-1.2c0-0.9,0-1.8,0-2.7
			c0.4-0.1,0.9-0.2,0.9-0.8c-0.1-3.3,1.4-6.2,2.2-9.2C416.1,407,416.3,405.6,418,405.5z"/>
		<path class="st3" d="M395.3,410.1c-1.4,0.5-1.3-1.6-2.4-1.5c0.4-1.8,1.1-3.5,2.4-4.8c1.1-1.1,0.4-2.4,0.9-3.5s1-2.3,1.4-3.4
			c1,1.6,1.6,3.2,0.5,5C396.5,404.3,397,407.5,395.3,410.1z"/>
		<path class="st4" d="M418,405.5c-1.7,0.1-1.9,1.5-2.2,2.6c-0.8,3.1-2.3,5.9-2.2,9.2c0,0.5-0.4,0.7-0.9,0.8
			c-0.1-4.1,0-8.1,2.1-11.8c1-1.8,0.8-3.5,0.4-5.3c0.5,0,0.9,0,1.4,0C417.6,402.3,418.5,403.7,418,405.5z"/>
		<path class="st1" d="M411.2,429.3c0.6-0.3,1.1-0.8,1.7-1c1.1-0.4,2.2-0.4,2.2,1.3c0,1.2,0.1,2.5,1.3,3.2c0.7,1.5,0.9,3.2,0.9,5.3
			c-2.2-2.5-2.6-5.5-4.4-8c-0.7,1.7-0.2,3.7-2,4.5c-0.2-0.9-0.9-1.7-0.8-2.7C410.5,431,410.8,430.1,411.2,429.3z"/>
		<path class="st1" d="M418.3,430.3c0-3.2-0.7-6.4,0.3-9.6c0.9,0.2,0.6-2.9,2.2-0.8c-0.1,2.9-0.3,5.7-0.1,8.6
			c0.1,1.2-0.7,1.3-1.2,1.9C419,430.3,418.6,430.3,418.3,430.3z"/>
		<path class="st4" d="M408.6,441.4c0-0.9-0.7-1.7,0-2.6c0.1-1-0.1-2.1,0.5-3c1.7,1.9,2.2,1.8,3.4-0.5c0.3-0.5,0.4-1.1,1.2-0.7
			c-0.2,2.8-1.7,5.3-1.5,8.2l0,0C410.6,443.1,410.1,441.1,408.6,441.4L408.6,441.4z"/>
		<path class="st4" d="M394.4,427.1c0.9,2.8,1.8,5.6,2.7,8.4c-0.3,0.8-0.5,1.6-0.8,2.3c-0.9,0.2-1.8,1.2-2.7,0.5
			c-0.4-0.3-0.3-1.3,0.1-1.9c1.8-2.8,0.9-5.2-0.8-7.6c0.4-0.6-0.7-2.1,1.1-2l0,0C394.1,426.9,394.3,427,394.4,427.1z"/>
		<path class="st3" d="M427.2,393.8c0,0.2,0,0.4,0,0.6c-1.9,1.5-3.9,2.9-5.4,4.7c-0.9-0.1-1.2,0.3-0.9,1.1c0,0.3-0.1,0.6-0.1,0.9
			c-0.3,0-0.6,0-0.9-0.1c-1.3-3.9-0.9-4.7,3.1-5.9C424.4,394.7,425.5,393.3,427.2,393.8z"/>
		<path class="st1" d="M396.4,437.8c0.3-0.8,0.5-1.6,0.8-2.3c1.7,1.1,0.9,3.5,2.4,4.8c-0.7,1.5-0.2,3.2-1,4.7c0,0.1,0,0.2,0,0.4
			c-2.2,0.2-1.9-1.2-1.8-2.6c0-0.6,1.3-2-0.7-1.9C394.6,439.6,396.8,438.9,396.4,437.8z"/>
		<path class="st3" d="M419.1,376.3c0.4,1.5-0.3,2.6-1.5,3.4c-0.6,0.1-1,0.3-1.1,1c-0.6,0.2-0.9-0.3-1.3-0.5c-0.1-0.9-0.9-1-1.4-1.2
			c-1.4-0.5-1.9-1.5-1.8-2.9c1.2-0.5,2.3,0.2,3.4,0.5c-0.1,0.5-0.6,0.9-0.2,1.4s1,0.2,1.3-0.1c0.6-0.4,1-1,1.6-1.5
			C418.5,376.3,418.8,376.3,419.1,376.3z"/>
		<path class="st2" d="M419.2,389.8c-0.2,0.3-0.3,0.7-0.5,1c-4.2-2.3-4.8-6.4-1.5-9c0.5,0.2,0.5,0.6,0.5,1c-0.6,1.8-1.1,3.5,0.4,5.1
			c0.1,0.7,0.1,1.4,1,1.5C419.1,389.6,419.2,389.7,419.2,389.8z"/>
		<path class="st3" d="M423.7,406.6c-0.6-0.3-0.7-1.2-1.5-1c0.9-1.3,1.7-2.6,0.4-4.1c1-2.4,2.9-3.8,5.1-5c0.1,0.3,0.3,0.6,0.4,0.9
			C425.9,400,423.5,402.7,423.7,406.6z"/>
		<path class="st1" d="M401.1,428.8c-0.6-1.4,0.1-2.7,0.4-4.1c0.3-1,0.7-2,0.5-3.1c0.2-0.2,0.4-0.3,0.5-0.5c0.6,0.5,1.1,1.3,2,1
			C403.6,424.6,404,427.6,401.1,428.8z"/>
		<path class="st2" d="M404.2,408.7c0-2.8-1.1-5.7,1-8.2c0.3,0.2,0.6,0.5,1,0.7c0.3,2.4,0.2,4.8-0.5,7.2
			C405.1,408.1,404.7,408.6,404.2,408.7z"/>
		<path class="st3" d="M404.5,422.2c-1,0.2-1.4-0.5-2-1c0.6-2.3-0.6-4.9,1-7c0.4,2,2.2,3.7,1.5,6c-1.1,0.2-1.3,0.7-0.5,1.6
			c0,0.1,0.1,0.2,0.1,0.3C404.6,422.1,404.5,422.1,404.5,422.2z"/>
		<path class="st4" d="M420.7,419.9c-1.6-2.1-1.3,1-2.2,0.8c0.1-3.2,0.6-6.4,1.3-9.5c1.7,1.5,0.4,3.3,0.1,4.7
			c-0.4,1.9-0.2,2.5,1.8,1.8C421.9,418.6,421.6,419.4,420.7,419.9z"/>
		<path class="st1" d="M425.6,405.5c3.1,0.2,4.1,2.2,3,6.1c-0.9-0.8,0.7-2.9-1.5-3C426,407.9,424.3,407.4,425.6,405.5z"/>
		<path class="st3" d="M416.5,401c-0.5,0-0.9,0-1.4,0c-0.3-0.5-0.7-0.9-0.8-1.5c-0.3-1.2,0.7-1.8,1.4-2.4c0.4-0.5,1.1-0.1,1.5,0.4
			c0.6,0.7,0.7,1.5,0.2,2.3C417.1,400.2,416.8,400.6,416.5,401z"/>
		<path class="st3" d="M418.3,430.3c0.4,0,0.8,0,1.1,0c0.6,2.1,0.7,4.3,0.8,6.5c-0.5,0-1,0.1-1.5,0.1
			C418.4,434.7,418.1,432.5,418.3,430.3z"/>
		<path class="st4" d="M422.6,401.5c1.2,1.5,0.5,2.8-0.4,4.1c-0.4,0.8-0.2,2-1.6,2C420.7,405.3,421.4,403.3,422.6,401.5z"/>
		<path class="st2" d="M407.9,408.4c0.2-0.6,0.3-1.1,0.5-1.7c0-0.4,0.1-0.9,0.1-1.3l0.2-0.1l0.1,0.1c0.3,0.2,0.7,0.3,1,0.5
			c0.1,1.2,0.1,2.5,0.4,3.7c0.2,1.1-0.4,1.1-1.1,1c-0.3-0.1-0.7-0.3-1-0.4C408,409.6,407.9,409,407.9,408.4z"/>
		<path class="st3" d="M405.1,399.5c-0.7,0-1.5-0.1-2.2-0.1c0-0.7-0.1-1.3-0.8-1.6c0-0.3,0-0.6,0-0.8c0.8-0.3,1.6-0.6,2.5-1
			C404.7,397.1,404.9,398.3,405.1,399.5z"/>
		<path class="st1" d="M422.4,450.9c0.8-0.2,1.6-0.3,2.4-0.5c0,1.2-1.1,1.5-1.7,2.3c-0.4,0.6-1.1,1.2-1.8,0.6
			c-1-0.9,0.1-1.3,0.6-1.9C422.1,451.3,422.2,451.1,422.4,450.9z"/>
		<path class="st1" d="M402,396.9c0,0.3,0,0.6,0,0.8c-1,0.7-0.5,2.1-1.6,2.9c-0.7-1.2-0.9-2.4-1-3.7
			C400.3,397,401.2,396.9,402,396.9z"/>
		<path class="st2" d="M418.8,436.9c0.5,0,1-0.1,1.5-0.1c0.7,0.7-0.2,1.4-0.1,2.1c0.1,0.7,1,1.8-0.3,2c-0.9,0.1-0.8-1.3-1-2
			C418.6,438.3,418.8,437.5,418.8,436.9z"/>
		<path class="st3" d="M405.5,410.1c0.7,0.4,0.6,1.8,1.8,1.5c-0.1,0.5-0.3,1-0.4,1.5c-0.5,0.2-1.1,0.3-1.6,0.5
			C405.2,412.4,404.4,411.2,405.5,410.1z"/>
		<path class="st2" d="M409.1,435.8c-0.6,0.9-0.4,2-0.5,3c-0.5-0.7-1-1.3-1.5-2c-0.1-1,0.7-1.6,1.3-2.1
			C408.7,434.6,409,435.4,409.1,435.8z"/>
		<path class="st1" d="M391.9,424.2c0.4-0.6,0.9-0.5,1.5-0.5c1.4,0.8,0.1,2.1,0.5,3.1l0,0c-0.3,0.3-0.5,0.2-0.5-0.2
			c-0.3-0.3-0.5-0.5-0.8-0.8C392.4,425.2,392.2,424.7,391.9,424.2z"/>
		<path class="st1" d="M405.3,413.6c0.5-0.2,1.1-0.3,1.6-0.5c0,0.2,0.1,0.6,0,0.7c-0.6,0.6,0.2,2.1-0.9,2
			C404.9,415.7,405.2,414.5,405.3,413.6z"/>
		<path class="st2" d="M416,420.6c-0.1-1.5-0.3-3.1,1.5-4.6C417.3,418,416.9,419.3,416,420.6z"/>
		<path class="st1" d="M401,410.1c-0.4,0-0.8,0.1-1.2,0.1c0-0.5-0.1-1.1-0.1-1.6c0.7,0.1,0.9-0.6,1.4-0.9
			C401.9,408.4,401.4,409.2,401,410.1z"/>
		<path class="st2" d="M419.8,401c0.3,0,0.6,0,0.9,0.1c-0.2,0.9-0.1,1.8-0.8,2.6C418.7,402.8,419.5,401.9,419.8,401z"/>
		<path class="st3" d="M410.1,431.8c-0.1,1,0.6,1.8,0.8,2.7c-1.2,1.1-1.2-0.2-1.5-0.8c-0.3-0.8-1.1-1.5-0.6-2.5
			C409.2,431.4,409.7,431.6,410.1,431.8z"/>
		<path class="st3" d="M401.3,404c0.8,0,1.2,0.4,1.1,1.2c-0.1,0.9-0.6,1.2-1.4,1.4c-0.1-0.6-0.1-1.2-0.2-1.8
			C400.8,404.4,400.8,404,401.3,404z"/>
		<path class="st3" d="M403.4,412.6c-1-1.3-0.8-2.3,0.6-3.1C403.8,410.6,403.6,411.6,403.4,412.6z"/>
		<path class="st2" d="M406.9,419.6c0.2,0.8,0.6,1.6-0.4,2.3C405.2,420.9,405.2,420.1,406.9,419.6z"/>
		<path class="st1" d="M423,436.8c0.4,0,0.8,0,1.2,0c0,1.2-0.6,1.9-1.8,2.2C421.9,438,422.8,437.5,423,436.8z"/>
		<path class="st1" d="M400.8,404.7c0.1,0.6,0.1,1.2,0.2,1.8c0,0.2,0,0.3,0,0.5c-0.4,0-0.8,0-1.2-0.1
			C400,406.2,400,405.3,400.8,404.7z"/>
		<path class="st1" d="M407.9,408.4c0,0.6,0.1,1.2,0.1,1.9c-0.2,0.1-0.3,0.2-0.5,0.3C406.7,409.7,406.9,409,407.9,408.4z"/>
		<path class="st3" d="M399.8,407c0.4,0,0.8,0,1.2,0.1c0,0.2,0,0.4,0,0.5c-0.5,0.3-0.6,1-1.4,0.9C399.4,408,399.6,407.5,399.8,407z"
			/>
		<path class="st2" d="M404.4,421.7c-0.8-0.8-0.6-1.3,0.5-1.6C404.9,420.7,405.1,421.3,404.4,421.7z"/>
		<path class="st2" d="M420.8,400.2c-0.2-0.8,0-1.2,0.9-1.1C421.6,399.6,421.3,400,420.8,400.2z"/>
		<path class="st3" d="M400.2,442.4c0-0.5-0.2-1,0.3-1.3c0.1-0.1,0.6,0.1,0.6,0.2c0.2,0.5,0,0.9-0.5,1.2
			C400.4,442.4,400.3,442.3,400.2,442.4z"/>
		<path class="st1" d="M401.5,438.8c-0.5-0.4-0.5-0.9-0.1-1.4C402.1,437.9,402,438.3,401.5,438.8z"/>
		<path class="st2" d="M416.6,380.6c0.1-0.6,0.5-0.9,1.1-1c0,0.3,0,0.6-0.1,1C417.3,380.6,416.9,380.6,416.6,380.6z"/>
		<path class="st1" d="M400.2,442.4c0.1,0,0.3,0,0.4,0.1c-0.1,0.1-0.2,0.2-0.3,0.4C400.2,442.6,400.2,442.5,400.2,442.4z"/>
		<path class="st4" d="M412.1,442.9c0.5-0.2,1.1-0.4,1.6-0.6c0.9-0.3,2-1,2.4,0.6c0.3,1.3-0.2,2.5-1.5,2.2c-1.6-0.3-2.3,0.9-3.5,1.3
			c-0.6-0.4-0.6-0.9-0.5-1.5C412,444.8,412.1,443.9,412.1,442.9L412.1,442.9z"/>
		<path class="st3" d="M412.1,442.9c0,1-0.1,1.9-1.4,2c-0.3-1.4-2-2-2.1-3.5C410.1,441.1,410.6,443.1,412.1,442.9z"/>
		<path class="st2" d="M401.6,458.1c0.4-1,0.9-2,1.3-3C403.7,456.6,402.8,457.4,401.6,458.1z"/>
		<path class="st4" d="M399,446.4c1.3,0.2,1.2,1,0.6,1.8c-2,2.6-2.1,5.7-2.5,8.7c-0.5,3.1-0.9,6.2-4.1,7.8c0-0.2,0-0.4-0.1-0.5
			c0.1-0.7,0.4-1.6-0.5-2.1c0.2-1-0.2-2-0.4-3c0.8-0.1,1-0.6,0.9-1.3c0.2-0.4,1-0.5,0.8-1.1c-0.1-0.2-0.7-0.3-1.1-0.4
			c-0.3-0.8-0.6-1.6-0.9-2.4c-0.1-0.1,0-0.2,0.1-0.3c1.6,0.5,1.3-0.9,1.7-1.7c0.1-0.1,0.1-0.3,0.1-0.4c0.8-0.3,1.2-1,1.8-1.8
			c-1.4-0.4-1.4,0.8-1.9,1.3c-0.3-0.1-0.6-0.2-0.9-0.3c0-1.8-0.1-3.7-0.1-5.5C394.5,446.5,396.6,446.9,399,446.4z"/>
		<path class="st3" d="M379.3,490.3c0.7-1.5,0.5-3.1,0.5-4.7c0-0.9-0.1-1.9,1.3-2c-0.2,2.6-0.4,5.3-0.6,7.9c-0.1,1.2-0.7,2.9,1.1,3
			c1.3,0.1,1.2-1.6,1.3-2.7c0.1-0.5,0-1,0-1.5c0-0.9,0.2-1.5,1.2-1.5c2.5,0.9,0.8,3,1.3,4.5c-0.9,1.1-0.2,2.6-0.9,4
			c-1.4-0.9-3.1-1-4.7-1.4C378.7,494.1,380.1,492.1,379.3,490.3z"/>
		<path class="st4" d="M384.1,488.8c-1,0-1.2,0.7-1.2,1.5c0,0.5,0.1,1,0,1.5c-0.2,1.1,0,2.8-1.3,2.7c-1.7-0.1-1.2-1.8-1.1-3
			c0.3-2.6,0.4-5.3,0.6-7.9c-0.1-0.9,0.4-1.7,0.7-2.4c1.6-1.5,2.1-0.7,2.1,1c0.8,1.5,0.7,3.1,0.2,4.6
			C383.9,487.5,383.3,488.1,384.1,488.8z"/>
		<path class="st3" d="M384.7,475.7l-0.1-0.2c-1.6-4.2,0.9-7,3.3-10c0.4-0.5,0.6-1,1.3-0.9c0.8,0.1,0.7,0.8,0.7,1.4
			c0,0.6,0.2,1.3,0,1.7C388.5,470.6,387.3,473.6,384.7,475.7z"/>
		<path class="st0" d="M392.5,456.3c0.4,0.1,1,0.1,1.1,0.4c0.2,0.6-0.6,0.6-0.8,1.1c-0.3,0.1-0.6,0.1-0.9,0.2c-0.7,0-1.3-0.1-2-0.1
			C389.4,455,391.8,457,392.5,456.3z"/>
		<path class="st3" d="M392.3,462.1c0.9,0.5,0.5,1.3,0.5,2.1C391.6,463.7,391.7,463,392.3,462.1z"/>
		<path class="st3" d="M391.9,458c0.3-0.1,0.6-0.1,0.9-0.2c0.1,0.7-0.1,1.2-0.9,1.3C392,458.7,391.9,458.4,391.9,458z"/>
		<path class="st3" d="M423.2,375.3c0-0.3,0-0.7,0-1c1.5-0.7,2.9-1.2,2.8-3.4c0-0.7,0.5-1.9,1.6-2.3c0.1,0.7,0.1,1.4,0.2,2.1
			c-0.7,0.6-0.1,1.4,0.2,1.3c1.4-0.4,3,1.6,4.3-0.4c-0.8-0.4-1.4-0.8-2-1.1c0-0.2,0-0.5-0.1-0.7c1.5-0.5,1.8-1.5,1.2-2.9
			c-0.2-0.4-0.1-1.2-0.8-1c-0.3,0.1-0.3,0.8-0.5,1.3c-1.1-0.5-1.5,1.1-2.5,0.9c0-2.4-0.5-4.5-1.8-6.6c-0.9-1.4-2-2.4-3.8-1.9
			c-2.4-0.7-4.7-0.6-6.8,1.1c-0.9,0.7-0.8,2-2,2.5c-0.3-0.4-0.6-0.4-0.9,0c-0.3-0.2-0.6-0.3-0.9-0.5c0.5-1.5,2.7-2,2.5-4.1
			c1.1-1,1.9-2.3,3.7-0.7c0.6,0.5,2.4,0.6,2.8-0.2c0.7-1.5,1.6-0.7,2.4-0.6c1.2,0.1,2.1,0.8,3.1,1.5c0.4,0.3,1,0.6,1.4,0.2
			c0.6-0.7-0.2-1-0.5-1.4c-2.8-2.9-6.2-4.1-10.2-3c0.7-1.4,2-1.4,3.2-1.3c7.5,0.5,13.2,5.8,13,13c-0.1,3,0,6,1.4,8.8
			c0.2,0.4,0,1,0,1.5c-2-0.7-2.6,0.7-2.7,2.1c0,1.3,1.2-0.2,1.7,0.3c0.2,0.5,0.6,0.5,1,0.5l0,0c0.1,1.5-2.4-0.3-1.8,1.3
			c0.4,1.2,1.9,0.6,2.9,0.7c0.2,0,0.3,0,0.5,0c-0.1,0.3-0.2,0.7-0.3,1c-1.1,0.3-0.7,0.9-0.4,1.6c-0.2,1.2-1.1,1.3-2,1.4
			c-0.7-0.4-1-1.3-1.9-1.4c-0.4-0.2-0.3-1.2-1.1-0.5l0,0c0.6-0.4,0.1-0.7-0.1-1c-1.6-1.5-3.3-0.8-5,2c-0.3,0-0.6,0-0.9,0
			c-0.3-0.2-0.5-0.4-0.8-0.5c-2.3-1,0.5-1.6,0.2-2.4c2.2-0.7,4.2-1.6,3.4-4.5c1-0.8,1.6-2.2,3.3-1.7c0.2,0.1,0.7-0.3,0.7-0.5
			c0.2-0.6-0.3-0.4-0.7-0.6C427.8,373,425.5,374.1,423.2,375.3z"/>
		<path class="st4" d="M411.6,362.7c0.3,0.2,0.6,0.3,0.9,0.5c0.1,0.5,0.1,1,0.2,1.5l0,0c-1.8,0.9-1.4,2.5-1.1,3.9
			c0.8,3.8,3.6,5.7,7.2,6.2c1.8,0.3,1.1,0.8,0.4,1.5c-0.3,0-0.7,0-1,0c-1-1.2-1.8,0-2.7,0.2c-1.1-0.3-2.2-0.9-3.4-0.5
			c-0.3-0.2-0.6-0.4-0.9-0.6c-0.2-0.7-0.7-1-1.4-1.1c-0.4-0.8-0.5-1.8-1.6-2c-0.2-0.5-0.4-1-0.6-1.5c0.3-2.6-0.7-5.2,0.5-7.9
			c1.8-3.9,4.7-6.6,8.6-8.4c4-1.1,7.4,0.1,10.2,3c0.4,0.4,1.1,0.7,0.5,1.4c-0.4,0.4-1,0.1-1.4-0.2c-0.9-0.7-1.9-1.4-3.1-1.5
			c-0.8-0.1-1.7-0.9-2.4,0.6c-0.3,0.8-2.2,0.7-2.8,0.2c-1.8-1.6-2.6-0.3-3.7,0.7c-1.5,0.6-2.2,1.9-3,3.1
			C410.7,362.4,410.9,362.7,411.6,362.7z"/>
		<path class="st0" d="M433.3,378.8c-0.5-0.5-1.7,1-1.7-0.3c0-1.4,0.7-2.8,2.7-2.1c-0.1,0.4-0.2,0.8-0.3,1.1l-0.2,0.2
			C433.2,377.9,433.2,378.4,433.3,378.8z"/>
		<path class="st3" d="M433.8,377.7l0.2-0.2c0.8,0.3,1.6,0.2,2.4-0.2c0.6,0.4,0.4,1,0.5,1.5c-0.8,0.2-1.7,0.4-2.5,0.5l0,0
			C434.1,378.8,433.9,378.2,433.8,377.7z"/>
		<path class="st3" d="M380.3,498.5c1.5-0.2,2.7,0.6,4,1c0.7,0.2,1,0.8,1.1,1.5c0,0.9-0.7,1.1-1.3,1.2c-2,0.3-4,1.2-5.7-0.7
			C381.6,501.4,381.6,501.4,380.3,498.5z"/>
		<path class="st4" d="M380.3,498.5c1.3,2.9,1.3,2.9-2,3c-0.6-0.1-1.2,0.1-1.6-0.5c0.2-0.7,0.4-1.3,0.6-2
			C378.3,498.7,379.2,498.1,380.3,498.5z"/>
		<path class="st1" d="M379.3,490.3c0.8,1.8-0.6,3.8,0.5,5.6c-1.9-0.3-2.1-1.2-1.4-2.9C378.8,492.2,378.6,491.1,379.3,490.3z"/>
		<path class="st1" d="M377.4,499c-0.2,0.7-0.4,1.3-0.6,2C375.2,499.7,375.9,499.2,377.4,499z"/>
		<path class="st1" d="M428.8,443.9c-0.8-0.7-0.2-0.9,0.4-1C429.3,443.3,429.2,443.7,428.8,443.9z"/>
		<path class="st3" d="M404.5,395c-1.7-1-1.2-2.9-1.2-4.2c0-2-1-1.6-1.8-1c-4.4,3.2-8.2,6.8-9.8,12.3c-0.3,1.1-0.4,2.5-1.8,3.1
			c0-3.4,2.3-6,3.4-9c1-2.6,3.4-4.3,4.3-6.9c2.7-2.3,6.2-2.1,9.4-2.8c-0.3,2.7-2.6,4.9-1.9,7.8C405.1,394.4,404.7,394.7,404.5,395z"
			/>
		<path class="st3" d="M396.4,437.8c0.5,1.1-1.8,1.9-0.4,3.1c0,0.2,0,0.5,0,0.7c-0.2,1.1,0.2,3-1,2.9c-1.4-0.1-1-1.9-1-3.1
			c-2.1-2.4-1.6-5.4-1.6-8.2c0-0.8,0.3-1.5-0.6-1.9c0.1-0.2,0.2-0.3,0.3-0.5c0.6-0.4,0.4-1,0.4-1.6c0.2-0.1,0.3-0.3,0.5-0.4
			c1.7,2.4,2.6,4.8,0.8,7.6c-0.4,0.6-0.6,1.5-0.1,1.9C394.5,439,395.4,437.9,396.4,437.8z"/>
		<path class="st0" d="M392.9,428.8c-0.2,0.1-0.3,0.3-0.5,0.4c-2.1,0.8-1.4-1.3-2.1-2c0-0.7,0.1-1.3,0-2c-0.1-1.3,0.5-1.4,1.6-1
			c0.2,0.5,0.5,1,0.7,1.6c0.1,0.4,0.1,0.9,0.8,0.8c0.1,0.4,0.2,0.5,0.5,0.2C392.2,426.6,393.4,428.1,392.9,428.8z"/>
		<path class="st3" d="M389.9,407c0,0.4,0,0.8-0.4,1C388.6,407.3,389.2,407.2,389.9,407z"/>
		<path class="st1" d="M434.3,379.3c0.8-0.2,1.7-0.4,2.5-0.5c1.7,1.5,0.1,1.9-0.9,2.4c-0.2,0-0.3,0.1-0.5,0c-1-0.1-2.5,0.5-2.9-0.7
			C432,379,434.5,380.8,434.3,379.3z"/>
		<path class="st3" d="M431.3,387.3c-0.1-0.3-0.2-0.6-0.3-0.9c0.2-0.2,0.3-0.4,0.5-0.6c0.5,0,1.1,0.1,1.6,0.1
			C433.4,387.6,432.1,387.2,431.3,387.3z"/>
		<path class="st1" d="M433,386c-0.5,0-1.1-0.1-1.6-0.1c0-0.7,0-1.4-0.1-2.1c0.9,0.1,1.2,1,1.9,1.4C433.2,385.5,433.1,385.8,433,386
			z"/>
		<path class="st1" d="M435.3,383.8c-0.3-0.6-0.7-1.3,0.4-1.6C435.8,382.9,435.9,383.4,435.3,383.8z"/>
		<path class="st1" d="M416.2,473.7c0.8-0.7,1.8-0.7,2.2,0.2c0.4,1-0.7,0.7-1.2,0.8C416.4,474.7,416.2,474.3,416.2,473.7z"/>
		<path class="st1" d="M432.3,480.7c0.3,0,0.7,0,1,0c0.1,0.9,0.7,1,1.4,1c0.6,0,1.2-0.1,1.5,0.6c1.2,2.5,2.5,4.9,4.3,7.1
			c0.4,0.4,1.1,1.1,0.4,1.7c-0.7,0.5-1.3-0.1-1.7-0.7c-1-1.3-1.5-0.5-2,0.4c-0.8-0.5-0.3-0.9,0-1.4c-0.2-2.5-1.7-3.8-3.7-3.1
			c-0.5-0.1-0.8-0.3-0.8-0.8c-0.2-0.3-0.4-0.5-0.5-0.8c0-0.1,0-0.2,0-0.3c0.1-0.8-0.4-1.1-1.1-1.2c0.4-1.5-1.1-2.4-1.1-3.8
			c0.2-0.2,0.5-0.5,0.7-0.7l0,0c0,0.4,0.1,0.8,0.5,1l0,0c0.2,0.2,0.3,0.3,0.5,0.5l0,0C432,480.4,432.1,480.6,432.3,480.7z"/>
		<path class="st2" d="M430.8,478.7c-0.2,0.2-0.5,0.5-0.7,0.7c-0.8-1.4-2-1.2-3.3-1.1c-2.3-3.2-5.7-5.2-9-7.1c-1.7-1-3-2.4-1.6-4.8
			c3.1,4.4,7.3,7,12,9C429.6,475.9,430.3,477.3,430.8,478.7z"/>
		<path class="st1" d="M424.4,479.4c0.7-0.4,1.9,0.6,2.3-0.7c1.3,0.7,1.3,2,1.7,3.2c0.2,0.5,0.7,1.1-0.2,1.5c-0.7,0.3-1.4,0-1.7-0.6
			C426.1,481.4,425.1,480.6,424.4,479.4z"/>
		<path class="st3" d="M431.2,483.2c0.7,0.1,1.2,0.4,1.1,1.2c-0.4,0-0.7-0.1-1.1-0.1C431.1,484,430.2,483.6,431.2,483.2z"/>
		<path class="st3" d="M390.5,481.8c-0.3-1.4,0.1-2.7,0.4-4.1C392.9,480.1,392.9,480.5,390.5,481.8z"/>
		<path class="st3" d="M437.3,490.8c0.5-0.9,1-1.7,2-0.4c0.4,0.5,1,1.2,1.7,0.7c0.7-0.6,0-1.3-0.4-1.7c-1.8-2.1-3.1-4.6-4.3-7.1
			c-0.3-0.7-0.9-0.6-1.5-0.6c-0.7,0-1.4-0.1-1.4-1l0,0c0.7-0.2,0.7-0.8,0.8-1.4c0.1-0.7,0.2-1.4,1.2-1.2c1.3,1.5,2.7,3.1,4.4,4.2
			c0.2,0.2,0.3,0.3,0.5,0.5s0.3,0.4,0.5,0.5s0.4,0.3,0.6,0.4c0,0.5,0,1.1,0.6,1.5c0,0.6,0.5,0.9,1,1.1c-0.4,0.8,1,1.7-0.2,2.5
			c-0.8,0.5-1.2,1.4-0.3,2c1.3,0.9,0.7-1.2,1.7-1.2c0.6,1,1.2,2,1.7,3.1c0,0.7,0,1.3,0.1,2c-0.4,0.2-0.8,0.3-1.1,0.5
			c-1.9,1.6-3.5,1.4-5-0.9c0.7-0.2,1.3-0.6,1-1.4c-0.5-1.3-1.7-0.6-2.6-0.7C437.6,492.1,437.4,491.5,437.3,490.8z"/>
		<path class="st1" d="M439.8,494.5c1.5,2.2,3,2.5,5,0.9c0.3-0.3,0.7-0.4,1.1-0.5c0.1,1.3-1.2,2.2-0.9,3.5c-1.9,0.1-3.8,0.9-5.7,0.4
			c0.5-1.4-0.6-2.7-0.4-4.1C439.1,494.6,439.5,494.5,439.8,494.5z"/>
		<path class="st3" d="M433.6,486.4c2-0.8,3.5,0.5,3.7,3.1C435.5,489.2,434.9,487.3,433.6,486.4z"/>
		<path class="st4" d="M439.8,494.5c-0.3,0-0.7,0.1-1,0.1c-0.8-0.6-0.5-1.5-0.6-2.3c0.9,0.1,2.1-0.6,2.6,0.7
			C441.1,493.9,440.5,494.3,439.8,494.5z"/>
		<path class="st3" d="M432.3,484.7c0.2,0.3,0.4,0.5,0.5,0.8C432.6,485.3,432.4,485,432.3,484.7z"/>
		<path class="st0" d="M393.9,441.4c0,1.2-0.4,3,1,3.1c1.2,0.1,0.8-1.9,1-2.9c0-0.2,0-0.5,0-0.7c2-0.1,0.7,1.3,0.7,1.9
			c0,1.4-0.3,2.8,1.8,2.6c0.5,0.2,0.7,0.6,0.5,1.1c-2.3,0.5-4.5,0-6.5-1.1C392.2,443.7,392.5,442.4,393.9,441.4z"/>
		<path class="st0" d="M435.3,478.2c-1-0.2-1.2,0.5-1.2,1.2c0,0.6,0,1.2-0.8,1.4c0-1.7,0-3.3,0-5
			C434.8,475.9,435.7,476.5,435.3,478.2z"/>
		<path class="st0" d="M427.2,468.8c-0.3,0-0.6,0-0.9,0c-0.7-0.1-1.4-0.2-2-0.2c0-0.2,0.1-0.5,0.1-0.7c1.1,0,2.2-0.1,3.3-0.1
			C428,468.3,427.7,468.6,427.2,468.8z"/>
		<path class="st1" d="M396.4,467c0.1-0.6,0.4-0.9,0.9-1C397.4,466.7,397.1,467.1,396.4,467z"/>
		<path class="st1" d="M408.1,372.2c1.1,0.2,1.2,1.2,1.6,2c0,0.3,0,0.7-0.1,1C408.4,374.6,408.1,373.5,408.1,372.2z"/>
		<path class="st3" d="M409.6,375.2c0-0.3,0-0.7,0.1-1c0.6,0.2,1.2,0.4,1.4,1.1C410.6,375.3,410.1,375.2,409.6,375.2z"/>
		<path class="st0" d="M404.5,395c0.2-0.3,0.6-0.6,0.6-0.8c-0.7-2.9,1.6-5.1,1.9-7.8c0.2-0.2,0.4-0.3,0.6-0.5c0,0.7,0.1,1.3,0.1,2
			c-0.6,2.1-1.2,4.1-1.6,6.2c-0.2,0.8-0.2,1.8,0.3,2.6c0.9,1.5,0.7,3-0.2,4.4c-0.3-0.2-0.6-0.5-1-0.7c0-0.3-0.1-0.7-0.1-1
			c-0.2-1.2-0.4-2.4-0.6-3.5C404.5,395.6,404.5,395.3,404.5,395z"/>
		<path class="st2" d="M393.4,451.1c0.5-0.5,0.5-1.7,1.9-1.3c-0.6,0.7-1,1.4-1.8,1.8C393.4,451.4,393.4,451.2,393.4,451.1z"/>
		<path class="st2" d="M393.4,452c-0.4,0.7-0.1,2.1-1.7,1.7C391.8,452.6,392.3,452,393.4,452z"/>
		<path class="st5" d="M415.2,450.4c0.4,3.8-0.1,7.7,0,11.5c0,1.4-0.1,2.8-0.5,4.2c-0.3,0-0.7,0-1-0.1c-1.2-2.4-0.5-4.9-0.7-7.4
			c-0.3-3.2-0.9-6.4,0.1-9.6c0.3-1,0.4-2,1.6-2.2C415.6,447.9,414.9,449.3,415.2,450.4z"/>
		<path class="st1" d="M415.2,450.4c-0.3-1.2,0.5-2.5-0.5-3.6c1.4-0.9,2.2-0.3,1.8,1.2C416.3,448.9,416.7,450.3,415.2,450.4z"/>
		<path class="st1" d="M420.7,456.4c-0.1,0.7-0.2,1.4-1.1,1.3c-0.2,0-0.4-0.5-0.4-0.8C419.4,455.7,420.3,456.7,420.7,456.4
			C420.8,456.5,420.7,456.4,420.7,456.4z"/>
		<path class="st2" d="M424.3,468.6c0.7,0.1,1.4,0.2,2,0.2C425.5,470,424.8,470.1,424.3,468.6z"/>
		<path class="st4" d="M413.7,466.1c0.3,0,0.7,0,1,0.1c-0.1,0.4-0.1,0.9-0.7,0.7C413.8,466.8,413.8,466.4,413.7,466.1z"/>
		<path class="st2" d="M431.3,479.7c-0.4-0.2-0.5-0.6-0.5-1C431.3,478.9,431.4,479.3,431.3,479.7z"/>
		<path class="st2" d="M432.3,480.7c-0.2-0.2-0.3-0.3-0.5-0.5C432,480.4,432.1,480.6,432.3,480.7z"/>
		<path class="st2" d="M431.8,480.2c-0.2-0.2-0.3-0.3-0.5-0.5C431.6,479.7,431.8,479.9,431.8,480.2z"/>
		<path class="st5" d="M391.7,419.7c0.3,0.5,0.5,0.9,0.8,1.4c-0.4,0.5,0.6,1.9-1,1.7c-1-0.1-1.6-0.7-1.6-1.8
			C389.9,419.6,390.8,419.7,391.7,419.7z"/>
		<path class="st1" d="M408.4,405.4c0,0.4-0.1,0.9-0.1,1.3C407.5,406.2,407.3,405.8,408.4,405.4z"/>
		<path class="st4" d="M424.3,384.4c0.3,0,0.6,0,0.9,0c0.6,0,1.3-0.4,1.5,0.5c-0.6,0-1,0.3-1.1,0.9c-0.5,0.4-0.6,0.9-0.6,1.5
			c-0.7,0-1.2,0.4-1.7,0.7c-1,0.3-1.7,0.7-1.6,1.9c-0.8,0-1.6,0-2.4,0c0-0.1-0.1-0.3-0.1-0.4c0.4-0.3,0.7-0.5,1.2-0.8
			c-0.7-0.4-1.4-0.7-2.2-0.7c-1.5-1.6-1-3.3-0.4-5.1c0.6-0.3,1-0.7,1.1-1.4l0.1-0.1c2,0.5,2.3-2.1,4-2.2c1.4,0.3-0.3,1.8,0.9,2.2
			c0.3,0.8-2.4,1.5-0.2,2.4C423.8,384,424.1,384.2,424.3,384.4z M422.5,386c-0.4-1.2-1.1-2.2-2.4-2.5c-0.6-0.1-1.4,0.6-1.2,0.9
			c0.7,1,0.7,2.7,2.2,3C421.8,387.6,422.4,386.9,422.5,386z"/>
		<path class="st2" d="M421.2,373.7c3.4-1.6,5.3-4,5.1-8c-0.1-2.9-2-4.6-4.2-6.1c1.8-0.5,2.9,0.5,3.8,1.9c1.3,2.1,1.8,4.2,1.8,6.6
			c0,0.2-0.1,0.3-0.1,0.4c-1.1,0.3-1.6,1.5-1.6,2.3c0.1,2.1-1.4,2.7-2.8,3.4C422.3,374.6,421.4,375.3,421.2,373.7z"/>
		<path class="st0" d="M423.7,381.4c-1.2-0.4,0.5-1.9-0.9-2.2c-0.4-1,0.5-2.1-0.1-3.1c1.5,0.1,3.2-1.1,4.4,0.8
			C427.9,379.9,425.9,380.7,423.7,381.4z"/>
		<path class="st4" d="M427.1,376.9c-1.2-1.9-2.9-0.7-4.4-0.8c0.2-0.3,0.3-0.6,0.5-0.8c2.3-1.1,4.6-2.3,7.3-1.1
			c0.4,0.2,0.9,0,0.7,0.6c-0.1,0.2-0.6,0.5-0.7,0.5C428.7,374.7,428.1,376.1,427.1,376.9z"/>
		<path class="st2" d="M418.7,381.5c-0.1-0.1-0.1-0.2-0.2-0.3C418.6,381.3,418.7,381.3,418.7,381.5
			C418.8,381.4,418.7,381.5,418.7,381.5z"/>
		<path class="st0" d="M426.7,384.9c-0.3-0.9-1-0.5-1.5-0.5c1.6-2.8,3.4-3.5,5-2c0.2,0.2,0.7,0.6,0.1,1c-0.8,0.1-2.2-0.9-2.3,0.8
			c-0.1,0.7,0.1,1.7,1.1,1.6c1.7-0.1,1.1-1.5,1.2-2.5c0.8-0.6,0.7,0.3,1.1,0.5c0,0.7,0,1.4,0.1,2.1c-0.2,0.2-0.3,0.4-0.5,0.6
			C428.9,387.7,427.7,386.7,426.7,384.9z"/>
		<path class="st3" d="M421.7,389.9c-0.1-1.2,0.6-1.6,1.6-1.9c-0.3,0.8,1.3,1,0.5,1.8C423.2,390.5,422.4,390.4,421.7,389.9z"/>
		<path class="st2" d="M425,387.3c0.1-0.6,0.2-1.1,0.6-1.5c1.2,0.5,1.2,1.5,1.1,2.6c-0.2,0-0.4,0-0.6,0
			C425.5,388.2,425.2,387.8,425,387.3z"/>
		<path class="st3" d="M426.1,388.3c0.2,0,0.4,0,0.6,0C426.6,388.8,426.3,388.6,426.1,388.3z"/>
		<path class="st0" d="M415.4,376.5c0.9-0.2,1.7-1.4,2.7-0.2c-0.5,0.5-1,1.1-1.6,1.5c-0.4,0.3-0.9,0.5-1.3,0.1
			C414.8,377.4,415.3,376.9,415.4,376.5z"/>
		<path class="st3" d="M418.1,388c0.8,0,1.5,0.3,2.2,0.7c-0.4,0.3-0.8,0.6-1.2,0.8C418.1,389.4,418.1,388.6,418.1,388z"/>
		<path class="st3" d="M393.4,426.5c-0.7,0.2-0.7-0.4-0.8-0.8C392.9,426,393.2,426.3,393.4,426.5z"/>
		<path class="st5" d="M427.6,368.6c0.1-0.1,0.1-0.3,0.1-0.4c1,0.2,1.4-1.4,2.5-0.9c0,0.8,0,1.7,0,2.5c0,0.2,0,0.5,0.1,0.7
			c-0.8,0.1-1.7,0.1-2.5,0.2C427.7,370,427.6,369.3,427.6,368.6z"/>
		<path class="st0" d="M427.8,370.7c0.8-0.1,1.7-0.1,2.5-0.2c0.6,0.4,1.3,0.7,2,1.1c-1.3,2-2.9,0-4.3,0.4
			C427.6,372.1,427.1,371.3,427.8,370.7z"/>
		<path class="st1" d="M411.6,362.7c-0.6-0.1-0.9-0.4-0.5-1c0.8-1.2,1.5-2.5,3-3.1C414.3,360.7,412.1,361.2,411.6,362.7z"/>
		<path class="st1" d="M430.2,369.8c0-0.8,0-1.7,0-2.5c0.1-0.4,0.2-1.2,0.5-1.3c0.7-0.2,0.6,0.6,0.8,1
			C432,368.3,431.7,369.4,430.2,369.8z"/>
		<path class="st1" d="M433.8,377.7c0.2,0.5,0.4,1,0.5,1.6c-0.4,0-0.8,0-1-0.5C433.2,378.4,433.2,377.9,433.8,377.7z"/>
		<path class="st1" d="M413.4,363.3c-0.1,0.5-0.1,1.2-0.7,1.4c-0.1-0.5-0.1-1-0.2-1.5C412.8,362.8,413.1,362.9,413.4,363.3z"/>
		<path class="st1" d="M424.3,384.4c-0.3-0.2-0.5-0.4-0.8-0.5C423.8,384,424.1,384.2,424.3,384.4z"/>
		<path class="st0" d="M422.5,386c-0.1,0.9-0.7,1.6-1.4,1.5c-1.5-0.3-1.5-2-2.2-3c-0.2-0.4,0.5-1.1,1.2-0.9
			C421.4,383.8,422.1,384.8,422.5,386z"/>
		<path class="st1" d="M430.3,383.3c0,1,0.6,2.4-1.2,2.5c-1,0.1-1.2-0.9-1.1-1.6C428.2,382.4,429.5,383.5,430.3,383.3L430.3,383.3z"
			/>
	</g>
	<g>
		<path class="st6" d="M164.1,217.5c0-2-2.3-0.5-2.9-1.7c-0.5-0.1-0.8-0.1-1.1-0.2c-0.8-2-3.2-1.6-5.3-3.4c1.9,1.5,2.9,1,3.7,0
			c-0.1-1.1-2.5-1.1-0.6-3.2c2.2-2.4,0.7-5.6-1.6-7.6c-2-1.9-4-4.7-7.6-2.7c-0.9,0.4-2.7,1.7-1.7-1.2c0.4-1.4-0.8-2.2-1.6-3.2
			c-0.8-1-1.4-1.8-0.7-3c1.3-1.9,0.3-3.5-0.5-5.1c-2.9-5.6-9.3-7.1-13.1-11.5c-0.1-0.2-0.4-0.2-0.6-0.3c0.3-1.7,2.5-2.1,2.2-4.2
			c-0.6-4.1-4.7-7.6-9.2-7.3c-1.1,0.1-1.2-0.2-1-1c0.7-3.2-0.8-5-3.8-5.6c-1.2-0.2-0.9-1-1-1.5c-0.1-0.3,0.3-0.3,0.6-0.4
			c1.6-0.5,1.6-0.6,1.5-1.6c-0.4-4.9-4.1-8.8-9-9.5c-0.3,0-1.1,0.8-1-0.4c0.2-2.6-0.6-3.9-3.1-5.3c-1.9,1.5-4,2.8-6.2,3.8
			c0.6,2.7,3.4,3.8,5.4,5.4c0.1,0.1,0.1,0.1,0.2,0.2c0,0-0.1,0-0.1-0.1c-1.3,0-2,0.4-2,1.9c0.1,4.2,1.8,7.6,5.5,9.5
			c1.8,0.8,3.4,2.6,5.7,2c0.6,3.3,1.2,6.7,1.8,10.1c0,0.2,0.5,0.3,0.6,0.5c0.6,0.8,1.2,1.6,1.4,2.4c0.6,2.6,1.8,4,4.6,5.1
			c2.4,0.9,6.3,2.8,5.6,5.8c-0.9,3.4,0.1,5.6,1.8,8c1.1-1.1,0.7-2.1,0-3.2c-0.2-0.3-0.3-0.5-0.1-0.6c0.1,0.4,0.4,0.5,0.8,0.5
			c1.9-1.8,5.3-1.2,6.4-4.2c3.7,4,3.7,4.2,0.1,7.4c-0.7,0.6-1.2,1.3-0.4,2.4c0.2,0.5,0.3,1.2,0.7,1.5c2.8,2,5.1,4,2.9,7.8
			c-0.4,0.6,0.1,1.4,0.8,1.7c1.6,0.7,1.8,2.2,2.1,3.7c0.8,4,3,5.6,7.2,5.4c2.6-0.1,4.9,2.3,4.6,5c0.9,2.4,0.4,5.4,3.1,7.1
			c2.1-0.2,1-3.1,2.4-3.3C165.8,222.7,164.1,219.8,164.1,217.5z M113.2,153.9c-1.7,0.7-2.5-0.3-3.6-1.7c-1.1-1.4-1.4-3.4-2.7-4.6
			c0.2,0.2,0.5,0.3,0.6,0.5c2.3,3.1,2.3,3.1,4.6,0.1c0.1-0.1-0.2-0.8,0.3-0.3c1.1,1.1,3.2,1.3,3.3,3
			C115.9,152.4,114.4,153.4,113.2,153.9z M118.3,162.2c-0.7-0.7-1.5-1-2.3-1.4c1,0.1,2.2-0.5,2.5,1
			C118.4,162,118.4,162.1,118.3,162.2z"/>
		<path class="st7" d="M371,355.6c0.1,0.6-0.1,1.5,0.2,2c2.7,4.8,2.2,5.7-3.1,6.9c-4.9,1.1-9.2-1-11.5-5.1c-1.4-2.7-3.5-3.3-6.2-1.9
			c-6.3,3.3-12,1.8-16-4.2c-1.5-2.2-3-3.3-6.2-2.1c-6.2,2.4-10.1,1.2-14.6-4.6c-1.8-2.3-5.9-1.8-6.1-6.7c-1.5,5.2-4,3.6-6.4,2.5
			c0.3-1.4,2.3-0.6,2.4-2.2c-1.7-1.2-2.5-2.4-1.1-4.4c0.5-0.7,1.3-1.7,0.1-2.4c-1.3-1-1.9,0.2-2.7,1c-1,1-2,1.8-2.8,3
			c-1.1,1.3-0.2,1.9,0.8,2.5c0.8,0.6,2.5,0.6,2.3,2.3c-2.3,0.8-4.5-0.3-5.5-1.9c-2.4-3.4-5.9-5.4-8.7-8.4c-1.5-1.6-0.7,0.4-1,0.6
			c-1.1,1.5-1.4,0.8-1.6-0.4c-0.2-0.7-1-1.2-1.2-1.9c-0.5-3.1,1.4-5.5,2-8.3c1.4-0.2,2.4,0,2.5,1.7c0,1.1,0.3,2.1,1.4,2.2
			c4.6,0.4,8.4,3.5,13.4,3.3c2.7-0.1,5.9,1.5,8.1,5.2c1.4,2.4,6.2,3.4,9.9,2.9c0.2,1.2-1.7,2.7,0.4,3.6c1.4,1.4,0.6,2.5-0.4,3.5
			c-0.6,0.5-1.5,1.2-0.6,2c1,1.1,2.2,1.7,3.7,1.7c1,0,1.6-0.5,1.7-1.5c0.2-2.1,1.2-4.1,1.2-6.4c1.8-1,2.8,2.2,4.7,1.1
			c2.1,0.7,0.8,3.1,2,4.4c0.2,2,2.5,1.1,3.3,2.3c0.8,0.4,1.6,1,2.5,1.5c0.7-1.5-3.4-2.2-0.7-3.9c0.6,0.8,2-0.3,2.4,1.1
			c1.2,1.7,3.2,3.5-0.3,5c-0.7,0.3-1.2,0.7-0.4,1.5c1.6,1.9,3.5,3.2,6.1,3c0.8-0.1,2-0.4,2.3-1.5c0.3-1.2-0.7-1.3-1.5-1.5
			c-0.7-0.3-1.2-1-0.4-1.5c0.7-0.5,1.6-1.6,2.8-0.2c2,2.3,4.4,4,7.6,4c0.1-1.2-0.5-1.2-1-1.3c-1.2-0.2-2.5-0.1-3.3-1.4
			c-0.3-0.6,0.1-1.3,0.6-1.3c1.5-0.2,3-0.4,4.4,0.5c1.2,0.8,1,3.4,3.4,2.7c0.8,0,1.4-1,2.2-1c3,2.1,1.1,3.5-0.8,4.9
			c3.7,2.5,3.7,2.5,5.2-1.1c0.6-1.6,2.1-2,3.7-2.2C370.5,355.4,370.8,355.5,371,355.6z"/>
		<path class="st8" d="M698.2,189.7c0-0.2,0.1-0.4,0-0.6c0-0.2,0.1-0.4,0.1-0.6c0.8-1.5,2-2.9,3.8-2.1c2,0.7,1.6,2.4,1.1,4.1
			c-0.2,1.5,1.7,1.1,1.9,2.2c-0.8,1.5-2.2,1-3.4,0.8c-3.5-0.2-4.2,1.7-3.6,4.7c1.6,6.9-2.7,12.5-9.9,13c-1.2,0.1-2.3,0.2-3.6,0.4
			c-3.1,0.6-1.6,2-0.8,3.4c-1.6,1.9-3.6,2.9-6.2,2.2c-2.5-1.9-4.1-0.6-5.1,1.8c-0.4,1-1,2,1.2,2.2c2.5,0.2,2.7,2,1.6,4
			c-0.6,1.4-2,1.6-3.2,2.3c-1.2,2.5-1.9,4.9-1.6,8c0.6,6.4-6.3,10.8-13.2,9.1c-1.2-1.7-3.2-1.4-4.8-2.1c0.6-0.8,1.4-1.7,2-2.4
			c3.7-1.6,4.5-1.2,4.7,2.4c1.2,0.1,1.7-1,2.7-1.4c1.5-0.7,3.3-1.5,3.3-3.4c0-2.1-2.3-2.5-3.5-3.7c-1.4-1.4-2.7,0.3-3.1,1.6
			c-0.6,2.2-2.2,3.4-3.9,4.6c-2.3,0-1.9-1.6-1.6-2.9c0.8-4.1,4-7.3,8.5-7.3c3.9,0.1,4.9-3.1,7.1-4.8c0.2-0.2,0.7-0.4,0.1-1
			c-3.6-2.9-0.8-5.5,0.6-7.9c1.9-3.1,4.9-4.9,8.7-4.8c4.6,0.1,5.4-1.1,3.8-5c-2-5.1,2.5-11.5,8-11.2c1.2,0.1,2.2,0.2,3.2-0.6
			c1.6,0.1,2.8-0.6,3-2.1C696.3,191.2,697.3,190.7,698.2,189.7z"/>
		<path class="st9" d="M722.7,160.5c0.5-1.3,1.3-2.8,2.4-3.5c-0.4-0.5-0.8-1.1-1.1-1.6c-0.5-0.7-0.9-1.5-1.3-2.3
			c-0.6-0.3-1.2-0.6-1.7-1c0.4,0.5,0.8,1,1.3,1.5c0.3,0.5,0.8,0.8,0.2,1.3c-2.2,1.6-2.8,4.7-6.6,4.9c-5.8,0.3-9.3,6.5-6.9,11
			c1.1,2.3-0.7,6.5-3.1,6.2c-5.4-0.6-7.5,3.4-10.2,6.6c-2.2,2.5-1,4.6,2.5,5.3c1.1-1.6,1.6-3.4,2.2-5.3c0.5-1.2,1.5-2.8,2.7-1.8
			c1.5,1.2,4,1.4,4.4,3.3c0.3,1.7-1.6,2.7-2.9,3.8c-0.5,0.6-1.3,1.1-1.9,1.6c-0.6,0.3-1.4,0.6-1.2,1.4c0.1,0.2,0.9,0.3,1.4,0.4
			c0.7,0.1,1.6,0.2,2.4,0.2c6.1-2.9,8.6-7.6,6.6-12.3c-1.4-3.3-0.6-4.5,3.2-4.6c2.1,0,4-0.5,5.7-1.8C725,170.4,728,163,722.7,160.5z
			 M720.9,161.7c0.3-0.5,0.9-0.6,1.4-0.9C722,161.2,721.6,161.7,720.9,161.7z"/>
		<path class="st10" d="M568.3,314.6c2.1-1.5,0.8-4.1,2.5-6.1c2-2.2,3.8-4.1,7.2-3.5c3.8,0.6,6.7-1.9,9.8-3.8
			c0.6-0.4,0.3-0.6,0.3-1.1c0.1-4.2,2.7-6.6,6.4-8.1c0.1,0.2,0.1,0.5,0.1,0.7c0,0.6-1.7,1.5,0.1,2c0.2,1.6-2.9,3.9,1.3,4.7
			c1.1,0.2,0,1.8,0.8,2.7c2.1-1.2,3.8-2.1,1.6-4.9c-0.8-1-0.8-2.7-0.3-4c1.3-0.8-1.4-1.3-0.3-2.1c4.6-0.4,7.2-2.5,8.2-7.4
			c1-5,5.1-7,9.9-5.8c0,1.4-1.2,1.8-2,2.3c-2,1.5-3.9,2.7-1,5.3c1.3,1.2,0.4,3.4,0.2,5.1c-0.5,0.6-1.2,1.2-2.1,0.7
			c-1.7,1.8-4.1,2.9-4.7,5.6c-1,5.3-5.9,9.6-11.5,9.3c-3.4-0.1-5.1,1.7-6.3,4.5c-1.5,3.5-2.9,7-7.4,7.5c-0.1-0.1-0.2-0.3-0.3-0.4
			c-1.1-0.8,2.1-0.7,0.4-1.8c0.8-3.1-0.7-5.4-2.5-8c-2.1,1.1-3.8,3.2-5.8,5C571.9,315.4,570.7,316.8,568.3,314.6z"/>
		<path class="st7" d="M405.8,364.5c0.2-2.8,1.3-5.4,1.8-8.1c0.1-0.3,0.2-0.6,0.3-0.9c-2.4,0.3-4.6,1.3-5.9,2.9
			c-0.4,0.5-0.7,1-0.7,1.8c0.1,2-0.5,2-5.1,2c-2.9-0.1-0.6-1.8-1.1-2.5c-0.6-1.3-1.5-2-3.1-1.4c-1.2,1.2-3.4,2.1-3.1,4
			c0.6,4.1-1.8,2-3.1,1.7c-1.6-0.4-2.3-1.8-2.4-3.4c-0.4-2-1.4-3.7-3.4-4.7c-0.6,3.1-3.8,2.1-5.9,3.2c1.3,1.5,2.9,0.8,4.5,1.5
			c-1.2,0.1-2,0.2-3.3,0.4c1.8,1.3,2.8,2.5,4,3.8c5.1,5.9,13.7,5.5,16.7,0c0.5-1.1,0.4-1.5,1.6-1.2s3.5-1,3.5,0.8
			c-0.1,4.1,2.8,4.8,5.5,5.5c0.1,0,0.2,0.1,0.4,0.1C406.1,368.4,405.7,366.5,405.8,364.5z"/>
		<path class="st7" d="M436.6,368.5c-1.2-0.4-2.1-1.2-3.3-1.7c-1.9-0.5-3.8-0.8-3.6-3.6c0.1-1.5-1.1-2.2-2.3-2.7
			c-1-0.3-1.5,0.2-1.8,1c-0.6,0.3-1.2,0.5-1.8,0.8c-1.8,0.5-3.5,0.1-5.3,0c-0.5,0.2-1.2,0.7-1.5,0.6c-1.4-0.6-0.3-1.5,0.2-1.8
			c1.3-0.9,1.5-1.5,0.8-2.5c-0.9,0.6-1.9,1-3,1.2c-0.7,2.4-2.1,5.3-0.3,7.1c0.8,0.8,1.2,1.8,1.1,2.7c1.9-1,3.9-2.5,2.5-6.1
			c2.1,1.7,4.3,1.4,5.7,3.3c3.1,4.1,8.3,4.9,13.2,2.4C437.1,368.9,436.9,368.7,436.6,368.5z"/>
		<path class="st11" d="M524.1,349.8c-2.3,3.2-5.6,2.1-8.3,1.3c-2.3-0.7-4.1-1.8-6.4,0c-0.6,0.5-2,0.1-3.2,0.1
			c0.4-2.8,3.3-2.1,4.7-3.5c-1.6-0.5-2.9,1.2-4.5,0.5l-0.1-0.1c3.9-2.8,5.6-7.8,9.9-10.2c3-1.7,6.7-2.7,9.5-0.7
			c2.5,1.8,4.4,1.4,6.9,0.2c-3.2-2.9-1.2-5.3,0.8-7.4c3.7-3.7,8.5-4.1,13.5-1.5c0.5,0.3,1.4,0.2,2,0.3c0.6,0.5-1,1.3,0.1,1.8
			c0.2,2.9,1.4,5.9-2.4,7.5c-0.7-0.2-1.3-0.7-1.8-1.3c-1.4-1.2-3.5-1.6-3.7-3.6c-0.4-3.8-2.3-2.1-3.8-1c-1.2,1-1.9,2.3-2.3,3.8
			c-0.4,0.4,0.5,0.6,0.1,0.3c-0.1-0.1-0.1-0.2,0.1-0.3c1.1-1.6,2.8-1.9,3.8-0.5c1.4,1.7-0.2,3-1.3,4.2c-0.2,0.2-0.5,0.1-0.6,0.2
			c-0.2,0.1,0.1,0.1,0.4,0.2c0.7,0.1,1.2,0.4,0.7,1.3c-1.2,0.8-2.4,0.5-3.5-0.2c-3.7-2.5-4.6,0.1-5.3,2.9c-0.5,2-1.3,4-2.9,5.5
			c-0.7,0.7-1.5,0.5-1.5-0.7c-0.6-1,0.1-1.9,0-2.8c-0.1-0.5,1.6-2.7-1.1-1.3c-0.7,0.4-1.7-0.6-2-1.7c-0.3-0.8,0.6-2.7-1.4-2.3
			c-1.2,0.2-2.7,0.3-3.3,1.5c-0.7,1.2,0.5,1.9,1.2,2.8c1.1,1.6,1.4,3.9,4.4,3C523.7,347.7,523.7,349.1,524.1,349.8z"/>
		<path class="st12" d="M235.4,289.5c1.5,2.9,3.3,4.9,7,3.7c1.2-0.4,1.8,0.4,2.2,1.3c-1.2,3-2.7,5.6-4.6,8.2
			c-1.1,1.6,1.3,2.9,0.4,4.5c-3.2-2-5.8-3.9-5.5-8.6c0.2-3.4-3.3-3.2-5.5-3.1c-6.9,0.5-12.1-4.1-11.9-10.9c0.1-3-2.4-4.8-6.5-3.9
			c-2.4,0.5-3.7-0.1-4.8-2c1.7-1.2,3.5,0.1,5.3-0.1c0.5-0.1,0.8-0.3,0.3-0.2c-0.1-0.3-0.2-0.5-0.4-0.7c-0.7-1.4-1.4-2.8-0.2-4.1
			c1.6-1.8,3.2-0.1,4.9,0.1c1.1,0.3,1.9,0.8,2.5,1.7c-0.3,3.5,2.5,3.6,4.7,4.2c1.5,0.4,3.3-0.5,4.8,0.6c-1,1.5-2.5,0.1-3.6,0.8
			c1,0,2.2-0.8,2.9,0.6c-0.6,2.8-2.1,4.8-4.7,5.9c-0.1,0.8-2.8,0.5-1.2,2.1c1.5,1.6,2.7,4.2,5.5,2.3c-0.3-4.6,0.3-5.2,5.1-4.9
			C233.2,287.9,234.4,288.5,235.4,289.5z"/>
		<path class="st13" d="M472.4,363.8c-3.2-1.2-6.4-3.7-9,1c-0.6,1.1-2.1,1.7-3.2,2.5c-3.4,2.8-11.3,1.9-13.6-1.5
			c-1.4-2-3.9-1.9-5.2,0.4c-1,1.7-2,2.9-4,2.9c-0.1-0.1-0.2-0.2-0.3-0.3c-0.1-1,0.6-1.5,1.2-2c1.4-1.5,0-1.4-0.8-1.7
			c-3.2-2.7-3.2-3.2-0.3-6.4c1.2-0.2,2.1,0.1,2.8,1.2c-0.5,0.7-1.1,1.6-1.6,2.3c2.7-2.4,5.5-2.8,8.9-1.3c-2.1-3.4,0.4-4.2,2.5-5.3
			c1.3,0.7,2.8-0.5,4,0.5c0.4,1.8-1.5,3.6,0.4,5.4c1.1,1.1-1.1,1.9-1.3,3c4.2,1.1,4.5,1,3.9-2.8c2.7-1,3-4.4,5.5-5.3
			c3.1,2.9,4.9,1,6.5-1.6c1.2,0.3,2.3-0.5,3.4,0c0.2,1.9,4.5,2.5,1.4,5.8c-1.3,1.4,2.9,1,3.7,2.5c0.1,1.5-1,0.7-1.5,0.7
			C474.6,363.9,473.5,363,472.4,363.8z"/>
		<path class="st14" d="M170.9,227.6c0.4,2.3,3.8,2.8,3.3,5.7c-0.1,0.6,1.1,0,1.7-0.1c6.4-1.2,11.5,3.7,10.5,10.3
			c-0.5,3.2,2.8,3.8,3.8,5.8c0.8,1.1,1.9,0.2,3,0.4c0.7,0.1,1.7,0,1.3,1.3c-0.5,1.1-4,0-2.1,3c0,0.1-0.6,0.8-1.2,1.1
			c-0.7,0.3-1.2,0.1-1.4-0.8c-0.3-1.9-1.8-2.2-3.4-2.9c-2.8-1.2-3.3-4.1-3.1-6.9c0.5-6.5-0.7-8.2-6.5-8.3c0.4,1.4,2.2,3-0.3,3.8
			c-2.1,0.6-2.1-1-2.3-2.4c-0.1-1-0.2-1.9-1.9-2.1c0.6,2,1.1,4,1.6,5.9c0.6,2.3,2,4.6,5.1,4.7c1.2,0,1.8,1.2,1.7,2
			c-0.2,1.4-1.5,0.7-2.3,0.6c-5.6-1.1-9.7-7.3-8.2-12.5c1-3.6-2.3-3.5-4.2-4.6c-0.6-0.5-1.1-1.1-1.2-1.9c-0.1-3,2-3,4-3
			C169.5,226.7,170.2,226.8,170.9,227.6z"/>
		<path class="st15" d="M611,291.3c0.5-0.3,1.2-0.6,1.7-1c1.8-0.6,3-2,4-3.5c0.7-1.1,1.5-1.9-0.6-3c-2.8-1.4-1.1-4-0.3-6.2
			c3.6-1.9,6.5-3.9,6.5-8.8c0-2.4,2.5-4.8,5.5-5.5c1.3,1.5-1.2,2.3-0.6,3.7c0.8,1.6-1.1,2.8-0.7,4.2c1.1,1,1.2,2,0.4,3.2
			c-3,5.3-3.2,12.2-8.9,16.1C615.6,292.3,613.5,293.5,611,291.3z"/>
		<path class="st11" d="M494,352.2c-1.5,0.1-3.4,0.2-4-1.1c-0.6-1.5,1.1-3.1,2-3.7c1.7-1.3,3.5-4,6.3-1.6c0.6,0.5,1.3,0.3,1.9-0.1
			c3-1.8,5.2-1.2,6.4,2.2l0.1,0.1c-0.3,1.7-4.5,3.3,0,5.1c0.7,0.3,0.8,1.8-0.1,2.9c-3.4,3.7-10.3,4.4-14.4,1c-1.2-1-2.2-1-3.5-0.5
			c-2,0.5-3.5-0.1-4.7-1.7l-0.1,0.1c1.6-0.3,3.4-0.3,4.9-1c2.4-1.2,4-0.8,4.9,3.2C493.9,354.5,493.9,353.3,494,352.2
			c3.7-1,3.8-0.8,3.4,3.5c1.6,0.3,3.3,0.1,3.7-1.6c0.4-1.7-1.5-3.4-0.8-5.3c-1.5-0.2-3.1-0.2-4.4,0.7
			C495,350.3,494.8,351.6,494,352.2z"/>
		<path class="st16" d="M626.8,274.6c-0.3-1.2,0-2.9-2-2.9c1.3-1.5,2.8-2.3,4.7-1.5c1.5,0.6,0.6,1.8,0.5,2.8c3.2-0.7,3.9-4.8,6.6-5
			c-0.7,0.4-2.5,0.6-3.4-0.3c-2.2-2.7-4.6-1.4-6.9-0.7c-1.3-1.9,1.3-2.3,1.4-3.6c1.1-0.5,2.2-1.2,3.3-1.7c0.4-0.1,1-0.3,1.2-0.1
			c4.2,3.8,5.8-0.5,8.3-2.5c-1.2,0.5-1.8,2.4-3.6,1.2c-0.1-1.3,0.1-2.4,1.2-3.3c0.8-1.5,2.3-2,3.9-2.5c1.9-0.2,3.8-0.3,4.6,2.1
			s1.8,0.1,2.7,0.1c0.8-0.4,1.5-1.2,2.4-1.4c1.4-0.3,2.2-0.1,1.4,1.6c-1.4,2.4-3.6,4.1-6.4,4.1c-5,0-6.3,3-6.7,7
			c-0.4,3.7-7.1,9-10.9,9C627.2,277.1,626.9,276,626.8,274.6z"/>
		<path class="st17" d="M253.8,303.7c1.5,0.2,2.5,1.2,3.3,2.3c1,1.9,3.5,3.2,2.7,5.8c-0.1,1.5,0.3,3.2-1.8,3.4
			c-0.8,0.6-0.7,1.8-1.5,2.4c-1-0.2-2.1-0.5-2.3-1.5c-1-4.4-5-5.7-7.8-8.4c0.5-1.2-0.6-1.3-1.2-1.8c0.2-2-0.3-4.1,1.5-6.1
			c1.3-1.4-2.1-2.8-1.5-4.8c2.5-1.7,4.1,0,5,1.8C251.2,299.5,252.9,301.4,253.8,303.7c-0.1,0.4-1.4,0.4-0.5,1.3
			c0.1,0.1,0.4,0.5,0.4,0.1C253.7,304.7,253.4,304.1,253.8,303.7z"/>
		<path class="st18" d="M256.4,317.8c-0.1-1.4-0.6-2.9,0.7-4c2.4,2.3,4.7,4.6,8.7,2.9c1.9-0.8,4.1-0.2,5.3,2c1,1.8,1.9,1.2,2.8,0
			c0.4-0.1,0.7,0,1.1,0.2c5.9-1.1,13.2,1.9,15.2,6.4c-1.7,1.1-1.7-1.5-3-1.4c-0.8-0.4-1.7-1-2.7-1.4c-1.5,0.1-3.3-0.7-3.6,1.9
			c-0.2,1.5-1.4,2.2-3,2.3c1,2.3,3.4,2.4,5,3.8c1.1,0.2,2.3,0.3,0.8,1.7c-6.2,0.5-6.2,0.5-10.1-9c-1.5,0.5-0.1,2-1.1,2.9
			c-0.1,0-0.5,0-0.5-0.1c-0.2-2.9-5-3-3.9-6.6c-0.6,0-1.6-0.3-2,0C262.5,322.3,259.5,320.1,256.4,317.8z"/>
		<path class="st19" d="M642.2,255c-1.4,0.6-2.8,1.3-4.1,2c-1-4.9,0.4-7.4,4.9-9.2c2.2,0,4.2-1.4,6.6-1.5c1.1,0,3-0.7,2.7-2.8
			c0.2-0.3,0.3-0.5,0.4-0.8c1.9,0,5-2.7,4.8,2.1c0.1,0.2,0.5,0.6,0.4,0.6c-2.8,3.3-1,8.6-4.9,11.5c-0.1-0.7,0.1-1.8-1.3-1
			c-0.7,0.5-1.5,1.1-2.2,1.6c-1.5-1.1,0.7-2.7-0.6-3.9C645.3,250.3,645.1,250.3,642.2,255z"/>
		<path class="st20" d="M568.3,314.6c2.9,0.4,3.3,0.2,3.3-1.9c0.5-1.7,2.2-0.6,3.2-1.4c1.3-1,2.3-0.2,3.2,0.8
			c1.1,1.3,0.4,2.3-0.4,3.3c-0.5,0.6-1.1,1.3-1.8,1.7c-0.5,0.3-1.2,0.5-1.6,0.8c-0.7,1.1-1.6,2-3.1,1.6c-2.4,0.5-4.1,1.9-4.6,4.6
			c-4.7-0.2-5.1-0.6-5.8-5.9c0.5-1.2,2-0.7,2.7-1.8C565.3,316.6,566.8,315.7,568.3,314.6z"/>
		<path class="st21" d="M524.1,349.8c-1-1.5-2-1-3.4-0.5c-1.3,0.3-3.7,0.7-2.3-2.2c0.5-1.2,0.1-1.5-1-1.6c-2.4-0.1-1.2-2-1.5-3.1
			c-0.4-1.6,1.1-1.6,1.9-1.8c1.6-0.3,2.9-1.8,4.7-1c0.7,0.3,1.9,0.3,1.1,1.5c-0.6,1-1.7,1.6-0.3,2.7c1.6,1.3,2-0.7,3.1-1
			c0.4,0,0.7-0.3,1.4-0.3c-2.9,1.4-0.5,4.7-2.5,6.3C524.8,349.2,524.4,349.5,524.1,349.8z"/>
		<path class="st22" d="M131.5,189.1c0.6-2.9,4.8-1.6,5-3.3c0.6-4.1,2.5-1.1,3.1-0.6c3.2,2.3,2.5,5.7-1.2,7.5c-1,0.4-0.6,1.4-1,2.1
			c-0.4,0-1,0-1.4,0C132.5,194.5,131.2,192.5,131.5,189.1z"/>
		<path class="st23" d="M615.8,277.7c0.5,1.5-1.1,2.9-0.1,4.5c0.3,0.5,0,1.3,1.1,1.5c2.1,0.4,2.4,0.6,1.2,2.5
			c-1.2,1.8-1.4,5.4-5.2,4c-0.8-1.9,1.1-5.1-2.5-5.9c-0.1,0-0.5-2.9,1.2-3.8C612.8,279.7,614.3,278.6,615.8,277.7
			C615.8,277.8,615.8,277.7,615.8,277.7z"/>
		<path class="st24" d="M245.3,295.3c4.9,3.6,0.8,7.2,0.1,10.8c-3.6,1.8-4.9-0.4-5.7-3.4c-0.5-1.3-2.2-2.9,1-2.9c1.3,0,1.5-1,1.6-2
			c0.2-1.6,0.5-3,2.3-3.4C244.8,294.8,245,295.1,245.3,295.3z"/>
		<path class="st25" d="M186.1,252.8c1.5,0.4,2.3,1.2,2.4,2.9c0.1,2.4,1.7,3.8,3.6,5.2c1.2,0.8,2.1,1.4,3.3,0.2c1-1,1.7-1.3,2.4,0.3
			c0.5,1.3,0.5,2.1-0.7,2.8c-1.2,0.6-2.2,0.8-3.6,0.5c-4.8-1.1-7-4.7-8.9-8.6C184.1,255,184.3,253.5,186.1,252.8z"/>
		<path class="st26" d="M218.5,275.1c-0.7-0.2-1.5-0.5-2.2-0.7c-0.6-0.5-1.1-1.3-1.4-1.9c-2.5-4.2-2.9-4.4-7.5-2.5
			c-0.6,0.2-1.3,0.2-2,0.1c-0.8-0.3-1.4-0.8-1.4-1.8c-0.1-0.7-0.1-1.5-0.2-2.1c-0.5-1.1-0.6-1.8,1-1.7c5.5-0.6,10.5-0.2,13.3,5.6
			C218.6,271.7,219.1,273.3,218.5,275.1z"/>
		<path class="st27" d="M677.2,216.6c2.5,0.6,4.5-1.3,6.8-1.6c2.9,3.8,0.3,6.7-1.9,9.2c-2.5,2.8-5.5,5.2-9.8,3.4
			c0.8-0.8,1.7-1.7,2.7-2.7c1.1-0.2,2.1-0.7,2.9-1.5c1.3-1.4,3.2-2.8-0.1-4.1C677,219.1,675.5,217.8,677.2,216.6z"/>
		<path class="st28" d="M566.5,324c0.3-1.1-2-1.8-0.6-2.8c1.5-1.1,3-3,5.3-1.6c-1,1.9-2,3.9-3,5.8c-2.7,5.4-7.1,7.1-13.1,5
			c-0.7-3.2,2.2-1.7,3.3-2.5C561.7,327.9,564.2,326,566.5,324z"/>
		<path class="st29" d="M204.4,264.4c-0.8,0.3-1,1-1,1.7c-3.7-1.2-4.8-4.4-4.5-7.4c0.4-4.1-1.5-6.2-4.8-7.5
			c-1.2-1.3-2.4-0.4-3.7-0.2c-1.7,0.2-0.5-0.8-0.4-1.5c6.5-0.4,10.6,1.7,11.7,6.1c0.3,1.3,1.3,2.7-0.5,3.9c-1,0.6-1,1.7,0.4,2.5
			C202.9,262.5,203.6,263.6,204.4,264.4z"/>
		<path class="st30" d="M395.2,359.7c-1-0.2-1.9-0.5-2.5-1.5c-1.7,0.4-2.5-1.3-4-1.7c-2.4-0.6-3.8,0.4-3.4,3
			c0.1,0.8,0.5,1.7-0.3,2.2c-1.2,0.6-1.7-0.2-2.2-1.1c0.1-2-2-3-2.4-4.8c4.8-3,10.6-2.8,14.6,0.5
			C395.9,357.2,397.1,358.3,395.2,359.7z"/>
		<path class="st31" d="M203.8,268.2c0.5,0.4,1,0.7,1.5,1.2c1.4,3.4,2.5,7.1,6.7,8.4c0.6,0.2,1.6-0.3,1.8,0.5s-0.5,1.1-1.3,1.2
			c-2.2,0.3-4.2-0.3-6.4-0.8c-3.1-2.3-3.9-5.6-3.7-9.3C202.5,268.3,203.1,268.1,203.8,268.2z"/>
		<path class="st32" d="M170.9,227.6c-0.8,0-1.6,0-2.4,0c-0.7-0.6-0.8-1.5-0.6-2.2c0.7-3.8-1.9-5.7-4.4-7.6
			c-0.1-1.6-3.6,1.9-2.4-1.6c3.9-1,7,0.5,9.5,3.5C172.4,222.1,172.6,224.8,170.9,227.6z"/>
		<path class="st33" d="M472.2,354.8c-1.2,0.7-2.3,2.5-3.4,0c3.7-4.1,10.1-5.5,14.7-3.4c2.2,1.1,0.6,2.2,0.4,3.4l0.1-0.1
			c-0.3,0.2-0.7,0.3-1.1,0.6c-1.1,0.6-1,3.5-2.5,2.3c-2.1-1.5,1.3-1.5,1.4-2.7c0-0.6,0.7-1.4-0.1-1.7c-1.7-0.7-3.5-2.1-5.3-1.2
			C474.8,352.8,473,353.1,472.2,354.8z"/>
		<path class="st34" d="M361.7,353.9c0.2,1.7-0.6,1.3-1.6,0.7c-2.2-3-1.4-4.1,2.2-4.6c5-0.5,9.2,0.1,12.4,5.4c-1.6,0-2.7,0-3.8,0
			l0,0C368.1,353.9,365.5,350.9,361.7,353.9z"/>
		<path class="st35" d="M235.4,289.5c-1.4,0-2.7,0-3.2-1.6c-0.7-2.8-3.3-4-5.1-6.1c-1-0.7-2-1.2-2.7,0.3c-0.2,0.6-0.5,1.1-1.1,0.4
			c-0.3-0.3-0.6-1-0.7-1.4c-0.2-0.7,0.2-1,0.8-1.1c1.5-0.1,3-0.1,4.6-0.2C232.7,281.4,235.6,284.2,235.4,289.5z"/>
		<path class="st19" d="M636.9,260.2c2.3,0,2.5-3.7,5.5-3.2c-0.8,4.2-4.7,5.6-7.2,8c-1.6,1.5-2.3,0-2.1-1.4c0.4-2-0.6-2-2-2
			C633.1,261.1,634.9,260.1,636.9,260.2z"/>
		<path class="st36" d="M258.8,312c1.5-2.5-2-3.7-1.7-5.9c2.8,2.3,6.9,0,9.7,2.8c1.7,1.7,4.6,2.5,3.7,5.8c-0.2,0-0.4-0.1-0.5-0.1
			c-1.4-0.6-2.8-1.2-3.9-2c-1.8-1.5-3.5-3.1-5.4,0C260.3,312.9,259.2,312.6,258.8,312z"/>
		<path class="st37" d="M164.9,229.9c0.8,0.3,0.8,1,0.8,1.7c-6.7,0.1-12-6.1-10-11.6c3.2,1.4,1.4,5,3.2,7
			C161.6,226.5,163.6,227.7,164.9,229.9z"/>
		<path class="st11" d="M558.4,328.8c-0.7,1.4-3.3-0.7-3.4,1.8c-1.6-1.9-3.4,1.3-5.1-0.1c-0.3-1.6,1.7-1.9,1.7-3.4
			c-1.4-1.3-1.4-2.7-0.4-4c1.6-1,2.1,1.2,3.4,1.2s2.4-0.3,3.6,0.4c0.8,0.5,1.8,1.8,0.5,2.1C556.2,327.4,559.2,328.2,558.4,328.8z"/>
		<path class="st34" d="M439.7,360c-1-0.2-1.8-0.5-2.8-0.7c-3.6-1.4-6.8-0.2-9.9,1.5c-0.5,0.2-1.1,0.5-1.5,0.7
			c-1.5-1.9-1.6-3.1,1.3-4c4-1.3,7.9-2.7,11.9-0.3C439.8,357.9,441.1,358.4,439.7,360z"/>
		<path class="st38" d="M453.8,356.4c-1.4-0.3-3.1,1-4.2-0.8c4.4-1.7,8.7-2.1,12.7,0.7c-1.4,2-2,4.8-5.2,5.1c-1-1.3,0.1-2,0.7-2.9
			c0.2-2.8-1.9-1.6-3.2-1.8C454.3,356.9,454,356.7,453.8,356.4z"/>
		<path class="st39" d="M330.4,341.4c-2.1,2.4-3.1-0.7-4.6-0.8c-2,0.4-4.4-2.2-5.9,0.8c-3.7-1.5-1.8-2.8,0.1-4.1
			C324,337.1,327.7,337.9,330.4,341.4z"/>
		<path class="st40" d="M340.1,346.7c-0.8-0.2-1.9-0.1-2.4-1.1c3.8-0.8,7.5-1.9,11.3,0.5c1.5,1,3.1,1.8,3.5,3.9
			C348,349.6,345.1,344.2,340.1,346.7z"/>
		<path class="st41" d="M472.4,363.8c-0.3-1.5-0.3-1.6,0-1.5c1.6,0.6,3.1,1.2,4.9,0.8c3.8,0.4,4.6-3.9,7.6-5.2
			C483.7,363.9,479.7,365.6,472.4,363.8z"/>
		<path class="st42" d="M239.6,302.8c1.6,1.6,2.7,4.1,5.7,3.4c1.5,0,1.5,0.8,1,1.9c-2.3,1.8-4.1,0.3-6.1-0.8
			C237.8,303.9,237.8,303.9,239.6,302.8z"/>
		<path class="st43" d="M538.2,341.5c-0.5-1-1.6-0.6-2.4-1.2c0.2-1.1,1.2-0.4,1.7-0.7c2.5-1.5,5.4-2,8.1-3.2c1.3,0,1,1.1,1.2,1.8
			C544.6,341,541.8,342,538.2,341.5z"/>
		<path class="st44" d="M652.2,243.5c0.4,1.3,1.5-0.6,2,0.7c-2.5,4.1-8.8,1.3-11.4,5.7c-1.3-1.2,0.4-1.6,0.1-2.3
			C645.5,245.1,650,246.8,652.2,243.5z"/>
		<path class="st45" d="M304.7,340.3c0.1,1.4-0.3,1.6-3.3,2c-0.2-0.1-0.5-0.1-0.7-0.1c-1.7-1.7-6.6-1.2-4.2-5.8
			C299.1,337.9,301.6,339.6,304.7,340.3z"/>
		<path class="st46" d="M553.8,325.5c-2,0.3-1-2.4-2.5-2.5c1.4-1.9,1.6-5.2,5.2-4.5c0.4,0.1,0.6,0.4,0.6,0.7
			C556.1,321.3,555.5,323.8,553.8,325.5z"/>
		<path class="st47" d="M131.5,189.1c0.3,2.9,2.7,4.1,4.6,5.8c-3.3,2.7-3.7-1.3-5.3-2.4c0.2-1.8-1.4-3.4-0.4-5.4
			C130.7,187.8,131.1,188.5,131.5,189.1z"/>
		<path class="st9" d="M698.2,189.7c0,1.2-1.2,1.8-1.3,3.3c-0.1,2-1.5,3.6-3.9,1.8C694.8,193.1,695.2,190.2,698.2,189.7z"/>
		<path class="st32" d="M159.9,215.9c-2.8-0.7-5.2-1.8-7.4-5.2c2.4,1.2,3.8,3.1,5.8,1.9C158.9,213.6,160.5,214.2,159.9,215.9z"/>
		<path class="st46" d="M563.4,316.3c1.2,3.4-1.8,1.1-2.4,1.8c-1.1,1-2.3,1.4-3.8,1c-0.2-0.2-0.4-0.4-0.6-0.7
			C558.3,316.3,560.8,316,563.4,316.3z"/>
		<path class="st48" d="M275,318.8c-0.4,0.1-0.8,0.1-1.3,0.2c-2.5,0.4-3.6-1.6-4.7-3.1c-0.8-1.3,0-2,1.5-1.2l-0.1-0.1
			C272.4,315.5,273.8,317.1,275,318.8z"/>
		<path class="st49" d="M335.7,348.1c-1.5-0.3-2.9-0.5-4.4-1c-0.5-0.1-1.5-0.5-0.7-1.3c0.3-0.3,1.2-0.1,1.7-0.1
			C334.5,345.1,335.2,346.6,335.7,348.1z"/>
		<path class="st50" d="M597.7,291.1c-0.2,0.8,2.1,0.7,0.7,2c-1.3,1-2.5,1.6-4.1,1.4c-0.4,0-1.1,0.1-1.1-0.1
			c-0.5-1.2,1.1-1.4,1.3-2.2C595.6,291.7,596.7,291.4,597.7,291.1z"/>
		<path class="st51" d="M551.6,327.1c1.6,2.2-1.1,2.3-1.7,3.4c-0.2,0-0.4,0.1-0.6,0.2c-0.4,0-1-0.1-1.4-0.1c0.4-0.5,0.8-1.2,1.3-1.7
			C550,328.2,550.8,327.6,551.6,327.1z"/>
		<path class="st20" d="M581.2,318.3c-1.7,2-3.5,2.4-5.2,0c1.6-1.8,3.3-1.6,5-0.3L581.2,318.3z"/>
		<path class="st52" d="M580.9,317.8c-1.7,0.1-3.4,0.2-5,0.3c-0.5-0.1-1.2-0.1-1.7-0.2c0-0.7,0.3-1.2,1.1-1.2
			c2.1-0.7,4.1-1.5,6.5-0.8C582.5,316.8,582.5,316.8,580.9,317.8z"/>
		<path class="st53" d="M423.8,362.3c-1.8,1.4-3.5,1.9-5.3,0C420.3,361.5,422,361.2,423.8,362.3z"/>
		<path class="st54" d="M164.9,229.9c-2-1-3.9-2-5.9-3c1-1.4,0.8-2.8-0.6-4.2c1.7-0.1,2.7-0.1,3.6-0.2c1.7-0.2,2.9-0.8,0.8-2.4
			c-1.9-1.4,0.5-1.6,0.6-2.4c4.8,1.2,6.1,3.6,5.1,10C166.6,227.3,165.4,228.1,164.9,229.9z"/>
		<path class="st55" d="M150.8,213.6c-2.3-2.7-5.4-4.6-5.6-8.4c1.9,0.1,5,1.8,3.6-2.5c-0.2-0.7,0.4-1,1-1.2c3.1-1.1,3.6,2,4.9,3.4
			c1.3,1.6,0.7,3.6-1.2,4.6C150.5,210.9,150.4,210.8,150.8,213.6z"/>
		<path class="st56" d="M122.6,175.5c-1.6-3.1-4.8-5.6,0.7-8c0.8-0.3,0.6-2.3,2.8-1c2.2,1.4,2.8,2.7,2,4.9c-0.3,0.8-1.1,1.7-1.8,1.4
			C123.6,171.5,123.7,174,122.6,175.5z"/>
		<path class="st57" d="M361.7,353.9c-0.6-0.4-1.1-0.8-0.1-1.5c3.2-1.9,6.9-0.7,9.3,3.2c-1.5,1.1-5.4,0.8-2.2,4.5
			c0.5,0.6-0.7,1.3-1.6,1.4c-2.1,0.2-4.1,0-5.8-1.5c-0.5-0.5-1.8-0.2-1.6-1.5c0.2-1.1,0.8-1.2,1.9-1.4
			C363.6,356.6,363.8,355.1,361.7,353.9z"/>
		<path class="st57" d="M319.9,341.4c-1.1-1.5-0.8-2.5,1.1-2.7c1.8-0.1,3.5,0.5,4.9,1.8c0.3,1.4,2.3,2.8-0.2,4
			c-0.2,0.1-0.5,0.8-0.4,1c2.4,2.5,0.2,3.5-1.6,3.8c-2.4,0.3-4.5-1.1-5.9-3c-0.5-0.6-0.7-1.7,1-2
			C319.7,344.1,321.3,343.1,319.9,341.4z"/>
		<path class="st58" d="M283,330.5c-1.9,0.2-3.5-0.3-4.8-1.8c-1.7-1.8-1.7-1.7,0.7-2.9c0.7-0.3,1.3-1,1.5-1.9
			c0.6-3.9,0.6-3.9,4.2-1.5C286.2,325.5,282.9,327.6,283,330.5z"/>
		<path class="st22" d="M304.7,340.3c-3.9,1.1-6.3-1.1-8.3-4c1-1.5,3.2-1.5,3.6-3.8c0.4-2.1,2.2-1.1,3.3-0.4
			c0.8,0.5,3.1,1.1,1.7,2.5C303,336.7,302.6,338.3,304.7,340.3z"/>
		<path class="st59" d="M654.6,240.1c2-1.6,2-4.5,3.7-6.2c1.4-1.3,3.5-4.7,4.8,0.2c0.5,1.8,4.5-0.2,3.4,3.4
			c-0.7,2.4-4.7,5.8-7.3,5.6c-0.3,0-0.2-0.3-0.2-0.5C658.2,239.6,658.2,239.6,654.6,240.1L654.6,240.1z"/>
		<path class="st60" d="M698.2,189.1c1-2.7-0.1-5.9,2.5-8c1.6-1.2,3.1-2.3,4,0.6c0.3,0.8,0.5,1.6,1.6,1.5c4.1-0.4,2.7,2.4,1.7,3.7
			c-1.3,1.8-2.8,3.9-5.6,3.7c-0.6-1.2,1.5-2.9-0.3-3.6C700.3,186.1,699.6,188.5,698.2,189.1z"/>
		<path class="st61" d="M688,204.9c-1.3-0.1-1.8,2.9-3.4,1.5c-1-0.8,1.8-1.7,1.1-3.4c-1-2.4,0.8-4,2.7-5c1.9-1.1,2.5,0.8,3.4,2.1
			c0.8,1.2,3.9,0,2.9,2.9c-0.6,1.7-0.7,3.7-2.9,4.1c-0.7,0.1-3.2,2.2-2-1.2C689.8,205.3,689.2,204.8,688,204.9z"/>
		<path class="st62" d="M715.7,173c-1-1.2,1.2-2.2-0.1-3.1c-1.2-0.8-2,0.1-2.8,1c-1.1,1.1-2,0.5-1.9-0.6c0.3-2.8,0.5-5.7,3.3-7.3
			c1.3-0.7,3-1.4,3.5,1c0.1,0.5,0.2,1.2,0.7,1.3c1.3,0.3,3.7-1.8,3.4,1.9c-0.3,3.2-1.4,5.3-4.8,5.5
			C716.6,172.7,716.1,172.9,715.7,173z"/>
		<path class="st63" d="M427.1,360.6c3.5-3.6,6.4-4.1,9.9-1.5c-1.2,2.1-2.4,4.2,1,5.6c0.6,3.1,0.2,3.4-3.9,2.7
			c-2.4-0.5-6.3,0.5-5-4.5C429.1,362.4,427.7,361.5,427.1,360.6z"/>
		<path class="st62" d="M382.7,360.5c0.8,0.2,2.8,1.5,1.9-0.3c-0.8-1.8-1.6-3,0.2-4.4c2.1-1.6,4.2-0.7,6.2,0.5
			c0.6,0.4,1.2,1.2,1.7,1.8c0.1,1.4-0.7,1.9-1.7,2.4c-0.5,0.3-1.3,1.4-1.2,1.5c1.4,1.5,2.3,2.9-0.6,3.4c-2.7,0.5-4.8-0.5-6.3-2.9
			C382.7,362,382.8,361.3,382.7,360.5z"/>
		<path class="st64" d="M434,367.5c1.5-0.6,4.2,0.6,3.9-2.7c0.7-0.8,1.6-1.3,2.4-0.4c0.5,0.6,0.1,1.6-0.5,2.2
			c-1,0.8-1.9,1.5-2.9,2.2C435.7,368.9,434.6,368.7,434,367.5z"/>
		<path class="st54" d="M545.7,336.3c-1.9,3-5,3.2-8.1,3.2c0-0.4,0-0.8,0.1-1.2c0.3-0.8,2.2-1.6,0.5-2.5c-1.3-0.8-2.4-0.1-2.7,1.6
			c-0.1,0.8-0.3,1.7-1.8,1.4c0.2-3.5,0.7-6.8,4.4-8.5c2.7-1.3,4-0.3,3.7,2.5C541.8,335.5,545,334.6,545.7,336.3z"/>
		<path class="st65" d="M221.9,287.1c0.5,3.5,3.1,4.8,6.1,5.6c-1.3,2.3-2.9,1.3-4.5,0.3c-2-1.2-3.4-3-3.8-5.2
			C219.4,287.2,221.3,288.3,221.9,287.1z"/>
		<path class="st22" d="M458.8,358.9c-0.6,0.8-2.3,0.8-1.7,2.5c-1,1.8,4.5,1.4,1.4,3.8c-2.8,2.2-5.8,1.3-7.8-2
			c0.7-0.8,2.4,0.7,2.8-0.8c0.2-1.2-0.8-1.5-1.7-2.2c-3.1-2.9,1.9-2.1,2-3.7c0.2,0,0.5-0.1,0.7-0.2
			C456.8,355.9,458.6,356.3,458.8,358.9z"/>
		<path class="st66" d="M626.4,267.1c1.3-0.8,2-2.2,3.6-2.8c1-0.3,2-1,2,0.7c0,2.5,2.2,2.1,3.6,2.5c2.1,0.7,1.2-2.2,3-2.5
			c-1.3,1.4,1.1,4.4-3.1,4.7c-1.1,0.1-2.9,3.7-5.1,4.8c-0.5,0.2-1.6,0.7-2.1-0.3c-0.7-1.6,1.6-1.6,1.6-2.9c-1.8-1.1-3.5-0.6-5.1,0.5
			c-1.4-0.4-0.4-1.1,0-1.3C626.8,269.9,626.7,268.6,626.4,267.1z"/>
		<path class="st67" d="M642.2,255c-1.2-3.8,2.3-4.2,4.1-6.2c1.3,1.8,0.6,5.9,5.1,3.2c-0.8,2.2-1.4,3.8-2,5.5
			c-1.3,0.7-2.4,1.7-4.5,1.5C647,255.6,645,255,642.2,255z"/>
		<path class="st36" d="M253.8,303.7c0.7,1.1,1.6,2.2,2.9,3.9c-3.2-0.7-4.5-2.7-5.9-4.4C251.9,302.3,252.8,303.9,253.8,303.7
			L253.8,303.7z"/>
		<path class="st68" d="M557,319.2c1.3-0.2,2.3-1.4,3.8-1c1.2,2.7,1.8,5.7,5.6,5.7c-1.4,3.8-4.4,5-8.1,4.9c-3.7-1.5,0.2-2,0.3-3
			c-1.6-1.7-3.4-0.4-5.1-0.3C553.6,322.7,555.3,320.9,557,319.2z"/>
		<path class="st13" d="M458.8,358.9c-1-1.7-2.3-2.7-4.4-2.8c2.1-1.4,3.7-0.1,5.1,1.1C460.7,358.2,459.4,358.5,458.8,358.9z"/>
	</g>
</g>
</svg>
