<?xml version="1.0" encoding="utf-8"?>
<!-- Generator: Adobe Illustrator 23.0.3, SVG Export Plug-In . SVG Version: 6.00 Build 0)  -->
<svg version="1.1" id="Layer_1" xmlns="http://www.w3.org/2000/svg" xmlns:xlink="http://www.w3.org/1999/xlink" x="0px" y="0px"
	 viewBox="0 0 6.9 10.1" style="enable-background:new 0 0 6.9 10.1;" xml:space="preserve">
<path d="M6.7,6.4c-0.2-0.1-0.5,0-0.5,0.2C6,7.2,5.6,7.7,5.1,8.1C4.8,8.3,4.4,8.5,4,8.6V6.5h0.9c0.2,0,0.5-0.2,0.5-0.5
	S5.2,5.5,4.9,5.5H4v-2h1.9v0.1c0,0.2,0.2,0.5,0.5,0.5c0.2,0,0.5-0.2,0.5-0.5V2.5C6.9,2.3,6.7,2,6.4,2C6.2,2,5.9,2.2,5.9,2.5v0.1H4
	V1.8V1.7c0.4-0.1,0.6-0.5,0.6-0.8c0-0.5-0.5-0.9-1-0.9C3,0,2.5,0.4,2.5,0.9c0,0.4,0.3,0.7,0.6,0.9v0.1v0.8H1.2V2.6
	c0-0.2-0.2-0.5-0.5-0.5c-0.2,0-0.5,0.2-0.5,0.5v1.1c0,0.2,0.2,0.5,0.5,0.5c0.2,0,0.5-0.2,0.5-0.5V3.6h1.9v2H2.2
	C2,5.6,1.7,5.8,1.7,6.1s0.2,0.5,0.5,0.5h0.9v2.1C2.6,8.6,2.1,8.4,1.6,8C1.2,7.7,1,7.2,0.8,6.8c0-0.1-0.1-0.2-0.3-0.3
	c-0.1,0-0.3,0-0.4,0.1S0,6.8,0,7c0.4,1.3,1.6,2.3,3,2.5v0.2c0,0.2,0.2,0.4,0.5,0.4S4,9.9,4,9.7V9.5c0.6-0.1,1.2-0.3,1.7-0.7
	c0.6-0.5,1-1.1,1.2-1.8C6.9,6.7,6.8,6.5,6.7,6.4z"/>
</svg>
