<?xml version="1.0" encoding="utf-8"?>
<!-- Generator: Adobe Illustrator 23.0.3, SVG Export Plug-In . SVG Version: 6.00 Build 0)  -->
<svg version="1.1" id="Layer_1" xmlns="http://www.w3.org/2000/svg" xmlns:xlink="http://www.w3.org/1999/xlink" x="0px" y="0px"
	 viewBox="0 0 7.8 13.3" style="enable-background:new 0 0 7.8 13.3;" xml:space="preserve">
<path d="M4.6,7.7v4.6c0,0.7-0.3,1-0.8,1S3,13,3,12.3V7.6L0.1,1.2C0,1,0,0.8,0,0.7C0,0.3,0.2,0,0.7,0C1,0,1.3,0.2,1.5,0.6l2.4,5.1
	l2.4-5.1C6.5,0.2,6.7,0,7.1,0c0.5,0,0.7,0.2,0.7,0.7c0,0.1,0,0.3-0.1,0.5L4.6,7.7z"/>
</svg>
