<?xml version="1.0" encoding="utf-8"?>
<!-- Generator: Adobe Illustrator 23.0.3, SVG Export Plug-In . SVG Version: 6.00 Build 0)  -->
<svg version="1.1" id="Layer_1" xmlns="http://www.w3.org/2000/svg" xmlns:xlink="http://www.w3.org/1999/xlink" x="0px" y="0px"
	 viewBox="0 0 7 13.2" style="enable-background:new 0 0 7 13.2;" xml:space="preserve">
<path d="M5.5,7.4C4.8,8.3,3.9,8.8,2.9,8.8C2,8.8,1.3,8.4,0.8,7.6S0,5.8,0,4.5C0,3.1,0.3,2,0.9,1.2S2.4,0,3.4,0C5.8,0,7,2.1,7,6.2
	c0,4.7-1.3,7-4,7c-1.2,0-2.1-0.5-2.7-1.6C0.1,11.2,0,10.8,0,10.5C0,10,0.3,9.7,0.8,9.7c0.4,0,0.7,0.3,0.8,0.8
	c0.2,0.9,0.7,1.3,1.4,1.3C4.5,12,5.3,10.5,5.5,7.4z M5.5,5.8c0-3-0.7-4.4-2-4.4c-1.2,0-1.9,1.1-1.9,3.2c0,2,0.5,3,1.6,3
	C4,7.6,4.7,7,5.4,5.9L5.5,5.8z"/>
</svg>
