<?xml version="1.0" encoding="utf-8"?>
<!-- Generator: Adobe Illustrator 23.0.3, SVG Export Plug-In . SVG Version: 6.00 Build 0)  -->
<svg version="1.1" id="Layer_1" xmlns="http://www.w3.org/2000/svg" xmlns:xlink="http://www.w3.org/1999/xlink" x="0px" y="0px"
	 viewBox="0 0 7.5 13.2" style="enable-background:new 0 0 7.5 13.2;" xml:space="preserve">
<path d="M3.8,0c2.4,0,3.7,2.2,3.7,6.6c0,4.4-1.2,6.6-3.7,6.6S0,11,0,6.6S1.2,0,3.8,0z M3.7,1.5c-1.4,0-2.1,1.6-2.1,4.8
	c0,2.1,0.2,3.6,0.7,4.5c0.3,0.6,0.8,0.9,1.4,0.9c0.7,0,1.1-0.3,1.4-0.8C5.6,10,5.8,8.5,5.8,6.5C5.8,3.1,5.1,1.5,3.7,1.5z"/>
</svg>
