<?xml version="1.0" encoding="utf-8"?>
<!-- Generator: Adobe Illustrator 23.0.3, SVG Export Plug-In . SVG Version: 6.00 Build 0)  -->
<svg version="1.1" id="Layer_1" xmlns="http://www.w3.org/2000/svg" xmlns:xlink="http://www.w3.org/1999/xlink" x="0px" y="0px"
	 viewBox="0 0 7.8 13.2" style="enable-background:new 0 0 7.8 13.2;" xml:space="preserve">
<path d="M2.2,9.5l-0.7,3c-0.1,0.5-0.4,0.7-0.8,0.7C0.2,13.2,0,13,0,12.6v-0.3L2.8,1C3,0.3,3.3,0,3.9,0C4.4,0,4.8,0.3,5,1l2.8,11.2
	v0.3c0,0.4-0.2,0.6-0.7,0.6c-0.4,0-0.6-0.2-0.8-0.7l-0.7-3H2.2L2.2,9.5L2.2,9.5z M2.5,8.1h2.7L3.8,2.3L2.5,8.1z"/>
</svg>
