<?xml version="1.0" encoding="utf-8"?>
<!-- Generator: Adobe Illustrator 23.0.3, SVG Export Plug-In . SVG Version: 6.00 Build 0)  -->
<svg version="1.1" id="Layer_1" xmlns="http://www.w3.org/2000/svg" xmlns:xlink="http://www.w3.org/1999/xlink" x="0px" y="0px"
	 viewBox="0 0 7.5 13.2" style="enable-background:new 0 0 7.5 13.2;" xml:space="preserve">
<path d="M7.5,9.5c0,1.1-0.3,2-1,2.7s-1.5,1-2.7,1c-1.6,0-2.7-0.6-3.3-1.8C0.2,10.8,0,10.2,0,9.7c0-0.6,0.3-0.9,0.8-0.9
	s0.8,0.3,0.9,1c0.2,1.3,0.9,1.9,2.1,1.9c0.6,0,1-0.2,1.4-0.6c0.4-0.4,0.6-0.9,0.6-1.6c0-1-0.6-1.8-1.8-2.3L2.3,6.4
	C0.8,5.7,0.1,4.7,0.1,3.3c0-1,0.3-1.8,1-2.4S2.6,0,3.5,0c1.1,0,2,0.3,2.6,1c0.7,0.7,1,1.3,1,2.1c0,0.5-0.3,0.8-0.8,0.8
	S5.5,3.6,5.3,3C5,2,4.4,1.5,3.4,1.5c-1.2,0-1.8,0.6-1.8,1.8c0,0.8,0.4,1.4,1.3,1.8l2,0.9C6.7,6.7,7.5,7.9,7.5,9.5z"/>
</svg>
