<?xml version="1.0" encoding="utf-8"?>
<!-- Generator: Adobe Illustrator 23.0.3, SVG Export Plug-In . SVG Version: 6.00 Build 0)  -->
<svg version="1.1" id="Layer_1" xmlns="http://www.w3.org/2000/svg" xmlns:xlink="http://www.w3.org/1999/xlink" x="0px" y="0px"
	 viewBox="0 0 7.4 13.1" style="enable-background:new 0 0 7.4 13.1;" xml:space="preserve">
<path d="M1.6,7.3v4.8c0,0.6-0.3,1-0.8,1S0,12.8,0,12.1V1.4c0-0.4,0.1-0.7,0.4-1S1,0,1.3,0h1.9c1.2,0,2.1,0.1,2.6,0.4
	C6.9,1,7.4,2,7.4,3.4c0,2.4-1.2,3.7-3.7,3.7H1.6V7.3z M1.6,5.8h1.6c1.1,0,1.8-0.2,2.1-0.6s0.5-1,0.5-1.7S5.6,2.3,5.3,2
	s-1-0.5-1.9-0.5H2.3c-0.4,0-0.7,0.2-0.7,0.7V5.8L1.6,5.8z"/>
</svg>
