<?xml version="1.0" encoding="utf-8"?>
<!-- Generator: Adobe Illustrator 23.0.3, SVG Export Plug-In . SVG Version: 6.00 Build 0)  -->
<svg version="1.1" id="Layer_1" xmlns="http://www.w3.org/2000/svg" xmlns:xlink="http://www.w3.org/1999/xlink" x="0px" y="0px"
	 viewBox="0 0 7.8 13.2" style="enable-background:new 0 0 7.8 13.2;" xml:space="preserve">
<path d="M4.8,3.7l0.1-0.6c0-0.3,0.2-0.5,0.4-0.5c0.3,0,0.5,0.2,0.5,0.6L5.2,8.9c0,0.3,0.1,0.5,0.3,0.5s0.3-0.1,0.4-0.3
	C6.3,8.2,6.6,7,6.6,5.4c0-1.3-0.2-2.4-0.7-3.1C5.4,1.5,4.8,1.1,4,1.1c-0.8,0-1.5,0.5-2.1,1.5S1.1,5,1.1,6.8c0,1.6,0.3,2.9,0.8,3.9
	c0.5,1,1.2,1.4,2,1.4s1.5-0.4,2.1-1.2c0.2-0.3,0.4-0.4,0.6-0.4c0.4,0,0.5,0.2,0.5,0.5c0,0.4-0.3,0.8-1,1.4c-0.7,0.5-1.4,0.8-2.2,0.8
	c-1.3,0-2.2-0.6-2.9-1.7c-0.7-1.1-1-2.8-1-4.9c0-2.2,0.4-3.8,1.2-4.9C2,0.6,3,0,4.1,0c1,0,1.9,0.5,2.6,1.4c0.7,1,1.1,2.3,1.1,4.1
	C7.8,7,7.5,8.3,7,9.2s-1.1,1.4-1.6,1.4c-0.4,0-0.7-0.4-0.8-1.1c-0.4,0.7-0.9,1-1.4,1c-0.9,0-1.4-0.8-1.4-2.3c0-2.1,0.3-3.7,0.9-4.8
	C3,2.9,3.3,2.7,3.9,2.7C4.3,2.6,4.6,3,4.8,3.7z M3.9,3.7C3.6,3.7,3.4,4,3.2,4.5C3.1,5.1,2.9,5.6,2.9,6.2C2.8,6.8,2.8,7.4,2.8,8.1
	S3,9.2,3.3,9.2c0.4,0,0.7-0.4,0.9-1.3l0.1-0.4c0.2-1.1,0.3-2.1,0.3-2.8C4.5,4,4.3,3.7,3.9,3.7z"/>
</svg>
