<?xml version="1.0" encoding="utf-8"?>
<!-- Generator: Adobe Illustrator 23.0.3, SVG Export Plug-In . SVG Version: 6.00 Build 0)  -->
<svg version="1.1" id="Layer_1" xmlns="http://www.w3.org/2000/svg" xmlns:xlink="http://www.w3.org/1999/xlink" x="0px" y="0px"
	 viewBox="0 0 7.8 13.2" style="enable-background:new 0 0 7.8 13.2;" xml:space="preserve">
<path d="M2.2,9l1.1-8.3C3.4,0.3,3.6,0,3.9,0c0.4,0,0.6,0.2,0.6,0.7L5.6,9l0.9-8.2c0.1-0.5,0.3-0.7,0.7-0.7s0.6,0.2,0.6,0.6v0.2
	L6.5,12.5c-0.1,0.5-0.3,0.7-0.7,0.7S5.2,13,5.1,12.5L3.9,3.7l-1.2,8.8C2.6,13,2.4,13.2,2,13.2S1.4,13,1.3,12.5L0,0.9V0.7
	c0-0.4,0.2-0.6,0.6-0.6s0.6,0.2,0.7,0.7L2.2,9z"/>
</svg>
