<?xml version="1.0" encoding="utf-8"?>
<!-- Generator: Adobe Illustrator 23.0.3, SVG Export Plug-In . SVG Version: 6.00 Build 0)  -->
<svg version="1.1" id="Layer_1" xmlns="http://www.w3.org/2000/svg" xmlns:xlink="http://www.w3.org/1999/xlink" x="0px" y="0px"
	 viewBox="0 0 7.8 13.2" style="enable-background:new 0 0 7.8 13.2;" xml:space="preserve">
<path d="M3.9,4.6L6,0.5C6.2,0.2,6.4,0,6.7,0c0.5,0,0.7,0.2,0.7,0.7c0,0.1,0,0.3-0.1,0.5L4.7,6.3L7.6,12c0.1,0.2,0.2,0.4,0.2,0.5
	c0,0.4-0.2,0.7-0.7,0.7c-0.3,0-0.6-0.2-0.8-0.6L3.9,7.9l-2.4,4.7c-0.2,0.4-0.4,0.6-0.8,0.6C0.2,13.2,0,13,0,12.5
	c0-0.1,0.1-0.3,0.2-0.5l2.9-5.7L0.5,1.2C0.4,1,0.3,0.8,0.3,0.7C0.3,0.3,0.5,0,1,0c0.3,0,0.5,0.2,0.7,0.6L3.9,4.6z"/>
</svg>
