<?xml version="1.0" encoding="utf-8"?>
<!-- Generator: Adobe Illustrator 23.0.3, SVG Export Plug-In . SVG Version: 6.00 Build 0)  -->
<svg version="1.1" id="Layer_1" xmlns="http://www.w3.org/2000/svg" xmlns:xlink="http://www.w3.org/1999/xlink" x="0px" y="0px"
	 viewBox="0 0 7.5 13.1" style="enable-background:new 0 0 7.5 13.1;" xml:space="preserve">
<path d="M5.9,7.9c0-0.3-0.2-0.5-0.5-0.5H4.5C4,7.4,3.7,7.2,3.7,6.7S4,6,4.6,6H6c0.9,0,1.4,0.4,1.5,1.3v2.4c0,0.7-0.1,1.2-0.3,1.6
	c-0.6,1.2-1.7,1.8-3.1,1.8C1.4,13.1,0,10.9,0,6.4C0,4.5,0.3,3,1,1.8S2.7,0,4.2,0C5.5,0,6.4,0.5,7,1.5c0.3,0.6,0.5,1.1,0.5,1.6
	S7.2,3.8,6.7,3.8S5.9,3.5,5.8,3C5.6,2,5,1.6,4.1,1.6c-1.6,0-2.5,1.6-2.5,4.9c0,3.6,0.8,5.4,2.4,5.4c1.2,0,1.8-0.6,1.8-1.9L5.9,7.9
	L5.9,7.9z"/>
</svg>
