<?xml version="1.0" encoding="utf-8"?>
<!-- Generator: Adobe Illustrator 23.0.3, SVG Export Plug-In . SVG Version: 6.00 Build 0)  -->
<svg version="1.1" id="Layer_1" xmlns="http://www.w3.org/2000/svg" xmlns:xlink="http://www.w3.org/1999/xlink" x="0px" y="0px"
	 viewBox="0 0 7.5 13" style="enable-background:new 0 0 7.5 13;" xml:space="preserve">
<path d="M4,0c1,0,1.8,0.4,2.4,1.1C7,1.8,7.3,2.6,7.3,3.3C7.3,3.8,7,4,6.5,4S5.7,3.7,5.6,3.1C5.4,2,4.8,1.4,3.9,1.4
	c-1.5,0-2.3,1.7-2.3,5.2c0,3.3,0.8,4.9,2.3,4.9c0.9,0,1.5-0.7,1.9-2.1c0.1-0.5,0.4-0.8,0.9-0.8s0.8,0.3,0.8,0.8s-0.2,1.1-0.7,2
	C6.2,12.5,5.3,13,4,13c-2.7,0-4-2.2-4-6.5C-0.1,2.2,1.3,0,4,0z"/>
</svg>
