<?xml version="1.0" encoding="utf-8"?>
<!-- Generator: Adobe Illustrator 23.0.3, SVG Export Plug-In . SVG Version: 6.00 Build 0)  -->
<svg version="1.1" id="Layer_1" xmlns="http://www.w3.org/2000/svg" xmlns:xlink="http://www.w3.org/1999/xlink" x="0px" y="0px"
	 viewBox="0 0 7.1 12.7" style="enable-background:new 0 0 7.1 12.7;" xml:space="preserve">
<path d="M1.8,5.1c0.6-0.8,1.4-1.2,2.3-1.2c0.9,0,1.7,0.4,2.2,1.2s0.8,1.8,0.8,3.1c0,3-1.2,4.5-3.7,4.5c-1.4,0-2.4-0.5-3-1.5
	C0.1,10.7,0,10.3,0,9.9C0,9.3,0.3,9,0.8,9c0.4,0,0.7,0.4,1,1.2s0.8,1.2,1.7,1.2c1.4,0,2.1-1.1,2.1-3.2c0-2-0.5-2.9-1.6-2.9
	C3.2,5.3,2.6,5.9,2.2,7C2.1,7.4,1.8,7.6,1.4,7.6c-0.6,0-0.9-0.3-0.9-1V1.4c0-0.4,0.1-0.7,0.4-1S1.5,0,1.9,0h4.2
	c0.5,0,0.8,0.2,0.8,0.7S6.6,1.4,6.1,1.4H2.5C2.1,1.4,2,1.6,2,1.9v3.2L1.8,5.1L1.8,5.1z"/>
</svg>
