<?xml version="1.0" encoding="utf-8"?>
<!-- Generator: Adobe Illustrator 23.0.3, SVG Export Plug-In . SVG Version: 6.00 Build 0)  -->
<svg version="1.1" id="Layer_1" xmlns="http://www.w3.org/2000/svg" xmlns:xlink="http://www.w3.org/1999/xlink" x="0px" y="0px"
	 viewBox="0 0 12.1 14.3" style="enable-background:new 0 0 12.1 14.3;" xml:space="preserve">
<path d="M5.9,14.1c-0.3-0.5-0.2-1-0.2-1.5c0.1-0.5-0.1-0.7-0.5-1c-0.7-0.3-1.3-0.8-1.5-1.5C3.5,9.5,3.3,9.5,2.8,9.8
	c-0.6,0.3-1.3,0.3-1.9,0.3C0.5,10.1,0.2,10,0,9.6c0-0.4,0-0.8,0-1.2c0-0.1,0-0.2,0-0.3c0.2-0.5,0.4-1,0.7-1.5C1.5,5.1,2.6,4,4.1,3.3
	c0.1,0.1,0.3,0.3,0.3,0c0-0.2,0.1-0.5-0.2-0.7c0-0.2,0-0.3,0-0.5c0.5-0.2,0.6-0.4,0.2-0.8C4.3,1.1,4.2,0.9,4.1,0.7
	c0-0.1,0-0.2,0-0.3c0.4-0.3,0.8-0.6,1.2,0.1c0.2,0.3,0.4,0.7,0.8,0.6C6.6,1,6.3,0.5,6.4,0.2c0.4-0.4,0.7,0.1,1.1,0.1
	c0,0.2,0,0.4,0.1,0.6c-0.2,0.3-0.4,0.6,0,1S8.1,2.8,8,3.3C7.9,3.7,8.1,3.9,8.4,3.9c0.8,0.3,1.3,0.9,2,1.3l0,0
	c0.1,0.2,0.3,0.5,0.5,0.6L11,5.9c0,0.2,0,0.3,0.2,0.4l0,0c0.1,0.3,0.1,0.7,0.5,0.8c0.1,0.1,0.1,0.3,0.2,0.4c0.1,0.3,0.2,0.6,0.2,0.9
	c-0.1,0.1-0.1,0.2,0,0.4c0.1,0.7-0.3,1-1,1.1s-1.4-0.2-2,0C8.6,10,8.6,11,8,11.3c-0.4,0.2-0.7,0.5-1.1,0.6c-0.1,0-0.1,0-0.1,0.1
	c-0.2,0.1-0.2,0.3-0.1,0.5c-0.1,0.1-0.1,0.2,0,0.3c0,0.4,0,0.7,0,1.1c0,0.1-0.1,0.1-0.1,0.2c-0.1,0-0.3,0-0.3,0.2
	C6.2,14.1,6.1,14.1,5.9,14.1z M4.8,6.2c0-0.1,0.1-0.2,0.1-0.3C5,5.6,5.3,5.2,5,5C4.7,4.8,4.3,4.9,3.9,5.1c-0.1,0-0.2,0.1-0.2,0.1
	C3,5.8,2.2,6.3,1.6,7.1C1.2,7.6,1,8.1,1,8.8c0.1,0.5,0.5,0.3,0.8,0.3C3.5,8.9,4.5,7.9,4.8,6.2z M10.9,8c-0.6-1.5-1.8-2.4-3.2-3.1
	C7.4,4.8,7.1,4.8,6.8,4.8S6.4,4.9,6.5,5.2C6.9,6.1,7.2,7,7.9,7.7C8.1,8.2,8.6,8.3,9,8.6c0.6,0.2,1-0.4,1.5-0.1
	c0.1,0.1,0.3,0.3,0.5,0.1C11.2,8.3,11.1,8.1,10.9,8z M5,8.3c0.5-0.1,0.9-0.1,1.4-0.2c0.4,0,0.4-0.2,0.2-0.5C6.3,7.2,6.1,6.7,5.8,6.2
	C5.5,6.9,5.1,7.6,5,8.3z M8,10.1c-1.2,0.1-2.2,0-3.2,0.2C5.5,11,7,10.9,8,10.1z M4.6,9.3c1.1,0.3,2.1,0.2,3.2,0
	C6.7,9,5.6,9.3,4.6,9.3z"/>
</svg>
