<?xml version="1.0" encoding="utf-8"?>
<!-- Generator: Adobe Illustrator 23.0.3, SVG Export Plug-In . SVG Version: 6.00 Build 0)  -->
<svg version="1.1" id="Layer_1" xmlns="http://www.w3.org/2000/svg" xmlns:xlink="http://www.w3.org/1999/xlink" x="0px" y="0px"
	 viewBox="0 0 2.5 4.4" style="enable-background:new 0 0 2.5 4.4;" xml:space="preserve">
<path d="M1.3,2.7c0.3,0,0.4,0.2,0.4,0.5c0,0.3-0.1,0.5-0.3,0.7C1.3,4.1,1.2,4.2,1.1,4.2C1,4.2,0.9,4.1,0.9,4C0.9,4,1,4,1,3.9
	c0.2-0.2,0.4-0.3,0.4-0.4c0,0,0,0,0,0h0h0C1,3.4,0.9,3.3,0.9,3.1C0.9,2.8,1,2.7,1.3,2.7z"/>
</svg>
