<?xml version="1.0" encoding="utf-8"?>
<!-- Generator: Adobe Illustrator 23.0.3, SVG Export Plug-In . SVG Version: 6.00 Build 0)  -->
<svg version="1.1" id="Layer_1" xmlns="http://www.w3.org/2000/svg" xmlns:xlink="http://www.w3.org/1999/xlink" x="0px" y="0px"
	 viewBox="0 0 7.6 7.4" style="enable-background:new 0 0 7.6 7.4;" xml:space="preserve">
<path d="M2.8,6.1C2.7,6.2,2.6,6.4,2.4,6.5C2,6.9,1.3,6.8,1,6.4C0.8,6,0.8,5.5,1.1,5.2c0.1-0.1,0.3-0.3,0.4-0.4l0,0
	c-0.2,0-0.4,0-0.6,0C0.5,4.8,0.1,4.5,0,4.1c-0.2-0.6,0.3-1.2,0.9-1.2c0.2,0,0.4,0,0.6,0C1.4,2.8,1.2,2.7,1.1,2.5
	c-0.3-0.3-0.3-0.6-0.2-1c0.2-0.6,1-0.8,1.5-0.4c0.1,0.1,0.3,0.3,0.4,0.4c0-0.1,0-0.1,0-0.1c0-0.2,0-0.4,0-0.6C2.9,0.3,3.3,0,3.8,0
	s0.9,0.4,0.9,0.9c0,0.2,0,0.4,0,0.5C4.8,1.3,4.9,1.1,5.1,1c0.3-0.3,0.6-0.3,1-0.2c0.6,0.2,0.8,1,0.4,1.5C6.4,2.4,6.2,2.6,6.1,2.7
	l0,0h0.1c0.2,0,0.4,0,0.6,0c0.5,0.1,0.8,0.5,0.8,1S7.2,4.5,6.7,4.6c-0.2,0-0.4,0-0.6,0C6.2,4.7,6.4,4.9,6.5,5c0.3,0.3,0.3,0.6,0.2,1
	c-0.2,0.6-1,0.8-1.5,0.4C5.1,6.3,5,6.2,4.9,6.1c0,0,0,0-0.1-0.1c0,0.2,0,0.4,0,0.5c0,0.5-0.4,1-1,0.9C3.3,7.4,2.9,7,2.9,6.5
	C2.8,6.5,2.8,6.3,2.8,6.1L2.8,6.1z M5,3.8c0-0.7-0.6-1.2-1.3-1.3C3,2.5,2.4,3.1,2.4,3.7C2.4,4.4,3,5,3.7,5C4.4,5.1,5,4.5,5,3.8z
	 M3.4,1.9c0.2,0,0.4,0,0.6,0c0-0.3,0-0.7,0-1c0-0.2-0.2-0.3-0.3-0.3c-0.2,0-0.3,0.1-0.3,0.3C3.4,1.3,3.4,1.6,3.4,1.9z M1.9,4.1
	c0-0.2,0-0.4,0-0.6c-0.3,0-0.7,0-1,0c-0.2,0-0.3,0.1-0.3,0.3s0.1,0.3,0.3,0.3C1.2,4.1,1.6,4.1,1.9,4.1z M5.6,4.1c0.3,0,0.6,0,0.9,0
	c0.2,0,0.3-0.1,0.3-0.3S6.7,3.5,6.5,3.5c-0.3,0-0.5,0-0.8,0c-0.1,0-0.1,0-0.2,0C5.6,3.7,5.6,3.9,5.6,4.1z M3.4,5.7L3.4,5.7
	c0,0.4,0,0.6,0,0.9c0,0.2,0.1,0.3,0.3,0.3S4,6.8,4,6.6C4,6.3,4,6,4,5.7V5.6C3.9,5.7,3.7,5.7,3.4,5.7z M2.6,2.2
	C2.5,2.1,2.5,2.1,2.4,2C2.2,1.8,2.1,1.7,1.9,1.5c-0.1-0.1-0.3-0.1-0.4,0s-0.1,0.3,0,0.4C1.7,2.1,2,2.4,2.2,2.6
	C2.3,2.5,2.5,2.4,2.6,2.2z M2.2,4.9C2,5.1,1.8,5.3,1.6,5.5C1.5,5.6,1.5,5.8,1.6,6c0.1,0.1,0.3,0.1,0.5,0c0.2-0.2,0.4-0.4,0.6-0.6
	c0,0,0,0,0-0.1l0,0C2.5,5.2,2.3,5.1,2.2,4.9z M5.3,2.7c0,0,0.1-0.1,0.1-0.2C5.6,2.3,5.7,2.2,5.9,2C6,1.9,6,1.7,5.9,1.6
	c-0.1-0.1-0.3-0.1-0.4,0C5.3,1.8,5,2.1,4.8,2.3C5,2.4,5.2,2.5,5.3,2.7z M4.9,5.4C5.1,5.6,5.3,5.8,5.5,6c0,0,0,0,0.1,0.1
	s0.3,0.1,0.4,0s0.1-0.3,0-0.4C5.8,5.5,5.5,5.2,5.3,5C5.2,5.1,5,5.2,4.9,5.4z"/>
</svg>
