<?xml version="1.0" encoding="utf-8"?>
<!-- Generator: Adobe Illustrator 23.0.3, SVG Export Plug-In . SVG Version: 6.00 Build 0)  -->
<svg version="1.1" id="Layer_1" xmlns="http://www.w3.org/2000/svg" xmlns:xlink="http://www.w3.org/1999/xlink" x="0px" y="0px"
	 viewBox="0 0 10.6 8.9" style="enable-background:new 0 0 10.6 8.9;" xml:space="preserve">
<path d="M10.6,3.3c0-0.1,0-0.2-0.1-0.2l-2.4-3C8,0.1,7.9,0,7.8,0c0,0,0,0-0.1,0c0,0,0,0,0,0H5.4c0,0,0,0-0.1,0c0,0,0,0-0.1,0H2.8
	C2.6,0,2.5,0.1,2.5,0.3L0.2,3.1c0,0,0,0,0,0c0,0-0.1,0-0.1,0c0,0,0,0,0,0c0,0,0,0.1,0,0.1c0,0,0,0.1,0,0.1c0,0,0,0,0,0
	c0,0,0,0.1,0,0.1c0,0,0,0.1,0,0.1L5,8.8c0.1,0.1,0.1,0.1,0.2,0.1c0.1,0,0.1,0,0.2-0.1c0,0,0-0.1,0-0.1l5-5.1
	C10.5,3.5,10.6,3.4,10.6,3.3z M5,7.3L3.5,3.6H5V7.3z M5.6,3.6h1.5L5.6,7.1V3.6z M5,2.4L3.5,0.6H5V2.4z M5.6,0.6h1.5L5.6,2.5V0.6z
	 M2.9,0.7l1.9,2.3H1L2.9,0.7z M2.8,3.6l1.5,3.6L1,3.6H2.8z M7.8,3.6h1.8L6.3,7.1L7.8,3.6z M9.7,3.1H5.9l1.9-2.3L9.7,3.1z"/>
</svg>
