<?xml version="1.0" encoding="utf-8"?>
<!-- Generator: Adobe Illustrator 23.0.3, SVG Export Plug-In . SVG Version: 6.00 Build 0)  -->
<svg version="1.1" id="Layer_1" xmlns="http://www.w3.org/2000/svg" xmlns:xlink="http://www.w3.org/1999/xlink" x="0px" y="0px"
	 viewBox="0 0 2.2 13.3" style="enable-background:new 0 0 2.2 13.3;" xml:space="preserve">
<path d="M1.1,11c0.3,0,0.6,0.1,0.8,0.4c0.2,0.2,0.3,0.5,0.3,0.8c0,0.8-0.4,1.1-1.1,1.1c-0.8,0-1.1-0.4-1.1-1.2
	c0-0.3,0.1-0.6,0.3-0.8S0.7,11,1.1,11z M2,1.3L1.7,9.1c0,0.5-0.2,0.8-0.7,0.8c-0.4,0-0.7-0.3-0.7-0.8L0,1.3V1.1C0,0.4,0.3,0,1,0
	s1,0.4,1,1.1V1.3z"/>
</svg>
