<?xml version="1.0" encoding="utf-8"?>
<!-- Generator: Adobe Illustrator 23.0.3, SVG Export Plug-In . SVG Version: 6.00 Build 0)  -->
<svg version="1.1" id="Layer_1" xmlns="http://www.w3.org/2000/svg" xmlns:xlink="http://www.w3.org/1999/xlink" x="0px" y="0px"
	 viewBox="0 0 15.4 11.4" style="enable-background:new 0 0 15.4 11.4;" xml:space="preserve">
<g>
	<path d="M14.3,3.3c-0.8-0.7-1.7-1-2.8-1.1c-1.2,0-1.3-0.2-1.3-1.3c0-0.1,0-0.2,0-0.3C10.1,0,9.6-0.2,9.1,0.2
		C8.9,0.3,8.8,0.5,8.6,0.7C7.4,2,6.5,2.1,5.1,1.1C4.7,0.9,4.4,0.6,4,0.4C3.5,0.2,3.1,0.5,3.2,1c0.1,0.5,0.1,1.1,0.2,1.6
		C1.9,3.1,1.3,4.1,2,4.9C1.9,5.1,1.7,5.2,1.6,5.4C1.5,5.7,1.5,6,1.5,6.3c0.3,0,0.5,0.1,0.8,0.1c1.2-0.1,2.3-0.1,3.4,0.5
		C3.8,7.2,1.7,7,0,8.4c0,1.3,0.9,1.9,2.1,2c0.2,0,0.6,0.1,0.6,0.2c0.3,1,1.1,0.8,1.7,0.8c1,0,2-0.2,2.9-0.2c2.2-0.2,4.3-0.7,6.1-2
		C15.7,7.6,16,4.9,14.3,3.3z M9.4,0.8c0.1,0,0.1,0.1,0.2,0.1c0,0.3,0,0.7-0.1,0.8C9.3,1.9,8.9,1.8,8.6,1.8c0-0.1-0.1-0.1-0.1-0.2
		C8.8,1.4,9.1,1.1,9.4,0.8z M9,2.5c0.6,0.1,1.2,0.3,1.9,0.5c-0.8,0.9-0.1,1.1,0.4,1.4C10.2,4.9,9,5.3,7.8,5.8
		c-0.2-1-0.1-2.1,0.6-3.1C8.5,2.6,8.8,2.4,9,2.5z M7.8,2.4C7.5,3.2,7.3,4,7.1,4.7C6.7,4,6.3,3.3,5.9,2.5C6.6,2.4,7.1,2.4,7.8,2.4z
		 M4,0.9c0.3,0.3,0.6,0.5,0.9,0.8c0,0.1-0.1,0.1-0.1,0.2C4.5,1.9,4.1,2,3.9,1.8S3.8,1.2,3.8,1C3.8,1,3.9,0.9,4,0.9z M3.2,5.1
		c0.6-0.7,0.6-0.7-0.3-1.4c0.6-0.3,1.2-0.6,1.8-0.8C4.9,2.8,5.2,3,5.3,3.1c0.8,0.7,1.2,1.7,1.3,2.6C5.4,5.6,4.3,5.3,3.2,5.1z
		 M6.3,10c-0.7-0.1-1.4-0.2-2-0.3C4,9.6,3.8,9.6,3.5,9.5C3.3,9.4,3.2,9.3,3,9.2C3.1,9,3.3,8.8,3.4,8.7c0.5-0.2,1-0.3,1.6-0.4
		C4.8,9.7,6,9.2,6.6,9.7C6.6,9.7,6.4,10,6.3,10z M13.5,7.7c-1.2,0.9-4,1.9-5.7,2.1c0.3-1.1,0.8-1.3-1.6-1.7C6.3,7.8,6.5,7.5,6.6,7
		C6.8,7.2,6.9,7.4,7,7.5C7.4,8,7.9,7.8,8,7.4c0.4-1.3,1.6-1.5,2.6-1.9c0.5-0.2,1-0.2,1.5-0.4c0.2-0.1,0.4-0.3,0.7-0.5
		c-0.2-0.2-0.3-0.5-0.5-0.7c-0.2-0.2-0.4-0.3-0.8-0.5c0.4-0.2,0.6-0.3,0.8-0.3c0.8,0,2,1,2.2,1.8C14.7,6,14.3,7.2,13.5,7.7z"/>
	<circle cx="4.9" cy="4.6" r="0.4"/>
	<circle cx="9.1" cy="4.4" r="0.4"/>
</g>
</svg>
