<?xml version="1.0" encoding="utf-8"?>
<!-- Generator: Adobe Illustrator 23.0.3, SVG Export Plug-In . SVG Version: 6.00 Build 0)  -->
<svg version="1.1" id="Layer_1" xmlns="http://www.w3.org/2000/svg" xmlns:xlink="http://www.w3.org/1999/xlink" x="0px" y="0px"
	 viewBox="0 0 7.6 13.4" style="enable-background:new 0 0 7.6 13.4;" xml:space="preserve">
<path d="M4.4,9.8H2.6l-0.2,2.8c0,0.5-0.2,0.8-0.6,0.8s-0.6-0.2-0.6-0.6v-0.2l0.2-2.7H0.8C0.3,9.9,0,9.7,0,9.2c0-0.4,0.3-0.7,0.8-0.7
	h0.7l0.2-3.7H1c-0.5,0-0.8-0.2-0.8-0.7c0-0.4,0.3-0.7,0.8-0.7h0.8l0.1-2.5c0-0.5,0.3-0.8,0.7-0.8c0.2,0,0.3,0.1,0.5,0.2
	c0.1,0.1,0.2,0.3,0.2,0.4L3.1,3.3h1.8L5,0.8C5,0.3,5.3,0,5.7,0C5.9,0,6,0.1,6.2,0.2c0.1,0.1,0.2,0.3,0.2,0.4L6.2,3.2h0.6
	c0.5,0,0.8,0.2,0.8,0.7c0,0.4-0.3,0.7-0.8,0.7H6.1L5.9,8.3h0.7c0.5,0,0.8,0.2,0.8,0.7c0,0.4-0.3,0.7-0.8,0.7H5.8l-0.2,2.8
	c0,0.5-0.2,0.8-0.6,0.8s-0.6-0.2-0.6-0.6v-0.2V9.8z M4.5,8.5l0.2-3.7H2.9L2.7,8.5H4.5z"/>
</svg>
