<?xml version="1.0" encoding="utf-8"?>
<!-- Generator: Adobe Illustrator 23.0.3, SVG Export Plug-In . SVG Version: 6.00 Build 0)  -->
<svg version="1.1" id="Layer_1" xmlns="http://www.w3.org/2000/svg" xmlns:xlink="http://www.w3.org/1999/xlink" x="0px" y="0px"
	 viewBox="0 0 9 7.5" style="enable-background:new 0 0 9 7.5;" xml:space="preserve">
<path d="M8.3,1.9C8.2,1.1,7.6,0.2,6.4,0.2c-0.7,0-1.3,0.2-1.7,0.6C4.6,0.8,4.6,0.9,4.5,1c0,0,0-0.1-0.1-0.1C4.1,0.4,3.5,0.2,2.8,0.2
	c0,0,0,0,0,0C2,0.2,1.3,0.5,1,1.2C0.9,1.3,0.8,1.5,0.8,1.7c0,0.1,0,0.1-0.1,0.2c0,0,0,0.1,0,0.1l0,0.5l0,0.1c0,0.1,0,0.2,0.1,0.3
	c0.2,0.7,0.5,1.4,1.1,2.1c0.7,0.8,1.5,1.6,2.6,2.2c0,0,0.1,0,0.1,0s0.1,0,0.1,0c1-0.7,1.9-1.4,2.5-2.2c0.5-0.6,0.8-1.2,1-1.8
	c0-0.2,0.1-0.3,0.1-0.5l0-0.3L8.3,1.9C8.4,2,8.3,2,8.3,1.9z M4.5,6.5C3.2,5.7,2.4,4.8,1.8,3.8C1.5,3.2,1.3,2.7,1.4,2.1
	c0-0.8,0.6-1.3,1.4-1.3c0,0,0,0,0.1,0c0.5,0,0.8,0.1,1,0.4C4,1.4,4.1,1.7,4.2,2.1l0,0.1c0,0.1,0.1,0.2,0.2,0.2h0.1
	c0.1,0,0.2-0.1,0.2-0.2c0,0,0-0.1,0-0.1c0-0.4,0.1-0.7,0.3-0.9c0.3-0.3,0.6-0.4,1.1-0.4c0.4,0,0.8,0.2,1,0.4
	c0.3,0.3,0.4,0.6,0.4,1.1C7.6,3,7.4,3.6,7,4.3C6.4,5.1,5.6,5.8,4.5,6.5z"/>
</svg>
