<?xml version="1.0" encoding="utf-8"?>
<!-- Generator: Adobe Illustrator 23.0.3, SVG Export Plug-In . SVG Version: 6.00 Build 0)  -->
<svg version="1.1" id="Layer_1" xmlns="http://www.w3.org/2000/svg" xmlns:xlink="http://www.w3.org/1999/xlink" x="0px" y="0px"
	 viewBox="0 0 9.5 11.4" style="enable-background:new 0 0 9.5 11.4;" xml:space="preserve">
<path d="M9.4,2c0-0.1-0.1-0.3-0.2-0.4L7.8,0.7c0.1-0.2,0-0.5-0.3-0.6C7.4,0,7.2,0,7.1,0.1C7,0.1,6.8,0.2,6.8,0.4l-2.2,4l0,0
	C4.5,4.3,4.3,4.3,4.2,4.3S3.9,4.4,3.8,4.5S3.7,4.8,3.7,4.9s0.1,0.3,0.2,0.4L4,5.4L3,7.2C2.5,7.1,2.1,7,1.6,7.1
	c-0.7,0.1-1.2,0.5-1.4,1C-0.1,8.6,0,9.2,0.3,9.8c0.3,0.5,0.8,1,1.4,1.3c0.4,0.2,0.9,0.3,1.4,0.3c0.2,0,0.3,0,0.5,0
	c0.7-0.1,1.2-0.5,1.4-1c0.3-0.5,0.2-1.1-0.1-1.7C4.7,8.3,4.4,8,4,7.7L4.9,6l0,0C5,6.1,5.1,6.1,5.2,6.1c0.2,0,0.4-0.1,0.5-0.2
	s0.1-0.3,0.1-0.4S5.7,5.2,5.6,5.1L5.5,5l1-1.7l1.4,0.8C8,4.2,8.1,4.2,8.2,4.2c0.2,0,0.4-0.1,0.5-0.3c0.1-0.1,0.1-0.3,0.1-0.4
	S8.7,3.2,8.5,3.2L7.1,2.4L7.3,2l1.3,0.9C8.7,3,8.8,3,8.9,3c0.2,0,0.4-0.1,0.5-0.3C9.5,2.3,9.5,2.1,9.4,2z M4,9
	c0.1,0.3,0.2,0.5,0.1,0.7C4,9.9,3.8,10,3.5,10.1c-0.4,0.1-0.8,0-1.2-0.2C1.9,9.7,1.6,9.4,1.4,9.1C1.3,8.8,1.2,8.6,1.3,8.4
	S1.6,8.1,1.9,8C2,8,2.1,8,2.2,8c0.3,0,0.6,0.1,0.9,0.2C3.5,8.4,3.8,8.7,4,9z"/>
</svg>
