<?xml version="1.0" encoding="utf-8"?>
<!-- Generator: Adobe Illustrator 23.0.3, SVG Export Plug-In . SVG Version: 6.00 Build 0)  -->
<svg version="1.1" id="Layer_1" xmlns="http://www.w3.org/2000/svg" xmlns:xlink="http://www.w3.org/1999/xlink" x="0px" y="0px"
	 viewBox="0 0 3.9 10.2" style="enable-background:new 0 0 3.9 10.2;" xml:space="preserve">
<path d="M3.1,7.7H2.6c-0.3,0-0.4-0.1-0.4-0.4C2.2,7.1,2.5,7,3,6.9c0.1,0,0.2,0,0.3,0c0.1,0,0.2,0.1,0.3,0.2c0.1,0.1,0.1,0.3,0.1,0.5
	s0,0.6,0.1,1.1s0.1,0.8,0.1,1c0,0.3-0.1,0.5-0.3,0.5s-0.3-0.1-0.4-0.3l0,0c0,0-0.1,0.1-0.3,0.1c-0.2,0.1-0.5,0.2-0.7,0.2
	s-0.4,0-0.6-0.1S1.2,9.9,1.1,9.8S0.8,9.5,0.7,9.3S0.5,8.9,0.4,8.7C0.3,8.5,0.3,8.3,0.2,8S0.1,7.5,0.1,7.3s0-0.4-0.1-0.7
	c0-0.3,0-0.7,0-1.2V4.5c0-2,0.3-3.3,0.8-3.9C1.1,0.2,1.5,0,2.1,0c0.3,0,0.5,0.1,0.5,0.4c0,0.1,0,0.2-0.1,0.2
	C2.4,0.7,2.4,0.7,2.3,0.7L2,0.6c-0.3,0-0.5,0.2-0.7,0.6C1.1,1.6,1,2,1,2.4C0.9,2.8,0.9,3.1,0.9,3.3s0,0.5,0,0.8c0,0.4,0,0.8,0,1.2
	v0.8c0,0.8,0,1.4,0.1,1.7s0.1,0.6,0.2,0.8S1.4,9,1.5,9.1C1.7,9.4,2,9.5,2.4,9.5S3.1,9.3,3.3,9C3.3,8.4,3.2,7.9,3.1,7.7z"/>
</svg>
