<?xml version="1.0" encoding="utf-8"?>
<!-- Generator: Adobe Illustrator 23.0.3, SVG Export Plug-In . SVG Version: 6.00 Build 0)  -->
<svg version="1.1" id="Layer_1" xmlns="http://www.w3.org/2000/svg" xmlns:xlink="http://www.w3.org/1999/xlink" x="0px" y="0px"
	 viewBox="0 0 2.4 9.6" style="enable-background:new 0 0 2.4 9.6;" xml:space="preserve">
<path d="M0.2,9.3l0.1-4.5c0-2-0.1-3.5-0.3-4.5C0.1,0.1,0.3,0,0.5,0c0.3,0,0.6,0.1,0.8,0.2c0.3,0.1,0.5,0.3,0.6,0.5
	c0.3,0.5,0.5,1,0.5,1.6S2.3,3.5,2,4S1.3,4.9,0.8,5.2l0.1,3.9c0,0.3-0.1,0.5-0.4,0.5c-0.1,0-0.2,0-0.2-0.1C0.2,9.5,0.2,9.4,0.2,9.3z
	 M0.8,4.7c0.6-0.6,0.9-1.3,0.9-2.1l0,0c0-0.6-0.1-1-0.3-1.2C1.3,1.3,1,1.1,0.7,0.8c0,0.4,0,1.1,0.1,2C0.8,3.6,0.8,4.2,0.8,4.7z"/>
</svg>
