<?xml version="1.0" encoding="utf-8"?>
<!-- Generator: Adobe Illustrator 23.0.3, SVG Export Plug-In . SVG Version: 6.00 Build 0)  -->
<svg version="1.1" id="Layer_1" xmlns="http://www.w3.org/2000/svg" xmlns:xlink="http://www.w3.org/1999/xlink" x="0px" y="0px"
	 viewBox="0 0 2.9 9.7" style="enable-background:new 0 0 2.9 9.7;" xml:space="preserve">
<path d="M2.7,9.3c0,0.3-0.1,0.4-0.3,0.4S2.1,9.6,1.9,9.4l0,0c0-0.3-0.1-0.8-0.3-1.4C1.4,7.4,1.3,7,1.3,6.8S1.2,6.2,1.1,5.6
	C1,5,0.9,4.6,0.8,4.3v4.9c0,0.3-0.1,0.4-0.4,0.4c-0.1,0-0.2,0-0.3-0.1S0,9.4,0,9.3V9.2l0.1-7.3V0.3c0-0.1,0-0.2,0.1-0.2
	c0,0,0.2-0.1,0.4-0.1S1,0.1,1.2,0.2c0.2,0.1,0.4,0.3,0.5,0.5C2,1.1,2.1,1.6,2.1,2.1C2.1,2.5,2,3,1.8,3.5c0,0.1-0.1,0.2-0.1,0.4
	C1.6,4.1,1.6,4.2,1.6,4.2c0,0.3,0.1,0.7,0.2,1.2C1.9,5.9,2,6.3,2.1,6.6S2.3,7.4,2.5,8c0.2,0.6,0.3,1,0.4,1.1v0.2L2.7,9.3L2.7,9.3z
	 M0.8,0.6L0.7,3.2c0,0.3,0,0.4,0,0.6C0.8,3.7,1,3.5,1.1,3.3l0.2-1.1c0-0.4-0.1-0.8-0.2-1.1S0.9,0.7,0.8,0.6z"/>
</svg>
