<?xml version="1.0" encoding="utf-8"?>
<!-- Generator: Adobe Illustrator 23.0.3, SVG Export Plug-In . SVG Version: 6.00 Build 0)  -->
<svg version="1.1" id="Layer_1" xmlns="http://www.w3.org/2000/svg" xmlns:xlink="http://www.w3.org/1999/xlink" x="0px" y="0px"
	 viewBox="0 0 2.4 9.6" style="enable-background:new 0 0 2.4 9.6;" xml:space="preserve">
<path d="M1.6,8.3v0.6v0.3c0,0.1,0,0.2-0.1,0.3S1.3,9.6,1.3,9.6c-0.1,0-0.2,0-0.2-0.1C1,9.4,1,9.4,1,9.3l0.1-2.4c0-0.2,0-0.6-0.1-1.1
	S0.9,4.9,0.9,4.6s0-0.6-0.1-1.1C0.7,3.1,0.6,2.7,0.5,2.4C0.2,1.5,0,0.8,0,0.2C0,0.1,0.1,0,0.4,0c0.1,0,0.1,0,0.2,0.1
	c0.1,0,0.1,0.1,0.1,0.2c0.1,1,0.3,2,0.6,3.1c0-0.1,0-0.2,0.1-0.5c0-0.3,0-0.6,0.1-0.8c0-0.3,0.1-0.6,0.1-0.9c0.1-0.7,0.3-1,0.5-1
	s0.3,0,0.3,0.1c0,0.5-0.1,1.2-0.3,2.1C1.9,3.3,1.8,4,1.8,4.5v0.4v0.2L1.6,8.3z"/>
</svg>
