<?xml version="1.0" encoding="utf-8"?>
<!-- Generator: Adobe Illustrator 23.0.3, SVG Export Plug-In . SVG Version: 6.00 Build 0)  -->
<svg version="1.1" id="Layer_1" xmlns="http://www.w3.org/2000/svg" xmlns:xlink="http://www.w3.org/1999/xlink" x="0px" y="0px"
	 viewBox="0 0 2.1 9.5" style="enable-background:new 0 0 2.1 9.5;" xml:space="preserve">
<path d="M2,4.5c0,0.3-0.3,0.4-1,0.4c0,0.5,0,1.1,0.1,2s0.1,1.6,0.1,2V9c0,0,0,0.1,0,0.2s0,0.2-0.1,0.2C1,9.5,0.9,9.5,0.8,9.5
	c-0.2,0-0.4-0.3-0.4-0.8c0-0.8,0-2.3-0.1-4.5S0.1,0.8,0,0.7C0,0.3,0.3,0,0.9,0C1,0,1.1,0,1.3,0c0.2,0,0.3,0,0.4,0.1s0.1,0.2,0.1,0.3
	c0,0.2-0.1,0.3-0.3,0.3H1.2c-0.2,0-0.3,0-0.3,0.1c0,0.4,0,1,0.1,1.7s0.1,1.3,0.1,1.7c0.4-0.1,0.6-0.1,0.7-0.1s0.2,0,0.3,0.1
	C2,4.3,2,4.4,2,4.5z"/>
</svg>
