<?xml version="1.0" encoding="utf-8"?>
<!-- Generator: Adobe Illustrator 23.0.3, SVG Export Plug-In . SVG Version: 6.00 Build 0)  -->
<svg version="1.1" id="Layer_1" xmlns="http://www.w3.org/2000/svg" xmlns:xlink="http://www.w3.org/1999/xlink" x="0px" y="0px"
	 viewBox="0 0 3.1 9.8" style="enable-background:new 0 0 3.1 9.8;" xml:space="preserve">
<path d="M0.5,3.6L0.4,4.5c0,0.4,0.1,1.2,0.2,2.3s0.2,1.8,0.3,1.9C1.1,9,1.4,9.1,1.8,9.1S2.5,9,2.7,8.7c0.1,0,0.3,0,0.4-0.1v0.2
	c0,0.3-0.1,0.5-0.2,0.6C2.7,9.7,2.3,9.8,1.8,9.8C1.5,9.8,1.2,9.7,1,9.5C0.7,9.3,0.5,9.1,0.4,8.8S0.1,7.7,0.1,6.5C0,5.3,0,4.3,0,3.6
	s0-1.2,0.1-1.5c0-0.1,0-0.3,0-0.4c0-0.5,0.2-0.9,0.6-1.2S1.6,0,2.1,0c0.2,0,0.4,0.1,0.6,0.2C2.9,0.3,3,0.5,3,0.6
	c0,0.1,0,0.2-0.1,0.2S2.7,0.9,2.6,0.9c-0.1,0-0.2-0.1-0.3-0.2l0,0H2.1l0,0c-0.6,0-1,0.3-1.2,0.8C0.8,1.8,0.8,2.1,0.8,2.6L0.5,3.6z"
	/>
</svg>
