<?xml version="1.0" encoding="utf-8"?>
<!-- Generator: Adobe Illustrator 23.0.3, SVG Export Plug-In . SVG Version: 6.00 Build 0)  -->
<svg version="1.1" id="Layer_1" xmlns="http://www.w3.org/2000/svg" xmlns:xlink="http://www.w3.org/1999/xlink" x="0px" y="0px"
	 viewBox="0 0 2.7 9.8" style="enable-background:new 0 0 2.7 9.8;" xml:space="preserve">
<path d="M2.2,9.5C2,9.5,1.8,9.4,1.8,9.2s0-0.4,0-0.6c0-0.2,0-0.4-0.1-0.6c0-0.2-0.1-0.4-0.1-0.5S1.5,7.2,1.5,6.9
	C1.4,6.6,1.4,6.5,1.4,6.4C1.1,7.7,0.9,8.5,0.8,8.9C0.7,9.2,0.7,9.4,0.7,9.5S0.6,9.6,0.6,9.7C0.5,9.8,0.5,9.8,0.4,9.8s-0.2,0-0.3-0.1
	S0,9.6,0,9.5c0-0.1,0-0.2,0-0.3S0.1,9,0.1,8.8c0.1-0.1,0.1-0.3,0.2-0.6s0.2-0.8,0.4-1.7C0.9,5.7,1,5.1,1,4.7C1,4.4,1,4,0.9,3.6
	c-0.1-0.4-0.2-0.7-0.3-1c-0.3-0.8-0.4-1.5-0.4-2l0,0c0.1-0.2,0.2-0.3,0.4-0.3s0.3,0,0.3,0.1S1,0.5,1,0.6c0,0,0,0.1,0,0.2
	C1,0.9,1,1,1,1.1S1.1,1.6,1.2,2c0.1,0.5,0.2,0.8,0.2,0.9c0,0,0.1-0.3,0.2-0.9c0.2-1.3,0.5-2,0.7-2c0.1,0,0.2,0,0.3,0.1
	c0.1,0,0.1,0.1,0.1,0.2c0,0.1,0,0.1,0,0.2c0,0.1,0,0.1-0.1,0.2c0,0.1-0.1,0.2-0.1,0.3C2.4,1.1,2.3,1.7,2.1,2.8
	c-0.2,1-0.3,1.6-0.3,1.8c0,0.1,0,0.5,0.1,0.9C2,6,2.1,6.5,2.2,7.1S2.4,8,2.4,8v0.1c0,0.1,0,0.3,0.1,0.5S2.6,9,2.6,9.1s0,0.2-0.1,0.3
	C2.4,9.5,2.3,9.5,2.2,9.5z"/>
</svg>
