<?xml version="1.0" encoding="utf-8"?>
<!-- Generator: Adobe Illustrator 23.0.3, SVG Export Plug-In . SVG Version: 6.00 Build 0)  -->
<svg version="1.1" id="Layer_1" xmlns="http://www.w3.org/2000/svg" xmlns:xlink="http://www.w3.org/1999/xlink" x="0px" y="0px"
	 viewBox="0 0 5.4 9.9" style="enable-background:new 0 0 5.4 9.9;" xml:space="preserve">
<path d="M1.9,6.6c0.3-2.4,0.5-4,0.5-4.8V1.6c0-0.1,0-0.2,0.1-0.3s0.1-0.1,0.2-0.1c0.3,0,0.5,0.1,0.5,0.4v0.2c0,0.8,0.2,2,0.5,3.5
	C3.9,6,4,6.5,4,6.9c0-0.5,0.1-1.1,0.2-2C4.5,3,4.6,1.5,4.6,0.5c0-0.2,0-0.3,0.1-0.4C4.8,0,4.9,0,5,0s0.2,0,0.3,0.1s0.1,0.1,0.1,0.3
	c0,0.1,0,0.2-0.1,0.3C5.2,1.4,5.1,2.4,5,3.8C4.9,5.2,4.8,6.1,4.7,6.6S4.6,7.5,4.5,7.7C4.4,8.4,4.3,9,4.3,9.5c0,0.1,0,0.2-0.1,0.3
	S4,9.9,3.9,9.9S3.7,9.8,3.6,9.7C3.5,9.6,3.5,9.4,3.4,9.2c0-0.2-0.1-0.4-0.1-0.6c0-0.2,0-0.4-0.1-0.6c0-0.2,0-0.4-0.1-0.7
	c0-0.2-0.1-0.8-0.3-1.6S2.5,4.4,2.5,4.3C2.2,6.6,2,8.4,2,9.6c0,0.1,0,0.2-0.1,0.2C1.8,9.9,1.7,9.9,1.7,9.9c-0.3,0-0.5-0.3-0.5-1
	c0-0.4-0.2-1.8-0.5-4.3S0.1,0.8,0,0.6c0.1-0.2,0.3-0.3,0.4-0.3c0.2,0,0.4,0.3,0.5,0.9C0.9,1.5,1,1.9,1,2.3C1,2.7,1,3,1,3.2
	s0,0.4,0.1,0.7c0,0.3,0.1,0.6,0.1,0.8C1.7,5.3,1.8,5.9,1.9,6.6z"/>
</svg>
