<?xml version="1.0" encoding="utf-8"?>
<!-- Generator: Adobe Illustrator 23.0.3, SVG Export Plug-In . SVG Version: 6.00 Build 0)  -->
<svg version="1.1" id="Layer_1" xmlns="http://www.w3.org/2000/svg" xmlns:xlink="http://www.w3.org/1999/xlink" x="0px" y="0px"
	 viewBox="0 0 3.1 9.5" style="enable-background:new 0 0 3.1 9.5;" xml:space="preserve">
<path d="M0.3,3.4V2c0-0.4,0-0.7-0.1-0.8c0-0.2-0.1-0.3-0.1-0.5C0,0.5,0,0.4,0,0.4c0-0.1,0-0.1,0-0.2c0-0.1,0.1-0.1,0.1-0.1
	C0.2,0.1,0.2,0,0.3,0s0.1,0,0.2,0c0.2,0,0.3,0,0.3,0h0.1C1.2,0,1.6,0.2,2,0.5c0.5,0.4,0.8,0.9,0.9,1.4C3,2.2,3,2.5,3,2.9
	s0,0.6,0,0.7c0,0.3,0.1,0.5,0.1,0.5v0.6C3.1,4.8,3,4.9,3,5.1c0,0.6-0.1,1.3-0.4,2.1C2.3,7.9,2,8.5,1.5,8.9C1.2,9.2,1,9.4,0.9,9.4
	C0.8,9.5,0.7,9.5,0.6,9.5c-0.1,0-0.2,0-0.4-0.1C0.1,9.3,0,9.2,0,9.1c0.2-0.2,0.3-0.7,0.3-1.5c0-0.5,0-1.2-0.1-2.1
	C0.4,4.5,0.3,3.9,0.3,3.4z M1.2,7.5v1.2c0.6-0.5,1.1-1.3,1.4-2.5c0.1-0.6,0.2-1.3,0.2-2c0-2.3-0.6-3.5-1.7-3.5l0,0
	c0,0.8,0,1.9,0.1,3.4C1.1,5.6,1.1,6.8,1.2,7.5z"/>
</svg>
