<?xml version="1.0" encoding="utf-8"?>
<!-- Generator: Adobe Illustrator 23.0.3, SVG Export Plug-In . SVG Version: 6.00 Build 0)  -->
<svg version="1.1" id="Layer_1" xmlns="http://www.w3.org/2000/svg" xmlns:xlink="http://www.w3.org/1999/xlink" x="0px" y="0px"
	 viewBox="0 0 3.9 9.8" style="enable-background:new 0 0 3.9 9.8;" xml:space="preserve">
<path d="M1.9,7.1c0.6-3.2,0.9-5.4,1-6.7l0,0c0-0.1,0.1-0.2,0.2-0.3C3.2,0,3.3,0,3.4,0s0.2,0,0.2,0c0.1,0.1,0.1,0.2,0.1,0.3
	c0,1,0,2.5,0.1,4.4c0.1,2,0.1,3.5,0.1,4.4c0,0.2-0.1,0.4-0.3,0.6c-0.1,0.1-0.1,0.1-0.2,0c-0.2,0-0.3,0-0.3-0.1c0,0,0-0.1,0-0.2V9.2
	c0-0.6,0-1.1,0-1.5s0-0.9,0-1.5s0-1.8,0-3.6c0,0.3-0.1,0.8-0.3,1.5C2.7,4.8,2.6,5.3,2.5,5.7C2.4,6,2.4,6.3,2.4,6.5S2.3,6.9,2.3,7.1
	c0,0.2-0.1,0.3-0.1,0.5C2.1,8,2,8.2,1.8,8.2C1.5,8.2,1.4,7.8,1.4,7c0-0.4-0.2-1.2-0.4-2.4s-0.4-2-0.4-2.5c0,0.8,0,1.4,0,1.7L0.7,9
	c0,0.2-0.1,0.3-0.2,0.5c-0.2,0-0.3-0.1-0.4-0.2C0,9.2,0,9,0,8.7V6.6V1.8c0-0.5,0-1.1,0-1.6L0.3,0c0.2,0,0.5,0.8,0.8,2.2
	c0.2,1.1,0.4,2.2,0.6,3.1C1.8,6.6,1.9,7.1,1.9,7.1z"/>
</svg>
