<?xml version="1.0" encoding="utf-8"?>
<!-- Generator: Adobe Illustrator 23.0.3, SVG Export Plug-In . SVG Version: 6.00 Build 0)  -->
<svg version="1.1" id="Layer_1" xmlns="http://www.w3.org/2000/svg" xmlns:xlink="http://www.w3.org/1999/xlink" x="0px" y="0px"
	 viewBox="0 0 2.2 9.7" style="enable-background:new 0 0 2.2 9.7;" xml:space="preserve">
<path d="M1.4,0.7c-0.3,0-0.5,0.1-0.7,0.1C0.2,0.8,0,0.7,0,0.4V0.1h0.2c0.1,0,0.2,0,0.3,0L1.7,0c0.1,0,0.2,0,0.2,0.1
	C2,0.2,2,0.3,2,0.4C2,0.6,1.9,1.1,1.8,2c0,0.4-0.1,1-0.2,1.9C1.4,5.7,1.2,7.1,1,8.2c0,0.1-0.1,0.2-0.1,0.4C0.8,8.8,0.8,8.9,0.8,9
	h0.7c0.4,0,0.7,0.1,0.7,0.4v0.1L2,9.7H0.5c-0.2,0-0.3-0.1-0.4-0.3C0.3,9.1,0.5,8.3,0.7,7c0.2-1.3,0.4-2.5,0.6-3.7
	C1.3,2.1,1.4,1.3,1.4,0.7z"/>
</svg>
