<?xml version="1.0" encoding="utf-8"?>
<!-- Generator: Adobe Illustrator 23.0.3, SVG Export Plug-In . SVG Version: 6.00 Build 0)  -->
<svg version="1.1" id="Layer_1" xmlns="http://www.w3.org/2000/svg" xmlns:xlink="http://www.w3.org/1999/xlink" x="0px" y="0px"
	 viewBox="0 0 2.1 9.5" style="enable-background:new 0 0 2.1 9.5;" xml:space="preserve">
<path d="M1.2,4.8H0.9c-0.1,0-0.2,0-0.2,0.1v3.9c0.4,0,0.6,0,0.7,0c0.5,0,0.7,0.1,0.7,0.3l0,0C2,9.2,1.9,9.3,1.8,9.4
	C1.7,9.5,1.5,9.5,1.4,9.5s-0.2,0-0.4,0H0.6C0.3,9.5,0.1,9.4,0,9.3c0-0.1,0-0.1,0-0.2v-9L1.1,0c0.1,0,0.3,0,0.4,0.1s0.2,0.2,0.2,0.3
	c0,0.2-0.2,0.4-0.6,0.4H0.7c-0.1,0-0.1,0-0.1,0l0.1,2.1c0,0.2,0,0.4,0,0.7s0,0.6,0,0.7c0,0,0.1,0,0.2,0c0.2,0,0.3-0.1,0.4-0.1
	s0.2,0,0.3,0.1s0.1,0.2,0.1,0.3s0,0.2-0.1,0.3C1.4,4.7,1.3,4.8,1.2,4.8z"/>
</svg>
