<?xml version="1.0" encoding="utf-8"?>
<!-- Generator: Adobe Illustrator 23.0.3, SVG Export Plug-In . SVG Version: 6.00 Build 0)  -->
<svg version="1.1" id="Layer_1" xmlns="http://www.w3.org/2000/svg" xmlns:xlink="http://www.w3.org/1999/xlink" x="0px" y="0px"
	 viewBox="0 0 4.9 9.3" style="enable-background:new 0 0 4.9 9.3;" xml:space="preserve">
<path d="M2.6,0.9v0.6c0,0.1,0,0.2,0,0.3C2.5,2,2.4,2.2,2.3,2.6C2.2,3,2.1,3.2,2,3.3C1.9,3.4,1.9,3.5,1.8,3.6C1.7,3.8,1.6,3.9,1.6,4
	c0,0.4,0.2,1.1,0.5,2.1S2.7,7.8,2.9,8c0.3-0.6,0.4-1.3,0.4-2.2V5.7C3.2,5.7,3.1,5.6,3,5.5V5.2c0.2,0,0.5,0,0.8,0s0.6-0.1,0.7-0.1
	c0.2,0,0.4,0.2,0.4,0.3c0,0.2-0.2,0.3-0.7,0.3H3.9c0,0.2,0,0.5,0,0.8c0.1,0,0,0.3-0.1,0.8c-0.2,0.5-0.3,0.9-0.4,1
	c0.2,0.3,0.5,0.4,0.8,0.4h0.5l0.2,0.2c0,0.2-0.1,0.3-0.2,0.3C4.6,9.3,4.4,9.3,4.2,9.3C3.8,9.3,3.4,9.1,3,8.8
	C2.6,9.1,2.1,9.3,1.8,9.3c-0.4,0-0.7-0.1-1-0.3S0.3,8.5,0.2,8.2S0,7.6,0,7.2c0-0.3,0-0.6,0.1-0.9c0-0.3,0.1-0.6,0.2-0.9
	c0.2-0.4,0.4-1,0.8-1.8L1,1.9v-1c0-0.3,0.1-0.6,0.2-0.7C1.3,0.1,1.5,0,1.6,0C1.7,0,2,0.1,2.2,0.2C2.5,0.5,2.6,0.7,2.6,0.9z M1.2,4.7
	C0.8,5.4,0.6,6.2,0.6,7.1c0,0.6,0.2,1.1,0.5,1.5c0.2,0.2,0.4,0.3,0.7,0.3c0.1,0,0.3,0,0.5-0.1s0.3-0.1,0.4-0.2c0,0-0.1-0.1-0.3-0.3
	C2.3,8.1,2.1,7.9,2,7.6C1.9,7.3,1.7,7,1.6,6.6C1.5,6.1,1.4,5.5,1.2,4.7z M1.6,1.7v1.1v0.1c0.1-0.2,0.2-0.5,0.3-0.8s0.2-0.6,0.2-0.8
	c0-0.4-0.1-0.6-0.3-0.6C1.7,0.7,1.7,0.9,1.6,1V1.7z"/>
</svg>
