<?xml version="1.0" encoding="utf-8"?>
<!-- Generator: Adobe Illustrator 23.0.3, SVG Export Plug-In . SVG Version: 6.00 Build 0)  -->
<svg version="1.1" id="Layer_1" xmlns="http://www.w3.org/2000/svg" xmlns:xlink="http://www.w3.org/1999/xlink" x="0px" y="0px"
	 viewBox="0 0 1.9 9.8" style="enable-background:new 0 0 1.9 9.8;" xml:space="preserve">
<path d="M0.5,0.3l0.1,4.5c0,0.1,0,0.3,0,0.4v0.1c0,0.2,0,0.6,0.1,1c0.1,1,0.1,1.7,0.1,2.2v0.4h0.9C1.8,9,1.9,9,1.9,9.1
	c0,0,0,0.1,0,0.2c0,0.1,0,0.1-0.1,0.2C1.7,9.6,1.7,9.6,1.6,9.6s-0.1,0-0.2,0s-0.1,0-0.2,0H0.8C0.7,9.7,0.6,9.8,0.5,9.8
	s-0.2,0-0.3-0.1S0.1,9.5,0.1,9.4l0.1-0.5c0-0.9,0-2.4-0.1-4.3C0,2.7,0,1.3,0,0.3c0-0.1,0-0.1,0.1-0.2C0.2,0.1,0.2,0,0.3,0
	s0.2,0,0.3,0.1C0.5,0.1,0.5,0.2,0.5,0.3z"/>
</svg>
