<?xml version="1.0" encoding="utf-8"?>
<!-- Generator: Adobe Illustrator 23.0.3, SVG Export Plug-In . SVG Version: 6.00 Build 0)  -->
<svg version="1.1" id="Layer_1" xmlns="http://www.w3.org/2000/svg" xmlns:xlink="http://www.w3.org/1999/xlink" x="0px" y="0px"
	 viewBox="0 0 2.7 9.6" style="enable-background:new 0 0 2.7 9.6;" xml:space="preserve">
<path d="M0,0.8C0,0.3,0.2,0,0.5,0c0.4,0,0.7,0.1,1,0.3c0.6,0.4,0.9,1,0.9,1.8c0,0.6-0.3,1.3-0.8,2C2,4.6,2.2,4.9,2.2,5
	c0.1,0.1,0.1,0.2,0.2,0.3s0.1,0.2,0.1,0.2s0,0.1,0,0.2c0,0.1,0,0.2,0,0.3c0,0.2,0,0.4,0.1,0.7c0,0.3,0.1,0.4,0.1,0.5
	c0,0,0,0.1,0,0.3S2.6,7.8,2.6,7.9c0,0.1,0,0.1-0.1,0.2c0,0.1-0.1,0.2-0.1,0.2c0,0.1,0,0.1-0.1,0.2c0,0.1-0.1,0.1-0.1,0.2
	c0,0-0.1,0.1-0.1,0.2C2,9,2,9,1.9,9.1c-0.1,0-0.1,0.1-0.2,0.1C1.4,9.4,1.2,9.5,1,9.5C0.8,9.6,0.7,9.6,0.7,9.6H0.6
	c-0.2,0-0.4,0-0.4,0C0.1,9.5,0,9.4,0,9.3l0.1-3.1L0,1.1C0,1.1,0,0.8,0,0.8z M0.8,0.7c-0.1,0-0.2,0.1-0.2,0.4s0,0.8,0,1.4
	c0,0.6,0,1.1,0,1.4c0.3-0.1,0.6-0.4,0.8-1.1c0.1-0.4,0.2-0.6,0.2-0.6V1.8c0-0.2-0.1-0.5-0.3-0.7C1.3,0.9,1.1,0.7,0.8,0.7z M1.1,4.6
	L1.1,4.6H0.7c0,1,0.1,2.4,0.1,4.2c0.4-0.1,0.7-0.3,1-0.6C2,7.9,2.1,7.5,2.1,7.1C2.1,5.7,1.7,4.9,1.1,4.6z"/>
</svg>
