<?xml version="1.0" encoding="utf-8"?>
<!-- Generator: Adobe Illustrator 23.0.3, SVG Export Plug-In . SVG Version: 6.00 Build 0)  -->
<svg version="1.1" id="Layer_1" xmlns="http://www.w3.org/2000/svg" xmlns:xlink="http://www.w3.org/1999/xlink" x="0px" y="0px"
	 viewBox="0 0 4.1 13.4" style="enable-background:new 0 0 4.1 13.4;" xml:space="preserve">
<path d="M3.6,0c0.3,0,0.5,0.2,0.5,0.5c0,0.2-0.2,0.4-0.5,0.6C2.8,1.7,2.2,2.5,1.7,3.5S1,5.6,1,6.7c0,2.3,0.9,4.2,2.7,5.7
	c0.2,0.2,0.4,0.4,0.4,0.5c0,0.3-0.2,0.5-0.5,0.5c-0.5,0-1.2-0.7-2.2-2.1C0.4,9.9,0,8.4,0,6.6s0.6-3.5,1.7-5C2.5,0.6,3.2,0,3.6,0z"/>
</svg>
