<?xml version="1.0" encoding="utf-8"?>
<!-- Generator: Adobe Illustrator 23.0.3, SVG Export Plug-In . SVG Version: 6.00 Build 0)  -->
<svg version="1.1" id="Layer_1" xmlns="http://www.w3.org/2000/svg" xmlns:xlink="http://www.w3.org/1999/xlink" x="0px" y="0px"
	 viewBox="0 0 7.6 7.5" style="enable-background:new 0 0 7.6 7.5;" xml:space="preserve">
<path d="M4.2,0L4.2,0H3.6l0,0C1.6,0.1,0,1.7,0,3.7c0,2.1,1.7,3.8,3.8,3.8s3.8-1.7,3.8-3.7C7.6,1.8,6.1,0.2,4.2,0z M6.9,3.8
	c0,0.6-0.2,1.1-0.5,1.6L4.1,3.6V0.7C5.7,0.9,6.9,2.2,6.9,3.8z M3.6,6.9c-0.7,0-1.4-0.3-1.9-0.8l1.9-1.6V6.9z M0.7,3.8
	c0-1.7,1.3-3,3-3.1v3.1l-2.3,2C0.9,5.2,0.7,4.5,0.7,3.8z M4.2,6.9V4.3l1.9,1.5C5.6,6.4,5,6.8,4.2,6.9z"/>
</svg>
