<?xml version="1.0" encoding="utf-8"?>
<!-- Generator: Adobe Illustrator 23.0.3, SVG Export Plug-In . SVG Version: 6.00 Build 0)  -->
<svg version="1.1" id="Layer_1" xmlns="http://www.w3.org/2000/svg" xmlns:xlink="http://www.w3.org/1999/xlink" x="0px" y="0px"
	 viewBox="0 0 7 16.7" style="enable-background:new 0 0 7 16.7;" xml:space="preserve">
<path d="M2.2,6V3.4l3.2,3.2c0.2,0.2,0.4,0.3,0.7,0.3c0.2,0,0.5-0.1,0.7-0.3c0.4-0.4,0.4-1,0-1.3l-4.9-5c-0.4-0.4-1-0.4-1.3,0
	C0.3,0.5,0.2,0.8,0.2,1.1c0,0.1,0,0.1,0,0.2v4.2c-0.3,0.3-0.3,0.8,0,1.1v9c0,0.6,0.5,1,1,1c0.6,0,1-0.5,1-1V8.7l3,3
	C5.4,11.9,5.6,12,5.8,12c0.2,0,0.5-0.1,0.7-0.3c0.4-0.4,0.4-1,0-1.3L2.2,6z"/>
</svg>
