<?xml version="1.0" encoding="utf-8"?>
<!-- Generator: Adobe Illustrator 23.0.3, SVG Export Plug-In . SVG Version: 6.00 Build 0)  -->
<svg version="1.1" id="Layer_1" xmlns="http://www.w3.org/2000/svg" xmlns:xlink="http://www.w3.org/1999/xlink" x="0px" y="0px"
	 viewBox="0 0 8.4 14.9" style="enable-background:new 0 0 8.4 14.9;" xml:space="preserve">
<path d="M2.5,7.5l4.8-5.8c0.3-0.5,0.3-1.1-0.2-1.5C6.7-0.1,6.1-0.1,5.7,0.4L0.3,6.7c-0.4,0.3-0.3,0.7-0.2,1c0,0.2,0.2,0.4,0.3,0.5
	l6.2,6.3c0.1,0.1,0.4,0.3,0.8,0.3c0.3,0,0.6-0.2,0.7-0.3c0.2-0.2,0.4-0.4,0.4-0.6c0-0.3-0.1-0.6-0.3-0.8L2.5,7.5z"/>
</svg>
