<?xml version="1.0" encoding="utf-8"?>
<!-- Generator: Adobe Illustrator 23.0.3, SVG Export Plug-In . SVG Version: 6.00 Build 0)  -->
<svg version="1.1" id="Layer_1" xmlns="http://www.w3.org/2000/svg" xmlns:xlink="http://www.w3.org/1999/xlink" x="0px" y="0px"
	 viewBox="0 0 6.3 14.9" style="enable-background:new 0 0 6.3 14.9;" xml:space="preserve">
<path d="M6,8.8L2.4,5.2l3.1-3.6c0.3-0.5,0.3-1.1-0.2-1.4C4.8-0.1,4.2,0,3.9,0.4L0.3,4.8C0.2,5,0,5.3,0.2,5.6c0,0.2,0.2,0.3,0.3,0.5
	l3.4,3.4l-3.7,3.7c-0.3,0.5-0.3,1,0,1.4c0.2,0.2,0.5,0.3,0.8,0.3c0.2,0,0.4-0.1,0.5-0.2l4.4-4.3c0,0,0.1,0,0.1-0.1h0.3V10
	C6.3,9.7,6.3,9.2,6,8.8z"/>
</svg>
