<?xml version="1.0" encoding="utf-8"?>
<!-- Generator: Adobe Illustrator 23.0.3, SVG Export Plug-In . SVG Version: 6.00 Build 0)  -->
<svg version="1.1" id="Layer_1" xmlns="http://www.w3.org/2000/svg" xmlns:xlink="http://www.w3.org/1999/xlink" x="0px" y="0px"
	 viewBox="0 0 11.4 11.9" style="enable-background:new 0 0 11.4 11.9;" xml:space="preserve">
<path d="M11.1,5.3c0,0-0.1-0.1-0.1-0.1L6.4,0.6c0-0.1-0.1-0.3-0.2-0.4c-0.4-0.3-1-0.3-1.3,0l-4.6,5C0.1,5.4,0,5.7,0,5.9
	c0,0.3,0,0.6,0.2,0.8l4.9,5c0.2,0.2,0.4,0.3,0.7,0.3c0.1,0,0.3,0,0.4-0.1c0.1,0,0.3-0.1,0.4-0.2l4.6-5C11.5,6.3,11.5,5.7,11.1,5.3z
	 M5.8,9.7L2.1,6l3.4-3.6l3.7,3.7L5.8,9.7z"/>
</svg>
