<?xml version="1.0" encoding="utf-8"?>
<!-- Generator: Adobe Illustrator 23.0.3, SVG Export Plug-In . SVG Version: 6.00 Build 0)  -->
<svg version="1.1" id="Layer_1" xmlns="http://www.w3.org/2000/svg" xmlns:xlink="http://www.w3.org/1999/xlink" x="0px" y="0px"
	 viewBox="0 0 7 16.7" style="enable-background:new 0 0 7 16.7;" xml:space="preserve">
<path d="M6.7,11.4L2.4,8.1L6,5.2c0.2,0,0.4-0.1,0.5-0.2c0.3-0.2,0.4-0.6,0.1-0.9c0-0.1-0.1-0.2-0.2-0.2c0,0-0.1,0-0.2-0.1L1.6,0.2
	c-0.4-0.3-1-0.3-1.3,0C0,0.4-0.1,0.7,0.1,1C0,1.1,0,1.2,0,1.3v14.3c0,0.6,0.5,1,1,1c0.3,0,0.6-0.1,0.7-0.3c0.1,0,0.2-0.1,0.3-0.1
	l4.7-3.8c0.2-0.1,0.2-0.3,0.2-0.4C7,11.7,6.9,11.5,6.7,11.4z M2,2.5l2.4,1.8L2,6.3V2.5z M2,14.1V9.8l2.8,2.1L2,14.1z"/>
</svg>
