<?xml version="1.0" encoding="utf-8"?>
<!-- Generator: Adobe Illustrator 23.0.3, SVG Export Plug-In . SVG Version: 6.00 Build 0)  -->
<svg version="1.1" id="Layer_1" xmlns="http://www.w3.org/2000/svg" xmlns:xlink="http://www.w3.org/1999/xlink" x="0px" y="0px"
	 viewBox="0 0 12.8 15.1" style="enable-background:new 0 0 12.8 15.1;" xml:space="preserve">
<path d="M12.4,0.3c-0.5-0.3-1.1-0.3-1.5,0.2L6.4,5.8L2.6,0.5C2.3,0,1.7-0.1,1.2,0.2c-0.5,0.3-0.6,1-0.3,1.4L5,7.4l-4.8,5.8
	c-0.3,0.5-0.3,1.1,0.1,1.5C0.5,14.8,0.8,15,1,15c0.3,0,0.6-0.2,0.8-0.3l4.5-5.3l3.7,5.3c0.1,0.2,0.4,0.5,0.9,0.5
	c0.1,0,0.5,0,0.6-0.2c0.5-0.3,0.6-1,0.3-1.4l-4-5.8L12.6,2l0.1-0.1C12.8,1.6,13.1,0.7,12.4,0.3z"/>
</svg>
