<?xml version="1.0" encoding="utf-8"?>
<!-- Generator: Adobe Illustrator 23.0.3, SVG Export Plug-In . SVG Version: 6.00 Build 0)  -->
<svg version="1.1" id="Layer_1" xmlns="http://www.w3.org/2000/svg" xmlns:xlink="http://www.w3.org/1999/xlink" x="0px" y="0px"
	 viewBox="0 0 7.9 16.7" style="enable-background:new 0 0 7.9 16.7;" xml:space="preserve">
<path d="M7.6,13.5l-4-4.1l2.4-2.5c0.2,0,0.4-0.1,0.6-0.3c0.3-0.3,0.3-0.7,0.2-1c0-0.2-0.1-0.5-0.3-0.7C6.3,4.8,6.2,4.8,6,4.7
	L1.6,0.3c-0.4-0.4-1-0.4-1.3,0C0.1,0.5,0,0.8,0,1.1c0,0.1,0,0.1,0,0.2v14.3c0,0.6,0.5,1,1,1s1-0.5,1-1v-4.6l0.3-0.3l4,4
	c0.2,0.2,0.4,0.3,0.7,0.3c0.2,0,0.5-0.1,0.7-0.3C8,14.4,8,13.8,7.6,13.5z M2,8.2V3.4l2.4,2.4L2,8.2C2.1,8.2,2.1,8.2,2,8.2z"/>
</svg>
