<?xml version="1.0" encoding="utf-8"?>
<!-- Generator: Adobe Illustrator 23.0.3, SVG Export Plug-In . SVG Version: 6.00 Build 0)  -->
<svg version="1.1" id="Layer_1" xmlns="http://www.w3.org/2000/svg" xmlns:xlink="http://www.w3.org/1999/xlink" x="0px" y="0px"
	 viewBox="0 0 7.4 10.1" style="enable-background:new 0 0 7.4 10.1;" xml:space="preserve">
<path d="M1.3,9.9l1,0.2C4.2,10,5.1,9.8,5.1,9.6C6.3,9,6.9,8.2,7,7.2V7c0.3,0,0.4,0,0.4-0.2S7.3,6.5,7,6.5C6.5,5.1,5.9,4.3,5,4.2
	L3.9,4.3c0.6-0.4,1.2-0.9,1.5-1.6L5.3,2.4L5.6,2V1.9c0-0.1-0.1-0.2-0.4-0.2c0-0.6-0.5-1.1-1.6-1.6L3.2,0.2L2.9,0.1L1.7,0.2V0.1V0
	C0.8,0.2,0.4,0.4,0.3,0.6v0.1C0.7,0.9,0.9,1,0.9,1.1L0.8,2.7L0.3,2.9c0,0.1,0.1,0.2,0.4,0.3C1,3.2,1,4.3,0.9,6.4v0.1L0.6,6.9
	c0,0.1,0.1,0.2,0.3,0.2v0.4v1.7C0.3,9.2,0,9.4,0,9.5v0.2l0.1,0.1L1.3,9.9z M1.4,0.8l0.8-0.1C4,0.9,4.9,1.3,4.8,1.8L4.7,2.3l0.2,0.2
	v0.1c-0.1,1-1.2,1.6-3.5,1.9l0.1-1.3c0.2,0,0.3,0,0.3-0.2V2.9c0-0.1-0.1-0.2-0.5-0.2L1.4,0.8L1.4,0.8z M1.3,8.5l0.1-0.8
	c0-0.2,0.2-0.5,0.5-0.7V6.8L1.7,6.6c-0.2,0-0.3-0.5-0.3-1.5l0.9-0.2h0.1L2.5,5L5,4.9h0.4c0.5,0.3,0.8,0.8,1.1,1.5L6.2,6.8
	C6.2,6.9,6.3,7,6.5,7v0.1C6.4,8.2,6.1,8.7,5.6,8.7c0,0.4-1,0.7-2.9,0.9H2.4C1.6,9.5,1.3,9.1,1.3,8.5z"/>
</svg>
