<?xml version="1.0" encoding="utf-8"?>
<!-- Generator: Adobe Illustrator 23.0.3, SVG Export Plug-In . SVG Version: 6.00 Build 0)  -->
<svg version="1.1" id="Layer_1" xmlns="http://www.w3.org/2000/svg" xmlns:xlink="http://www.w3.org/1999/xlink" x="0px" y="0px"
	 viewBox="0 0 4.1 9.7" style="enable-background:new 0 0 4.1 9.7;" xml:space="preserve">
<path d="M0.4,1.1c0.1,0,0.2-0.2,0.3-0.5l0.7,0.1c0.2,0,0.3,0.4,0.3,1.3v2.5C1.4,4.6,1.2,4.7,1.2,4.8S1.3,5,1.6,5l0.1,0.3L1.6,5.4
	c0.1,0.8,0.2,1.8,0.2,3.1c0,0.4-0.1,0.7-0.3,0.7H0.7c0-0.2-0.1-0.3-0.2-0.3H0.4L0.2,9.1v0.3l0.3,0.3h2c0.6,0,1-0.1,1.3-0.2L3.7,8.8
	H3.4c0,0.3-0.1,0.4-0.2,0.4H2.4L2.3,9.1V9l0.1-0.1V8L2.3,5.3L2.4,5c0.3,0,0.4-0.1,0.4-0.2C2.4,4.5,2.3,4,2.3,3.3V0.7l1-0.2l0.3,0.1
	c0,0.6,0.1,0.8,0.2,0.8C4,1.3,4.1,1.1,4.1,0.8V0.4L3.8,0L1.9,0.1L1,0C0.5,0.1,0.2,0.2,0,0.4l0.2,0.7H0.4L0.4,1.1z"/>
</svg>
