<?xml version="1.0" encoding="utf-8"?>
<!-- Generator: Adobe Illustrator 23.0.3, SVG Export Plug-In . SVG Version: 6.00 Build 0)  -->
<svg version="1.1" id="Layer_1" xmlns="http://www.w3.org/2000/svg" xmlns:xlink="http://www.w3.org/1999/xlink" x="0px" y="0px"
	 viewBox="0 0 8 9.9" style="enable-background:new 0 0 8 9.9;" xml:space="preserve">
<path d="M0.4,9.9l0.5-0.1l0.6,0.1h0.7C4,10,5.6,9.2,6.9,7.5C7.4,6.4,7.7,5.7,8,5.4c0-0.1-0.1-0.2-0.3-0.2c0-0.6-0.2-1.2-0.6-1.9
	C6.4,1.3,4.4,0.1,1.2,0H0.8L0.3,0.1L0.2,0L0,0.2l0.3,0.3h0.5L0.7,1.2v0.1v1.9L0.6,4.3v1.1H0.4c0,0.3,0.1,0.5,0.3,0.6L0.6,6.8
	l0.1,2.4C0.2,9.2,0,9.3,0,9.5v0.1l0.2,0.2L0.4,9.9z M1.1,7.1l0.1-1l0.3-0.4V5.6c0-0.1-0.1-0.2-0.3-0.2c-0.1,0-0.1-1.5,0-4.6
	c0-0.1,0.3-0.2,0.8-0.3v0.1c1.5,0.3,2.3,0.5,2.7,0.7C5.8,2,6.4,2.8,6.6,3.8C7,4.1,7.2,4.5,7.1,5L6.8,5.5c0,0.1,0.1,0.2,0.3,0.2v0.1
	L6.5,7.1C5.4,8.7,3.9,9.5,2,9.4H1.3C1.1,9.4,1,8.7,1.1,7.1z"/>
</svg>
