<?xml version="1.0" encoding="utf-8"?>
<!-- Generator: Adobe Illustrator 23.0.3, SVG Export Plug-In . SVG Version: 6.00 Build 0)  -->
<svg version="1.1" id="Layer_1" xmlns="http://www.w3.org/2000/svg" xmlns:xlink="http://www.w3.org/1999/xlink" x="0px" y="0px"
	 viewBox="0 0 8.2 10" style="enable-background:new 0 0 8.2 10;" xml:space="preserve">
<path d="M6.3,9c0.5,0,1-1.2,1.5-3.6c0.3,0,0.4-0.1,0.4-0.2V5.1C7.9,4.9,7.7,4.4,7.7,3.7C7.2,1.2,6.2,0,4.7,0H3.5
	C1.9,0,0.9,1.5,0.4,4.6C0.1,4.6,0,4.7,0,4.8V5c0,0.1,0.2,0.2,0.6,0.2V6c0,0.3,0.2,0.7,0.6,1.2C1.2,8.7,2.1,9.6,4,10h0.5
	C5.1,10,5.7,9.6,6.3,9z M4.2,9.6C2.7,9.1,1.9,8.5,1.9,7.9c-0.5-1.1-0.8-2-0.8-2.7c0.3,0,0.5-0.1,0.5-0.2V4.9c0-0.2-0.2-0.3-0.5-0.3
	V4.1c0-1.4,0.7-2.6,2-3.6h0.5L5,0.4l0.5,0.2c0.6,0.4,1,0.9,1.2,1.5l0.6,1.5L7.2,4.5v0.3C6.8,4.8,6.6,4.9,6.6,5v0.2
	c0,0.1,0.2,0.2,0.5,0.2h0.1c0,1.5-0.4,2.5-1.2,3C6,8.8,5.4,9.2,4.2,9.6z"/>
</svg>
