<?xml version="1.0" encoding="utf-8"?>
<!-- Generator: Adobe Illustrator 23.0.3, SVG Export Plug-In . SVG Version: 6.00 Build 0)  -->
<svg version="1.1" id="Layer_1" xmlns="http://www.w3.org/2000/svg" xmlns:xlink="http://www.w3.org/1999/xlink" x="0px" y="0px"
	 viewBox="0 0 7.3 10" style="enable-background:new 0 0 7.3 10;" xml:space="preserve">
<path d="M7,2.8l0.3-0.3L7.1,2.2L6.6,2.3C6.6,1,5.5,0.2,3.4,0L0.7,0.1L0.3,0L0,0.3l0.3,0.3h0.2l0.1-0.1l0.3,0.1L0.7,3.8l0.1,2.9
	L0.7,7.1l0.1,0.5v1.8H0.3L0,9.7l0.2,0.2h0.3L1,9.8L1.2,10l0.1-0.1c1-0.1,1.5-0.2,1.5-0.3V9.5L2.6,9.3H2.4H1.3l0.1-3.7l0.4,0.1
	l1.3-0.2l0.4,0.1c2-0.6,3-1.6,3-2.8H7L7,2.8z M6,2.3c-0.3,0-0.6,0.1-0.8,0.2c0,0.2,0.3,0.3,0.8,0.3v0.3C5.4,4.3,4.3,4.9,2.8,4.9H1.4
	L1.5,2V1.1l0.1-0.7l1.8-0.1C5.1,0.5,6,1.1,6,2.1V2.3L6,2.3z"/>
</svg>
