<?xml version="1.0" encoding="utf-8"?>
<!-- Generator: Adobe Illustrator 23.0.3, SVG Export Plug-In . SVG Version: 6.00 Build 0)  -->
<svg version="1.1" id="Layer_1" xmlns="http://www.w3.org/2000/svg" xmlns:xlink="http://www.w3.org/1999/xlink" x="0px" y="0px"
	 viewBox="0 0 8.1 10.1" style="enable-background:new 0 0 8.1 10.1;" xml:space="preserve">
<path d="M7.7,0.4L6.5,0.5H5.9L5.7,0.7L6,1h0.9v0.2L6.8,5.3C6.4,5.4,6.2,5.5,6.2,5.6v0.1l0.2,0.2h0.1l0.1-0.1C6.4,7.2,6.2,7.9,6,8.1
	c0,1-0.7,1.4-2.1,1.4H3.5c-1,0-1.6-1.2-2-3.7l0.6-0.6C1.7,5,1.4,4.5,1.4,3.5V0.8c0.7-0.1,1.1-0.3,1.1-0.4V0.3C2.4,0.2,2.3,0.2,2,0
	C0.6,0.1,0,0.2,0,0.4s0.2,0.3,0.7,0.3v1.6l0.2,2.8H0.6v0.2l0.3,0.3c0.1,0,0.2,0.5,0.2,1.5c0.6,2,1.4,3,2.6,3H4
	C5.1,10,5.7,9.9,5.7,9.7c0.9,0,1.5-1.3,1.6-4C7.7,5.6,8,5.5,8,5.4V5.3c0-0.1-0.2-0.2-0.6-0.2l0.3-3L7.6,1.3V1l0.1-0.1
	c0.3,0,0.4-0.1,0.4-0.2V0.6C8.2,0.6,8,0.5,7.7,0.4z"/>
</svg>
