<?xml version="1.0" encoding="utf-8"?>
<!-- Generator: Adobe Illustrator 23.0.3, SVG Export Plug-In . SVG Version: 6.00 Build 0)  -->
<svg version="1.1" id="Layer_1" xmlns="http://www.w3.org/2000/svg" xmlns:xlink="http://www.w3.org/1999/xlink" x="0px" y="0px"
	 viewBox="0 0 9.2 10" style="enable-background:new 0 0 9.2 10;" xml:space="preserve">
<path d="M8.5,9.4L4.9,4.7c0.3,0,0.5-0.1,0.5-0.2V4.3L5.3,4.1H5L4.7,4.2l0.2-0.1C6.5,2.3,7.4,1.3,7.4,1l1-0.5V0.4
	c0-0.2-0.4-0.3-1.2-0.3c-0.7,0.1-1,0.2-1,0.3s0.2,0.2,0.7,0.3c-1.4,1.9-2.3,2.9-2.6,3H4L2.7,1.8C2.3,1.5,2,1.1,2,0.6l0.5-0.2L2.1,0
	H0.4L0,0.4c0,0.2,0.2,0.2,0.5,0.2C1,0.6,1.9,1.7,3.4,4v0.1L3,4.2L2.9,4.3v0.1c0,0.1,0.2,0.2,0.5,0.4C1.6,7.9,0.5,9.5,0.1,9.7v0.1
	L0.4,10h1.2l0.5-0.5V9.4L2,9.3L1.5,9.4H1.4l2.8-4.3h0.1C4.5,5.6,4.7,5.8,5,5.8l2.7,3.7c-0.3,0-0.4,0.1-0.4,0.2v0.2L7.4,10l0.8-0.1
	L8.9,10l0.3-0.2V9.6C9,9.5,8.8,9.4,8.5,9.4z"/>
</svg>
