<?xml version="1.0" encoding="utf-8"?>
<!-- Generator: Adobe Illustrator 23.0.3, SVG Export Plug-In . SVG Version: 6.00 Build 0)  -->
<svg version="1.1" id="Layer_1" xmlns="http://www.w3.org/2000/svg" xmlns:xlink="http://www.w3.org/1999/xlink" x="0px" y="0px"
	 viewBox="0 0 7.9 10.1" style="enable-background:new 0 0 7.9 10.1;" xml:space="preserve">
<path d="M6.4,0.2L2.7,0.1C1.1,0.1,0.2,0.2,0,0.3c0,0.9,0.1,1.4,0.3,1.4h0.1l0.3-0.3V0.9l2.1-0.1h0.6l0.1,0.7V3c0,1.2-0.2,1.8-0.6,2
	v0.1c0.4,0.2,0.6,0.3,0.6,0.4v3.4c0,0.3-0.2,0.6-0.5,0.9v0.1l0.2,0.2h1.2l0.2-0.2V9.7c0-0.1-0.2-0.2-0.5-0.2V6.4
	c0-0.6,0.2-1.1,0.5-1.5c0-0.1-0.1-0.2-0.4-0.2H4.1l0.1-2.5L4.1,0.8h3.2v0.6l0.2,0.2h0.1c0.2,0,0.3-0.5,0.3-1.4L7.7,0L6.4,0.2z"/>
</svg>
