<?xml version="1.0" encoding="utf-8"?>
<!-- Generator: Adobe Illustrator 23.0.3, SVG Export Plug-In . SVG Version: 6.00 Build 0)  -->
<svg version="1.1" id="Layer_1" xmlns="http://www.w3.org/2000/svg" xmlns:xlink="http://www.w3.org/1999/xlink" x="0px" y="0px"
	 viewBox="0 0 7 7.5" style="enable-background:new 0 0 7 7.5;" xml:space="preserve">
<path d="M0.2,3c0.1-0.8,0.5-1.5,1.1-2.1C2,0.3,2.8-0.1,3.7,0c1.1,0.1,1.9,0.7,2.4,1.7c0.6,1,0.4,2.2-0.5,3C5.1,5.2,4.5,5.4,3.8,5.4
	C2.7,5.3,2.3,4.3,2.2,3.7C2.1,3.1,2.4,2.6,2.9,2.2C3,2.1,3.1,2.1,3.2,2.1c0.2,0,0.4,0.1,0.4,0.3c0.1,0.2,0,0.4-0.2,0.5
	C3.3,3,3.1,3.1,3.1,3.3C3,3.8,3.5,4.4,4,4.4C4.7,4.3,5.3,3.7,5.3,3c0.1-0.8-0.7-1.8-1.5-2C2.9,0.8,2.2,1.2,1.7,1.8
	C1.1,2.5,1,3.3,1.2,4.1c0.3,1.1,1,2,2.2,2.2c0.9,0.2,1.7,0,2.4-0.5C6,5.7,6.1,5.6,6.3,5.4c0.1,0.2,0.2,0.3,0.3,0.5
	C6.7,6,6.8,6.1,7,6.2C6.6,6.5,6.3,6.8,5.8,7c-1,0.5-2,0.6-3.1,0.2C1.3,6.7,0.5,5.5,0.1,4.1c0-0.1,0-0.2-0.1-0.4L0.2,3L0.2,3z"/>
</svg>
