<?xml version="1.0" encoding="utf-8"?>
<!-- Generator: Adobe Illustrator 23.0.3, SVG Export Plug-In . SVG Version: 6.00 Build 0)  -->
<svg version="1.1" id="Layer_1" xmlns="http://www.w3.org/2000/svg" xmlns:xlink="http://www.w3.org/1999/xlink" x="0px" y="0px"
	 viewBox="0 0 8.1 7.9" style="enable-background:new 0 0 8.1 7.9;" xml:space="preserve">
<path d="M8,3.2C7.9,3.3,7.9,3.4,7.8,3.4C7.2,4,6.7,4.5,6.1,5.1v0.1c0.1,0.7,0.2,1.4,0.4,2.1c0,0.1,0,0.3,0.1,0.4
	c0,0.2-0.1,0.3-0.3,0.2C6.2,7.9,6.1,7.8,6,7.7C5.4,7.4,4.7,7,4.1,6.7H4C3.3,7.1,2.6,7.5,1.9,7.8c-0.1,0-0.1,0.1-0.2,0.1
	c-0.2,0-0.3,0-0.3-0.2c0-0.1,0-0.3,0.1-0.4c0.1-0.7,0.2-1.4,0.4-2.1c0-0.1,0-0.1,0-0.1C1.3,4.5,0.8,4,0.2,3.4C0.1,3.3,0.1,3.2,0,3.2
	V3.1C0.1,3,0.2,2.9,0.3,2.9c0.5-0.1,1-0.2,1.6-0.2c0.3,0,0.6-0.1,0.9-0.1c0,0,0.1,0,0.1-0.1C3.3,1.8,3.6,1.1,4,0.3
	c0-0.1,0.1-0.1,0.1-0.2C4.2,0,4.3,0,4.4,0.1c0,0,0.1,0.1,0.1,0.2C4.9,1,5.2,1.7,5.6,2.5c0,0.1,0.1,0.1,0.1,0.1
	C6.5,2.7,7.3,2.8,8.1,3C7.9,3,8,3,8,3.2L8,3.2z M6.9,3.5L6.9,3.5c-0.7-0.1-1.4-0.2-2-0.3c-0.1,0-0.1,0-0.1-0.1
	C4.5,2.5,4.2,1.9,3.9,1.4V1.3v0.1C3.6,2,3.3,2.6,3,3.1L2.9,3.2C2.3,3.3,1.8,3.4,1.2,3.4c-0.1,0-0.2,0-0.4,0.1l0.1,0.1
	C1.4,4.1,1.8,4.5,2.3,5c0,0,0.1,0.1,0,0.1C2.2,5.6,2.1,6.1,2,6.6c0,0.2-0.1,0.3-0.1,0.5C2,7.1,2,7.1,2,7c0.6-0.3,1.1-0.6,1.7-0.9
	c0.1,0,0.1,0,0.1,0C4.4,6.4,4.9,6.7,5.5,7h0.1l0,0C5.5,6.3,5.4,5.7,5.3,5c0-0.1,0-0.1,0-0.1C5.9,4.4,6.4,4,6.9,3.5L6.9,3.5z"/>
</svg>
