<?xml version="1.0" encoding="utf-8"?>
<!-- Generator: Adobe Illustrator 23.0.3, SVG Export Plug-In . SVG Version: 6.00 Build 0)  -->
<svg version="1.1" id="Layer_1" xmlns="http://www.w3.org/2000/svg" xmlns:xlink="http://www.w3.org/1999/xlink" x="0px" y="0px"
	 viewBox="0 0 3.9 6.6" style="enable-background:new 0 0 3.9 6.6;" xml:space="preserve">
<path d="M3.5,2.8C3.3,3.2,3,3.5,2.7,3.7S2.1,4,1.8,4S1.2,3.9,0.9,3.7S0.4,3.3,0.2,3S0,2.3,0,2c0-0.5,0.2-1,0.5-1.4S1.3,0,1.8,0
	c0.4,0,0.7,0.1,1.1,0.4c0.3,0.2,0.6,0.6,0.7,1c0.2,0.6,0.3,1.3,0.3,2c0,0.6-0.1,1.1-0.3,1.5C3.5,5.2,3.3,5.4,3,5.7
	C2.8,6,2.5,6.2,2.2,6.3C1.8,6.5,1.3,6.6,0.9,6.6c-0.3,0-0.6-0.1-0.7-0.2S0.1,6.3,0.1,6.2s0-0.1,0.1-0.1L0.3,6c0,0,0.1,0,0.2,0.1
	S0.8,6.2,1,6.2c0.7,0,1.3-0.3,1.8-0.8s0.8-1.2,0.8-1.9C3.5,3.3,3.5,3.1,3.5,2.8z M3.4,2.1C3.2,1.4,3,1,2.7,0.7
	C2.4,0.5,2.1,0.3,1.8,0.3c-0.4,0-0.7,0.2-0.9,0.5C0.6,1.1,0.5,1.5,0.5,2s0.1,0.8,0.4,1.1s0.6,0.5,0.9,0.5c0.2,0,0.4-0.1,0.6-0.2
	c0.2-0.1,0.4-0.3,0.5-0.5C3,2.8,3.2,2.5,3.4,2.1z"/>
</svg>
