<?xml version="1.0" encoding="utf-8"?>
<!-- Generator: Adobe Illustrator 23.0.3, SVG Export Plug-In . SVG Version: 6.00 Build 0)  -->
<svg version="1.1" id="Layer_1" xmlns="http://www.w3.org/2000/svg" xmlns:xlink="http://www.w3.org/1999/xlink" x="0px" y="0px"
	 viewBox="0 0 6 8" style="enable-background:new 0 0 6 8;" xml:space="preserve">
<path d="M0.9,1.9v0.4C1.3,1.9,1.6,1.7,2,1.7c0.2,0,0.4,0.1,0.6,0.2C2.8,2,2.9,2.2,3,2.4C3.1,2.2,3.3,2,3.5,1.9
	c0.2-0.1,0.4-0.2,0.6-0.2c0.3,0,0.6,0.1,0.7,0.3C5,2.3,5.2,2.5,5.2,2.8v2.9h0.4c0.1,0,0.2,0,0.2,0.1c0,0,0.1,0.1,0.1,0.2
	c0,0.1,0,0.1-0.1,0.2c0,0-0.1,0.1-0.2,0.1H4.8V3c0-0.2-0.1-0.4-0.2-0.5C4.5,2.4,4.2,2.2,4.1,2.2c-0.2,0-0.3,0.1-0.5,0.2
	C3.4,2.5,3.2,2.7,3,3.1v2.7h0.4c0.1,0,0.2,0,0.2,0.1c0,0,0.1,0.1,0.1,0.2s0,0.1-0.1,0.2c0,0-0.1,0.1-0.2,0.1H2.7V3.2
	c0-0.2-0.1-0.4-0.2-0.6C2.4,2.5,2.2,2.4,2.1,2.4c-0.2,0-0.3,0-0.4,0.1C1.5,2.6,1.3,2.9,1.1,3.2v2.7h0.4c0.1,0,0.2,0,0.2,0.1
	c0,0,0.1,0.1,0.1,0.2s0,0.1-0.1,0.2c0,0-0.1,0.1-0.2,0.1H0.4c-0.1,0-0.2,0-0.2-0.1c0,0-0.1-0.1-0.1-0.2s0-0.1,0.1-0.2
	c0,0,0.1-0.1,0.2-0.1h0.4V2.5H0.4c-0.1,0-0.2,0-0.2-0.1c0,0-0.1-0.1-0.1-0.2c0-0.1,0-0.1,0.1-0.2c0,0,0.1-0.1,0.2-0.1
	C0.4,1.9,0.9,1.9,0.9,1.9z"/>
</svg>
