<?xml version="1.0" encoding="utf-8"?>
<!-- Generator: Adobe Illustrator 23.0.3, SVG Export Plug-In . SVG Version: 6.00 Build 0)  -->
<svg version="1.1" id="Layer_1" xmlns="http://www.w3.org/2000/svg" xmlns:xlink="http://www.w3.org/1999/xlink" x="0px" y="0px"
	 viewBox="0 0 6 8" style="enable-background:new 0 0 6 8;" xml:space="preserve">
<path d="M1.7,1.8v0.7C2,2.3,2.2,2.1,2.5,1.9S3,1.8,3.4,1.8S4.1,1.8,4.4,2C4.8,2.2,5,2.5,5.1,2.7s0.3,0.6,0.3,1c0,0.5-0.2,1-0.6,1.4
	C4.4,5.5,3.9,5.7,3.4,5.7c-0.7,0-1.3-0.3-1.6-0.8v2.3h0.9c0.1,0,0.2,0,0.2,0.1c0,0,0.1,0.1,0.1,0.2c0,0.1,0,0.1-0.1,0.2
	c0,0-0.1,0.1-0.2,0.1H0.9c-0.1,0-0.2,0-0.2-0.1c0,0-0.1-0.1-0.1-0.2c0-0.1,0-0.1,0.1-0.2c0,0,0.1-0.1,0.2-0.1h0.5V2.3H0.9
	c-0.1,0-0.2,0-0.2-0.1c0,0-0.1-0.1-0.1-0.2s0-0.1,0.1-0.2c0,0,0.1-0.1,0.2-0.1L1.7,1.8L1.7,1.8z M5,3.6c0-0.4-0.2-0.8-0.4-1.2
	C4.2,2.2,3.8,2,3.4,2S2.5,2.2,2.2,2.5C1.8,2.8,1.7,3.2,1.7,3.6s0.2,0.8,0.4,1.2c0.4,0.4,0.7,0.4,1.2,0.4s0.8-0.2,1.2-0.4
	C4.9,4.4,5,4.1,5,3.6z"/>
</svg>
