<?xml version="1.0" encoding="utf-8"?>
<!-- Generator: Adobe Illustrator 23.0.3, SVG Export Plug-In . SVG Version: 6.00 Build 0)  -->
<svg version="1.1" id="Layer_1" xmlns="http://www.w3.org/2000/svg" xmlns:xlink="http://www.w3.org/1999/xlink" x="0px" y="0px"
	 viewBox="0 0 6 8" style="enable-background:new 0 0 6 8;" xml:space="preserve">
<path d="M2.1,1.9h2.3c0.1,0,0.2,0,0.2,0.1c0,0,0.1,0.1,0.1,0.2s0,0.1-0.1,0.2c0,0-0.1,0.1-0.2,0.1H2.1v2.8c0,0.2,0.1,0.5,0.3,0.6
	c0.2,0.2,0.5,0.2,0.9,0.2c0.3,0,0.6,0,0.9-0.1S4.8,5.8,5,5.7c0.1,0,0.1-0.1,0.2-0.1s0.1,0,0.1,0.1l0.1,0.1c0,0.1,0,0.1-0.1,0.1
	C5.2,6,4.9,6.1,4.5,6.3C4.1,6.4,3.7,6.5,3.3,6.5c-0.5,0-0.9-0.1-1.2-0.3S1.7,5.7,1.7,5.3V2.5H0.9c-0.1,0-0.2,0-0.2-0.1
	c0,0-0.1-0.1-0.1-0.2c0-0.1,0-0.1,0.1-0.2c0,0,0.1-0.1,0.2-0.1h0.8V0.6c0-0.1,0-0.2,0.1-0.2c0,0,0.1-0.1,0.2-0.1
	c0.1,0,0.1,0,0.2,0.1c0,0,0.1,0.1,0.1,0.2v1.3C2.3,1.9,2.1,1.9,2.1,1.9z"/>
</svg>
