<?xml version="1.0" encoding="utf-8"?>
<!-- Generator: Adobe Illustrator 23.0.3, SVG Export Plug-In . SVG Version: 6.00 Build 0)  -->
<svg version="1.1" id="Layer_1" xmlns="http://www.w3.org/2000/svg" xmlns:xlink="http://www.w3.org/1999/xlink" x="0px" y="0px"
	 viewBox="0 0 5.2 7.3" style="enable-background:new 0 0 5.2 7.3;" xml:space="preserve">
<path d="M2.6,6.1L2,6.5c0.3-0.1,0.5-0.1,0.7-0.1c0.3,0,0.6,0.1,0.9,0.2C3.8,6.7,4,6.7,4.1,6.7c0.2,0,0.4-0.1,0.7-0.2
	C4.9,6.4,5,6.4,5,6.4c0.1,0,0.1,0,0.1,0.1c0,0,0.1,0.1,0.1,0.2s0,0.1-0.1,0.1C5,6.9,4.9,7,4.6,7.1C4.4,7.2,4.2,7.2,4,7.2
	c-0.1,0-0.3,0-0.6-0.1C3.2,7,2.9,7,2.7,7S2.3,7,2.1,7.1C1.8,7.2,1.5,7.2,1.3,7.3c-0.1,0-0.1,0-0.1,0c-0.1,0-0.1,0-0.1-0.1
	C1.1,7.2,1,7.1,1,7s0-0.1,0.1-0.2L2,6.1C1.4,6,1,5.6,0.6,5.1C0.2,4.5,0,3.9,0,3.1c0-0.9,0.3-1.7,0.8-2.2C1.3,0.3,1.9,0,2.6,0
	s1.3,0.3,1.8,0.9s0.8,1.3,0.8,2.2S4.9,4.7,4.4,5.3C3.9,5.8,3.3,6.1,2.6,6.1z M4.7,3c0-0.7-0.2-1.3-0.6-1.9C3.7,0.6,3.2,0.3,2.5,0.3
	C1.9,0.3,1.4,0.6,1,1.1S0.4,2.3,0.4,3c0,0.8,0.2,1.4,0.7,1.9C1.5,5.4,2,5.7,2.6,5.7s1.2-0.3,1.6-0.8C4.5,4.3,4.7,3.6,4.7,3z"/>
</svg>
