<?xml version="1.0" encoding="utf-8"?>
<!-- Generator: Adobe Illustrator 23.0.3, SVG Export Plug-In . SVG Version: 6.00 Build 0)  -->
<svg version="1.1" id="Layer_1" xmlns="http://www.w3.org/2000/svg" xmlns:xlink="http://www.w3.org/1999/xlink" x="0px" y="0px"
	 viewBox="0 0 6.1 5.9" style="enable-background:new 0 0 6.1 5.9;" xml:space="preserve">
<path d="M3.3,5.9H2.7L0.6,0.4H0.3c-0.1,0-0.1,0-0.2,0c0,0-0.1,0-0.1-0.1V0.2V0.1C0,0.1,0,0,0.1,0c0,0,0.1,0,0.2,0h1.6C2,0,2,0,2.1,0
	c0,0,0.1,0,0.1,0.1v0.1v0.1L2.1,0.4c0,0-0.1,0-0.2,0H1.1l2,5.1l0,0L5,0.4H4.2c-0.1,0-0.1,0-0.2,0c0,0-0.1,0-0.1-0.1V0.2V0.1L4,0
	c0,0,0.1,0,0.2,0h1.6C5.9,0,5.9,0,6,0c0,0,0.1,0,0.1,0.1v0.1v0.1L6,0.4c0,0-0.1,0-0.2,0H5.5L3.3,5.9z"/>
</svg>
