<?xml version="1.0" encoding="utf-8"?>
<!-- Generator: Adobe Illustrator 23.0.3, SVG Export Plug-In . SVG Version: 6.00 Build 0)  -->
<svg version="1.1" id="Layer_1" xmlns="http://www.w3.org/2000/svg" xmlns:xlink="http://www.w3.org/1999/xlink" x="0px" y="0px"
	 viewBox="0 0 6 8" style="enable-background:new 0 0 6 8;" xml:space="preserve">
<path d="M4.3,2.3c0-0.1,0-0.2,0.1-0.2c0,0,0.1-0.1,0.2-0.1s0.1,0,0.2,0.1c0,0,0.1,0.1,0.1,0.2V3c0,0.1,0,0.2-0.1,0.2
	c0,0-0.1,0.1-0.2,0.1c-0.1,0-0.1,0-0.1-0.1c0,0-0.1-0.1-0.1-0.2c0-0.2-0.1-0.4-0.3-0.5C3.8,2.3,3.5,2.2,3,2.2S2.3,2.3,2,2.5
	C1.8,2.6,1.7,2.8,1.7,3c0,0.2,0.1,0.4,0.4,0.5C2.3,3.6,2.6,3.7,3,3.7c0.6,0.1,1,0.1,1.1,0.2C4.4,4,4.7,4.1,4.8,4.3C5,4.5,5,4.7,5,5
	c0,0.4-0.2,0.7-0.5,1C4.2,6.3,3.6,6.4,3,6.4c-0.7,0-1.1-0.2-1.5-0.5c0,0.1,0,0.2,0,0.2s0,0.1-0.1,0.1H1.3c-0.1,0-0.1,0-0.2-0.1
	C1.1,6.1,1,6,1,5.9V5c0-0.1,0-0.2,0.1-0.2c0,0,0.1-0.1,0.2-0.1c0.1,0,0.1,0,0.2,0.1c0,0,0.1,0.1,0.1,0.2c0,0.2,0,0.3,0.1,0.4
	C1.8,5.6,2,5.7,2.3,5.8S2.9,6,3.1,6c0.6,0,1-0.1,1.1-0.3C4.6,5.5,4.7,5.3,4.7,5c0-0.3-0.1-0.5-0.4-0.6C4,4.2,3.6,4.1,3.1,4.1
	C2.7,4.1,2.3,4.1,2.1,4C1.9,3.9,1.7,3.8,1.6,3.6C1.5,3.4,1.4,3.2,1.4,3c0-0.4,0.2-0.7,0.5-0.9c0.4-0.2,0.8-0.3,1.2-0.3
	C3.4,1.9,3.9,2.1,4.3,2.3z"/>
</svg>
