<?xml version="1.0" encoding="utf-8"?>
<!-- Generator: Adobe Illustrator 23.0.3, SVG Export Plug-In . SVG Version: 6.00 Build 0)  -->
<svg version="1.1" id="Layer_1" xmlns="http://www.w3.org/2000/svg" xmlns:xlink="http://www.w3.org/1999/xlink" x="0px" y="0px"
	 viewBox="0 0 6 8" style="enable-background:new 0 0 6 8;" xml:space="preserve">
<path d="M1.6,0.4v2.7c0.5-0.7,1.1-1,1.8-1C4,2.2,4.6,2.4,5,2.9c0.4,0.4,0.7,1,0.7,1.7c0,0.7-0.2,1.2-0.7,1.7C4.6,6.7,4,6.8,3.4,6.8
	c-0.7,0-1.4-0.3-1.8-1v0.8h-1c-0.1,0-0.2,0-0.2-0.1c0,0-0.1-0.1-0.1-0.2s0-0.1,0.1-0.2c0,0,0.1-0.1,0.2-0.1h0.6V0.8H0.6
	c-0.1,0-0.2,0-0.2-0.1c0,0-0.1-0.1-0.1-0.2s0-0.1,0.1-0.2c0,0,0.1-0.1,0.2-0.1h1V0.4z M5.2,4.5c0-0.5-0.2-1-0.6-1.4S3.8,2.6,3.3,2.6
	S2.5,2.8,2.1,3.2S1.5,3.9,1.5,4.5c0,0.5,0.2,1,0.6,1.4s0.8,0.6,1.3,0.6s0.9-0.2,1.3-0.6C5,5.5,5.2,5,5.2,4.5z"/>
</svg>
