<?xml version="1.0" encoding="utf-8"?>
<!-- Generator: Adobe Illustrator 23.0.3, SVG Export Plug-In . SVG Version: 6.00 Build 0)  -->
<svg version="1.1" id="Layer_1" xmlns="http://www.w3.org/2000/svg" xmlns:xlink="http://www.w3.org/1999/xlink" x="0px" y="0px"
	 viewBox="0 0 5.5 6.3" style="enable-background:new 0 0 5.5 6.3;" xml:space="preserve">
<path d="M1.3,3.8v1.9h0.8c0.1,0,0.2,0,0.2,0.1c0,0,0.1,0.1,0.1,0.2s0,0.1-0.1,0.2c0,0-0.1,0.1-0.2,0.1H0.3c-0.1,0-0.2,0-0.2-0.1
	C0.1,6.2,0,6.1,0,6s0-0.1,0.1-0.2c0,0,0.1-0.1,0.2-0.1h0.6V0.6H0.3c-0.1,0-0.2,0-0.2-0.1c0,0-0.1-0.1-0.1-0.2s0-0.1,0.1-0.2
	c0,0,0.1-0.1,0.2-0.1h1.8c0.1,0,0.2,0,0.2,0.1c0,0,0.1,0.1,0.1,0.2s0,0.1-0.1,0.2c0,0-0.1,0.1-0.2,0.1H1.3v2.6l2.9-2.6H3.7
	c-0.1,0-0.2,0-0.2-0.1c0,0-0.1-0.1-0.1-0.2s0-0.1,0.1-0.2c0,0,0.1-0.1,0.2-0.1h1.2C5,0,5.1,0,5.1,0.1c0,0,0.1,0.1,0.1,0.2
	s0,0.1-0.1,0.2c0,0-0.1,0.1-0.2,0.1H4.7L2.4,2.7C2.7,2.8,3,3,3.3,3.2C3.5,3.4,3.7,3.7,4,4.1c0.1,0.2,0.3,0.7,0.7,1.5h0.5
	c0.1,0,0.2,0,0.2,0.1c0,0,0.1,0.1,0.1,0.2s0,0.1-0.1,0.2c0,0-0.1,0.1-0.2,0.1H4.4C4,5,3.6,4.2,3.3,3.9C3,3.6,2.6,3.3,2.2,3.2
	L1.3,3.8z"/>
</svg>
