<?xml version="1.0" encoding="utf-8"?>
<!-- Generator: Adobe Illustrator 23.0.3, SVG Export Plug-In . SVG Version: 6.00 Build 0)  -->
<svg version="1.1" id="Layer_1" xmlns="http://www.w3.org/2000/svg" xmlns:xlink="http://www.w3.org/1999/xlink" x="0px" y="0px"
	 viewBox="0 0 5 5.9" style="enable-background:new 0 0 5 5.9;" xml:space="preserve">
<path d="M0.6,5.5V0.4H0.3c-0.1,0-0.2,0-0.2-0.1C0,0.3,0,0.3,0,0.2S0,0.1,0.1,0c0,0,0.1,0,0.2,0h2.3c0.4,0,0.7,0.1,1,0.2
	s0.5,0.3,0.7,0.5c0.3,0.3,0.5,0.7,0.6,1C4.9,2,5,2.3,5,2.7v0.6c0,0.4-0.1,0.9-0.3,1.3C4.5,5,4.2,5.4,3.7,5.7C3.4,5.8,3,5.9,2.6,5.9
	H0.3c-0.1,0-0.2,0-0.2-0.1C0,5.8,0,5.8,0,5.7c0-0.1,0-0.1,0.1-0.2c0,0,0.1-0.1,0.2-0.1L0.6,5.5L0.6,5.5z M1.1,5.5h1.5
	c0.4,0,0.7-0.1,1-0.3C3.9,5,4.1,4.7,4.3,4.4s0.2-0.6,0.2-1V2.6c0-0.3,0-0.5-0.1-0.7C4.3,1.6,4.1,1.3,3.9,1C3.8,0.9,3.6,0.7,3.4,0.6
	C3.1,0.5,2.9,0.4,2.6,0.4H1.1V5.5z"/>
</svg>
