<?xml version="1.0" encoding="utf-8"?>
<!-- Generator: Adobe Illustrator 23.0.3, SVG Export Plug-In . SVG Version: 6.00 Build 0)  -->
<svg version="1.1" id="Layer_1" xmlns="http://www.w3.org/2000/svg" xmlns:xlink="http://www.w3.org/1999/xlink" x="0px" y="0px"
	 viewBox="0 0 6 8" style="enable-background:new 0 0 6 8;" xml:space="preserve">
<path d="M4.3,2.1V1.3h1c0.1,0,0.2,0,0.2,0.1c0,0,0.1,0.1,0.1,0.2c0,0.1,0,0.1-0.1,0.2c0,0-0.1,0.1-0.2,0.1H4.7v4.1
	c0,0.3-0.1,0.5-0.2,0.8C4.4,7,4.3,7.2,4.1,7.4C3.9,7.6,3.7,7.7,3.6,7.7C3.4,7.8,3.2,7.8,3,7.8H1.8c-0.1,0-0.2,0-0.2-0.1
	c0,0-0.1-0.1-0.1-0.2s0-0.1,0.1-0.2c0,0,0.1-0.1,0.2-0.1H3c0.2,0,0.5-0.1,0.7-0.2c0.2-0.1,0.4-0.3,0.5-0.6c0.1-0.1,0.1-0.3,0.1-0.5
	V4.6c-0.5,0.6-1,0.9-1.8,0.9C1.9,5.5,1.4,5.3,1,4.9c-0.4-0.4-0.6-1-0.6-1.6S0.6,2.2,1,1.7c0.4-0.4,0.9-0.6,1.5-0.6
	C3.3,1.1,3.9,1.4,4.3,2.1z M4.3,3.3c0-0.5-0.2-0.9-0.5-1.3C3.5,1.7,3,1.5,2.6,1.5C2.1,1.5,1.7,1.7,1.4,2S0.9,2.8,0.9,3.3
	s0.2,0.9,0.5,1.3c0.3,0.3,0.7,0.5,1.2,0.5s0.9-0.2,1.2-0.5C4.1,4.2,4.3,3.8,4.3,3.3z"/>
</svg>
