<?xml version="1.0" encoding="utf-8"?>
<!-- Generator: Adobe Illustrator 23.0.3, SVG Export Plug-In . SVG Version: 6.00 Build 0)  -->
<svg version="1.1" id="Layer_1" xmlns="http://www.w3.org/2000/svg" xmlns:xlink="http://www.w3.org/1999/xlink" x="0px" y="0px"
	 viewBox="0 0 6 8" style="enable-background:new 0 0 6 8;" xml:space="preserve">
<path d="M1.7,2v0.6C1.9,2.3,2.2,2.1,2.4,2c0.2-0.1,0.5-0.2,0.8-0.2S3.8,1.9,4.1,2c0.2,0.1,0.4,0.3,0.5,0.5C4.7,2.7,4.7,3,4.7,3.2
	v2.6h0.4c0.1,0,0.2,0,0.2,0.1c0,0,0.1,0.1,0.1,0.2s0,0.1-0.1,0.2c0,0-0.1,0.1-0.2,0.1H4.1c-0.1,0-0.2,0-0.2-0.1c0,0-0.1-0.1-0.1-0.2
	s0-0.1,0.1-0.2c0,0,0.1-0.1,0.2-0.1h0.4V3.3c0-0.3-0.1-0.6-0.3-0.8C4,2.3,3.7,2.2,3.3,2.2C3,2.2,2.8,2.3,2.6,2.4
	C2.4,2.5,2.1,2.8,1.8,3.2v2.6h0.5c0.1,0,0.2,0,0.2,0.1c0,0,0.1,0.1,0.1,0.2s0,0.1-0.1,0.2c0,0-0.1,0.1-0.2,0.1H0.9
	c-0.1,0-0.2,0-0.2-0.1c0,0-0.1-0.1-0.1-0.2s0-0.1,0.1-0.2c0,0,0.1-0.1,0.2-0.1h0.5V2.4H1c-0.1,0-0.2,0-0.2-0.1c0,0-0.1-0.1-0.1-0.2
	c0-0.1,0-0.1,0.1-0.2c0,0,0.1-0.1,0.2-0.1h0.7C1.7,1.9,1.7,2,1.7,2z"/>
</svg>
