<?xml version="1.0" encoding="utf-8"?>
<!-- Generator: Adobe Illustrator 23.0.3, SVG Export Plug-In . SVG Version: 6.00 Build 0)  -->
<svg version="1.1" id="Layer_1" xmlns="http://www.w3.org/2000/svg" xmlns:xlink="http://www.w3.org/1999/xlink" x="0px" y="0px"
	 viewBox="0 0 6 8" style="enable-background:new 0 0 6 8;" xml:space="preserve">
<path d="M4.3,2.5V1.8h0.9c0.1,0,0.2,0,0.2,0.1c0,0,0.1,0.1,0.1,0.2c0,0.1,0,0.1-0.1,0.2c0,0-0.1,0.1-0.2,0.1H4.6v4.9h0.5
	c0.1,0,0.2,0,0.2,0.1c0,0,0.1,0.1,0.1,0.2c0,0.1,0,0.1-0.1,0.2c0,0-0.1,0.1-0.2,0.1H3.4c-0.1,0-0.2,0-0.2-0.1c0,0-0.1-0.1-0.1-0.2
	c0-0.1,0-0.1,0.1-0.2c0,0,0.1-0.1,0.2-0.1h0.9V4.9c-0.4,0.5-1,0.8-1.6,0.8c-0.5,0-1.1-0.2-1.4-0.5S0.6,4.3,0.6,3.7s0.2-1,0.6-1.4
	c0.4-0.4,0.9-0.5,1.4-0.5C3.3,1.7,3.8,1.9,4.3,2.5z M4.3,3.6c0-0.4-0.2-0.8-0.4-1.2C3.4,2.2,3.1,2,2.6,2S1.8,2.2,1.5,2.5
	S1,3.2,1,3.6s0.2,0.8,0.4,1.2c0.4,0.4,0.7,0.4,1.2,0.4s0.8-0.2,1.2-0.4C4.1,4.4,4.3,4.1,4.3,3.6z"/>
</svg>
