<?xml version="1.0" encoding="utf-8"?>
<!-- Generator: Adobe Illustrator 23.0.3, SVG Export Plug-In . SVG Version: 6.00 Build 0)  -->
<svg version="1.1" id="Layer_1" xmlns="http://www.w3.org/2000/svg" xmlns:xlink="http://www.w3.org/1999/xlink" x="0px" y="0px"
	 viewBox="0 0 6 8" style="enable-background:new 0 0 6 8;" xml:space="preserve">
<path d="M5.3,4H1.1c0.1,0.5,0.3,1,0.7,1.2c0.4,0.3,0.9,0.5,1.3,0.5c0.3,0,0.6-0.1,1-0.2c0.3-0.1,0.6-0.2,0.8-0.4
	C5,5.1,5,5.1,5.1,5.1s0.1,0,0.1,0.1l0.1,0.1c0,0.1,0,0.1-0.1,0.2C5.1,5.7,4.8,5.8,4.4,6C4,6.1,3.6,6.2,3.1,6.2
	C2.5,6.2,1.9,6,1.4,5.5S0.8,4.4,0.8,3.9s0.2-1.1,0.7-1.5c0.5-0.4,1-0.7,1.6-0.7s1.2,0.2,1.6,0.7C5.1,2.7,5.3,3.3,5.3,4z M4.9,3.6
	C4.8,3.1,4.6,2.8,4.2,2.5S3.4,2.1,3,2.1S2.1,2.2,1.7,2.5S1.1,3.2,1,3.6H4.9z"/>
</svg>
