<?xml version="1.0" encoding="utf-8"?>
<!-- Generator: Adobe Illustrator 23.0.3, SVG Export Plug-In . SVG Version: 6.00 Build 0)  -->
<svg version="1.1" id="Layer_1" xmlns="http://www.w3.org/2000/svg" xmlns:xlink="http://www.w3.org/1999/xlink" x="0px" y="0px"
	 viewBox="0 0 5.2 6.1" style="enable-background:new 0 0 5.2 6.1;" xml:space="preserve">
<path d="M1.8,0.6v5.1h2.8V4c0-0.1,0-0.2,0.1-0.2c0,0,0.1-0.1,0.2-0.1s0.1,0,0.2,0.1c0,0,0.1,0.1,0.1,0.2v2.1H0.5c-0.3,0-0.3,0-0.4,0
	C0.1,6.1,0,6,0,5.9s0-0.1,0.1-0.2c0,0,0.1-0.1,0.2-0.1h1v-5h-1c-0.1,0-0.2,0-0.2-0.1c0,0-0.1-0.1-0.1-0.2s0-0.1,0.1-0.2
	c0,0,0.1-0.1,0.2-0.1h2.5C2.9,0,3,0,3,0.1c0,0,0.1,0.1,0.1,0.2s0,0.1-0.1,0.2c0,0-0.1,0.1-0.2,0.1H1.8z"/>
</svg>
