<?xml version="1.0" encoding="utf-8"?>
<!-- Generator: Adobe Illustrator 23.0.3, SVG Export Plug-In . SVG Version: 6.00 Build 0)  -->
<svg version="1.1" id="Layer_1" xmlns="http://www.w3.org/2000/svg" xmlns:xlink="http://www.w3.org/1999/xlink" x="0px" y="0px"
	 viewBox="0 0 6 8" style="enable-background:new 0 0 6 8;" xml:space="preserve">
<path d="M5,2.9V4C5,5,4.8,5.6,4.3,6.2C4,6.6,3.5,6.8,3,6.8c-0.2,0-0.5,0-0.7-0.1C2.2,6.7,1.9,6.5,1.7,6.3C1.6,6.2,1.5,6,1.4,5.8
	C1.3,5.6,1.2,5.3,1.1,5.1C1,4.8,1,4.5,1,4.1V3C1,2,1.2,1.4,1.7,0.8C2,0.4,2.5,0.3,3,0.3c0.3,0,0.5,0,0.7,0.1S4,0.5,4.2,0.7
	C4.3,0.8,4.4,1,4.5,1.2c0.1,0.2,0.3,0.5,0.4,0.8C5,2.2,5,2.5,5,2.9z M4.6,3c0-0.4-0.1-0.8-0.2-1.1S4.2,1.3,4,1.1
	C3.9,1,3.8,0.9,3.7,0.8C3.5,0.7,3.3,0.6,3.1,0.6C2.6,0.6,2.3,0.8,2,1.3S1.6,2.4,1.6,3v0.9c0,0.4,0.1,0.8,0.2,1.1
	C1.9,5.3,2,5.6,2.2,5.8C2.3,5.9,2.4,6,2.5,6.1c0.2,0.1,0.4,0.2,0.7,0.2c0.5,0,0.8-0.2,1.1-0.7c0.4-0.5,0.4-1.1,0.4-1.7L4.6,3L4.6,3z
	"/>
</svg>
