<?xml version="1.0" encoding="utf-8"?>
<!-- Generator: Adobe Illustrator 23.0.3, SVG Export Plug-In . SVG Version: 6.00 Build 0)  -->
<svg version="1.1" id="Layer_1" xmlns="http://www.w3.org/2000/svg" xmlns:xlink="http://www.w3.org/1999/xlink" x="0px" y="0px"
	 viewBox="0 0 6 8" style="enable-background:new 0 0 6 8;" xml:space="preserve">
<path d="M1.7,0.4V3C2,2.7,2.2,2.5,2.5,2.4C2.7,2.3,3,2.2,3.2,2.2S3.8,2.3,4,2.4c0.2,0.1,0.4,0.3,0.6,0.5s0.2,0.5,0.2,0.8v2.6h0.5
	c0.1,0,0.2,0,0.2,0.1c0,0,0.1,0.1,0.1,0.2s0,0.1-0.1,0.2c0,0-0.1,0.1-0.2,0.1H3.9c-0.1,0-0.2,0-0.2-0.1c0,0-0.1-0.1-0.1-0.2
	s0-0.1,0.1-0.2c0,0,0.1-0.1,0.2-0.1h0.5V3.7c0-0.3-0.1-0.6-0.3-0.8C3.9,2.7,3.6,2.6,3.2,2.6C3,2.6,2.7,2.7,2.5,2.8
	C2.3,2.9,2.1,3.2,1.7,3.6v2.7h0.5c0.1,0,0.2,0,0.2,0.1c0,0,0.1,0.1,0.1,0.2s0,0.1-0.1,0.2c0,0-0.1,0.1-0.2,0.1H0.8
	c-0.1,0-0.2,0-0.2-0.1c0,0-0.1-0.1-0.1-0.2s0-0.1,0.1-0.2c0,0,0.1-0.1,0.2-0.1h0.5V0.8H0.7c-0.1,0-0.2,0-0.2-0.1
	c0,0-0.1-0.1-0.1-0.2s0-0.1,0.1-0.2c0,0,0.1-0.1,0.2-0.1h1V0.4L1.7,0.4z"/>
</svg>
