<?xml version="1.0" encoding="utf-8"?>
<!-- Generator: Adobe Illustrator 23.0.3, SVG Export Plug-In . SVG Version: 6.00 Build 0)  -->
<svg version="1.1" id="Layer_1" xmlns="http://www.w3.org/2000/svg" xmlns:xlink="http://www.w3.org/1999/xlink" x="0px" y="0px"
	 viewBox="0 0 6 8" style="enable-background:new 0 0 6 8;" xml:space="preserve">
<path d="M5.3,4.2c0,0.6-0.2,1.1-0.7,1.6S3.7,6.4,3,6.4S1.9,6.2,1.4,5.7S0.8,4.8,0.8,4.2c0-0.6,0.2-1.1,0.7-1.6S2.3,1.9,3,1.9
	s1.1,0.2,1.6,0.7S5.3,3.5,5.3,4.2z M4.9,4.2c0-0.5-0.2-0.9-0.6-1.3S3.6,2.3,3,2.3c-0.5,0-0.9,0.2-1.3,0.6S1.1,3.6,1.1,4.2
	c0,0.5,0.2,0.9,0.6,1.3S2.4,6,3,6c0.5,0,0.9-0.2,1.3-0.6C4.7,5,4.9,4.6,4.9,4.2z"/>
</svg>
