<?xml version="1.0" encoding="utf-8"?>
<!-- Generator: Adobe Illustrator 23.0.3, SVG Export Plug-In . SVG Version: 6.00 Build 0)  -->
<svg version="1.1" id="Layer_1" xmlns="http://www.w3.org/2000/svg" xmlns:xlink="http://www.w3.org/1999/xlink" x="0px" y="0px"
	 viewBox="0 0 6 8" style="enable-background:new 0 0 6 8;" xml:space="preserve">
<style type="text/css">
	.st0{fill:#231F20;}
</style>
<path class="st0" d="M3.3,3.8l2,1.9c0.1,0,0.2,0,0.2,0c0,0,0.1,0,0.1,0.1c0,0,0,0.1,0,0.1c0,0.1,0,0.1-0.1,0.2c0,0-0.1,0.1-0.2,0.1
	H4c-0.1,0-0.2,0-0.2-0.1c0,0-0.1-0.1-0.1-0.2c0-0.1,0-0.1,0.1-0.2c0,0,0.1-0.1,0.2-0.1h0.7L3,4.1L1.3,5.7H2c0.1,0,0.2,0,0.2,0.1
	c0,0,0.1,0.1,0.1,0.2c0,0.1,0,0.1-0.1,0.2c0,0-0.1,0.1-0.2,0.1H0.6c-0.1,0-0.2,0-0.2-0.1c0,0-0.1-0.1-0.1-0.2c0,0,0-0.1,0-0.1
	c0,0,0.1-0.1,0.1-0.1c0,0,0.1,0,0.2,0l2-1.9L0.9,2.1c-0.1,0-0.2,0-0.2,0c0,0-0.1,0-0.1-0.1c0,0,0-0.1,0-0.1c0-0.1,0-0.1,0.1-0.2
	c0,0,0.1-0.1,0.2-0.1H2c0.1,0,0.2,0,0.2,0.1c0,0,0.1,0.1,0.1,0.2c0,0.1,0,0.1-0.1,0.2c0,0-0.1,0.1-0.2,0.1H1.5L3,3.5l1.5-1.4H4
	c-0.1,0-0.2,0-0.2-0.1c0,0-0.1-0.1-0.1-0.2c0-0.1,0-0.1,0.1-0.2c0,0,0.1-0.1,0.2-0.1h1.2c0.1,0,0.2,0,0.2,0.1c0,0,0.1,0.1,0.1,0.2
	c0,0,0,0.1,0,0.1c0,0-0.1,0.1-0.1,0.1c0,0-0.1,0-0.2,0L3.3,3.8z"/>
</svg>
