<?xml version="1.0" encoding="utf-8"?>
<!-- Generator: Adobe Illustrator 23.0.3, SVG Export Plug-In . SVG Version: 6.00 Build 0)  -->
<svg version="1.1" id="Layer_1" xmlns="http://www.w3.org/2000/svg" xmlns:xlink="http://www.w3.org/1999/xlink" x="0px" y="0px"
	 viewBox="0 0 6 8" style="enable-background:new 0 0 6 8;" xml:space="preserve">
<path d="M4.6,3.4L4.6,3.4c0-0.1,0-0.3,0.1-0.3L4.8,3C4.8,3,5,3,5,3.2l0.1,0.1v1c0,0.1,0,0.1-0.1,0.1L4.8,4.5c0,0-0.1,0-0.1-0.1
	L4.6,4.3c0-0.1-0.1-0.4-0.4-0.7C3.9,3.3,3.5,3.3,3.1,3.3C2.5,3.3,2,3.4,1.7,3.9S1.3,4.7,1.3,5.2c0,0.4,0.1,1,0.4,1.4
	C2.1,7,2.4,7,3.1,7c0.3,0,0.7-0.1,1-0.1s0.5-0.3,0.8-0.5C5,6.2,5,6.2,5,6.2c0.1,0,0.1,0,0.1,0.1l0.1,0.1c0,0.1-0.1,0.3-0.4,0.5
	C4.3,7.3,3.6,7.4,3.1,7.4C2.4,7.4,2,7.3,1.4,6.7C1,6.3,0.8,5.8,0.8,5.1S1,3.9,1.4,3.6c0.4-0.4,1-0.7,1.6-0.7S4.2,3,4.6,3.4z"/>
</svg>
