<?xml version="1.0" encoding="utf-8"?>
<!-- Generator: Adobe Illustrator 23.0.3, SVG Export Plug-In . SVG Version: 6.00 Build 0)  -->
<svg version="1.1" id="Layer_1" xmlns="http://www.w3.org/2000/svg" xmlns:xlink="http://www.w3.org/1999/xlink" x="0px" y="0px"
	 viewBox="0 0 6 8" style="enable-background:new 0 0 6 8;" xml:space="preserve">
<path d="M3.9,6.7V6.1C3.3,6.6,2.6,7,1.9,7c-0.6,0-1-0.1-1.3-0.4c-0.3-0.3-0.4-0.7-0.4-1c0-0.4,0.1-0.9,0.6-1.1s1-0.6,1.7-0.6
	c0.1,0,0.4,0,0.6,0C3.2,3.9,3.6,4,3.7,4V3.3c0.1-0.1,0.1-0.4-0.1-0.6C3.4,2.4,3,2.4,2.6,2.4c-0.3,0-0.9,0.1-1.4,0.3
	c-0.1,0-0.3,0-0.3,0c-0.1,0-0.1,0-0.1-0.1L0.6,2.4c0,0,0-0.1,0.1-0.1c0-0.1,0.1-0.1,0.6-0.1C1.9,2,2.3,2,2.6,2c0.6,0,1,0.1,1.3,0.4
	s0.4,0.6,0.4,1v2.9h0.6C5,6.3,5,6.3,5,6.4l0.1,0.1c0,0,0,0.1-0.1,0.1L4.9,6.9L3.9,6.7L3.9,6.7z M3.9,4.6C3.7,4.4,3.4,4.4,3.3,4.4
	c-0.1,0-0.6,0-0.7,0C2,4.4,1.4,4.6,1.1,4.9C0.7,5.1,0.7,5.3,0.7,5.6c0,0.3,0,0.6,0.3,0.7c0.1,0.1,0.6,0.3,1,0.3s0.7-0.1,1-0.1
	C3.3,6.3,3.6,6,4,5.7L3.9,4.6C4,4.6,3.9,4.6,3.9,4.6z"/>
</svg>
