<?xml version="1.0" encoding="utf-8"?>
<!-- Generator: Adobe Illustrator 23.0.3, SVG Export Plug-In . SVG Version: 6.00 Build 0)  -->
<svg version="1.1" id="Layer_1" xmlns="http://www.w3.org/2000/svg" xmlns:xlink="http://www.w3.org/1999/xlink" x="0px" y="0px"
	 viewBox="0 0 6 8" style="enable-background:new 0 0 6 8;" xml:space="preserve">
<path d="M2.5,2v1C3,2.6,3.4,2.3,3.6,2.1C3.9,2,4.1,1.9,4.4,1.9C4.6,1.9,4.8,2,5,2.2c0.2,0.2,0.3,0.3,0.3,0.4s0,0.1-0.1,0.2
	c0,0-0.1,0.1-0.2,0.1H4.9c0,0-0.1,0-0.1-0.1C4.7,2.7,4.6,2.6,4.5,2.6S4.4,2.5,4.3,2.5c-0.2,0-0.4,0.1-0.7,0.2S3,3.1,2.3,3.7v2.2h1.8
	c0.1,0,0.2,0,0.2,0.1c0,0,0.1,0.1,0.1,0.2s0,0.1-0.1,0.2c0,0-0.1,0.1-0.2,0.1H1c-0.1,0-0.2,0-0.2-0.1L0.7,6.2c0-0.1,0-0.1,0.1-0.1
	C0.8,6.1,0.9,6,1,6h0.9V2.7H1.4c-0.1,0-0.2,0-0.2-0.1c0,0-0.1-0.1-0.1-0.2s0-0.1,0.1-0.2c0,0,0.1-0.1,0.2-0.1h1.1
	C2.5,2.2,2.5,2,2.5,2z"/>
</svg>
