<?xml version="1.0" encoding="utf-8"?>
<!-- Generator: Adobe Illustrator 23.0.3, SVG Export Plug-In . SVG Version: 6.00 Build 0)  -->
<svg version="1.1" id="Layer_1" xmlns="http://www.w3.org/2000/svg" xmlns:xlink="http://www.w3.org/1999/xlink" x="0px" y="0px"
	 viewBox="0 0 4 7.2" style="enable-background:new 0 0 4 7.2;" xml:space="preserve">
<path d="M3.2,5L3.2,5C3.1,5,3,5,3,5C2.9,5,2.9,5,2.8,5C2.4,5,2,4.9,1.8,4.6C1.5,4.3,1.4,4,1.4,3.7c0-0.4,0.2-0.8,0.5-1.1
	s0.8-0.4,1.4-0.4V1.7C3.3,1.3,3.2,1,3,0.8S2.5,0.4,2.1,0.4c-0.2,0-0.5,0.1-0.7,0.2C1.3,0.7,1.1,0.8,1,0.9C0.8,1.1,0.7,1.4,0.6,1.7
	S0.4,2.4,0.4,2.8v1.7c0,0.7,0.2,1.2,0.5,1.6s0.7,0.7,1.2,0.7S3,6.7,3.2,6.4c0.1-0.1,0.1-0.1,0.2-0.1c0.1,0,0.1,0,0.1,0.1l0.1,0.1
	c0,0.1-0.1,0.2-0.3,0.4C3,7.1,2.6,7.2,2,7.2c-0.3,0-0.5,0-0.7-0.1S0.9,6.9,0.7,6.7C0.6,6.6,0.5,6.4,0.4,6.2C0.3,5.9,0.2,5.7,0.1,5.5
	C0,5.2,0,4.9,0,4.5V2.8c0-0.9,0.2-1.6,0.7-2.1C1.1,0.3,1.5,0,2,0c0.3,0,0.5,0.1,0.8,0.2C3,0.3,3.2,0.5,3.4,0.8s0.3,0.6,0.3,0.9v2.9
	c0.1,0,0.1,0,0.2,0.1L4,4.8v0.1C4,4.9,4,5,3.9,5c0,0-0.1,0-0.2,0H3.2z M3.2,2.5c-0.4,0-0.8,0.1-1,0.3C1.9,3,1.8,3.3,1.8,3.6
	s0.1,0.5,0.3,0.6c0.2,0.2,0.4,0.3,0.8,0.3c0.1,0,0.1,0,0.2,0c0.1,0,0.1,0,0.2,0L3.2,2.5L3.2,2.5z"/>
</svg>
