<?xml version="1.0" encoding="utf-8"?>
<!-- Generator: Adobe Illustrator 23.0.3, SVG Export Plug-In . SVG Version: 6.00 Build 0)  -->
<svg version="1.1" id="Layer_1" xmlns="http://www.w3.org/2000/svg" xmlns:xlink="http://www.w3.org/1999/xlink" x="0px" y="0px"
	 viewBox="0 0 3.9 6.6" style="enable-background:new 0 0 3.9 6.6;" xml:space="preserve">
<path d="M2.1,0v6h1.5c0.1,0,0.2,0,0.2,0.1c0,0,0.1,0.1,0.1,0.2s0,0.1-0.1,0.2c0,0-0.1,0.1-0.2,0.1H0.3c-0.1,0-0.2,0-0.2-0.1
	c0,0-0.1-0.1-0.1-0.2s0-0.1,0.1-0.2c0,0,0.1-0.1,0.2-0.1h1.5V0.6L0.4,1C0.3,1,0.3,1,0.3,1C0.2,1,0.2,1,0.2,0.9L0.1,0.8
	c0-0.1,0-0.1,0.1-0.1c0,0,0.1-0.1,0.2-0.1L2.1,0z"/>
</svg>
