<?xml version="1.0" encoding="utf-8"?>
<!-- Generator: Adobe Illustrator 23.0.3, SVG Export Plug-In . SVG Version: 6.00 Build 0)  -->
<svg version="1.1" id="Layer_1" xmlns="http://www.w3.org/2000/svg" xmlns:xlink="http://www.w3.org/1999/xlink" x="0px" y="0px"
	 viewBox="0 0 6 8" style="enable-background:new 0 0 6 8;" xml:space="preserve">
<path d="M4.7,0.4v5.6h0.6c0.1,0,0.2,0,0.2,0.1c0,0,0.1,0.1,0.1,0.2c0,0.1,0,0.1-0.1,0.2c0,0-0.1,0.1-0.2,0.1h-1V5.9
	c-0.5,0.7-1.1,1-1.8,1c-0.4,0-0.8-0.1-1.1-0.3C1.1,6.4,0.9,6.1,0.7,5.7S0.4,4.9,0.4,4.6c0-0.4,0.1-0.8,0.3-1.1s0.5-0.7,0.8-0.9
	c0.4-0.2,0.7-0.3,1.1-0.3c0.7,0,1.3,0.3,1.8,1V0.8H3.8c-0.1,0-0.2,0-0.2-0.1c0,0-0.1-0.1-0.1-0.2s0-0.1,0.1-0.2c0,0,0.1-0.1,0.2-0.1
	h1V0.4z M4.2,4.5c0-0.5-0.2-1-0.5-1.3C3.4,2.7,3,2.5,2.5,2.5S1.7,2.7,1.3,3.1S0.8,3.9,0.8,4.5c0,0.5,0.2,1,0.5,1.3
	C1.7,6.2,2,6.4,2.5,6.4s0.9-0.2,1.2-0.6C4.1,5.4,4.2,4.9,4.2,4.5z"/>
</svg>
