<?xml version="1.0" encoding="utf-8"?>
<!-- Generator: Adobe Illustrator 23.0.3, SVG Export Plug-In . SVG Version: 6.00 Build 0)  -->
<svg version="1.1" id="Layer_1" xmlns="http://www.w3.org/2000/svg" xmlns:xlink="http://www.w3.org/1999/xlink" x="0px" y="0px"
	 viewBox="0 0 6 8" style="enable-background:new 0 0 6 8;" xml:space="preserve">
<path d="M3.2,0.4v5.3h1.5c0.1,0,0.2,0,0.2,0.1C4.9,5.8,5,5.9,5,6c0,0.1,0,0.1-0.1,0.2c0,0-0.1,0.1-0.2,0.1H1.3c-0.1,0-0.2,0-0.2-0.1
	C1.1,6.2,1,6.1,1,6c0-0.1,0-0.1,0.1-0.2c0,0,0.1-0.1,0.2-0.1h1.5V0.8H1.7c-0.1,0-0.2,0-0.2-0.1c0,0-0.1-0.1-0.1-0.2s0-0.1,0.1-0.2
	c0,0,0.1-0.1,0.2-0.1h1.4C3.2,0.3,3.2,0.4,3.2,0.4z"/>
</svg>
