<?xml version="1.0" encoding="utf-8"?>
<!-- Generator: Adobe Illustrator 23.0.3, SVG Export Plug-In . SVG Version: 6.00 Build 0)  -->
<svg version="1.1" id="Layer_1" xmlns="http://www.w3.org/2000/svg" xmlns:xlink="http://www.w3.org/1999/xlink" x="0px" y="0px"
	 viewBox="0 0 4.6 6.1" style="enable-background:new 0 0 4.6 6.1;" xml:space="preserve">
<path d="M3.8,0.4L3.8,0.4c0-0.2,0-0.3,0.1-0.3C3.9,0.1,4,0,4.1,0s0.1,0,0.2,0.1c0,0,0.1,0.1,0.1,0.2v1.1c0,0.1,0,0.2-0.1,0.2
	c0,0-0.1,0.1-0.2,0.1C4,1.7,4,1.7,4,1.6c0,0-0.1-0.1-0.1-0.2c0-0.3-0.2-0.5-0.4-0.8C3.2,0.4,2.9,0.3,2.4,0.3S1.6,0.4,1.3,0.7
	C1,0.9,0.9,1.2,0.9,1.6c0,0.2,0,0.3,0.1,0.5c0.1,0.1,0.2,0.3,0.3,0.3c0.1,0.1,0.3,0.2,0.4,0.2c0.2,0.1,0.4,0.1,0.8,0.2
	c0.6,0.1,1,0.2,1.2,0.3C4,3.2,4.2,3.4,4.4,3.6c0.1,0.2,0.2,0.5,0.2,0.8c0,0.5-0.2,0.9-0.6,1.2C3.6,5.9,3.1,6.1,2.4,6.1
	S1.1,5.9,0.6,5.4v0.2c0,0.1,0,0.2-0.1,0.2c0,0-0.1,0.1-0.2,0.1s-0.1,0-0.2-0.1c0,0-0.1-0.1-0.1-0.2V4.5c0-0.1,0-0.2,0.1-0.2
	c0,0,0.1-0.1,0.2-0.1s0.1,0,0.1,0.1c0,0,0.1,0.1,0.1,0.2c0,0.3,0.2,0.6,0.5,0.8c0.3,0.3,0.7,0.4,1.3,0.4c0.5,0,1-0.1,1.3-0.4
	s0.5-0.6,0.5-0.9C4.1,4.2,4,4,3.9,3.8C3.8,3.6,3.6,3.5,3.4,3.4c-0.2-0.1-0.5-0.1-1-0.2C1.7,3.1,1.2,2.9,0.9,2.7s-0.5-0.6-0.5-1
	s0.2-0.8,0.5-1.1c0.4-0.3,0.8-0.5,1.4-0.5C2.8-0.1,3.3,0.1,3.8,0.4z"/>
</svg>
