<?xml version="1.0" encoding="utf-8"?>
<!-- Generator: Adobe Illustrator 23.0.3, SVG Export Plug-In . SVG Version: 6.00 Build 0)  -->
<svg version="1.1" id="Layer_1" xmlns="http://www.w3.org/2000/svg" xmlns:xlink="http://www.w3.org/1999/xlink" x="0px" y="0px"
	 viewBox="0 0 16.2 19.3" style="enable-background:new 0 0 16.2 19.3;" xml:space="preserve">
<g>
	<path d="M2.4,9.1C2.4,9.1,2.4,9.1,2.4,9.1C2.4,9.1,2.5,9.1,2.4,9.1l0.1-0.1C2.4,9,2.4,9,2.4,9.1C2.4,9.1,2.4,9.1,2.4,9.1z"/>
	<path d="M14.5,10.4c-0.1-0.1-0.1-0.1-0.2,0c-0.1-0.1-0.2,0-0.4-0.2c-0.1-0.1-0.2-0.1-0.3-0.3c0-0.1,0-0.2,0-0.2
		c0.1-0.1,0-0.2,0-0.4c-0.1-0.2-0.2-0.4-0.8-0.8C12.4,8.2,12,8,11.7,7.9c-0.5-0.2-0.7-0.3-0.9-0.3c-0.1-0.1-0.1-0.1-0.3-0.1
		c-0.3-0.2-0.6-0.5-0.8-0.8c-0.2-0.4-0.3-0.6-0.2-1c0-0.1,0.1-0.2,0.1-0.3C9.6,5.5,9.5,5.7,9.4,5.9c-0.1,0.4,0,0.9,0.2,1.3
		c0.1,0.2,0.3,0.4,0.4,0.6c0.1,0.1,0.2,0.2,0.3,0.3c0.1,0,0.1,0.1,0.2,0.1c0.2,0.1,0.3,0.1,0.4,0.2c0.1,0.1,0.4,0.1,0.8,0.3
		c0.1,0.1,0.6,0.3,1,0.5c0.3,0.2,0.5,0.3,0.5,0.4c0,0.1,0,0.1,0,0.2c-0.1,0.1-0.1,0.3,0,0.5c0,0.1,0.2,0.4,0.3,0.5
		c0.2,0.1,0.4,0.2,0.6,0.3c0.1,0,0.1,0.1,0.2,0c0.4-0.2,0.7,0.6,0.7,0.8c0.2,0.5,0,0.9,0,1.1c-0.1,0.4-0.1,0.7-0.5,1
		c-0.1,0-0.2,0.1-0.3,0.1c-0.2,0.1-0.4,0.2-0.4,0.4c-0.1,0.3-0.1,0.6,0,0.9c0.1,0.3,0.3,0.7,0.8,0.8c0.1,0,0.2,0,0.3-0.1
		c0,0,0,0,0,0.1c0,0.3,0.2,0.5,0.3,0.5c0.1,0.1,0.2,0.1,0.2,0.2c0,0.1,0,0.2-0.1,0.4c-0.1,0.1-0.1,0.2-0.1,0.2l-0.2-0.1
		c-0.1-0.2-0.3-0.3-0.6-0.3l-0.1,0c-0.2,0.1-0.2,0.2-0.3,0.3c0-0.1,0-0.1-0.1-0.2c-0.3-0.6-0.3-0.7-0.3-0.7
		c-0.3-0.6-0.6-0.8-0.7-0.9c-0.1-0.1-0.3-0.2-0.5-0.1c-0.2,0.1-0.4,0.2-0.5,0.4c-0.2,0.3-0.2,0.8-0.1,1c0,0.1,0.1,0.3,0.2,0.4
		c-0.1-0.1-0.3,0-0.5,0.2c-0.2,0.2-0.4,0.6-0.3,0.9c0,0.1,0,0.1,0.1,0.2c-0.2,0.1-0.3,0.1-0.3,0.3c-0.1,0-0.2,0.1-0.2,0.1
		c-0.1,0-0.3-0.1-0.3-0.2c0,0,0,0,0-0.1c0,0,0,0,0,0c0,0,0.1-0.1,0.1-0.1c0,0,0-0.1,0-0.1c0,0,0,0,0,0c0,0,0,0,0,0c0,0,0-0.1,0-0.1
		c0,0,0,0,0,0c0,0,0,0,0,0c0-0.1,0-0.1,0.1-0.2c0-0.1,0-0.1-0.1-0.1c0.3-0.5,0.6-0.7,0.8-0.9l0.1,0c0.1-0.2,0.1-0.4,0.1-0.4
		c0,0-0.1-0.1-0.1-0.1l-0.1-0.1c0,0-0.1,0-0.1,0l0,0c0.2-0.3,0.3-0.5,0.5-0.6l0,0c0.1-0.3,0.2-0.7,0.1-1.3c-0.1-0.4-0.2-0.7-0.3-0.9
		c-0.3-0.7-0.8-1.2-1.1-1.4c-0.1-0.1-0.1-0.2-0.2-0.2c-0.1-0.1-0.2-0.2-0.2-0.3c0-0.1,0.2-0.2,0.3-0.2l0.1,0
		c0.2-0.1,0.2-0.3,0.2-0.4c-0.1-0.2-0.3-0.2-0.4-0.2L10.4,11c-0.2,0.1-1,0.4-1.9,0.2c-0.1,0-0.2-0.1-0.3-0.1C8,11.1,7.7,11,7.6,10.8
		c-0.1-0.2-0.1-0.2-0.1-0.4c0-0.3-0.1-0.5-0.2-0.7l0,0C7,9.4,6.8,9.3,6.5,9.2c-0.1,0-0.3,0-0.5-0.1C5.9,9.1,5.7,9.1,5.5,9L5,8.8
		C4.6,8.7,4.3,8.5,3.9,8.6L3.8,8.7c0,0,0,0.1,0,0.1C3.6,8.9,3.3,9,3.1,9.2C3,9.4,2.9,9.6,2.9,9.9c0,0.3,0.1,0.6,0.2,0.7
		c0.1,0.2,0.3,0.3,0.3,0.4c0,0,0.1,0.1,0.1,0.1c0.1,0.1,0.1,0.1,0.2,0.1c0.1,0.2,0.1,0.4-0.1,0.6c-0.1,0.1-0.1,0.2-0.1,0.3
		c0,0,0,0,0-0.1c0,0-0.1-0.1-0.1-0.1c0-0.1-0.2-0.2-0.3-0.4c-0.2-0.2-0.3-0.3-0.3-0.5c0-0.1,0-0.1,0-0.2c0-0.1,0-0.2,0-0.3
		c0-0.5,0-0.9-0.1-1c0-0.1-0.1-0.2-0.1-0.3C2.1,9.3,1.9,9.4,1.7,9.6c-0.2,0.2-0.4,0.3-0.5,0.6c-0.1,0.1,0,0.2,0,0.3
		c-0.1-0.1-0.3-0.1-0.4-0.2c0.1-0.1,0.1-0.3,0-0.4c0-0.1-0.2-0.1-0.2-0.2c0,0,0.1,0,0.1-0.2c0.1-0.1,0.1-0.1,0.2-0.2
		C0.7,9.4,0.6,9.6,0.3,9.8C0.2,9.9,0.1,10,0.1,10C0,10.1,0,10.2,0,10.3c0.1,0.2,0.2,0.2,0.3,0.2c-0.1,0.1-0.1,0.3,0,0.4
		c0.1,0.2,0.2,0.2,0.3,0.2c0.1,0.1,0.2,0,0.4,0.2c0,0,0,0,0.1,0.1c0.1,0.1,0.3,0.1,0.4,0.1c0,0,0,0,0.1,0c0.2-0.1,0.1-0.3,0.1-0.5
		c0-0.1-0.1-0.2,0-0.3c0.1-0.1,0.1-0.2,0.3-0.3c0.2-0.1,0.4-0.2,0.5-0.2c0,0.1,0,0.2,0,0.2c0,0.2,0,0.3,0,0.3c-0.1,0.1,0,0.2,0,0.3
		c0.1,0.3,0.2,0.5,0.4,0.7C3.2,11.8,3.2,12,3.4,12c0,0,0,0,0.1,0.1c0.1,0.1,0.2,0.2,0.4,0.2c0.2,0,0.4-0.2,0.5-0.4
		c0.2-0.3,0.2-0.8,0.1-1.1c-0.1-0.2-0.2-0.2-0.3-0.3c-0.1-0.1-0.2-0.1-0.3-0.3c0-0.1-0.1-0.2-0.1-0.2c0-0.1-0.1-0.1-0.1-0.2
		c0-0.2,0.1-0.3,0.2-0.4c0,0,0.1,0,0.1-0.1l0.1,0.1C3.9,9.2,4,9.2,4.1,9.1c0.3,0,0.4,0,0.8,0.2l0.5,0.2c0.1,0,0.3,0.1,0.4,0.1
		c0.3,0.1,0.5,0.1,0.7,0.2C6.9,9.8,6.9,9.8,7,9.9c0.1,0.2,0.1,0.2,0.1,0.3l0,0c0,0.2,0,0.5,0.2,0.8c0.3,0.5,0.9,0.6,1.3,0.7l0,0
		c0.6,0.2,1.1,0,1.6,0c0,0.3,0.3,0.6,0.6,0.9l0.1,0.1c0.3,0.3,0.6,0.7,1,1.3c0.1,0.3,0.5,1,0.2,1.6c0,0.1-0.1,0.2-0.2,0.3
		c-0.1,0.1-0.2,0.2-0.3,0.4c-0.1,0.2-0.3,0.4-0.4,0.5c-0.1,0.1-0.1,0.1-0.2,0.2c-0.1,0.1-0.1,0.1-0.1,0.1c-0.1,0.1-0.1,0.1-0.2,0.2
		c-0.1,0.1-0.1,0.1-0.1,0.2c0,0.1,0,0.2,0,0.3l0.2,0.1c0,0,0,0,0,0c0,0,0.1,0,0.2,0.1l0.1,0c0,0,0.1,0,0.2-0.1
		c-0.1,0-0.1,0.1-0.1,0.3c-0.1,0-0.1,0-0.1,0.1c0,0,0,0,0,0c0,0,0,0,0,0c0,0,0,0.1,0,0.1c0,0,0,0,0,0l0,0c0,0,0,0,0,0c0,0,0,0,0,0
		c0,0,0,0,0,0c0,0,0,0.1,0,0.1l0,0c0,0,0,0,0,0c0,0,0,0,0,0c0,0,0,0,0,0c0,0,0,0,0,0c0,0,0,0.1,0,0.1c0,0.1,0.1,0.1,0.1,0.1
		c0,0,0,0,0,0c0,0.2,0,0.3,0,0.4c0.1,0.3,0.4,0.4,0.6,0.4c0.2,0,0.4-0.1,0.5-0.2c0.1,0,0.2-0.2,0.5-0.2c0.1,0,0.2-0.1,0.2-0.1
		c0.1,0,0.1,0,0.1,0c0.2-0.1,0.2-0.2,0.2-0.2s0-0.2-0.2-0.2l-0.1-0.1c-0.1,0-0.2,0-0.3-0.1c0-0.1,0-0.2,0.1-0.3c0.1,0,0.3,0,0.4-0.1
		c0.1,0,0.1,0.1,0.2,0c0.2,0,0.3-0.1,0.3-0.1s0.1-0.1,0-0.3c0-0.1,0-0.1-0.2-0.1C13.1,17.3,13,17.1,13,17c-0.1-0.2,0-0.4,0-0.7
		c0.1-0.1,0.1-0.2,0.1-0.2l0.1,0.1c0,0.1,0.3,0.1,0.5,0.7c0,0,0,0.1,0.3,0.7c0.1,0.2,0.2,0.4,0.2,0.5c0,0.1,0.1,0.3,0.3,0.3
		c0.1,0,0.2-0.1,0.2-0.2c0.1,0,0.1-0.1,0.1-0.3l0.1-0.1l0,0.1c0.2,0.1,0.3,0.4,0.6,0.3l0.1,0c0.1,0,0.2-0.1,0.2-0.2
		c0.1-0.2,0.2-0.5,0.2-0.8c0-0.3-0.2-0.5-0.3-0.5c-0.1-0.1-0.2-0.1-0.2-0.2c-0.1-0.2,0.1-0.4,0-0.4l0.1-0.1c0.1-0.1,0-0.3-0.1-0.3
		c0,0-0.2-0.1-0.3,0c0,0-0.1,0-0.1,0.1c-0.1,0-0.1,0.2-0.2,0.2s-0.1,0-0.1,0c-0.1,0-0.2-0.1-0.3-0.5c-0.1-0.2-0.1-0.3-0.1-0.4
		c0,0,0.1-0.1,0.1-0.2c0.1,0,0.2-0.1,0.3-0.3c0.4-0.4,0.5-0.9,0.6-1.2c0.1-0.3,0.1-0.7-0.1-1.4C15.5,11.5,15.2,10.7,14.5,10.4z"/>
	<path d="M2.2,8.9c0-0.1,0.1-0.2,0.1-0.2l0-0.1C2,8.7,1.7,8.8,1.5,8.9C1.2,9,1.1,9.2,0.9,9.3c0.1,0,0.1-0.1,0.2-0.1
		C1.5,9,1.8,9,2.2,8.9z"/>
	<path d="M2.5,8.9c0.1,0,0.1-0.1,0.2-0.1c0.5-0.2,0.8-0.5,1.3-0.6c0.1,0,0.2-0.1,0.3-0.1c0.1,0,0.2,0,0.2,0c0.2-0.1,0.3,0,0.5-0.2
		C5,7.8,5.1,7.7,5.1,7.6c0-0.1,0.1-0.2,0.1-0.4c0-0.1,0-0.1,0.1-0.2c0,0,0.1-0.3,0.3-0.7c0.1-0.1,0.1-0.1,0.1-0.3
		C5.9,5.7,6,5.6,6,5.4c0.1-0.3,0.1-0.5,0.2-0.8c0-0.3-0.1-0.6-0.1-0.7S6,3.5,5.9,3.4c0-0.1-0.1-0.1-0.2,0c-0.1,0-0.1,0-0.1,0.2
		c-0.1,0.1,0,0.2,0,0.2c0,0.1,0.1,0.2,0,0.3C5.5,4.2,5.3,4.4,5.1,4.4C5,4.5,4.9,4.4,4.8,4.3c0,0,0-0.1-0.1-0.1c-0.1-0.1-0.2,0-0.3,0
		c-0.1,0-0.1,0.1,0,0.3l0,0.1l0,0.1C4.5,4.9,4.3,5,4.1,5C4,5.1,3.7,5,3.6,4.9C3.5,4.9,3.4,4.8,3.3,4.7c0,0-0.1-0.2,0-0.3
		c0,0,0.1-0.1,0.2-0.2C3.7,4,3.9,4,4,3.9c0.1,0,0.2-0.1,0.3-0.3c0.2-0.2,0.4-0.6,0.5-1c0-0.2-0.1-0.4-0.1-0.6C4.4,2,4.3,1.9,4.2,2
		c-0.4-0.1-1-0.3-1.7-0.8C2.1,0.8,1.7,0.7,1.5,0.4C1.6,0.5,1.8,0.5,2,0.5c0.5,0.1,1,0.2,1.5,0.4C4,1.2,4.4,1.3,4.8,1.5
		C5,1.6,5.2,1.6,5.3,1.8c0.1,0.1,0.4,0.2,0.5,0c0.1-0.1,0.1-0.3,0-0.4c0-0.1-0.1-0.2-0.1-0.3c0-0.1-0.1-0.2-0.1-0.2s0.1,0,0.1,0.1
		C6,1,6.1,1,6.1,1.1c0.2,0.1,0.2,0.4,0.1,0.6l0,0.1c0,0.1,0.1,0.3,0.2,0.2c0,0,0.2,0,0.2-0.2l0.1-0.1c0,0,0,0,0-0.1
		c0,0.1,0.2,0.1,0.2,0.2c0.1,0.1,0.3,0,0.4-0.2c0,0.1,0,0.3,0.2,0.4C7.6,2.1,7.8,2,8,1.9C8,2.1,7.9,2.3,8.1,2.4
		c0.1,0.1,0.3,0.1,0.4,0c0,0,0,0-0.1,0c-0.1,0-0.1,0.1-0.1,0.1c-0.1,0.1,0,0.2,0,0.3C8.6,3.1,8.8,3,8.9,3c-0.1,0.1-0.1,0.3,0,0.3
		c0,0.1,0.2,0.1,0.4,0.1c0.1,0,0.1,0,0.2-0.1l0.1,0C9.5,3.3,9.5,3.5,9.4,3.5C9.3,3.6,9.3,3.6,9.3,3.8L9.2,3.9C9.2,4,9.2,4.1,9.3,4.2
		c0,0.1,0.1,0.1,0.2,0l0.1,0c0.1,0,0.1,0,0.1-0.2C9.7,4.1,9.7,4.1,9.7,4.2C9.5,4.6,9.3,4.8,9.2,4.8C9.1,4.8,9.1,4.8,9,5
		C8.9,5.1,8.9,5.2,9,5.3C9,5.4,9,5.5,9.2,5.4c0,0,0.1,0,0.2-0.1c0.1,0,0.2-0.1,0.4-0.2l0.1,0c0,0,0,0.1-0.1,0.1
		C9.9,5.1,10,5,10.1,4.9c0.1,0,0.1-0.2,0.1-0.2c0.1-0.2,0.1-0.4,0.1-0.4c-0.1-0.2-0.4-0.2-0.5-0.1c-0.1,0-0.1,0-0.2,0.1
		c0.1-0.1,0.1-0.2,0.2-0.3C10,3.9,10,3.7,10,3.5c0.1-0.1,0.2-0.4-0.1-0.6c-0.1-0.1-0.1-0.1-0.2,0c0.1-0.1,0.1-0.4-0.1-0.4
		c-0.2-0.1-0.3-0.1-0.4,0c0.1,0,0.1-0.2,0.1-0.2l0.1-0.1c0.1-0.1,0-0.2,0-0.3c0,0-0.2-0.1-0.3-0.1c0,0-0.1,0-0.2,0.1l-0.1,0
		c0.1,0,0.1-0.1,0.1-0.1c0.1-0.1,0-0.2,0-0.3c0-0.1-0.2-0.1-0.3-0.1l-0.1,0c-0.1,0-0.2,0.1-0.3,0.1l-0.1,0c0.1-0.1,0.1-0.2,0.1-0.3
		C8.2,1.2,8.3,1.1,8.3,1l0.1-0.1c0.1-0.1-0.1-0.2-0.1-0.3c0,0-0.1-0.1-0.3,0l-0.1,0c-0.1,0-0.1,0.2-0.2,0.2C7.5,1,7.4,1.1,7.3,1.1
		c0.1-0.1,0-0.2,0.1-0.4c0.1-0.1,0-0.2,0.1-0.3c0,0,0-0.1,0.1-0.1c0-0.2-0.1-0.3-0.2-0.2c0,0-0.1-0.1-0.3,0.1c0,0-0.1,0-0.1,0.1
		C6.9,0.4,7,0.5,6.9,0.7C6.9,0.8,6.8,0.9,6.7,1c0-0.1,0-0.2,0-0.3c0-0.1-0.1-0.2,0-0.2l0-0.1c0-0.1-0.2-0.1-0.3-0.1
		c-0.1,0-0.2,0-0.2,0.2c0,0-0.1,0.1,0,0.2c0,0,0,0,0,0.1C6,0.5,5.6,0.4,5.4,0.4C5.1,0.3,5.1,0.5,5,0.5C4.9,0.6,4.9,0.8,5,1
		C5,1.1,5,1.1,5.1,1.2C5,1.2,5,1.2,4.8,1.1C4.5,0.9,4.1,0.7,3.6,0.6C3.1,0.4,2.5,0.2,2,0.1C1.4,0,1,0,0.9,0c-0.1,0-0.2,0.1-0.1,0.2
		c0,0-0.1,0.1,0,0.3c0.2,0.4,1.2,0.9,1.5,1.1c0.3,0.2,1.3,0.7,1.9,0.8c0,0,0.1,0,0.1,0.1c0,0,0,0.1,0.1,0.3c0,0.2-0.1,0.5-0.3,0.7
		C4,3.5,4,3.5,3.9,3.5c-0.1,0-0.3,0.1-0.5,0.3C3.2,4,3.1,4.1,3.1,4.3C2.9,4.7,3,5,3.1,5.1c0.1,0.3,0.4,0.4,0.5,0.4
		C3.7,5.6,4,5.8,4.4,5.6C4.7,5.5,4.9,5.3,5,5c0,0,0,0,0.1,0c0.2,0,0.6-0.1,0.7-0.3c0,0,0,0,0,0.1c0,0.2,0,0.4-0.1,0.7
		C5.7,5.6,5.7,5.7,5.5,6c0,0-0.1,0.1-0.1,0.3C5.2,6.7,5.2,6.9,5.1,6.9C5,7.2,4.9,7.3,4.9,7.5c0,0,0,0,0,0c0,0.2-0.1,0.2-0.1,0.2
		c-0.1,0-0.1,0-0.2,0.1c0,0,0,0,0,0c-0.1,0-0.3,0-0.5,0.1C3.6,8,3.3,8.1,2.7,8.5C2.6,8.6,2.5,8.6,2.4,8.7l0,0
		C2.4,8.8,2.4,8.8,2.5,8.9z"/>
	<path d="M13.5,14.2c0,0.1,0.2,0.2,0.3,0.2c0,0,0.1,0,0.1-0.2l0-0.1c0,0,0-0.1,0.1-0.1c0.1-0.1,0.1-0.1,0.1-0.2
		c0.1,0,0.1-0.2,0.2-0.3c0.1-0.1,0-0.3-0.1-0.4c0-0.1,0-0.1-0.1-0.2c0.1-0.1,0.2-0.3,0.3-0.3c0.1,0,0.1,0,0.2-0.1
		c0.1,0,0.2-0.1,0.2-0.2c0.1-0.3-0.1-0.5-0.1-0.6c-0.3-0.3-0.8-0.5-1-0.6c-0.1-0.1-0.2,0-0.3,0c-0.2,0.1-0.1,0.3-0.1,0.4
		c0,0.1,0.1,0.2,0,0.2c-0.1,0.1-0.1,0.1-0.1,0.2c-0.1,0-0.1,0.2-0.3,0.3c0,0.1-0.1,0.1-0.1,0.2c-0.1,0.1-0.1,0.2-0.1,0.3
		c0,0.2,0.1,0.4,0.1,0.6c0,0.1,0.1,0.1,0.1,0.2c0.1,0.1,0.1,0.2,0.2,0.3C13.1,13.8,13.3,13.9,13.5,14.2z M13.1,12.5
		c0.1-0.2,0.2-0.2,0.3-0.3c0.1,0,0.1-0.2,0.2-0.3c0.1-0.1,0.1-0.4,0-0.4c0,0,0.1,0.1,0.3,0.1c0.2,0.1,0.3,0.3,0.4,0.5
		c0.1,0.2,0.1,0.3,0.1,0.3c-0.1,0-0.2,0.1-0.3,0.1c-0.1,0-0.3,0.3-0.4,0.6c0,0.2,0,0.3,0.1,0.4c0,0.1,0,0.1,0,0.1l-0.1,0.1
		c-0.1,0-0.1,0.2-0.3,0.3c-0.1-0.2-0.2-0.2-0.3-0.3c-0.2-0.1-0.2-0.2-0.3-0.4c-0.1-0.2-0.1-0.3-0.1-0.4
		C12.9,12.7,12.9,12.7,13.1,12.5z"/>
</g>
</svg>
