<?xml version="1.0" encoding="utf-8"?>
<!-- Generator: Adobe Illustrator 23.0.3, SVG Export Plug-In . SVG Version: 6.00 Build 0)  -->
<svg version="1.1" id="Layer_1" xmlns="http://www.w3.org/2000/svg" xmlns:xlink="http://www.w3.org/1999/xlink" x="0px" y="0px"
	 viewBox="0 0 816 816" style="enable-background:new 0 0 816 816;" xml:space="preserve">
<style type="text/css">
	.st0{fill:#0023CA;}
	.st1{opacity:0.55;}
	.st2{opacity:0.8;}
	.st3{fill:#FFFDE3;}
	.st4{opacity:0.3;}
</style>
<g>
	<path class="st0" d="M213.7,730.2c0.2-0.5,0.3-1,0.5-1.5c-0.9-4.3-1.1-8.9-3-13c-0.4-0.7-0.8-1.4-1.1-2.1c0,0,0.2-0.3,0.2-0.3
		c-1.5-3.9-2.8-7.8-4.4-11.6c-7.8-17.7-19.5-33.3-27.2-51c-3.9-9-7.5-18.1-9.8-27.7c-0.1,0.1-0.3,0.1-0.4,0.2
		c-0.2,0.1-0.3,0.3-0.5,0.4c1.4-6.5,0.7-13.1,0.9-20.6c-3.2,2.6-4.1,5-3.9,7.9c0.1,1.8-0.9,2.9-2.1,4c-0.8,1.2-3.2,1.5-2.4,3.8
		c-0.1,0.4-0.2,0.9-0.4,1.3c-1.7,0-2.4,0.8-2.1,2.5c-0.4,0.6-0.8,1.2-1.2,1.8c-0.8-0.2-1.1,0.1-0.9,0.9c-0.9,1.6-1.6,3.3-2.7,4.7
		c-7.6,9.5-12.9,20.5-20.8,30c-6.5,7.9-10.8,17.7-15.6,26.9c-1.9,3.6-4.2,7.4-4,11.9c1,0.3,2,0.6,2.9,1c0,0,0,0,0,0
		c-1-0.3-2-0.6-2.9-1c-3.9,0.8,0.7,5.3-2.8,6.3c0,0,0,0,0,0c-7.2,14.6-8.4,29.8-5.4,45.7c3.1,16,11.8,28.4,24.4,38.3
		c9.2,5.9,19.3,8.4,30,9c19.1-0.8,34.3-8.5,45.3-24.5c5.4-7.9,7.3-17,9.7-26C213.8,741.7,213.8,736,213.7,730.2
		C213.7,730.2,213.7,730.2,213.7,730.2z M133.5,776.6c-1.4-0.3-2.8-0.9-3.1-2.3C130.8,775.7,132.1,776.3,133.5,776.6
		c0.3,1.7,1.6,2.3,2.9,3C135.2,778.9,133.8,778.3,133.5,776.6z M143.3,767.2C143.3,767.2,143.3,767.2,143.3,767.2
		c0.7-0.1,1.3-0.2,2-0.3C144.6,767,144,767.1,143.3,767.2z M185.1,767.3C185.1,767.3,185.1,767.3,185.1,767.3L185.1,767.3
		C185.1,767.3,185.1,767.3,185.1,767.3z"/>
	<g class="st1">
		<path d="M213.9,730.2c-1.7,5.5-3.7,11-4.9,16.6c-1.8,8.4-5.4,16.2-10.1,23.1c-9.6,14.3-24.5,20-41,20.9
			c-22.6,1.2-37.3-12.2-45.8-31.3c-2.1-4.7-6.6-10-3.7-16.3c-3.3-8.7-2.2-17.4-0.6-26.2c0.7-4,3-7.8,2.2-12.1
			c-7.2,14.6-8.4,29.8-5.4,45.7c3.1,16,11.8,28.4,24.4,38.3c9.2,5.9,19.3,8.4,30,9c19.1-0.8,34.3-8.5,45.3-24.5
			c5.4-7.9,7.3-17,9.7-26C214,741.7,213.9,736,213.9,730.2z"/>
		<path d="M205.5,709.1c0.8,2.2,1.2,5.1,4.8,4.2c-1.5-3.9-2.8-7.8-4.4-11.6c-7.8-17.7-19.5-33.3-27.2-51c-3.9-9-7.5-18.1-9.8-27.7
			c-0.1,0.1-0.3,0.1-0.4,0.2c-0.2,0.1-0.3,0.3-0.5,0.4c-0.1,13.7,5.7,25.8,11.8,37.3C188.4,677,199,692,205.5,709.1z"/>
	</g>
	<g class="st2">
		<path class="st3" d="M152.5,723.6c-2-8.2,0.2-16.7-1.2-24.8c-1.3-7.5-3-15.1-7.4-21.7c-6.1-0.7-5.4,4.7-7.4,7.9
			c-1,3.3-1.9,6.7-5.1,8.7c-0.1,1.8-0.9,3-2.5,3.7c-0.3,2.9-0.1,6.2-3.6,7.6c0,0.4-0.1,0.9-0.1,1.3c-1.7,12.5-2,24.9-0.1,37.4
			c2.9,4.7,8.8,4.2,12.5,7.5c3.6,0.6,5.6,0.8,4.3-4.5c-2.8-11-1-14.4,8.5-19.6C152,726.4,152.9,725.3,152.5,723.6z"/>
		<path class="st3" d="M124,706.2c0-1.2,0-2.5,0-3.7c-3.4-0.5-5.1,1-6.3,4.2c-0.9,2.4,0.2,6-3.5,7.1c-2.4,7.9-0.9,15.7,0,23.6
			c2.5,0.3,2.4,2.1,2.3,3.9c2.4,1.2,4.2,4.4,7.6,2.4C122,731.2,119.2,718.7,124,706.2z"/>
	</g>
	<g class="st1">
		<path class="st3" d="M142.4,755c5,1.2,9.8-0.4,14.7-0.1c9.6,0.7,16.6-3.9,22.3-11c5-6.3,4.1-9.4-3.6-11.9
			c-2.1-0.7-4.2-2.1-6.5-1.5c-1.7,0.4-2.9,0.2-3.6-1.4c-0.7-1.7-0.4-3.2,1.2-4.4c3-2.2,3.4-5.4,3.3-8.9c-0.1-5.8,0.3-11.8-7.2-13.6
			c-1.9-9.1-11.4-13.9-13-23.4c-0.7-4.2-3-4.4-6.1-1.8c4.4,6.6,6.1,14.2,7.4,21.7c1.4,8.1-0.8,16.6,1.2,24.8
			c0.4,1.6-0.5,2.7-1.9,3.5c-9.5,5.2-11.3,8.5-8.5,19.6c1.3,5.2-0.7,5.1-4.3,4.5C138,754.1,140,754.4,142.4,755z"/>
		<path class="st3" d="M175.6,768.9c-14-5.6-28-2.4-42-0.1c0.1,0.7,0.1,1.4,0.2,2.1c0,1.9-0.1,3.8-0.1,5.8c0.3,2,2,2.4,3.5,3.3
			c7.3,4.3,15.4,2.7,23.2,2.9c12.3,0.3,22.6-3.9,29.4-14.7c0.2-1.3,0.4-2.5,0.6-3.8c-3.1,1.3-5.5,4-8.9,4.8
			C179.4,770.8,177.5,769.7,175.6,768.9z"/>
		<path class="st3" d="M201.8,715.5c-0.6-1.2-0.3-2.8-0.4-4.3c-2.3-1.4-2.9-3.9-3.8-6.2c-0.6-1.7-1-4.4-3-4.2c-2.2,0.3-2.6,3-2.9,5
			c-1,6.7-1.8,13.5-2.8,20.2c-0.3,2-2.2,4.3-0.1,5.7c2.6,1.7,3.8-1.4,5.6-2.7c1-0.7,2.1-1.2,3.2-1.7
			C201.7,724.4,204.7,721.1,201.8,715.5z"/>
		<path class="st3" d="M124,702.4c1-6.7,4.1-13.2,1.2-20.1c-3,5.8-5.9,11.7-8.9,17.5c2.3,1.3,0.5,2.9,0.2,4.4
			c-0.7,3.2-2.6,6.1-2.4,9.6c3.7-1.1,2.6-4.7,3.5-7.1C118.9,703.4,120.6,701.9,124,702.4z"/>
		<path class="st3" d="M124,706.2c-4.8,12.5-2,25,0,37.5c0.4,0,0.8,0,1.2,0c-1.9-12.5-1.6-24.9,0.1-37.4
			C124.9,706.3,124.5,706.2,124,706.2z"/>
		<path class="st3" d="M184.3,751.8c2.2-2,2-4.3,2.6-6.2c0.6-1.6,3.3-3.3,1.3-4.8c-2.2-1.6-3.3,1.6-4.8,2.8
			C180.2,746.5,182,749.1,184.3,751.8z"/>
		<path class="st3" d="M131.5,693.7c3.2-2,4.1-5.4,5.1-8.7C133.1,686.8,130.8,689.4,131.5,693.7z"/>
		<path class="st3" d="M125.4,705c3.5-1.4,3.2-4.7,3.6-7.6C125.1,698.6,126.6,702.5,125.4,705z"/>
		<path class="st3" d="M114.2,737.3c-0.2,1.8-0.2,3.6,2.3,3.9C116.6,739.4,116.6,737.7,114.2,737.3z"/>
	</g>
	<g class="st4">
		<path class="st3" d="M191.3,687.6c-1.6,3.6,0.2,6.9-1.3,8.9c-3.5,1.7-3.9-9.8-9.2,0.9c-1.7-11.2-11.7-17.7-9.3-28.9
			c0.3-1.4-0.5-2.7-1.1-4.1c-4.3-10.1-7.4-20.5-7.5-31.6c0-1.7,1.4-4.9-2.1-4.7c-2.9,0.1-6.7,1.9-6.1,4.9c1.7,9.4-6.4,14.8-8.5,22.6
			c-0.5,2-2.1,3.8-2.2,6.2c-0.3,7.8-3,9.9-10.7,11c-5,0.7-5.5,6.2-8.1,9.6c2.9,6.9-0.1,13.4-1.2,20.1c0,1.2,0,2.5,0,3.7
			c0.5,0,0.9,0.1,1.4,0.1c0-0.4,0.1-0.9,0.1-1.3c1.2-2.5-0.4-6.4,3.6-7.6c1.5-0.8,2.4-2,2.5-3.7c-0.7-4.3,1.6-6.8,5.1-8.7
			c1.9-3.1,1.3-8.6,7.4-7.9c3.1-2.6,5.4-2.4,6.1,1.8c1.6,9.5,11.1,14.3,13,23.4c7.5,1.8,7.1,7.8,7.2,13.6c0.1,3.5-0.3,6.7-3.3,8.9
			c-1.6,1.2-1.9,2.7-1.2,4.4c0.6,1.6,1.9,1.9,3.6,1.4c2.4-0.6,4.4,0.8,6.5,1.5c7.7,2.6,8.6,5.6,3.6,11.9c-5.7,7.2-12.6,11.7-22.3,11
			c-4.9-0.3-9.7,1.3-14.7,0.1c-2.5-0.6-4.5-0.9-4.6-3.9c-3.7-3.3-9.7-2.8-12.5-7.5c-0.4,0-0.8,0-1.2,0c-3.4,2-5.2-1.2-7.6-2.4
			c-2.5-0.3-2.5-2.1-2.3-3.9c-0.9-7.9-2.4-15.7,0-23.6c-0.3-3.5,1.7-6.4,2.4-9.6c0.3-1.4,2-3-0.2-4.4c-1.2-0.4-2.4-0.8-3.5-1.1
			c-3.9,0.8,0.7,5.3-2.8,6.3c0.9,4.3-1.4,8.1-2.2,12.1c-1.6,8.8-2.7,17.5,0.6,26.2c3.7,2.9,4.8,7.6,7.6,11.1
			c4.9,6.1,10.5,11,17.6,14.4c14-2.3,28-5.5,42,0.1c1.9,0.8,3.8,1.9,5.8,0.1c-4.3-2.3-3-4.3,0-7c10.3-9.2,16.4-20.5,16.2-34.6
			c-1.1,0.6-2.2,1.1-3.2,1.7c-1.8,1.2-3,4.3-5.6,2.7c-2.1-1.4-0.2-3.8,0.1-5.7c1-6.7,1.9-13.5,2.8-20.2c0.3-2.1,0.7-4.8,2.9-5
			c2.1-0.2,2.4,2.5,3,4.2c0.8,2.4,1.4,4.8,3.8,6.2C200.1,702.8,195.5,695.8,191.3,687.6z M188.2,740.9c2,1.4-0.7,3.1-1.3,4.8
			c-0.7,1.9-0.4,4.2-2.6,6.2c-2.3-2.8-4.2-5.3-0.8-8.2C184.9,742.4,186,739.3,188.2,740.9z"/>
		<path class="st3" d="M162.9,614.9c-0.8,1.2-3.2,1.5-2.4,3.8C160.3,616.8,166.6,619.1,162.9,614.9z"/>
		<path class="st3" d="M160.1,619.9c-1.7,0-2.4,0.8-2.1,2.5C159,621.9,159.9,621.3,160.1,619.9z"/>
		<path class="st3" d="M156.8,624.2c-0.8-0.2-1.1,0.1-0.9,0.9C156.1,624.8,156.5,624.5,156.8,624.2z"/>
		<path class="st3" d="M190.3,764.2c-0.2,1.3-0.4,2.5-0.6,3.8c2.5-1.7,4.9-3.5,5.9-6.6c-0.3-0.3-0.6-0.5-0.9-0.8
			C192.8,761.3,191.4,762.6,190.3,764.2z"/>
		<path class="st3" d="M130.5,773.7c0,1.9,1.5,2.6,3.2,3c0-1.9,0.1-3.8,0.1-5.8C132.1,771.1,130.6,771.7,130.5,773.7z"/>
		<path class="st3" d="M196.2,759.6c-1-0.7-1.1,0.6-1.4,1.2c0.3,0.2,0.6,0.5,0.9,0.8C196.2,760.9,196.9,760.1,196.2,759.6z"/>
	</g>
</g>
</svg>
