<?xml version="1.0" encoding="utf-8"?>
<!-- Generator: Adobe Illustrator 23.0.3, SVG Export Plug-In . SVG Version: 6.00 Build 0)  -->
<svg version="1.1" id="Layer_1" xmlns="http://www.w3.org/2000/svg" xmlns:xlink="http://www.w3.org/1999/xlink" x="0px" y="0px"
	 viewBox="0 0 816 816" style="enable-background:new 0 0 816 816;" xml:space="preserve">
<style type="text/css">
	.st0{fill:#019A00;}
	.st1{opacity:0.55;}
	.st2{opacity:0.8;}
	.st3{fill:#FFFDE3;}
	.st4{opacity:0.3;}
	.st5{fill:#FFD035;}
	.st6{fill:#0023CA;}
	.st7{fill:#D31C00;}
</style>
<g>
	<path class="st0" d="M113.2,656c0.2-0.5,0.3-1,0.5-1.5c-0.9-4.3-1.1-8.9-3-13c-0.4-0.7-0.8-1.4-1.1-2.1l0.2-0.3
		c-1.5-3.9-2.8-7.8-4.4-11.6c-7.8-17.7-19.5-33.3-27.2-51c-3.9-9-7.5-18.1-9.8-27.7c-0.1,0.1-0.3,0.1-0.4,0.2
		c-0.2,0.1-0.3,0.3-0.5,0.4c1.4-6.5,0.7-13.1,0.9-20.6c-3.2,2.6-4.1,5-3.9,7.9c0.1,1.8-0.9,2.9-2.1,4c-0.8,1.2-3.2,1.5-2.4,3.8
		c-0.1,0.4-0.2,0.9-0.4,1.3c-1.7,0-2.4,0.8-2.1,2.5c-0.4,0.6-0.8,1.2-1.2,1.8c-0.8-0.2-1.1,0.1-0.9,0.9c-0.9,1.6-1.6,3.3-2.7,4.7
		c-7.6,9.5-12.9,20.5-20.8,30c-6.5,7.9-10.8,17.7-15.6,26.9c-1.9,3.6-4.2,7.4-4,11.9c1,0.3,2,0.6,2.9,1l0,0c-1-0.3-2-0.6-2.9-1
		c-3.9,0.8,0.7,5.3-2.8,6.3l0,0c-7.2,14.6-8.4,29.8-5.4,45.7c3.1,16,11.8,28.4,24.4,38.3c9.2,5.9,19.3,8.4,30,9
		c19.1-0.8,34.3-8.5,45.3-24.5c5.4-7.9,7.3-17,9.7-26C113.3,667.5,113.3,661.8,113.2,656L113.2,656z M33,702.4
		c-1.4-0.3-2.8-0.9-3.1-2.3C30.3,701.5,31.6,702.1,33,702.4c0.3,1.7,1.6,2.3,2.9,3C34.7,704.7,33.3,704.1,33,702.4z M42.8,693
		L42.8,693c0.7-0.1,1.3-0.2,2-0.3C44.1,692.8,43.5,692.9,42.8,693z M84.6,693.1L84.6,693.1L84.6,693.1L84.6,693.1z"/>
	<g class="st1">
		<path d="M113.4,656c-1.7,5.5-3.7,11-4.9,16.6c-1.8,8.4-5.4,16.2-10.1,23.1c-9.6,14.3-24.5,20-41,20.9
			c-22.6,1.2-37.3-12.2-45.8-31.3c-2.1-4.7-6.6-10-3.7-16.3c-3.3-8.7-2.2-17.4-0.6-26.2c0.7-4,3-7.8,2.2-12.1
			c-7.2,14.6-8.4,29.8-5.4,45.7c3.1,16,11.8,28.4,24.4,38.3c9.2,5.9,19.3,8.4,30,9c19.1-0.8,34.3-8.5,45.3-24.5
			c5.4-7.9,7.3-17,9.7-26C113.5,667.5,113.4,661.8,113.4,656z"/>
		<path d="M105,634.9c0.8,2.2,1.2,5.1,4.8,4.2c-1.5-3.9-2.8-7.8-4.4-11.6c-7.8-17.7-19.5-33.3-27.2-51c-3.9-9-7.5-18.1-9.8-27.7
			c-0.1,0.1-0.3,0.1-0.4,0.2c-0.2,0.1-0.3,0.3-0.5,0.4c-0.1,13.7,5.7,25.8,11.8,37.3C87.9,602.8,98.5,617.8,105,634.9z"/>
	</g>
	<g class="st2">
		<path class="st3" d="M52,649.4c-2-8.2,0.2-16.7-1.2-24.8c-1.3-7.5-3-15.1-7.4-21.7c-6.1-0.7-5.4,4.7-7.4,7.9
			c-1,3.3-1.9,6.7-5.1,8.7c-0.1,1.8-0.9,3-2.5,3.7c-0.3,2.9-0.1,6.2-3.6,7.6c0,0.4-0.1,0.9-0.1,1.3c-1.7,12.5-2,24.9-0.1,37.4
			c2.9,4.7,8.8,4.2,12.5,7.5c3.6,0.6,5.6,0.8,4.3-4.5c-2.8-11-1-14.4,8.5-19.6C51.5,652.2,52.4,651.1,52,649.4z"/>
		<path class="st3" d="M23.5,632c0-1.2,0-2.5,0-3.7c-3.4-0.5-5.1,1-6.3,4.2c-0.9,2.4,0.2,6-3.5,7.1c-2.4,7.9-0.9,15.7,0,23.6
			c2.5,0.3,2.4,2.1,2.3,3.9c2.4,1.2,4.2,4.4,7.6,2.4C21.5,657,18.7,644.5,23.5,632z"/>
	</g>
	<g class="st1">
		<path class="st3" d="M41.9,680.8c5,1.2,9.8-0.4,14.7-0.1c9.6,0.7,16.6-3.9,22.3-11c5-6.3,4.1-9.4-3.6-11.9
			c-2.1-0.7-4.2-2.1-6.5-1.5c-1.7,0.4-2.9,0.2-3.6-1.4c-0.7-1.7-0.4-3.2,1.2-4.4c3-2.2,3.4-5.4,3.3-8.9c-0.1-5.8,0.3-11.8-7.2-13.6
			c-1.9-9.1-11.4-13.9-13-23.4c-0.7-4.2-3-4.4-6.1-1.8c4.4,6.6,6.1,14.2,7.4,21.7c1.4,8.1-0.8,16.6,1.2,24.8
			c0.4,1.6-0.5,2.7-1.9,3.5c-9.5,5.2-11.3,8.5-8.5,19.6c1.3,5.2-0.7,5.1-4.3,4.5C37.5,679.9,39.5,680.2,41.9,680.8z"/>
		<path class="st3" d="M75.1,694.7c-14-5.6-28-2.4-42-0.1c0.1,0.7,0.1,1.4,0.2,2.1c0,1.9-0.1,3.8-0.1,5.8c0.3,2,2,2.4,3.5,3.3
			c7.3,4.3,15.4,2.7,23.2,2.9c12.3,0.3,22.6-3.9,29.4-14.7c0.2-1.3,0.4-2.5,0.6-3.8c-3.1,1.3-5.5,4-8.9,4.8
			C78.9,696.6,77,695.5,75.1,694.7z"/>
		<path class="st3" d="M101.3,641.3c-0.6-1.2-0.3-2.8-0.4-4.3c-2.3-1.4-2.9-3.9-3.8-6.2c-0.6-1.7-1-4.4-3-4.2c-2.2,0.3-2.6,3-2.9,5
			c-1,6.7-1.8,13.5-2.8,20.2c-0.3,2-2.2,4.3-0.1,5.7c2.6,1.7,3.8-1.4,5.6-2.7c1-0.7,2.1-1.2,3.2-1.7
			C101.2,650.2,104.2,646.9,101.3,641.3z"/>
		<path class="st3" d="M23.5,628.2c1-6.7,4.1-13.2,1.2-20.1c-3,5.8-5.9,11.7-8.9,17.5c2.3,1.3,0.5,2.9,0.2,4.4
			c-0.7,3.2-2.6,6.1-2.4,9.6c3.7-1.1,2.6-4.7,3.5-7.1C18.4,629.2,20.1,627.7,23.5,628.2z"/>
		<path class="st3" d="M23.5,632c-4.8,12.5-2,25,0,37.5c0.4,0,0.8,0,1.2,0c-1.9-12.5-1.6-24.9,0.1-37.4C24.4,632.1,24,632,23.5,632z
			"/>
		<path class="st3" d="M83.8,677.6c2.2-2,2-4.3,2.6-6.2c0.6-1.6,3.3-3.3,1.3-4.8c-2.2-1.6-3.3,1.6-4.8,2.8
			C79.7,672.3,81.5,674.9,83.8,677.6z"/>
		<path class="st3" d="M31,619.5c3.2-2,4.1-5.4,5.1-8.7C32.6,612.6,30.3,615.2,31,619.5z"/>
		<path class="st3" d="M24.9,630.8c3.5-1.4,3.2-4.7,3.6-7.6C24.6,624.4,26.1,628.3,24.9,630.8z"/>
		<path class="st3" d="M13.7,663.1c-0.2,1.8-0.2,3.6,2.3,3.9C16.1,665.2,16.1,663.5,13.7,663.1z"/>
	</g>
	<g class="st4">
		<path class="st3" d="M90.8,613.4c-1.6,3.6,0.2,6.9-1.3,8.9c-3.5,1.7-3.9-9.8-9.2,0.9c-1.7-11.2-11.7-17.7-9.3-28.9
			c0.3-1.4-0.5-2.7-1.1-4.1c-4.3-10.1-7.4-20.5-7.5-31.6c0-1.7,1.4-4.9-2.1-4.7c-2.9,0.1-6.7,1.9-6.1,4.9c1.7,9.4-6.4,14.8-8.5,22.6
			c-0.5,2-2.1,3.8-2.2,6.2c-0.3,7.8-3,9.9-10.7,11c-5,0.7-5.5,6.2-8.1,9.6c2.9,6.9-0.1,13.4-1.2,20.1c0,1.2,0,2.5,0,3.7
			c0.5,0,0.9,0.1,1.4,0.1c0-0.4,0.1-0.9,0.1-1.3c1.2-2.5-0.4-6.4,3.6-7.6c1.5-0.8,2.4-2,2.5-3.7c-0.7-4.3,1.6-6.8,5.1-8.7
			c1.9-3.1,1.3-8.6,7.4-7.9c3.1-2.6,5.4-2.4,6.1,1.8c1.6,9.5,11.1,14.3,13,23.4c7.5,1.8,7.1,7.8,7.2,13.6c0.1,3.5-0.3,6.7-3.3,8.9
			c-1.6,1.2-1.9,2.7-1.2,4.4c0.6,1.6,1.9,1.9,3.6,1.4c2.4-0.6,4.4,0.8,6.5,1.5c7.7,2.6,8.6,5.6,3.6,11.9c-5.7,7.2-12.6,11.7-22.3,11
			c-4.9-0.3-9.7,1.3-14.7,0.1c-2.5-0.6-4.5-0.9-4.6-3.9c-3.7-3.3-9.7-2.8-12.5-7.5c-0.4,0-0.8,0-1.2,0c-3.4,2-5.2-1.2-7.6-2.4
			c-2.5-0.3-2.5-2.1-2.3-3.9c-0.9-7.9-2.4-15.7,0-23.6c-0.3-3.5,1.7-6.4,2.4-9.6c0.3-1.4,2-3-0.2-4.4c-1.2-0.4-2.4-0.8-3.5-1.1
			c-3.9,0.8,0.7,5.3-2.8,6.3c0.9,4.3-1.4,8.1-2.2,12.1c-1.6,8.8-2.7,17.5,0.6,26.2c3.7,2.9,4.8,7.6,7.6,11.1
			c4.9,6.1,10.5,11,17.6,14.4c14-2.3,28-5.5,42,0.1c1.9,0.8,3.8,1.9,5.8,0.1c-4.3-2.3-3-4.3,0-7c10.3-9.2,16.4-20.5,16.2-34.6
			c-1.1,0.6-2.2,1.1-3.2,1.7c-1.8,1.2-3,4.3-5.6,2.7c-2.1-1.4-0.2-3.8,0.1-5.7c1-6.7,1.9-13.5,2.8-20.2c0.3-2.1,0.7-4.8,2.9-5
			c2.1-0.2,2.4,2.5,3,4.2c0.8,2.4,1.4,4.8,3.8,6.2C99.6,628.6,95,621.6,90.8,613.4z M87.7,666.7c2,1.4-0.7,3.1-1.3,4.8
			c-0.7,1.9-0.4,4.2-2.6,6.2c-2.3-2.8-4.2-5.3-0.8-8.2C84.4,668.2,85.5,665.1,87.7,666.7z"/>
		<path class="st3" d="M62.4,540.7c-0.8,1.2-3.2,1.5-2.4,3.8C59.8,542.6,66.1,544.9,62.4,540.7z"/>
		<path class="st3" d="M59.6,545.7c-1.7,0-2.4,0.8-2.1,2.5C58.5,547.7,59.4,547.1,59.6,545.7z"/>
		<path class="st3" d="M56.3,550c-0.8-0.2-1.1,0.1-0.9,0.9C55.6,550.6,56,550.3,56.3,550z"/>
		<path class="st3" d="M89.8,690c-0.2,1.3-0.4,2.5-0.6,3.8c2.5-1.7,4.9-3.5,5.9-6.6c-0.3-0.3-0.6-0.5-0.9-0.8
			C92.3,687.1,90.9,688.4,89.8,690z"/>
		<path class="st3" d="M30,699.5c0,1.9,1.5,2.6,3.2,3c0-1.9,0.1-3.8,0.1-5.8C31.6,696.9,30.1,697.5,30,699.5z"/>
		<path class="st3" d="M95.7,685.4c-1-0.7-1.1,0.6-1.4,1.2c0.3,0.2,0.6,0.5,0.9,0.8C95.7,686.7,96.4,685.9,95.7,685.4z"/>
	</g>
</g>
<g>
	<path class="st5" d="M176.2,692c0.2-0.5,0.3-1,0.5-1.5c-0.9-4.3-1.1-8.9-3-13c-0.4-0.7-0.8-1.4-1.1-2.1l0.2-0.3
		c-1.5-3.9-2.8-7.8-4.4-11.6c-7.8-17.7-19.5-33.3-27.2-51c-3.9-9-7.5-18.1-9.8-27.7c-0.1,0.1-0.3,0.1-0.4,0.2
		c-0.2,0.1-0.3,0.3-0.5,0.4c1.4-6.5,0.7-13.1,0.9-20.6c-3.2,2.6-4.1,5-3.9,7.9c0.1,1.8-0.9,2.9-2.1,4c-0.8,1.2-3.2,1.5-2.4,3.8
		c-0.1,0.4-0.2,0.9-0.4,1.3c-1.7,0-2.4,0.8-2.1,2.5c-0.4,0.6-0.8,1.2-1.2,1.8c-0.8-0.2-1.1,0.1-0.9,0.9c-0.9,1.6-1.6,3.3-2.7,4.7
		c-7.6,9.5-12.9,20.5-20.8,30c-6.5,7.9-10.8,17.7-15.6,26.9c-1.9,3.6-4.2,7.4-4,11.9c1,0.3,2,0.6,2.9,1l0,0c-1-0.3-2-0.6-2.9-1
		c-3.9,0.8,0.7,5.3-2.8,6.3l0,0c-7.2,14.6-8.4,29.8-5.4,45.7c3.1,16,11.8,28.4,24.4,38.3c9.2,5.9,19.3,8.4,30,9
		c19.1-0.8,34.3-8.5,45.3-24.5c5.4-7.9,7.3-17,9.7-26C176.3,703.5,176.3,697.8,176.2,692L176.2,692z M96,738.4
		c-1.4-0.3-2.8-0.9-3.1-2.3C93.3,737.5,94.6,738.1,96,738.4c0.3,1.7,1.6,2.3,2.9,3C97.7,740.7,96.3,740.1,96,738.4z M105.8,729
		L105.8,729c0.7-0.1,1.3-0.2,2-0.3C107.1,728.8,106.5,728.9,105.8,729z M147.6,729.1L147.6,729.1L147.6,729.1L147.6,729.1z"/>
	<g class="st1">
		<path d="M176.4,692c-1.7,5.5-3.7,11-4.9,16.6c-1.8,8.4-5.4,16.2-10.1,23.1c-9.6,14.3-24.5,20-41,20.9
			c-22.6,1.2-37.3-12.2-45.8-31.3c-2.1-4.7-6.6-10-3.7-16.3c-3.3-8.7-2.2-17.4-0.6-26.2c0.7-4,3-7.8,2.2-12.1
			c-7.2,14.6-8.4,29.8-5.4,45.7c3.1,16,11.8,28.4,24.4,38.3c9.2,5.9,19.3,8.4,30,9c19.1-0.8,34.3-8.5,45.3-24.5
			c5.4-7.9,7.3-17,9.7-26C176.5,703.5,176.4,697.8,176.4,692z"/>
		<path d="M168,670.9c0.8,2.2,1.2,5.1,4.8,4.2c-1.5-3.9-2.8-7.8-4.4-11.6c-7.8-17.7-19.5-33.3-27.2-51c-3.9-9-7.5-18.1-9.8-27.7
			c-0.1,0.1-0.3,0.1-0.4,0.2c-0.2,0.1-0.3,0.3-0.5,0.4c-0.1,13.7,5.7,25.8,11.8,37.3C150.9,638.8,161.5,653.8,168,670.9z"/>
	</g>
	<g class="st2">
		<path class="st3" d="M115,685.4c-2-8.2,0.2-16.7-1.2-24.8c-1.3-7.5-3-15.1-7.4-21.7c-6.1-0.7-5.4,4.7-7.4,7.9
			c-1,3.3-1.9,6.7-5.1,8.7c-0.1,1.8-0.9,3-2.5,3.7c-0.3,2.9-0.1,6.2-3.6,7.6c0,0.4-0.1,0.9-0.1,1.3c-1.7,12.5-2,24.9-0.1,37.4
			c2.9,4.7,8.8,4.2,12.5,7.5c3.6,0.6,5.6,0.8,4.3-4.5c-2.8-11-1-14.4,8.5-19.6C114.5,688.2,115.4,687.1,115,685.4z"/>
		<path class="st3" d="M86.5,668c0-1.2,0-2.5,0-3.7c-3.4-0.5-5.1,1-6.3,4.2c-0.9,2.4,0.2,6-3.5,7.1c-2.4,7.9-0.9,15.7,0,23.6
			c2.5,0.3,2.4,2.1,2.3,3.9c2.4,1.2,4.2,4.4,7.6,2.4C84.5,693,81.7,680.5,86.5,668z"/>
	</g>
	<g class="st1">
		<path class="st3" d="M104.9,716.8c5,1.2,9.8-0.4,14.7-0.1c9.6,0.7,16.6-3.9,22.3-11c5-6.3,4.1-9.4-3.6-11.9
			c-2.1-0.7-4.2-2.1-6.5-1.5c-1.7,0.4-2.9,0.2-3.6-1.4c-0.7-1.7-0.4-3.2,1.2-4.4c3-2.2,3.4-5.4,3.3-8.9c-0.1-5.8,0.3-11.8-7.2-13.6
			c-1.9-9.1-11.4-13.9-13-23.4c-0.7-4.2-3-4.4-6.1-1.8c4.4,6.6,6.1,14.2,7.4,21.7c1.4,8.1-0.8,16.6,1.2,24.8
			c0.4,1.6-0.5,2.7-1.9,3.5c-9.5,5.2-11.3,8.5-8.5,19.6c1.3,5.2-0.7,5.1-4.3,4.5C100.5,715.9,102.5,716.2,104.9,716.8z"/>
		<path class="st3" d="M138.1,730.7c-14-5.6-28-2.4-42-0.1c0.1,0.7,0.1,1.4,0.2,2.1c0,1.9-0.1,3.8-0.1,5.8c0.3,2,2,2.4,3.5,3.3
			c7.3,4.3,15.4,2.7,23.2,2.9c12.3,0.3,22.6-3.9,29.4-14.7c0.2-1.3,0.4-2.5,0.6-3.8c-3.1,1.3-5.5,4-8.9,4.8
			C141.9,732.6,140,731.5,138.1,730.7z"/>
		<path class="st3" d="M164.3,677.3c-0.6-1.2-0.3-2.8-0.4-4.3c-2.3-1.4-2.9-3.9-3.8-6.2c-0.6-1.7-1-4.4-3-4.2c-2.2,0.3-2.6,3-2.9,5
			c-1,6.7-1.8,13.5-2.8,20.2c-0.3,2-2.2,4.3-0.1,5.7c2.6,1.7,3.8-1.4,5.6-2.7c1-0.7,2.1-1.2,3.2-1.7
			C164.2,686.2,167.2,682.9,164.3,677.3z"/>
		<path class="st3" d="M86.5,664.2c1-6.7,4.1-13.2,1.2-20.1c-3,5.8-5.9,11.7-8.9,17.5c2.3,1.3,0.5,2.9,0.2,4.4
			c-0.7,3.2-2.6,6.1-2.4,9.6c3.7-1.1,2.6-4.7,3.5-7.1C81.4,665.2,83.1,663.7,86.5,664.2z"/>
		<path class="st3" d="M86.5,668c-4.8,12.5-2,25,0,37.5c0.4,0,0.8,0,1.2,0c-1.9-12.5-1.6-24.9,0.1-37.4C87.4,668.1,87,668,86.5,668z
			"/>
		<path class="st3" d="M146.8,713.6c2.2-2,2-4.3,2.6-6.2c0.6-1.6,3.3-3.3,1.3-4.8c-2.2-1.6-3.3,1.6-4.8,2.8
			C142.7,708.3,144.5,710.9,146.8,713.6z"/>
		<path class="st3" d="M94,655.5c3.2-2,4.1-5.4,5.1-8.7C95.6,648.6,93.3,651.2,94,655.5z"/>
		<path class="st3" d="M87.9,666.8c3.5-1.4,3.2-4.7,3.6-7.6C87.6,660.4,89.1,664.3,87.9,666.8z"/>
		<path class="st3" d="M76.7,699.1c-0.2,1.8-0.2,3.6,2.3,3.9C79.1,701.2,79.1,699.5,76.7,699.1z"/>
	</g>
	<g class="st4">
		<path class="st3" d="M153.8,649.4c-1.6,3.6,0.2,6.9-1.3,8.9c-3.5,1.7-3.9-9.8-9.2,0.9c-1.7-11.2-11.7-17.7-9.3-28.9
			c0.3-1.4-0.5-2.7-1.1-4.1c-4.3-10.1-7.4-20.5-7.5-31.6c0-1.7,1.4-4.9-2.1-4.7c-2.9,0.1-6.7,1.9-6.1,4.9c1.7,9.4-6.4,14.8-8.5,22.6
			c-0.5,2-2.1,3.8-2.2,6.2c-0.3,7.8-3,9.9-10.7,11c-5,0.7-5.5,6.2-8.1,9.6c2.9,6.9-0.1,13.4-1.2,20.1c0,1.2,0,2.5,0,3.7
			c0.5,0,0.9,0.1,1.4,0.1c0-0.4,0.1-0.9,0.1-1.3c1.2-2.5-0.4-6.4,3.6-7.6c1.5-0.8,2.4-2,2.5-3.7c-0.7-4.3,1.6-6.8,5.1-8.7
			c1.9-3.1,1.3-8.6,7.4-7.9c3.1-2.6,5.4-2.4,6.1,1.8c1.6,9.5,11.1,14.3,13,23.4c7.5,1.8,7.1,7.8,7.2,13.6c0.1,3.5-0.3,6.7-3.3,8.9
			c-1.6,1.2-1.9,2.7-1.2,4.4c0.6,1.6,1.9,1.9,3.6,1.4c2.4-0.6,4.4,0.8,6.5,1.5c7.7,2.6,8.6,5.6,3.6,11.9c-5.7,7.2-12.6,11.7-22.3,11
			c-4.9-0.3-9.7,1.3-14.7,0.1c-2.5-0.6-4.5-0.9-4.6-3.9c-3.7-3.3-9.7-2.8-12.5-7.5c-0.4,0-0.8,0-1.2,0c-3.4,2-5.2-1.2-7.6-2.4
			c-2.5-0.3-2.5-2.1-2.3-3.9c-0.9-7.9-2.4-15.7,0-23.6c-0.3-3.5,1.7-6.4,2.4-9.6c0.3-1.4,2-3-0.2-4.4c-1.2-0.4-2.4-0.8-3.5-1.1
			c-3.9,0.8,0.7,5.3-2.8,6.3c0.9,4.3-1.4,8.1-2.2,12.1c-1.6,8.8-2.7,17.5,0.6,26.2c3.7,2.9,4.8,7.6,7.6,11.1
			c4.9,6.1,10.5,11,17.6,14.4c14-2.3,28-5.5,42,0.1c1.9,0.8,3.8,1.9,5.8,0.1c-4.3-2.3-3-4.3,0-7c10.3-9.2,16.4-20.5,16.2-34.6
			c-1.1,0.6-2.2,1.1-3.2,1.7c-1.8,1.2-3,4.3-5.6,2.7c-2.1-1.4-0.2-3.8,0.1-5.7c1-6.7,1.9-13.5,2.8-20.2c0.3-2.1,0.7-4.8,2.9-5
			c2.1-0.2,2.4,2.5,3,4.2c0.8,2.4,1.4,4.8,3.8,6.2C162.6,664.6,158,657.6,153.8,649.4z M150.7,702.7c2,1.4-0.7,3.1-1.3,4.8
			c-0.7,1.9-0.4,4.2-2.6,6.2c-2.3-2.8-4.2-5.3-0.8-8.2C147.4,704.2,148.5,701.1,150.7,702.7z"/>
		<path class="st3" d="M125.4,576.7c-0.8,1.2-3.2,1.5-2.4,3.8C122.8,578.6,129.1,580.9,125.4,576.7z"/>
		<path class="st3" d="M122.6,581.7c-1.7,0-2.4,0.8-2.1,2.5C121.5,583.7,122.4,583.1,122.6,581.7z"/>
		<path class="st3" d="M119.3,586c-0.8-0.2-1.1,0.1-0.9,0.9C118.6,586.6,119,586.3,119.3,586z"/>
		<path class="st3" d="M152.8,726c-0.2,1.3-0.4,2.5-0.6,3.8c2.5-1.7,4.9-3.5,5.9-6.6c-0.3-0.3-0.6-0.5-0.9-0.8
			C155.3,723.1,153.9,724.4,152.8,726z"/>
		<path class="st3" d="M93,735.5c0,1.9,1.5,2.6,3.2,3c0-1.9,0.1-3.8,0.1-5.8C94.6,732.9,93.1,733.5,93,735.5z"/>
		<path class="st3" d="M158.7,721.4c-1-0.7-1.1,0.6-1.4,1.2c0.3,0.2,0.6,0.5,0.9,0.8C158.7,722.7,159.4,721.9,158.7,721.4z"/>
	</g>
</g>
<g>
	<path class="st6" d="M228.1,710.8c0.2-0.5,0.3-1,0.5-1.5c-0.9-4.3-1.1-8.9-3-13c-0.4-0.7-0.8-1.4-1.1-2.1l0.2-0.3
		c-1.5-3.9-2.8-7.8-4.4-11.6c-7.8-17.7-19.5-33.3-27.2-51c-3.9-9-7.5-18.1-9.8-27.7c-0.1,0.1-0.3,0.1-0.4,0.2
		c-0.2,0.1-0.3,0.3-0.5,0.4c1.4-6.5,0.7-13.1,0.9-20.6c-3.2,2.6-4.1,5-3.9,7.9c0.1,1.8-0.9,2.9-2.1,4c-0.8,1.2-3.2,1.5-2.4,3.8
		c-0.1,0.4-0.2,0.9-0.4,1.3c-1.7,0-2.4,0.8-2.1,2.5c-0.4,0.6-0.8,1.2-1.2,1.8c-0.8-0.2-1.1,0.1-0.9,0.9c-0.9,1.6-1.6,3.3-2.7,4.7
		c-7.6,9.5-12.9,20.5-20.8,30c-6.5,7.9-10.8,17.7-15.6,26.9c-1.9,3.6-4.2,7.4-4,11.9c1,0.3,2,0.6,2.9,1l0,0c-1-0.3-2-0.6-2.9-1
		c-3.9,0.8,0.7,5.3-2.8,6.3l0,0c-7.2,14.6-8.4,29.8-5.4,45.7c3.1,16,11.8,28.4,24.4,38.3c9.2,5.9,19.3,8.4,30,9
		c19.1-0.8,34.3-8.5,45.3-24.5c5.4-7.9,7.3-17,9.7-26C228.2,722.3,228.2,716.6,228.1,710.8L228.1,710.8z M147.9,757.2
		c-1.4-0.3-2.8-0.9-3.1-2.3C145.2,756.3,146.5,756.9,147.9,757.2c0.3,1.7,1.6,2.3,2.9,3C149.6,759.5,148.2,758.9,147.9,757.2z
		 M157.7,747.8L157.7,747.8c0.7-0.1,1.3-0.2,2-0.3C159,747.6,158.4,747.7,157.7,747.8z M199.5,747.9L199.5,747.9L199.5,747.9
		L199.5,747.9z"/>
	<g class="st1">
		<path d="M228.3,710.8c-1.7,5.5-3.7,11-4.9,16.6c-1.8,8.4-5.4,16.2-10.1,23.1c-9.6,14.3-24.5,20-41,20.9
			c-22.6,1.2-37.3-12.2-45.8-31.3c-2.1-4.7-6.6-10-3.7-16.3c-3.3-8.7-2.2-17.4-0.6-26.2c0.7-4,3-7.8,2.2-12.1
			c-7.2,14.6-8.4,29.8-5.4,45.7c3.1,16,11.8,28.4,24.4,38.3c9.2,5.9,19.3,8.4,30,9c19.1-0.8,34.3-8.5,45.3-24.5
			c5.4-7.9,7.3-17,9.7-26C228.4,722.3,228.3,716.6,228.3,710.8z"/>
		<path d="M219.9,689.7c0.8,2.2,1.2,5.1,4.8,4.2c-1.5-3.9-2.8-7.8-4.4-11.6c-7.8-17.7-19.5-33.3-27.2-51c-3.9-9-7.5-18.1-9.8-27.7
			c-0.1,0.1-0.3,0.1-0.4,0.2c-0.2,0.1-0.3,0.3-0.5,0.4c-0.1,13.7,5.7,25.8,11.8,37.3C202.8,657.6,213.4,672.6,219.9,689.7z"/>
	</g>
	<g class="st2">
		<path class="st3" d="M166.9,704.2c-2-8.2,0.2-16.7-1.2-24.8c-1.3-7.5-3-15.1-7.4-21.7c-6.1-0.7-5.4,4.7-7.4,7.9
			c-1,3.3-1.9,6.7-5.1,8.7c-0.1,1.8-0.9,3-2.5,3.7c-0.3,2.9-0.1,6.2-3.6,7.6c0,0.4-0.1,0.9-0.1,1.3c-1.7,12.5-2,24.9-0.1,37.4
			c2.9,4.7,8.8,4.2,12.5,7.5c3.6,0.6,5.6,0.8,4.3-4.5c-2.8-11-1-14.4,8.5-19.6C166.4,707,167.3,705.9,166.9,704.2z"/>
		<path class="st3" d="M138.4,686.8c0-1.2,0-2.5,0-3.7c-3.4-0.5-5.1,1-6.3,4.2c-0.9,2.4,0.2,6-3.5,7.1c-2.4,7.9-0.9,15.7,0,23.6
			c2.5,0.3,2.4,2.1,2.3,3.9c2.4,1.2,4.2,4.4,7.6,2.4C136.4,711.8,133.6,699.3,138.4,686.8z"/>
	</g>
	<g class="st1">
		<path class="st3" d="M156.8,735.6c5,1.2,9.8-0.4,14.7-0.1c9.6,0.7,16.6-3.9,22.3-11c5-6.3,4.1-9.4-3.6-11.9
			c-2.1-0.7-4.2-2.1-6.5-1.5c-1.7,0.4-2.9,0.2-3.6-1.4c-0.7-1.7-0.4-3.2,1.2-4.4c3-2.2,3.4-5.4,3.3-8.9c-0.1-5.8,0.3-11.8-7.2-13.6
			c-1.9-9.1-11.4-13.9-13-23.4c-0.7-4.2-3-4.4-6.1-1.8c4.4,6.6,6.1,14.2,7.4,21.7c1.4,8.1-0.8,16.6,1.2,24.8
			c0.4,1.6-0.5,2.7-1.9,3.5c-9.5,5.2-11.3,8.5-8.5,19.6c1.3,5.2-0.7,5.1-4.3,4.5C152.4,734.7,154.4,735,156.8,735.6z"/>
		<path class="st3" d="M190,749.5c-14-5.6-28-2.4-42-0.1c0.1,0.7,0.1,1.4,0.2,2.1c0,1.9-0.1,3.8-0.1,5.8c0.3,2,2,2.4,3.5,3.3
			c7.3,4.3,15.4,2.7,23.2,2.9c12.3,0.3,22.6-3.9,29.4-14.7c0.2-1.3,0.4-2.5,0.6-3.8c-3.1,1.3-5.5,4-8.9,4.8
			C193.8,751.4,191.9,750.3,190,749.5z"/>
		<path class="st3" d="M216.2,696.1c-0.6-1.2-0.3-2.8-0.4-4.3c-2.3-1.4-2.9-3.9-3.8-6.2c-0.6-1.7-1-4.4-3-4.2c-2.2,0.3-2.6,3-2.9,5
			c-1,6.7-1.8,13.5-2.8,20.2c-0.3,2-2.2,4.3-0.1,5.7c2.6,1.7,3.8-1.4,5.6-2.7c1-0.7,2.1-1.2,3.2-1.7
			C216.1,705,219.1,701.7,216.2,696.1z"/>
		<path class="st3" d="M138.4,683c1-6.7,4.1-13.2,1.2-20.1c-3,5.8-5.9,11.7-8.9,17.5c2.3,1.3,0.5,2.9,0.2,4.4
			c-0.7,3.2-2.6,6.1-2.4,9.6c3.7-1.1,2.6-4.7,3.5-7.1C133.3,684,135,682.5,138.4,683z"/>
		<path class="st3" d="M138.4,686.8c-4.8,12.5-2,25,0,37.5c0.4,0,0.8,0,1.2,0c-1.9-12.5-1.6-24.9,0.1-37.4
			C139.3,686.9,138.9,686.8,138.4,686.8z"/>
		<path class="st3" d="M198.7,732.4c2.2-2,2-4.3,2.6-6.2c0.6-1.6,3.3-3.3,1.3-4.8c-2.2-1.6-3.3,1.6-4.8,2.8
			C194.6,727.1,196.4,729.7,198.7,732.4z"/>
		<path class="st3" d="M145.9,674.3c3.2-2,4.1-5.4,5.1-8.7C147.5,667.4,145.2,670,145.9,674.3z"/>
		<path class="st3" d="M139.8,685.6c3.5-1.4,3.2-4.7,3.6-7.6C139.5,679.2,141,683.1,139.8,685.6z"/>
		<path class="st3" d="M128.6,717.9c-0.2,1.8-0.2,3.6,2.3,3.9C131,720,131,718.3,128.6,717.9z"/>
	</g>
	<g class="st4">
		<path class="st3" d="M205.7,668.2c-1.6,3.6,0.2,6.9-1.3,8.9c-3.5,1.7-3.9-9.8-9.2,0.9c-1.7-11.2-11.7-17.7-9.3-28.9
			c0.3-1.4-0.5-2.7-1.1-4.1c-4.3-10.1-7.4-20.5-7.5-31.6c0-1.7,1.4-4.9-2.1-4.7c-2.9,0.1-6.7,1.9-6.1,4.9c1.7,9.4-6.4,14.8-8.5,22.6
			c-0.5,2-2.1,3.8-2.2,6.2c-0.3,7.8-3,9.9-10.7,11c-5,0.7-5.5,6.2-8.1,9.6c2.9,6.9-0.1,13.4-1.2,20.1c0,1.2,0,2.5,0,3.7
			c0.5,0,0.9,0.1,1.4,0.1c0-0.4,0.1-0.9,0.1-1.3c1.2-2.5-0.4-6.4,3.6-7.6c1.5-0.8,2.4-2,2.5-3.7c-0.7-4.3,1.6-6.8,5.1-8.7
			c1.9-3.1,1.3-8.6,7.4-7.9c3.1-2.6,5.4-2.4,6.1,1.8c1.6,9.5,11.1,14.3,13,23.4c7.5,1.8,7.1,7.8,7.2,13.6c0.1,3.5-0.3,6.7-3.3,8.9
			c-1.6,1.2-1.9,2.7-1.2,4.4c0.6,1.6,1.9,1.9,3.6,1.4c2.4-0.6,4.4,0.8,6.5,1.5c7.7,2.6,8.6,5.6,3.6,11.9c-5.7,7.2-12.6,11.7-22.3,11
			c-4.9-0.3-9.7,1.3-14.7,0.1c-2.5-0.6-4.5-0.9-4.6-3.9c-3.7-3.3-9.7-2.8-12.5-7.5c-0.4,0-0.8,0-1.2,0c-3.4,2-5.2-1.2-7.6-2.4
			c-2.5-0.3-2.5-2.1-2.3-3.9c-0.9-7.9-2.4-15.7,0-23.6c-0.3-3.5,1.7-6.4,2.4-9.6c0.3-1.4,2-3-0.2-4.4c-1.2-0.4-2.4-0.8-3.5-1.1
			c-3.9,0.8,0.7,5.3-2.8,6.3c0.9,4.3-1.4,8.1-2.2,12.1c-1.6,8.8-2.7,17.5,0.6,26.2c3.7,2.9,4.8,7.6,7.6,11.1
			c4.9,6.1,10.5,11,17.6,14.4c14-2.3,28-5.5,42,0.1c1.9,0.8,3.8,1.9,5.8,0.1c-4.3-2.3-3-4.3,0-7c10.3-9.2,16.4-20.5,16.2-34.6
			c-1.1,0.6-2.2,1.1-3.2,1.7c-1.8,1.2-3,4.3-5.6,2.7c-2.1-1.4-0.2-3.8,0.1-5.7c1-6.7,1.9-13.5,2.8-20.2c0.3-2.1,0.7-4.8,2.9-5
			c2.1-0.2,2.4,2.5,3,4.2c0.8,2.4,1.4,4.8,3.8,6.2C214.5,683.4,209.9,676.4,205.7,668.2z M202.6,721.5c2,1.4-0.7,3.1-1.3,4.8
			c-0.7,1.9-0.4,4.2-2.6,6.2c-2.3-2.8-4.2-5.3-0.8-8.2C199.3,723,200.4,719.9,202.6,721.5z"/>
		<path class="st3" d="M177.3,595.5c-0.8,1.2-3.2,1.5-2.4,3.8C174.7,597.4,181,599.7,177.3,595.5z"/>
		<path class="st3" d="M174.5,600.5c-1.7,0-2.4,0.8-2.1,2.5C173.4,602.5,174.3,601.9,174.5,600.5z"/>
		<path class="st3" d="M171.2,604.8c-0.8-0.2-1.1,0.1-0.9,0.9C170.5,605.4,170.9,605.1,171.2,604.8z"/>
		<path class="st3" d="M204.7,744.8c-0.2,1.3-0.4,2.5-0.6,3.8c2.5-1.7,4.9-3.5,5.9-6.6c-0.3-0.3-0.6-0.5-0.9-0.8
			C207.2,741.9,205.8,743.2,204.7,744.8z"/>
		<path class="st3" d="M144.9,754.3c0,1.9,1.5,2.6,3.2,3c0-1.9,0.1-3.8,0.1-5.8C146.5,751.7,145,752.3,144.9,754.3z"/>
		<path class="st3" d="M210.6,740.2c-1-0.7-1.1,0.6-1.4,1.2c0.3,0.2,0.6,0.5,0.9,0.8C210.6,741.5,211.3,740.7,210.6,740.2z"/>
	</g>
</g>
<g>
	<path class="st7" d="M291.1,746.8c0.2-0.5,0.3-1,0.5-1.5c-0.9-4.3-1.1-8.9-3-13c-0.4-0.7-0.8-1.4-1.1-2.1l0.2-0.3
		c-1.5-3.9-2.8-7.8-4.4-11.6c-7.8-17.7-19.5-33.3-27.2-51c-3.9-9-7.5-18.1-9.8-27.7c-0.1,0.1-0.3,0.1-0.4,0.2
		c-0.2,0.1-0.3,0.3-0.5,0.4c1.4-6.5,0.7-13.1,0.9-20.6c-3.2,2.6-4.1,5-3.9,7.9c0.1,1.8-0.9,2.9-2.1,4c-0.8,1.2-3.2,1.5-2.4,3.8
		c-0.1,0.4-0.2,0.9-0.4,1.3c-1.7,0-2.4,0.8-2.1,2.5c-0.4,0.6-0.8,1.2-1.2,1.8c-0.8-0.2-1.1,0.1-0.9,0.9c-0.9,1.6-1.6,3.3-2.7,4.7
		c-7.6,9.5-12.9,20.5-20.8,30c-6.5,7.9-10.8,17.7-15.6,26.9c-1.9,3.6-4.2,7.4-4,11.9c1,0.3,2,0.6,2.9,1l0,0c-1-0.3-2-0.6-2.9-1
		c-3.9,0.8,0.7,5.3-2.8,6.3l0,0c-7.2,14.6-8.4,29.8-5.4,45.7c3.1,16,11.8,28.4,24.4,38.3c9.2,5.9,19.3,8.4,30,9
		c19.1-0.8,34.3-8.5,45.3-24.5c5.4-7.9,7.3-17,9.7-26C291.2,758.3,291.2,752.6,291.1,746.8L291.1,746.8z M210.9,793.2
		c-1.4-0.3-2.8-0.9-3.1-2.3C208.2,792.3,209.5,792.9,210.9,793.2c0.3,1.7,1.6,2.3,2.9,3C212.6,795.5,211.2,794.9,210.9,793.2z
		 M220.7,783.8L220.7,783.8c0.7-0.1,1.3-0.2,2-0.3C222,783.6,221.4,783.7,220.7,783.8z M262.5,783.9L262.5,783.9L262.5,783.9
		L262.5,783.9z"/>
	<g class="st1">
		<path d="M291.3,746.8c-1.7,5.5-3.7,11-4.9,16.6c-1.8,8.4-5.4,16.2-10.1,23.1c-9.6,14.3-24.5,20-41,20.9
			c-22.6,1.2-37.3-12.2-45.8-31.3c-2.1-4.7-6.6-10-3.7-16.3c-3.3-8.7-2.2-17.4-0.6-26.2c0.7-4,3-7.8,2.2-12.1
			c-7.2,14.6-8.4,29.8-5.4,45.7c3.1,16,11.8,28.4,24.4,38.3c9.2,5.9,19.3,8.4,30,9c19.1-0.8,34.3-8.5,45.3-24.5
			c5.4-7.9,7.3-17,9.7-26C291.4,758.3,291.3,752.6,291.3,746.8z"/>
		<path d="M282.9,725.7c0.8,2.2,1.2,5.1,4.8,4.2c-1.5-3.9-2.8-7.8-4.4-11.6c-7.8-17.7-19.5-33.3-27.2-51c-3.9-9-7.5-18.1-9.8-27.7
			c-0.1,0.1-0.3,0.1-0.4,0.2c-0.2,0.1-0.3,0.3-0.5,0.4c-0.1,13.7,5.7,25.8,11.8,37.3C265.8,693.6,276.4,708.6,282.9,725.7z"/>
	</g>
	<g class="st2">
		<path class="st3" d="M229.9,740.2c-2-8.2,0.2-16.7-1.2-24.8c-1.3-7.5-3-15.1-7.4-21.7c-6.1-0.7-5.4,4.7-7.4,7.9
			c-1,3.3-1.9,6.7-5.1,8.7c-0.1,1.8-0.9,3-2.5,3.7c-0.3,2.9-0.1,6.2-3.6,7.6c0,0.4-0.1,0.9-0.1,1.3c-1.7,12.5-2,24.9-0.1,37.4
			c2.9,4.7,8.8,4.2,12.5,7.5c3.6,0.6,5.6,0.8,4.3-4.5c-2.8-11-1-14.4,8.5-19.6C229.4,743,230.3,741.9,229.9,740.2z"/>
		<path class="st3" d="M201.4,722.8c0-1.2,0-2.5,0-3.7c-3.4-0.5-5.1,1-6.3,4.2c-0.9,2.4,0.2,6-3.5,7.1c-2.4,7.9-0.9,15.7,0,23.6
			c2.5,0.3,2.4,2.1,2.3,3.9c2.4,1.2,4.2,4.4,7.6,2.4C199.4,747.8,196.6,735.3,201.4,722.8z"/>
	</g>
	<g class="st1">
		<path class="st3" d="M219.8,771.6c5,1.2,9.8-0.4,14.7-0.1c9.6,0.7,16.6-3.9,22.3-11c5-6.3,4.1-9.4-3.6-11.9
			c-2.1-0.7-4.2-2.1-6.5-1.5c-1.7,0.4-2.9,0.2-3.6-1.4c-0.7-1.7-0.4-3.2,1.2-4.4c3-2.2,3.4-5.4,3.3-8.9c-0.1-5.8,0.3-11.8-7.2-13.6
			c-1.9-9.1-11.4-13.9-13-23.4c-0.7-4.2-3-4.4-6.1-1.8c4.4,6.6,6.1,14.2,7.4,21.7c1.4,8.1-0.8,16.6,1.2,24.8
			c0.4,1.6-0.5,2.7-1.9,3.5c-9.5,5.2-11.3,8.5-8.5,19.6c1.3,5.2-0.7,5.1-4.3,4.5C215.4,770.7,217.4,771,219.8,771.6z"/>
		<path class="st3" d="M253,785.5c-14-5.6-28-2.4-42-0.1c0.1,0.7,0.1,1.4,0.2,2.1c0,1.9-0.1,3.8-0.1,5.8c0.3,2,2,2.4,3.5,3.3
			c7.3,4.3,15.4,2.7,23.2,2.9c12.3,0.3,22.6-3.9,29.4-14.7c0.2-1.3,0.4-2.5,0.6-3.8c-3.1,1.3-5.5,4-8.9,4.8
			C256.8,787.4,254.9,786.3,253,785.5z"/>
		<path class="st3" d="M279.2,732.1c-0.6-1.2-0.3-2.8-0.4-4.3c-2.3-1.4-2.9-3.9-3.8-6.2c-0.6-1.7-1-4.4-3-4.2c-2.2,0.3-2.6,3-2.9,5
			c-1,6.7-1.8,13.5-2.8,20.2c-0.3,2-2.2,4.3-0.1,5.7c2.6,1.7,3.8-1.4,5.6-2.7c1-0.7,2.1-1.2,3.2-1.7
			C279.1,741,282.1,737.7,279.2,732.1z"/>
		<path class="st3" d="M201.4,719c1-6.7,4.1-13.2,1.2-20.1c-3,5.8-5.9,11.7-8.9,17.5c2.3,1.3,0.5,2.9,0.2,4.4
			c-0.7,3.2-2.6,6.1-2.4,9.6c3.7-1.1,2.6-4.7,3.5-7.1C196.3,720,198,718.5,201.4,719z"/>
		<path class="st3" d="M201.4,722.8c-4.8,12.5-2,25,0,37.5c0.4,0,0.8,0,1.2,0c-1.9-12.5-1.6-24.9,0.1-37.4
			C202.3,722.9,201.9,722.8,201.4,722.8z"/>
		<path class="st3" d="M261.7,768.4c2.2-2,2-4.3,2.6-6.2c0.6-1.6,3.3-3.3,1.3-4.8c-2.2-1.6-3.3,1.6-4.8,2.8
			C257.6,763.1,259.4,765.7,261.7,768.4z"/>
		<path class="st3" d="M208.9,710.3c3.2-2,4.1-5.4,5.1-8.7C210.5,703.4,208.2,706,208.9,710.3z"/>
		<path class="st3" d="M202.8,721.6c3.5-1.4,3.2-4.7,3.6-7.6C202.5,715.2,204,719.1,202.8,721.6z"/>
		<path class="st3" d="M191.6,753.9c-0.2,1.8-0.2,3.6,2.3,3.9C194,756,194,754.3,191.6,753.9z"/>
	</g>
	<g class="st4">
		<path class="st3" d="M268.7,704.2c-1.6,3.6,0.2,6.9-1.3,8.9c-3.5,1.7-3.9-9.8-9.2,0.9c-1.7-11.2-11.7-17.7-9.3-28.9
			c0.3-1.4-0.5-2.7-1.1-4.1c-4.3-10.1-7.4-20.5-7.5-31.6c0-1.7,1.4-4.9-2.1-4.7c-2.9,0.1-6.7,1.9-6.1,4.9c1.7,9.4-6.4,14.8-8.5,22.6
			c-0.5,2-2.1,3.8-2.2,6.2c-0.3,7.8-3,9.9-10.7,11c-5,0.7-5.5,6.2-8.1,9.6c2.9,6.9-0.1,13.4-1.2,20.1c0,1.2,0,2.5,0,3.7
			c0.5,0,0.9,0.1,1.4,0.1c0-0.4,0.1-0.9,0.1-1.3c1.2-2.5-0.4-6.4,3.6-7.6c1.5-0.8,2.4-2,2.5-3.7c-0.7-4.3,1.6-6.8,5.1-8.7
			c1.9-3.1,1.3-8.6,7.4-7.9c3.1-2.6,5.4-2.4,6.1,1.8c1.6,9.5,11.1,14.3,13,23.4c7.5,1.8,7.1,7.8,7.2,13.6c0.1,3.5-0.3,6.7-3.3,8.9
			c-1.6,1.2-1.9,2.7-1.2,4.4c0.6,1.6,1.9,1.9,3.6,1.4c2.4-0.6,4.4,0.8,6.5,1.5c7.7,2.6,8.6,5.6,3.6,11.9c-5.7,7.2-12.6,11.7-22.3,11
			c-4.9-0.3-9.7,1.3-14.7,0.1c-2.5-0.6-4.5-0.9-4.6-3.9c-3.7-3.3-9.7-2.8-12.5-7.5c-0.4,0-0.8,0-1.2,0c-3.4,2-5.2-1.2-7.6-2.4
			c-2.5-0.3-2.5-2.1-2.3-3.9c-0.9-7.9-2.4-15.7,0-23.6c-0.3-3.5,1.7-6.4,2.4-9.6c0.3-1.4,2-3-0.2-4.4c-1.2-0.4-2.4-0.8-3.5-1.1
			c-3.9,0.8,0.7,5.3-2.8,6.3c0.9,4.3-1.4,8.1-2.2,12.1c-1.6,8.8-2.7,17.5,0.6,26.2c3.7,2.9,4.8,7.6,7.6,11.1
			c4.9,6.1,10.5,11,17.6,14.4c14-2.3,28-5.5,42,0.1c1.9,0.8,3.8,1.9,5.8,0.1c-4.3-2.3-3-4.3,0-7c10.3-9.2,16.4-20.5,16.2-34.6
			c-1.1,0.6-2.2,1.1-3.2,1.7c-1.8,1.2-3,4.3-5.6,2.7c-2.1-1.4-0.2-3.8,0.1-5.7c1-6.7,1.9-13.5,2.8-20.2c0.3-2.1,0.7-4.8,2.9-5
			c2.1-0.2,2.4,2.5,3,4.2c0.8,2.4,1.4,4.8,3.8,6.2C277.5,719.4,272.9,712.4,268.7,704.2z M265.6,757.5c2,1.4-0.7,3.1-1.3,4.8
			c-0.7,1.9-0.4,4.2-2.6,6.2c-2.3-2.8-4.2-5.3-0.8-8.2C262.3,759,263.4,755.9,265.6,757.5z"/>
		<path class="st3" d="M240.3,631.5c-0.8,1.2-3.2,1.5-2.4,3.8C237.7,633.4,244,635.7,240.3,631.5z"/>
		<path class="st3" d="M237.5,636.5c-1.7,0-2.4,0.8-2.1,2.5C236.4,638.5,237.3,637.9,237.5,636.5z"/>
		<path class="st3" d="M234.2,640.8c-0.8-0.2-1.1,0.1-0.9,0.9C233.5,641.4,233.9,641.1,234.2,640.8z"/>
		<path class="st3" d="M267.7,780.8c-0.2,1.3-0.4,2.5-0.6,3.8c2.5-1.7,4.9-3.5,5.9-6.6c-0.3-0.3-0.6-0.5-0.9-0.8
			C270.2,777.9,268.8,779.2,267.7,780.8z"/>
		<path class="st3" d="M207.9,790.3c0,1.9,1.5,2.6,3.2,3c0-1.9,0.1-3.8,0.1-5.8C209.5,787.7,208,788.3,207.9,790.3z"/>
		<path class="st3" d="M273.6,776.2c-1-0.7-1.1,0.6-1.4,1.2c0.3,0.2,0.6,0.5,0.9,0.8C273.6,777.5,274.3,776.7,273.6,776.2z"/>
	</g>
</g>
</svg>
