<?xml version="1.0" encoding="utf-8"?>
<!-- Generator: Adobe Illustrator 23.0.3, SVG Export Plug-In . SVG Version: 6.00 Build 0)  -->
<svg version="1.1" id="Layer_1" xmlns="http://www.w3.org/2000/svg" xmlns:xlink="http://www.w3.org/1999/xlink" x="0px" y="0px"
	 viewBox="0 0 816 816" style="enable-background:new 0 0 816 816;" xml:space="preserve">
<style type="text/css">
	.st0{fill:#0023CA;}
	.st1{opacity:0.55;}
	.st2{opacity:0.8;}
	.st3{fill:#FFFDE3;}
	.st4{opacity:0.3;}
	.st5{fill:#D31C00;}
</style>
<g>
	<path class="st0" d="M147.7,701.2c0.2-0.5,0.3-1,0.5-1.5c-0.9-4.3-1.1-8.9-3-13c-0.4-0.7-0.8-1.4-1.1-2.1c0,0,0.2-0.3,0.2-0.3
		c-1.5-3.9-2.8-7.8-4.4-11.6c-7.8-17.7-19.5-33.3-27.2-51c-3.9-9-7.5-18.1-9.8-27.7c-0.1,0.1-0.3,0.1-0.4,0.2
		c-0.2,0.1-0.3,0.3-0.5,0.4c1.4-6.5,0.7-13.1,0.9-20.6c-3.2,2.6-4.1,5-3.9,7.9c0.1,1.8-0.9,2.9-2.1,4c-0.8,1.2-3.2,1.5-2.4,3.8
		c-0.1,0.4-0.2,0.9-0.4,1.3c-1.7,0-2.4,0.8-2.1,2.5c-0.4,0.6-0.8,1.2-1.2,1.8c-0.8-0.2-1.1,0.1-0.9,0.9c-0.9,1.6-1.6,3.3-2.7,4.7
		c-7.6,9.5-12.9,20.5-20.8,30c-6.5,7.9-10.8,17.7-15.6,26.9c-1.9,3.6-4.2,7.4-4,11.9c1,0.3,2,0.6,2.9,1c0,0,0,0,0,0
		c-1-0.3-2-0.6-2.9-1c-3.9,0.8,0.7,5.3-2.8,6.3c0,0,0,0,0,0c-7.2,14.6-8.4,29.8-5.4,45.7c3.1,16,11.8,28.4,24.4,38.3
		c9.2,5.9,19.3,8.4,30,9c19.1-0.8,34.3-8.5,45.3-24.5c5.4-7.9,7.3-17,9.7-26C147.8,712.7,147.8,707,147.7,701.2
		C147.7,701.2,147.7,701.2,147.7,701.2z M67.5,747.6c-1.4-0.3-2.8-0.9-3.1-2.3C64.8,746.7,66.1,747.3,67.5,747.6
		c0.3,1.7,1.6,2.3,2.9,3C69.2,749.9,67.8,749.3,67.5,747.6z M77.3,738.2C77.3,738.2,77.3,738.2,77.3,738.2c0.7-0.1,1.3-0.2,2-0.3
		C78.6,738,78,738.1,77.3,738.2z M119.1,738.3C119.1,738.3,119.1,738.3,119.1,738.3L119.1,738.3
		C119.1,738.3,119.1,738.3,119.1,738.3z"/>
	<g class="st1">
		<path d="M147.9,701.2c-1.7,5.5-3.7,11-4.9,16.6c-1.8,8.4-5.4,16.2-10.1,23.1c-9.6,14.3-24.5,20-41,20.9
			c-22.6,1.2-37.3-12.2-45.8-31.3c-2.1-4.7-6.6-10-3.7-16.3c-3.3-8.7-2.2-17.4-0.6-26.2c0.7-4,3-7.8,2.2-12.1
			c-7.2,14.6-8.4,29.8-5.4,45.7c3.1,16,11.8,28.4,24.4,38.3c9.2,5.9,19.3,8.4,30,9c19.1-0.8,34.3-8.5,45.3-24.5
			c5.4-7.9,7.3-17,9.7-26C148,712.7,147.9,707,147.9,701.2z"/>
		<path d="M139.5,680.1c0.8,2.2,1.2,5.1,4.8,4.2c-1.5-3.9-2.8-7.8-4.4-11.6c-7.8-17.7-19.5-33.3-27.2-51c-3.9-9-7.5-18.1-9.8-27.7
			c-0.1,0.1-0.3,0.1-0.4,0.2c-0.2,0.1-0.3,0.3-0.5,0.4c-0.1,13.7,5.7,25.8,11.8,37.3C122.4,648,133,663,139.5,680.1z"/>
	</g>
	<g class="st2">
		<path class="st3" d="M86.5,694.6c-2-8.2,0.2-16.7-1.2-24.8c-1.3-7.5-3-15.1-7.4-21.7c-6.1-0.7-5.4,4.7-7.4,7.9
			c-1,3.3-1.9,6.7-5.1,8.7c-0.1,1.8-0.9,3-2.5,3.7c-0.3,2.9-0.1,6.2-3.6,7.6c0,0.4-0.1,0.9-0.1,1.3c-1.7,12.5-2,24.9-0.1,37.4
			c2.9,4.7,8.8,4.2,12.5,7.5c3.6,0.6,5.6,0.8,4.3-4.5c-2.8-11-1-14.4,8.5-19.6C86,697.4,86.9,696.3,86.5,694.6z"/>
		<path class="st3" d="M58,677.2c0-1.2,0-2.5,0-3.7c-3.4-0.5-5.1,1-6.3,4.2c-0.9,2.4,0.2,6-3.5,7.1c-2.4,7.9-0.9,15.7,0,23.6
			c2.5,0.3,2.4,2.1,2.3,3.9c2.4,1.2,4.2,4.4,7.6,2.4C56,702.2,53.2,689.7,58,677.2z"/>
	</g>
	<g class="st1">
		<path class="st3" d="M76.4,726c5,1.2,9.8-0.4,14.7-0.1c9.6,0.7,16.6-3.9,22.3-11c5-6.3,4.1-9.4-3.6-11.9c-2.1-0.7-4.2-2.1-6.5-1.5
			c-1.7,0.4-2.9,0.2-3.6-1.4c-0.7-1.7-0.4-3.2,1.2-4.4c3-2.2,3.4-5.4,3.3-8.9c-0.1-5.8,0.3-11.8-7.2-13.6
			c-1.9-9.1-11.4-13.9-13-23.4c-0.7-4.2-3-4.4-6.1-1.8c4.4,6.6,6.1,14.2,7.4,21.7c1.4,8.1-0.8,16.6,1.2,24.8
			c0.4,1.6-0.5,2.7-1.9,3.5c-9.5,5.2-11.3,8.5-8.5,19.6c1.3,5.2-0.7,5.1-4.3,4.5C72,725.1,74,725.4,76.4,726z"/>
		<path class="st3" d="M109.6,739.9c-14-5.6-28-2.4-42-0.1c0.1,0.7,0.1,1.4,0.2,2.1c0,1.9-0.1,3.8-0.1,5.8c0.3,2,2,2.4,3.5,3.3
			c7.3,4.3,15.4,2.7,23.2,2.9c12.3,0.3,22.6-3.9,29.4-14.7c0.2-1.3,0.4-2.5,0.6-3.8c-3.1,1.3-5.5,4-8.9,4.8
			C113.4,741.8,111.5,740.7,109.6,739.9z"/>
		<path class="st3" d="M135.8,686.5c-0.6-1.2-0.3-2.8-0.4-4.3c-2.3-1.4-2.9-3.9-3.8-6.2c-0.6-1.7-1-4.4-3-4.2c-2.2,0.3-2.6,3-2.9,5
			c-1,6.7-1.8,13.5-2.8,20.2c-0.3,2-2.2,4.3-0.1,5.7c2.6,1.7,3.8-1.4,5.6-2.7c1-0.7,2.1-1.2,3.2-1.7
			C135.7,695.4,138.7,692.1,135.8,686.5z"/>
		<path class="st3" d="M58,673.4c1-6.7,4.1-13.2,1.2-20.1c-3,5.8-5.9,11.7-8.9,17.5c2.3,1.3,0.5,2.9,0.2,4.4
			c-0.7,3.2-2.6,6.1-2.4,9.6c3.7-1.1,2.6-4.7,3.5-7.1C52.9,674.4,54.6,672.9,58,673.4z"/>
		<path class="st3" d="M58,677.2c-4.8,12.5-2,25,0,37.5c0.4,0,0.8,0,1.2,0c-1.9-12.5-1.6-24.9,0.1-37.4
			C58.9,677.3,58.5,677.2,58,677.2z"/>
		<path class="st3" d="M118.3,722.8c2.2-2,2-4.3,2.6-6.2c0.6-1.6,3.3-3.3,1.3-4.8c-2.2-1.6-3.3,1.6-4.8,2.8
			C114.2,717.5,116,720.1,118.3,722.8z"/>
		<path class="st3" d="M65.5,664.7c3.2-2,4.1-5.4,5.1-8.7C67.1,657.8,64.8,660.4,65.5,664.7z"/>
		<path class="st3" d="M59.4,676c3.5-1.4,3.2-4.7,3.6-7.6C59.1,669.6,60.6,673.5,59.4,676z"/>
		<path class="st3" d="M48.2,708.3c-0.2,1.8-0.2,3.6,2.3,3.9C50.6,710.4,50.6,708.7,48.2,708.3z"/>
	</g>
	<g class="st4">
		<path class="st3" d="M125.3,658.6c-1.6,3.6,0.2,6.9-1.3,8.9c-3.5,1.7-3.9-9.8-9.2,0.9c-1.7-11.2-11.7-17.7-9.3-28.9
			c0.3-1.4-0.5-2.7-1.1-4.1c-4.3-10.1-7.4-20.5-7.5-31.6c0-1.7,1.4-4.9-2.1-4.7c-2.9,0.1-6.7,1.9-6.1,4.9c1.7,9.4-6.4,14.8-8.5,22.6
			c-0.5,2-2.1,3.8-2.2,6.2c-0.3,7.8-3,9.9-10.7,11c-5,0.7-5.5,6.2-8.1,9.6c2.9,6.9-0.1,13.4-1.2,20.1c0,1.2,0,2.5,0,3.7
			c0.5,0,0.9,0.1,1.4,0.1c0-0.4,0.1-0.9,0.1-1.3c1.2-2.5-0.4-6.4,3.6-7.6c1.5-0.8,2.4-2,2.5-3.7c-0.7-4.3,1.6-6.8,5.1-8.7
			c1.9-3.1,1.3-8.6,7.4-7.9c3.1-2.6,5.4-2.4,6.1,1.8c1.6,9.5,11.1,14.3,13,23.4c7.5,1.8,7.1,7.8,7.2,13.6c0.1,3.5-0.3,6.7-3.3,8.9
			c-1.6,1.2-1.9,2.7-1.2,4.4c0.6,1.6,1.9,1.9,3.6,1.4c2.4-0.6,4.4,0.8,6.5,1.5c7.7,2.6,8.6,5.6,3.6,11.9c-5.7,7.2-12.6,11.7-22.3,11
			c-4.9-0.3-9.7,1.3-14.7,0.1c-2.5-0.6-4.5-0.9-4.6-3.9c-3.7-3.3-9.7-2.8-12.5-7.5c-0.4,0-0.8,0-1.2,0c-3.4,2-5.2-1.2-7.6-2.4
			c-2.5-0.3-2.5-2.1-2.3-3.9c-0.9-7.9-2.4-15.7,0-23.6c-0.3-3.5,1.7-6.4,2.4-9.6c0.3-1.4,2-3-0.2-4.4c-1.2-0.4-2.4-0.8-3.5-1.1
			c-3.9,0.8,0.7,5.3-2.8,6.3c0.9,4.3-1.4,8.1-2.2,12.1c-1.6,8.8-2.7,17.5,0.6,26.2c3.7,2.9,4.8,7.6,7.6,11.1
			c4.9,6.1,10.5,11,17.6,14.4c14-2.3,28-5.5,42,0.1c1.9,0.8,3.8,1.9,5.8,0.1c-4.3-2.3-3-4.3,0-7c10.3-9.2,16.4-20.5,16.2-34.6
			c-1.1,0.6-2.2,1.1-3.2,1.7c-1.8,1.2-3,4.3-5.6,2.7c-2.1-1.4-0.2-3.8,0.1-5.7c1-6.7,1.9-13.5,2.8-20.2c0.3-2.1,0.7-4.8,2.9-5
			c2.1-0.2,2.4,2.5,3,4.2c0.8,2.4,1.4,4.8,3.8,6.2C134.1,673.8,129.5,666.8,125.3,658.6z M122.2,711.9c2,1.4-0.7,3.1-1.3,4.8
			c-0.7,1.9-0.4,4.2-2.6,6.2c-2.3-2.8-4.2-5.3-0.8-8.2C118.9,713.4,120,710.3,122.2,711.9z"/>
		<path class="st3" d="M96.9,585.9c-0.8,1.2-3.2,1.5-2.4,3.8C94.3,587.8,100.6,590.1,96.9,585.9z"/>
		<path class="st3" d="M94.1,590.9c-1.7,0-2.4,0.8-2.1,2.5C93,592.9,93.9,592.3,94.1,590.9z"/>
		<path class="st3" d="M90.8,595.2c-0.8-0.2-1.1,0.1-0.9,0.9C90.1,595.8,90.5,595.5,90.8,595.2z"/>
		<path class="st3" d="M124.3,735.2c-0.2,1.3-0.4,2.5-0.6,3.8c2.5-1.7,4.9-3.5,5.9-6.6c-0.3-0.3-0.6-0.5-0.9-0.8
			C126.8,732.3,125.4,733.6,124.3,735.2z"/>
		<path class="st3" d="M64.5,744.7c0,1.9,1.5,2.6,3.2,3c0-1.9,0.1-3.8,0.1-5.8C66.1,742.1,64.6,742.7,64.5,744.7z"/>
		<path class="st3" d="M130.2,730.6c-1-0.7-1.1,0.6-1.4,1.2c0.3,0.2,0.6,0.5,0.9,0.8C130.2,731.9,130.9,731.1,130.2,730.6z"/>
	</g>
</g>
<g>
	<path class="st5" d="M210.7,737.2c0.2-0.5,0.3-1,0.5-1.5c-0.9-4.3-1.1-8.9-3-13c-0.4-0.7-0.8-1.4-1.1-2.1c0,0,0.2-0.3,0.2-0.3
		c-1.5-3.9-2.8-7.8-4.4-11.6c-7.8-17.7-19.5-33.3-27.2-51c-3.9-9-7.5-18.1-9.8-27.7c-0.1,0.1-0.3,0.1-0.4,0.2
		c-0.2,0.1-0.3,0.3-0.5,0.4c1.4-6.5,0.7-13.1,0.9-20.6c-3.2,2.6-4.1,5-3.9,7.9c0.1,1.8-0.9,2.9-2.1,4c-0.8,1.2-3.2,1.5-2.4,3.8
		c-0.1,0.4-0.2,0.9-0.4,1.3c-1.7,0-2.4,0.8-2.1,2.5c-0.4,0.6-0.8,1.2-1.2,1.8c-0.8-0.2-1.1,0.1-0.9,0.9c-0.9,1.6-1.6,3.3-2.7,4.7
		c-7.6,9.5-12.9,20.5-20.8,30c-6.5,7.9-10.8,17.7-15.6,26.9c-1.9,3.6-4.2,7.4-4,11.9c1,0.3,2,0.6,2.9,1c0,0,0,0,0,0
		c-1-0.3-2-0.6-2.9-1c-3.9,0.8,0.7,5.3-2.8,6.3c0,0,0,0,0,0c-7.2,14.6-8.4,29.8-5.4,45.7c3.1,16,11.8,28.4,24.4,38.3
		c9.2,5.9,19.3,8.4,30,9c19.1-0.8,34.3-8.5,45.3-24.5c5.4-7.9,7.3-17,9.7-26C210.8,748.7,210.8,743,210.7,737.2
		C210.7,737.2,210.7,737.2,210.7,737.2z M130.5,783.6c-1.4-0.3-2.8-0.9-3.1-2.3C127.8,782.7,129.1,783.3,130.5,783.6
		c0.3,1.7,1.6,2.3,2.9,3C132.2,785.9,130.8,785.3,130.5,783.6z M140.3,774.2C140.3,774.2,140.3,774.2,140.3,774.2
		c0.7-0.1,1.3-0.2,2-0.3C141.6,774,141,774.1,140.3,774.2z M182.1,774.3C182.1,774.3,182.1,774.3,182.1,774.3L182.1,774.3
		C182.1,774.3,182.1,774.3,182.1,774.3z"/>
	<g class="st1">
		<path d="M210.9,737.2c-1.7,5.5-3.7,11-4.9,16.6c-1.8,8.4-5.4,16.2-10.1,23.1c-9.6,14.3-24.5,20-41,20.9
			c-22.6,1.2-37.3-12.2-45.8-31.3c-2.1-4.7-6.6-10-3.7-16.3c-3.3-8.7-2.2-17.4-0.6-26.2c0.7-4,3-7.8,2.2-12.1
			c-7.2,14.6-8.4,29.8-5.4,45.7c3.1,16,11.8,28.4,24.4,38.3c9.2,5.9,19.3,8.4,30,9c19.1-0.8,34.3-8.5,45.3-24.5
			c5.4-7.9,7.3-17,9.7-26C211,748.7,210.9,743,210.9,737.2z"/>
		<path d="M202.5,716.1c0.8,2.2,1.2,5.1,4.8,4.2c-1.5-3.9-2.8-7.8-4.4-11.6c-7.8-17.7-19.5-33.3-27.2-51c-3.9-9-7.5-18.1-9.8-27.7
			c-0.1,0.1-0.3,0.1-0.4,0.2c-0.2,0.1-0.3,0.3-0.5,0.4c-0.1,13.7,5.7,25.8,11.8,37.3C185.4,684,196,699,202.5,716.1z"/>
	</g>
	<g class="st2">
		<path class="st3" d="M149.5,730.6c-2-8.2,0.2-16.7-1.2-24.8c-1.3-7.5-3-15.1-7.4-21.7c-6.1-0.7-5.4,4.7-7.4,7.9
			c-1,3.3-1.9,6.7-5.1,8.7c-0.1,1.8-0.9,3-2.5,3.7c-0.3,2.9-0.1,6.2-3.6,7.6c0,0.4-0.1,0.9-0.1,1.3c-1.7,12.5-2,24.9-0.1,37.4
			c2.9,4.7,8.8,4.2,12.5,7.5c3.6,0.6,5.6,0.8,4.3-4.5c-2.8-11-1-14.4,8.5-19.6C149,733.4,149.9,732.3,149.5,730.6z"/>
		<path class="st3" d="M121,713.2c0-1.2,0-2.5,0-3.7c-3.4-0.5-5.1,1-6.3,4.2c-0.9,2.4,0.2,6-3.5,7.1c-2.4,7.9-0.9,15.7,0,23.6
			c2.5,0.3,2.4,2.1,2.3,3.9c2.4,1.2,4.2,4.4,7.6,2.4C119,738.2,116.2,725.7,121,713.2z"/>
	</g>
	<g class="st1">
		<path class="st3" d="M139.4,762c5,1.2,9.8-0.4,14.7-0.1c9.6,0.7,16.6-3.9,22.3-11c5-6.3,4.1-9.4-3.6-11.9
			c-2.1-0.7-4.2-2.1-6.5-1.5c-1.7,0.4-2.9,0.2-3.6-1.4c-0.7-1.7-0.4-3.2,1.2-4.4c3-2.2,3.4-5.4,3.3-8.9c-0.1-5.8,0.3-11.8-7.2-13.6
			c-1.9-9.1-11.4-13.9-13-23.4c-0.7-4.2-3-4.4-6.1-1.8c4.4,6.6,6.1,14.2,7.4,21.7c1.4,8.1-0.8,16.6,1.2,24.8
			c0.4,1.6-0.5,2.7-1.9,3.5c-9.5,5.2-11.3,8.5-8.5,19.6c1.3,5.2-0.7,5.1-4.3,4.5C135,761.1,137,761.4,139.4,762z"/>
		<path class="st3" d="M172.6,775.9c-14-5.6-28-2.4-42-0.1c0.1,0.7,0.1,1.4,0.2,2.1c0,1.9-0.1,3.8-0.1,5.8c0.3,2,2,2.4,3.5,3.3
			c7.3,4.3,15.4,2.7,23.2,2.9c12.3,0.3,22.6-3.9,29.4-14.7c0.2-1.3,0.4-2.5,0.6-3.8c-3.1,1.3-5.5,4-8.9,4.8
			C176.4,777.8,174.5,776.7,172.6,775.9z"/>
		<path class="st3" d="M198.8,722.5c-0.6-1.2-0.3-2.8-0.4-4.3c-2.3-1.4-2.9-3.9-3.8-6.2c-0.6-1.7-1-4.4-3-4.2c-2.2,0.3-2.6,3-2.9,5
			c-1,6.7-1.8,13.5-2.8,20.2c-0.3,2-2.2,4.3-0.1,5.7c2.6,1.7,3.8-1.4,5.6-2.7c1-0.7,2.1-1.2,3.2-1.7
			C198.7,731.4,201.7,728.1,198.8,722.5z"/>
		<path class="st3" d="M121,709.4c1-6.7,4.1-13.2,1.2-20.1c-3,5.8-5.9,11.7-8.9,17.5c2.3,1.3,0.5,2.9,0.2,4.4
			c-0.7,3.2-2.6,6.1-2.4,9.6c3.7-1.1,2.6-4.7,3.5-7.1C115.9,710.4,117.6,708.9,121,709.4z"/>
		<path class="st3" d="M121,713.2c-4.8,12.5-2,25,0,37.5c0.4,0,0.8,0,1.2,0c-1.9-12.5-1.6-24.9,0.1-37.4
			C121.9,713.3,121.5,713.2,121,713.2z"/>
		<path class="st3" d="M181.3,758.8c2.2-2,2-4.3,2.6-6.2c0.6-1.6,3.3-3.3,1.3-4.8c-2.2-1.6-3.3,1.6-4.8,2.8
			C177.2,753.5,179,756.1,181.3,758.8z"/>
		<path class="st3" d="M128.5,700.7c3.2-2,4.1-5.4,5.1-8.7C130.1,693.8,127.8,696.4,128.5,700.7z"/>
		<path class="st3" d="M122.4,712c3.5-1.4,3.2-4.7,3.6-7.6C122.1,705.6,123.6,709.5,122.4,712z"/>
		<path class="st3" d="M111.2,744.3c-0.2,1.8-0.2,3.6,2.3,3.9C113.6,746.4,113.6,744.7,111.2,744.3z"/>
	</g>
	<g class="st4">
		<path class="st3" d="M188.3,694.6c-1.6,3.6,0.2,6.9-1.3,8.9c-3.5,1.7-3.9-9.8-9.2,0.9c-1.7-11.2-11.7-17.7-9.3-28.9
			c0.3-1.4-0.5-2.7-1.1-4.1c-4.3-10.1-7.4-20.5-7.5-31.6c0-1.7,1.4-4.9-2.1-4.7c-2.9,0.1-6.7,1.9-6.1,4.9c1.7,9.4-6.4,14.8-8.5,22.6
			c-0.5,2-2.1,3.8-2.2,6.2c-0.3,7.8-3,9.9-10.7,11c-5,0.7-5.5,6.2-8.1,9.6c2.9,6.9-0.1,13.4-1.2,20.1c0,1.2,0,2.5,0,3.7
			c0.5,0,0.9,0.1,1.4,0.1c0-0.4,0.1-0.9,0.1-1.3c1.2-2.5-0.4-6.4,3.6-7.6c1.5-0.8,2.4-2,2.5-3.7c-0.7-4.3,1.6-6.8,5.1-8.7
			c1.9-3.1,1.3-8.6,7.4-7.9c3.1-2.6,5.4-2.4,6.1,1.8c1.6,9.5,11.1,14.3,13,23.4c7.5,1.8,7.1,7.8,7.2,13.6c0.1,3.5-0.3,6.7-3.3,8.9
			c-1.6,1.2-1.9,2.7-1.2,4.4c0.6,1.6,1.9,1.9,3.6,1.4c2.4-0.6,4.4,0.8,6.5,1.5c7.7,2.6,8.6,5.6,3.6,11.9c-5.7,7.2-12.6,11.7-22.3,11
			c-4.9-0.3-9.7,1.3-14.7,0.1c-2.5-0.6-4.5-0.9-4.6-3.9c-3.7-3.3-9.7-2.8-12.5-7.5c-0.4,0-0.8,0-1.2,0c-3.4,2-5.2-1.2-7.6-2.4
			c-2.5-0.3-2.5-2.1-2.3-3.9c-0.9-7.9-2.4-15.7,0-23.6c-0.3-3.5,1.7-6.4,2.4-9.6c0.3-1.4,2-3-0.2-4.4c-1.2-0.4-2.4-0.8-3.5-1.1
			c-3.9,0.8,0.7,5.3-2.8,6.3c0.9,4.3-1.4,8.1-2.2,12.1c-1.6,8.8-2.7,17.5,0.6,26.2c3.7,2.9,4.8,7.6,7.6,11.1
			c4.9,6.1,10.5,11,17.6,14.4c14-2.3,28-5.5,42,0.1c1.9,0.8,3.8,1.9,5.8,0.1c-4.3-2.3-3-4.3,0-7c10.3-9.2,16.4-20.5,16.2-34.6
			c-1.1,0.6-2.2,1.1-3.2,1.7c-1.8,1.2-3,4.3-5.6,2.7c-2.1-1.4-0.2-3.8,0.1-5.7c1-6.7,1.9-13.5,2.8-20.2c0.3-2.1,0.7-4.8,2.9-5
			c2.1-0.2,2.4,2.5,3,4.2c0.8,2.4,1.4,4.8,3.8,6.2C197.1,709.8,192.5,702.8,188.3,694.6z M185.2,747.9c2,1.4-0.7,3.1-1.3,4.8
			c-0.7,1.9-0.4,4.2-2.6,6.2c-2.3-2.8-4.2-5.3-0.8-8.2C181.9,749.4,183,746.3,185.2,747.9z"/>
		<path class="st3" d="M159.9,621.9c-0.8,1.2-3.2,1.5-2.4,3.8C157.3,623.8,163.6,626.1,159.9,621.9z"/>
		<path class="st3" d="M157.1,626.9c-1.7,0-2.4,0.8-2.1,2.5C156,628.9,156.9,628.3,157.1,626.9z"/>
		<path class="st3" d="M153.8,631.2c-0.8-0.2-1.1,0.1-0.9,0.9C153.1,631.8,153.5,631.5,153.8,631.2z"/>
		<path class="st3" d="M187.3,771.2c-0.2,1.3-0.4,2.5-0.6,3.8c2.5-1.7,4.9-3.5,5.9-6.6c-0.3-0.3-0.6-0.5-0.9-0.8
			C189.8,768.3,188.4,769.6,187.3,771.2z"/>
		<path class="st3" d="M127.5,780.7c0,1.9,1.5,2.6,3.2,3c0-1.9,0.1-3.8,0.1-5.8C129.1,778.1,127.6,778.7,127.5,780.7z"/>
		<path class="st3" d="M193.2,766.6c-1-0.7-1.1,0.6-1.4,1.2c0.3,0.2,0.6,0.5,0.9,0.8C193.2,767.9,193.9,767.1,193.2,766.6z"/>
	</g>
</g>
</svg>
