<?xml version="1.0" encoding="utf-8"?>
<!-- Generator: Adobe Illustrator 23.0.3, SVG Export Plug-In . SVG Version: 6.00 Build 0)  -->
<svg version="1.1" id="Layer_1" xmlns="http://www.w3.org/2000/svg" xmlns:xlink="http://www.w3.org/1999/xlink" x="0px" y="0px"
	 viewBox="0 0 785.5 181.4" style="enable-background:new 0 0 785.5 181.4;" xml:space="preserve">
<style type="text/css">
	.st0{fill:#29ABE2;}
	.st1{fill:none;}
	.st2{fill:#1988AF;}
	.st3{fill:#117793;}
</style>
<g>
	<path class="st0" d="M595.7,129c-1.7-0.1-3.3-0.1-5-0.1c-131.8,0-263.7,0-395.5,0c-1.7,0-3.3,0.1-5,0.1c-34.4,0-68.7,0-103.1-0.1
		c-3.8,0.3-4.2-2-4.2-5.1c0-20.8-0.1-41.5-0.1-62.3c0-19.3,0-38.6-0.2-58c0-2.8,0.8-4.1,3.7-3.8c1.2,0.1,2.3,0,3.5,0
		c201.5,0,403.1,0,604.6,0c7.4,0,6.5-0.8,6.5,6.8c0.1,18,0,36,0.1,54c0,20.7,0,41.4-0.1,62.1c0,2.1,0.6,4.3-1.1,6.2
		C665.1,128.9,630.4,128.9,595.7,129z"/>
	<path class="st1" d="M697.3,130c-6,2.5-12.5,3.7-18.7,5.6c-6.1,1.8-12.3,3.6-18.4,5.4c0,0,0,0,0,0c6.1-1.8,12.3-3.6,18.4-5.4
		C684.8,133.7,691.3,132.6,697.3,130z"/>
	<path class="st2" d="M678.6,135.6c-6.1,1.8-12.3,3.6-18.4,5.4c10.4,9.6,20.2,19.8,29.5,30.5c28,2.9,56,5.8,84,8.7
		c0.2-2.6-1.3-3.6-2.3-4.9c-13-17.3-26-34.7-39.1-51.8c-2.1-2.8-2.4-4.3,0.5-6.8c16.4-14.1,32.6-28.4,48.9-42.7
		c1.3-1.2,3.1-2,3.8-4.4c-28.3-3-56.4-6-84.5-9c0,20.7,0,41.4-0.1,62.1c0,2.1,0.6,4.4-1.1,6.2c-0.8,0.4-1.7,0.8-2.6,1.2
		C691.3,132.6,684.8,133.7,678.6,135.6z"/>
	<path class="st2" d="M125.5,140.8c-11.5-3.4-22.9-6.8-34.4-10.2c-1.4-0.4-2.7-1.2-4.1-1.8c0,0,0,0,0,0c0,0,0,0,0,0
		c-3.8,0.3-4.2-2-4.2-5.1c0-20.8-0.1-41.5-0.1-62.3c-1.6,0.3-3.2,0.7-4.9,0.9c-20.5,2.1-41,4.2-61.6,6.4C11.1,69.4,5.7,69.2,0,71.3
		c17.7,15.5,34.7,30.6,52,45.4c3.5,3,4.1,4.8,1.1,8.6c-13.1,16.8-25.8,33.9-38.6,51c-0.9,1.3-2.5,2.3-2.2,4.9
		c27.5-2.8,55-5.7,82.6-8.5C104.5,161.5,114.7,150.8,125.5,140.8z"/>
	<path class="st3" d="M125.6,140.8c4.4-4.1,8.9-8,13.4-11.9c-17.3,0-34.6,0-51.9,0c1.3,0.6,2.6,1.4,4,1.8
		C102.6,134,114.1,137.4,125.6,140.8z"/>
	<path class="st3" d="M91.1,130.7c11.5,3.4,22.9,6.8,34.4,10.2c0,0,0,0,0,0C114.1,137.4,102.6,134,91.1,130.7
		c-1.4-0.4-2.7-1.2-4-1.8c0,0,0,0,0,0C88.4,129.5,89.7,130.2,91.1,130.7z"/>
	<path class="st3" d="M678.6,135.6c6.2-1.8,12.7-3,18.7-5.6c0.9-0.4,1.7-0.8,2.6-1.2c-17.8,0-35.5,0-53.3,0.1
		c4.6,3.9,9.1,7.9,13.6,12.1C666.3,139.2,672.5,137.4,678.6,135.6z"/>
</g>
</svg>
