<?xml version="1.0" encoding="utf-8"?>
<!-- Generator: Adobe Illustrator 23.0.3, SVG Export Plug-In . SVG Version: 6.00 Build 0)  -->
<svg version="1.1" id="Layer_1" xmlns="http://www.w3.org/2000/svg" xmlns:xlink="http://www.w3.org/1999/xlink" x="0px" y="0px"
	 viewBox="0 0 262 275" style="enable-background:new 0 0 262 275;" xml:space="preserve">
<style type="text/css">
	.st0{fill:#F90000;}
	.st1{opacity:0.15;enable-background:new    ;}
	.st2{opacity:0.2;fill:#FFFFFF;enable-background:new    ;}
	.st3{opacity:5.000000e-02;fill:#1A1A1A;enable-background:new    ;}
	.st4{opacity:5.000000e-02;enable-background:new    ;}
	.st5{opacity:0.15;fill:#FFFFFF;enable-background:new    ;}
	.st6{opacity:2.000000e-02;fill:#FFFFFF;enable-background:new    ;}
	.st7{opacity:0.1;fill:#FFFFFF;enable-background:new    ;}
	.st8{opacity:0.1;}
	.st9{fill:#EBC4E9;}
</style>
<g>
	<g>
		<path class="st0" d="M132,0C78.7,0,33,29.7,12.9,72.2v0l0,0.1C9,80.3,6.1,88.9,4.3,97.8l0,0.1l0,0.1c-0.8,3.9-1.4,7.9-1.8,11.9
			l0,0.1l0,0.2l-0.3,4.2L0,144l0.1,2.2C0,147.6,0,149.1,0,150.5c0,4.8,0.3,9.4,0.9,14.1v0.1v0C8.3,225.1,62.6,272,128.5,272
			c55,0,101.9-32.6,120.2-78.6v0l0-0.1c2-5.1,3.7-10.3,5-15.7l0,0l4-11.9c0.2-0.5,0.3-1,0.3-1.5l2.8-27.9v0
			c-0.2,1.5-0.4,2.9-0.7,4.4c0.3-1.4,0.5-2.9,0.7-4.4c0.7-5.2,1.1-10.5,1.1-15.8C262,54,203.8,0,132,0z M257.2,153
			c-0.2,0.6-0.3,1.1-0.3,1.7c0,0.4,0,0.8-0.1,1.2c0-0.7,0.1-1.4,0.1-2c0.3-0.9,0.5-1.9,0.8-2.8C257.6,151.7,257.4,152.4,257.2,153z
			 M259.3,145c0.2-0.9,0.4-1.9,0.6-2.9C259.7,143.1,259.5,144.1,259.3,145z M258.3,149.3c0.2-0.9,0.4-1.7,0.6-2.6
			C258.7,147.6,258.5,148.4,258.3,149.3z"/>
		<path class="st1" d="M257.2,153c-0.2,0.6-0.3,1.1-0.3,1.7c0,0.4,0,0.8-0.1,1.2c0-0.7,0.1-1.4,0.1-2c-3.1,10-7.6,19.5-13.2,28.2
			C221.1,217.4,179.5,241,132,241c-59.5,0-109.6-37-125.1-87.6c-2.5-8.2-4.1-16.8-4.7-25.6C2.1,125.4,2,123,2,120.5c0-2,0.1-4,0.2-6
			L0,144l0.1,2.2l0.8,18.4c0,0,0,0,0,0.1C8.3,225.1,62.6,272,128.5,272c55,0,101.9-32.6,120.2-78.6c0,0,0,0,0-0.1l5-15.7l0,0l4-11.9
			c0.2-0.5,0.3-1,0.3-1.5l2.8-27.9v0C260.1,142,258.8,147.6,257.2,153z"/>
		<path class="st2" d="M19.6,160.4c-2.5-8.2-4.1-16.8-4.7-25.6c-0.2-2.4-0.3-4.9-0.3-7.3c0-2,0.1-4,0.2-6l-0.5,6.9
			c0-0.2-0.1-0.3-0.1-0.5c0-0.2,0-0.3-0.1-0.5c0.3-0.9,0.4-2,0.3-2.9c0.3-1.1,0.3-2.4-0.1-3.5l0.3-3.7l0-0.2l0-0.1
			c0.4-4,1-8,1.8-11.9l0-0.1l0-0.1c1.8-8.9,4.7-17.5,8.5-25.6l0,0v0C45.1,36.7,90.9,7,144.1,7c22.9,0,44.4,5.5,63.1,15.1
			C186,8.2,160.1,0,132.1,0C78.9,0,33.1,29.7,13,72.2v0l0,0.1c-3.8,8.1-6.7,16.7-8.6,25.6l0,0.1l0,0.1c-0.8,3.9-1.4,7.9-1.8,11.9
			l0,0.1l0,0.2L2.3,114c0.4,1.1,0.4,2.3,0.1,3.5c0.2,1,0.1,2-0.3,2.9c0,0.2,0,0.3,0,0.5c0,0.2,0.1,0.3,0.1,0.5l0.5-6.9
			c-0.1,2-0.2,4-0.2,6c0,2.5,0.1,4.9,0.3,7.3c0.6,8.8,2.2,17.4,4.7,25.6c9.5,31.1,32.1,57,61.9,72.4
			C45.7,210.1,27.8,187.2,19.6,160.4z"/>
		<path class="st3" d="M194.2,14.1c33.2,21.8,54.9,57.7,54.9,98.4c0,5.4-0.4,10.7-1.1,15.8v0l-0.7,7.2c-0.7,3.2-1.5,6.4-2.4,9.4
			c-0.2,0.6-0.3,1.1-0.3,1.7c0,0.4,0,0.8-0.1,1.2c0-0.7,0.1-1.4,0.1-2c-0.2,0.6-0.4,1.3-0.6,1.9c0-0.4,0-0.7,0.1-1.1
			c0-0.6,0.1-1.2,0.3-1.7c0.2-0.6,0.4-1.3,0.6-2c-0.3,0.9-0.5,1.9-0.8,2.8c0,0.6-0.1,1.3-0.1,1.9c-3.1,9.3-7.3,18.1-12.6,26.3
			c-22.7,35.3-64.2,58.9-111.8,58.9c-22.9,0-44.5-5.5-63.2-15.2c21.2,14,47.2,22.2,75.2,22.2c47.5,0,89.1-23.6,111.8-58.9
			c5.3-8.2,9.5-17,12.6-26.3c0-0.6,0.1-1.3,0.1-1.9c0.3-0.9,0.5-1.9,0.8-2.8c-0.2,0.7-0.4,1.3-0.5,2c-0.2,0.6-0.3,1.1-0.3,1.7
			c0,0.4,0,0.7-0.1,1.1c0.2-0.6,0.4-1.3,0.6-1.9c0,0.7,0,1.4-0.1,2c0-0.4,0-0.8,0.1-1.2c0-0.6,0.1-1.2,0.3-1.7
			c0.9-3.1,1.7-6.3,2.4-9.4l0.7-7.2v0c0.7-5.2,1.1-10.5,1.1-15.8C261.1,74.2,234.1,34.7,194.2,14.1z"/>
		<path class="st4" d="M205.2,20.1c-3.7-1.9-7.5-3.6-11.4-5.2c27.1,22.1,44.3,54.5,44.3,90.6c0,5.4-0.4,10.7-1.1,15.8v0l-0.7,7.2
			c-0.7,3.2-1.5,6.4-2.4,9.4c-0.2,0.6-0.3,1.1-0.3,1.7c0,0.4,0,0.8-0.1,1.2c0-0.7,0.1-1.4,0.1-2c-0.2,0.6-0.4,1.3-0.6,1.9
			c0-0.4,0-0.7,0.1-1.1c0-0.6,0.1-1.2,0.3-1.7c0.2-0.6,0.4-1.3,0.6-2c-0.3,0.9-0.5,1.9-0.8,2.8c0,0.6-0.1,1.3-0.1,1.9
			c-3.1,9.3-7.3,18.1-12.6,26.3c-22.7,35.3-64.2,58.9-111.8,58.9c-18.4,0-35.9-3.6-51.8-10c3.4,2.8,6.9,5.4,10.6,7.8
			c18.7,9.7,40.2,15.2,63.2,15.2c47.5,0,89.1-23.6,111.8-58.9c5.3-8.2,9.5-17,12.6-26.3c0-0.6,0.1-1.3,0.1-1.9
			c0.3-0.9,0.6-1.9,0.8-2.8c-0.2,0.7-0.4,1.3-0.6,2c-0.2,0.6-0.3,1.1-0.3,1.7c0,0.4,0,0.7-0.1,1.1c0.2-0.6,0.4-1.3,0.6-1.9
			c0,0.7-0.1,1.4-0.1,2c0-0.4,0-0.8,0.1-1.2c0-0.6,0.1-1.2,0.3-1.7c0.9-3.1,1.7-6.3,2.4-9.4l0.7-7.2v0c0.7-5.2,1.1-10.5,1.1-15.8
			C260.1,77.9,238.4,42,205.2,20.1z"/>
		<path class="st5" d="M24.3,190.9c-7.6-10.4-13.5-22-17.3-34.4c-2.5-8.2-4.1-16.8-4.7-25.6c-0.2-2.4-0.3-4.9-0.3-7.3
			c0-2,0.1-4,0.2-6L0.1,147l0.1,2.2L1,167.6c0,0,0,0,0,0.1C8.4,228.1,62.7,275,128.6,275c3,0,5.9-0.1,8.9-0.3
			C84.3,271.2,40.1,237.1,24.3,190.9z"/>
		<path class="st4" d="M244.1,202.7c1.7-3.3,3.3-6.8,4.7-10.3c0,0,0,0,0-0.1l5-15.7l0,0l4-11.9c0.2-0.5,0.3-1,0.3-1.5l2.8-27.9v0
			c-0.8,5.7-2,11.3-3.7,16.7c-0.2,0.6-0.3,1.1-0.3,1.7c0,0.4,0,0.8-0.1,1.2c0-0.7,0.1-1.4,0.1-2c-3.1,10-7.6,19.5-13.2,28.2
			c-21.2,33-58.9,55.8-102.6,58.6c2.9,0.2,5.9,0.3,8.8,0.3C187.1,240,220.5,225.7,244.1,202.7z"/>
		<path class="st6" d="M116.1,243c3.1,0,6.1-0.1,9.2-0.3C69.7,239.2,23.7,203.4,9,155.4c-2.5-8.2-4.1-16.8-4.7-25.6
			c-0.2-2.4-0.3-4.9-0.3-7.3c0-2,0.1-4,0.2-6L2.1,146l0.1,2.2L3,166.6c0,0,0,0,0,0.1c1,8,2.8,15.8,5.3,23.2
			C31.7,221.9,71.2,243,116.1,243z"/>
		<path class="st4" d="M257.3,153c-0.2,0.6-0.3,1.1-0.3,1.7c0,0.4,0,0.8-0.1,1.2c0-0.7,0.1-1.4,0.1-2c-3.1,10-7.6,19.5-13.2,28.2
			c-5,7.8-11,15.1-17.7,21.6c-19.6,38.1-59.7,65-106.7,68c3,0.2,6.1,0.3,9.1,0.3c55,0,101.9-32.6,120.2-78.6c0,0,0,0,0-0.1l5-15.7
			l0,0l4-11.9c0.2-0.5,0.3-1,0.3-1.5l2.8-27.9v0C260.2,142,259,147.6,257.3,153z"/>
	</g>
	<g>
		<path class="st7" d="M260.9,111.1c-0.6-8.8-2.8-17.3-5.3-25.7c-1.4-3.6-2.8-7.2-4.3-10.8c-2.1-2.9-3.5-6.1-4.7-9.4
			c-1.7-3-3.4-6-5-9c-1.8-0.7-2-2.6-3-3.9c-1.8-2.1-3.9-4-4.7-6.8c-7.4-5-13.2-12.2-19.4-18.6c-0.3-0.3-0.5-0.5-0.6-0.8
			c-1.3-1-2.5-2.1-3.9-3c-2.6-1.7-5.4-2.2-7.6-4.5c-0.8-0.3-1.4-0.6-1.9-1c-8.4-3.7-16.7-7.4-25.1-11.1c-4.8-1.2-9.2-4-14.4-3.4
			c-2.4,0.7-2.7,1.8-0.6,3.2c1.3,0.9,2.9,1.6,2.3,3.4c-2,6,1.8,3.4,4.2,3.1c1.2-2-3.7-3.2-0.8-4.9c2-1.1,4.6,0,6.6,0.9
			c2.1,0.9,2.7,3.7,4.8,4.9c1.2,0.7,0,1.2-0.8,1.5c-2.9,0.8-0.7,2.7-0.8,4.1c-0.1,0.9,0.6,1.7,1.5,1.5c1.8-0.4,1.3-2.1,1.7-3.3
			c0.5-1.5,0.8-3.1,1.2-4.8c3.2,1.8,6.6,2.8,7.6,7c0.5,2,3.3,1.8,5.3,1.7c2.8-0.1,6.1-1.5,5,3.8c-0.3,1.2,1.4,2.9,2.2,4.3
			c4.9-3.8,5.2-3.8,11.4,2.4c1.6,1.6,2.9,3.6,3.9,5.7c0.7,1.6,1.4,1.8,3,2.3c2.3,0.7,3.9,3.3,6.3,4.6c1.4,0.7-0.9,1.4-1.8,1.8
			c-1.2,0.5-1.4,1.4-0.8,2.4c0.4,0.8,1.1,1.2,2.1,0.7c4.6-2.6,5.7,1.5,7.2,4.1c0.8,1.4,1.2,3,2.3,4.2c1.1,1.3,4.1,1.5,3.3,3.8
			c-0.8,2.5-3.5,2.4-6.3,1.9c1.3,2.2,3.5,3.3,2.4,5.8c-0.4,0.9,0.2,1.8,1.1,1.7c5.6-0.7,5.6,4.8,8.2,7.3c0.5,0.5,1,1.5,0.3,2.2
			c-0.3,0.3-1.1,0.5-1.3,0.4c-4.6-4.4-7.1,1.2-10.5,2.2c-0.4,0.1-0.6,0.7-1,1.1c1.1,1.7,2.4,0.9,3.5,0.5c1.9-0.6,3.6-0.6,4.8,1.3
			c0.8,1.3,1.6,2.3,2.9,0.6c0.7-0.9,1.5-1.3,2.4-0.3c0.3,0.3,0.5,0.9,0.5,1.3c-0.1,1.3-1.1,1.7-2.1,1.6c-5.9-0.5-4.2,2.4-2.7,5.6
			c0.5,1.1,0.5,2.5,2.2,1.8c1.4-0.6,2.3-1.5,1.2-3.1c-0.6-0.9-1.2-1.8,0.4-2.2c1-0.2,2.3-0.3,2.7,0.6c1.1,2.5,1.3,5.4-0.1,7.6
			c-1.5,2.4-3.9,0.9-5.9,0.2c-1.3-0.4-2-3.8-3.8-1.2c-1.3,2-0.1,3.9,2.2,4.6c1.4,0.4,1.9,1,1.5,2.5c-0.8,3.5,1.9,5.9,4.1,7.2
			c2.5,1.4,1.6,2.1,0.7,3.6c-1.8,2.9-2.4,6-1.2,9.3c0.4,1.1,1.6,2.3,0.2,3c-1.4,0.7-1.8-0.9-2.3-1.9c-0.2-0.5-0.5-0.9-1.4-0.6
			c-0.9,2.5-0.5,5.7-3.7,8.4c3.5,0.1,6.4-0.7,8.6,1.5c-0.6,1.9-2.5,1.7-4,2.2c-1,0.3-1.8,0.6-2.3,1.6c-0.6,1.5,1.8,6.5-3.7,3.3
			c-0.9-0.5-2.1,4.6-3,7.2c-0.6,1.8,1.4,1.7,2.7,1.9c2,0.3,3.9,0.6,5.9,1l0,0c0,2.3,0.2,4.5-3.4,3.5c-1.5-0.4-4,0-4.1,1.8
			c-0.2,2.9,2.9-0.3,3.8,1.5c-0.6,3.3-4.5,7.2,1.2,9.7c-0.2,2-2.8,1.4-3,3.2c0.1,0.2,0.3,0.8,0.4,0.8c4.4-0.4,4.8,1,2.4,4.4
			c-2.4,3.6-2.5,8.8-7.8,10.2c-0.9,0.2-1.4,1-1.1,1.9c0.3,1.1,1.1,1.9,2.2,1.5c2.5-0.9,2.4,1.7,3.6,2.5c1.3-1.4,2.6-2.8,3.9-4.1
			c2.5-5.3,5.7-10.2,9.2-14.9c1.6-2.2,3.5-4.5,2.2-7.6c-0.4-1-0.5-3.1,0.6-2.8c3.2,1,2.3-1.7,3.3-2.8c2.7-2.8,1-7.6,4.5-10
			c0.7-2.6-0.5-5.4,1.2-7.9C260.7,133.1,261.4,122.1,260.9,111.1z M239.1,67.3c-0.4,0.1-0.7,0.3-0.9,0.6
			C238.4,67.6,238.7,67.4,239.1,67.3c0.5,0,0.9,0.1,1.1,0.4C240,67.5,239.6,67.3,239.1,67.3z M245.1,106.6c0.5-0.3,0.7-0.8,0.7-1.5
			c-0.1-0.5-0.1-1.1-0.5-1.3c0.4,0.2,0.4,0.8,0.5,1.3C245.7,105.8,245.5,106.3,245.1,106.6z"/>
		<path class="st7" d="M249.1,101.7c0.1-0.2,0.2-0.5,0.3-0.7C249.3,101.2,249.2,101.4,249.1,101.7L249.1,101.7z"/>
		<g class="st8">
			<path d="M183.1,229.8c-2.9,1.6-5.1,3.4-7.5-0.9c-2.1-3.7-5.2-2.9-7.7,0.5c-1.8,2.4-2,6.2-6.4,6.8c-4.8,0.6-9.5-1-14.4,0.6
				c-1.6,0.5-4.4-3.1-6.2,0.8c-0.4-0.2-0.9-0.4-1.2-0.7c-3.3-2.6-3.9-0.8-3.8,2.2c1.5,0.4,3.7-0.5,4.1,2.1c1,0.2,2,0.3,3,0.5
				c0.3-0.3,0.7-0.5,1-0.8c0.6-1.9,1.6-2.1,3-0.8c0.7-0.1,1.3-0.1,2-0.2c0.8-1,1.5-2.4,3-0.8c0.8,0.1,1.6,0.1,2,0.9
				c0.3,0,0.6,0,0.9,0c1-1.6,2.1-2.6,3.3-0.2c1.2-0.2,2.5-0.4,3.7-0.6c10.2-3.8,21.1-5.7,31.1-10.2c0.4-0.7,1.1-1,1.9-0.9
				c0.3-0.1,0.7-0.2,1-0.3c0-0.6,0.1-1.3,0.1-1.9C191,225.4,187,227.5,183.1,229.8z M171.5,232.5c0-0.3,0-0.6,0.1-0.8
				c0-0.1,0.4-0.1,0.4-0.1c0.1,0.2,0.2,0.5,0.3,0.8C172.1,232.4,171.8,232.5,171.5,232.5z"/>
			<path d="M40.8,34.1c-1.5,2-2.8,4.1-4.3,6.2c-1.7,2.4-3.7,5.1-6,7.4c2.2-0.7,3.7-2.2,4.8-4.4c1-2.1,2.3-4.1,4.5-5
				c1.3-0.5,2.3-1.3,3.1-2.2C42,35.6,41.3,35,40.8,34.1z"/>
			<path d="M110.6,49.1c-0.9-3.6-1.6,0.8-2.6,0.4c-0.4-0.2-0.9-0.5-1.1-0.8c-0.9-2.7-2.2-2.2-4.1-0.9c-1.2,0.8-2.6,0.2-3.6-0.9
				c-0.9-1.1-1.7-1.7-2.5,0c-0.5,1-1.3,1.7-2.3,0.6c-0.7-0.7,0-1.6,0.4-2.2c2.1-3,4.1-5.9,6.2-8.9c0.7-1,2.5-2.2,0.3-3
				c-2.8-1-5.7-2.7-8.8-1.6c-3.4,1.2-5.4,0.4-6.1-4.8c-1.5,2.1-2.3,3.2-3.1,4.3c-0.8,1.1-0.6,2.2,0.3,3.2c0.7,0.7,1.4,1.7,2.5,1
				c3.5-2.2,3.9,0.6,4.6,2.8c1.8,6-0.2,9.1-6.7,10c0.6,1.3,1.9,3,2.7,2.5c3.3-2.3,6.2-0.9,9.1,0.3c1.5,0.6,3.8-1.9,4.3,0.3
				c0.7,2.5-3.2,1-3.8,2.9c-0.1,0.3-0.1,0.6-0.1,1.3c2.9-0.1,6.3-1.9,8.3,2c0.3,0.6,1.5,0.5,2.3,0c0.8-0.6,0.8-1.4,0.6-2.3
				c-0.3-1.3-2.3-1.5-2.2-3.5c0.6-0.1,0.9-0.3,1.2-0.2C109,52.3,111.2,51.6,110.6,49.1z"/>
			<path d="M37.5,182c1-2.3,5.6-1.1,3.6-5c-0.5-1-1.5-1.9-2.8-1.7c-1.8,0.2-2.9,1.5-3.3,3.3c-0.4,1.7-1.1,3.2-2.9,1.9
				c-1.4-1-4.8-1.4-3.3-3.8c1.1-1.7,0.4-1.4-0.5-2.1c-1.1-0.8-1.9-1.5-2.6,0.3c-0.5,1.4-1.8,1.2-3,1.3c0.7,3.3,1.8,6.2,4.6,8.4
				c3.5,2.7,5.1,6.9,7.6,10.4c2.6,1,3.6,3.8,5.8,5.2c1.7-2.6-1.4-5.8,0.5-8.1c2-2.3,0.5-4.4,0.5-6.5C41.9,182.6,39,182.8,37.5,182z"
				/>
			<path d="M146.9,91.1c1.4,2.4-1.7,2-2.9,3.5c8.5,0.4,9.5,1.4,8.6,8.2c2.7-1,4.8-0.4,6.6,1.9c1.3,1.7,3.3,2.1,4.8,0.7
				c1.5-1.4-0.2-2.8-1.2-3.7c-2-1.8-2-4-2.1-6.4c-0.1-6.1-4-8.2-9-5.3c-3.4-1.1-1.2-7.5-5.9-6.4c-3.2,0.8-3.7,4.4-3.5,8.4
				C144.1,91,145.7,89,146.9,91.1z"/>
			<path d="M26.5,169.8c1.8-1.4,2.9-2.7,2.3-4.9c-0.8-2.8-2.7-0.6-4.1-0.9c-3.1-0.6-8.3-1-7.7-4.3c0.8-5.1-2.1-3.2-4.1-3.7
				c1,6.5,5.4,11.4,7.7,17.4c0.2,0.5,1.4,0.5,2.2,0.7C23.1,172.1,25,170.9,26.5,169.8z"/>
			<path d="M12.7,109.1c0.9,0.1,2.2,0.3,2.5-0.9c0.3-1.3-0.8-1.7-1.7-2c-4.6-1.5-2.3-6.9-1.8-7.2c7-4.7,1.1-5.8-1.9-7.8
				c-1.3,0.7-1.9,1.7-2,3.1c-0.6,5.3-1.3,10.6-2,15.9C8.1,109.5,10.3,108.9,12.7,109.1z"/>
			<path d="M64.6,95.3c1.7,1.3,1,2-0.3,2.9c-2,1.4-1.3,2.3,0.6,3c1.3,0.5,2.5,0.8,3.7-0.3c1.7-1.5,0.6-3,0.2-4.6
				c-0.6-2.2-3.8-3.2-1.9-7c1.3-2.7-5.1-1.2-5.7-4.6c-0.1-0.4-0.6-0.7-1.3-1.6C58.8,89.9,59.3,91.1,64.6,95.3z"/>
			<path d="M112.9,98.2c-1.9,2.3-3.2,5.7-2.3,7.7c0.9,2-1.3,5.5,1.8,5.8c3,0.3,2.4-3.4,3.7-5.2c0.7-1.1,1.1-2.4,1.3-3.7
				c0.3-2.4-1.2-4.2-2.3-6.6C114.1,97.1,113.4,97.6,112.9,98.2z"/>
			<path d="M61.9,192.2c2.9-0.3,5.9,0,8.9,0.1c0.9,0,2.2,0.9,2.6-0.4c0.4-1.8-0.4-3.5-1.2-5.2c-0.1-0.3-1.1-0.5-1.3-0.3
				c-1.9,1.4,1.2,2.5-0.2,4.6c-2.1-2.6-5.8-1.2-8-3.5c-1.1-1.2-2.4-1.9-3.9-0.6c-1,0.9-0.8,2-0.5,3.2
				C58.8,192.1,60,192.4,61.9,192.2z"/>
			<path d="M15.9,141.8c-3.8,0.7-4.6-2.6-6.9-3.8c1.3,3.3-1.8,7.3,1.8,10.1c2.3,0.3,4.3-0.5,5.9-2.1
				C18.5,144.2,17.3,141.5,15.9,141.8z"/>
			<path d="M125.1,231.2c-0.5-1.1-0.9-1.7-2.1-1.1c-1.1,0.5-2,1.3-1.9,2.6c0.1,1.5,0.5,2.9,0.8,4.3c2.7,1.9,5.4,1.3,8,0.1
				C129.9,233.8,126.1,233.6,125.1,231.2z"/>
			<path d="M80.8,90c-0.3-0.8-1.1-1.7-1.8-1.3c-1.9,1-1,2.9-1,4.5c0,2-0.7,4.2,0.7,6.2c2.3-0.5,2.7-2.6,3.8-4.1
				C84.7,92.4,81.4,91.7,80.8,90z"/>
			<path d="M142.9,148.4c0.8-3.2,1.4-5.3,1.7-7.4c0.3-1.9-1-2.8-2.7-2.8c-1.6,0-3.4,0.6-2.2,2.6c1.9,2.9-2.2,1.6-1.9,3.6
				C139.5,145.2,141.5,145.9,142.9,148.4z"/>
			<path d="M72.4,194.8c-0.9-0.4-2.1-0.7-2.7,0.3c-1.2,2.3,1.3,1.6,2,2.3c0.4,0.4,0.8,1.1,0.8,1.6c0.1,1.4-1.8,3.6,1.1,3.7
				c2.5,0.1,1.8-2.2,1.6-3.7c0.2-0.7,0.4-1.3,0.4-2C75.7,194.8,73.7,195.3,72.4,194.8z"/>
			<path d="M150.8,175.5c1.6,3.1,2.4,5.7,5.7,6c1.2,0.1,1.3-0.8,1.2-1.6C157.4,176.1,154.5,175.9,150.8,175.5z"/>
			<path d="M53.8,209.2c0.4,1.6,0.7,3.1,1.1,4.7c0.3,0.1,0.5,0.3,0.8,0.3c0.7-0.1,1.4-0.1,2.1-0.1c0.2-2.2,2.3-4.6,0.1-6.4
				C56.4,206.3,55.5,209.3,53.8,209.2z"/>
			<path d="M20.9,78.4c1.4-2.6-2.3-1.7-3.4-2.8c-0.3-0.3-0.4-0.9-0.6-1.3c-2.2-0.3-3.3,0.6-3.1,2.9c0.6,0.2,1.3,0.3,1.9,0.6
				C17.4,78.8,20,80.2,20.9,78.4z"/>
			<path d="M46.2,182.4c-2.1,1.1-2.7,2.9-1.6,5.4c1.3-1,2.2-1.8,3.2-2.5c0.8-0.5,2.1-0.6,1.3-2C48.5,182.1,47.2,181.8,46.2,182.4z"
				/>
			<path d="M46.5,195.4c-0.5-0.3-1.3,0.3-1.4,1c-0.4,2.5,1.2,3.8,3.2,5C48,199.3,48.8,196.9,46.5,195.4z"/>
			<path d="M150.4,42.9c2.2-0.8,1.3-2.7,1-4.6c0.1,3.2-2.7,2-4.4,2.8C147.9,42.7,149,43.4,150.4,42.9z"/>
			<path d="M44.4,172.9c-0.2-1.3-1-2-2.2-2.3c-0.7-0.2-1.2,0.5-1.1,1.2c0.1,1.1,0.7,1.8,1.8,2C43.6,174,44.2,173.8,44.4,172.9z"/>
			<path d="M6,114c-0.4,1.7-0.7,3.4-1.1,5.1C9.1,118.2,8.9,116.4,6,114z"/>
			<path d="M63,209.2c-0.8-0.1-1.7,0.2-1.8,1.1c-0.1,1,0.4,1.5,1.5,1.3c0.8-0.2,1.5-0.5,1.8-1.4C64.3,209.3,63.6,209.2,63,209.2z"/>
			<path d="M94.9,123.9c0,0.6-0.1,1.4,0.8,1.4c0.7,0,1.3-0.3,1.3-1.1c-0.1-0.6-0.5-1.1-0.7-1.5C95.3,122.6,95,123.2,94.9,123.9z"/>
			<path d="M20.1,73.8c0.3-1.5-1.2-1.5-2.3-1.7c0,0.7,0,1.3,0,2C18.7,74.4,19.9,75.1,20.1,73.8z"/>
			<path d="M77.4,191c0.3,0.3,0.6,0.8,0.9,0.8c0.3,0,0.7-0.4,1-0.6c-0.2-0.3-0.5-0.6-0.8-1.1C78,190.5,77.7,190.7,77.4,191z"/>
			<path d="M7.9,122.1c0.9,0.4,1.9,0.7,2.8,1.1C10.5,121,9.5,120.6,7.9,122.1c-0.7-0.3-1.4-0.7-2-1c0.2,0.9-0.3,2.2,1,2.4
				C7.6,123.6,7.8,122.8,7.9,122.1z"/>
			<path d="M104,42.6c0,0-0.4,0-0.4,0.1c-0.1,0.3-0.1,0.5-0.1,0.8c0.3,0,0.5-0.1,0.8-0.1C104.2,43.1,104.2,42.8,104,42.6z"/>
			<path d="M81.7,190.2c0,0.1,0.3,0.2,0.3,0.2c0.2-0.2,0.3-0.4,0.4-0.6c-0.2-0.1-0.5-0.2-0.7-0.4C81.8,189.7,81.7,189.9,81.7,190.2z
				"/>
			<path d="M119.4,238.2c0.1-0.4,0.3-0.8,0.4-1.2c-0.3,0-0.6,0-0.9,0C119,237.4,119.2,237.8,119.4,238.2z"/>
			<path d="M7,127.2c0.3,0,0.6-0.1,0.9-0.1C7.5,126.6,7.2,126.6,7,127.2z"/>
			<path d="M11.2,124.8c-0.1-0.2-0.2-0.5-0.3-0.7c0,0.3,0,0.6,0,0.9C10.9,125,11.2,124.8,11.2,124.8z"/>
		</g>
		<path class="st9" d="M172.4,232.4c-0.3,0-0.6,0.1-0.8,0.1c0-0.3,0-0.6,0.1-0.8c0-0.1,0.4-0.1,0.4-0.1
			C172.2,231.8,172.3,232.1,172.4,232.4z"/>
	</g>
</g>
</svg>
