<?xml version="1.0" encoding="utf-8"?>
<!-- Generator: Adobe Illustrator 23.0.3, SVG Export Plug-In . SVG Version: 6.00 Build 0)  -->
<svg version="1.1" id="Layer_1" xmlns="http://www.w3.org/2000/svg" xmlns:xlink="http://www.w3.org/1999/xlink" x="0px" y="0px"
	 viewBox="0 0 816 816" style="enable-background:new 0 0 816 816;" xml:space="preserve">
<style type="text/css">
	.st0{fill:#3784C4;}
	.st1{fill:#B7553E;}
	.st2{opacity:0.06;}
	.st3{opacity:0.04;}
	.st4{opacity:0.02;}
	.st5{opacity:0.01;}
	.st6{fill:#FFFFFF;}
	.st7{opacity:0.03;}
	.st8{fill:#D8D312;}
</style>
<g>
	<path class="st0" d="M422,743.1c-191.5,0-354.9-117.4-418.6-282.3C29.3,661.2,200.6,816,408,816c85.4,0,164.6-26.2,230.1-71.1
		c3.3-2.3,6.6-4.6,9.8-6.9c8.4-6.1,16.6-12.6,24.6-19.4c50.2-42.8,89.9-97.6,114.7-159.9C706.2,670.3,572.8,743.1,422,743.1z"/>
	<path class="st1" d="M422,743.1c150.8,0,284.2-72.8,365.2-184.4c17.4-43.8,27.5-91.4,28.6-141.1c0.1-3.2,0.1-6.4,0.1-9.6
		c0-4.2-0.1-8.3-0.2-12.5c-4.6-154.4-95-287.2-225.2-352.5C535.7,15.5,473.6,0,408,0c-46.8,0-91.7,7.9-133.5,22.4
		c-9.3,3.2-18.5,6.8-27.4,10.6c-11.3,4.9-22.4,10.2-33.2,16.1C89.9,116.2,4.7,245.7,0.2,395.5C0.1,399.7,0,403.8,0,408
		c0,17.9,1.2,35.5,3.4,52.8C67.1,625.8,230.5,743.1,422,743.1z"/>
	<g>
		<g class="st2">
			<path d="M36,384c0-140,70.5-263.5,177.9-336.9C86.5,116.1,0,251,0,406c0,225.3,182.7,408,408,408c85.4,0,164.6-26.2,230.1-71.1
				C580.4,774.3,514.3,792,444,792C218.7,792,36,609.4,36,384z"/>
		</g>
		<g class="st3">
			<path d="M487,769C261.7,769,79,586.4,79,361c0-135.7,66.2-255.8,168.1-330c-11.3,4.9-22.4,10.2-33.2,16.1
				C106.5,120.6,36,244.1,36,384c0,225.3,182.7,408,408,408c70.3,0,136.4-17.8,194.1-49.1c3.3-2.3,6.6-4.6,9.8-6.9
				C598.6,757.3,544.2,769,487,769z"/>
		</g>
		<g class="st4">
			<path d="M539,739c-225.3,0-408-182.7-408-408c0-124.4,55.7-235.8,143.5-310.6c-9.3,3.2-18.5,6.8-27.4,10.6
				C145.2,105.2,79,225.4,79,361c0,225.3,182.7,408,408,408c57.2,0,111.6-11.8,160.9-33c8.4-6.1,16.6-12.6,24.6-19.4
				C630.7,731.2,585.8,739,539,739z"/>
		</g>
		<g class="st5">
			<path class="st6" d="M694.7,219C587.7,219,501,138,501,38c0-9.4,0.8-18.6,2.2-27.5c-15.3-3.7-31-6.6-47-8.5
				C435.9,30.6,424,65,424,102c0,100,86.7,181,193.7,181c60.5,0,114.6-26,150.1-66.6c-1.6-3-3.2-6-4.9-8.9
				C741.7,214.9,718.7,219,694.7,219z"/>
		</g>
		<g class="st7">
			<path class="st6" d="M694.7,219c24,0,47-4.1,68.2-11.6C723,136.4,662.5,78.6,589.6,42c-27.2-13.6-56.1-24.3-86.4-31.6
				c-1.5,9-2.2,18.2-2.2,27.5C501,138,587.7,219,694.7,219z"/>
		</g>
		<g class="st7">
			<circle cx="141" cy="140" r="6"/>
			<ellipse cx="165.5" cy="128.5" rx="12.5" ry="5.5"/>
			<circle cx="166.5" cy="153.5" r="7.5"/>
		</g>
		<g class="st7">
			<circle cx="385" cy="767" r="6"/>
			<ellipse cx="409.5" cy="755.5" rx="12.5" ry="5.5"/>
			<circle cx="410.5" cy="780.5" r="7.5"/>
		</g>
		<g class="st7">
			<circle cx="654" cy="209" r="6"/>
			<ellipse cx="678.5" cy="197.5" rx="12.5" ry="5.5"/>
			<circle cx="679.5" cy="222.5" r="7.5"/>
		</g>
		<g class="st7">
			<circle cx="521" cy="107" r="6"/>
			<ellipse cx="545.5" cy="95.5" rx="12.5" ry="5.5"/>
			<circle cx="546.5" cy="120.5" r="7.5"/>
		</g>
		<g class="st7">
			<circle cx="114" cy="471" r="6"/>
			<ellipse cx="138.5" cy="459.5" rx="12.5" ry="5.5"/>
			<circle cx="139.5" cy="484.5" r="7.5"/>
		</g>
		<g class="st7">
			<circle cx="63" cy="352" r="6"/>
			<ellipse cx="87.5" cy="340.5" rx="12.5" ry="5.5"/>
			<circle cx="88.5" cy="365.5" r="7.5"/>
		</g>
		<g class="st7">
			<circle cx="731" cy="356" r="6"/>
			<ellipse cx="755.5" cy="344.5" rx="12.5" ry="5.5"/>
			<circle cx="756.5" cy="369.5" r="7.5"/>
		</g>
		<g class="st7">
			<circle cx="524" cy="748" r="6"/>
			<ellipse cx="548.5" cy="736.5" rx="12.5" ry="5.5"/>
			<circle cx="549.5" cy="761.5" r="7.5"/>
		</g>
		<g class="st7">
			<circle cx="268" cy="716" r="6"/>
			<ellipse cx="292.5" cy="704.5" rx="12.5" ry="5.5"/>
			<circle cx="293.5" cy="729.5" r="7.5"/>
		</g>
		<g class="st7">
			<circle cx="84" cy="586" r="6"/>
			<ellipse cx="108.5" cy="574.5" rx="12.5" ry="5.5"/>
			<circle cx="109.5" cy="599.5" r="7.5"/>
		</g>
		<g class="st7">
			<circle cx="607" cy="515" r="6"/>
			<ellipse cx="631.5" cy="503.5" rx="12.5" ry="5.5"/>
			<circle cx="632.5" cy="528.5" r="7.5"/>
		</g>
		<g class="st7">
			<circle cx="333.9" cy="55.3" r="2.9"/>
			<ellipse cx="345.9" cy="49.7" rx="6.1" ry="2.7"/>
			<circle cx="346.4" cy="61.9" r="3.7"/>
		</g>
		<g class="st7">
			<circle cx="741.9" cy="315.3" r="2.9"/>
			<ellipse cx="753.9" cy="309.7" rx="6.1" ry="2.7"/>
			<circle cx="754.4" cy="321.9" r="3.7"/>
		</g>
		<g class="st7">
			<circle cx="259.9" cy="177.3" r="2.9"/>
			<ellipse cx="271.9" cy="171.7" rx="6.1" ry="2.7"/>
			<circle cx="272.4" cy="183.9" r="3.7"/>
		</g>
		<g class="st7">
			<circle cx="70.9" cy="405.3" r="2.9"/>
			<ellipse cx="82.9" cy="399.7" rx="6.1" ry="2.7"/>
			<circle cx="83.4" cy="411.9" r="3.7"/>
		</g>
		<g class="st7">
			<circle cx="354.9" cy="714.3" r="2.9"/>
			<ellipse cx="366.9" cy="708.7" rx="6.1" ry="2.7"/>
			<circle cx="367.4" cy="720.9" r="3.7"/>
		</g>
		<g class="st7">
			<circle cx="492.9" cy="70.3" r="2.9"/>
			<ellipse cx="504.9" cy="64.7" rx="6.1" ry="2.7"/>
			<circle cx="505.4" cy="76.9" r="3.7"/>
		</g>
	</g>
	<path class="st8" d="M424.14,260.01l34.03,68.96c2.63,5.33,7.71,9.02,13.59,9.88l76.1,11.06c14.81,2.15,20.72,20.35,10.01,30.79
		l-55.06,53.67c-4.26,4.15-6.2,10.12-5.19,15.98l13,75.79c2.53,14.75-12.95,26-26.2,19.03l-68.06-35.78
		c-5.26-2.77-11.54-2.77-16.8,0l-68.06,35.78c-13.24,6.96-28.73-4.28-26.2-19.03l13-75.79c1-5.86-0.94-11.83-5.19-15.98
		l-55.06-53.67c-10.72-10.44-4.8-28.64,10.01-30.79l76.1-11.06c5.88-0.85,10.96-4.55,13.59-9.88l34.03-68.96
		C398.38,246.59,417.52,246.59,424.14,260.01z"/>
</g>
</svg>
