<?xml version="1.0" encoding="utf-8"?>
<!-- Generator: Adobe Illustrator 23.0.3, SVG Export Plug-In . SVG Version: 6.00 Build 0)  -->
<svg version="1.1" id="Layer_1" xmlns="http://www.w3.org/2000/svg" xmlns:xlink="http://www.w3.org/1999/xlink" x="0px" y="0px"
	 viewBox="0 0 346 528.5" style="enable-background:new 0 0 346 528.5;" xml:space="preserve">
<style type="text/css">
	.st0{fill:#977DB9;}
	.st1{opacity:0.2;enable-background:new    ;}
	.st2{opacity:2.000000e-02;fill:#FFFFFF;enable-background:new    ;}
	.st3{opacity:0.1;fill:#FFFFFF;enable-background:new    ;}
	.st4{opacity:5.000000e-02;fill:#FFFFFF;enable-background:new    ;}
	.st5{opacity:0.15;enable-background:new    ;}
	.st6{opacity:0.5;}
	.st7{opacity:0.15;fill:#352842;enable-background:new    ;}
	.st8{opacity:0.1;fill:#C1B0D5;enable-background:new    ;}
	.st9{opacity:0.15;fill:#C1B0D5;enable-background:new    ;}
</style>
<g>
	<path class="st0" d="M345.8,313.3c-0.1-4.2-0.2-8.4-0.5-12.6c0-0.5-0.1-1-0.1-1.5c-0.1-1.4-0.2-2.8-0.3-4.2c0-0.3-0.1-0.7-0.1-1
		c-0.3-3.4-0.6-6.9-1-10.3c-0.1-1-0.3-2.1-0.4-3.1c-0.1-0.9-0.2-1.7-0.3-2.6c-0.5-3.9-1.1-7.9-1.8-11.8
		c-2.8-18.2-6.8-36.8-12.1-55.6C291.3,77,202.7-15,131.2,5.2c-1,0.3-2,0.6-2.9,0.9c-1.5,0.3-3.1,0.6-4.6,1c-0.8,0.2-1.6,0.4-2.3,0.6
		s-1.6,0.4-2.3,0.7l0,0c-0.1,0-0.2,0.1-0.3,0.1C108.2,11,99.1,17.3,89.1,21c-0.7,0.3-1.3,0.5-2,0.7c-2.6,0.9-5.2,1.8-7.6,2.9
		c-1.3,0.5-2.6,1.1-3.9,1.7c-1.3,0.6-2.5,1.2-3.7,1.8c-0.7,0.4-1.4,0.7-2.1,1.1c-1.3,0.7-2.6,1.4-3.9,2.2c-0.1,0-0.2,0.1-0.3,0.2
		c-0.1,0-0.1,0.1-0.2,0.1c-1.6,0.9-3.1,1.9-4.6,2.9c-0.1,0.1-0.2,0.2-0.3,0.2c-1.3,0.9-2.6,1.8-3.9,2.8c-0.4,0.3-0.8,0.6-1.3,1
		c-0.7,0.5-1.4,1.1-2.1,1.7c-1.1,0.9-2.1,1.8-3.2,2.7c-0.1,0.1-0.2,0.2-0.3,0.3c-0.2,0.1-0.3,0.3-0.4,0.4c-2,1.7-3.8,3.5-5.7,5.4
		c-0.2,0.2-0.5,0.5-0.7,0.7c-1.1,1.1-2.1,2.2-3.1,3.3c-0.2,0.2-0.3,0.4-0.5,0.5c-1.1,1.2-2.2,2.5-3.2,3.7c-1.2,1.4-2.3,2.9-3.4,4.4
		c0,0,0,0.1-0.1,0.1c-0.2,0.3-0.4,0.6-0.6,0.8c-1.3,1.7-2.5,3.4-3.7,5.2c-0.5,0.7-1,1.4-1.4,2.2c-1.2,1.8-2.4,3.7-3.5,5.6
		s-2.3,3.8-3.4,5.8l0,0l0,0c-0.3,0.6-0.5,1.2-0.8,1.8c-0.9,1.9-1.8,3.9-2.6,5.9c-0.2,0.4-0.4,0.8-0.5,1.3c-1.1,2.7-2.2,5.4-3.2,8.1
		c-2,5.4-3.8,10.9-5.3,16.4c-0.8,2.8-1.4,5.6-2,8.3c-0.1,0.6-0.3,1.2-0.4,1.8c-0.1,0.3-0.1,0.6-0.2,0.8c-0.2,1.2-0.5,2.4-0.7,3.7
		c-0.1,0.4-0.1,0.9-0.2,1.3c-0.4,2.6-0.8,5.2-1.1,7.8c-0.1,1.1-0.2,2.3-0.3,3.5c-0.3,3.5-0.4,7-0.5,10.5l0,0l0,0
		c-2.5,24.2-3.1,48.4-0.3,72.7l0,0l0,0c-0.1,0.7-0.1,1.4-0.2,2.1c-0.1,1.3-0.1,2.5-0.2,3.8c0,0.7,0,1.4,0,2.1
		c0,7.9,1.2,15.8,2.8,23.6l0,0c-1.2,4.4-0.2,8.4,1.8,12.3l0,0l0,0c0.9,5.7,1.9,11.4,2.8,17c0,0,0,0,0,0c0,0.1,0,0.3,0.1,0.4
		c1.5,10.1,3.3,20.1,7,29.7l0,0l0,0l0,0l0,0l0,0c0.1,0.2,0.1,0.5,0.2,0.7c0.2,0.8,0.5,1.7,0.7,2.5l0,0l0,0l0,0c0,0,0,0.1,0,0.1
		c0.1,0.6,0.2,1.2,0.4,1.9c0,0.1,0,0.2,0.1,0.3c0.1,0.7,0.3,1.4,0.4,2.1c0,0.1,0,0.1,0,0.2c0.1,0.7,0.3,1.4,0.5,2.1c0,0,0,0.1,0,0.1
		c0.3,1.1,0.6,2.3,0.9,3.4c0.3,1,0.7,2.1,1.1,3.1c0,0,0,0,0,0c0.3,0.7,0.6,1.4,0.9,2c0,0,0,0,0,0.1c0.3,0.7,0.7,1.3,1.1,2l0,0
		c0,0.6,0.1,1.3,0.3,1.9c1.9,4.1,3.7,8.1,5.6,12.2c0.4,0.8,0.9,1.5,1.4,2.2c1,5.8,2.6,11.2,4.8,16.5c0.9,2.3,1.9,4.5,3,6.6
		c0,0,0,0.1,0,0.1c1,2,2,3.9,3.1,5.9c3.2,5.8,6.9,11.5,10.5,17.1l0,0c8.1,14.1,15.8,28.5,26.3,40.9c0.7,0.8,1.4,1.6,2.1,2.5
		c1.6,1.8,3.2,3.5,5,5.2c0.4,0.8,0.8,1.5,1.2,2.2s0.9,1.4,1.3,2.1c0.3,0.5,0.7,1,1.1,1.5c0.7,0.9,1.5,1.8,2.3,2.6
		c0.5,0.5,0.9,1,1.4,1.5c1.7,1.7,3.6,3.4,5.4,5c1.3,1.4,2.6,2.8,3.9,4.2c2,2.2,4,4.3,6,6.5l0,0l0,0l0,0c1.2,1.4,2.4,2.7,3.6,4
		c0.1,0.1,0.1,0.1,0.2,0.2c2,2.1,4.1,4.1,6.2,6c1.9,1.7,3.8,3.4,5.8,5c0.2,0.2,0.4,0.3,0.6,0.5c2,1.6,4,3.2,6.1,4.8
		c0.2,0.2,0.4,0.3,0.6,0.5c3.6,2.7,7.3,5.3,11.1,7.9l0,0c3,2,6.1,4,9.2,5.9c0.8,0.5,1.5,0.9,2.3,1.4c1.1,0.7,2.3,1.3,3.4,2
		c1.1,0.6,2.3,1.3,3.4,1.9c17.1,9.1,35.3,15,55.5,15.3l0,0l0,0c1.6-0.1,3.2-0.2,4.9-0.3c1.2-0.1,2.4-0.1,3.7-0.2
		c2.3,0.2,4.4,0.1,6.4-0.2c0.1,0,0.3,0,0.4-0.1c2-0.3,3.9-0.8,5.8-1.5c0.8-0.3,1.6-0.6,2.3-1c5.4-2.5,10-6.4,14.5-10.9l0,0l0,0
		c2.6-1.4,5.1-3,7.4-4.7c1.3-0.9,2.5-1.8,3.7-2.8c1.6-1.2,3.1-2.5,4.6-3.8c2.3-2,4.5-4,6.6-6.1c0.7-0.7,1.5-1.4,2.2-2
		c1.5-1.4,2.9-2.7,4.4-4.1c1.4-1.3,2.7-2.5,4.1-3.7c0.3-0.3,0.6-0.5,1-0.8c2.6-2.2,5.1-4.4,7.6-6.8c1.1-1.1,2.2-2.2,3.3-3.4
		c1.5-1.6,3-3.3,4.4-5c0.3-0.3,0.5-0.6,0.7-1c0.5-0.7,1.1-1.4,1.6-2.1c0.8-1,1.5-2.1,2.2-3.2l0,0c5.2-4.5,8.7-10,11.6-16
		c1.8-2.9,3.5-5.9,5.1-9c1-1.6,2-3.2,2.8-4.8c0.5-0.9,0.9-1.8,1.4-2.6c0-0.1,0.1-0.2,0.1-0.3c0.6-1.2,1.1-2.3,1.6-3.5
		c1.1-2.6,2.1-5.2,3.1-7.9c0.1-0.2,0.2-0.4,0.2-0.6c1.3-3.6,2.5-7.3,3.5-11c0.4-1.2,0.7-2.5,1-3.7c0.6-2.3,1.2-4.6,1.7-6.9
		c0.1-0.7,0.3-1.3,0.4-2c0.6-2.9,1.1-5.7,1.6-8.6l0,0C345,365.4,346.8,340.2,345.8,313.3z"/>
	<path class="st1" d="M283.3,479.2L283.3,479.2c-0.8,0.2-1.6,0.5-2.4,0.7s-1.6,0.4-2.3,0.6c-1.5,0.4-3.1,0.7-4.6,1
		c-1,0.3-1.9,0.6-2.9,0.9c-71.5,20.2-160-71.8-197.8-205.5c-5.3-18.8-9.3-37.4-12.1-55.6c-0.6-3.9-1.2-7.8-1.8-11.8
		c-0.1-0.9-0.2-1.7-0.3-2.6c-0.1-1-0.3-2.1-0.4-3.1c-0.4-3.4-0.8-6.9-1-10.3c0-0.3-0.1-0.7-0.1-1c-0.1-1.4-0.2-2.8-0.3-4.2
		c0-0.5-0.1-1-0.1-1.5c-0.3-4.2-0.4-8.4-0.5-12.6c-1-26.9,0.8-52.1,5.3-74.7l0,0c0.5-2.9,1-5.7,1.6-8.6c0.1-0.7,0.3-1.3,0.4-2
		c0.5-2.3,1.1-4.6,1.7-6.9c0.3-1.2,0.7-2.5,1-3.7c1.1-3.7,2.2-7.3,3.5-11c0.1-0.2,0.2-0.4,0.2-0.7c1-2.7,2-5.3,3.1-7.9
		c0.5-1.2,1-2.4,1.6-3.5c0-0.1,0.1-0.2,0.1-0.3c0.4-0.9,0.9-1.8,1.4-2.6c0.9-1.6,1.8-3.2,2.8-4.8c1.6-3.1,3.3-6.1,5.1-9
		c2.9-6,6.4-11.5,11.6-16l0,0c0.7-1.1,1.4-2.1,2.2-3.2c0.5-0.7,1-1.4,1.6-2.1c0.3-0.3,0.5-0.7,0.7-1c0.6-0.7,1.2-1.5,1.8-2.2
		c-4.4,2.2-8.8,4.4-13.3,6.1c-0.7,0.3-1.3,0.5-2,0.7c-2.6,0.9-5.2,1.8-7.6,2.9c-1.3,0.5-2.6,1.1-3.9,1.7c-1.3,0.6-2.5,1.2-3.7,1.8
		c-0.7,0.4-1.4,0.7-2.1,1.1c-1.3,0.7-2.6,1.4-3.9,2.2c-0.1,0-0.2,0.1-0.3,0.2c-0.1,0-0.1,0.1-0.2,0.1c-1.6,0.9-3.1,1.9-4.6,2.9
		c-0.1,0.1-0.2,0.2-0.3,0.2c-1.3,0.9-2.6,1.8-3.9,2.8c-0.4,0.3-0.8,0.6-1.3,1c-0.7,0.5-1.4,1.1-2.1,1.7c-1.1,0.9-2.1,1.8-3.2,2.7
		c-0.1,0.1-0.2,0.2-0.3,0.3c-0.2,0.1-0.3,0.3-0.4,0.4c-2,1.7-3.8,3.5-5.7,5.4c-0.2,0.2-0.5,0.5-0.7,0.7c-1.1,1.1-2.1,2.2-3.1,3.3
		c-0.2,0.2-0.3,0.4-0.5,0.5c-1.1,1.2-2.2,2.5-3.2,3.7c-1.2,1.4-2.3,2.9-3.4,4.4c0,0,0,0.1-0.1,0.1c-0.2,0.3-0.4,0.6-0.6,0.8
		c-1.3,1.7-2.5,3.4-3.7,5.2c-0.5,0.7-1,1.4-1.4,2.2c-1.2,1.8-2.4,3.7-3.5,5.6S21,78.7,20,80.6l0,0l0,0c-0.3,0.6-0.5,1.2-0.8,1.8
		c-0.9,1.9-1.8,3.9-2.6,5.9c-0.2,0.4-0.4,0.8-0.5,1.3c-1.1,2.7-2.2,5.4-3.2,8.1c-2,5.4-3.8,10.9-5.3,16.4c-0.8,2.8-1.4,5.6-2,8.3
		c-0.1,0.6-0.3,1.2-0.4,1.8C5,124.4,5,124.7,4.9,125c-0.2,1.2-0.5,2.4-0.7,3.7c-0.1,0.4-0.1,0.9-0.2,1.3c-0.4,2.6-0.8,5.2-1.1,7.8
		c-0.1,1.1-0.2,2.3-0.3,3.5c-0.3,3.5-0.4,7-0.5,10.5l0,0l0,0c-2.5,24.2-3.1,48.4-0.3,72.7l0,0l0,0c-0.1,0.7-0.1,1.4-0.2,2.1
		c-0.1,1.3-0.1,2.5-0.2,3.8c0,0.7,0,1.4,0,2.1c0,7.9,1.2,15.8,2.8,23.6l0,0c-1.2,4.4-0.2,8.4,1.8,12.3l0,0l0,0
		c0.9,5.7,1.9,11.4,2.8,17c0,0,0,0,0,0c0,0.1,0,0.3,0.1,0.4c1.5,10.1,3.3,20.1,7,29.7l0,0l0,0l0,0l0,0l0,0c0.1,0.2,0.1,0.5,0.2,0.7
		c0.2,0.8,0.5,1.7,0.7,2.5l0,0l0,0c0,0,0,0.1,0,0.1c0.1,0.6,0.2,1.2,0.4,1.9c0,0.1,0,0.2,0.1,0.3c0.1,0.7,0.3,1.4,0.4,2.1
		c0,0.1,0,0.1,0,0.2c0.1,0.7,0.3,1.4,0.5,2.1c0,0,0,0.1,0,0.1c0.3,1.1,0.6,2.3,0.9,3.4c0.3,1,0.7,2.1,1.1,3.1c0,0,0,0,0,0
		c0.3,0.7,0.6,1.4,0.9,2c0,0,0,0,0,0.1c0.3,0.7,0.7,1.3,1.1,2l0,0c0,0.6,0.1,1.3,0.3,1.9c1.9,4.1,3.7,8.1,5.6,12.2
		c0.4,0.8,0.9,1.5,1.4,2.2c1,5.8,2.6,11.2,4.8,16.5c0.9,2.3,1.9,4.5,3,6.6c0,0,0,0.1,0,0.1c1,2,2,3.9,3.1,5.9
		c3.2,5.8,6.9,11.5,10.5,17.1l0,0c8.1,14.1,15.8,28.5,26.3,40.9c0.7,0.8,1.4,1.6,2.1,2.5c1.6,1.8,3.2,3.5,5,5.2
		c0.4,0.8,0.8,1.5,1.2,2.2s0.9,1.4,1.3,2.1c0.3,0.5,0.7,1,1.1,1.5c0.7,0.9,1.5,1.8,2.3,2.6c0.5,0.5,0.9,1,1.4,1.5
		c1.7,1.7,3.6,3.4,5.4,5c1.3,1.4,2.6,2.8,3.9,4.2c2,2.2,4,4.3,6,6.5l0,0l0,0l0,0c1.2,1.4,2.4,2.7,3.6,4c0.1,0.1,0.1,0.1,0.2,0.2
		c2,2.1,4.1,4.1,6.2,6c1.9,1.7,3.8,3.4,5.8,5c0.2,0.2,0.4,0.3,0.6,0.5c2,1.6,4,3.2,6.1,4.8c0.2,0.2,0.4,0.3,0.6,0.5
		c3.6,2.7,7.3,5.3,11.1,7.9l0,0c3,2,6.1,4,9.2,5.9c0.8,0.5,1.5,0.9,2.3,1.4c1.1,0.7,2.3,1.3,3.4,2c1.1,0.6,2.3,1.3,3.4,1.9
		c17.1,9.1,35.3,15,55.5,15.3l0,0l0,0c1.6-0.1,3.2-0.2,4.9-0.3c1.2-0.1,2.4-0.1,3.7-0.2c2.3,0.2,4.4,0.1,6.4-0.2
		c0.1,0,0.3,0,0.4-0.1c2-0.3,3.9-0.8,5.8-1.5c0.8-0.3,1.6-0.6,2.3-1c5.4-2.5,10-6.4,14.5-10.9l0,0l0,0c2.6-1.4,5.1-3,7.4-4.7
		c1.3-0.9,2.5-1.8,3.7-2.8c1.6-1.2,3.1-2.5,4.6-3.8c2.3-2,4.5-4,6.6-6.1c0.7-0.7,1.5-1.4,2.2-2c1.5-1.4,2.9-2.7,4.4-4.1
		c1.4-1.3,2.7-2.5,4.1-3.7c0.3-0.3,0.6-0.5,1-0.8c2.6-2.2,5.1-4.4,7.6-6.8c1.1-1.1,2.2-2.2,3.3-3.4c0.9-0.9,1.7-1.9,2.5-2.8
		c-5.2,2.6-10.5,5.1-16.3,6.5C283.5,479.2,283.4,479.2,283.3,479.2z"/>
	<path class="st2" d="M335.5,254c-3.6-18.5-9.5-36.2-14.8-54.2c-0.1-0.4-0.1-0.8-0.2-1.1c-2.2,0.2-4.4,0.2-3.9-1.4
		c1.8-5.7-2.3-11.5-0.5-16.9c-0.3-0.8-0.5-1.6-0.8-2.3c-7.4-19.6-15.4-38.9-25.3-57.4c-1.9-3.6-3.6-7.2-3.3-11.4c0,0,0,0,0-0.1
		c-10.9-5.9-14.2-18-20.8-27.3c-21.8-30.5-47.1-56.5-82.2-71.5c-15.1-6.5-30.5-6.3-46.2-2.9c-4.3,0.9-8.5,3.8-12.8,0.8
		c-1.2,1.3-2.7,2.1-4.5,2.4c-0.6-0.1-1.2-0.1-1.7-0.2c-5,3.7-10,7.3-15,11c-0.1,0.6-0.1,1.2-0.2,1.8c-1.2,1.5-2.8,2.2-4.7,2.6
		c-8.9,15.7-18,31.3-22,49.3c0.3,0,0.7,0.1,1,0.1c4.3,10.4-2.5,19.3-4.1,28.8c-0.4,2.3-2,4.3-2.5,6.6c0.1,1.1,0.2,2.2,0.3,3.3
		c0.4-1.3,0.5-3.3,1.3-3.7c7-3.8,2.5-24.5,19.1-13.7c9.6,6.2,19-0.1,28.3,1.8c1.6,0.3,2.6,3.5,3.7,5.4c2.1,3.5,4.3,6.9,5.9,10.6
		c2.7,6.2,6.7,5.9,12,3.5c4.6-2.1,11.3-1.4,10-9.7c-0.6-3.6-2.9-9,3.5-9.2c4.7-0.2,6.3,4.6,7.1,8.6c0.9,4.4,0.8,8.9,1.6,13.3
		c2.6,13.8,4.8,26.8,17.3,37.3c6.8,5.8,15.3,16.5,7.5,30.2c-6.2,10.8-0.1,25.9,10.9,34.5c5.2,4.1,12.1,6.6,16.3,11.6
		c6.5,7.8,11.1,5.1,16.3-0.6c5.2-5.7,6.6-10.4-2.3-14.3c-4.1-1.8-4.7-6.8-4-10.7c0.7-4.3,5.2-2.5,8-2.8c18.2-2,18.6-1.3,23.6,17.9
		c1.6,6.1,6.8,10.3,12.6,12.5c3.4,1.3,8.8-1.6,8.8-4.5c-0.3-13.7,4.6-16.4,16.2-9.8c1.8,1,5.2-0.6,7.8-1.2c5.3-1.3,9.3-0.3,9.1,6
		c-0.1,4.9,3.9,8.2,4.7,12.1c3.2,15.4,15.7,27,16.8,43c0.5,8.3,4.7,7,9.6,3.7l0,0C334.3,276.9,337.6,264.5,335.5,254z"/>
	<path class="st3" d="M345.8,311.7c-0.1-4.2-0.2-8.4-0.5-12.6c0-0.5-0.1-1-0.1-1.5c-0.1-1.4-0.2-2.8-0.3-4.2c0-0.3-0.1-0.7-0.1-1
		c-0.3-3.4-0.6-6.9-1-10.3c-0.1-1-0.3-2.1-0.4-3.1c-0.1-0.9-0.2-1.7-0.3-2.6c-0.5-3.9-1.1-7.9-1.8-11.8
		c-2.8-18.2-6.8-36.8-12.1-55.6C291.3,75.4,202.7-16.6,131.2,3.6c-1,0.3-2,0.6-2.9,0.9c4.3-0.8,8.4-1.3,12.5-1.6
		c-4.1,0.3-8.3,0.8-12.5,1.6c-2.9,0.9-5.7,2.1-8.5,3.4c1.8,2.8,2,5.7,0.6,8.8c-0.1,0.3-0.3,0.6-0.4,0.9c-0.1,0.1-0.2,0.3-0.3,0.4
		c4.3,3,8.5,0.1,12.8-0.8c15.7-3.5,31-3.6,46.2,2.9c35.1,15,60.4,41,82.2,71.5c6.6,9.3,9.9,21.4,20.8,27.3c0,0,0,0,0,0.1
		c-0.4,4.2,1.4,7.8,3.3,11.4c9.8,18.5,17.9,37.8,25.3,57.4c0.3,0.8,0.5,1.6,0.8,2.3c-1.8,5.4,2.3,11.2,0.5,16.9
		c-0.5,1.7,1.7,1.6,3.9,1.4c0.1,0.4,0.1,0.8,0.2,1.1c5.3,18,11.2,35.7,14.8,54.2c2.1,10.5-1.3,22.9,7.8,31.8l0,0
		c0.6,13,3.4,26,0.9,39.1c-1.3,12.3-1.9,24.7-4.2,36.9c-4.4,23.7-9.8,47.3-14.8,70.9c0,0,0.1-0.1,0.1-0.1c1-1.2,1.9-2.5,2.7-3.8l0,0
		c1-1.6,2-3.2,2.8-4.8c0.5-0.9,0.9-1.8,1.4-2.6c0-0.1,0.1-0.2,0.1-0.3c0.6-1.2,1.1-2.3,1.6-3.5c1.1-2.6,2.1-5.2,3.1-7.9
		c0.1-0.2,0.2-0.4,0.2-0.6c1.3-3.6,2.5-7.3,3.5-11c0.4-1.2,0.7-2.5,1-3.7c0.6-2.3,1.2-4.6,1.7-6.9c0.1-0.7,0.3-1.3,0.4-2
		c0.6-2.9,1.1-5.7,1.6-8.6l0,0C345,363.8,346.8,338.6,345.8,311.7z"/>
	<path class="st4" d="M102,321.4c4-1.4,5.9,3.7,6.6,7c1.2,5.7,4.8,9.4,8.9,12.9c4.6-8.7,8.1,0,11.6,1.2c3.5,1.2,6.3,5.9,10.2,0.7
		c2.7-3.6,5.4-7,2.2-12.1c-3.5-5.5-7.1-10.6-13.7-12.2c-18.1-4.5-31-14.6-37.7-32.4c-2.7-7.1-6.2-13.9-9.6-20.7
		c-4-8.1-8.2-8.5-12.1-2.2c6.4,20.5,14,39.9,22.6,58C93.5,323,96.9,323.2,102,321.4z"/>
	<g>
		<path class="st5" d="M107.4,467.9c1.2,1.4,2.4,2.7,3.6,4C109.8,470.6,108.6,469.3,107.4,467.9L107.4,467.9z"/>
		<path class="st5" d="M92.1,452.3c-0.5-0.5-0.9-1-1.4-1.5C91.2,451.3,91.6,451.8,92.1,452.3z"/>
		<path class="st5" d="M90.7,450.8c-0.8-0.9-1.5-1.7-2.3-2.6C89.2,449.1,89.9,449.9,90.7,450.8z"/>
		<path class="st5" d="M92.1,452.3c1.7,1.7,3.6,3.4,5.4,5c1.3,1.4,2.6,2.8,3.9,4.2c-1.3-1.4-2.6-2.8-3.9-4.2
			C95.7,455.6,93.8,454,92.1,452.3z"/>
		<path class="st5" d="M36.8,338.4c0.4,0.6,0.8,1.1,1.3,1.7c-0.3-1.4-0.4-2.6-0.5-3.7c0,0-0.1,0-0.1,0c-0.3,0.1-0.6,0.2-0.8,0.3
			c0,0,0,0-0.1,0c0,0,0,0,0,0c0,0-0.1,0-0.2,0c-0.6,0.2-1.1,0.3-1.5,0.4c0.7,0.9,1.4,1.9,2.2,2.9C37,339.5,36.9,338.9,36.8,338.4z"
			/>
		<path class="st5" d="M31.9,333.1c1,1.3,2,2.7,3.1,4.1C33.9,335.8,32.9,334.5,31.9,333.1z"/>
		<path class="st5" d="M107.4,467.9L107.4,467.9c-2-2.2-4-4.3-6-6.5C103.4,463.6,105.4,465.7,107.4,467.9L107.4,467.9L107.4,467.9
			L107.4,467.9L107.4,467.9z"/>
		<path class="st5" d="M140.3,401.5c-3.3-1.2-6.6-1.2-10-0.5c-0.1-0.1-0.2-0.3-0.3-0.4c-0.9-0.5-1.8-0.6-2.8-0.4
			c-3.9-11.7-8.9-22.9-17-32.4c-1.8-2.1-3.8-4.3-6.3-5.2c-1.9-3.6-3.7-7.3-5.5-11.1c9.6,1.9,14.8,7.5,19.4,15.3
			c1.1,1.9,3.5,2.7,6,2.2l0,0c-4.1-3.5-7.7-7.1-8.9-12.9c-0.7-3.3-2.6-8.4-6.6-7c-5.1,1.8-8.5,1.6-10.9,0.1
			c-4.8-2.8-5.7-10.3-8.6-15.4c-0.3,0-0.7,0-1-0.1c-1,0-1.9-0.1-2.8-0.1c-11.1,0.1-16.3,5-17.5,20.3c-1.2,15.5-13.1,6.7-19.1,10.2
			c-4.7,2.7-3.5-5.2-3.8-9.2c-0.4-4.4-1.2-9.9-7.9-4.9l0,0c-2.3-1.5-4.6-3.1-6.8-4.6l0,0c0.1,0.8,0.2,1.5,0.4,2.2
			c1,5.8,2.6,11.2,4.8,16.5c0.9,2.3,1.9,4.5,3,6.6c0,0,0,0.1,0,0.1c1,2,2,3.9,3.1,5.9c3.2,5.8,6.9,11.5,10.5,17.1l0,0
			c8.1,14.1,15.8,28.5,26.3,40.9c0.7,0.8,1.4,1.6,2.1,2.5c1.6,1.8,3.2,3.5,5,5.2c0.4,0.8,0.8,1.5,1.2,2.2c-0.4-0.7-0.8-1.5-1.2-2.2
			c6.3,4.5,11.9,4.4,15.2-3.2c6.2-14.7,19.4-24.3,26.9-38c0.1-0.1,0.1-0.2,0.2-0.3c0.5,0.2,1,0.4,1.5,0.6c0.9,0.4,1.9,0.8,2.9,1.1
			C134.4,403.4,137.3,403.5,140.3,401.5L140.3,401.5z"/>
	</g>
	<g>
		<path class="st5" d="M324.3,437.4c0,0-0.1,0.1-0.1,0.1l0,0c-0.7,1.7-1.5,3.4-2.3,5.1c1.8-2.9,3.5-5.9,5.1-9
			C326.2,434.9,325.3,436.2,324.3,437.4z"/>
		<path class="st5" d="M289,472.4c-3-0.6-6.6-2.6-9-1.6c-21.7,8.3-42.1,1.1-62.7-4.2c0,0,0,0,0,0c0,0,0,0,0,0
			c-12.2-3.6-20.6-13.1-30.6-20.1l0,0l0,0c-14.3-15.3-28.7-30.6-43-46c-3,2.1-5.9,1.9-8.9,1c-0.9-0.3-1.9-0.7-2.9-1.1
			c4.1,6.1,8.1,12.3,12.1,18.5c1.3,1.7,2.6,3.3,4,4.9c0.2,0.3,0.5,0.6,0.7,0.9c3.1,1,5.2,3,5.6,6.5c0,0,0,0,0,0
			c0.1,0.1,0.3,0.3,0.4,0.4c1,1.1,2,2.2,3.1,3.3c8.5,9.1,17.3,17.2,26.2,24c1.6,1.2,3.2,2.4,4.8,3.6c7.1,4.3,14,8.8,21.3,12.8
			c5,2.4,10.1,4.5,15.1,6.1c10.3,3.3,20.6,4.8,30.6,4.3c4.3,2.1,5.2,6.1,1.4,11.8c-1,1.1-2.1,2.2-3.2,3.2c0.9,2.5,1.7,5,2.6,7.5l0,0
			l0,0l0,0c2.6-1.4,5.1-3,7.5-4.7c1.3-0.9,2.5-1.8,3.7-2.8c1.6-1.2,3.1-2.5,4.6-3.8c2.3-2,4.5-4,6.6-6.1c0.7-0.7,1.5-1.4,2.2-2
			c1.5-1.4,2.9-2.7,4.4-4.1c1.4-1.3,2.7-2.5,4.1-3.7c0.3-0.3,0.6-0.5,1-0.8c2.6-2.2,5.1-4.4,7.6-6.8c1.1-1.1,2.2-2.2,3.3-3.4
			c1.5-1.6,3-3.3,4.4-5c0.3-0.3,0.5-0.6,0.7-1c0.5-0.7,1.1-1.4,1.6-2.1c0.8-1,1.5-2.1,2.2-3.2l0,0c5.2-4.5,8.7-10,11.6-16
			c-3.6,5.9-7.6,11.2-11.9,16C299.5,457.7,297.2,469.7,289,472.4z"/>
		<path class="st5" d="M127.1,368L127.1,368L127.1,368c-2.5,0.6-4.8-0.3-6-2.2c-4.6-7.8-9.7-13.4-19.4-15.3
			c1.8,3.8,3.6,7.5,5.5,11.1c2.5,0.9,4.5,3.1,6.3,5.2c8.1,9.5,13.1,20.6,17,32.4c0.9-0.2,1.9,0,2.8,0.4c0.1,0.1,0.2,0.3,0.3,0.4
			c3.3-0.7,6.6-0.7,10,0.5l0,0l0,0C138.1,389.6,132.6,378.8,127.1,368z"/>
	</g>
	<g class="st6">
		<path class="st7" d="M253.5,510.9L253.5,510.9L253.5,510.9c2.6-1.4,5.1-3,7.5-4.7C258.6,507.9,256.1,509.5,253.5,510.9
			L253.5,510.9z"/>
		<path class="st7" d="M250.9,503.5c1.1-1,2.2-2.1,3.2-3.2c3.8-5.8,2.9-9.8-1.4-11.8c-10,0.5-20.3-1-30.6-4.3
			c-5-1.6-10.1-3.6-15.1-6.1c-7.2-4-14.2-8.4-21.3-12.8c-1.6-1.2-3.2-2.4-4.8-3.6c-8.9-6.8-17.6-14.9-26.2-24c-1-1.1-2-2.2-3.1-3.3
			c-0.1-0.1-0.3-0.3-0.4-0.4c0,0,0,0,0,0c-0.4-3.5-2.5-5.5-5.6-6.5c-0.2-0.3-0.5-0.6-0.7-0.9c-1.3-1.6-2.7-3.2-4-4.9
			c-4.1-6.1-8.1-12.3-12.1-18.5c-0.5-0.2-1-0.4-1.5-0.6c-0.1,0.1-0.1,0.2-0.2,0.3c-7.5,13.7-20.7,23.3-26.9,38
			c-3.2,7.6-8.9,7.7-15.2,3.2c0.7,1.5,1.6,2.9,2.5,4.3c2.8,4,6.5,7.3,10.2,10.6c1.3,1.4,2.6,2.8,3.9,4.2c2,2.2,4,4.3,6,6.5l0,0l0,0
			l0,0c1.2,1.4,2.4,2.7,3.6,4c0.1,0.1,0.1,0.1,0.2,0.2c2,2.1,4.1,4.1,6.2,6c1.9,1.7,3.8,3.4,5.8,5c0.2,0.2,0.4,0.3,0.6,0.5
			c2,1.6,4,3.2,6.1,4.8c0.2,0.2,0.4,0.3,0.6,0.5c3.6,2.7,7.3,5.3,11.1,7.9l0,0c3,2,6.1,4,9.2,5.9c0.8,0.5,1.5,0.9,2.3,1.4
			c1.1,0.7,2.3,1.3,3.4,2c1.1,0.6,2.3,1.3,3.4,1.9c17.1,9.1,35.3,15,55.5,15.3l0,0l0,0c1.6-0.1,3.2-0.2,4.9-0.3
			c1.2-0.1,2.4-0.1,3.7-0.2c2.3,0.2,4.4,0.1,6.4-0.2c0.1,0,0.3,0,0.4-0.1c2-0.3,3.9-0.8,5.8-1.5c0.8-0.3,1.6-0.6,2.3-1
			c5.4-2.5,10-6.4,14.5-10.9l0,0l0,0C252.6,508.4,251.8,505.9,250.9,503.5z"/>
	</g>
	<path class="st8" d="M74.6,80.9c-0.1,0.3-0.1,0.6-0.2,0.9l0,0c0-0.3,0-0.6-0.1-0.9c-4.1-0.3-6.7,1.1-8.5,3.2
		c3.5-12.6,7.9-24.2,13.2-34.4C71.3,62.5,64.4,76.1,62,91.3c-0.9,2.1-1.8,4.1-3,5.8l0,0c-1.2,4.3-2.4,8.7-3.7,13l0,0
		c-10.9,0.7-6.8,10.8-10.1,16.3c-2.1,3.4-3.3,8.3-7.8,8c-4.5-0.3-5.6-5.4-6.8-9c-0.8-2.3-0.4-5.3,0.3-7.8
		c3.2-11.5,0.5-23.1,1.3-34.6c0.5-6.7-2.7-9-9.1-7.2l0,0l0,0l0,0c-0.3,0.6-0.5,1.2-0.8,1.8c-0.9,1.9-1.8,3.9-2.6,5.9
		c-0.2,0.4-0.4,0.8-0.5,1.3c-1.1,2.7-2.2,5.4-3.2,8.1c-2,5.4-3.8,10.9-5.3,16.4c-0.8,2.8-1.4,5.6-2,8.3c-0.1,0.6-0.3,1.2-0.4,1.8
		c-0.1,0.3-0.1,0.6-0.2,0.8c-0.2,1.2-0.5,2.4-0.7,3.7c-0.1,0.4-0.1,0.9-0.2,1.3c-0.4,2.6-0.8,5.2-1.1,7.8c-0.5,4.6-0.8,9.3-0.8,14
		l0,0l0,0c-2.5,24.2-3.1,48.4-0.3,72.7l0,0c1.6-2.2,3.6-4.2,4.5-6.6c1.6-4.2,3.2-10.7,7.3-10c4.5,0.9,8.8,5.8,8.9,12
		c0,2.7-2.1,7.1,3.5,6.4c3.6-0.4,5-3.9,5-7.1c0.1-10.6-0.4-19.3,15.2-21.4c4.2-0.6,6.5-6.6,7.5-13.2c0.6-4.1,0.7-8.5,0.5-12.1
		c-0.8-10.7,2.9-18.7,9-26.5c0.6-5.4,1.2-10.9,1.8-16.3l0,0l0,0c0.5-1.7,0.9-3.5,1.4-5.2c-0.5-1.2-0.5-2.2-0.3-3.3
		c0.4-2.3,2.1-4.3,2.5-6.6c1.6-9.6,8.3-18.5,4.1-28.8C75.3,80.9,74.9,80.9,74.6,80.9z"/>
	<g>
		<path class="st9" d="M145.4,0.2c-4.1,0.3-8.3,0.8-12.5,1.6c-1.5,0.3-3.1,0.6-4.6,1c-0.8,0.2-1.6,0.4-2.3,0.6
			c-0.8,0.2-1.6,0.4-2.3,0.6l0,0c-0.1,0-0.2,0.1-0.3,0.1c-10.6,2.6-19.7,8.9-29.6,12.7c-0.7,0.3-1.3,0.5-2,0.7
			c-2.6,0.9-5.2,1.8-7.6,2.9c-1.3,0.5-2.6,1.1-3.9,1.7c-1.3,0.6-2.5,1.2-3.7,1.8c-0.7,0.4-1.4,0.7-2.1,1.1c-1.3,0.7-2.6,1.4-3.9,2.2
			c-0.1,0-0.2,0.1-0.3,0.2c-0.1,0-0.1,0.1-0.2,0.1c-1.6,0.9-3.1,1.9-4.6,2.9c-0.1,0.1-0.2,0.2-0.3,0.2c-1.3,0.9-2.6,1.8-3.9,2.8
			c-0.4,0.3-0.8,0.6-1.3,1c-0.7,0.5-1.4,1.1-2.1,1.7c-1.1,0.9-2.1,1.8-3.2,2.7c-0.1,0.1-0.2,0.2-0.3,0.3c-0.2,0.1-0.3,0.3-0.4,0.4
			c-2,1.7-3.8,3.5-5.7,5.4c-0.2,0.2-0.5,0.5-0.7,0.7c-1.1,1.1-2.1,2.2-3.1,3.3c-0.2,0.2-0.3,0.4-0.5,0.5c-1.1,1.2-2.2,2.5-3.2,3.7
			c-1.2,1.4-2.3,2.9-3.4,4.4c0,0,0,0.1-0.1,0.1c-0.2,0.3-0.4,0.6-0.6,0.8c-1.3,1.7-2.5,3.4-3.7,5.2c-0.5,0.7-1,1.4-1.4,2.1
			c-2.4,3.7-4.7,7.4-6.9,11.3c6.4-1.9,9.6,0.5,9.1,7.2c-0.8,11.5,1.9,23.2-1.3,34.6c-0.7,2.5-1.1,5.5-0.3,7.8c1.2,3.6,2.3,8.7,6.8,9
			s5.8-4.6,7.8-8c3.3-5.5-0.7-15.6,10.1-16.3l0,0c1.2-4.3,2.4-8.7,3.7-13l0,0c1.3-1.7,2.2-3.7,3-5.8c2.4-15.2,9.3-28.8,17.1-41.7
			C75.4,61.1,71,72.6,67.5,85.2c1.8-2.1,4.4-3.4,8.5-3.2c0.1,0,0.2,0,0.3,0c3.9-17.9,13-33.6,22-49.3c1.8-0.4,3.4-1.1,4.7-2.6
			c0-0.6,0.1-1.3,0.2-1.8c5-3.7,10-7.3,15-11c0.6,0,1.1,0.1,1.7,0.2c1.8-0.3,3.3-1.1,4.5-2.4c0.1-0.1,0.2-0.2,0.3-0.4
			c0.2-0.3,0.3-0.6,0.4-0.9c1.4-3.1,1.2-6-0.6-8.8c2.8-1.3,5.6-2.4,8.5-3.4C137.2,0.9,141.3,0.4,145.4,0.2z"/>
		<path class="st9" d="M145.4,0.2c1.5-0.1,3-0.2,4.5-0.2C148.5,0,146.9,0.1,145.4,0.2z"/>
	</g>
</g>
</svg>
