<?xml version="1.0" encoding="utf-8"?>
<!-- Generator: Adobe Illustrator 23.0.3, SVG Export Plug-In . SVG Version: 6.00 Build 0)  -->
<svg version="1.1" id="Layer_1" xmlns="http://www.w3.org/2000/svg" xmlns:xlink="http://www.w3.org/1999/xlink" x="0px" y="0px"
	 viewBox="0 0 117.4 175" style="enable-background:new 0 0 117.4 175;" xml:space="preserve">
<style type="text/css">
	.st0{fill:#BA5E6B;}
	.st1{opacity:0.1;fill:#170E35;enable-background:new    ;}
	.st2{opacity:3.000000e-02;fill:#FFFFFF;enable-background:new    ;}
	.st3{opacity:0.2;fill:#391515;enable-background:new    ;}
	.st4{opacity:4.000000e-02;fill:#FFFFFF;enable-background:new    ;}
	.st5{opacity:7.000000e-02;fill:#FFFFFF;enable-background:new    ;}
	.st6{opacity:2.000000e-02;fill:#121144;enable-background:new    ;}
</style>
<path class="st0" d="M117,150.5c0.1-5.6,0.7-11.2,0-16.8l0,0c0.7-3.1,0.2-6.1,0.1-9.2c0.4-31.2-0.1-62.4-1.1-93.6
	c-0.4-11.8-3.6-15.4-15.4-17.8c-16.9-3.5-33.9-7-50.9-10C43,1.9,36.4-0.6,29.5,0.3c-3.4-1-5.7,1-8,2.8C12.3,7.2,7.7,14.1,8.8,24.3
	l0,0l0,0C8.3,28.2,7.7,32,8,35.9c-0.2,2.6-0.5,5.2-0.7,7.8l0,0l0,0C6.5,51,5.8,58.2,5.9,65.4C4.8,73.6,4.2,81.8,4.2,90
	c-0.5,6-1,12-1.6,18l0,0l0,0c0.1,3.9-1.1,7.7-0.4,11.6l0,0c-1.3,7.3-1.3,14.7-1.6,22.1l0,0l0,0c-0.5,4.6-1.3,9.3,0.8,13.8l0,0
	c1,3,2.9,5.1,5.7,6.6l0,0l0,0l0,0l0,0c0.3,0.1,0.7,0.2,1,0.4l0,0l0,0c5.2,3.8,11.3,3.2,17.1,3.8c23.1,2.6,46.2,5.3,69.3,7.7
	c3.7,0.4,8,1.5,10.9-2.6c3.4-2.5,5.9-5.8,7.9-9.4C115.9,158.6,116.5,154.5,117,150.5L117,150.5z M107.8,118.3
	c0.3,0.7,0.4,1.3-0.2,1.7C107.7,119.4,107.8,118.9,107.8,118.3z M19,108.4c0,0,0-0.1,0-0.1c0,0,0.1,0,0.1,0
	C19,108.3,19,108.3,19,108.4z M15.2,147.8C15.2,147.8,15.2,147.8,15.2,147.8C15.2,147.8,15.2,147.8,15.2,147.8
	C15.2,147.8,15.2,147.8,15.2,147.8z M22.7,146.7C22.7,146.7,22.7,146.7,22.7,146.7C22.7,146.7,22.7,146.7,22.7,146.7
	C22.7,146.7,22.7,146.7,22.7,146.7z"/>
<path class="st1" d="M110.9,158.6c-23.1-2.4-46.2-5-69.3-7.7c-5.8-0.7-12-0.1-17.1-3.8l0,0c-0.3-0.1-0.6-0.2-1-0.4l0,0l0,0l0,0l0,0
	c-2.7-1.5-4.7-3.7-5.6-6.6l0,0c-2.1-4.5-1.3-9.1-0.8-13.8l0,0l0,0c0.4-7.4,0.4-14.8,1.6-22.1l0,0c-0.6-3.9,0.5-7.7,0.4-11.6l0,0l0,0
	c0.5-6,1-12,1.6-18c0-8.2,0.6-16.4,1.7-24.5c-0.1-7.3,0.6-14.5,1.4-21.7l0,0l0,0c0.2-2.6,0.5-5.2,0.7-7.8c-0.3-3.9,0.3-7.8,0.8-11.6
	l0,0l0,0c-0.3-3.2-0.1-6,0.6-8.6c-1.1,0.6-2.1,1.4-3.1,2.2C13.6,6.8,9,13.6,10,23.9l0,0l0,0C9.5,27.7,9,31.6,9.3,35.5
	c-0.2,2.6-0.5,5.2-0.7,7.8l0,0l0,0C7.8,50.5,7,57.7,7.2,65c-1.1,8.2-1.7,16.3-1.7,24.6c-0.5,6-1.1,12-1.6,18l0,0l0,0
	c0.1,3.9-1.1,7.7-0.4,11.6l0,0c-1.3,7.3-1.3,14.7-1.6,22.1l0,0l0,0c-0.5,4.6-1.3,9.3,0.8,13.8l0,0c1,3,3,5.1,5.7,6.6l0,0l0,0l0,0
	l0,0c0.3,0.1,0.6,0.2,1,0.4l0,0c5.2,3.8,11.3,3.2,17.1,3.8c23.1,2.6,46.2,5.3,69.3,7.7c3.7,0.4,8,1.5,10.9-2.6
	c3.4-2.5,5.9-5.8,7.9-9.4c0.6-0.8,1.1-1.6,1.5-2.4C114.3,159.1,112.6,158.8,110.9,158.6z M16.5,147.4
	C16.5,147.4,16.5,147.4,16.5,147.4C16.5,147.4,16.5,147.4,16.5,147.4C16.5,147.4,16.5,147.4,16.5,147.4z"/>
<path class="st2" d="M28.8,0.2C35.8-0.7,42.3,1.8,48.9,3c17,3,34,6.5,50.9,10c11.8,2.4,15,6,15.4,17.8c1.1,31.2,1.6,62.4,1.1,93.6
	c-1.9,2.9-2.7,1.3-3.4-0.8c-1.7-5.4-0.7-10.9-0.1-16.3c0.3-3.3-0.1-5.9-3.2-8.6c0.8,4.4-0.5,7.7-2.8,10.8c-1.4,1.8-1.4,4-0.3,6.1
	c1.3,2.6-0.5,8.9-2.8,10.3c-1,0.6-1.9,0.3-2.8-0.2c-1.4-0.8-2.7-1.9-2.1-3.6c1.4-4.1,1.3-8.2,0.1-12.3c-0.5-1.6,0.7-2.8,1.6-4
	c0.9-1.3,1-2.7-0.6-3.3c-1.7-0.7-1.6,1.1-2,2.1c-1.6,4.4-4.3,5-7.8,1.7c-2.2-2-3-5.2-6.2-6.9c-0.3,2.9,1.1,6.7-2.2,8
	c-3.3,1.3-3.8-3.7-6.6-4.3c-1.3,0.7-0.9,2.1-1.3,3.1c-1.6,3.6-4.7,4-6.8,0.7c-3.1-4.8-5.8-9.7-6.7-15.8c-0.6-4.2-2.8-8.1,0.6-11.7
	c-0.4-0.8-0.8-1-1-0.8c-5.7,3.9-5.7,3.9-11.4-1.1c-3.1-2.7-9.5-3.4-13.1-1.4c-1,0.6-2.1,1-3.1,1.6c-1.9,1.2-5.1-1.3-5.9,1.2
	c-1.1,3.4-3,6.7-2.6,10.5c0.5,5.1-0.3,10-2.1,14.7c-0.8,1.9-1.3,4.3-4.2,4.1c-2.2-6.9-0.1-13.8,0.1-20.6c0.2-7.3,1.5-14.5,1.3-21.8
	c1.4-17.4,2.4-34.8,4.3-52.2C23.6,8.6,24.5,3.6,28.8,0.2z"/>
<path class="st3" d="M107.5,172c-2.9,4-7.2,2.9-10.9,2.6c-23.1-2.4-46.2-5-69.3-7.7c-5.8-0.7-12-0.1-17.1-3.8
	c2.4-2.4,4.8-4.9,6.9-7.5c2.9-3.4,6.6-4.1,10.8-3.5c20.8,2.9,41.6,5.4,62.5,7.2c5.9,0.5,11.9,1.3,17.8,1.5c1.9,0.1,3.9,0.3,4.7,2.2
	c0.8,1.8-0.7,3.1-1.8,4.3C109.8,168.7,108.7,170.4,107.5,172z"/>
<path class="st4" d="M28.3,0.7c-5.7,9.4-4.7,20.2-6.1,30.5c-1.4,10.6-1.5,21.4-2.2,32c-0.1,1.1-0.5,2.3-0.8,3.4
	c0.4,0.9,0,1.6-0.4,2.3c-1.2,2.1-0.8,6.2-3.3,5.9c-3-0.3-6.5-0.8-9.3-2.8c-2.3-1.7,0-4.3-1.4-6.2C4.5,58.6,5.3,51.4,6,44.2
	c1.4-2.5,1.1-5.2,0.7-7.8C6.5,32.5,7,28.6,7.5,24.7c0-9.6,5.1-16.2,12.7-21.2C22.6,1.7,24.9-0.3,28.3,0.7z"/>
<path class="st5" d="M20.3,3.5c-0.5,1.6-0.9,2.9-2.6,3.9c-4.9,2.7-8.9,6.3-8.4,12.8c0.1,1.5-0.4,3.3-1.7,4.6
	C6.5,14.5,11.1,7.7,20.3,3.5z"/>
<path class="st5" d="M6.8,36.4C8,39.1,8.2,41.8,6,44.2C6.3,41.6,6.5,39,6.8,36.4z"/>
<path class="st6" d="M20.4,127.7c0.1-0.3,0.2-0.6,0.3-1c3.7-4.5,6.6-3.4,9.9,0.9c1.7,2.2,4.7,3.9,7.9,2.1c2.3-1.3,3.4,3.8,5.5,1.1
	c1.7-2.2,2.4-1.6,4.1-0.2c1,0.8,3.3,0.5,2.5,2.6c-0.6,1.6-2.5,1.4-3.9,1.5c-0.9,0-1.6-1.3-2.9-0.7c0.3,3.1,1.8,4.4,5,3.7
	c1.4-0.3,3.1-1,3.8,1.1c0.7,2.1-0.7,3.4-2.2,3.8c-2.4,0.7-4.1,2-5.9,3.5c-0.9,0.8-2.2,1.3-3.3,0.7c-3.3-1.8-6.9-1.4-10.4-1.8
	c-5.5-0.7-9.8-2.9-10.5-9.1C18.3,133.1,21.1,130.4,20.4,127.7z"/>
</svg>
