<?xml version="1.0" encoding="utf-8"?>
<!-- Generator: Adobe Illustrator 23.0.3, SVG Export Plug-In . SVG Version: 6.00 Build 0)  -->
<svg version="1.1" id="Layer_1" xmlns="http://www.w3.org/2000/svg" xmlns:xlink="http://www.w3.org/1999/xlink" x="0px" y="0px"
	 viewBox="0 0 816 816" style="enable-background:new 0 0 816 816;" xml:space="preserve">
<style type="text/css">
	.st0{fill:#678993;}
	.st1{opacity:6.000000e-02;}
	.st2{opacity:4.000000e-02;}
	.st3{opacity:2.000000e-02;}
	.st4{opacity:1.000000e-02;}
	.st5{fill:#FFFFFF;}
	.st6{opacity:3.000000e-02;}
</style>
<g>
	<g>
		<g>
			<path class="st0" d="M590.6,43.1C535.7,15.5,473.6,0,408,0c-46.8,0-91.7,7.9-133.5,22.4c-9.3,3.2-18.5,6.8-27.4,10.6
				c-11.3,4.9-22.4,10.2-33.2,16.1C86.5,118.1,0,252.9,0,408c0,225.3,182.7,408,408,408c85.4,0,164.6-26.2,230.1-71.1
				c3.3-2.3,6.6-4.6,9.8-6.9c8.4-6.1,16.6-12.6,24.6-19.4c85.5-72.9,140.6-180.5,143.4-301c0.1-3.2,0.1-6.4,0.1-9.6
				C816,248.3,724.3,110.1,590.6,43.1z"/>
		</g>
		<g class="st1">
			<path d="M36,386c0-140,70.5-263.5,177.9-336.9C86.5,118.1,0,252.9,0,408c0,225.3,182.7,408,408,408c85.4,0,164.6-26.2,230.1-71.1
				C580.4,776.2,514.3,794,444,794C218.7,794,36,611.3,36,386z"/>
		</g>
		<g class="st2">
			<path d="M487,771C261.7,771,79,588.3,79,363c0-135.7,66.2-255.8,168.1-330c-11.3,4.9-22.4,10.2-33.2,16.1
				C106.5,122.5,36,246,36,386c0,225.3,182.7,408,408,408c70.3,0,136.4-17.8,194.1-49.1c3.3-2.3,6.6-4.6,9.8-6.9
				C598.6,759.2,544.2,771,487,771z"/>
		</g>
		<g class="st3">
			<path d="M539,741c-225.3,0-408-182.7-408-408c0-124.4,55.7-235.8,143.5-310.6c-9.3,3.2-18.5,6.8-27.4,10.6
				C145.2,107.2,79,227.3,79,363c0,225.3,182.7,408,408,408c57.2,0,111.6-11.8,160.9-33c8.4-6.1,16.6-12.6,24.6-19.4
				C630.7,733.1,585.8,741,539,741z"/>
		</g>
		<g class="st4">
			<path class="st5" d="M694.7,221C587.7,221,501,139.9,501,40c0-9.4,0.8-18.6,2.2-27.5c-15.3-3.7-31-6.6-47-8.5
				C435.9,32.6,424,67,424,104c0,100,86.7,181,193.7,181c60.5,0,114.6-26,150.1-66.6c-1.6-3-3.2-6-4.9-8.9
				C741.7,216.9,718.7,221,694.7,221z"/>
		</g>
		<g class="st6">
			<path class="st5" d="M694.7,221c24,0,47-4.1,68.2-11.6c-39.9-71-100.4-128.8-173.3-165.4c-27.2-13.6-56.1-24.3-86.4-31.6
				c-1.5,9-2.2,18.2-2.2,27.5C501,139.9,587.7,221,694.7,221z"/>
		</g>
	</g>
	<g class="st6">
		<circle cx="141" cy="142" r="6"/>
		<ellipse cx="165.5" cy="130.5" rx="12.5" ry="5.5"/>
		<circle cx="166.5" cy="155.5" r="7.5"/>
	</g>
	<g class="st6">
		<circle cx="385" cy="769" r="6"/>
		<ellipse cx="409.5" cy="757.5" rx="12.5" ry="5.5"/>
		<circle cx="410.5" cy="782.5" r="7.5"/>
	</g>
	<g class="st6">
		<circle cx="654" cy="211" r="6"/>
		<ellipse cx="678.5" cy="199.5" rx="12.5" ry="5.5"/>
		<circle cx="679.5" cy="224.5" r="7.5"/>
	</g>
	<g class="st6">
		<circle cx="521" cy="109" r="6"/>
		<ellipse cx="545.5" cy="97.5" rx="12.5" ry="5.5"/>
		<circle cx="546.5" cy="122.5" r="7.5"/>
	</g>
	<g class="st6">
		<circle cx="114" cy="473" r="6"/>
		<ellipse cx="138.5" cy="461.5" rx="12.5" ry="5.5"/>
		<circle cx="139.5" cy="486.5" r="7.5"/>
	</g>
	<g class="st6">
		<circle cx="63" cy="354" r="6"/>
		<ellipse cx="87.5" cy="342.5" rx="12.5" ry="5.5"/>
		<circle cx="88.5" cy="367.5" r="7.5"/>
	</g>
	<g class="st6">
		<circle cx="731" cy="358" r="6"/>
		<ellipse cx="755.5" cy="346.5" rx="12.5" ry="5.5"/>
		<circle cx="756.5" cy="371.5" r="7.5"/>
	</g>
	<g class="st6">
		<circle cx="524" cy="750" r="6"/>
		<ellipse cx="548.5" cy="738.5" rx="12.5" ry="5.5"/>
		<circle cx="549.5" cy="763.5" r="7.5"/>
	</g>
	<g class="st6">
		<circle cx="268" cy="718" r="6"/>
		<ellipse cx="292.5" cy="706.5" rx="12.5" ry="5.5"/>
		<circle cx="293.5" cy="731.5" r="7.5"/>
	</g>
	<g class="st6">
		<circle cx="84" cy="588" r="6"/>
		<ellipse cx="108.5" cy="576.5" rx="12.5" ry="5.5"/>
		<circle cx="109.5" cy="601.5" r="7.5"/>
	</g>
	<g class="st6">
		<circle cx="607" cy="517" r="6"/>
		<ellipse cx="631.5" cy="505.5" rx="12.5" ry="5.5"/>
		<circle cx="632.5" cy="530.5" r="7.5"/>
	</g>
	<g class="st6">
		<circle cx="333.9" cy="57.3" r="2.9"/>
		<ellipse cx="345.9" cy="51.7" rx="6.1" ry="2.7"/>
		<circle cx="346.4" cy="63.9" r="3.7"/>
	</g>
	<g class="st6">
		<circle cx="741.9" cy="317.3" r="2.9"/>
		<ellipse cx="753.9" cy="311.7" rx="6.1" ry="2.7"/>
		<circle cx="754.4" cy="323.9" r="3.7"/>
	</g>
	<g class="st6">
		<circle cx="259.9" cy="179.3" r="2.9"/>
		<ellipse cx="271.9" cy="173.7" rx="6.1" ry="2.7"/>
		<circle cx="272.4" cy="185.9" r="3.7"/>
	</g>
	<g class="st6">
		<circle cx="70.9" cy="407.3" r="2.9"/>
		<ellipse cx="82.9" cy="401.7" rx="6.1" ry="2.7"/>
		<circle cx="83.4" cy="413.9" r="3.7"/>
	</g>
	<g class="st6">
		<circle cx="354.9" cy="716.3" r="2.9"/>
		<ellipse cx="366.9" cy="710.7" rx="6.1" ry="2.7"/>
		<circle cx="367.4" cy="722.9" r="3.7"/>
	</g>
	<g class="st6">
		<circle cx="492.9" cy="72.3" r="2.9"/>
		<ellipse cx="504.9" cy="66.7" rx="6.1" ry="2.7"/>
		<circle cx="505.4" cy="78.9" r="3.7"/>
	</g>
</g>
</svg>
