<?xml version="1.0" encoding="utf-8"?>
<!-- Generator: Adobe Illustrator 23.0.3, SVG Export Plug-In . SVG Version: 6.00 Build 0)  -->
<svg version="1.1" id="Layer_1" xmlns="http://www.w3.org/2000/svg" xmlns:xlink="http://www.w3.org/1999/xlink" x="0px" y="0px"
	 viewBox="0 0 388.17 390.21" style="enable-background:new 0 0 388.17 390.21;" xml:space="preserve">
<style type="text/css">
	.st0{fill:#559BD4;}
	.st1{fill:#3853A5;}
	.st2{opacity:0.25;}
	.st3{opacity:0.1;}
	.st4{opacity:0.15;fill:#FFFFFF;}
	.st5{opacity:0.05;}
	.st6{opacity:0.07;fill:#FFFFFF;}
	.st7{opacity:0.05;fill:#FFFFFF;}
	.st8{opacity:0.1;fill:#FFFFFF;}
	.st9{opacity:0.08;}
	.st10{opacity:0.03;fill:#FFFFFF;}
</style>
<g>
	<g>
		<path class="st0" d="M374.44,102.89L180.74,4.59c-10.06-5.11-22.35-2.87-30.12,5.48L8.49,162.72c-4.58,4.92-6.83,11.05-6.92,17.12
			l0,0c0,0.01,0,0.01,0,0.02c-0.04,3.01,0.45,6.01,1.44,8.84c6.97,45.13,3.94,62.66,13.14,71.66l200.01,124.68
			c10.69,5.95,30.34,1.52,37.79-8.52l117.43-164.89c5.45-5.83,16.43-54.01,16.4-81.75C389.66,119.28,384.73,108.11,374.44,102.89z"
			/>
		<path class="st1" d="M171.01,338.71c-0.44-2.84-0.91-5.78-1.44-8.84C169.52,332.88,170.02,335.87,171.01,338.71z"/>
		<path class="st1" d="M169.57,329.85c0,0.01,0,0.01,0,0.02C169.57,329.86,169.57,329.85,169.57,329.85L169.57,329.85z"/>
		<path class="st2" d="M255.55,311.71c-7.67,10.33-21.73,13.42-32.83,7.21L13.9,202.29c-5.63-3.14-9.48-8.05-11.42-13.59
			c6.97,45.13,3.94,62.66,13.14,71.66l200.01,124.68c10.69,5.95,30.34,1.52,37.79-8.52l117.43-164.89
			c5.45-5.83,16.43-54.01,16.4-81.75c-0.67,3.78-2.21,7.5-4.69,10.84L255.55,311.71z"/>
		<path class="st3" d="M380.56,140.72l-4.84,6.52c-3.31,25.62-10.56,54.05-14.66,58.45L243.62,370.58
			c-7.46,10.04-27.11,14.47-37.79,8.52L11.67,258.06c0.58,0.82,1.22,1.59,1.95,2.3l200.01,124.68c10.69,5.95,30.34,1.52,37.79-8.52
			l117.43-164.89c5.45-5.83,16.43-54.01,16.4-81.75C384.58,133.67,383.04,137.38,380.56,140.72z"/>
		<path class="st4" d="M5.05,190.68c6.97,45.13,3.94,62.66,13.14,71.66l5.85,3.65c-6.5-9.17-4.95-26.07-10.32-63.52
			C9.58,199.39,6.65,195.26,5.05,190.68z"/>
		<path class="st5" d="M19.92,209.61l208.82,116.63c11.1,6.2,25.16,3.11,32.83-7.21l122.17-164.47c1.08-8.38,1.74-16.47,1.73-23.31
			c-0.67,3.78-2.21,7.5-4.69,10.84L253.77,313.07c-7.67,10.33-21.73,13.42-32.83,7.21L13.45,204.4
			C15.25,206.42,17.4,208.2,19.92,209.61z"/>
		<path class="st3" d="M222.72,316.86L13.9,200.23c-5.63-3.14-9.48-8.05-11.42-13.59c6.97,45.13,3.94,62.66,13.14,71.66
			l200.01,124.68c8.24,4.59,21.79,3,30.99-2.56c-3.9-10.15-3.34-27.53-8.19-60.62C233.15,320.53,227.65,319.62,222.72,316.86z"/>
		<path class="st6" d="M373.67,207.73c5.4-17.27,11.61-49.7,11.58-70.58c-0.67,3.78-2.21,7.5-4.69,10.84l-46.39,62.46l7.1,3.97
			C352.17,220.51,365.92,217.63,373.67,207.73z"/>
		<path class="st7" d="M252.51,314.76c-2.33,3.13-5.25,5.59-8.49,7.33c-1.39,23.34-8.18,55-13.28,68.12
			c7.89-1.36,15.58-5.17,19.64-10.64l10.13-14.22c-4.64-8.52-4.31-22.99-7.75-50.92L252.51,314.76z"/>
		<path class="st8" d="M23.08,199.4c-4.91-2.74-8.47-6.83-10.58-11.5c-0.1-0.7-0.2-1.38-0.31-2.09c-0.99-2.83-1.48-5.83-1.44-8.84
			c0-0.01,0-0.01,0-0.02l0,0c0.1-6.07,2.34-12.2,6.92-17.12L159.8,7.18c3.11-3.34,6.96-5.69,11.09-6.99
			c-7.93-0.98-16.11,1.84-21.84,7.99L6.93,160.83C2.34,165.76,0.1,171.88,0,177.95l0,0c0,0.01,0,0.01,0,0.02
			c-0.04,3.01,0.45,6.01,1.44,8.84c0.11,0.71,0.21,1.39,0.31,2.09c2.11,4.67,5.67,8.76,10.58,11.5l208.82,116.63
			c6.27,3.5,13.48,4.04,19.95,1.99c-3.16-0.38-6.28-1.36-9.2-2.99L23.08,199.4z"/>
		<path class="st9" d="M373.52,105L179.82,6.71c-6.03-3.06-12.86-3.46-19.03-1.51c2.83,0.35,5.64,1.17,8.28,2.51L362.77,106
			c10.29,5.22,15.22,16.39,13.33,27c0,2.1-0.06,4.32-0.17,6.63c-0.17-0.02-0.35-0.03-0.52-0.03c0.12-2.3,0.18-4.5,0.17-6.6
			c-0.43,2.39-1.2,4.75-2.33,7.01c-1.4,0.61-2.4,1.88-2.35,3.82c0,0,0,0.01-0.01,0.01L243.88,314.83c-3.34,4.5-7.89,7.62-12.88,9.2
			c8.85,1.07,17.98-2.59,23.63-10.2l127.01-170.99c0,0,0-0.01,0.01-0.01c-0.05-1.94,0.96-3.21,2.35-3.82
			c1.14-2.26,1.91-4.62,2.33-7.01c0,2.09-0.06,4.3-0.17,6.6c0.17,0,0.35,0.01,0.52,0.03c0.12-2.31,0.18-4.53,0.17-6.63
			C388.74,121.4,383.81,110.22,373.52,105z"/>
	</g>
	<path class="st5" d="M241.08,41.74c1.26,3.5,5.59,3.86,7.2,7.1c0.52,1.04,2.64,1.68,1.16,3.08c-1.14,1.07-2.4,3.27-4.58,1.69
		c-1.85-1.34-3.97-1.3-6.96-2.02c1.64,2.86,2.66,5.23,4.2,7.2c1.99,2.54,3.57,5.13,4.14,8.37c0.39,2.2,1.89,3.73,3.54,5.26
		c2.3,2.14,2.11,4.94-0.84,5.95c-5.73,1.96-8.59,7.69-14.06,9.91c-1.79,0.73-3.99,1.02-5.24,1.7c-4.67,2.55-10.87,2.24-14.32,6.2
		c-2.8,3.21-4.74,6.45-9.57,6.75c-1.78,0.11-2.33,2.6-2.61,4.45c-0.18,1.2-0.41,2.48-1.79,2.65c-1.56,0.2-2.35-1.07-2.93-2.28
		c-3.33-6.92-3.98-7.12-9.34-1.71c-1.79,1.81-4.26,0.73-5.95,2.09c-2.71,2.19-5.36,4.45-7.94,6.78c-3.47,3.14-7.06,5.16-12.12,3.8
		c-2.79-0.75-5.96-0.85-8.79,0.66c-1.22,0.65-2.38,0.63-3.8,0.42c-3.86-0.58-8-1.66-10.07,3.53c-0.38,0.96-2.12,1.53-3.34,1.97
		c-3.16,1.16-6.17,2.67-9.14,4.04c-3.97,1.84-9.47,0.77-13.71-1.6c-3.42-1.91-6.63-3.73-10.7-3.34c-1.66,0.16-2.93-0.58-3.36-2.32
		c-0.48-1.93-1.69-2.83-3.65-2.52c-1.83,0.29-2.32,1.62-2.41,3.27c-0.06,1.14-0.02,2.58-1.8,2.27c-1.29-0.23-1.18-1.47-1.16-2.43
		c0.03-2.23-0.39-4.57-1.73-6.13c-3.4-4-1.25-6.98,1.2-10.09c0.92-1.17,2.03-2.24,2.73-3.53c0.86-1.57,4.18-3.03,2.02-4.76
		c-2.1-1.69-5.35,0.55-6.32,2.32c-2.8,5.07-7.63,7.24-11.77,10.6c-4.29,3.48-10.02,7.68-11.56,12.43
		c-2.31,7.13-8.71,11.07-10.82,17.9c-0.89,2.86-5.55,3.31-5.33,7.25c0.26,0.12,0.76,0.41,0.78,0.37c3.86-5.75,10.81-4.56,16.11-7.09
		c3.31-1.58,6.92,0.24,10.15,1.12c2.87,0.78,2.72,9.74-0.18,11.62c-3,1.94-2.76,3.19,0.03,4.99c3.21,2.07,6.82,3.94,3.83,9.06
		c-1,1.71-0.26,4.42,2.82,4.71c1.25,0.12,2.53,0.57,2.8,1.75c1.49,6.48,5.04,12.76,2.23,19.73c-1.96,4.87-4.91,6.13-9.32,3.28
		c-3.44-2.22-6.76-0.61-10.1-0.54c-1.76,0.04-2.02,1.63-0.34,2.61c1.8,1.06,3.84,2.73,2.94,4.42c-0.89,1.67-3.71,0.99-5.54,0.4
		c-2.68-0.86-4.23-0.93-5,2.47c-0.55,2.45-3.2,2.36-5.04,1.48c-5.51-2.63-10.78-5.75-16.22-8.51c-2.82-1.43-5.94-3.97-8.51-6.53
		c-1.9-1.89-4.35-3.93-6.97-2.05c-2.37,1.7-0.04,4.29,0.08,6.49c-5.32-0.11-7.16-4.87-10.11-7.92c-2.17-2.24,1.9-3.28,2.07-5.37
		c0.11-1.46,0.78-2.86,0.96-4.32c0.83-6.72,3.35-12.66,7.88-17.71c2.15-2.4,2.83-4.74,0.05-7.13c3.09-5.39,7.88-9.31,12.05-13.74
		c26.64-28.27,53.33-56.49,80.02-84.71c6.04-6.39,12.17-12.69,18.27-19.03c5.79-3.51,10.29-8.3,13.84-14.02c0,0,0.02-0.03,0.02-0.03
		c1.29-0.04,1.94-0.71,1.97-2c0,0,0.02-0.01,0.02-0.01c3.34-0.8,4.97-3.59,6.99-5.94c0,0,0.04-0.04,0.04-0.04
		c1.37,0.04,2.33-0.61,2.92-1.82c0.17-0.26,0.41-0.38,0.72-0.35c2.73-0.84,5.79-0.2,8.32-1.92c1,0.02,1.99,0.04,2.99,0.05
		c0.85,1.21,1.82,1.29,2.9,0.29c0.69,0.15,1.38,0.29,2.07,0.44c4.83,1.62,9.15,4.73,14.43,5.09c0.52,0.22,1.04,0.45,1.56,0.67
		c1.94,2.04,4.12,3.6,7.13,3.47c0.34-0.05,0.64,0.04,0.9,0.26c1.76,2.62,4.55,3.17,7.37,3.62c0.53,0.22,1.07,0.44,1.6,0.66
		c1.47,2.33,3.73,3.18,6.34,3.36c0.28-0.06,0.51,0.02,0.7,0.24c0.95,2.76,3.38,2.47,5.56,2.69c0.47,0.18,0.95,0.37,1.42,0.55
		c1.97,3.1,5.12,3.97,8.47,4.49c0.22-0.11,0.41-0.07,0.56,0.13c0.45,3.75,3.14,3.04,5.59,2.81
		C240.15,41.39,240.62,41.56,241.08,41.74z M130.9,123.71c-0.11-0.78-0.66-1.06-1.35-1.07c-0.81,0-1.23,0.58-0.96,1.24
		c0.2,0.49,0.83,1.02,1.35,1.11C130.79,125.15,130.88,124.37,130.9,123.71z M97.08,95.44c0.66,0.32,1.19,0.75,1.37,0.64
		c0.5-0.31,1.08-0.8,1.21-1.31c0.21-0.89-0.55-1.1-1.18-0.78C97.98,94.22,97.66,94.81,97.08,95.44z"/>
	<path class="st10" d="M272.75,276.88c-1.87-5.47,0.68-9.76,0.33-14.23c-0.4-5.13-1.09-5.5-6.32-5.19
		c-7.24,0.42-14.53,0.16-21.8,0.16c-0.48,0-1.26-0.06-1.41-0.34c-2.43-4.83-8.21-7.16-9.55-12.75c-0.4-1.66-0.79-3.94-2.25-4.21
		c-7.25-1.34-5.21-7.73-6.12-11.9c-0.6-2.77-0.97-3.82-3.57-3.74c-2.64,0.08-4.11-0.95-4.08-3.76c0.02-1.69-0.7-2.93-2.51-3.17
		c-1.72-0.23-3.37-0.14-4.32,1.67c-2.62,5.01-6.56,6.1-11.61,3.95c-2.25-0.96-4.52-0.96-6.81-0.12c-4.79,1.76-9.01-0.88-13.45-1.78
		c-0.3-6.19-10.62-4.14-9.57-11.73c0.24-1.74-1.89-2.93-3.95-3.12c-1.76-0.16-2.7-1.2-2.68-2.98c0.01-1.79,1-2.8,2.74-2.94
		c2.64-0.21,3.23-1.87,3.19-4.14c-0.05-3.29,1.68-4.78,4.92-4.97c1.29-0.07,2.69-0.46,3.78-1.12c1.89-1.14,2.31-3.27,2.08-5.22
		c-0.25-2.1-2.25-1.55-3.65-1.56c-5.05-0.04-9.8-3.52-15.09-1.29c-0.5,0.21-1.79-0.44-2.13-1.03c-1.78-3.07-1.12-6.5-0.62-9.67
		c0.43-2.73,3.13-2.68,5.52-3.15c5.16-1.01,10.87,0.48,15.36-4.1c2.06-2.1,5.79-0.82,8.72-0.7c3.77,0.15,5.7-1.48,6.02-5.02
		c0.3-3.27-1.47-4.63-4.68-5.17c-2.94-0.49-5.6-2.23-9.93-2.43c7.37-3.36,13.51-6.15,19.64-8.96c1.37-0.63,3.14-1.3,2.9-3.04
		c-0.63-4.46,2.64-4.67,5.46-5.32c1.32-0.3,2.95-0.31,3.5-1.58c1.97-4.59,6.43-4.79,10.25-6.02c2.22-0.71,4.24-1.43,6.14-2.96
		c4.09-3.28,8.83-0.77,12.9-0.04c3.73,0.66,7.43,1.12,11.19,1.58c4.2,0.51,7.04,1.94,9.38,6.91c1.77,3.77,3.9,9.94,10.13,11.23
		c2.88,0.6,5.57,2.02,8.66,1.87c0.75-0.04,1.8,0.32,2.27,0.88c5.49,6.53,13.34,5.1,20.4,5.86c3.84,0.42,6.84,0.94,7.89,5.17
		c0.68,2.73,3.48,3.32,5.12,2.75c7.05-2.42,10.03,3.63,14.19,6.66c2.82,2.05,2.4,6.24,2.64,9.66c0.08,1.16-0.02,2.33,0.03,3.5
		c0.06,1.28-0.31,2.83,1.52,3.24c1.48,0.33,2.32-0.62,3.38-1.56c3.61-3.19,7.43-6.15,12.12-9.96c-0.81,4.9-1.56,8.77-4.19,11.08
		c-5.41,4.76-8.08,11.24-11.92,16.98c-1.06,1.58-2.13,3.07-3.76,3.83c-3.49,1.61-6.66,3.15-6.98,7.8c-0.09,1.26-1.35,2.93-3.97,2.79
		c-3.22-0.16-4.53,3.49-6.52,5.5c-1.51,1.52,1.08,2.71,2.03,3.91c2.26,2.85-0.01,4.52-1.98,4.56c-8.11,0.17-11.58,4.79-14.15,11.84
		c-1.2,3.29-1.1,6.79-2.76,9.95c-3.05,5.82-5.09,7.48-11.32,6.24c-3.19-0.63-4.6,0.32-5.84,2.87c-1.58,3.26,0.78,4.87,2.89,5.89
		c2.57,1.24,3.03,2.26,1.05,4.31c-1.37,1.41-3.75,1.12-4.79,3.31C276.03,273.53,274.44,274.85,272.75,276.88z"/>
	<path class="st10" d="M264.61,73.53c-0.23,1.44-1.01,2.36-2.04,1.73c-3.96-2.44-8.53-2.06-12.8-2.85
		c-5.1-0.94-8.18-3.59-10.14-8.28c-1.02-2.46-0.83-4.37,1.31-5.54c2.3-1.27,3.01,0.95,3.91,2.5c3.38,5.83,7.98,9.83,15.15,9.75
		C262.25,70.82,263.73,71.75,264.61,73.53z"/>
	<path class="st10" d="M281.4,86.27c-3.57,0.15-7.44-0.8-6.85-6.86c0.1-1.02-1.07-2.29,0.2-3.12c1.14-0.75,2.71-0.78,3.76,0.03
		c2.6,1.99,5.03,4.2,7.51,6.35c0.72,0.63,0.77,1.47,0.22,2.2C285.3,86.1,284.22,87.11,281.4,86.27z"/>
</g>
</svg>
