<?xml version="1.0" encoding="utf-8"?>
<!-- Generator: Adobe Illustrator 23.0.3, SVG Export Plug-In . SVG Version: 6.00 Build 0)  -->
<svg version="1.1" id="Layer_1" xmlns="http://www.w3.org/2000/svg" xmlns:xlink="http://www.w3.org/1999/xlink" x="0px" y="0px"
	 viewBox="0 0 345.29 315.37" style="enable-background:new 0 0 345.29 315.37;" xml:space="preserve">
<style type="text/css">
	.st0{fill:#E52525;}
	.st1{opacity:0.3;fill:#1E1854;}
	.st2{opacity:0.1;fill:#FFFFFF;}
	.st3{opacity:0.1;fill:#1D1753;}
	.st4{opacity:0.1;}
	.st5{opacity:0.05;fill:#FFFFFF;}
</style>
<g>
	<path class="st0" d="M4.51,279.87l-2.58-4.48C2.62,276.98,3.49,278.48,4.51,279.87z"/>
	<path class="st0" d="M341.11,274.79L201.76,33.43c-1-1.73-2.17-3.27-3.48-4.61c-0.24-0.25-0.45-0.52-0.63-0.82l-8.36-14.47
		c-10.41-18.04-36.45-18.04-46.86,0L26.01,215.18L3.09,254.89c-3.84,6.66-3.9,14.04-1.27,20.24c0.07,0.18,0.16,0.35,0.26,0.51
		l2.3,3.98c0.1,0.17,0.2,0.33,0.32,0.48c0.68,0.89,1.42,1.73,2.22,2.52c0.28,0.27,0.52,0.57,0.71,0.91l10.25,17.76
		c0.07,0.11,0.12,0.23,0.18,0.35c3.42,7.84,11.15,13.73,20.93,13.73h44.88h233.82C338.51,315.37,351.53,292.83,341.11,274.79z
		 M17.51,288.5C17.51,288.5,17.51,288.5,17.51,288.5C17.51,288.5,17.51,288.5,17.51,288.5L17.51,288.5z M21.37,289.07
		c0.49,0.03,0.98,0.05,1.49,0.05C22.35,289.12,21.86,289.1,21.37,289.07z M18.69,288.74c0.08,0.01,0.16,0.03,0.24,0.04
		C18.85,288.77,18.77,288.76,18.69,288.74z M19.98,288.94c0.19,0.02,0.39,0.04,0.59,0.06C20.37,288.98,20.18,288.96,19.98,288.94z"
		/>
	<path class="st1" d="M329.76,255.12c-0.31,0.04-0.61,0.08-0.92,0.12c8.42,15.15-2.52,33.88-19.95,33.88H22.85
		c-1.86,0-3.65-0.23-5.35-0.63c0.01-0.08,0.02-0.16,0.03-0.24c-0.05-0.01-0.1-0.03-0.15-0.04c-3.08-0.9-5.71,2.35-4.1,5.13l4.6,7.97
		c0.05,0.09,0.1,0.19,0.15,0.29c3.42,7.86,11.15,13.76,20.94,13.76H318.9c20.29,0,32.96-21.96,22.82-39.53L329.76,255.12z"/>
	<path class="st2" d="M21.26,287.69c-0.8-0.79-1.55-1.62-2.22-2.52c-0.12-0.15-0.22-0.32-0.32-0.48l-2.3-3.98
		c-0.1-0.17-0.18-0.34-0.26-0.51c-2.62-6.2-2.57-13.59,1.28-20.24l22.93-39.71L156.79,18.59c5.18-8.98,14.23-13.48,23.3-13.52
		c-12.28-7.56-29.61-4.39-37.65,9.52L26.01,216.25L3.09,255.96c-3.84,6.66-3.9,14.04-1.28,20.24c0.07,0.18,0.16,0.35,0.26,0.51
		l2.3,3.98c0.1,0.17,0.2,0.33,0.32,0.48c0.68,0.89,1.42,1.73,2.22,2.52c0.28,0.27,0.52,0.57,0.71,0.91l5.67,9.82
		c-1.61-2.78,1.02-6.03,4.1-5.13c0.05,0.01,0.1,0.03,0.15,0.04c-0.02,0.08-0.02,0.16-0.03,0.24c0,0,0,0,0,0c0,0,0,0,0,0
		c0.39,0.09,0.79,0.17,1.19,0.25c0.43,0.08,0.86,0.14,1.29,0.2c0.46,0.06,0.92,0.1,1.38,0.13c0.49,0.03,0.98,0.05,1.49,0.05h0.04
		l-0.92-1.59C21.78,288.26,21.53,287.96,21.26,287.69z"/>
	<path class="st3" d="M330.09,256.31c0.31-0.04,0.61-0.08,0.92-0.12l-128-221.7c-1-1.73-2.17-3.27-3.48-4.61
		c-0.24-0.25-0.45-0.52-0.63-0.82l-8.36-14.47c-5.23-9.06-14.41-13.57-23.56-13.52c3.64,2.24,6.83,5.4,9.21,9.52l8.36,14.47
		c0.17,0.3,0.39,0.57,0.63,0.82c1.3,1.34,2.48,2.87,3.48,4.61l128,221.7c-0.31,0.04-0.61,0.08-0.92,0.12
		c8.42,15.15-2.52,33.88-19.95,33.88h-286l4.75,8.23c-1.61-2.78,1.02-6.03,4.1-5.13c0.05,0.01,0.1,0.03,0.15,0.04
		c-0.02,0.08-0.02,0.16-0.03,0.24c0,0,0,0,0,0c0,0,0,0,0,0c0.39,0.09,0.79,0.17,1.19,0.25c0.43,0.08,0.86,0.14,1.29,0.2
		c0.46,0.06,0.92,0.1,1.38,0.13c0.49,0.03,0.98,0.05,1.49,0.05h286.03C327.57,290.19,338.51,271.46,330.09,256.31z"/>
	<path class="st4" d="M338.71,274.79l-11.35-19.67c-0.31,0.04-0.61,0.08-0.92,0.12c1.31,2.36,2.15,4.81,2.57,7.26l1.41,2.44
		c10.41,18.04-2.6,40.58-23.43,40.58H73.17H28.29c-0.61,0-1.21-0.02-1.81-0.07c-0.18-0.01-0.36-0.04-0.54-0.06
		c-0.41-0.04-0.82-0.08-1.22-0.14c-0.24-0.04-0.47-0.09-0.7-0.14c-0.33-0.06-0.67-0.12-1-0.19c-0.25-0.06-0.48-0.13-0.72-0.2
		c-0.31-0.08-0.62-0.16-0.92-0.25c-0.23-0.07-0.46-0.16-0.68-0.24c-0.3-0.11-0.61-0.2-0.9-0.32c-0.23-0.09-0.46-0.2-0.69-0.3
		c-0.28-0.12-0.56-0.24-0.83-0.37c-0.23-0.11-0.46-0.25-0.69-0.37c-0.25-0.14-0.51-0.26-0.76-0.41c-0.22-0.13-0.43-0.27-0.65-0.41
		c-0.15-0.1-0.3-0.19-0.46-0.29c0.09,0.2,0.19,0.4,0.28,0.6c0.11,0.24,0.22,0.47,0.34,0.71c0.13,0.24,0.27,0.48,0.41,0.72
		c0.13,0.22,0.25,0.45,0.38,0.67c0.15,0.24,0.31,0.47,0.47,0.71c0.14,0.21,0.27,0.42,0.42,0.63c0.16,0.23,0.34,0.44,0.51,0.66
		c0.16,0.2,0.31,0.41,0.47,0.61c0.18,0.22,0.37,0.42,0.56,0.64c0.17,0.19,0.33,0.39,0.5,0.57c0.2,0.21,0.41,0.4,0.61,0.6
		c0.18,0.18,0.35,0.36,0.54,0.53c0.21,0.19,0.43,0.37,0.64,0.55c0.2,0.17,0.38,0.34,0.59,0.5c0.23,0.18,0.47,0.35,0.7,0.52
		c0.2,0.15,0.4,0.31,0.61,0.45c0.24,0.16,0.49,0.31,0.74,0.47c0.22,0.14,0.42,0.28,0.65,0.41c0.25,0.14,0.51,0.27,0.76,0.41
		c0.23,0.12,0.45,0.25,0.69,0.37c0.27,0.13,0.55,0.25,0.83,0.37c0.23,0.1,0.45,0.21,0.69,0.3c0.29,0.12,0.6,0.21,0.9,0.32
		c0.23,0.08,0.45,0.17,0.68,0.24c0.3,0.09,0.61,0.17,0.92,0.25c0.24,0.06,0.48,0.14,0.72,0.2c0.33,0.08,0.67,0.13,1,0.19
		c0.24,0.04,0.46,0.1,0.7,0.14c0.4,0.06,0.81,0.1,1.22,0.14c0.18,0.02,0.35,0.05,0.54,0.06c0.59,0.05,1.2,0.07,1.81,0.07h44.88
		h233.82C336.11,315.37,349.13,292.83,338.71,274.79z"/>
	<path class="st5" d="M124.52,231.76c-14.49-7.9-31.82-0.65-46.29-8.64c-3.83-7.79-15.54-12.7-8.9-24.32
		c24.42,11.38,56.9,1.07,75.53,28.05c-2.69,3.08-5.38,6.16-8.07,9.23C132.7,234.64,128.61,233.2,124.52,231.76z"/>
	<path class="st5" d="M177.7,47.08c8.63,6.66,13.35,16.92,22.77,23.29c4.5,3.04,9.16,14.98-3.48,13.26
		c-9.51-1.3-8.81,19.32-19.84,6.96c-0.15-3.37,0.88-9.02-0.64-9.81C153.05,68.44,165.71,57.85,177.7,47.08z"/>
	<path class="st5" d="M39.33,261.74c2.69-3.08,5.38-6.15,8.07-9.23c1.73-0.94,3.45-1.88,5.19-2.81c1.86,0.86,4.74,2.96,5.41,2.4
		c15.13-12.67,31.73-2.65,47.58-3.37l0.52,0.52c-6.56,16.3-21.51,10.51-33.43,12.68C61.58,256.41,50.4,270.04,39.33,261.74z"/>
	<path class="st5" d="M184.15,145.81c-3.75-0.33-8.93,1.55-10.15-3.64c-1.1-4.69,3.81-4.32,6.75-5.3
		C183.72,139.15,184.58,142.24,184.15,145.81z"/>
</g>
</svg>
