<?xml version="1.0" encoding="utf-8"?>
<!-- Generator: Adobe Illustrator 23.0.3, SVG Export Plug-In . SVG Version: 6.00 Build 0)  -->
<svg version="1.1" xmlns="http://www.w3.org/2000/svg" xmlns:xlink="http://www.w3.org/1999/xlink" x="0px" y="0px"
	 viewBox="0 0 816 816.18" style="enable-background:new 0 0 816 816.18;" xml:space="preserve">
<style type="text/css">
	.st0{fill:#678993;}
	.st1{fill:#7BC2D7;}
	.st2{opacity:0.03;}
	.st3{opacity:0.16;}
	.st4{opacity:0.1;}
	.st5{opacity:0.05;}
	.st6{fill:#FFFFFF;}
</style>
<g id="Layer_1">
	<path class="st0" d="M739.2,377.91c-31.95,12.66-62.24,7.9-91.3-9.17c-4.87-2.86-9.44-7.01-15.87-5.85
		c-2.77-5-5.54-9.99-8.31-14.99c2.72-7.79,0.7-16.67,9.62-22.92c32.64-22.87,40.95-54.76,30.02-91.88
		c-4.43-15.06,0.6-24.75,12.25-33.23c18.72-13.62,36.41-28.3,53.34-43.76c-37.05-47.13-84.27-85.89-138.36-113
		c-12.29-6.18-24.94-11.74-37.91-16.67c6.39,12.01,11.71,24.5,15.36,37.74c13.47,48.82,6.01,98.96-11.42,146.55
		c-18.65,50.94-51.08,92.93-86.48,133.65c-34.33,39.47-72.05,74.69-112.6,107.3c-4.52,3.64-8.36,8.13-14.85,7.88
		c0.53-18.3,11.68-32.48,19.89-47.33c20.77-37.57,32.49-77.99,45.35-118.65c13.86-43.81,36.44-84.9,55.7-126.96
		c5.2-11.36,8.86-18.9-8.93-22.1c-15.62-2.82-23.31-16.78-20.02-31.51c8.4-37.52,21.32-73.34,37.12-108.03
		C451.02,1.71,429.7,0,408,0c-3.11,0-6.22,0.04-9.31,0.11c-4.9,12.06-14.12,21.81-27.09,29.58c-4.93,2.95-11.08,5.51-13.97,9.98
		c-25.63,39.76-66.81,54.02-108.83,65.81c-37.12,10.41-61.99,31.83-81.2,65.88c-34.76,61.63-62.09,127.79-106.4,183.75
		C43.99,376.86,25.16,397.2,0,408.39c0.04,40.48,5.97,79.58,17,116.49c10.45-15.06,25.57-12.19,40.94-10.51
		c19.38,2.12,24.87,18.11,26.75,34.7c0.81,7.15-6.44,17.53,5.59,19.45c9.98,1.59,17.43-6.16,21.77-15.15
		C143.51,488.12,178.33,424.7,214.58,362c7.79-13.48,19.27-23.42,28.34-35.57c5.35-7.16,10.34-19.39,23.58-14.53
		c13.83,5.07,23.35,14.54,24.92,29.92c0.66,6.46,0.11,13.04,0.11,19.56c-6.92,69.6-27.67,135.35-51.85,200.76
		c-12.68,34.3-32.44,50.95-67.31,59.73c-32.2,8.11-64.38,16.01-96.78,22.74c17.97,25.2,38.73,48.26,61.83,68.75
		c5.35-7.99,9.58-17.3,12.74-27.83c4.52-15.03,14.02-20.41,28.42-21.14c29.14-1.48,57.84-5.24,86.22-10.59
		c16.3-25.59,33.17-50.86,47.21-77.87c9.82-18.89,28.89-30.32,45.48-43.06c9.6-7.38,24.72,3.45,26.91,18.56
		c2.07,14.33-3.06,27.36-9.45,39.59c-7.36,14.08-15.21,27.92-22.91,41.82c8.78-2.49,17.54-5.07,26.3-7.72
		c6.93-2.1,13.98-3.79,20.97-5.66c3.35-0.89,6.95-3.82,10.11-0.84c4.03,3.8,0.91,7.97-0.66,11.87c-10.51,26.23-21,52.47-31.56,78.68
		c-4.9,12.17-8.49,24.85,6.62,31.8c14.37,6.61,25.07,0.11,31.95-13.53c7.48-14.85,13.41-30.52,23.67-43.9
		c10.58-13.79,22.98-18.41,39.89-10.97c16.53,7.27,10.73,20.58,9.41,31.83c-4.3,36.76-12.17,72.66-23.63,107.61
		c20.47-2.87,40.46-7.25,59.83-13.04c22.91-20.78,45.67-41.74,68.95-62.11c15.44-13.51,34.24-20.67,53.87-12.95
		c4.05,1.59,7.57,3.69,10.59,6.19c4.78-3.73,9.51-7.57,14.16-11.52c47.21-40.25,85.15-91.09,110.13-148.84
		c-10.41,14.29-21.94,27.54-38.99,35.69c-1.11-8.56,3.98-15.17,7.15-22.35c7.89-17.87,15.01-36.06,19.01-55.2
		c1.18-5.65,4.22-14.4-3.59-16.97c-6.97-2.3-8.1,6.46-11.13,10.93c-15.73,23.17-26.56,49.53-45.95,70.31
		c-15.5-36.66,14.71-54.94,32.61-76.73c25.85-31.48,51.28-63.18,74.11-96.71c0.01-0.38,0.03-0.76,0.03-1.14c0.1-3.2,0.1-6.4,0.1-9.6
		c0-20.19-1.47-40.03-4.3-59.43c-1.51,0.59-3.01,1.18-4.52,1.78C784.44,359.34,761.93,368.9,739.2,377.91z M303.6,221.38
		c-14.73,0.17-30.07-14.04-30.36-28.13c-0.32-15.59,19.87-36.9,34.93-35.37c16.07,1.64,26.87,11.05,28.47,27.6
		C338.37,203.42,321.29,221.18,303.6,221.38z M514.66,497.35c-16.6,0.04-30.85-15.15-30.73-32.78c0.18-25.96,20.71-50.45,41.84-49.9
		c18.22,0.47,28.03,11.48,27.88,31.3C553.43,476.09,537.34,497.29,514.66,497.35z"/>
	<g>
		<path class="st1" d="M78.24,134.96c0,0-0.53,0.66-0.52,0.66c0.17-0.01,0.32-0.04,0.48-0.05
			C78.21,135.37,78.24,135.18,78.24,134.96z"/>
		<path class="st1" d="M82.76,130.66c0,0-0.41,1.11-0.41,1.11c0.1-0.11,0.2-0.23,0.3-0.34C82.7,131.17,82.74,130.93,82.76,130.66z"
			/>
		<path class="st1" d="M73.53,139.49c0,0-0.16,0.46-0.15,0.46c0.08,0,0.16-0.02,0.24-0.02C73.59,139.78,73.56,139.64,73.53,139.49z"
			/>
		<path class="st1" d="M61.21,355.11c44.31-55.96,71.63-122.12,106.4-183.75c19.2-34.05,44.07-55.46,81.2-65.88
			c42.02-11.79,83.19-26.05,108.83-65.81c2.89-4.48,9.04-7.03,13.97-9.98c12.97-7.77,22.19-17.52,27.09-29.58
			C355.24,1.09,313.52,8.86,274.5,22.4c-9.3,3.2-18.5,6.8-27.4,10.6c-11.3,4.9-22.4,10.2-33.2,16.1C86.5,118.1,0,252.9,0,408
			c0,0.13,0,0.26,0,0.39C25.16,397.2,43.99,376.86,61.21,355.11z"/>
		<path class="st1" d="M741.76,515.45c-17.9,21.8-48.11,40.07-32.61,76.73c19.39-20.78,30.22-47.15,45.95-70.31
			c3.03-4.47,4.16-13.23,11.13-10.93c7.81,2.58,4.77,11.32,3.59,16.97c-4,19.13-11.12,37.32-19.01,55.2
			c-3.17,7.18-8.26,13.79-7.15,22.35c17.05-8.15,28.58-21.41,38.99-35.69c20.12-46.5,31.84-97.48,33.23-151.03
			C793.03,452.27,767.6,483.96,741.76,515.45z"/>
		<path class="st1" d="M479.32,672.59c-16.9-7.44-29.31-2.83-39.89,10.97c-10.26,13.37-16.19,29.05-23.67,43.9
			c-6.87,13.64-17.57,20.14-31.95,13.53c-15.12-6.95-11.53-19.63-6.62-31.8c10.56-26.21,21.06-52.45,31.56-78.68
			c1.56-3.9,4.69-8.08,0.66-11.87c-3.16-2.97-6.76-0.05-10.11,0.84c-7,1.87-14.05,3.56-20.97,5.66c-8.75,2.65-17.51,5.23-26.3,7.72
			c7.7-13.91,15.55-27.74,22.91-41.82c6.39-12.23,11.52-25.26,9.45-39.59c-2.19-15.11-17.3-25.94-26.91-18.56
			c-16.59,12.74-35.66,24.17-45.48,43.06c-14.05,27.01-30.91,52.28-47.21,77.87c-28.38,5.35-57.08,9.11-86.22,10.59
			c-14.39,0.73-23.9,6.11-28.42,21.14c-3.16,10.52-7.39,19.84-12.74,27.83c21.13,18.73,44.21,35.3,68.9,49.37
			c22.35,12.74,46.02,23.43,70.76,31.81C318.18,808.45,362.21,816,408,816c19.38,0,38.44-1.36,57.1-3.98
			c11.46-34.95,19.33-70.85,23.63-107.61C490.05,693.17,495.85,679.86,479.32,672.59z"/>
		<path class="st1" d="M239.68,562.14c24.18-65.41,44.93-131.15,51.85-200.76c0-6.52,0.55-13.11-0.11-19.56
			c-1.57-15.38-11.09-24.85-24.92-29.92c-13.24-4.85-18.23,7.37-23.58,14.53c-9.08,12.15-20.55,22.09-28.34,35.57
			c-36.25,62.7-71.07,126.12-102.53,191.37c-4.34,8.99-11.78,16.74-21.77,15.15c-12.03-1.91-4.78-12.29-5.59-19.45
			c-1.88-16.59-7.36-32.58-26.75-34.7c-15.37-1.68-30.49-4.55-40.94,10.51c12.95,43.37,32.92,83.72,58.6,119.72
			c32.4-6.72,64.58-14.62,96.78-22.74C207.23,613.09,227,596.44,239.68,562.14z"/>
		<path class="st1" d="M407.95,293.57c-12.87,40.66-24.58,81.09-45.35,118.65c-8.22,14.86-19.36,29.03-19.89,47.33
			c6.49,0.25,10.33-4.25,14.85-7.88c40.55-32.61,78.28-67.82,112.6-107.3c35.4-40.71,67.83-82.71,86.48-133.65
			c17.43-47.59,24.89-97.73,11.42-146.55c-3.65-13.24-8.98-25.74-15.36-37.74c-25.8-9.8-52.86-17.05-80.87-21.45
			C456.02,39.66,443.1,75.48,434.7,113c-3.3,14.73,4.39,28.69,20.02,31.51c17.79,3.21,14.14,10.74,8.93,22.1
			C444.39,208.67,421.81,249.76,407.95,293.57z"/>
		<path class="st1" d="M553.65,445.96c0.15-19.82-9.66-30.83-27.88-31.3c-21.13-0.55-41.66,23.94-41.84,49.9
			c-0.12,17.63,14.13,32.83,30.73,32.78C537.34,497.29,553.43,476.09,553.65,445.96z"/>
		<path class="st1" d="M308.17,157.89c-15.07-1.54-35.25,19.77-34.93,35.37c0.29,14.08,15.63,28.3,30.36,28.13
			c17.69-0.2,34.77-17.97,33.04-35.89C335.04,168.94,324.24,159.53,308.17,157.89z"/>
		<path class="st1" d="M593.88,736.87c-23.28,20.37-46.04,41.33-68.95,62.11c40.76-12.18,78.85-30.56,113.17-54.09
			c3.3-2.3,6.6-4.6,9.8-6.9c3.52-2.56,6.99-5.2,10.44-7.88c-3.02-2.51-6.54-4.6-10.59-6.19
			C628.12,716.2,609.33,723.36,593.88,736.87z"/>
		<path class="st1" d="M807.18,350.35c1.51-0.6,3.01-1.19,4.52-1.78c-10.5-71.98-39.79-137.84-82.74-192.47
			c-16.93,15.46-34.62,30.14-53.34,43.76c-11.66,8.48-16.68,18.17-12.25,33.23c10.92,37.12,2.62,69.01-30.02,91.88
			c-8.93,6.25-6.91,15.13-9.62,22.92c2.77,4.99,5.54,9.99,8.31,14.99c6.43-1.17,11,2.98,15.87,5.85
			c29.06,17.07,59.35,21.83,91.3,9.17C761.93,368.9,784.44,359.34,807.18,350.35z"/>
	</g>
	<g>
		<g class="st2">
			<circle cx="147.29" cy="142.18" r="6"/>
			<ellipse cx="171.79" cy="130.68" rx="12.5" ry="5.5"/>
			<circle cx="172.79" cy="155.68" r="7.5"/>
		</g>
		<g class="st2">
			<circle cx="391.29" cy="769.18" r="6"/>
			<ellipse cx="415.79" cy="757.68" rx="12.5" ry="5.5"/>
			<circle cx="416.79" cy="782.68" r="7.5"/>
		</g>
		<g class="st2">
			<circle cx="660.29" cy="211.18" r="6"/>
			<ellipse cx="684.79" cy="199.68" rx="12.5" ry="5.5"/>
			<circle cx="685.79" cy="224.68" r="7.5"/>
		</g>
		<g class="st2">
			<circle cx="527.29" cy="109.18" r="6"/>
			<ellipse cx="551.79" cy="97.68" rx="12.5" ry="5.5"/>
			<circle cx="552.79" cy="122.68" r="7.5"/>
		</g>
		<g class="st2">
			<circle cx="120.29" cy="473.18" r="6"/>
			<ellipse cx="144.79" cy="461.68" rx="12.5" ry="5.5"/>
			<circle cx="145.79" cy="486.68" r="7.5"/>
		</g>
		<g class="st2">
			<circle cx="69.29" cy="354.18" r="6"/>
			<ellipse cx="93.79" cy="342.68" rx="12.5" ry="5.5"/>
			<circle cx="94.79" cy="367.68" r="7.5"/>
		</g>
		<g class="st2">
			<circle cx="737.29" cy="358.18" r="6"/>
			<ellipse cx="761.79" cy="346.68" rx="12.5" ry="5.5"/>
			<circle cx="762.79" cy="371.68" r="7.5"/>
		</g>
		<g class="st2">
			<circle cx="530.29" cy="750.18" r="6"/>
			<ellipse cx="554.79" cy="738.68" rx="12.5" ry="5.5"/>
			<circle cx="555.79" cy="763.68" r="7.5"/>
		</g>
		<g class="st2">
			<circle cx="274.29" cy="718.18" r="6"/>
			<ellipse cx="298.79" cy="706.68" rx="12.5" ry="5.5"/>
			<circle cx="299.79" cy="731.68" r="7.5"/>
		</g>
		<g class="st2">
			<circle cx="90.29" cy="588.18" r="6"/>
			<ellipse cx="114.79" cy="576.68" rx="12.5" ry="5.5"/>
			<circle cx="115.79" cy="601.68" r="7.5"/>
		</g>
		<g class="st2">
			<circle cx="613.29" cy="517.18" r="6"/>
			<ellipse cx="637.79" cy="505.68" rx="12.5" ry="5.5"/>
			<circle cx="638.79" cy="530.68" r="7.5"/>
		</g>
		<g class="st2">
			<circle cx="340.19" cy="57.48" r="2.9"/>
			<ellipse cx="352.19" cy="51.88" rx="6.1" ry="2.7"/>
			<circle cx="352.69" cy="64.08" r="3.7"/>
		</g>
		<g class="st2">
			<circle cx="748.19" cy="317.48" r="2.9"/>
			<ellipse cx="760.19" cy="311.88" rx="6.1" ry="2.7"/>
			<circle cx="760.69" cy="324.08" r="3.7"/>
		</g>
		<g class="st2">
			<circle cx="266.19" cy="179.48" r="2.9"/>
			<ellipse cx="278.19" cy="173.88" rx="6.1" ry="2.7"/>
			<circle cx="278.69" cy="186.08" r="3.7"/>
		</g>
		<g class="st2">
			<circle cx="77.19" cy="407.48" r="2.9"/>
			<ellipse cx="89.19" cy="401.88" rx="6.1" ry="2.7"/>
			<circle cx="89.69" cy="414.08" r="3.7"/>
		</g>
		<g class="st2">
			<circle cx="361.19" cy="716.48" r="2.9"/>
			<ellipse cx="373.19" cy="710.88" rx="6.1" ry="2.7"/>
			<circle cx="373.69" cy="723.08" r="3.7"/>
		</g>
		<g class="st2">
			<circle cx="499.19" cy="72.48" r="2.9"/>
			<ellipse cx="511.19" cy="66.88" rx="6.1" ry="2.7"/>
			<circle cx="511.69" cy="79.08" r="3.7"/>
		</g>
		<g>
			<g class="st3">
				<path d="M42.29,386.18c0-140,70.5-263.5,177.9-336.9c-127.4,69-213.9,203.8-213.9,358.9c0,225.3,182.7,408,408,408
					c85.4,0,164.6-26.2,230.1-71.1c-57.7,31.3-123.8,49.1-194.1,49.1C224.99,794.18,42.29,611.48,42.29,386.18z"/>
			</g>
			<g class="st4">
				<path d="M493.29,771.18c-225.3,0-408-182.7-408-408c0-135.7,66.2-255.8,168.1-330c-11.3,4.9-22.4,10.2-33.2,16.1
					c-107.4,73.4-177.9,196.9-177.9,336.9c0,225.3,182.7,408,408,408c70.3,0,136.4-17.8,194.1-49.1c3.3-2.3,6.6-4.6,9.8-6.9
					C604.89,759.38,550.49,771.18,493.29,771.18z"/>
			</g>
			<g class="st5">
				<path d="M545.29,741.18c-225.3,0-408-182.7-408-408c0-124.4,55.7-235.8,143.5-310.6c-9.3,3.2-18.5,6.8-27.4,10.6
					c-101.9,74.2-168.1,194.3-168.1,330c0,225.3,182.7,408,408,408c57.2,0,111.6-11.8,160.9-33c8.4-6.1,16.6-12.6,24.6-19.4
					C636.99,733.28,592.09,741.18,545.29,741.18z"/>
			</g>
			<g class="st5">
				<path class="st6" d="M700.99,221.18c-107,0-193.7-81.1-193.7-181c0-9.4,0.8-18.6,2.2-27.5c-15.3-3.7-31-6.6-47-8.5
					c-20.3,28.6-32.2,63-32.2,100c0,100,86.7,181,193.7,181c60.5,0,114.6-26,150.1-66.6c-1.6-3-3.2-6-4.9-8.9
					C747.99,217.08,724.99,221.18,700.99,221.18z"/>
			</g>
			<g class="st4">
				<path class="st6" d="M700.99,221.18c24,0,47-4.1,68.2-11.6c-39.9-71-100.4-128.8-173.3-165.4c-27.2-13.6-56.1-24.3-86.4-31.6
					c-1.5,9-2.2,18.2-2.2,27.5C507.29,140.08,593.99,221.18,700.99,221.18z"/>
			</g>
		</g>
	</g>
</g>
<g id="Layer_2">
</g>
</svg>
