<?xml version="1.0" encoding="utf-8"?>
<!-- Generator: Adobe Illustrator 23.0.3, SVG Export Plug-In . SVG Version: 6.00 Build 0)  -->
<svg version="1.1" id="Layer_1" xmlns="http://www.w3.org/2000/svg" xmlns:xlink="http://www.w3.org/1999/xlink" x="0px" y="0px"
	 viewBox="0 0 11.7 10.2" style="enable-background:new 0 0 11.7 10.2;" xml:space="preserve">
<path d="M11.6,4.3L11.6,4.3L11.6,4.3c0-0.2-0.2-0.3-0.5-0.4c-0.1,0-0.2,0-0.4,0c-0.3,0-0.6,0-0.8,0l0,0c-0.5,0-1.1,0-1.8,0.2
	c0.1-0.2,0.1-0.4,0.2-0.6c0.1-0.4,0.3-0.6,0.4-0.8c0.1-0.1,0.1-0.2,0.2-0.3C9,2.2,9,1.9,8.8,1.7C8.7,1.6,8.5,1.4,8.1,1.3
	c-0.7-0.1-1.8,0.2-2.7,1l0,0C5.3,2.2,5.3,2,5.3,1.9c0-0.4,0.1-0.7,0.1-0.9c0-0.1,0.1-0.2,0.1-0.3c0.1-0.4-0.2-0.6-0.3-0.6
	C5,0,4.8,0,4.6,0C4.3,0.1,3.9,0.4,3.7,0.6C3.4,1,3,1.4,2.8,1.8C2.4,2.6,2.3,3.4,2.3,3.7c0,0.5,0,1,0.1,1.6c-0.7-0.2-1.5-0.4-2,0.1
	L0.3,5.5C0.1,5.7,0.1,6.1,0,7c0,0.2,0,0.6,0,0.7S0,7.9,0,8s0,0.1,0,0.2c0,0.3,0.2,0.5,0.4,0.6c0.2,0.1,0.5,0,0.7-0.3l0,0
	c0.2,0.3,0.4,0.6,0.7,0.9c0.6,0.5,1.4,0.8,2.3,0.8c0.3,0,0.6,0,0.9-0.1c1.1-0.3,2.1-1,2.5-2C7.6,8,7.6,7.9,7.6,7.8
	C8,7.5,8.5,7.4,8.9,7.4c0.5,0,1,0,1.3,0.1c0.1,0,0.2,0,0.3,0c0.4,0,0.6-0.2,0.6-0.3c0,0,0,0,0-0.1h0.1h-0.1c0-0.1,0-0.3-0.2-0.5
	c-0.1-0.1-0.2-0.1-0.3-0.2c-0.2-0.1-0.4-0.2-0.6-0.3l0,0C9.8,6,9.6,5.9,9.3,5.8l0,0c0.5-0.3,1.1-0.4,1.5-0.5c0.2,0,0.3-0.1,0.4-0.1
	C11.6,4.8,11.6,4.5,11.6,4.3L11.6,4.3z M4,4.8c0,0.4,0,0.8,0,1c-0.2,0-0.3-0.1-0.5-0.2V5.5C3.3,4.9,3.3,4.3,3.3,3.7
	c0-0.3,0.1-0.9,0.4-1.5C3.8,2,3.9,1.8,4,1.6c0,0.1,0,0.1,0,0.2c0,0.4,0.2,0.9,0.5,1.3C4.2,3.7,4.1,4.2,4,4.8z M1.1,6.1
	c0,0,0.1,0,0.2,0c0.2,0,0.6,0.1,0.8,0.2c0.3,0.1,0.5,0.2,0.8,0.3C3.5,6.8,3.8,6.9,4,6.9S4.5,7,4.8,6.8C5.2,6.5,5.1,6,5,5.7
	c0-0.2-0.1-0.5-0.1-0.8c0.1-1,0.8-1.7,0.9-1.8C6.1,2.8,6.6,2.6,7,2.4c0.1,0,0.1,0,0.2,0C7.1,2.6,7,2.8,6.9,3.1
	C6.8,3.4,6.6,4,6.5,4.7c0,0.2-0.1,0.5-0.1,0.7c0,0.1,0,0.1,0,0.2s0,0.2,0,0.3c0,0.2,0,0.4,0,0.6c0,0.3,0,0.5,0,0.6
	c0,0.3,0,0.3-0.1,0.5C6,8.2,5.3,8.8,4.6,9C3.8,9.2,2.9,9,2.4,8.5C2.2,8.3,2,8,1.9,7.8S1.7,7.5,1.6,7.4C1.4,7.1,1.1,7.1,1,7.1
	C1.1,6.4,1.1,6.2,1.1,6.1z M7.6,5.4c0-0.1,0-0.2,0.1-0.3C7.9,5,8.2,4.9,8.5,4.9C8.2,5,8,5.2,7.6,5.4C7.7,5.4,7.7,5.4,7.6,5.4z
	 M7.5,6.5c0-0.1,0-0.2,0-0.3l0,0c0.2,0,0.3,0,0.5,0c0.1,0,0.3,0,0.4,0.1C8.2,6.3,7.8,6.4,7.5,6.5z"/>
</svg>
