<?xml version="1.0" encoding="utf-8"?>
<!-- Generator: Adobe Illustrator 23.0.3, SVG Export Plug-In . SVG Version: 6.00 Build 0)  -->
<svg version="1.1" id="Layer_1" xmlns="http://www.w3.org/2000/svg" xmlns:xlink="http://www.w3.org/1999/xlink" x="0px" y="0px"
	 viewBox="0 0 10.2 11.3" style="enable-background:new 0 0 10.2 11.3;" xml:space="preserve">
<path d="M10.1,4.6C9.9,4.2,9.5,4.1,9.2,4.2c-0.4,0.2-0.7,0.2-1,0.2C8.1,4.4,8,4.3,7.8,4.2l1.5-1.5l0.1-0.1c0.1,0,0.1-0.1,0.2-0.1
	c0.5-0.5,0.6-1.3,0.3-1.8C9.5,0.1,8.9,0,8.4,0C8.1,0,7.8,0.1,7.6,0.3C7.4,0.4,7.4,0.6,7.3,0.7c-0.1,0-0.1,0.1-0.2,0.2l-0.8,1
	C6.1,1.6,5.9,1.2,5.5,1C4.9,0.7,4.2,0.9,3.8,1.1c-0.3,0.2-0.4,0.7-0.2,1c0.2,0.4,0.6,0.5,1,0.3c0,0,0.2-0.1,0.4,0
	c0,0,0.1,0.3,0.2,0.4c0,0.1,0.1,0.2,0.2,0.4l0,0L0.1,10C0,10.2-0.1,10.3,0,10.5c0,0.2,0,0.4,0.2,0.6c0.1,0.1,0.3,0.2,0.5,0.2
	s0.3-0.1,0.5-0.2L7,5.3c0.3,0.3,0.7,0.5,1.1,0.6C8.3,5.9,8.5,6,8.7,6C9.1,6,9.6,5.9,10,5.6C10.1,5.4,10.3,5,10.1,4.6z M8.2,1.7
	c0.1-0.1,0.1-0.2,0.1-0.3l0,0c0,0,0.1-0.1,0.2-0.1s0.3,0,0.3,0.1c0,0,0,0.1-0.1,0.2L8.6,1.7c-0.1,0-0.1,0.1-0.2,0.1L7,3.2l0,0
	L8.2,1.7z"/>
</svg>
