<?xml version="1.0" encoding="utf-8"?>
<!-- Generator: Adobe Illustrator 23.0.3, SVG Export Plug-In . SVG Version: 6.00 Build 0)  -->
<svg version="1.1" id="Layer_1" xmlns="http://www.w3.org/2000/svg" xmlns:xlink="http://www.w3.org/1999/xlink" x="0px" y="0px"
	 viewBox="0 0 6.9 10.1" style="enable-background:new 0 0 6.9 10.1;" xml:space="preserve">
<path d="M-9.9,3.7c0.2-0.2,0.2-0.5,0-0.8l-2-2.9l0,0l0,0l0,0l0,0l0,0l0,0l0,0l0,0l0,0l0,0l0,0l0,0l0,0l0,0l0,0l0,0l0,0l0,0l0,0l0,0
	l0,0l0,0l0,0l0,0l0,0l0,0l0,0l0,0l0,0l0,0l0,0H-19l0,0l0,0l0,0l0,0l0,0l0,0l0,0l0,0l0,0l0,0l0,0l0,0l0,0l0,0l0,0l0,0l0,0l0,0l0,0
	l0,0l0,0l0,0l0,0l0,0l0,0l0,0l0,0l0,0l-2.5,3l0,0l0,0l0,0l0,0l0,0l0,0l0,0l0,0l0,0l0,0l0,0l0,0l0,0l0,0l0,0l0,0l0,0l0,0l0,0l0,0l0,0
	l0,0l0,0l0,0l0,0l0,0l0,0l0,0l0,0l0,0l0,0l0,0l6,5.5v0.1c0,0.3,0.3,0.6,0.6,0.6s0.6-0.3,0.6-0.6l0,0l5.2-5.4C-10.1,4-10,3.9-9.9,3.7
	z M-11.4,2.9h-3.2l2-1.6L-11.4,2.9z M-16.7,4.1v2.8l-1.6-2.8H-16.7z M-15.5,4.1h1.4l-1.4,2V4.1z M-15.5,2.1v-1h1.2L-15.5,2.1z
	 M-16.7,2.5l-1.6-1.4h1.6V2.5z M-19.7,1.4l1.7,1.5h-2.9L-19.7,1.4z M-19.6,4.1l1.2,2.1l-2.3-2.1H-19.6z M-12.5,4.1h0.6l-2.3,2.4
	L-12.5,4.1z"/>
</svg>
