<?xml version="1.0" encoding="utf-8"?>
<!-- Generator: Adobe Illustrator 23.0.3, SVG Export Plug-In . SVG Version: 6.00 Build 0)  -->
<svg version="1.1" id="Layer_1" xmlns="http://www.w3.org/2000/svg" xmlns:xlink="http://www.w3.org/1999/xlink" x="0px" y="0px"
	 viewBox="0 0 7.4 15.9" style="enable-background:new 0 0 7.4 15.9;" xml:space="preserve">
<path d="M4.3,7.2l0.6,0.3C6.6,8.3,7.4,9.4,7.4,11c0,2.2-1,3.4-3.1,3.6v0.6c0,0.5-0.2,0.7-0.6,0.7c-0.4,0-0.6-0.2-0.6-0.7v-0.6
	c-1-0.1-1.8-0.6-2.3-1.3C0.2,12.6,0,11.8,0,11c0-0.4,0.2-0.7,0.7-0.7c0.4,0,0.7,0.3,0.8,0.8c0.2,1.1,0.7,1.8,1.7,2.1V8L2.4,7.6
	C0.9,6.9,0.2,5.9,0.2,4.5c0-1.2,0.5-2.2,1.5-2.7c0.5-0.2,1-0.4,1.5-0.5V0.7C3.2,0.2,3.4,0,3.8,0c0.4,0,0.6,0.2,0.6,0.7v0.7
	C5.3,1.5,6,1.9,6.5,2.5s0.8,1.2,0.8,1.9c0,0.4-0.2,0.7-0.7,0.7c-0.4,0-0.7-0.2-0.8-0.7C5.6,3.5,5.2,2.9,4.4,2.7L4.3,7.2L4.3,7.2
	L4.3,7.2z M3.1,6.6V2.7C2,2.9,1.5,3.5,1.5,4.6C1.5,5.5,2,6.1,3.1,6.6z M4.3,13.4C5.5,13.1,6,12.4,6,11c0-1-0.6-1.8-1.7-2.3V13.4z"/>
</svg>
