<?xml version="1.0" encoding="utf-8"?>
<!-- Generator: Adobe Illustrator 23.0.3, SVG Export Plug-In . SVG Version: 6.00 Build 0)  -->
<svg version="1.1" id="Layer_1" xmlns="http://www.w3.org/2000/svg" xmlns:xlink="http://www.w3.org/1999/xlink" x="0px" y="0px"
	 viewBox="0 0 6.2 12.8" style="enable-background:new 0 0 6.2 12.8;" xml:space="preserve">
<g>
	<path d="M6.1,1.5C6,0.8,5.6,0.3,5,0.1C4.7,0,4.4-0.1,4.1,0C3.8,0,3.5,0.2,3.2,0.4C3.1,0.4,3.1,0.5,3,0.5C2.8,0.3,2.5,0.1,2.3,0.1
		C2,0,1.7,0,1.4,0.1C1,0.2,0.6,0.4,0.3,0.8C0,1.2-0.1,1.6,0,2.1c0.1,0.4,0.3,0.8,0.6,1.1C1.3,3.9,2,4.5,2.7,5C2.8,5.1,2.9,5.1,3,5.1
		s0.2,0,0.3-0.1s0.2-0.2,0.3-0.2c0.3-0.2,0.6-0.5,0.9-0.7c0.3-0.3,0.7-0.6,1-1C6,2.6,6.2,2.1,6.1,1.5z M4.7,2.5
		c-0.3,0.3-0.7,0.7-1,1L3.6,3.6C3.5,3.7,3.3,3.9,3.1,4L3,4.1c0,0,0,0-0.1-0.1C2.8,3.9,2.6,3.8,2.5,3.6C2,3.2,1.7,2.8,1.3,2.5
		C1.1,2.3,1,2.1,1,1.9c0-0.4,0.1-0.7,0.4-0.8C1.5,1,1.6,1,1.8,1s0.4,0.1,0.6,0.2c0.1,0.1,0.1,0.1,0.2,0.2l0.1,0.1
		C2.8,1.6,2.9,1.7,3,1.7s0.2-0.1,0.3-0.2l0.1-0.1c0.1-0.1,0.1-0.1,0.2-0.2C3.8,1,4.1,0.9,4.4,1c0.3,0.1,0.5,0.3,0.5,0.6
		C5.1,2,5,2.3,4.7,2.5z"/>
	<path d="M3.2,6.7c-1.1,0-1.6,0.5-1.6,1.6c0,1,0.5,1.5,1.5,1.5h0.1h0.1c0.1,0,0.1,0.1,0.1,0.2c0,0.5-0.5,1.1-1.4,1.7
		c-0.2,0.2-0.3,0.3-0.3,0.5c0,0.4,0.2,0.6,0.5,0.6c0.4,0,1-0.4,1.7-1.2c0.7-0.8,1-1.7,1-2.7C5,7.4,4.4,6.7,3.2,6.7z"/>
</g>
</svg>
