<?xml version="1.0" encoding="utf-8"?>
<!-- Generator: Adobe Illustrator 23.0.3, SVG Export Plug-In . SVG Version: 6.00 Build 0)  -->
<svg version="1.1" id="Layer_1" xmlns="http://www.w3.org/2000/svg" xmlns:xlink="http://www.w3.org/1999/xlink" x="0px" y="0px"
	 viewBox="0 0 9 7.5" style="enable-background:new 0 0 9 7.5;" xml:space="preserve">
<path d="M4.5,0.7C4.9,0.3,5.4,0.1,5.9,0C7-0.2,8.1,0.3,8.6,1.3s0.4,2.2-0.3,3C7.9,4.7,7.5,5.1,7.1,5.5C6.6,6,6.2,6.4,5.7,6.9
	C4.9,7.7,4,7.7,3.2,6.9S1.6,5.3,0.8,4.5c-1.1-1-1.1-2.6-0.1-3.7c0.9-1,2.6-1.1,3.7-0.2C4.4,0.7,4.4,0.7,4.5,0.7z M7.5,2.7
	C7.5,2,7,1.5,6.4,1.5S5.3,1.9,5.2,2.6c0,0.5-0.3,0.8-0.8,0.8C4,3.4,3.7,3.1,3.7,2.6s-0.4-0.9-0.9-1s-1,0.1-1.2,0.5s-0.2,1,0.2,1.3
	c0.8,0.8,1.7,1.7,2.5,2.5C4.4,6,4.6,6,4.7,5.9c0.8-0.8,1.7-1.6,2.5-2.5C7.4,3.2,7.5,2.9,7.5,2.7z"/>
</svg>
