<?xml version="1.0" encoding="utf-8"?>
<!-- Generator: Adobe Illustrator 23.0.3, SVG Export Plug-In . SVG Version: 6.00 Build 0)  -->
<svg version="1.1" id="Layer_1" xmlns="http://www.w3.org/2000/svg" xmlns:xlink="http://www.w3.org/1999/xlink" x="0px" y="0px"
	 viewBox="0 0 22.6 22.2" style="enable-background:new 0 0 22.6 22.2;" xml:space="preserve">
<path d="M22.6,20.5c-0.1-0.2-0.3-0.3-0.5-0.3s-0.4,0-0.6,0c-0.5,0-1.1,0.1-1.4-0.2C20,19.9,20,19.8,20,19.6c0-0.2-0.1-0.5-0.3-0.9
	c-0.1-0.1-0.6-0.8-1.5-0.8c-0.3,0-0.5,0.1-0.7,0.2c0.1-0.2,0.1-0.5,0.1-0.9c0-0.2,0-0.7-0.4-1c-0.2-0.2-0.4-0.3-0.6-0.3
	c-0.1,0-0.2-0.1-0.3-0.2c-0.1-0.1-0.2-0.3-0.2-0.5s0.2-0.3,0.4-0.4c0.1,0,0.1-0.1,0.2-0.1c0.2-0.2,0.1-0.4,0.1-0.4
	C16.7,14,16.4,14,16.2,14c-0.3,0-0.8,0-1.1,0.1c-0.5,0.1-0.9,0.4-1.1,0.8c-0.4,0.6-0.2,1.4-0.1,1.8c0.1,0.3,0.2,0.5,0.3,0.7
	c0.1,0.2,0.2,0.3,0.2,0.6c0,0.3,0.1,0.7-0.1,0.9c-0.2,0.3-0.6,0.3-0.9,0.3c-0.2-0.1-0.5-0.4-0.7-0.6c-0.3-0.4-0.6-0.9-0.8-1.7
	c-0.3-0.9-0.4-1.3-0.5-1.9c0-0.5,0.1-0.9,0.2-1.2c0.1-0.4,0.2-0.8,0.1-1.4l0,0c-0.1-0.4-0.2-1.1-0.8-1.5c-0.2-0.1-0.4-0.2-0.5-0.2
	s-0.2-0.1-0.3-0.1c-0.2-0.3-0.1-0.7,0-1s0.3-0.5,0.4-0.5c0,0,0,0.1,0.1,0.1c0.1,0.2,0.2,0.5,0.6,0.7c0.2,0.2,0.3,0.2,0.4,0.3
	c0.1,0,0.1,0,0.2,0.1s0.2,0.3,0.2,0.4c0.1,0.2,0.1,0.4,0.4,0.6c0.2,0.2,0.3,0.2,0.5,0.2c0.1,0,0.2,0.1,0.3,0.2
	c0.2,0.1,0.2,0.2,0.3,0.3c0.1,0.1,0.2,0.2,0.4,0.4c0.1,0.1,0.2,0.1,0.5,0.1c0.1,0,0.3,0.1,0.6,0.1c0.3,0.1,0.6,0.1,0.7,0.1
	s0.4,0,0.6-0.2c0.1-0.3,0-0.5-0.1-0.6c0,0,0-0.1-0.1-0.1c0.1-0.1,0.3-0.1,0.4-0.4c0.2-0.3,0.1-0.9-0.2-1.1c-0.2-0.2-0.5-0.1-1.1,0.2
	c0,0,0,0-0.1,0c-0.2,0.1-0.2,0.1-0.3,0.1l0,0l0,0c0,0-0.1-0.1-0.2-0.2c-0.2-0.1-0.5-0.1-0.7-0.1c0-0.1,0-0.3,0-0.4
	c-0.1-0.3-0.3-0.4-0.8-0.7c-0.2-0.1-0.4-0.2-0.5-0.3c0.4,0.1,0.8,0,1-0.1s0.2-0.2,0.3-0.3c0,0,0,0,0-0.1C14,8.5,14,8.5,14,8.5
	s0,0,0.1,0.1c0.2,0.2,0.4,0.1,0.5,0s0.2-0.2,0.1-0.4c0,0,0,0,0-0.1S14.6,8,14.6,7.9c-0.1-0.2-0.3-0.4-0.5-0.7
	C14,7,13.9,6.9,13.9,6.8L14,6.7c0,0,0.1,0,0.3,0.2c0.1,0.1,0.2,0.2,0.2,0.4c0,0.1,0.1,0.2,0.2,0.4c0.1,0.2,0.4,0.6,0.9,1.1
	c0.3,0.3,0.5,0.5,0.8,0.6c0.6,0.2,1.2,0,1.4-0.1C18,9.2,18,9,18,8.9s0-0.3-0.3-0.3c-0.1,0-0.1,0-0.2-0.1c-0.2,0-0.4-0.1-0.6-0.2
	S16.5,8,16.4,7.8c-0.1-0.1-0.1-0.2,0-0.4c0,0,0-0.1,0-0.2c0.1,0.1,0.1,0.2,0.2,0.3c0.5,0.6,1,0.8,1.4,1c0.3,0.2,0.7,0.3,1.1,0.3
	c0.2,0,0.3,0,0.5-0.1s0.3-0.2,0.3-0.3c0-0.1,0-0.1,0.1-0.1c0.2-0.1,0.6,0,0.8,0.1c0.1,0,0.1,0,0.2,0.1c0.3,0.1,0.4-0.1,0.4-0.2
	s0.1-0.2,0-0.3c0.1,0,0.4,0,0.5-0.2c0-0.1,0.1-0.2,0-0.4c-0.2-0.3-0.7-0.6-1.3-0.7c-0.4,0-0.7,0.1-1,0.2C19.4,7,19.3,7.1,19,7
	c-0.1,0-0.2-0.1-0.7-0.6l0,0c-0.8-0.7-1.3-1.1-1.7-1.2c0.1,0,0.3,0,0.5,0.1c0.7,0.1,1.1,0.4,1.4,0.6c0.1,0,0.1,0.1,0.2,0.1
	c0.3,0.1,0.4,0,0.5-0.1s0.1-0.2,0.1-0.4c-0.1-0.4-0.9-1.6-2.3-2c-0.7-0.2-1.2-0.1-1.6,0s-0.7,0.2-1.1,0c-0.5-0.1-0.7-0.4-1.1-0.8
	c-0.3-0.4-0.8-1-1.8-1.7c-0.8-0.6-1.3-0.9-2.1-1C8.7-0.1,8.1,0,7.5,0.2c-0.5,0.2-1,0.6-1.3,1C6,1.1,5.6,1.6,5.8,2.1
	c0.1,0.3,0.4,0.4,0.6,0.4h0.1c0,0,0,0.1-0.1,0.1C6.3,2.7,6.2,3,6,3.3C5.9,3.4,5.8,3.7,5.9,3.9s0.4,0.2,0.6,0.2
	C6.4,4.3,6.3,4.5,6.4,4.8C6.5,5,6.7,5.2,6.9,5.2c0.3,0.1,0.7,0.1,1,0c0,0.1-0.1,0.2-0.2,0.2C7.6,5.5,7.5,5.5,7.2,5.6
	c-0.2,0-0.6,0.1-1,0.3C5.9,6,5.7,6.1,5.5,6.3C5.1,6.6,4.9,6.8,4.7,7C4.6,7.2,4.4,7.3,4.1,7.6C3.9,7.8,3.7,7.9,3.6,8
	C3.5,8.1,3.3,8.2,3.1,8.5C2.8,8.8,2.6,9,2.5,9.1C2.4,9.3,2.4,9.3,2.3,9.3C2,9.4,1.7,9,1.4,8.8C1.3,8.7,1.1,8.5,1,8.4
	C0.8,8.2,0.6,8.2,0.4,8.3C-0.1,8.6,0,9.6,0.1,10c0,0.2,0.1,0.5,0.2,0.7c0.1,0.1,0.2,0.5,0.5,0.5c0.2,0,0.3-0.1,0.5-0.3
	c0.1-0.1,0.1-0.2,0.1-0.2c0,0.1,0.1,0.2,0.2,0.3c0.3,0.2,0.5,0.1,0.7,0.1c0.2-0.1,0.5-0.2,0.8-0.3c0.1,0,0.2-0.1,0.2-0.1
	c0.7-0.3,1-0.4,1.1-0.4c0.2,0,0.2-0.1,0.4-0.2C5.1,10,5.3,9.8,5.5,9.6c0,0.2,0.1,0.3,0.2,0.4c0.1,0.2,0.3,0.3,0.4,0.4
	s0.1,0.1,0.2,0.2s0,0.3-0.1,0.5c0,0.1-0.1,0.2-0.1,0.3c-0.2,1-0.3,2.1-0.2,3.3c0,0.5,0.1,1.6,0.7,2.9c0.3,0.8,0.7,1.8,1.7,2.6
	c1,0.9,2.2,1,3.6,1.2c1.1,0.2,1.7,0.3,2.6,0c0.4-0.1,0.6-0.2,0.8-0.3c0.3-0.1,0.5-0.2,0.8-0.2s0.4,0.1,0.7,0.3
	c0.2,0.2,0.5,0.4,0.9,0.6c0.1,0.1,0.5,0.2,1,0.3c0.2,0,0.5,0.1,0.7,0.1c0.4,0,0.9-0.1,1.3-0.2c0.7-0.3,1.4-0.8,1.6-1.2
	C22.7,20.7,22.7,20.6,22.6,20.5z M1.8,9.9c-0.1,0-0.3,0-0.5,0.2c-0.1,0.1-0.1,0.2-0.2,0.3c0,0,0,0,0,0.1C1,10.4,1,10.1,0.9,9.9
	c-0.1-0.4,0-0.6,0-0.8C1,9.2,1.1,9.3,1.2,9.4C1.4,9.5,1.6,9.7,1.8,9.9L1.8,9.9z M13.5,7.7c-0.2-0.1-0.5-0.3-0.6-0.5l0,0
	c0.3,0.2,0.6,0.4,0.8,0.6C13.6,7.7,13.6,7.7,13.5,7.7z M15.4,7.1c0-0.1-0.1-0.1-0.1-0.2c0.1,0,0.1,0,0.2,0s0.2,0,0.3,0V7
	c0,0.2,0,0.4,0.1,0.6C15.6,7.4,15.5,7.2,15.4,7.1z M21.6,21c-0.3,0.2-0.6,0.4-0.9,0.5c-1.2,0.4-2.3,0-2.5-0.1
	c-0.4-0.2-0.6-0.3-0.8-0.5c-0.3-0.2-0.5-0.4-1-0.5c-0.1,0-0.1,0-0.2,0c-0.4,0-0.7,0.1-0.9,0.3c-0.2,0.1-0.4,0.2-0.7,0.3
	c-0.7,0.2-1.3,0.1-2.3,0c-1.4-0.2-2.4-0.4-3.3-1.1c-0.8-0.7-1.2-1.5-1.5-2.3c-0.5-1.2-0.6-2.2-0.6-2.7c-0.1-1.2,0.1-2.2,0.2-3.2
	c0,0,0-0.1,0.1-0.1c0.1-0.2,0.2-0.6,0.1-1c-0.1-0.3-0.3-0.4-0.4-0.5S6.7,10,6.7,9.9C6.6,9.7,6.6,9.4,6.6,9.2l0,0
	C6.8,9,6.9,8.8,7,8.7c0.2-0.2,0.2-0.3,0.2-0.4s0-0.2-0.1-0.3C7,7.9,6.9,7.9,6.8,7.9c-0.2,0-0.5,0.4-0.6,0.5S6,8.7,6,8.8
	C5.7,9.1,5.4,9.4,4.9,9.6C4.8,9.7,4.7,9.7,4.6,9.7c-0.2,0.1-0.5,0.1-1.2,0.4c-0.1,0-0.2,0.1-0.2,0.1c-0.4,0.2-0.8,0.3-0.9,0.3
	c0,0-0.1-0.1-0.1-0.2S2.1,10.1,2.1,10c0.2,0.1,0.5,0.2,0.8,0.1s0.4-0.2,0.5-0.4c0.1-0.1,0.3-0.3,0.5-0.6c0.2-0.2,0.4-0.3,0.5-0.4
	s0.3-0.2,0.5-0.5c0.3-0.3,0.5-0.5,0.6-0.6C5.7,7.4,5.9,7.2,6.2,7c0.2-0.1,0.4-0.2,0.6-0.3c0.4-0.2,0.6-0.2,0.9-0.3
	C8,6.3,8.2,6.3,8.5,6.1C8.9,5.7,9.1,5,9,4.7c0-0.2-0.1-0.3-0.2-0.4c-0.1,0-0.3-0.1-0.4,0.1L8.3,4.5c0,0.1-0.1,0.1-0.2,0.2
	S7.8,4.8,7.6,4.8S7.3,4.7,7.3,4.7s0-0.1,0.1-0.2c0.1-0.2,0.2-0.5,0-0.7C7.3,3.6,7.1,3.6,6.9,3.6C7,3.4,7.1,3.2,7.2,3.1
	c0.1-0.2,0.2-0.4,0.2-0.6l0,0C7.3,2.2,7,2.1,6.8,2C6.7,2,6.6,1.9,6.6,1.9S6.5,1.8,6.8,1.4c0.5-0.7,1.5-1.1,2.5-0.9
	c0.6,0.1,1,0.3,1.8,0.9C12,2,12.4,2.6,12.7,3c0.4,0.5,0.7,0.9,1.4,1.1c0.6,0.2,1.1,0.1,1.5,0s0.7-0.2,1.3,0c0.4,0.1,0.8,0.4,1,0.6
	c-0.2-0.1-0.4-0.1-0.6-0.1c-0.1,0-0.4-0.1-0.8-0.1c-0.5,0-0.8,0.2-1.1,0.4c-0.2,0.2-0.3,0.5-0.1,0.8c0.1,0.1,0.2,0.2,0.4,0.2
	c0.1,0,0.2,0,0.3-0.1c0.1,0,0.2-0.1,0.3-0.1c0.2,0,0.8,0.5,1.6,1.1l0,0c0.7,0.6,0.8,0.6,1,0.7c0.4,0.1,0.7,0,0.9-0.2
	c0.1,0,0.1,0,0.2-0.1l0,0c0,0.1,0,0.1,0,0.2c-0.1,0-0.3,0.1-0.4,0.1c-0.2,0.1-0.2,0.2-0.3,0.3c0,0.1,0,0.1-0.1,0.1
	c-0.2,0.1-0.6-0.1-1-0.2c-0.4-0.2-0.8-0.4-1.2-0.8c-0.1-0.1-0.1-0.2-0.2-0.2c-0.1-0.2-0.3-0.4-0.5-0.5c-0.4-0.3-0.8-0.3-1.1-0.1
	c-0.2,0.1-0.3,0.2-0.4,0.4c0,0,0,0-0.1-0.1c-0.2-0.2-0.5-0.5-1-0.4c-0.2,0.1-0.5,0.3-0.5,0.6c0,0.1,0,0.1,0,0.2l0,0
	c-0.3-0.2-0.4-0.3-0.6-0.3c-0.2-0.1-0.4,0-0.5,0.1S11.9,6.9,12,7.2v0.1c-0.1-0.1-0.2-0.1-0.3-0.2c-0.4-0.1-0.9,0-1,0.4
	c-0.1,0.2,0.1,0.4,0.1,0.5c0.1,0.1,0.2,0.2,0.3,0.3l0.1,0.1c0.3,0.3,0.4,0.4,0.5,0.5s0.1,0.1,0.2,0.2s0.2,0.1,0.4,0.2
	c0.1,0.1,0.3,0.2,0.6,0.3c0.2,0.1,0.4,0.2,0.5,0.3l0,0c0,0,0,0.1,0,0.2s-0.1,0.4,0.1,0.6s0.4,0.2,0.6,0.1c0.2,0,0.3,0,0.3,0
	s0,0,0.1,0.1s0.2,0.2,0.3,0.2c0.2,0.1,0.4,0,0.7-0.1c0,0,0,0,0.1,0c0.2-0.1,0.5-0.2,0.6-0.2c0,0.1,0,0.1,0,0.2c0,0,0,0-0.1,0.1
	s-0.3,0.1-0.4,0.4c0,0.2,0,0.3,0,0.4c-0.1,0-0.3-0.1-0.4-0.1c-0.3-0.1-0.5-0.1-0.6-0.1c-0.2,0-0.3-0.1-0.3-0.1
	c-0.1-0.1-0.2-0.1-0.2-0.2c-0.1-0.1-0.2-0.2-0.5-0.4c-0.2-0.2-0.4-0.2-0.5-0.2s-0.1,0-0.2-0.1s-0.2-0.2-0.2-0.3
	c-0.1-0.2-0.2-0.4-0.4-0.6c-0.2-0.2-0.3-0.2-0.4-0.3c-0.1,0-0.1-0.1-0.2-0.2c-0.2-0.2-0.3-0.4-0.4-0.5c-0.1-0.2-0.2-0.4-0.5-0.5
	c-0.6-0.1-1.1,0.8-1.1,0.9c-0.2,0.5-0.3,1.2,0.1,1.7c0.2,0.2,0.4,0.3,0.6,0.4c0.1,0,0.2,0.1,0.3,0.1c0.4,0.3,0.5,0.8,0.5,1.1l0,0
	c0.1,0.5,0,0.8-0.1,1.1C11.1,13.9,11,14.3,11,15c0,0.7,0.2,1.2,0.5,2.1c0.3,0.8,0.5,1.4,0.9,1.9c0.5,0.7,0.8,0.8,1,0.9
	c0.1,0,0.2,0,0.4,0c0.5,0,0.9-0.2,1.2-0.5c0.4-0.5,0.3-1,0.2-1.4c-0.1-0.4-0.2-0.6-0.3-0.9c-0.1-0.2-0.2-0.3-0.2-0.6
	c-0.1-0.3-0.2-0.9,0-1.3c0.2-0.3,0.7-0.5,0.9-0.5c0.1,0,0.2,0,0.3,0c-0.1,0.1-0.2,0.3-0.3,0.5c-0.1,0.4,0.1,0.8,0.3,1
	c0.2,0.2,0.4,0.3,0.6,0.4c0.1,0,0.2,0.1,0.3,0.2C17,17,17,17.3,17,17.4c0,0.4-0.1,0.8-0.3,1c0,0.1-0.1,0.2-0.1,0.3
	c-0.1,0.3,0,0.4,0.1,0.5s0.2,0.2,0.5,0c0.1,0,0.1-0.1,0.2-0.1c0.2-0.1,0.5-0.3,0.8-0.3l0,0c0.5,0,1,0.6,1,0.6
	c0.2,0.2,0.2,0.4,0.2,0.6s0.1,0.5,0.3,0.7c0.5,0.6,1.3,0.5,1.9,0.5c0.1,0,0.2,0,0.3,0C21.9,20.9,21.8,20.9,21.6,21z M12.7,8
	C12.7,7.9,12.7,7.9,12.7,8C12.7,7.9,12.7,7.9,12.7,8z M11.9,7.9L11.9,7.9c-0.2-0.2-0.2-0.2-0.2-0.2l-0.1-0.1h0.1
	C11.7,7.6,11.8,7.7,11.9,7.9L11.9,7.9z"/>
</svg>
