<?xml version="1.0" encoding="utf-8"?>
<!-- Generator: Adobe Illustrator 23.0.3, SVG Export Plug-In . SVG Version: 6.00 Build 0)  -->
<svg version="1.1" id="Layer_1" xmlns="http://www.w3.org/2000/svg" xmlns:xlink="http://www.w3.org/1999/xlink" x="0px" y="0px"
	 viewBox="0 0 18.8 12.7" style="enable-background:new 0 0 18.8 12.7;" xml:space="preserve">
<g>
	<path d="M18.7,10.8l-6.6-9.9c-0.1-0.2-0.4-0.2-0.5-0.1S11.4,1,11.4,1.2L8.7,6.1L5.3,0.2C5.2,0,5-0.1,4.8,0.1c0,0,0,0-0.1,0
		S4.5,0.2,4.5,0.3L0,12.2c-0.1,0.2,0,0.4,0.2,0.5h0.1c0.2,0,0.3-0.1,0.4-0.3l1.7-4.6l1.5-0.9l1,1.3c0,0.2,0.1,0.3,0.2,0.4h0.1
		c0.2,0,0.3-0.1,0.4-0.2l0.6-1.5l0.9,1.2l0.1,0.1c0,0.1,0.1,0.2,0.2,0.3c0.1,0,0.1,0.1,0.2,0.1s0.3-0.1,0.3-0.2l0.6-0.9l2,3.5
		c0.1,0.1,0.2,0.2,0.3,0.2s0.1,0,0.2-0.1c0.2-0.1,0.3-0.3,0.1-0.5l-2-3.7l0.8-1.4l0.9,1.2l0,0c0,0.2,0.1,0.3,0.2,0.4
		c0.1,0,0.1,0,0.2,0c0.2,0,0.3-0.1,0.4-0.2l0.5-1.3l0.7,1.1l0,0l0,0l0,0l0,0l0,0l0,0l0,0l0,0l0,0l0,0l0,0l0,0l0,0l0,0l0,0l0,0l0,0
		l0,0l0,0l0,0l0,0l0,0l0,0l0,0l0,0l0,0l0,0l0,0l0,0l0,0l0,0l0,0l0,0l0,0l0,0l0,0l0,0l0,0l0,0l0,0l0,0l0,0l0,0l0,0l0,0l0,0l0.6-1
		c0,0,0-0.1,0.1-0.1l3.9,5.7c0.1,0.1,0.2,0.2,0.3,0.2s0.2,0,0.2-0.1C18.8,11.2,18.9,11,18.7,10.8z M7.6,7.5L6.4,5.9l0,0l0,0l0,0l0,0
		l0,0l0,0l0,0l0,0l0,0l0,0l0,0l0,0l0,0l0,0l0,0l0,0l0,0l0,0l0,0l0,0l0,0l0,0l0,0l0,0l0,0l0,0l0,0l0,0l0,0l0,0l0,0l0,0l0,0l0,0l0,0
		l0,0l0,0l0,0l0,0l0,0l0,0l0,0l0,0l0,0l0,0l0,0L5.8,7.3L5,6.2V6.1C4.9,5.9,4.6,5.9,4.5,6L3.6,6.6l2.1-5.5l3.2,5.5L7.6,7.5z
		 M13.5,5.2l-0.3,0.5l-0.8-1.2c-0.1-0.2-0.4-0.2-0.5-0.1s-0.2,0.3-0.2,0.4l0,0l-0.4,1l-0.7-0.9c-0.1-0.1-0.1-0.1-0.2-0.2L11.3,3
		l0.4,0.5c0.1,0.1,0.2,0.2,0.3,0.2s0.2,0,0.2-0.1c0.2-0.1,0.2-0.4,0.1-0.6l-0.6-0.8l0,0l0.2-0.4L14,4.9C13.8,5,13.6,5.1,13.5,5.2z"
		/>
	<path d="M14.5,7.3C14.4,7.1,14.2,7,14,7.2c-0.2,0.1-0.3,0.3-0.1,0.5l1.4,2.5c0.1,0.1,0.2,0.2,0.3,0.2s0.1,0,0.2-0.1
		c0.2-0.1,0.3-0.3,0.1-0.5L14.5,7.3z"/>
	<path d="M4.6,3.1L3.8,5C3.7,5.2,3.8,5.4,4,5.5c0.1,0,0.1,0,0.2,0c0.2,0,0.3-0.1,0.4-0.2l0.8-1.9c0.1-0.2,0-0.4-0.2-0.5
		C5,2.8,4.7,2.9,4.6,3.1z"/>
	<path d="M3.3,7.8C3.1,7.7,2.9,7.8,2.8,8L2,10.1c-0.1,0.2,0,0.4,0.2,0.5h0.1c0.2,0,0.3-0.1,0.4-0.3l0.8-2.1C3.6,8.1,3.5,7.9,3.3,7.8
		z"/>
</g>
</svg>
