<?xml version="1.0" encoding="utf-8"?>
<!-- Generator: Adobe Illustrator 23.0.3, SVG Export Plug-In . SVG Version: 6.00 Build 0)  -->
<svg version="1.1" id="Layer_1" xmlns="http://www.w3.org/2000/svg" xmlns:xlink="http://www.w3.org/1999/xlink" x="0px" y="0px"
	 viewBox="0 0 6.9 13.2" style="enable-background:new 0 0 6.9 13.2;" xml:space="preserve">
<path d="M3.4,9.9c-0.5,0-0.7-0.3-0.7-0.8V8.8c0-0.9,0.1-1.6,0.4-2.1c0.2-0.5,0.8-1.2,1.6-2C5.2,4.1,5.5,3.6,5.5,3
	c0-1.1-0.6-1.6-1.9-1.6c-1,0-1.7,0.6-2,1.7C1.5,3.6,1.2,3.8,0.7,3.8S0,3.6,0,3.1C0,2.3,0.3,1.6,1,1c0.7-0.7,1.5-1,2.6-1s2,0.3,2.6,1
	c0.5,0.6,0.7,1.2,0.7,2c0,0.7-0.2,1.3-0.7,1.8L4.7,6.3C4.2,6.9,4,7.6,4,8.6v0.5C4.2,9.6,3.9,9.9,3.4,9.9z M3.5,10.9
	c0.3,0,0.6,0.1,0.8,0.4c0.2,0.2,0.3,0.5,0.3,0.8s-0.1,0.6-0.3,0.8c-0.2,0.2-0.5,0.3-0.8,0.3c-0.8,0-1.1-0.4-1.1-1.2
	c0-0.3,0.1-0.6,0.3-0.8C2.9,11,3.2,10.9,3.5,10.9z"/>
</svg>
