<?xml version="1.0" encoding="utf-8"?>
<!-- Generator: Adobe Illustrator 23.0.3, SVG Export Plug-In . SVG Version: 6.00 Build 0)  -->
<svg version="1.1" id="Layer_1" xmlns="http://www.w3.org/2000/svg" xmlns:xlink="http://www.w3.org/1999/xlink" x="0px" y="0px"
	 viewBox="0 0 7.5 7.5" style="enable-background:new 0 0 7.5 7.5;" xml:space="preserve">
<g>
	<path d="M7.5,3.4c0,0.2,0,0.3,0,0.5c0,0.1,0,0.1,0,0.2C7.4,4.8,7.2,5.3,6.8,5.9C6.2,6.7,5.4,7.2,4.4,7.4c-0.1,0-0.3,0-0.4,0.1
		c-0.2,0-0.3,0-0.5,0c0,0,0,0-0.1,0c-0.9-0.1-1.6-0.4-2.2-1C0.3,5.7-0.1,4.6,0,3.4c0.1-0.9,0.4-1.6,1-2.2c1-1,2.1-1.4,3.5-1.1
		c1.5,0.3,2.7,1.5,2.9,3C7.4,3.1,7.5,3.2,7.5,3.4z M6.9,3.6c0-1.8-1.4-3.2-3.2-3.2S0.5,1.8,0.5,3.6s1.4,3.2,3.2,3.2S6.9,5.4,6.9,3.6
		z"/>
	<path d="M3.7,6.3c-1.2,0-2.2-0.8-2.5-1.9c0-0.1,0-0.2,0.1-0.3S1.5,4,1.6,4s0.2,0.1,0.2,0.2c0.1,0.4,0.3,0.7,0.6,0.9
		C3.1,5.7,4.2,5.8,5,5.3C5.4,5,5.7,4.6,5.8,4.2C5.9,4,6,3.9,6.2,4c0.1,0.1,0.2,0.2,0.1,0.3c-0.2,0.5-0.5,1-0.9,1.3
		C4.8,6.1,4.3,6.3,3.7,6.3z"/>
	<path d="M2.9,2.2c0.2,0,0.4,0.3,0.4,0.7S3.1,3.6,2.9,3.6S2.5,3.3,2.5,2.9S2.7,2.2,2.9,2.2z"/>
	<path d="M4.6,2.2C4.8,2.2,5,2.5,5,2.9S4.8,3.6,4.6,3.6S4.2,3.3,4.2,2.9S4.4,2.2,4.6,2.2z"/>
</g>
</svg>
