<?xml version="1.0" encoding="utf-8"?>
<!-- Generator: Adobe Illustrator 23.0.3, SVG Export Plug-In . SVG Version: 6.00 Build 0)  -->
<svg version="1.1" id="Layer_1" xmlns="http://www.w3.org/2000/svg" xmlns:xlink="http://www.w3.org/1999/xlink" x="0px" y="0px"
	 viewBox="0 0 8.1 7.9" style="enable-background:new 0 0 8.1 7.9;" xml:space="preserve">
<path d="M4.1,1.6C4,1.7,4,1.7,4,1.7C3.7,2.1,3.4,2.3,3.1,2.6v0.1C3.2,3,3.2,3.4,3.3,3.7c0,0.1,0,0.2,0.1,0.2C3.4,4,3.3,4.1,3.2,4
	C3.2,4,3.1,4,3.1,3.9c-0.3-0.2-0.7-0.4-1-0.5H2C1.7,3.6,1.3,3.8,1,4C0.9,4,0.9,4,0.9,4C0.8,4,0.7,4,0.7,3.9c0-0.1,0-0.2,0.1-0.2
	C0.8,3.4,0.9,3,1,2.7c0-0.1,0-0.1,0-0.1C0.7,2.3,0.4,2.1,0.1,1.7C0.1,1.7,0.1,1.6,0,1.6V1.6c0.1-0.1,0.1-0.1,0.2-0.1
	C0.4,1.4,0.7,1.4,1,1.4c0.2,0,0.3-0.1,0.5-0.1c0,0,0.1,0,0.1-0.1C1.7,0.9,1.8,0.6,2,0.2c0-0.1,0.1-0.1,0.1-0.1C2.1,0,2.2,0,2.2,0.1
	c0,0,0.1,0.1,0.1,0.1c0.2,0.4,0.4,0.7,0.6,1.1c0,0.1,0.1,0.1,0.1,0.1c0.4,0.1,0.8,0.1,1.2,0.2C4,1.5,4.1,1.5,4.1,1.6L4.1,1.6z
	 M3.5,1.8L3.5,1.8c-0.4-0.1-0.7-0.1-1-0.2c-0.1,0-0.1,0-0.1-0.1C2.3,1.3,2.1,1,2,0.7V0.7v0.1C1.8,1,1.7,1.3,1.5,1.6L1.5,1.6
	C1.2,1.7,0.9,1.7,0.6,1.7c-0.1,0-0.1,0-0.2,0.1l0.1,0.1c0.3,0.3,0.5,0.5,0.7,0.7c0,0,0.1,0.1,0,0.1C1.1,2.9,1.1,3.1,1,3.4
	C1,3.5,1,3.5,1,3.6C1,3.6,1,3.6,1,3.6c0.3-0.2,0.6-0.3,0.9-0.5c0.1,0,0.1,0,0.1,0c0.3,0.2,0.6,0.3,0.9,0.5h0.1l0,0
	c-0.1-0.4-0.1-0.7-0.2-1c0-0.1,0-0.1,0-0.1C3,2.3,3.3,2.1,3.5,1.8L3.5,1.8z"/>
</svg>
