<?xml version="1.0" encoding="utf-8"?>
<!-- Generator: Adobe Illustrator 23.0.3, SVG Export Plug-In . SVG Version: 6.00 Build 0)  -->
<svg version="1.1" id="Layer_1" xmlns="http://www.w3.org/2000/svg" xmlns:xlink="http://www.w3.org/1999/xlink" x="0px" y="0px"
	 viewBox="0 0 13.7 22.6" style="enable-background:new 0 0 13.7 22.6;" xml:space="preserve">
<g>
	<path d="M13.2,15c-0.1-0.1-0.1-0.1-0.2-0.1c-0.1-0.1-0.2-0.1-0.3-0.3c-0.1-0.1-0.1-0.2-0.1-0.4c0-0.1,0.1-0.2,0.1-0.2
		c0.1-0.1,0.1-0.2,0.2-0.4c0-0.2,0-0.4-0.4-1c-0.3-0.5-0.6-0.8-0.8-1c-0.4-0.4-0.5-0.5-0.7-0.6c-0.1-0.1-0.1-0.1-0.2-0.2
		c-0.2-0.3-0.4-0.7-0.4-1.1s0-0.7,0.2-1c0.2-0.3,0.5-0.4,0.8-0.5c0.1,0,0.2-0.1,0.2-0.1c0.2-0.1,0.2-0.3,0.2-0.3
		c0-0.2-0.3-0.3-0.4-0.3c-0.1,0-0.1,0-0.2,0c0.1-0.1,0.2-0.1,0.3-0.2c0.2-0.1,0.3-0.3,0.4-0.4C12,6.8,12.2,6.6,12,6.3
		c-0.1-0.1-0.1-0.1-0.2-0.1c0.1-0.1,0.2-0.3,0.1-0.4c-0.1-0.2-0.2-0.2-0.4-0.2c0.1,0,0.2-0.1,0.2-0.1l0.1-0.1
		c0.1-0.1,0.1-0.2,0.1-0.3c0,0-0.1-0.2-0.2-0.2c0,0-0.1,0-0.2,0h-0.1l0,0c0.1,0,0.1-0.1,0.1-0.1c0.1-0.1,0.1-0.2,0.1-0.3
		c0-0.1-0.1-0.2-0.2-0.2h-0.1c-0.1,0-0.2,0-0.3,0h-0.1c0.1-0.1,0.2-0.1,0.2-0.2C11.2,4,11.3,4,11.3,3.9l0.1-0.1c0.1-0.1,0-0.2,0-0.3
		c0,0-0.1-0.1-0.3-0.1H11c-0.1,0-0.2,0.1-0.3,0.1c-0.1,0-0.2,0.1-0.3,0.1c0.1-0.1,0.1-0.2,0.2-0.3c0.1-0.1,0.1-0.2,0.2-0.2
		c0,0,0-0.1,0.1-0.1c0.1-0.2,0-0.3-0.1-0.3c0,0-0.1-0.1-0.3,0c0,0-0.1,0-0.1,0.1c-0.1,0-0.1,0.1-0.2,0.2C10.1,3.1,10,3.2,9.9,3.2
		C9.9,3.1,10,3,10,2.9c0-0.1,0-0.2,0.1-0.2V2.6c0-0.1-0.1-0.2-0.2-0.2c-0.1,0-0.2-0.1-0.3,0.1c0,0-0.1,0.1-0.1,0.2c0,0,0,0,0,0.1
		C9.4,2.5,9.1,2.2,8.9,2.1c-0.2-0.1-0.3,0-0.4,0C8.4,2.2,8.3,2.3,8.3,2.5c0,0.1,0,0.2,0,0.3C8.2,2.7,8.2,2.7,8.1,2.6
		c-0.2-0.3-0.5-0.7-0.9-1C6.8,1.2,6.4,0.8,5.9,0.5C5.4,0.2,5.1,0,4.9,0l0,0C4.8,0,4.7,0,4.7,0.1l0,0c0,0-0.1,0.1-0.1,0.3
		c0,0.4,0.7,1.3,0.9,1.6c0.2,0.3,0.9,1.2,1.4,1.5l0,0c0,0,0.1,0,0.1,0.1c0,0,0,0.1,0,0.3C6.9,4.1,6.7,4.3,6.5,4.4
		c-0.1,0-0.1,0-0.2,0S6,4.4,5.7,4.5C5.5,4.6,5.3,4.6,5.2,4.8C4.9,5.1,4.9,5.4,4.9,5.5c0,0.3,0.2,0.5,0.3,0.6s0.3,0.4,0.7,0.4
		c0.3,0,0.6-0.1,0.8-0.3c0,0,0,0,0.1,0c0.2,0.1,0.6,0.1,0.8,0c0,0,0,0,0,0.1C7.5,6.5,7.4,6.7,7.2,6.9C7.1,7,7.1,7.1,6.8,7.3
		c0,0-0.1,0.1-0.2,0.2l0,0C6.2,7.8,6.1,8,6,8C5.8,8.2,5.7,8.3,5.6,8.4C5.5,8.6,5.4,8.6,5.4,8.6c-0.1,0-0.1,0-0.2,0S4.9,8.5,4.7,8.5
		c-0.5-0.1-0.8-0.1-1.5,0c-0.2,0-0.4,0-0.6,0.2C2.2,8.6,1.9,8.5,1.5,8.5c-0.4,0-0.6,0.1-1,0.2C0.3,8.8,0.2,8.8,0.2,8.8
		C0.1,8.9,0,9,0,9.1c0,0.2,0.1,0.3,0.2,0.3l0,0l0,0C0.1,9.5,0,9.6,0,9.8c0,0.2,0.1,0.3,0.2,0.3c0.1,0.1,0.2,0.1,0.3,0.3
		c0,0,0,0,0.1,0.1s0.2,0.2,0.3,0.2c0,0,0,0,0.1,0c0.2,0,0.2-0.2,0.3-0.4c0-0.1,0-0.2,0.1-0.3c0.1-0.1,0.2-0.1,0.4-0.2l0,0
		c0.2,0,0.4,0,0.6,0c0,0.1-0.1,0.2-0.1,0.2c-0.1,0.2-0.1,0.3-0.1,0.3c-0.1,0.1-0.1,0.2-0.1,0.3c0,0.3,0,0.5,0.1,0.8s0.1,0.5,0.2,0.6
		c0,0.1,0.1,0.3,0.3,0.4s0.4,0,0.6-0.2c0.3-0.2,0.5-0.6,0.5-1c0-0.2-0.1-0.3-0.2-0.4s-0.1-0.2-0.2-0.4c0-0.2-0.1-0.3,0-0.5
		s0.2-0.2,0.3-0.3c0.2-0.1,0.5-0.1,0.6-0.1C4.6,9.6,4.7,9.7,5,10c0.1,0.1,0.3,0.3,0.4,0.4c0.4,0.3,0.7,0.5,0.9,0.7
		c0.3,0.2,0.3,0.2,0.4,0.4c0,0.2,0,0.3-0.1,0.4c-0.1,0.2-0.2,0.4-0.1,0.7c0.1,0.6,0.6,0.9,0.9,1.1c0.5,0.4,1.1,0.5,1.6,0.6
		c-0.3,0.3-0.1,0.7,0.1,1.2c0.2,0.4,0.3,0.9,0.4,1.6c0,0.3,0,1.2-0.5,1.6c-0.1,0.1-0.4,0.2-0.8,0.4c-0.3,0.2-0.6,0.3-0.8,0.4
		S7.1,19.6,7,19.7c-0.1,0-0.1,0.1-0.1,0.1c-0.1,0.1-0.1,0.2-0.1,0.3c0,0,0.1,0.1,0.2,0.2h0.1c0,0,0.1,0,0.2,0
		c-0.1,0-0.1,0.1-0.2,0.2c-0.4,0.4-0.5,0.7-0.5,0.9c0,0.3,0.2,0.5,0.4,0.6s0.4,0.1,0.5,0c0.1,0,0.3-0.1,0.5,0c0.1,0,0.2,0,0.2,0
		c0.1,0,0.1,0,0.1,0c0.2,0,0.3-0.1,0.3-0.1s0.1-0.2-0.1-0.3l-0.1-0.1c-0.1,0-0.2-0.1-0.2-0.2s0.1-0.2,0.2-0.2s0.3,0.1,0.4,0.1
		c0.1,0,0.1,0.1,0.2,0.1c0.2,0.1,0.3,0,0.3,0s0.1-0.1,0.1-0.3c0-0.1,0-0.1-0.1-0.2c-0.1-0.1-0.1-0.3-0.1-0.4c0-0.2,0.2-0.4,0.3-0.6
		c0.1-0.1,0.2-0.1,0.2-0.1l0.1,0.1c0,0.1,0.2,0.2,0.2,0.9c0,0,0,0.1,0,0.8l0,0c0,0.2,0,0.4,0,0.5s0,0.3,0.2,0.4c0.1,0,0.2,0,0.3-0.1
		c0.1,0,0.1-0.1,0.2-0.2l0.1-0.1v0.1c0.1,0.2,0.1,0.5,0.4,0.5h0.1c0.1,0,0.2,0,0.3-0.1c0.2-0.1,0.4-0.4,0.5-0.7
		c0.1-0.3,0-0.5-0.1-0.6c-0.1-0.1-0.1-0.2-0.1-0.3c0-0.2,0.2-0.3,0.2-0.4l0.1-0.1c0.1-0.1,0.1-0.3,0-0.3c0,0-0.1-0.2-0.3-0.1
		c0,0-0.1,0-0.1,0.1c-0.1,0-0.2,0.1-0.3,0.1c-0.1,0-0.1,0-0.1,0c-0.1,0-0.1-0.2-0.1-0.6c0-0.2,0-0.3,0.1-0.4c0,0,0.1-0.1,0.2-0.1
		c0.1,0,0.2,0,0.4-0.1c0.5-0.2,0.8-0.6,1-0.9c0.2-0.2,0.4-0.6,0.5-1.3C13.7,16.4,13.8,15.5,13.2,15z M1.8,9.1L1.8,9.1
		C1.5,9.2,1.3,9.2,1.1,9.4C1,9.5,1,9.6,1,9.7C0.9,9.6,0.8,9.5,0.7,9.4l0,0l0,0C0.8,9.3,0.9,9.2,0.9,9c0-0.1-0.1-0.2-0.1-0.3
		c0,0,0.1,0,0.2-0.1c0.3-0.1,0.5-0.2,0.9-0.2c0.3,0,0.6,0,0.9,0.1v0.1c0,0.1,0,0.1,0,0.2v0.1C2.4,9,2.1,9,1.8,9.1z M13.2,16.7
		c0,0.5-0.3,0.8-0.4,1c-0.2,0.3-0.4,0.6-0.8,0.7c-0.1,0-0.2,0-0.3,0c-0.2,0-0.4,0-0.5,0.2c-0.2,0.2-0.3,0.5-0.3,0.8s0,0.8,0.4,1
		c0.1,0,0.2,0.1,0.3,0c0,0,0,0,0,0.1c-0.1,0.3,0,0.5,0.1,0.6c0.1,0.1,0.1,0.2,0.1,0.3c0,0.1-0.1,0.2-0.2,0.3
		c-0.1,0.1-0.2,0.1-0.2,0.1l-0.1-0.2c0-0.2-0.1-0.4-0.4-0.5h-0.1c-0.2,0-0.3,0.1-0.4,0.2c0-0.1,0-0.1,0-0.2l0,0c0-0.7,0-0.8,0-0.8
		c0-0.7-0.2-1-0.3-1.1c-0.1-0.1-0.2-0.3-0.4-0.3s-0.4,0-0.6,0.2c-0.3,0.2-0.5,0.6-0.5,0.9c0,0.1,0,0.3,0,0.4c-0.1-0.1-0.3-0.1-0.5,0
		c-0.3,0.1-0.6,0.4-0.6,0.7c0,0.1,0,0.1,0,0.2c-0.2,0-0.3,0-0.4,0.1c-0.1,0-0.2,0-0.2,0c-0.1,0-0.2-0.2-0.2-0.3
		c0-0.1,0.1-0.3,0.3-0.5c0.5-0.4,1-0.5,1.2-0.6h0.1c0.2-0.1,0.2-0.3,0.2-0.3c0-0.1-0.1-0.2-0.2-0.2c0,0,0,0-0.1,0c0,0-0.1,0-0.2,0
		c-0.1,0-0.2,0-0.3,0c0.1,0,0.2-0.1,0.3-0.1c0.5-0.3,0.7-0.4,0.9-0.5c0.3-0.3,0.5-0.6,0.6-1.1c0.1-0.4,0.1-0.7,0.1-0.9
		c0-0.7-0.2-1.3-0.4-1.7c-0.1-0.4-0.2-0.6-0.1-0.7c0.1-0.1,0.3-0.1,0.4-0.1s0.1,0,0.1,0c0.2,0,0.2-0.2,0.2-0.2
		c0-0.1-0.1-0.2-0.2-0.2H9.5c-0.1,0-0.1,0-0.3,0c-0.4,0-1.2-0.1-1.9-0.6c-0.2-0.2-0.6-0.4-0.7-0.8c0-0.2,0-0.3,0.1-0.5
		s0.1-0.4,0.1-0.7c-0.1-0.3-0.3-0.5-0.5-0.6s-0.4-0.3-0.8-0.6C5.3,10,5.2,9.9,5.1,9.8C4.8,9.5,4.6,9.3,4.2,9.2
		c-0.1,0-0.5-0.1-0.9,0.1C3.1,9.4,2.9,9.6,2.8,9.8c-0.1,0.3-0.1,0.6-0.1,0.7c0.1,0.3,0.2,0.5,0.2,0.6C3,11.2,3,11.2,3,11.3
		c0,0.2-0.1,0.4-0.3,0.5c-0.1,0.1-0.2,0.1-0.2,0.2c0,0,0-0.1-0.1-0.2c0-0.1-0.1-0.3-0.1-0.5c-0.1-0.3-0.1-0.4-0.1-0.6
		c0-0.1,0-0.1,0.1-0.2c0-0.1,0.1-0.2,0.1-0.3c0.2-0.5,0.3-0.8,0.3-1c0-0.1,0-0.2,0-0.3c0,0,0,0,0-0.1c0,0,0.2,0,0.3,0
		c0.6,0,0.9-0.1,1.4,0c0.2,0,0.4,0.1,0.5,0.1c0.2,0,0.3,0.1,0.5,0s0.3-0.2,0.4-0.3C5.9,8.5,6,8.4,6.2,8.2c0,0,0.2-0.2,0.6-0.5l0,0
		C6.9,7.6,6.9,7.6,7,7.5C7.3,7.2,7.4,7.2,7.5,7C7.7,6.8,7.8,6.6,8,6.3C8.1,6,8.2,5.7,8.2,5.6s0-0.4,0-0.5S8.1,5,8,5
		C7.9,5,7.9,5,7.8,5.1C7.7,5.2,7.7,5.3,7.7,5.3c0,0.1,0,0.2-0.1,0.3C7.5,5.7,7.2,5.8,7,5.7c-0.1,0-0.1-0.1-0.2-0.2
		c0,0,0-0.1-0.1-0.1C6.6,5.3,6.5,5.3,6.4,5.3S6.3,5.4,6.3,5.6v0.1v0.1c0,0.1-0.2,0.1-0.4,0.1S5.5,5.7,5.5,5.6
		C5.4,5.5,5.3,5.4,5.3,5.3c0,0,0-0.2,0.1-0.3c0,0,0.1-0.1,0.3-0.1c0.2-0.1,0.4-0.1,0.5-0.1s0.2,0,0.4-0.1C6.9,4.6,7.2,4.3,7.4,4
		c0.1-0.2,0.1-0.4,0.1-0.6C7.4,3.2,7.3,3.1,7.2,3.1l0,0C6.9,2.9,6.4,2.4,6,1.7C5.7,1.2,5.4,0.9,5.3,0.6c0.1,0.1,0.3,0.2,0.5,0.3
		c0.4,0.3,0.8,0.6,1.2,1c0.3,0.4,0.6,0.7,0.9,1c0.2,0.2,0.3,0.3,0.4,0.5c0.1,0.1,0.3,0.3,0.5,0.2C8.9,3.5,9,3.4,9,3.2
		C9,3.1,9,3,9,2.9c0-0.1,0-0.2,0-0.2s0.1,0,0.1,0.1C9.2,2.9,9.3,3,9.3,3.1c0.1,0.2,0,0.4-0.1,0.6v0.1c0,0.1,0,0.3,0.1,0.3
		c0,0,0.2,0.1,0.3-0.1l0.1-0.1c0,0,0,0,0-0.1c0,0.1,0.1,0.2,0.1,0.3c0.1,0.1,0.3,0.1,0.4,0c0,0.1-0.1,0.3,0,0.4
		c0.1,0.1,0.3,0.1,0.5,0.1c-0.1,0.1-0.2,0.3-0.1,0.5c0.1,0.1,0.2,0.2,0.4,0.2c0,0,0,0-0.1,0c-0.1,0-0.1,0.1-0.1,0.1
		c-0.1,0.1-0.1,0.2-0.1,0.3c0.1,0.2,0.3,0.2,0.4,0.2C11,6,10.9,6.1,11,6.2c0,0.1,0.1,0.2,0.3,0.2c0.1,0,0.1,0,0.2,0h0.1
		c-0.1,0.1-0.2,0.2-0.3,0.2c-0.1,0.1-0.1,0.1-0.2,0.2L11,6.9c-0.1,0.1-0.1,0.2,0,0.3c0,0.1,0.1,0.1,0.2,0.1h0.1c0.1,0,0.1,0,0.2-0.1
		c-0.1,0.1-0.1,0.1-0.2,0.2c-0.3,0.2-0.6,0.3-0.7,0.3c-0.1,0-0.1,0-0.2,0.1c-0.2,0.1-0.2,0.2-0.2,0.3c0,0.1,0,0.2,0.2,0.2
		c0,0,0.1,0,0.2,0c0.1,0,0.2,0,0.4,0h0.1c-0.2,0.1-0.5,0.3-0.7,0.5c-0.2,0.3-0.3,0.8-0.3,1.3c0.1,0.5,0.2,0.9,0.5,1.3
		c0.1,0.2,0.2,0.2,0.3,0.3c0.1,0.1,0.3,0.2,0.6,0.6c0.1,0.1,0.4,0.5,0.7,0.9c0.2,0.3,0.3,0.5,0.3,0.6s0,0.1-0.1,0.2
		c-0.1,0.1-0.2,0.2-0.2,0.5c0,0.1,0,0.4,0.1,0.6c0.1,0.2,0.3,0.4,0.4,0.5c0.1,0,0.1,0.1,0.2,0.1C13.3,15.7,13.3,16.5,13.2,16.7z"/>
	<path d="M12.2,15.2c-0.1-0.1-0.2-0.1-0.3-0.1l0,0c-0.2,0-0.2,0.2-0.2,0.3c0,0.1,0,0.2-0.1,0.2c-0.1,0.1-0.1,0.1-0.2,0.1
		c-0.1,0-0.2,0.1-0.4,0.2s-0.3,0.2-0.4,0.3c-0.1,0.2-0.1,0.4-0.1,0.6c0,0.3,0,0.4,0.1,0.6c0,0.1,0.1,0.3,0.2,0.6
		c0,0.1,0.1,0.3,0.2,0.3l0,0c0,0,0.1,0,0.2-0.1v-0.1c0,0,0-0.1,0.1-0.1c0.1-0.1,0.1-0.1,0.2-0.1s0.2-0.1,0.3-0.2
		c0.1-0.1,0.1-0.3,0.1-0.4s0-0.1,0-0.2c0.1-0.1,0.3-0.2,0.4-0.2c0.1,0,0.1,0,0.2,0s0.2,0,0.3-0.1c0.2-0.2,0.1-0.5,0.1-0.6
		C12.7,15.8,12.4,15.4,12.2,15.2z M12.4,16.6L12.4,16.6L12.4,16.6c-0.1,0-0.2,0-0.3,0c-0.1,0-0.4,0.1-0.6,0.4
		c-0.1,0.2-0.1,0.3-0.1,0.4s0,0.1,0,0.1l-0.1,0.1c-0.1,0-0.2,0.1-0.4,0.2c0-0.2-0.1-0.3-0.1-0.4c-0.1-0.2-0.1-0.3-0.1-0.5
		s0-0.3,0.1-0.4c0.1-0.1,0.1-0.1,0.3-0.2c0.2-0.1,0.3-0.1,0.4-0.2c0.1,0,0.2-0.1,0.3-0.2c0.1-0.1,0.2-0.3,0.2-0.4
		c0,0,0.1,0.1,0.2,0.2c0.1,0.2,0.2,0.4,0.2,0.6C12.4,16.5,12.4,16.6,12.4,16.6z"/>
</g>
</svg>
