<?xml version="1.0" encoding="utf-8"?>
<!-- Generator: Adobe Illustrator 23.0.3, SVG Export Plug-In . SVG Version: 6.00 Build 0)  -->
<svg version="1.1" id="Layer_1" xmlns="http://www.w3.org/2000/svg" xmlns:xlink="http://www.w3.org/1999/xlink" x="0px" y="0px"
	 viewBox="0 0 7.4 13.2" style="enable-background:new 0 0 7.4 13.2;" xml:space="preserve">
<path d="M7.4,8.9c0,2.9-1.2,4.3-3.6,4.3c-1.2,0-2.1-0.4-2.8-1.1c-0.7-0.7-1-1.5-1-2.3C0,9.3,0.3,9,0.8,9s0.8,0.4,1,1.1
	c0.3,1.1,1,1.6,2,1.6c1.3,0,2-1,2-2.9V1c0-0.7,0.3-1,0.8-1s0.8,0.3,0.8,1C7.4,1,7.4,8.9,7.4,8.9z"/>
</svg>
