<?xml version="1.0" encoding="utf-8"?>
<!-- Generator: Adobe Illustrator 23.0.3, SVG Export Plug-In . SVG Version: 6.00 Build 0)  -->
<svg version="1.1" id="Layer_1" xmlns="http://www.w3.org/2000/svg" xmlns:xlink="http://www.w3.org/1999/xlink" x="0px" y="0px"
	 viewBox="0 0 7.8 13.2" style="enable-background:new 0 0 7.8 13.2;" xml:space="preserve">
<path d="M6.8,10.9l0.7,0.9c0.2,0.2,0.3,0.4,0.3,0.6c0,0.5-0.2,0.7-0.7,0.7c-0.2,0-0.4-0.1-0.6-0.3L6,12.2c-0.6,0.7-1.3,1-2.3,1
	C1.2,13.2,0,11,0,6.6S1.2,0,3.7,0s3.7,2.2,3.7,6.6C7.5,8.2,7.3,9.6,6.8,10.9z M5.1,10.9L3.6,9C3.4,8.8,3.3,8.6,3.3,8.4
	c0-0.5,0.2-0.7,0.7-0.7c0.2,0,0.4,0.1,0.6,0.3l1.1,1.4c0.2-0.7,0.2-1.7,0.2-3c0-3.4-0.7-5.1-2.1-5.1C2.4,1.3,1.7,3,1.7,6.5
	c0,3.4,0.7,5.1,2.1,5.1C4.3,11.6,4.8,11.3,5.1,10.9z"/>
</svg>
