<?xml version="1.0" encoding="utf-8"?>
<!-- Generator: Adobe Illustrator 23.0.3, SVG Export Plug-In . SVG Version: 6.00 Build 0)  -->
<svg version="1.1" id="Layer_1" xmlns="http://www.w3.org/2000/svg" xmlns:xlink="http://www.w3.org/1999/xlink" x="0px" y="0px"
	 viewBox="0 0 7.4 13.3" style="enable-background:new 0 0 7.4 13.3;" xml:space="preserve">
<path d="M6.1,2.2L4.5,12.6c-0.1,0.5-0.3,0.7-0.7,0.7s-0.6-0.2-0.7-0.7L1.4,2.1v10.3c0,0.5-0.2,0.8-0.7,0.8c-0.4,0-0.7-0.3-0.7-0.8
	v-11C0,0.4,0.4,0,1.2,0c0.6,0,1,0.4,1.1,1.2l1.4,8.5l1.4-8.5C5.2,0.4,5.6,0,6.2,0C7,0,7.4,0.5,7.4,1.4v11c0,0.5-0.2,0.8-0.7,0.8
	c-0.4,0-0.7-0.3-0.7-0.8L6.1,2.2L6.1,2.2z"/>
</svg>
