<?xml version="1.0" encoding="utf-8"?>
<!-- Generator: Adobe Illustrator 23.0.3, SVG Export Plug-In . SVG Version: 6.00 Build 0)  -->
<svg version="1.1" id="Layer_1" xmlns="http://www.w3.org/2000/svg" xmlns:xlink="http://www.w3.org/1999/xlink" x="0px" y="0px"
	 viewBox="0 0 7 13.2" style="enable-background:new 0 0 7 13.2;" xml:space="preserve">
<path d="M1.5,5.8c0.7-0.9,1.6-1.4,2.6-1.4c0.9,0,1.6,0.4,2.1,1.2S7,7.4,7,8.7c0,1.4-0.3,2.5-0.9,3.3s-1.5,1.2-2.5,1.2
	C1.2,13.2,0,11.1,0,7c0-4.7,1.3-7,4-7c1.2,0,2.1,0.5,2.7,1.6C6.9,2,7,2.4,7,2.7c0,0.5-0.3,0.8-0.8,0.8c-0.4,0-0.7-0.3-0.8-0.8
	C5.2,1.8,4.7,1.4,4,1.4C2.5,1.2,1.7,2.8,1.5,5.8z M1.5,7.4c0,2.9,0.7,4.4,2,4.4s1.9-1.1,1.9-3.2c0-2-0.5-3-1.6-3
	C2.9,5.6,2.1,6.2,1.5,7.4z"/>
</svg>
