<?xml version="1.0" encoding="utf-8"?>
<!-- Generator: Adobe Illustrator 23.0.3, SVG Export Plug-In . SVG Version: 6.00 Build 0)  -->
<svg version="1.1" id="Layer_1" xmlns="http://www.w3.org/2000/svg" xmlns:xlink="http://www.w3.org/1999/xlink" x="0px" y="0px"
	 viewBox="0 0 7.2 13.2" style="enable-background:new 0 0 7.2 13.2;" xml:space="preserve">
<path d="M3.7,0C5,0,5.9,0.6,6.4,1.8s0.8,2.8,0.8,4.9c0,2.3-0.3,4-0.9,5s-1.5,1.5-2.7,1.5s-2.1-0.5-2.7-1.5S0,9,0,6.7
	c0-2.2,0.3-3.9,0.8-5C1.4,0.5,2.3,0,3.7,0z M3.6,1.3C2.3,1.3,1.7,3,1.7,6.5s0.6,5.2,1.9,5.2s1.9-1.8,1.9-5.3
	C5.6,3.1,4.9,1.3,3.6,1.3z"/>
</svg>
