<?xml version="1.0" encoding="utf-8"?>
<!-- Generator: Adobe Illustrator 23.0.3, SVG Export Plug-In . SVG Version: 6.00 Build 0)  -->
<svg version="1.1" id="Layer_1" xmlns="http://www.w3.org/2000/svg" xmlns:xlink="http://www.w3.org/1999/xlink" x="0px" y="0px"
	 viewBox="0 0 7.3 13.1" style="enable-background:new 0 0 7.3 13.1;" xml:space="preserve">
<path d="M4.4,6.6c0.7,0.2,1.2,0.5,1.5,0.9C6.3,8,6.6,9.2,7,10.9l0.2,1l0.1,0.4c0,0.5-0.3,0.8-0.8,0.8s-0.8-0.3-0.9-1l-0.3-1.9
	C5.1,8.8,4.7,7.9,4.2,7.6C3.8,7.3,3.3,7.1,2.8,7.1H1.6V12c0,0.7-0.3,1-0.8,1S0,12.7,0,12V1.4c0-0.4,0.1-0.7,0.4-1C0.7,0.1,1,0,1.4,0
	h2.1C6,0,7.3,1.1,7.3,3.4C7.2,5.1,6.3,6.2,4.4,6.6z M1.5,5.7h1.3c1.8,0,2.8-0.8,2.8-2.3c0-1.3-0.8-1.9-2.3-1.9H2.2
	c-0.5,0-0.7,0.2-0.7,0.7V5.7z"/>
</svg>
