<?xml version="1.0" encoding="utf-8"?>
<!-- Generator: Adobe Illustrator 23.0.3, SVG Export Plug-In . SVG Version: 6.00 Build 0)  -->
<svg version="1.1" id="Layer_1" xmlns="http://www.w3.org/2000/svg" xmlns:xlink="http://www.w3.org/1999/xlink" x="0px" y="0px"
	 viewBox="0 0 7.5 13.3" style="enable-background:new 0 0 7.5 13.3;" xml:space="preserve">
<path d="M1.5,6.5l4.1-6C5.8,0.2,6,0.1,6.3,0.1C6.8,0.1,7,0.3,7,0.8c0,0.1-0.1,0.3-0.2,0.5L4,5.3L7.3,12c0.1,0.2,0.2,0.4,0.2,0.5
	c0,0.5-0.3,0.7-0.8,0.7c-0.3,0-0.6-0.2-0.8-0.6L3,6.7l-1.4,2v3.6c0,0.6-0.3,1-0.8,1S0,13,0,12.3V1c0-0.6,0.3-1,0.8-1s0.8,0.3,0.8,1
	L1.5,6.5L1.5,6.5z"/>
</svg>
