<?xml version="1.0" encoding="utf-8"?>
<!-- Generator: Adobe Illustrator 23.0.3, SVG Export Plug-In . SVG Version: 6.00 Build 0)  -->
<svg version="1.1" id="Layer_1" xmlns="http://www.w3.org/2000/svg" xmlns:xlink="http://www.w3.org/1999/xlink" x="0px" y="0px"
	 viewBox="0 0 7.3 12.8" style="enable-background:new 0 0 7.3 12.8;" xml:space="preserve">
<path d="M2.5,0.1c3.2,0,4.8,2.1,4.8,6.3c0,4.2-1.5,6.3-4.4,6.4H1.3c-0.4,0-0.7-0.2-1-0.5C0.1,12.1,0,11.8,0,11.4v-10
	c0-0.4,0.1-0.7,0.4-1S1,0,1.3,0L2.5,0.1L2.5,0.1z M1.5,2.3v8.4c0,0.4,0.2,0.7,0.6,0.7h0.5c2,0,3.1-1.6,3.1-4.9c0-3.2-1-4.8-3-4.8
	H2.1C1.7,1.6,1.6,1.8,1.5,2.3z"/>
</svg>
