<?xml version="1.0" encoding="utf-8"?>
<!-- Generator: Adobe Illustrator 23.0.3, SVG Export Plug-In . SVG Version: 6.00 Build 0)  -->
<svg version="1.1" id="Layer_1" xmlns="http://www.w3.org/2000/svg" xmlns:xlink="http://www.w3.org/1999/xlink" x="0px" y="0px"
	 viewBox="0 0 7.6 13" style="enable-background:new 0 0 7.6 13;" xml:space="preserve">
<path d="M2.4,6.1c-1.4-0.5-2-1.5-2-2.9c0-0.9,0.3-1.7,0.9-2.3S2.8,0,3.8,0s1.9,0.3,2.5,0.9c0.6,0.6,0.9,1.4,0.9,2.3
	c0,1.4-0.7,2.4-2,2.9c1.6,0.6,2.4,1.7,2.4,3.3c0,1.1-0.3,2-1,2.6c-0.7,0.7-1.6,1-2.8,1c-1.2,0-2.1-0.3-2.8-1c-0.7-0.7-1-1.6-1-2.6
	C0.1,7.8,0.9,6.7,2.4,6.1z M3.8,6.8C3.2,6.8,2.7,7,2.3,7.5S1.7,8.6,1.7,9.4c0,1.6,0.7,2.4,2.2,2.4S6.1,11,6.1,9.3
	c0-0.8-0.2-1.4-0.7-1.8C5,7,4.4,6.8,3.8,6.8z M3.8,1.3c-1.3,0-1.9,0.7-1.9,2c0,0.6,0.2,1.1,0.6,1.5s0.8,0.6,1.4,0.6s1-0.2,1.4-0.6
	c0.4-0.4,0.5-0.9,0.5-1.5C5.8,2,5.1,1.3,3.8,1.3z"/>
</svg>
