<?xml version="1.0" encoding="utf-8"?>
<!-- Generator: Adobe Illustrator 23.0.3, SVG Export Plug-In . SVG Version: 6.00 Build 0)  -->
<svg version="1.1" id="Layer_1" xmlns="http://www.w3.org/2000/svg" xmlns:xlink="http://www.w3.org/1999/xlink" x="0px" y="0px"
	 viewBox="0 0 7.4 13" style="enable-background:new 0 0 7.4 13;" xml:space="preserve">
<path d="M1.6,5.7h4.2c0.6,0,0.9,0.2,0.9,0.7S6.4,7.1,5.8,7.1H1.6V12c0,0.7-0.3,1-0.8,1S0,12.7,0,12V1.4c0-0.4,0.1-0.7,0.4-1
	C0.6,0.2,0.9,0,1.3,0h5.2c0.6,0,0.9,0.2,0.9,0.7S7.1,1.4,6.5,1.4H2.2c-0.4,0-0.7,0.2-0.7,0.7v3.6L1.6,5.7L1.6,5.7z"/>
</svg>
