<?xml version="1.0" encoding="utf-8"?>
<!-- Generator: Adobe Illustrator 23.0.3, SVG Export Plug-In . SVG Version: 6.00 Build 0)  -->
<svg version="1.1" id="Layer_1" xmlns="http://www.w3.org/2000/svg" xmlns:xlink="http://www.w3.org/1999/xlink" x="0px" y="0px"
	 viewBox="0 0 7.1 12.8" style="enable-background:new 0 0 7.1 12.8;" xml:space="preserve">
<path d="M1.8,11.4h4.4c0.5,0,0.8,0.2,0.8,0.7c0,0.4-0.3,0.7-0.8,0.7H1.1c-0.8,0-1.1-0.3-1.1-1c0-0.3,0.3-0.8,1-1.5
	c1.7-2,3-3.6,3.7-5c0.4-0.7,0.6-1.4,0.6-2.1c0-0.6-0.2-1.1-0.5-1.4C4.5,1.4,4.1,1.3,3.6,1.3c-1,0-1.6,0.6-1.7,1.8
	c-0.1,0.6-0.4,1-0.9,1S0.2,3.8,0.2,3.3c0-0.4,0.1-0.8,0.4-1.3c0.6-1.3,1.7-2,3.2-2c1,0,1.8,0.3,2.4,0.9c0.6,0.6,0.9,1.3,0.9,2.2
	c0,1.5-1,3.5-3.1,6L1.8,11.4z"/>
</svg>
