<?xml version="1.0" encoding="utf-8"?>
<!-- Generator: Adobe Illustrator 23.0.3, SVG Export Plug-In . SVG Version: 6.00 Build 0)  -->
<svg version="1.1" id="Layer_1" xmlns="http://www.w3.org/2000/svg" xmlns:xlink="http://www.w3.org/1999/xlink" x="0px" y="0px"
	 viewBox="0 0 7.8 13.2" style="enable-background:new 0 0 7.8 13.2;" xml:space="preserve">
<path d="M3.8,6.2l1.9,3c0.1-0.5,0.2-1.3,0.2-2.3C5.9,6.3,6.1,6,6.6,6C7,6,7.3,6.3,7.3,6.8c0,1.5-0.2,2.8-0.7,3.8l1,1.5
	c0.1,0.2,0.2,0.3,0.2,0.5c0,0.4-0.2,0.6-0.7,0.6c-0.2,0-0.5-0.1-0.7-0.4l-0.6-0.9c-0.8,0.9-1.6,1.3-2.6,1.3s-1.8-0.3-2.3-0.9
	C0.3,11.7,0,10.9,0,10c0-1.2,0.7-2.5,2.1-3.9L1.9,5.8C1.1,4.6,0.7,3.6,0.7,2.7C0.7,0.9,1.6,0,3.4,0C5.1,0,6,0.8,6,2.5
	c0,0.7-0.2,1.3-0.6,1.8C5.1,4.8,4.5,5.4,3.8,6.2z M5.1,10.6L2.8,7.1C1.9,8,1.5,9,1.5,9.9c0,1.2,0.6,1.9,1.8,1.9
	C4.1,11.8,4.7,11.4,5.1,10.6z M3.1,5.1c1-1,1.5-1.9,1.5-2.6c0-0.8-0.4-1.2-1.2-1.2c-0.9,0-1.3,0.4-1.3,1.2C2.1,3.2,2.4,4.1,3.1,5.1z
	"/>
</svg>
