<?xml version="1.0" encoding="utf-8"?>
<!-- Generator: Adobe Illustrator 23.0.3, SVG Export Plug-In . SVG Version: 6.00 Build 0)  -->
<svg version="1.1" id="Layer_1" xmlns="http://www.w3.org/2000/svg" xmlns:xlink="http://www.w3.org/1999/xlink" x="0px" y="0px"
	 viewBox="0 0 7.7 13.2" style="enable-background:new 0 0 7.7 13.2;" xml:space="preserve">
<path d="M6.2,8.6h0.7c0.5,0,0.8,0.2,0.8,0.7c0,0.4-0.3,0.7-0.8,0.7H6.2v2.3c0,0.6-0.2,0.9-0.7,0.9s-0.7-0.3-0.7-0.9V10H1
	c-0.7,0-1-0.3-1-1c0-0.2,0.1-0.5,0.2-0.7l4.1-7.6C4.5,0.2,4.9,0,5.3,0c0.6,0,1,0.4,1,1.1L6.2,8.6L6.2,8.6z M1.5,8.6h3.2V2.5L1.5,8.6
	z"/>
</svg>
