<?xml version="1.0" encoding="utf-8"?>
<!-- Generator: Adobe Illustrator 23.0.3, SVG Export Plug-In . SVG Version: 6.00 Build 0)  -->
<svg version="1.1" id="Layer_1" xmlns="http://www.w3.org/2000/svg" xmlns:xlink="http://www.w3.org/1999/xlink" x="0px" y="0px"
	 viewBox="0 0 7.4 12.7" style="enable-background:new 0 0 7.4 12.7;" xml:space="preserve">
<path d="M1.5,5.6h4c0.6,0,0.9,0.2,0.9,0.7S6.1,7,5.5,7h-4v3.6c0,0.4,0.2,0.7,0.7,0.7h4.3c0.6,0,0.9,0.2,0.9,0.7s-0.3,0.7-0.9,0.7
	H1.3c-0.4,0-0.7-0.1-1-0.4C0.1,12,0,11.7,0,11.4v-10c0-0.4,0.1-0.7,0.4-1S1,0,1.3,0h5.2c0.6,0,0.9,0.2,0.9,0.7S7.1,1.4,6.5,1.4H2.2
	c-0.4,0-0.7,0.2-0.7,0.7C1.5,2.1,1.5,5.6,1.5,5.6z"/>
</svg>
