<?xml version="1.0" encoding="utf-8"?>
<!-- Generator: Adobe Illustrator 23.0.3, SVG Export Plug-In . SVG Version: 6.00 Build 0)  -->
<svg version="1.1" id="Layer_1" xmlns="http://www.w3.org/2000/svg" xmlns:xlink="http://www.w3.org/1999/xlink" x="0px" y="0px"
	 viewBox="0 0 11.5 16.7" style="enable-background:new 0 0 11.5 16.7;" xml:space="preserve">
<g>
	<path d="M11.3,10.2l-5-5.1c-0.4-0.4-1-0.4-1.3,0c-0.4,0.4-0.4,1,0,1.3L9,10.6l-4.1,4.4c-0.4,0.4-0.3,1,0,1.3
		c0.2,0.2,0.4,0.3,0.7,0.3c0.3,0,0.5-0.1,0.7-0.3l4.3-4.6c0,0,0,0,0,0c0.2,0,0.5-0.1,0.7-0.3C11.6,11.2,11.6,10.6,11.3,10.2z"/>
	<path d="M6,11.9c0.2,0,0.5-0.1,0.7-0.3c0.4-0.4,0.4-1,0-1.3L2.5,5.8l4.2-4.2c0.4-0.4,0.4-1,0-1.3c-0.4-0.4-1-0.4-1.3,0l-5,5.1
		c-0.4,0.4-0.4,1,0,1.3C0.5,6.9,0.7,7,1,7c0,0,0,0,0,0l4.3,4.6C5.5,11.8,5.7,11.9,6,11.9z"/>
</g>
</svg>
