<?xml version="1.0" encoding="utf-8"?>
<!-- Generator: Adobe Illustrator 23.0.3, SVG Export Plug-In . SVG Version: 6.00 Build 0)  -->
<svg version="1.1" id="Layer_1" xmlns="http://www.w3.org/2000/svg" xmlns:xlink="http://www.w3.org/1999/xlink" x="0px" y="0px"
	 viewBox="0 0 9.4 15" style="enable-background:new 0 0 9.4 15;" xml:space="preserve">
<path d="M9.2,0.3C9,0.1,8.7,0,8.4,0C7.8,0,7.3,0.5,7.3,1.1v7.3L2.1,3.5V1.2c0-0.6-0.5-1.1-1.1-1.1C0.5,0.1,0,0.6,0,1.2v12.7
	C0,14.5,0.5,15,1.1,15c0.6,0,1.1-0.5,1.1-1.1V6.7l5.1,4.9v2.3c0,0.6,0.5,1.1,1.1,1.1c0.6,0,1.1-0.5,1.1-1.1l0-12.6
	C9.4,0.9,9.3,0.6,9.2,0.3z"/>
</svg>
