<?xml version="1.0" encoding="utf-8"?>
<!-- Generator: Adobe Illustrator 23.0.3, SVG Export Plug-In . SVG Version: 6.00 Build 0)  -->
<svg version="1.1" id="Layer_1" xmlns="http://www.w3.org/2000/svg" xmlns:xlink="http://www.w3.org/1999/xlink" x="0px" y="0px"
	 viewBox="0 0 8.6 15.1" style="enable-background:new 0 0 8.6 15.1;" xml:space="preserve">
<path d="M8.6,8.5V8.1c0-0.4,0-0.9-0.3-1.3L5.6,4.1l2.5-2.5c0.3-0.5,0.3-1,0-1.4C7.7-0.1,7-0.1,6.6,0.3L4.3,2.7L2.2,0.6
	C2,0.4,1.8,0.2,1.5,0.2h0c-0.3,0-0.5,0.1-0.7,0.3C0.5,0.7,0.4,1,0.4,1.3c0,0.3,0.1,0.6,0.3,0.7l2.2,2.2L0.7,6.5
	C0.6,6.5,0.4,6.7,0.4,6.7C0.1,6.9,0,7.2,0,7.5s0.1,0.6,0.3,0.7L3,10.9l-2.4,2.5c-0.3,0.5-0.3,1,0,1.4c0.2,0.2,0.5,0.3,0.8,0.3
	c0.2,0,0.4-0.1,0.5-0.2l2.6-2.6l2,2.1c0.2,0.2,0.5,0.3,0.8,0.3c0.2,0,0.4-0.1,0.5-0.2L8,14.5c0.2-0.2,0.4-0.4,0.4-0.8
	c0-0.3-0.1-0.6-0.3-0.7l-2.1-2.1l2.4-2.4H8.6z M4.3,9.3L2.4,7.4l1.8-1.8l1.9,1.9L4.3,9.3z"/>
</svg>
