<?xml version="1.0" encoding="utf-8"?>
<!-- Generator: Adobe Illustrator 23.0.3, SVG Export Plug-In . SVG Version: 6.00 Build 0)  -->
<svg version="1.1" id="Layer_1" xmlns="http://www.w3.org/2000/svg" xmlns:xlink="http://www.w3.org/1999/xlink" x="0px" y="0px"
	 viewBox="0 0 7.8 14.8" style="enable-background:new 0 0 7.8 14.8;" xml:space="preserve">
<path d="M7.5,9.2L4.9,6.6V1.1C4.9,0.5,4.4,0,3.8,0C3.2,0,2.7,0.5,2.7,1.1v3.3L1.9,3.5c-0.4-0.4-1.1-0.4-1.5,0C-0.1,4-0.1,4.6,0.3,5
	l2.5,2.5v6.2c0,0.6,0.5,1.1,1.1,1.1c0.6,0,1.1-0.5,1.1-1.1V9.7l1,1C6.1,10.8,6.4,11,6.7,11c0.3,0,0.5-0.1,0.7-0.3
	c0.2-0.1,0.3-0.3,0.4-0.5C7.9,9.9,7.7,9.5,7.5,9.2z"/>
</svg>
