<?xml version="1.0" encoding="utf-8"?>
<!-- Generator: Adobe Illustrator 23.0.3, SVG Export Plug-In . SVG Version: 6.00 Build 0)  -->
<svg version="1.1" id="Layer_1" xmlns="http://www.w3.org/2000/svg" xmlns:xlink="http://www.w3.org/1999/xlink" x="0px" y="0px"
	 viewBox="0 0 10.1 15.1" style="enable-background:new 0 0 10.1 15.1;" xml:space="preserve">
<path d="M8.9,0.5c-0.3,0-0.5,0.2-0.6,0.3l-6.2,6V6l3.7-4.2c0.3-0.5,0.3-1-0.1-1.4c-0.5-0.3-1-0.3-1.4,0.1L2.1,2.9V1.1
	C2.1,0.5,1.7,0,1.1,0C0.5,0,0,0.5,0,1.1V14c0,0.6,0.5,1.1,1.1,1.1c0.6,0,1.1-0.5,1.1-1.1V9.6l7.6-7.4C10,2,10.1,1.7,10.1,1.4
	c0-0.2-0.2-0.5-0.4-0.6C9.5,0.6,9.2,0.5,8.9,0.5z"/>
</svg>
