<?xml version="1.0" encoding="utf-8"?>
<!-- Generator: Adobe Illustrator 23.0.3, SVG Export Plug-In . SVG Version: 6.00 Build 0)  -->
<svg version="1.1" id="Layer_1" xmlns="http://www.w3.org/2000/svg" xmlns:xlink="http://www.w3.org/1999/xlink" x="0px" y="0px"
	 viewBox="0 0 12.3 16.2" style="enable-background:new 0 0 12.3 16.2;" xml:space="preserve">
<path d="M12,0.3c-0.4-0.4-1-0.4-1.4,0L7,4.1V1c0-0.6-0.4-1-1-1S5,0.4,5,1v2.6L1.7,0.3c-0.4-0.4-1-0.4-1.4,0c-0.4,0.4-0.4,1,0,1.4
	L5,6.5v8.7c0,0.6,0.4,1,1,1s1-0.4,1-1V7.1c0,0,0,0,0,0l5-5.4C12.4,1.3,12.4,0.6,12,0.3z"/>
</svg>
