<?xml version="1.0" encoding="utf-8"?>
<!-- Generator: Adobe Illustrator 23.0.3, SVG Export Plug-In . SVG Version: 6.00 Build 0)  -->
<svg version="1.1" id="Layer_1" xmlns="http://www.w3.org/2000/svg" xmlns:xlink="http://www.w3.org/1999/xlink" x="0px" y="0px"
	 viewBox="0 0 9.3 16.4" style="enable-background:new 0 0 9.3 16.4;" xml:space="preserve">
<path d="M9.1,15.2l-3.9-3.8c0,0,0,0,0,0c0,0,0,0,0,0c0,0-0.1,0-0.1-0.1c0,0-0.1-0.1-0.1-0.1c-0.1,0-0.1,0-0.2,0c0,0-0.1,0-0.1,0
	c-0.1,0-0.1,0-0.2,0c0,0-0.1,0-0.1,0c0,0-0.1,0.1-0.1,0.1c0,0-0.1,0-0.1,0.1c0,0,0,0,0,0c0,0,0,0,0,0L2,13.5V2.9L4.2,5
	c0.1,0.1,0.3,0.2,0.5,0.2c0,0,0,0,0,0c0,0,0,0,0,0C5,5.2,5.2,5.1,5.3,5L9,1.2c0.3-0.3,0.3-0.7,0-1C8.7-0.1,8.2-0.1,8,0.2L4.7,3.5
	L2,0.9C1.9,0.4,1.5,0,1,0c0,0-0.1,0-0.1,0C0.7,0,0.4,0,0.2,0.2C0.1,0.4,0,0.6,0,0.8C0,0.9,0,0.9,0,1v14.3c0,0.3,0.1,0.6,0.4,0.8
	c0,0,0,0,0,0.1c0.1,0.1,0.3,0.2,0.5,0.2c0,0,0,0,0,0c0,0,0,0,0,0c0.5,0,0.8-0.3,1-0.7l2.7-2.7l3.4,3.3c0.1,0.1,0.3,0.2,0.5,0.2
	c0.2,0,0.4-0.1,0.5-0.2C9.4,15.9,9.4,15.4,9.1,15.2z"/>
</svg>
