<?xml version="1.0" encoding="utf-8"?>
<!-- Generator: Adobe Illustrator 23.0.3, SVG Export Plug-In . SVG Version: 6.00 Build 0)  -->
<svg version="1.1" id="Layer_1" xmlns="http://www.w3.org/2000/svg" xmlns:xlink="http://www.w3.org/1999/xlink" x="0px" y="0px"
	 viewBox="0 0 11.5 16.7" style="enable-background:new 0 0 11.5 16.7;" xml:space="preserve">
<path d="M11.3,15.1l-4.1-4.2l4-4.3c0.3-0.4,0.3-1,0-1.3c0,0-0.1-0.1-0.1-0.1L6.4,0.6c0-0.1-0.1-0.3-0.2-0.4c-0.4-0.3-1-0.3-1.3,0
	l-4.6,5C0.1,5.4,0,5.7,0,5.9c0,0.3,0,0.6,0.2,0.8l4.1,4.1L0.4,15c-0.3,0.4-0.3,1,0,1.3c0.2,0.2,0.4,0.2,0.6,0.2
	c0.2,0,0.5-0.1,0.7-0.3l3.9-4.2l4.3,4.3c0.2,0.2,0.4,0.3,0.7,0.3c0.2,0,0.5-0.1,0.6-0.3C11.6,16.1,11.6,15.5,11.3,15.1z M2.1,6
	l3.4-3.6l3.7,3.7L5.8,9.7L2.1,6z"/>
</svg>
