<?xml version="1.0" encoding="utf-8"?>
<!-- Generator: Adobe Illustrator 23.0.3, SVG Export Plug-In . SVG Version: 6.00 Build 0)  -->
<svg version="1.1" id="Layer_1" xmlns="http://www.w3.org/2000/svg" xmlns:xlink="http://www.w3.org/1999/xlink" x="0px" y="0px"
	 viewBox="0 0 11.7 11.7" style="enable-background:new 0 0 11.7 11.7;" xml:space="preserve">
<path d="M11.6,10.5V1.4c0-0.1,0-0.2-0.1-0.3c0-0.3-0.1-0.6-0.3-0.8c-0.4-0.4-1-0.3-1.3,0L5.9,4.7L2.1,0.8L1.8,0.5L1.6,0.3
	c-0.4-0.4-1-0.4-1.3,0c-0.4,0.4-0.4,0.9,0,1.3v8.8c0,0.2,0,0.3,0,0.5c0,0.2,0.1,0.3,0.3,0.5c0.2,0.2,0.4,0.3,0.6,0.3
	c0.2,0,0.5-0.1,0.7-0.3l0.5-0.5l3.5-3.7L9.6,11l0.5,0.5c0.2,0.2,0.4,0.3,0.7,0.3c0.2,0,0.5-0.1,0.7-0.3c0.1-0.1,0.2-0.2,0.2-0.3
	C11.7,10.9,11.7,10.7,11.6,10.5z M2.3,8.1V3.7l2.1,2.2L2.3,8.1z M7.2,5.9l2.3-2.5v4.9L7.2,5.9z"/>
</svg>
