<?xml version="1.0" encoding="utf-8"?>
<!-- Generator: Adobe Illustrator 23.0.3, SVG Export Plug-In . SVG Version: 6.00 Build 0)  -->
<svg version="1.1" id="Layer_1" xmlns="http://www.w3.org/2000/svg" xmlns:xlink="http://www.w3.org/1999/xlink" x="0px" y="0px"
	 viewBox="0 0 12.9 16.7" style="enable-background:new 0 0 12.9 16.7;" xml:space="preserve">
<path d="M12.6,5.6L7.3,0.3C7-0.1,6.4-0.1,6.1,0.2c-0.3,0-0.6,0.1-0.8,0.3l-5,5.4c-0.4,0.4-0.4,1,0,1.4C0.5,7.4,0.8,7.5,1,7.5
	c0.3,0,0.5-0.1,0.7-0.3l3.8-4v12.5c0,0.6,0.4,1,1,1s1-0.4,1-1V3.3l3.7,3.7c0.2,0.2,0.5,0.3,0.7,0.3c0.3,0,0.5-0.1,0.7-0.3
	C13,6.7,13,6,12.6,5.6z"/>
</svg>
