<?xml version="1.0" encoding="utf-8"?>
<!-- Generator: Adobe Illustrator 23.0.3, SVG Export Plug-In . SVG Version: 6.00 Build 0)  -->
<svg version="1.1" id="Layer_1" xmlns="http://www.w3.org/2000/svg" xmlns:xlink="http://www.w3.org/1999/xlink" x="0px" y="0px"
	 viewBox="0 0 12.3 16.2" style="enable-background:new 0 0 12.3 16.2;" xml:space="preserve">
<path d="M12.3,1c0-0.1,0-0.2,0-0.2c0,0,0-0.1,0-0.1c0,0-0.1-0.1-0.1-0.1c0-0.1-0.1-0.1-0.1-0.2c0,0,0,0,0,0c0,0-0.1,0-0.1-0.1
	c-0.1,0-0.1-0.1-0.2-0.1c-0.1,0-0.2,0-0.2,0c0,0-0.1,0-0.1,0c0,0,0,0,0,0c-0.1,0-0.2,0-0.3,0.1c0,0-0.1,0-0.1,0c0,0-0.1,0.1-0.1,0.1
	c-0.1,0-0.1,0.1-0.2,0.1c0,0,0,0,0,0L6.3,4.9L1.7,0.3c0,0,0,0,0,0C1.6,0.2,1.5,0.1,1.4,0.1C1.3,0,1.1,0,1,0c0,0,0,0,0,0
	C0.9,0,0.9,0,0.9,0c-0.1,0-0.2,0-0.2,0c-0.1,0-0.2,0.1-0.3,0.2c0,0,0,0-0.1,0c0,0,0,0,0,0C0.2,0.4,0.1,0.5,0.1,0.6C0,0.7,0,0.9,0,1
	c0,0,0,0,0,0v14.2c0,0.6,0.4,1,1,1s1-0.4,1-1V3.4l3.6,3.6c0,0,0,0,0,0c0,0,0,0,0,0c0.1,0.1,0.1,0.1,0.2,0.1c0,0,0.1,0.1,0.1,0.1
	c0.1,0,0.2,0.1,0.4,0.1c0.1,0,0.3,0,0.4-0.1c0,0,0.1-0.1,0.1-0.1c0.1,0,0.1-0.1,0.2-0.1c0,0,0,0,0,0c0,0,0,0,0,0l3.3-3.5v11.6
	c0,0.6,0.4,1,1,1s1-0.4,1-1L12.3,1C12.3,1,12.3,1,12.3,1z"/>
</svg>
